<svg xmlns="http://www.w3.org/2000/svg" viewBox="0 0 119 140" font-family="monospace">

  <!-- Pixel border (1px thick, rounded corners via pixel placement) -->
  <!-- Top edge (with rounded corners) -->
  <rect x="14" y="7" width="7" height="7" fill="#5B21B6"/>
  <rect x="21" y="7" width="7" height="7" fill="#5B21B6"/>
  <rect x="28" y="7" width="7" height="7" fill="#5B21B6"/>
  <rect x="35" y="7" width="7" height="7" fill="#5B21B6"/>
  <rect x="42" y="7" width="7" height="7" fill="#5B21B6"/>
  <rect x="49" y="7" width="7" height="7" fill="#5B21B6"/>
  <rect x="56" y="7" width="7" height="7" fill="#5B21B6"/>
  <rect x="63" y="7" width="7" height="7" fill="#5B21B6"/>
  <rect x="70" y="7" width="7" height="7" fill="#5B21B6"/>
  <rect x="77" y="7" width="7" height="7" fill="#5B21B6"/>
  <rect x="84" y="7" width="7" height="7" fill="#5B21B6"/>
  <rect x="91" y="7" width="7" height="7" fill="#5B21B6"/>
  <rect x="98" y="7" width="7" height="7" fill="#5B21B6"/>

  <!-- Left edge (with rounded corners) -->
  <rect x="7" y="14" width="7" height="7" fill="#5B21B6"/>
  <rect x="7" y="21" width="7" height="7" fill="#5B21B6"/>
  <rect x="7" y="28" width="7" height="7" fill="#5B21B6"/>
  <rect x="7" y="35" width="7" height="7" fill="#5B21B6"/>
  <rect x="7" y="42" width="7" height="7" fill="#5B21B6"/>
  <rect x="7" y="49" width="7" height="7" fill="#5B21B6"/>
  <rect x="7" y="56" width="7" height="7" fill="#5B21B6"/>
  <rect x="7" y="63" width="7" height="7" fill="#5B21B6"/>
  <rect x="7" y="70" width="7" height="7" fill="#5B21B6"/>
  <rect x="7" y="77" width="7" height="7" fill="#5B21B6"/>
  <rect x="7" y="84" width="7" height="7" fill="#5B21B6"/>
  <rect x="7" y="91" width="7" height="7" fill="#5B21B6"/>
  <rect x="7" y="98" width="7" height="7" fill="#5B21B6"/>
  <rect x="7" y="105" width="7" height="7" fill="#5B21B6"/>
  <rect x="7" y="112" width="7" height="7" fill="#5B21B6"/>
  <rect x="7" y="119" width="7" height="7" fill="#5B21B6"/>
  <rect x="7" y="126" width="7" height="7" fill="#5B21B6"/>

  <!-- Right edge (with rounded corners) -->
  <rect x="105" y="14" width="7" height="7" fill="#5B21B6"/>
  <rect x="105" y="21" width="7" height="7" fill="#5B21B6"/>
  <rect x="105" y="28" width="7" height="7" fill="#5B21B6"/>
  <rect x="105" y="35" width="7" height="7" fill="#5B21B6"/>
  <rect x="105" y="42" width="7" height="7" fill="#5B21B6"/>
  <rect x="105" y="49" width="7" height="7" fill="#5B21B6"/>
  <rect x="105" y="56" width="7" height="7" fill="#5B21B6"/>
  <rect x="105" y="63" width="7" height="7" fill="#5B21B6"/>
  <rect x="105" y="70" width="7" height="7" fill="#5B21B6"/>
  <rect x="105" y="77" width="7" height="7" fill="#5B21B6"/>
  <rect x="105" y="84" width="7" height="7" fill="#5B21B6"/>
  <rect x="105" y="91" width="7" height="7" fill="#5B21B6"/>
  <rect x="105" y="98" width="7" height="7" fill="#5B21B6"/>
  <rect x="105" y="105" width="7" height="7" fill="#5B21B6"/>
  <rect x="105" y="112" width="7" height="7" fill="#5B21B6"/>
  <rect x="105" y="119" width="7" height="7" fill="#5B21B6"/>
  <rect x="105" y="126" width="7" height="7" fill="#5B21B6"/>

  <!-- Bottom edge (with rounded corners) -->
  <rect x="14" y="133" width="7" height="7" fill="#5B21B6"/>
  <rect x="21" y="133" width="7" height="7" fill="#5B21B6"/>
  <rect x="28" y="133" width="7" height="7" fill="#5B21B6"/>
  <rect x="35" y="133" width="7" height="7" fill="#5B21B6"/>
  <rect x="42" y="133" width="7" height="7" fill="#5B21B6"/>
  <rect x="49" y="133" width="7" height="7" fill="#5B21B6"/>
  <rect x="56" y="133" width="7" height="7" fill="#5B21B6"/>
  <rect x="63" y="133" width="7" height="7" fill="#5B21B6"/>
  <rect x="70" y="133" width="7" height="7" fill="#5B21B6"/>
  <rect x="77" y="133" width="7" height="7" fill="#5B21B6"/>
  <rect x="84" y="133" width="7" height="7" fill="#5B21B6"/>
  <rect x="91" y="133" width="7" height="7" fill="#5B21B6"/>
  <rect x="98" y="133" width="7" height="7" fill="#5B21B6"/>

  <!-- Eighth note: square pixel art -->

  <!-- Stem (2px wide, going up) -->
  <rect x="73" y="21" width="7" height="7" fill="#7C3AED"/>
  <rect x="80" y="21" width="7" height="7" fill="#5B21B6"/>
  <rect x="73" y="28" width="7" height="7" fill="#7C3AED"/>
  <rect x="80" y="28" width="7" height="7" fill="#5B21B6"/>
  <rect x="73" y="35" width="7" height="7" fill="#7C3AED"/>
  <rect x="80" y="35" width="7" height="7" fill="#5B21B6"/>
  <rect x="73" y="42" width="7" height="7" fill="#7C3AED"/>
  <rect x="80" y="42" width="7" height="7" fill="#5B21B6"/>
  <rect x="73" y="49" width="7" height="7" fill="#7C3AED"/>
  <rect x="80" y="49" width="7" height="7" fill="#5B21B6"/>
  <rect x="73" y="56" width="7" height="7" fill="#7C3AED"/>
  <rect x="80" y="56" width="7" height="7" fill="#5B21B6"/>
  <rect x="73" y="63" width="7" height="7" fill="#7C3AED"/>
  <rect x="80" y="63" width="7" height="7" fill="#5B21B6"/>
  <rect x="73" y="70" width="7" height="7" fill="#7C3AED"/>
  <rect x="80" y="70" width="7" height="7" fill="#5B21B6"/>
  <rect x="73" y="77" width="7" height="7" fill="#7C3AED"/>
  <rect x="80" y="77" width="7" height="7" fill="#5B21B6"/>
  <rect x="73" y="84" width="7" height="7" fill="#5B21B6"/>
  <rect x="80" y="84" width="7" height="7" fill="#5B21B6"/>

  <!-- Flag (curving right at top, stepped curve) -->
  <rect x="87" y="21" width="7" height="7" fill="#A78BFA"/>
  <rect x="87" y="28" width="7" height="7" fill="#7C3AED"/>
  <rect x="94" y="28" width="7" height="7" fill="#A78BFA"/>
  <rect x="94" y="35" width="7" height="7" fill="#7C3AED"/>
  <rect x="87" y="35" width="7" height="7" fill="#A78BFA"/>

  <!-- Note head (fat oval, light from top-left) -->
  <!-- Row 1: top curve start -->
  <rect x="38" y="84" width="7" height="7" fill="#A78BFA"/>
  <rect x="45" y="84" width="7" height="7" fill="#A78BFA"/>
  <rect x="52" y="84" width="7" height="7" fill="#7C3AED"/>
  <rect x="59" y="84" width="7" height="7" fill="#5B21B6"/>
  <rect x="66" y="84" width="7" height="7" fill="#5B21B6"/>

  <!-- Row 2: widening -->
  <rect x="31" y="91" width="7" height="7" fill="#A78BFA"/>
  <rect x="38" y="91" width="7" height="7" fill="#7C3AED"/>
  <rect x="45" y="91" width="7" height="7" fill="#7C3AED"/>
  <rect x="52" y="91" width="7" height="7" fill="#5B21B6"/>
  <rect x="59" y="91" width="7" height="7" fill="#5B21B6"/>
  <rect x="66" y="91" width="7" height="7" fill="#5B21B6"/>

  <!-- Row 3: widest -->
  <rect x="24" y="98" width="7" height="7" fill="#A78BFA"/>
  <rect x="31" y="98" width="7" height="7" fill="#7C3AED"/>
  <rect x="38" y="98" width="7" height="7" fill="#7C3AED"/>
  <rect x="45" y="98" width="7" height="7" fill="#5B21B6"/>
  <rect x="52" y="98" width="7" height="7" fill="#5B21B6"/>
  <rect x="59" y="98" width="7" height="7" fill="#5B21B6"/>
  <rect x="66" y="98" width="7" height="7" fill="#7C3AED"/>

  <!-- Row 4: widest -->
  <rect x="24" y="105" width="7" height="7" fill="#7C3AED"/>
  <rect x="31" y="105" width="7" height="7" fill="#5B21B6"/>
  <rect x="38" y="105" width="7" height="7" fill="#5B21B6"/>
  <rect x="45" y="105" width="7" height="7" fill="#5B21B6"/>
  <rect x="52" y="105" width="7" height="7" fill="#5B21B6"/>
  <rect x="59" y="105" width="7" height="7" fill="#7C3AED"/>
  <rect x="66" y="105" width="7" height="7" fill="#A78BFA"/>

  <!-- Row 5: narrowing -->
  <rect x="31" y="112" width="7" height="7" fill="#5B21B6"/>
  <rect x="38" y="112" width="7" height="7" fill="#5B21B6"/>
  <rect x="45" y="112" width="7" height="7" fill="#7C3AED"/>
  <rect x="52" y="112" width="7" height="7" fill="#7C3AED"/>
  <rect x="59" y="112" width="7" height="7" fill="#A78BFA"/>
  <rect x="66" y="112" width="7" height="7" fill="#A78BFA"/>

  <!-- Row 6: bottom curve end -->
  <rect x="38" y="119" width="7" height="7" fill="#5B21B6"/>
  <rect x="45" y="119" width="7" height="7" fill="#7C3AED"/>
  <rect x="52" y="119" width="7" height="7" fill="#A78BFA"/>
  <rect x="59" y="119" width="7" height="7" fill="#A78BFA"/>
</svg>