{
  "format_version": "2.0",
  "tempo": 80,
  "tracks": [
    {
      "name": "Flute",
      "channel": 0,
      "instrument": 73,
      "notes": [
        {
          "pitch": 69,
          "start": 1.0,
          "duration": 0.5,
          "velocity": 70
        },
        {
          "pitch": 65,
          "start": 1.5,
          "duration": 0.5,
          "velocity": 70
        },
        {
          "pitch": 67,
          "start": 2.0,
          "duration": 2.0,
          "velocity": 71
        },
        {
          "pitch": 67,
          "start": 4.0,
          "duration": 1.0,
          "velocity": 72
        },
        {
          "pitch": 70,
          "start": 5.0,
          "duration": 1.0,
          "velocity": 73
        },
        {
          "pitch": 69,
          "start": 6.0,
          "duration": 2.0,
          "velocity": 73
        },
        {
          "pitch": 64,
          "start": 9.0,
          "duration": 1.0,
          "velocity": 75
        },
        {
          "pitch": 67,
          "start": 10.0,
          "duration": 2.0,
          "velocity": 76
        },
        {
          "pitch": 69,
          "start": 12.0,
          "duration": 1.0,
          "velocity": 77
        },
        {
          "pitch": 72,
          "start": 13.0,
          "duration": 1.0,
          "velocity": 78
        },
        {
          "pitch": 69,
          "start": 14.0,
          "duration": 1.5,
          "velocity": 78
        },
        {
          "pitch": 65,
          "start": 15.5,
          "duration": 0.5,
          "velocity": 79
        },
        {
          "pitch": 65,
          "start": 16.0,
          "duration": 0.5,
          "velocity": 85
        },
        {
          "pitch": 65,
          "start": 16.5,
          "duration": 0.5,
          "velocity": 85
        },
        {
          "pitch": 69,
          "start": 17.0,
          "duration": 1.0,
          "velocity": 85
        },
        {
          "pitch": 67,
          "start": 18.0,
          "duration": 1.0,
          "velocity": 85
        },
        {
          "pitch": 72,
          "start": 19.0,
          "duration": 1.0,
          "velocity": 85
        },
        {
          "pitch": 72,
          "start": 20.0,
          "duration": 1.0,
          "velocity": 86
        },
        {
          "pitch": 64,
          "start": 21.0,
          "duration": 0.5,
          "velocity": 86
        },
        {
          "pitch": 67,
          "start": 21.5,
          "duration": 0.5,
          "velocity": 86
        },
        {
          "pitch": 74,
          "start": 22.0,
          "duration": 1.0,
          "velocity": 86
        },
        {
          "pitch": 72,
          "start": 23.0,
          "duration": 1.0,
          "velocity": 87
        },
        {
          "pitch": 69,
          "start": 24.0,
          "duration": 0.5,
          "velocity": 87
        },
        {
          "pitch": 65,
          "start": 24.5,
          "duration": 0.5,
          "velocity": 87
        },
        {
          "pitch": 69,
          "start": 25.0,
          "duration": 1.0,
          "velocity": 87
        },
        {
          "pitch": 67,
          "start": 26.0,
          "duration": 2.0,
          "velocity": 88
        },
        {
          "pitch": 70,
          "start": 28.0,
          "duration": 1.0,
          "velocity": 88
        },
        {
          "pitch": 74,
          "start": 29.0,
          "duration": 1.5,
          "velocity": 89
        },
        {
          "pitch": 72,
          "start": 30.5,
          "duration": 1.0,
          "velocity": 89
        },
        {
          "pitch": 69,
          "start": 31.5,
          "duration": 0.5,
          "velocity": 89
        },
        {
          "pitch": 70,
          "start": 32.0,
          "duration": 1.0,
          "velocity": 70
        },
        {
          "pitch": 69,
          "start": 33.0,
          "duration": 1.0,
          "velocity": 70
        },
        {
          "pitch": 67,
          "start": 34.0,
          "duration": 2.0,
          "velocity": 70
        },
        {
          "pitch": 69,
          "start": 36.0,
          "duration": 1.0,
          "velocity": 71
        },
        {
          "pitch": 67,
          "start": 37.0,
          "duration": 0.5,
          "velocity": 71
        },
        {
          "pitch": 64,
          "start": 37.5,
          "duration": 0.5,
          "velocity": 71
        },
        {
          "pitch": 64,
          "start": 38.0,
          "duration": 2.0,
          "velocity": 71
        }
      ],
      "cc_events": [
        {
          "time": 0.0,
          "controller": 7,
          "value": 100
        },
        {
          "time": 0.0,
          "controller": 11,
          "value": 70
        },
        {
          "time": 8.0,
          "controller": 11,
          "value": 75
        },
        {
          "time": 16.0,
          "controller": 11,
          "value": 90
        },
        {
          "time": 28.0,
          "controller": 11,
          "value": 80
        },
        {
          "time": 32.0,
          "controller": 11,
          "value": 70
        },
        {
          "time": 38.0,
          "controller": 11,
          "value": 55
        }
      ],
      "pitch_bend_events": [
        {
          "time": 0.75,
          "value": 10240
        },
        {
          "time": 1.0,
          "value": 8192
        },
        {
          "time": 21.75,
          "value": 9728
        },
        {
          "time": 22.25,
          "value": 8192
        },
        {
          "time": 37.75,
          "value": 6144
        },
        {
          "time": 38.5,
          "value": 8192
        }
      ]
    },
    {
      "name": "Strings",
      "channel": 1,
      "instrument": 48,
      "notes": [
        {
          "pitch": 62,
          "start": 0.0,
          "duration": 1.0,
          "velocity": 58
        },
        {
          "pitch": 65,
          "start": 1.0,
          "duration": 1.0,
          "velocity": 56
        },
        {
          "pitch": 69,
          "start": 2.0,
          "duration": 1.0,
          "velocity": 60
        },
        {
          "pitch": 62,
          "start": 3.0,
          "duration": 1.0,
          "velocity": 55
        },
        {
          "pitch": 55,
          "start": 4.0,
          "duration": 1.0,
          "velocity": 58
        },
        {
          "pitch": 58,
          "start": 5.0,
          "duration": 1.0,
          "velocity": 56
        },
        {
          "pitch": 62,
          "start": 6.0,
          "duration": 1.0,
          "velocity": 60
        },
        {
          "pitch": 55,
          "start": 7.0,
          "duration": 1.0,
          "velocity": 55
        },
        {
          "pitch": 52,
          "start": 8.0,
          "duration": 1.0,
          "velocity": 58
        },
        {
          "pitch": 55,
          "start": 9.0,
          "duration": 1.0,
          "velocity": 56
        },
        {
          "pitch": 58,
          "start": 10.0,
          "duration": 1.0,
          "velocity": 60
        },
        {
          "pitch": 52,
          "start": 11.0,
          "duration": 1.0,
          "velocity": 55
        },
        {
          "pitch": 57,
          "start": 12.0,
          "duration": 1.0,
          "velocity": 58
        },
        {
          "pitch": 60,
          "start": 13.0,
          "duration": 1.0,
          "velocity": 56
        },
        {
          "pitch": 64,
          "start": 14.0,
          "duration": 1.0,
          "velocity": 60
        },
        {
          "pitch": 57,
          "start": 15.0,
          "duration": 1.0,
          "velocity": 55
        },
        {
          "pitch": 65,
          "start": 16.0,
          "duration": 1.0,
          "velocity": 72
        },
        {
          "pitch": 69,
          "start": 17.0,
          "duration": 1.0,
          "velocity": 70
        },
        {
          "pitch": 72,
          "start": 18.0,
          "duration": 1.0,
          "velocity": 75
        },
        {
          "pitch": 65,
          "start": 19.0,
          "duration": 1.0,
          "velocity": 68
        },
        {
          "pitch": 60,
          "start": 20.0,
          "duration": 1.0,
          "velocity": 72
        },
        {
          "pitch": 64,
          "start": 21.0,
          "duration": 1.0,
          "velocity": 70
        },
        {
          "pitch": 67,
          "start": 22.0,
          "duration": 1.0,
          "velocity": 75
        },
        {
          "pitch": 60,
          "start": 23.0,
          "duration": 1.0,
          "velocity": 68
        },
        {
          "pitch": 62,
          "start": 24.0,
          "duration": 1.0,
          "velocity": 72
        },
        {
          "pitch": 65,
          "start": 25.0,
          "duration": 1.0,
          "velocity": 70
        },
        {
          "pitch": 69,
          "start": 26.0,
          "duration": 1.0,
          "velocity": 75
        },
        {
          "pitch": 62,
          "start": 27.0,
          "duration": 1.0,
          "velocity": 68
        },
        {
          "pitch": 58,
          "start": 28.0,
          "duration": 1.0,
          "velocity": 72
        },
        {
          "pitch": 62,
          "start": 29.0,
          "duration": 1.0,
          "velocity": 70
        },
        {
          "pitch": 65,
          "start": 30.0,
          "duration": 1.0,
          "velocity": 75
        },
        {
          "pitch": 58,
          "start": 31.0,
          "duration": 1.0,
          "velocity": 68
        },
        {
          "pitch": 55,
          "start": 32.0,
          "duration": 1.0,
          "velocity": 58
        },
        {
          "pitch": 58,
          "start": 33.0,
          "duration": 1.0,
          "velocity": 56
        },
        {
          "pitch": 62,
          "start": 34.0,
          "duration": 1.0,
          "velocity": 60
        },
        {
          "pitch": 55,
          "start": 35.0,
          "duration": 1.0,
          "velocity": 55
        },
        {
          "pitch": 57,
          "start": 36.0,
          "duration": 1.0,
          "velocity": 58
        },
        {
          "pitch": 60,
          "start": 37.0,
          "duration": 1.0,
          "velocity": 56
        },
        {
          "pitch": 64,
          "start": 38.0,
          "duration": 1.0,
          "velocity": 60
        },
        {
          "pitch": 57,
          "start": 39.0,
          "duration": 1.0,
          "velocity": 52
        }
      ],
      "cc_events": [
        {
          "time": 0.0,
          "controller": 7,
          "value": 75
        },
        {
          "time": 0.0,
          "controller": 11,
          "value": 60
        },
        {
          "time": 16.0,
          "controller": 11,
          "value": 75
        },
        {
          "time": 32.0,
          "controller": 11,
          "value": 60
        },
        {
          "time": 38.0,
          "controller": 11,
          "value": 45
        }
      ]
    },
    {
      "name": "Acoustic Bass",
      "channel": 3,
      "instrument": 32,
      "notes": [
        {
          "pitch": 50,
          "start": 0.0,
          "duration": 2.0,
          "velocity": 60
        },
        {
          "pitch": 57,
          "start": 2.0,
          "duration": 2.0,
          "velocity": 58
        },
        {
          "pitch": 43,
          "start": 4.0,
          "duration": 2.0,
          "velocity": 60
        },
        {
          "pitch": 50,
          "start": 6.0,
          "duration": 2.0,
          "velocity": 58
        },
        {
          "pitch": 40,
          "start": 8.0,
          "duration": 2.0,
          "velocity": 62
        },
        {
          "pitch": 47,
          "start": 10.0,
          "duration": 2.0,
          "velocity": 58
        },
        {
          "pitch": 45,
          "start": 12.0,
          "duration": 2.0,
          "velocity": 60
        },
        {
          "pitch": 52,
          "start": 14.0,
          "duration": 2.0,
          "velocity": 58
        },
        {
          "pitch": 41,
          "start": 16.0,
          "duration": 1.0,
          "velocity": 70
        },
        {
          "pitch": 45,
          "start": 17.0,
          "duration": 1.0,
          "velocity": 68
        },
        {
          "pitch": 48,
          "start": 18.0,
          "duration": 1.0,
          "velocity": 72
        },
        {
          "pitch": 45,
          "start": 19.0,
          "duration": 1.0,
          "velocity": 68
        },
        {
          "pitch": 48,
          "start": 20.0,
          "duration": 1.0,
          "velocity": 72
        },
        {
          "pitch": 52,
          "start": 21.0,
          "duration": 1.0,
          "velocity": 70
        },
        {
          "pitch": 55,
          "start": 22.0,
          "duration": 1.0,
          "velocity": 75
        },
        {
          "pitch": 52,
          "start": 23.0,
          "duration": 1.0,
          "velocity": 70
        },
        {
          "pitch": 50,
          "start": 24.0,
          "duration": 1.0,
          "velocity": 75
        },
        {
          "pitch": 53,
          "start": 25.0,
          "duration": 1.0,
          "velocity": 72
        },
        {
          "pitch": 57,
          "start": 26.0,
          "duration": 1.0,
          "velocity": 78
        },
        {
          "pitch": 53,
          "start": 27.0,
          "duration": 1.0,
          "velocity": 72
        },
        {
          "pitch": 46,
          "start": 28.0,
          "duration": 1.0,
          "velocity": 78
        },
        {
          "pitch": 50,
          "start": 29.0,
          "duration": 1.0,
          "velocity": 75
        },
        {
          "pitch": 53,
          "start": 30.0,
          "duration": 1.0,
          "velocity": 78
        },
        {
          "pitch": 50,
          "start": 31.0,
          "duration": 1.0,
          "velocity": 72
        },
        {
          "pitch": 43,
          "start": 32.0,
          "duration": 2.0,
          "velocity": 60
        },
        {
          "pitch": 50,
          "start": 34.0,
          "duration": 2.0,
          "velocity": 58
        },
        {
          "pitch": 45,
          "start": 36.0,
          "duration": 2.0,
          "velocity": 58
        },
        {
          "pitch": 52,
          "start": 38.0,
          "duration": 2.0,
          "velocity": 50
        }
      ],
      "cc_events": [
        {
          "time": 0.0,
          "controller": 7,
          "value": 85
        },
        {
          "time": 0.0,
          "controller": 11,
          "value": 65
        },
        {
          "time": 16.0,
          "controller": 11,
          "value": 80
        },
        {
          "time": 32.0,
          "controller": 11,
          "value": 65
        },
        {
          "time": 38.0,
          "controller": 11,
          "value": 55
        }
      ]
    },
    {
      "name": "Drums",
      "channel": 9,
      "instrument": 0,
      "notes": [
        {
          "pitch": 42,
          "start": 1.0,
          "duration": 0.25,
          "velocity": 50
        },
        {
          "pitch": 45,
          "start": 2.0,
          "duration": 0.25,
          "velocity": 42
        },
        {
          "pitch": 42,
          "start": 3.0,
          "duration": 0.25,
          "velocity": 48
        },
        {
          "pitch": 42,
          "start": 5.0,
          "duration": 0.25,
          "velocity": 50
        },
        {
          "pitch": 45,
          "start": 6.0,
          "duration": 0.25,
          "velocity": 40
        },
        {
          "pitch": 42,
          "start": 7.0,
          "duration": 0.25,
          "velocity": 48
        },
        {
          "pitch": 42,
          "start": 9.0,
          "duration": 0.25,
          "velocity": 50
        },
        {
          "pitch": 45,
          "start": 10.0,
          "duration": 0.25,
          "velocity": 44
        },
        {
          "pitch": 42,
          "start": 11.0,
          "duration": 0.25,
          "velocity": 48
        },
        {
          "pitch": 42,
          "start": 13.0,
          "duration": 0.25,
          "velocity": 50
        },
        {
          "pitch": 45,
          "start": 14.0,
          "duration": 0.25,
          "velocity": 42
        },
        {
          "pitch": 42,
          "start": 14.5,
          "duration": 0.25,
          "velocity": 52
        },
        {
          "pitch": 42,
          "start": 15.0,
          "duration": 0.25,
          "velocity": 55
        },
        {
          "pitch": 51,
          "start": 16.0,
          "duration": 0.25,
          "velocity": 60
        },
        {
          "pitch": 42,
          "start": 17.0,
          "duration": 0.25,
          "velocity": 62
        },
        {
          "pitch": 42,
          "start": 18.0,
          "duration": 0.25,
          "velocity": 60
        },
        {
          "pitch": 45,
          "start": 19.0,
          "duration": 0.25,
          "velocity": 55
        },
        {
          "pitch": 42,
          "start": 20.0,
          "duration": 0.25,
          "velocity": 62
        },
        {
          "pitch": 42,
          "start": 21.0,
          "duration": 0.25,
          "velocity": 65
        },
        {
          "pitch": 45,
          "start": 22.0,
          "duration": 0.25,
          "velocity": 58
        },
        {
          "pitch": 42,
          "start": 23.0,
          "duration": 0.25,
          "velocity": 65
        },
        {
          "pitch": 42,
          "start": 25.0,
          "duration": 0.25,
          "velocity": 65
        },
        {
          "pitch": 42,
          "start": 26.0,
          "duration": 0.25,
          "velocity": 62
        },
        {
          "pitch": 45,
          "start": 27.0,
          "duration": 0.25,
          "velocity": 58
        },
        {
          "pitch": 42,
          "start": 28.0,
          "duration": 0.25,
          "velocity": 62
        },
        {
          "pitch": 42,
          "start": 29.0,
          "duration": 0.25,
          "velocity": 65
        },
        {
          "pitch": 42,
          "start": 30.0,
          "duration": 0.25,
          "velocity": 62
        },
        {
          "pitch": 42,
          "start": 30.5,
          "duration": 0.25,
          "velocity": 68
        },
        {
          "pitch": 42,
          "start": 31.0,
          "duration": 0.25,
          "velocity": 72
        },
        {
          "pitch": 42,
          "start": 31.5,
          "duration": 0.25,
          "velocity": 75
        },
        {
          "pitch": 42,
          "start": 33.0,
          "duration": 0.25,
          "velocity": 48
        },
        {
          "pitch": 45,
          "start": 34.0,
          "duration": 0.25,
          "velocity": 40
        },
        {
          "pitch": 42,
          "start": 35.0,
          "duration": 0.25,
          "velocity": 45
        },
        {
          "pitch": 42,
          "start": 37.0,
          "duration": 0.25,
          "velocity": 46
        },
        {
          "pitch": 45,
          "start": 38.0,
          "duration": 0.25,
          "velocity": 38
        },
        {
          "pitch": 42,
          "start": 39.0,
          "duration": 0.25,
          "velocity": 42
        }
      ],
      "cc_events": [
        {
          "time": 0.0,
          "controller": 7,
          "value": 80
        }
      ]
    }
  ]
}