{
  "format_version": "1.1",
  "tempo": 172,
  "tempo_changes": [
	{
	  "bpm": 172,
	  "time": 0.0
	}
  ],
  "timebase": 240,
  "tracks": [
	{
	  "cc_events": [
		{
		  "controller": 7,
		  "time": 0.0,
		  "value": 105
		},
		{
		  "controller": 10,
		  "time": 0.0,
		  "value": 63
		},
		{
		  "controller": 10,
		  "time": 94.8837209302326,
		  "value": 63
		},
		{
		  "controller": 11,
		  "time": 96.3081395348837,
		  "value": 123
		},
		{
		  "controller": 11,
		  "time": 96.3662790697674,
		  "value": 119
		},
		{
		  "controller": 11,
		  "time": 96.4767441860465,
		  "value": 115
		},
		{
		  "controller": 11,
		  "time": 96.546511627907,
		  "value": 109
		},
		{
		  "controller": 11,
		  "time": 96.6104651162791,
		  "value": 107
		},
		{
		  "controller": 11,
		  "time": 96.703488372093,
		  "value": 103
		},
		{
		  "controller": 11,
		  "time": 96.7848837209302,
		  "value": 99
		},
		{
		  "controller": 11,
		  "time": 96.8546511627907,
		  "value": 94
		},
		{
		  "controller": 11,
		  "time": 96.9244186046512,
		  "value": 90
		},
		{
		  "controller": 11,
		  "time": 97.0116279069767,
		  "value": 86
		},
		{
		  "controller": 11,
		  "time": 97.0581395348837,
		  "value": 83
		},
		{
		  "controller": 11,
		  "time": 97.1337209302326,
		  "value": 79
		},
		{
		  "controller": 11,
		  "time": 97.1802325581395,
		  "value": 75
		},
		{
		  "controller": 11,
		  "time": 97.2383720930233,
		  "value": 70
		},
		{
		  "controller": 11,
		  "time": 97.2906976744186,
		  "value": 62
		},
		{
		  "controller": 11,
		  "time": 97.3546511627907,
		  "value": 56
		},
		{
		  "controller": 11,
		  "time": 97.4069767441861,
		  "value": 48
		},
		{
		  "controller": 11,
		  "time": 97.4651162790698,
		  "value": 40
		},
		{
		  "controller": 11,
		  "time": 97.5348837209302,
		  "value": 23
		},
		{
		  "controller": 11,
		  "time": 97.5988372093023,
		  "value": 10
		},
		{
		  "controller": 11,
		  "time": 97.9709302325581,
		  "value": 127
		},
		{
		  "controller": 10,
		  "time": 189.767441860465,
		  "value": 63
		},
		{
		  "controller": 11,
		  "time": 191.191860465116,
		  "value": 123
		},
		{
		  "controller": 11,
		  "time": 191.25,
		  "value": 119
		},
		{
		  "controller": 11,
		  "time": 191.360465116279,
		  "value": 115
		},
		{
		  "controller": 11,
		  "time": 191.43023255814,
		  "value": 109
		},
		{
		  "controller": 11,
		  "time": 191.494186046512,
		  "value": 107
		},
		{
		  "controller": 11,
		  "time": 191.587209302326,
		  "value": 103
		},
		{
		  "controller": 11,
		  "time": 191.668604651163,
		  "value": 99
		},
		{
		  "controller": 11,
		  "time": 191.738372093023,
		  "value": 94
		},
		{
		  "controller": 11,
		  "time": 191.808139534884,
		  "value": 90
		},
		{
		  "controller": 11,
		  "time": 191.895348837209,
		  "value": 86
		},
		{
		  "controller": 11,
		  "time": 191.941860465116,
		  "value": 83
		},
		{
		  "controller": 11,
		  "time": 192.017441860465,
		  "value": 79
		},
		{
		  "controller": 11,
		  "time": 192.063953488372,
		  "value": 75
		},
		{
		  "controller": 11,
		  "time": 192.122093023256,
		  "value": 70
		},
		{
		  "controller": 11,
		  "time": 192.174418604651,
		  "value": 62
		},
		{
		  "controller": 11,
		  "time": 192.238372093023,
		  "value": 56
		},
		{
		  "controller": 11,
		  "time": 192.290697674419,
		  "value": 48
		},
		{
		  "controller": 11,
		  "time": 192.348837209302,
		  "value": 40
		},
		{
		  "controller": 11,
		  "time": 192.418604651163,
		  "value": 23
		},
		{
		  "controller": 11,
		  "time": 192.482558139535,
		  "value": 10
		},
		{
		  "controller": 11,
		  "time": 192.854651162791,
		  "value": 127
		},
		{
		  "controller": 10,
		  "time": 284.651162790698,
		  "value": 63
		},
		{
		  "controller": 11,
		  "time": 286.075581395349,
		  "value": 123
		},
		{
		  "controller": 11,
		  "time": 286.133720930233,
		  "value": 119
		},
		{
		  "controller": 11,
		  "time": 286.244186046512,
		  "value": 115
		},
		{
		  "controller": 11,
		  "time": 286.313953488372,
		  "value": 109
		},
		{
		  "controller": 11,
		  "time": 286.377906976744,
		  "value": 107
		},
		{
		  "controller": 11,
		  "time": 286.470930232558,
		  "value": 103
		},
		{
		  "controller": 11,
		  "time": 286.552325581395,
		  "value": 99
		},
		{
		  "controller": 11,
		  "time": 286.622093023256,
		  "value": 94
		},
		{
		  "controller": 11,
		  "time": 286.691860465116,
		  "value": 90
		},
		{
		  "controller": 11,
		  "time": 286.779069767442,
		  "value": 86
		},
		{
		  "controller": 11,
		  "time": 286.825581395349,
		  "value": 83
		},
		{
		  "controller": 11,
		  "time": 286.901162790698,
		  "value": 79
		},
		{
		  "controller": 11,
		  "time": 286.947674418605,
		  "value": 75
		},
		{
		  "controller": 11,
		  "time": 287.005813953488,
		  "value": 70
		},
		{
		  "controller": 11,
		  "time": 287.058139534884,
		  "value": 62
		},
		{
		  "controller": 11,
		  "time": 287.122093023256,
		  "value": 56
		},
		{
		  "controller": 11,
		  "time": 287.174418604651,
		  "value": 48
		},
		{
		  "controller": 11,
		  "time": 287.232558139535,
		  "value": 40
		},
		{
		  "controller": 11,
		  "time": 287.302325581395,
		  "value": 23
		},
		{
		  "controller": 11,
		  "time": 287.366279069767,
		  "value": 10
		},
		{
		  "controller": 11,
		  "time": 287.738372093023,
		  "value": 127
		}
	  ],
	  "instrument": 48,
	  "name": "Strings",
	  "notes": [
		{
		  "duration": 0.697674418604651,
		  "pitch": 62,
		  "start": 72.5290697674419,
		  "velocity": 80
		},
		{
		  "duration": 0.697674418604651,
		  "pitch": 57,
		  "start": 72.5290697674419,
		  "velocity": 80
		},
		{
		  "duration": 0.697674418604651,
		  "pitch": 64,
		  "start": 73.2267441860465,
		  "velocity": 80
		},
		{
		  "duration": 0.697674418604651,
		  "pitch": 57,
		  "start": 73.2267441860465,
		  "velocity": 80
		},
		{
		  "duration": 0.697674418604651,
		  "pitch": 65,
		  "start": 73.9244186046512,
		  "velocity": 80
		},
		{
		  "duration": 0.697674418604651,
		  "pitch": 62,
		  "start": 73.9244186046512,
		  "velocity": 80
		},
		{
		  "duration": 0.697674418604651,
		  "pitch": 67,
		  "start": 74.6220930232558,
		  "velocity": 80
		},
		{
		  "duration": 0.697674418604651,
		  "pitch": 64,
		  "start": 74.6220930232558,
		  "velocity": 80
		},
		{
		  "duration": 0.116279069767442,
		  "pitch": 69,
		  "start": 75.3197674418605,
		  "velocity": 80
		},
		{
		  "duration": 0.116279069767442,
		  "pitch": 65,
		  "start": 75.3197674418605,
		  "velocity": 80
		},
		{
		  "duration": 0.697674418604651,
		  "pitch": 72,
		  "start": 75.6686046511628,
		  "velocity": 80
		},
		{
		  "duration": 0.697674418604651,
		  "pitch": 69,
		  "start": 75.6686046511628,
		  "velocity": 80
		},
		{
		  "duration": 0.348837209302326,
		  "pitch": 71,
		  "start": 76.3662790697674,
		  "velocity": 80
		},
		{
		  "duration": 0.348837209302326,
		  "pitch": 67,
		  "start": 76.3662790697674,
		  "velocity": 80
		},
		{
		  "duration": 1.3953488372093,
		  "pitch": 69,
		  "start": 76.7151162790698,
		  "velocity": 80
		},
		{
		  "duration": 1.3953488372093,
		  "pitch": 65,
		  "start": 76.7151162790698,
		  "velocity": 80
		},
		{
		  "duration": 0.697674418604651,
		  "pitch": 57,
		  "start": 78.1104651162791,
		  "velocity": 80
		},
		{
		  "duration": 0.697674418604651,
		  "pitch": 52,
		  "start": 78.1104651162791,
		  "velocity": 80
		},
		{
		  "duration": 0.697674418604651,
		  "pitch": 59,
		  "start": 78.8081395348837,
		  "velocity": 80
		},
		{
		  "duration": 0.697674418604651,
		  "pitch": 52,
		  "start": 78.8081395348837,
		  "velocity": 80
		},
		{
		  "duration": 0.697674418604651,
		  "pitch": 60,
		  "start": 79.5058139534884,
		  "velocity": 80
		},
		{
		  "duration": 0.697674418604651,
		  "pitch": 57,
		  "start": 79.5058139534884,
		  "velocity": 80
		},
		{
		  "duration": 0.697674418604651,
		  "pitch": 62,
		  "start": 80.203488372093,
		  "velocity": 80
		},
		{
		  "duration": 0.697674418604651,
		  "pitch": 59,
		  "start": 80.203488372093,
		  "velocity": 80
		},
		{
		  "duration": 0.116279069767442,
		  "pitch": 64,
		  "start": 80.9011627906977,
		  "velocity": 80
		},
		{
		  "duration": 0.116279069767442,
		  "pitch": 60,
		  "start": 80.9011627906977,
		  "velocity": 80
		},
		{
		  "duration": 0.697674418604651,
		  "pitch": 67,
		  "start": 81.25,
		  "velocity": 80
		},
		{
		  "duration": 0.697674418604651,
		  "pitch": 64,
		  "start": 81.25,
		  "velocity": 80
		},
		{
		  "duration": 0.348837209302326,
		  "pitch": 66,
		  "start": 81.9476744186046,
		  "velocity": 80
		},
		{
		  "duration": 0.348837209302326,
		  "pitch": 62,
		  "start": 81.9476744186046,
		  "velocity": 80
		},
		{
		  "duration": 1.3953488372093,
		  "pitch": 64,
		  "start": 82.296511627907,
		  "velocity": 80
		},
		{
		  "duration": 1.3953488372093,
		  "pitch": 60,
		  "start": 82.296511627907,
		  "velocity": 80
		},
		{
		  "duration": 0.697674418604651,
		  "pitch": 74,
		  "start": 83.6918604651163,
		  "velocity": 80
		},
		{
		  "duration": 0.697674418604651,
		  "pitch": 62,
		  "start": 83.6918604651163,
		  "velocity": 80
		},
		{
		  "duration": 0.697674418604651,
		  "pitch": 69,
		  "start": 83.6918604651163,
		  "velocity": 80
		},
		{
		  "duration": 0.697674418604651,
		  "pitch": 57,
		  "start": 83.6918604651163,
		  "velocity": 80
		},
		{
		  "duration": 0.697674418604651,
		  "pitch": 76,
		  "start": 84.3895348837209,
		  "velocity": 80
		},
		{
		  "duration": 0.697674418604651,
		  "pitch": 64,
		  "start": 84.3895348837209,
		  "velocity": 80
		},
		{
		  "duration": 0.697674418604651,
		  "pitch": 69,
		  "start": 84.3895348837209,
		  "velocity": 80
		},
		{
		  "duration": 0.697674418604651,
		  "pitch": 57,
		  "start": 84.3895348837209,
		  "velocity": 80
		},
		{
		  "duration": 0.697674418604651,
		  "pitch": 77,
		  "start": 85.0872093023256,
		  "velocity": 80
		},
		{
		  "duration": 0.697674418604651,
		  "pitch": 65,
		  "start": 85.0872093023256,
		  "velocity": 80
		},
		{
		  "duration": 0.697674418604651,
		  "pitch": 74,
		  "start": 85.0872093023256,
		  "velocity": 80
		},
		{
		  "duration": 0.697674418604651,
		  "pitch": 62,
		  "start": 85.0872093023256,
		  "velocity": 80
		},
		{
		  "duration": 0.697674418604651,
		  "pitch": 79,
		  "start": 85.7848837209302,
		  "velocity": 80
		},
		{
		  "duration": 0.697674418604651,
		  "pitch": 67,
		  "start": 85.7848837209302,
		  "velocity": 80
		},
		{
		  "duration": 0.697674418604651,
		  "pitch": 76,
		  "start": 85.7848837209302,
		  "velocity": 80
		},
		{
		  "duration": 0.697674418604651,
		  "pitch": 64,
		  "start": 85.7848837209302,
		  "velocity": 80
		},
		{
		  "duration": 0.116279069767442,
		  "pitch": 81,
		  "start": 86.4825581395349,
		  "velocity": 80
		},
		{
		  "duration": 0.116279069767442,
		  "pitch": 69,
		  "start": 86.4825581395349,
		  "velocity": 80
		},
		{
		  "duration": 0.116279069767442,
		  "pitch": 77,
		  "start": 86.4825581395349,
		  "velocity": 80
		},
		{
		  "duration": 0.116279069767442,
		  "pitch": 65,
		  "start": 86.4825581395349,
		  "velocity": 80
		},
		{
		  "duration": 0.697674418604651,
		  "pitch": 84,
		  "start": 86.8313953488372,
		  "velocity": 80
		},
		{
		  "duration": 0.697674418604651,
		  "pitch": 72,
		  "start": 86.8313953488372,
		  "velocity": 80
		},
		{
		  "duration": 0.697674418604651,
		  "pitch": 81,
		  "start": 86.8313953488372,
		  "velocity": 80
		},
		{
		  "duration": 0.697674418604651,
		  "pitch": 69,
		  "start": 86.8313953488372,
		  "velocity": 80
		},
		{
		  "duration": 0.348837209302326,
		  "pitch": 83,
		  "start": 87.5290697674419,
		  "velocity": 80
		},
		{
		  "duration": 0.348837209302326,
		  "pitch": 71,
		  "start": 87.5290697674419,
		  "velocity": 80
		},
		{
		  "duration": 0.348837209302326,
		  "pitch": 79,
		  "start": 87.5290697674419,
		  "velocity": 80
		},
		{
		  "duration": 0.348837209302326,
		  "pitch": 67,
		  "start": 87.5290697674419,
		  "velocity": 80
		},
		{
		  "duration": 1.3953488372093,
		  "pitch": 81,
		  "start": 87.8779069767442,
		  "velocity": 80
		},
		{
		  "duration": 1.3953488372093,
		  "pitch": 69,
		  "start": 87.8779069767442,
		  "velocity": 80
		},
		{
		  "duration": 1.3953488372093,
		  "pitch": 77,
		  "start": 87.8779069767442,
		  "velocity": 80
		},
		{
		  "duration": 1.3953488372093,
		  "pitch": 65,
		  "start": 87.8779069767442,
		  "velocity": 80
		},
		{
		  "duration": 0.697674418604651,
		  "pitch": 69,
		  "start": 89.2732558139535,
		  "velocity": 80
		},
		{
		  "duration": 0.697674418604651,
		  "pitch": 57,
		  "start": 89.2732558139535,
		  "velocity": 80
		},
		{
		  "duration": 0.697674418604651,
		  "pitch": 64,
		  "start": 89.2732558139535,
		  "velocity": 80
		},
		{
		  "duration": 0.697674418604651,
		  "pitch": 52,
		  "start": 89.2732558139535,
		  "velocity": 80
		},
		{
		  "duration": 0.697674418604651,
		  "pitch": 71,
		  "start": 89.9709302325581,
		  "velocity": 80
		},
		{
		  "duration": 0.697674418604651,
		  "pitch": 59,
		  "start": 89.9709302325581,
		  "velocity": 80
		},
		{
		  "duration": 0.697674418604651,
		  "pitch": 64,
		  "start": 89.9709302325581,
		  "velocity": 80
		},
		{
		  "duration": 0.697674418604651,
		  "pitch": 52,
		  "start": 89.9709302325581,
		  "velocity": 80
		},
		{
		  "duration": 0.697674418604651,
		  "pitch": 72,
		  "start": 90.6686046511628,
		  "velocity": 80
		},
		{
		  "duration": 0.697674418604651,
		  "pitch": 60,
		  "start": 90.6686046511628,
		  "velocity": 80
		},
		{
		  "duration": 0.697674418604651,
		  "pitch": 69,
		  "start": 90.6686046511628,
		  "velocity": 80
		},
		{
		  "duration": 0.697674418604651,
		  "pitch": 57,
		  "start": 90.6686046511628,
		  "velocity": 80
		},
		{
		  "duration": 0.697674418604651,
		  "pitch": 74,
		  "start": 91.3662790697674,
		  "velocity": 80
		},
		{
		  "duration": 0.697674418604651,
		  "pitch": 62,
		  "start": 91.3662790697674,
		  "velocity": 80
		},
		{
		  "duration": 0.697674418604651,
		  "pitch": 71,
		  "start": 91.3662790697674,
		  "velocity": 80
		},
		{
		  "duration": 0.697674418604651,
		  "pitch": 59,
		  "start": 91.3662790697674,
		  "velocity": 80
		},
		{
		  "duration": 0.697674418604651,
		  "pitch": 76,
		  "start": 92.0639534883721,
		  "velocity": 80
		},
		{
		  "duration": 0.697674418604651,
		  "pitch": 60,
		  "start": 92.0639534883721,
		  "velocity": 80
		},
		{
		  "duration": 0.697674418604651,
		  "pitch": 72,
		  "start": 92.0639534883721,
		  "velocity": 80
		},
		{
		  "duration": 0.697674418604651,
		  "pitch": 64,
		  "start": 92.0639534883721,
		  "velocity": 80
		},
		{
		  "duration": 0.697674418604651,
		  "pitch": 78,
		  "start": 92.7616279069767,
		  "velocity": 80
		},
		{
		  "duration": 0.697674418604651,
		  "pitch": 62,
		  "start": 92.7616279069767,
		  "velocity": 80
		},
		{
		  "duration": 0.697674418604651,
		  "pitch": 74,
		  "start": 92.7616279069767,
		  "velocity": 80
		},
		{
		  "duration": 0.697674418604651,
		  "pitch": 66,
		  "start": 92.7616279069767,
		  "velocity": 80
		},
		{
		  "duration": 0.697674418604651,
		  "pitch": 79,
		  "start": 93.4593023255814,
		  "velocity": 80
		},
		{
		  "duration": 0.697674418604651,
		  "pitch": 64,
		  "start": 93.4593023255814,
		  "velocity": 80
		},
		{
		  "duration": 0.697674418604651,
		  "pitch": 76,
		  "start": 93.4593023255814,
		  "velocity": 80
		},
		{
		  "duration": 0.697674418604651,
		  "pitch": 67,
		  "start": 93.4593023255814,
		  "velocity": 80
		},
		{
		  "duration": 0.697674418604651,
		  "pitch": 80,
		  "start": 94.1569767441861,
		  "velocity": 80
		},
		{
		  "duration": 0.697674418604651,
		  "pitch": 64,
		  "start": 94.1569767441861,
		  "velocity": 80
		},
		{
		  "duration": 0.697674418604651,
		  "pitch": 76,
		  "start": 94.1569767441861,
		  "velocity": 80
		},
		{
		  "duration": 0.697674418604651,
		  "pitch": 68,
		  "start": 94.1569767441861,
		  "velocity": 80
		},
		{
		  "duration": 2.7906976744186,
		  "pitch": 64,
		  "start": 94.8546511627907,
		  "velocity": 80
		},
		{
		  "duration": 2.7906976744186,
		  "pitch": 69,
		  "start": 94.8546511627907,
		  "velocity": 80
		},
		{
		  "duration": 2.7906976744186,
		  "pitch": 76,
		  "start": 94.8546511627907,
		  "velocity": 80
		},
		{
		  "duration": 2.7906976744186,
		  "pitch": 81,
		  "start": 94.8546511627907,
		  "velocity": 80
		},
		{
		  "duration": 0.697674418604651,
		  "pitch": 62,
		  "start": 167.412790697674,
		  "velocity": 80
		},
		{
		  "duration": 0.697674418604651,
		  "pitch": 57,
		  "start": 167.412790697674,
		  "velocity": 80
		},
		{
		  "duration": 0.697674418604651,
		  "pitch": 64,
		  "start": 168.110465116279,
		  "velocity": 80
		},
		{
		  "duration": 0.697674418604651,
		  "pitch": 57,
		  "start": 168.110465116279,
		  "velocity": 80
		},
		{
		  "duration": 0.697674418604651,
		  "pitch": 65,
		  "start": 168.808139534884,
		  "velocity": 80
		},
		{
		  "duration": 0.697674418604651,
		  "pitch": 62,
		  "start": 168.808139534884,
		  "velocity": 80
		},
		{
		  "duration": 0.697674418604651,
		  "pitch": 67,
		  "start": 169.505813953488,
		  "velocity": 80
		},
		{
		  "duration": 0.697674418604651,
		  "pitch": 64,
		  "start": 169.505813953488,
		  "velocity": 80
		},
		{
		  "duration": 0.116279069767442,
		  "pitch": 69,
		  "start": 170.203488372093,
		  "velocity": 80
		},
		{
		  "duration": 0.116279069767442,
		  "pitch": 65,
		  "start": 170.203488372093,
		  "velocity": 80
		},
		{
		  "duration": 0.697674418604651,
		  "pitch": 72,
		  "start": 170.552325581395,
		  "velocity": 80
		},
		{
		  "duration": 0.697674418604651,
		  "pitch": 69,
		  "start": 170.552325581395,
		  "velocity": 80
		},
		{
		  "duration": 0.348837209302326,
		  "pitch": 71,
		  "start": 171.25,
		  "velocity": 80
		},
		{
		  "duration": 0.348837209302326,
		  "pitch": 67,
		  "start": 171.25,
		  "velocity": 80
		},
		{
		  "duration": 1.3953488372093,
		  "pitch": 69,
		  "start": 171.598837209302,
		  "velocity": 80
		},
		{
		  "duration": 1.3953488372093,
		  "pitch": 65,
		  "start": 171.598837209302,
		  "velocity": 80
		},
		{
		  "duration": 0.697674418604651,
		  "pitch": 57,
		  "start": 172.994186046512,
		  "velocity": 80
		},
		{
		  "duration": 0.697674418604651,
		  "pitch": 52,
		  "start": 172.994186046512,
		  "velocity": 80
		},
		{
		  "duration": 0.697674418604651,
		  "pitch": 59,
		  "start": 173.691860465116,
		  "velocity": 80
		},
		{
		  "duration": 0.697674418604651,
		  "pitch": 52,
		  "start": 173.691860465116,
		  "velocity": 80
		},
		{
		  "duration": 0.697674418604651,
		  "pitch": 60,
		  "start": 174.389534883721,
		  "velocity": 80
		},
		{
		  "duration": 0.697674418604651,
		  "pitch": 57,
		  "start": 174.389534883721,
		  "velocity": 80
		},
		{
		  "duration": 0.697674418604651,
		  "pitch": 62,
		  "start": 175.087209302326,
		  "velocity": 80
		},
		{
		  "duration": 0.697674418604651,
		  "pitch": 59,
		  "start": 175.087209302326,
		  "velocity": 80
		},
		{
		  "duration": 0.116279069767442,
		  "pitch": 64,
		  "start": 175.78488372093,
		  "velocity": 80
		},
		{
		  "duration": 0.116279069767442,
		  "pitch": 60,
		  "start": 175.78488372093,
		  "velocity": 80
		},
		{
		  "duration": 0.697674418604651,
		  "pitch": 67,
		  "start": 176.133720930233,
		  "velocity": 80
		},
		{
		  "duration": 0.697674418604651,
		  "pitch": 64,
		  "start": 176.133720930233,
		  "velocity": 80
		},
		{
		  "duration": 0.348837209302326,
		  "pitch": 66,
		  "start": 176.831395348837,
		  "velocity": 80
		},
		{
		  "duration": 0.348837209302326,
		  "pitch": 62,
		  "start": 176.831395348837,
		  "velocity": 80
		},
		{
		  "duration": 1.3953488372093,
		  "pitch": 64,
		  "start": 177.18023255814,
		  "velocity": 80
		},
		{
		  "duration": 1.3953488372093,
		  "pitch": 60,
		  "start": 177.18023255814,
		  "velocity": 80
		},
		{
		  "duration": 0.697674418604651,
		  "pitch": 74,
		  "start": 178.575581395349,
		  "velocity": 80
		},
		{
		  "duration": 0.697674418604651,
		  "pitch": 62,
		  "start": 178.575581395349,
		  "velocity": 80
		},
		{
		  "duration": 0.697674418604651,
		  "pitch": 69,
		  "start": 178.575581395349,
		  "velocity": 80
		},
		{
		  "duration": 0.697674418604651,
		  "pitch": 57,
		  "start": 178.575581395349,
		  "velocity": 80
		},
		{
		  "duration": 0.697674418604651,
		  "pitch": 76,
		  "start": 179.273255813953,
		  "velocity": 80
		},
		{
		  "duration": 0.697674418604651,
		  "pitch": 64,
		  "start": 179.273255813953,
		  "velocity": 80
		},
		{
		  "duration": 0.697674418604651,
		  "pitch": 69,
		  "start": 179.273255813953,
		  "velocity": 80
		},
		{
		  "duration": 0.697674418604651,
		  "pitch": 57,
		  "start": 179.273255813953,
		  "velocity": 80
		},
		{
		  "duration": 0.697674418604651,
		  "pitch": 77,
		  "start": 179.970930232558,
		  "velocity": 80
		},
		{
		  "duration": 0.697674418604651,
		  "pitch": 65,
		  "start": 179.970930232558,
		  "velocity": 80
		},
		{
		  "duration": 0.697674418604651,
		  "pitch": 74,
		  "start": 179.970930232558,
		  "velocity": 80
		},
		{
		  "duration": 0.697674418604651,
		  "pitch": 62,
		  "start": 179.970930232558,
		  "velocity": 80
		},
		{
		  "duration": 0.697674418604651,
		  "pitch": 79,
		  "start": 180.668604651163,
		  "velocity": 80
		},
		{
		  "duration": 0.697674418604651,
		  "pitch": 67,
		  "start": 180.668604651163,
		  "velocity": 80
		},
		{
		  "duration": 0.697674418604651,
		  "pitch": 76,
		  "start": 180.668604651163,
		  "velocity": 80
		},
		{
		  "duration": 0.697674418604651,
		  "pitch": 64,
		  "start": 180.668604651163,
		  "velocity": 80
		},
		{
		  "duration": 0.116279069767442,
		  "pitch": 81,
		  "start": 181.366279069767,
		  "velocity": 80
		},
		{
		  "duration": 0.116279069767442,
		  "pitch": 69,
		  "start": 181.366279069767,
		  "velocity": 80
		},
		{
		  "duration": 0.116279069767442,
		  "pitch": 77,
		  "start": 181.366279069767,
		  "velocity": 80
		},
		{
		  "duration": 0.116279069767442,
		  "pitch": 65,
		  "start": 181.366279069767,
		  "velocity": 80
		},
		{
		  "duration": 0.697674418604651,
		  "pitch": 84,
		  "start": 181.71511627907,
		  "velocity": 80
		},
		{
		  "duration": 0.697674418604651,
		  "pitch": 72,
		  "start": 181.71511627907,
		  "velocity": 80
		},
		{
		  "duration": 0.697674418604651,
		  "pitch": 81,
		  "start": 181.71511627907,
		  "velocity": 80
		},
		{
		  "duration": 0.697674418604651,
		  "pitch": 69,
		  "start": 181.71511627907,
		  "velocity": 80
		},
		{
		  "duration": 0.348837209302326,
		  "pitch": 83,
		  "start": 182.412790697674,
		  "velocity": 80
		},
		{
		  "duration": 0.348837209302326,
		  "pitch": 71,
		  "start": 182.412790697674,
		  "velocity": 80
		},
		{
		  "duration": 0.348837209302326,
		  "pitch": 79,
		  "start": 182.412790697674,
		  "velocity": 80
		},
		{
		  "duration": 0.348837209302326,
		  "pitch": 67,
		  "start": 182.412790697674,
		  "velocity": 80
		},
		{
		  "duration": 1.3953488372093,
		  "pitch": 81,
		  "start": 182.761627906977,
		  "velocity": 80
		},
		{
		  "duration": 1.3953488372093,
		  "pitch": 69,
		  "start": 182.761627906977,
		  "velocity": 80
		},
		{
		  "duration": 1.3953488372093,
		  "pitch": 77,
		  "start": 182.761627906977,
		  "velocity": 80
		},
		{
		  "duration": 1.3953488372093,
		  "pitch": 65,
		  "start": 182.761627906977,
		  "velocity": 80
		},
		{
		  "duration": 0.697674418604651,
		  "pitch": 69,
		  "start": 184.156976744186,
		  "velocity": 80
		},
		{
		  "duration": 0.697674418604651,
		  "pitch": 57,
		  "start": 184.156976744186,
		  "velocity": 80
		},
		{
		  "duration": 0.697674418604651,
		  "pitch": 64,
		  "start": 184.156976744186,
		  "velocity": 80
		},
		{
		  "duration": 0.697674418604651,
		  "pitch": 52,
		  "start": 184.156976744186,
		  "velocity": 80
		},
		{
		  "duration": 0.697674418604651,
		  "pitch": 71,
		  "start": 184.854651162791,
		  "velocity": 80
		},
		{
		  "duration": 0.697674418604651,
		  "pitch": 59,
		  "start": 184.854651162791,
		  "velocity": 80
		},
		{
		  "duration": 0.697674418604651,
		  "pitch": 64,
		  "start": 184.854651162791,
		  "velocity": 80
		},
		{
		  "duration": 0.697674418604651,
		  "pitch": 52,
		  "start": 184.854651162791,
		  "velocity": 80
		},
		{
		  "duration": 0.697674418604651,
		  "pitch": 72,
		  "start": 185.552325581395,
		  "velocity": 80
		},
		{
		  "duration": 0.697674418604651,
		  "pitch": 60,
		  "start": 185.552325581395,
		  "velocity": 80
		},
		{
		  "duration": 0.697674418604651,
		  "pitch": 69,
		  "start": 185.552325581395,
		  "velocity": 80
		},
		{
		  "duration": 0.697674418604651,
		  "pitch": 57,
		  "start": 185.552325581395,
		  "velocity": 80
		},
		{
		  "duration": 0.697674418604651,
		  "pitch": 74,
		  "start": 186.25,
		  "velocity": 80
		},
		{
		  "duration": 0.697674418604651,
		  "pitch": 62,
		  "start": 186.25,
		  "velocity": 80
		},
		{
		  "duration": 0.697674418604651,
		  "pitch": 71,
		  "start": 186.25,
		  "velocity": 80
		},
		{
		  "duration": 0.697674418604651,
		  "pitch": 59,
		  "start": 186.25,
		  "velocity": 80
		},
		{
		  "duration": 0.697674418604651,
		  "pitch": 76,
		  "start": 186.947674418605,
		  "velocity": 80
		},
		{
		  "duration": 0.697674418604651,
		  "pitch": 60,
		  "start": 186.947674418605,
		  "velocity": 80
		},
		{
		  "duration": 0.697674418604651,
		  "pitch": 72,
		  "start": 186.947674418605,
		  "velocity": 80
		},
		{
		  "duration": 0.697674418604651,
		  "pitch": 64,
		  "start": 186.947674418605,
		  "velocity": 80
		},
		{
		  "duration": 0.697674418604651,
		  "pitch": 78,
		  "start": 187.645348837209,
		  "velocity": 80
		},
		{
		  "duration": 0.697674418604651,
		  "pitch": 62,
		  "start": 187.645348837209,
		  "velocity": 80
		},
		{
		  "duration": 0.697674418604651,
		  "pitch": 74,
		  "start": 187.645348837209,
		  "velocity": 80
		},
		{
		  "duration": 0.697674418604651,
		  "pitch": 66,
		  "start": 187.645348837209,
		  "velocity": 80
		},
		{
		  "duration": 0.697674418604651,
		  "pitch": 79,
		  "start": 188.343023255814,
		  "velocity": 80
		},
		{
		  "duration": 0.697674418604651,
		  "pitch": 64,
		  "start": 188.343023255814,
		  "velocity": 80
		},
		{
		  "duration": 0.697674418604651,
		  "pitch": 76,
		  "start": 188.343023255814,
		  "velocity": 80
		},
		{
		  "duration": 0.697674418604651,
		  "pitch": 67,
		  "start": 188.343023255814,
		  "velocity": 80
		},
		{
		  "duration": 0.697674418604651,
		  "pitch": 80,
		  "start": 189.040697674419,
		  "velocity": 80
		},
		{
		  "duration": 0.697674418604651,
		  "pitch": 64,
		  "start": 189.040697674419,
		  "velocity": 80
		},
		{
		  "duration": 0.697674418604651,
		  "pitch": 76,
		  "start": 189.040697674419,
		  "velocity": 80
		},
		{
		  "duration": 0.697674418604651,
		  "pitch": 68,
		  "start": 189.040697674419,
		  "velocity": 80
		},
		{
		  "duration": 2.7906976744186,
		  "pitch": 64,
		  "start": 189.738372093023,
		  "velocity": 80
		},
		{
		  "duration": 2.7906976744186,
		  "pitch": 69,
		  "start": 189.738372093023,
		  "velocity": 80
		},
		{
		  "duration": 2.7906976744186,
		  "pitch": 76,
		  "start": 189.738372093023,
		  "velocity": 80
		},
		{
		  "duration": 2.7906976744186,
		  "pitch": 81,
		  "start": 189.738372093023,
		  "velocity": 80
		},
		{
		  "duration": 0.697674418604651,
		  "pitch": 62,
		  "start": 262.296511627907,
		  "velocity": 80
		},
		{
		  "duration": 0.697674418604651,
		  "pitch": 57,
		  "start": 262.296511627907,
		  "velocity": 80
		},
		{
		  "duration": 0.697674418604651,
		  "pitch": 64,
		  "start": 262.994186046512,
		  "velocity": 80
		},
		{
		  "duration": 0.697674418604651,
		  "pitch": 57,
		  "start": 262.994186046512,
		  "velocity": 80
		},
		{
		  "duration": 0.697674418604651,
		  "pitch": 65,
		  "start": 263.691860465116,
		  "velocity": 80
		},
		{
		  "duration": 0.697674418604651,
		  "pitch": 62,
		  "start": 263.691860465116,
		  "velocity": 80
		},
		{
		  "duration": 0.697674418604651,
		  "pitch": 67,
		  "start": 264.389534883721,
		  "velocity": 80
		},
		{
		  "duration": 0.697674418604651,
		  "pitch": 64,
		  "start": 264.389534883721,
		  "velocity": 80
		},
		{
		  "duration": 0.116279069767442,
		  "pitch": 69,
		  "start": 265.087209302326,
		  "velocity": 80
		},
		{
		  "duration": 0.116279069767442,
		  "pitch": 65,
		  "start": 265.087209302326,
		  "velocity": 80
		},
		{
		  "duration": 0.697674418604651,
		  "pitch": 72,
		  "start": 265.436046511628,
		  "velocity": 80
		},
		{
		  "duration": 0.697674418604651,
		  "pitch": 69,
		  "start": 265.436046511628,
		  "velocity": 80
		},
		{
		  "duration": 0.348837209302326,
		  "pitch": 71,
		  "start": 266.133720930233,
		  "velocity": 80
		},
		{
		  "duration": 0.348837209302326,
		  "pitch": 67,
		  "start": 266.133720930233,
		  "velocity": 80
		},
		{
		  "duration": 1.3953488372093,
		  "pitch": 69,
		  "start": 266.482558139535,
		  "velocity": 80
		},
		{
		  "duration": 1.3953488372093,
		  "pitch": 65,
		  "start": 266.482558139535,
		  "velocity": 80
		},
		{
		  "duration": 0.697674418604651,
		  "pitch": 57,
		  "start": 267.877906976744,
		  "velocity": 80
		},
		{
		  "duration": 0.697674418604651,
		  "pitch": 52,
		  "start": 267.877906976744,
		  "velocity": 80
		},
		{
		  "duration": 0.697674418604651,
		  "pitch": 59,
		  "start": 268.575581395349,
		  "velocity": 80
		},
		{
		  "duration": 0.697674418604651,
		  "pitch": 52,
		  "start": 268.575581395349,
		  "velocity": 80
		},
		{
		  "duration": 0.697674418604651,
		  "pitch": 60,
		  "start": 269.273255813953,
		  "velocity": 80
		},
		{
		  "duration": 0.697674418604651,
		  "pitch": 57,
		  "start": 269.273255813953,
		  "velocity": 80
		},
		{
		  "duration": 0.697674418604651,
		  "pitch": 62,
		  "start": 269.970930232558,
		  "velocity": 80
		},
		{
		  "duration": 0.697674418604651,
		  "pitch": 59,
		  "start": 269.970930232558,
		  "velocity": 80
		},
		{
		  "duration": 0.116279069767442,
		  "pitch": 64,
		  "start": 270.668604651163,
		  "velocity": 80
		},
		{
		  "duration": 0.116279069767442,
		  "pitch": 60,
		  "start": 270.668604651163,
		  "velocity": 80
		},
		{
		  "duration": 0.697674418604651,
		  "pitch": 67,
		  "start": 271.017441860465,
		  "velocity": 80
		},
		{
		  "duration": 0.697674418604651,
		  "pitch": 64,
		  "start": 271.017441860465,
		  "velocity": 80
		},
		{
		  "duration": 0.348837209302326,
		  "pitch": 66,
		  "start": 271.71511627907,
		  "velocity": 80
		},
		{
		  "duration": 0.348837209302326,
		  "pitch": 62,
		  "start": 271.71511627907,
		  "velocity": 80
		},
		{
		  "duration": 1.3953488372093,
		  "pitch": 64,
		  "start": 272.063953488372,
		  "velocity": 80
		},
		{
		  "duration": 1.3953488372093,
		  "pitch": 60,
		  "start": 272.063953488372,
		  "velocity": 80
		},
		{
		  "duration": 0.697674418604651,
		  "pitch": 74,
		  "start": 273.459302325581,
		  "velocity": 80
		},
		{
		  "duration": 0.697674418604651,
		  "pitch": 62,
		  "start": 273.459302325581,
		  "velocity": 80
		},
		{
		  "duration": 0.697674418604651,
		  "pitch": 69,
		  "start": 273.459302325581,
		  "velocity": 80
		},
		{
		  "duration": 0.697674418604651,
		  "pitch": 57,
		  "start": 273.459302325581,
		  "velocity": 80
		},
		{
		  "duration": 0.697674418604651,
		  "pitch": 76,
		  "start": 274.156976744186,
		  "velocity": 80
		},
		{
		  "duration": 0.697674418604651,
		  "pitch": 64,
		  "start": 274.156976744186,
		  "velocity": 80
		},
		{
		  "duration": 0.697674418604651,
		  "pitch": 69,
		  "start": 274.156976744186,
		  "velocity": 80
		},
		{
		  "duration": 0.697674418604651,
		  "pitch": 57,
		  "start": 274.156976744186,
		  "velocity": 80
		},
		{
		  "duration": 0.697674418604651,
		  "pitch": 77,
		  "start": 274.854651162791,
		  "velocity": 80
		},
		{
		  "duration": 0.697674418604651,
		  "pitch": 65,
		  "start": 274.854651162791,
		  "velocity": 80
		},
		{
		  "duration": 0.697674418604651,
		  "pitch": 74,
		  "start": 274.854651162791,
		  "velocity": 80
		},
		{
		  "duration": 0.697674418604651,
		  "pitch": 62,
		  "start": 274.854651162791,
		  "velocity": 80
		},
		{
		  "duration": 0.697674418604651,
		  "pitch": 79,
		  "start": 275.552325581395,
		  "velocity": 80
		},
		{
		  "duration": 0.697674418604651,
		  "pitch": 67,
		  "start": 275.552325581395,
		  "velocity": 80
		},
		{
		  "duration": 0.697674418604651,
		  "pitch": 76,
		  "start": 275.552325581395,
		  "velocity": 80
		},
		{
		  "duration": 0.697674418604651,
		  "pitch": 64,
		  "start": 275.552325581395,
		  "velocity": 80
		},
		{
		  "duration": 0.116279069767442,
		  "pitch": 81,
		  "start": 276.25,
		  "velocity": 80
		},
		{
		  "duration": 0.116279069767442,
		  "pitch": 69,
		  "start": 276.25,
		  "velocity": 80
		},
		{
		  "duration": 0.116279069767442,
		  "pitch": 77,
		  "start": 276.25,
		  "velocity": 80
		},
		{
		  "duration": 0.116279069767442,
		  "pitch": 65,
		  "start": 276.25,
		  "velocity": 80
		},
		{
		  "duration": 0.697674418604651,
		  "pitch": 84,
		  "start": 276.598837209302,
		  "velocity": 80
		},
		{
		  "duration": 0.697674418604651,
		  "pitch": 72,
		  "start": 276.598837209302,
		  "velocity": 80
		},
		{
		  "duration": 0.697674418604651,
		  "pitch": 81,
		  "start": 276.598837209302,
		  "velocity": 80
		},
		{
		  "duration": 0.697674418604651,
		  "pitch": 69,
		  "start": 276.598837209302,
		  "velocity": 80
		},
		{
		  "duration": 0.348837209302326,
		  "pitch": 83,
		  "start": 277.296511627907,
		  "velocity": 80
		},
		{
		  "duration": 0.348837209302326,
		  "pitch": 71,
		  "start": 277.296511627907,
		  "velocity": 80
		},
		{
		  "duration": 0.348837209302326,
		  "pitch": 79,
		  "start": 277.296511627907,
		  "velocity": 80
		},
		{
		  "duration": 0.348837209302326,
		  "pitch": 67,
		  "start": 277.296511627907,
		  "velocity": 80
		},
		{
		  "duration": 1.3953488372093,
		  "pitch": 81,
		  "start": 277.645348837209,
		  "velocity": 80
		},
		{
		  "duration": 1.3953488372093,
		  "pitch": 69,
		  "start": 277.645348837209,
		  "velocity": 80
		},
		{
		  "duration": 1.3953488372093,
		  "pitch": 77,
		  "start": 277.645348837209,
		  "velocity": 80
		},
		{
		  "duration": 1.3953488372093,
		  "pitch": 65,
		  "start": 277.645348837209,
		  "velocity": 80
		},
		{
		  "duration": 0.697674418604651,
		  "pitch": 69,
		  "start": 279.040697674419,
		  "velocity": 80
		},
		{
		  "duration": 0.697674418604651,
		  "pitch": 57,
		  "start": 279.040697674419,
		  "velocity": 80
		},
		{
		  "duration": 0.697674418604651,
		  "pitch": 64,
		  "start": 279.040697674419,
		  "velocity": 80
		},
		{
		  "duration": 0.697674418604651,
		  "pitch": 52,
		  "start": 279.040697674419,
		  "velocity": 80
		},
		{
		  "duration": 0.697674418604651,
		  "pitch": 71,
		  "start": 279.738372093023,
		  "velocity": 80
		},
		{
		  "duration": 0.697674418604651,
		  "pitch": 59,
		  "start": 279.738372093023,
		  "velocity": 80
		},
		{
		  "duration": 0.697674418604651,
		  "pitch": 64,
		  "start": 279.738372093023,
		  "velocity": 80
		},
		{
		  "duration": 0.697674418604651,
		  "pitch": 52,
		  "start": 279.738372093023,
		  "velocity": 80
		},
		{
		  "duration": 0.697674418604651,
		  "pitch": 72,
		  "start": 280.436046511628,
		  "velocity": 80
		},
		{
		  "duration": 0.697674418604651,
		  "pitch": 60,
		  "start": 280.436046511628,
		  "velocity": 80
		},
		{
		  "duration": 0.697674418604651,
		  "pitch": 69,
		  "start": 280.436046511628,
		  "velocity": 80
		},
		{
		  "duration": 0.697674418604651,
		  "pitch": 57,
		  "start": 280.436046511628,
		  "velocity": 80
		},
		{
		  "duration": 0.697674418604651,
		  "pitch": 74,
		  "start": 281.133720930233,
		  "velocity": 80
		},
		{
		  "duration": 0.697674418604651,
		  "pitch": 62,
		  "start": 281.133720930233,
		  "velocity": 80
		},
		{
		  "duration": 0.697674418604651,
		  "pitch": 71,
		  "start": 281.133720930233,
		  "velocity": 80
		},
		{
		  "duration": 0.697674418604651,
		  "pitch": 59,
		  "start": 281.133720930233,
		  "velocity": 80
		},
		{
		  "duration": 0.697674418604651,
		  "pitch": 76,
		  "start": 281.831395348837,
		  "velocity": 80
		},
		{
		  "duration": 0.697674418604651,
		  "pitch": 60,
		  "start": 281.831395348837,
		  "velocity": 80
		},
		{
		  "duration": 0.697674418604651,
		  "pitch": 72,
		  "start": 281.831395348837,
		  "velocity": 80
		},
		{
		  "duration": 0.697674418604651,
		  "pitch": 64,
		  "start": 281.831395348837,
		  "velocity": 80
		},
		{
		  "duration": 0.697674418604651,
		  "pitch": 78,
		  "start": 282.529069767442,
		  "velocity": 80
		},
		{
		  "duration": 0.697674418604651,
		  "pitch": 62,
		  "start": 282.529069767442,
		  "velocity": 80
		},
		{
		  "duration": 0.697674418604651,
		  "pitch": 74,
		  "start": 282.529069767442,
		  "velocity": 80
		},
		{
		  "duration": 0.697674418604651,
		  "pitch": 66,
		  "start": 282.529069767442,
		  "velocity": 80
		},
		{
		  "duration": 0.697674418604651,
		  "pitch": 79,
		  "start": 283.226744186047,
		  "velocity": 80
		},
		{
		  "duration": 0.697674418604651,
		  "pitch": 64,
		  "start": 283.226744186047,
		  "velocity": 80
		},
		{
		  "duration": 0.697674418604651,
		  "pitch": 76,
		  "start": 283.226744186047,
		  "velocity": 80
		},
		{
		  "duration": 0.697674418604651,
		  "pitch": 67,
		  "start": 283.226744186047,
		  "velocity": 80
		},
		{
		  "duration": 0.697674418604651,
		  "pitch": 80,
		  "start": 283.924418604651,
		  "velocity": 80
		},
		{
		  "duration": 0.697674418604651,
		  "pitch": 64,
		  "start": 283.924418604651,
		  "velocity": 80
		},
		{
		  "duration": 0.697674418604651,
		  "pitch": 76,
		  "start": 283.924418604651,
		  "velocity": 80
		},
		{
		  "duration": 0.697674418604651,
		  "pitch": 68,
		  "start": 283.924418604651,
		  "velocity": 80
		},
		{
		  "duration": 2.7906976744186,
		  "pitch": 64,
		  "start": 284.622093023256,
		  "velocity": 80
		},
		{
		  "duration": 2.7906976744186,
		  "pitch": 69,
		  "start": 284.622093023256,
		  "velocity": 80
		},
		{
		  "duration": 2.7906976744186,
		  "pitch": 76,
		  "start": 284.622093023256,
		  "velocity": 80
		},
		{
		  "duration": 2.7906976744186,
		  "pitch": 81,
		  "start": 284.622093023256,
		  "velocity": 80
		}
	  ]
	},
	{
	  "cc_events": [
		{
		  "controller": 7,
		  "time": 0.0,
		  "value": 92
		},
		{
		  "controller": 10,
		  "time": 0.0,
		  "value": 127
		},
		{
		  "controller": 10,
		  "time": 94.8837209302326,
		  "value": 127
		},
		{
		  "controller": 10,
		  "time": 94.8837209302326,
		  "value": 127
		},
		{
		  "controller": 10,
		  "time": 189.767441860465,
		  "value": 127
		},
		{
		  "controller": 10,
		  "time": 189.767441860465,
		  "value": 127
		},
		{
		  "controller": 10,
		  "time": 284.651162790698,
		  "value": 127
		},
		{
		  "controller": 10,
		  "time": 284.651162790698,
		  "value": 127
		}
	  ],
	  "channel": 1,
	  "instrument": 17,
	  "name": "Organ1",
	  "notes": [
		{
		  "duration": 0.0436046511627907,
		  "pitch": 43,
		  "start": 10.4651162790698,
		  "velocity": 80
		},
		{
		  "duration": 0.0436046511627907,
		  "pitch": 31,
		  "start": 10.4651162790698,
		  "velocity": 80
		},
		{
		  "duration": 0.0436046511627907,
		  "pitch": 45,
		  "start": 10.4869186046512,
		  "velocity": 80
		},
		{
		  "duration": 0.0436046511627907,
		  "pitch": 33,
		  "start": 10.4869186046512,
		  "velocity": 80
		},
		{
		  "duration": 0.0436046511627907,
		  "pitch": 47,
		  "start": 10.5087209302326,
		  "velocity": 80
		},
		{
		  "duration": 0.0436046511627907,
		  "pitch": 35,
		  "start": 10.5087209302326,
		  "velocity": 80
		},
		{
		  "duration": 0.0436046511627907,
		  "pitch": 48,
		  "start": 10.530523255814,
		  "velocity": 80
		},
		{
		  "duration": 0.0436046511627907,
		  "pitch": 36,
		  "start": 10.530523255814,
		  "velocity": 80
		},
		{
		  "duration": 0.0436046511627907,
		  "pitch": 50,
		  "start": 10.5523255813953,
		  "velocity": 80
		},
		{
		  "duration": 0.0436046511627907,
		  "pitch": 38,
		  "start": 10.5523255813953,
		  "velocity": 80
		},
		{
		  "duration": 0.0436046511627907,
		  "pitch": 52,
		  "start": 10.5741279069767,
		  "velocity": 80
		},
		{
		  "duration": 0.0436046511627907,
		  "pitch": 40,
		  "start": 10.5741279069767,
		  "velocity": 80
		},
		{
		  "duration": 0.0436046511627907,
		  "pitch": 53,
		  "start": 10.5959302325581,
		  "velocity": 80
		},
		{
		  "duration": 0.0436046511627907,
		  "pitch": 41,
		  "start": 10.5959302325581,
		  "velocity": 80
		},
		{
		  "duration": 0.0436046511627907,
		  "pitch": 55,
		  "start": 10.6177325581395,
		  "velocity": 80
		},
		{
		  "duration": 0.0436046511627907,
		  "pitch": 43,
		  "start": 10.6177325581395,
		  "velocity": 80
		},
		{
		  "duration": 0.0436046511627907,
		  "pitch": 57,
		  "start": 10.6395348837209,
		  "velocity": 80
		},
		{
		  "duration": 0.0436046511627907,
		  "pitch": 45,
		  "start": 10.6395348837209,
		  "velocity": 80
		},
		{
		  "duration": 0.0436046511627907,
		  "pitch": 59,
		  "start": 10.6613372093023,
		  "velocity": 80
		},
		{
		  "duration": 0.0436046511627907,
		  "pitch": 47,
		  "start": 10.6613372093023,
		  "velocity": 80
		},
		{
		  "duration": 0.0436046511627907,
		  "pitch": 60,
		  "start": 10.6831395348837,
		  "velocity": 80
		},
		{
		  "duration": 0.0436046511627907,
		  "pitch": 48,
		  "start": 10.6831395348837,
		  "velocity": 80
		},
		{
		  "duration": 0.0436046511627907,
		  "pitch": 62,
		  "start": 10.7049418604651,
		  "velocity": 80
		},
		{
		  "duration": 0.0436046511627907,
		  "pitch": 50,
		  "start": 10.7049418604651,
		  "velocity": 80
		},
		{
		  "duration": 0.0436046511627907,
		  "pitch": 64,
		  "start": 10.7267441860465,
		  "velocity": 80
		},
		{
		  "duration": 0.0436046511627907,
		  "pitch": 52,
		  "start": 10.7267441860465,
		  "velocity": 80
		},
		{
		  "duration": 0.0436046511627907,
		  "pitch": 65,
		  "start": 10.7485465116279,
		  "velocity": 80
		},
		{
		  "duration": 0.0436046511627907,
		  "pitch": 53,
		  "start": 10.7485465116279,
		  "velocity": 80
		},
		{
		  "duration": 0.0436046511627907,
		  "pitch": 67,
		  "start": 10.7703488372093,
		  "velocity": 80
		},
		{
		  "duration": 0.0436046511627907,
		  "pitch": 55,
		  "start": 10.7703488372093,
		  "velocity": 80
		},
		{
		  "duration": 0.0436046511627907,
		  "pitch": 69,
		  "start": 10.7921511627907,
		  "velocity": 80
		},
		{
		  "duration": 0.0436046511627907,
		  "pitch": 57,
		  "start": 10.7921511627907,
		  "velocity": 80
		},
		{
		  "duration": 0.0436046511627907,
		  "pitch": 71,
		  "start": 10.8139534883721,
		  "velocity": 80
		},
		{
		  "duration": 0.0436046511627907,
		  "pitch": 59,
		  "start": 10.8139534883721,
		  "velocity": 80
		},
		{
		  "duration": 0.0436046511627907,
		  "pitch": 72,
		  "start": 10.8357558139535,
		  "velocity": 80
		},
		{
		  "duration": 0.0436046511627907,
		  "pitch": 60,
		  "start": 10.8357558139535,
		  "velocity": 80
		},
		{
		  "duration": 0.0436046511627907,
		  "pitch": 74,
		  "start": 10.8575581395349,
		  "velocity": 80
		},
		{
		  "duration": 0.0436046511627907,
		  "pitch": 62,
		  "start": 10.8575581395349,
		  "velocity": 80
		},
		{
		  "duration": 0.0436046511627907,
		  "pitch": 76,
		  "start": 10.8793604651163,
		  "velocity": 80
		},
		{
		  "duration": 0.0436046511627907,
		  "pitch": 64,
		  "start": 10.8793604651163,
		  "velocity": 80
		},
		{
		  "duration": 0.0436046511627907,
		  "pitch": 77,
		  "start": 10.9011627906977,
		  "velocity": 80
		},
		{
		  "duration": 0.0436046511627907,
		  "pitch": 65,
		  "start": 10.9011627906977,
		  "velocity": 80
		},
		{
		  "duration": 0.0436046511627907,
		  "pitch": 79,
		  "start": 10.9229651162791,
		  "velocity": 80
		},
		{
		  "duration": 0.0436046511627907,
		  "pitch": 67,
		  "start": 10.9229651162791,
		  "velocity": 80
		},
		{
		  "duration": 0.0436046511627907,
		  "pitch": 81,
		  "start": 10.9447674418605,
		  "velocity": 80
		},
		{
		  "duration": 0.0436046511627907,
		  "pitch": 69,
		  "start": 10.9447674418605,
		  "velocity": 80
		},
		{
		  "duration": 0.0436046511627907,
		  "pitch": 83,
		  "start": 10.9665697674419,
		  "velocity": 80
		},
		{
		  "duration": 0.0436046511627907,
		  "pitch": 71,
		  "start": 10.9665697674419,
		  "velocity": 80
		},
		{
		  "duration": 0.0436046511627907,
		  "pitch": 84,
		  "start": 10.9883720930233,
		  "velocity": 80
		},
		{
		  "duration": 0.0436046511627907,
		  "pitch": 72,
		  "start": 10.9883720930233,
		  "velocity": 80
		},
		{
		  "duration": 0.0436046511627907,
		  "pitch": 86,
		  "start": 11.0101744186047,
		  "velocity": 80
		},
		{
		  "duration": 0.0436046511627907,
		  "pitch": 74,
		  "start": 11.0101744186047,
		  "velocity": 80
		},
		{
		  "duration": 0.0436046511627907,
		  "pitch": 88,
		  "start": 11.031976744186,
		  "velocity": 80
		},
		{
		  "duration": 0.0436046511627907,
		  "pitch": 76,
		  "start": 11.031976744186,
		  "velocity": 80
		},
		{
		  "duration": 0.0436046511627907,
		  "pitch": 89,
		  "start": 11.0537790697674,
		  "velocity": 80
		},
		{
		  "duration": 0.0436046511627907,
		  "pitch": 77,
		  "start": 11.0537790697674,
		  "velocity": 80
		},
		{
		  "duration": 0.0436046511627907,
		  "pitch": 91,
		  "start": 11.0755813953488,
		  "velocity": 80
		},
		{
		  "duration": 0.0436046511627907,
		  "pitch": 79,
		  "start": 11.0755813953488,
		  "velocity": 80
		},
		{
		  "duration": 0.0436046511627907,
		  "pitch": 93,
		  "start": 11.0973837209302,
		  "velocity": 80
		},
		{
		  "duration": 0.0436046511627907,
		  "pitch": 81,
		  "start": 11.0973837209302,
		  "velocity": 80
		},
		{
		  "duration": 0.0218023255813953,
		  "pitch": 96,
		  "start": 11.140988372093,
		  "velocity": 80
		},
		{
		  "duration": 0.0218023255813953,
		  "pitch": 84,
		  "start": 11.140988372093,
		  "velocity": 80
		},
		{
		  "duration": 0.0436046511627907,
		  "pitch": 95,
		  "start": 11.1191860465116,
		  "velocity": 80
		},
		{
		  "duration": 0.0436046511627907,
		  "pitch": 83,
		  "start": 11.1191860465116,
		  "velocity": 80
		},
		{
		  "duration": 2.09302325581395,
		  "pitch": 81,
		  "start": 11.1627906976744,
		  "velocity": 80
		},
		{
		  "duration": 2.09302325581395,
		  "pitch": 93,
		  "start": 11.1627906976744,
		  "velocity": 80
		},
		{
		  "duration": 0.232558139534884,
		  "pitch": 81,
		  "start": 13.2558139534884,
		  "velocity": 80
		},
		{
		  "duration": 0.232558139534884,
		  "pitch": 93,
		  "start": 13.2558139534884,
		  "velocity": 80
		},
		{
		  "duration": 0.232558139534884,
		  "pitch": 81,
		  "start": 13.4883720930233,
		  "velocity": 80
		},
		{
		  "duration": 0.232558139534884,
		  "pitch": 93,
		  "start": 13.4883720930233,
		  "velocity": 80
		},
		{
		  "duration": 0.232558139534884,
		  "pitch": 81,
		  "start": 13.7209302325581,
		  "velocity": 80
		},
		{
		  "duration": 0.232558139534884,
		  "pitch": 93,
		  "start": 13.7209302325581,
		  "velocity": 80
		},
		{
		  "duration": 2.09302325581395,
		  "pitch": 81,
		  "start": 13.953488372093,
		  "velocity": 80
		},
		{
		  "duration": 2.09302325581395,
		  "pitch": 93,
		  "start": 13.953488372093,
		  "velocity": 80
		},
		{
		  "duration": 0.232558139534884,
		  "pitch": 81,
		  "start": 16.046511627907,
		  "velocity": 80
		},
		{
		  "duration": 0.232558139534884,
		  "pitch": 93,
		  "start": 16.046511627907,
		  "velocity": 80
		},
		{
		  "duration": 0.232558139534884,
		  "pitch": 81,
		  "start": 16.2790697674419,
		  "velocity": 80
		},
		{
		  "duration": 0.232558139534884,
		  "pitch": 93,
		  "start": 16.2790697674419,
		  "velocity": 80
		},
		{
		  "duration": 0.232558139534884,
		  "pitch": 81,
		  "start": 16.5116279069767,
		  "velocity": 80
		},
		{
		  "duration": 0.232558139534884,
		  "pitch": 93,
		  "start": 16.5116279069767,
		  "velocity": 80
		},
		{
		  "duration": 2.09302325581395,
		  "pitch": 79,
		  "start": 16.7441860465116,
		  "velocity": 80
		},
		{
		  "duration": 2.09302325581395,
		  "pitch": 91,
		  "start": 16.7441860465116,
		  "velocity": 80
		},
		{
		  "duration": 0.232558139534884,
		  "pitch": 81,
		  "start": 18.8372093023256,
		  "velocity": 80
		},
		{
		  "duration": 0.232558139534884,
		  "pitch": 93,
		  "start": 18.8372093023256,
		  "velocity": 80
		},
		{
		  "duration": 0.232558139534884,
		  "pitch": 81,
		  "start": 19.0697674418605,
		  "velocity": 80
		},
		{
		  "duration": 0.232558139534884,
		  "pitch": 93,
		  "start": 19.0697674418605,
		  "velocity": 80
		},
		{
		  "duration": 0.232558139534884,
		  "pitch": 81,
		  "start": 19.3023255813953,
		  "velocity": 80
		},
		{
		  "duration": 0.232558139534884,
		  "pitch": 93,
		  "start": 19.3023255813953,
		  "velocity": 80
		},
		{
		  "duration": 2.09302325581395,
		  "pitch": 79,
		  "start": 19.5348837209302,
		  "velocity": 80
		},
		{
		  "duration": 2.09302325581395,
		  "pitch": 91,
		  "start": 19.5348837209302,
		  "velocity": 80
		},
		{
		  "duration": 0.232558139534884,
		  "pitch": 84,
		  "start": 21.6279069767442,
		  "velocity": 80
		},
		{
		  "duration": 0.232558139534884,
		  "pitch": 96,
		  "start": 21.6279069767442,
		  "velocity": 80
		},
		{
		  "duration": 0.232558139534884,
		  "pitch": 84,
		  "start": 21.8604651162791,
		  "velocity": 80
		},
		{
		  "duration": 0.232558139534884,
		  "pitch": 96,
		  "start": 21.8604651162791,
		  "velocity": 80
		},
		{
		  "duration": 0.232558139534884,
		  "pitch": 84,
		  "start": 22.093023255814,
		  "velocity": 80
		},
		{
		  "duration": 0.232558139534884,
		  "pitch": 96,
		  "start": 22.093023255814,
		  "velocity": 80
		},
		{
		  "duration": 0.232558139534884,
		  "pitch": 93,
		  "start": 22.3255813953488,
		  "velocity": 80
		},
		{
		  "duration": 0.232558139534884,
		  "pitch": 81,
		  "start": 22.3255813953488,
		  "velocity": 80
		},
		{
		  "duration": 0.116279069767442,
		  "pitch": 88,
		  "start": 22.5581395348837,
		  "velocity": 80
		},
		{
		  "duration": 0.116279069767442,
		  "pitch": 76,
		  "start": 22.5581395348837,
		  "velocity": 80
		},
		{
		  "duration": 0.116279069767442,
		  "pitch": 81,
		  "start": 22.6744186046512,
		  "velocity": 80
		},
		{
		  "duration": 0.116279069767442,
		  "pitch": 69,
		  "start": 22.6744186046512,
		  "velocity": 80
		},
		{
		  "duration": 0.116279069767442,
		  "pitch": 88,
		  "start": 22.7906976744186,
		  "velocity": 80
		},
		{
		  "duration": 0.116279069767442,
		  "pitch": 76,
		  "start": 22.7906976744186,
		  "velocity": 80
		},
		{
		  "duration": 0.116279069767442,
		  "pitch": 93,
		  "start": 22.906976744186,
		  "velocity": 80
		},
		{
		  "duration": 0.116279069767442,
		  "pitch": 81,
		  "start": 22.906976744186,
		  "velocity": 80
		},
		{
		  "duration": 0.116279069767442,
		  "pitch": 91,
		  "start": 23.0232558139535,
		  "velocity": 80
		},
		{
		  "duration": 0.116279069767442,
		  "pitch": 79,
		  "start": 23.0232558139535,
		  "velocity": 80
		},
		{
		  "duration": 0.116279069767442,
		  "pitch": 86,
		  "start": 23.1395348837209,
		  "velocity": 80
		},
		{
		  "duration": 0.116279069767442,
		  "pitch": 74,
		  "start": 23.1395348837209,
		  "velocity": 80
		},
		{
		  "duration": 0.116279069767442,
		  "pitch": 88,
		  "start": 23.2558139534884,
		  "velocity": 80
		},
		{
		  "duration": 0.116279069767442,
		  "pitch": 76,
		  "start": 23.2558139534884,
		  "velocity": 80
		},
		{
		  "duration": 0.116279069767442,
		  "pitch": 95,
		  "start": 23.3720930232558,
		  "velocity": 80
		},
		{
		  "duration": 0.116279069767442,
		  "pitch": 83,
		  "start": 23.3720930232558,
		  "velocity": 80
		},
		{
		  "duration": 0.116279069767442,
		  "pitch": 91,
		  "start": 23.4883720930233,
		  "velocity": 80
		},
		{
		  "duration": 0.116279069767442,
		  "pitch": 79,
		  "start": 23.4883720930233,
		  "velocity": 80
		},
		{
		  "duration": 0.116279069767442,
		  "pitch": 88,
		  "start": 23.6046511627907,
		  "velocity": 80
		},
		{
		  "duration": 0.116279069767442,
		  "pitch": 76,
		  "start": 23.6046511627907,
		  "velocity": 80
		},
		{
		  "duration": 0.232558139534884,
		  "pitch": 96,
		  "start": 23.7209302325581,
		  "velocity": 80
		},
		{
		  "duration": 0.232558139534884,
		  "pitch": 84,
		  "start": 23.7209302325581,
		  "velocity": 80
		},
		{
		  "duration": 0.116279069767442,
		  "pitch": 91,
		  "start": 23.953488372093,
		  "velocity": 80
		},
		{
		  "duration": 0.116279069767442,
		  "pitch": 79,
		  "start": 23.953488372093,
		  "velocity": 80
		},
		{
		  "duration": 0.116279069767442,
		  "pitch": 88,
		  "start": 24.0697674418605,
		  "velocity": 80
		},
		{
		  "duration": 0.116279069767442,
		  "pitch": 76,
		  "start": 24.0697674418605,
		  "velocity": 80
		},
		{
		  "duration": 0.116279069767442,
		  "pitch": 91,
		  "start": 24.1860465116279,
		  "velocity": 80
		},
		{
		  "duration": 0.116279069767442,
		  "pitch": 79,
		  "start": 24.1860465116279,
		  "velocity": 80
		},
		{
		  "duration": 0.116279069767442,
		  "pitch": 96,
		  "start": 24.3023255813953,
		  "velocity": 80
		},
		{
		  "duration": 0.116279069767442,
		  "pitch": 84,
		  "start": 24.3023255813953,
		  "velocity": 80
		},
		{
		  "duration": 0.116279069767442,
		  "pitch": 95,
		  "start": 24.4186046511628,
		  "velocity": 80
		},
		{
		  "duration": 0.116279069767442,
		  "pitch": 83,
		  "start": 24.4186046511628,
		  "velocity": 80
		},
		{
		  "duration": 0.116279069767442,
		  "pitch": 86,
		  "start": 24.5348837209302,
		  "velocity": 80
		},
		{
		  "duration": 0.116279069767442,
		  "pitch": 74,
		  "start": 24.5348837209302,
		  "velocity": 80
		},
		{
		  "duration": 0.116279069767442,
		  "pitch": 91,
		  "start": 24.6511627906977,
		  "velocity": 80
		},
		{
		  "duration": 0.116279069767442,
		  "pitch": 79,
		  "start": 24.6511627906977,
		  "velocity": 80
		},
		{
		  "duration": 0.116279069767442,
		  "pitch": 98,
		  "start": 24.7674418604651,
		  "velocity": 80
		},
		{
		  "duration": 0.116279069767442,
		  "pitch": 86,
		  "start": 24.7674418604651,
		  "velocity": 80
		},
		{
		  "duration": 0.116279069767442,
		  "pitch": 95,
		  "start": 24.8837209302326,
		  "velocity": 80
		},
		{
		  "duration": 0.116279069767442,
		  "pitch": 83,
		  "start": 24.8837209302326,
		  "velocity": 80
		},
		{
		  "duration": 0.116279069767442,
		  "pitch": 91,
		  "start": 25.0,
		  "velocity": 80
		},
		{
		  "duration": 0.116279069767442,
		  "pitch": 79,
		  "start": 25.0,
		  "velocity": 80
		},
		{
		  "duration": 1.04651162790698,
		  "pitch": 96,
		  "start": 25.1162790697674,
		  "velocity": 80
		},
		{
		  "duration": 1.04651162790698,
		  "pitch": 84,
		  "start": 25.1162790697674,
		  "velocity": 80
		},
		{
		  "duration": 0.348837209302326,
		  "pitch": 96,
		  "start": 26.1627906976744,
		  "velocity": 80
		},
		{
		  "duration": 0.348837209302326,
		  "pitch": 84,
		  "start": 26.1627906976744,
		  "velocity": 80
		},
		{
		  "duration": 0.697674418604651,
		  "pitch": 96,
		  "start": 26.5116279069767,
		  "velocity": 80
		},
		{
		  "duration": 0.697674418604651,
		  "pitch": 84,
		  "start": 26.5116279069767,
		  "velocity": 80
		},
		{
		  "duration": 0.697674418604651,
		  "pitch": 95,
		  "start": 27.2093023255814,
		  "velocity": 80
		},
		{
		  "duration": 0.697674418604651,
		  "pitch": 83,
		  "start": 27.2093023255814,
		  "velocity": 80
		},
		{
		  "duration": 0.348837209302326,
		  "pitch": 96,
		  "start": 27.906976744186,
		  "velocity": 80
		},
		{
		  "duration": 0.348837209302326,
		  "pitch": 84,
		  "start": 27.906976744186,
		  "velocity": 80
		},
		{
		  "duration": 0.232558139534884,
		  "pitch": 93,
		  "start": 30.6976744186047,
		  "velocity": 80
		},
		{
		  "duration": 0.232558139534884,
		  "pitch": 81,
		  "start": 30.6976744186047,
		  "velocity": 80
		},
		{
		  "duration": 0.116279069767442,
		  "pitch": 88,
		  "start": 30.9302325581395,
		  "velocity": 80
		},
		{
		  "duration": 0.116279069767442,
		  "pitch": 76,
		  "start": 30.9302325581395,
		  "velocity": 80
		},
		{
		  "duration": 0.116279069767442,
		  "pitch": 81,
		  "start": 31.046511627907,
		  "velocity": 80
		},
		{
		  "duration": 0.116279069767442,
		  "pitch": 69,
		  "start": 31.046511627907,
		  "velocity": 80
		},
		{
		  "duration": 0.116279069767442,
		  "pitch": 88,
		  "start": 31.1627906976744,
		  "velocity": 80
		},
		{
		  "duration": 0.116279069767442,
		  "pitch": 76,
		  "start": 31.1627906976744,
		  "velocity": 80
		},
		{
		  "duration": 0.116279069767442,
		  "pitch": 93,
		  "start": 31.2790697674419,
		  "velocity": 80
		},
		{
		  "duration": 0.116279069767442,
		  "pitch": 81,
		  "start": 31.2790697674419,
		  "velocity": 80
		},
		{
		  "duration": 0.116279069767442,
		  "pitch": 91,
		  "start": 31.3953488372093,
		  "velocity": 80
		},
		{
		  "duration": 0.116279069767442,
		  "pitch": 79,
		  "start": 31.3953488372093,
		  "velocity": 80
		},
		{
		  "duration": 0.116279069767442,
		  "pitch": 86,
		  "start": 31.5116279069767,
		  "velocity": 80
		},
		{
		  "duration": 0.116279069767442,
		  "pitch": 74,
		  "start": 31.5116279069767,
		  "velocity": 80
		},
		{
		  "duration": 0.116279069767442,
		  "pitch": 88,
		  "start": 31.6279069767442,
		  "velocity": 80
		},
		{
		  "duration": 0.116279069767442,
		  "pitch": 76,
		  "start": 31.6279069767442,
		  "velocity": 80
		},
		{
		  "duration": 0.116279069767442,
		  "pitch": 95,
		  "start": 31.7441860465116,
		  "velocity": 80
		},
		{
		  "duration": 0.116279069767442,
		  "pitch": 83,
		  "start": 31.7441860465116,
		  "velocity": 80
		},
		{
		  "duration": 0.116279069767442,
		  "pitch": 91,
		  "start": 31.8604651162791,
		  "velocity": 80
		},
		{
		  "duration": 0.116279069767442,
		  "pitch": 79,
		  "start": 31.8604651162791,
		  "velocity": 80
		},
		{
		  "duration": 0.116279069767442,
		  "pitch": 88,
		  "start": 31.9767441860465,
		  "velocity": 80
		},
		{
		  "duration": 0.116279069767442,
		  "pitch": 76,
		  "start": 31.9767441860465,
		  "velocity": 80
		},
		{
		  "duration": 0.232558139534884,
		  "pitch": 96,
		  "start": 32.093023255814,
		  "velocity": 80
		},
		{
		  "duration": 0.232558139534884,
		  "pitch": 84,
		  "start": 32.093023255814,
		  "velocity": 80
		},
		{
		  "duration": 0.116279069767442,
		  "pitch": 91,
		  "start": 32.3255813953488,
		  "velocity": 80
		},
		{
		  "duration": 0.116279069767442,
		  "pitch": 79,
		  "start": 32.3255813953488,
		  "velocity": 80
		},
		{
		  "duration": 0.116279069767442,
		  "pitch": 88,
		  "start": 32.4418604651163,
		  "velocity": 80
		},
		{
		  "duration": 0.116279069767442,
		  "pitch": 76,
		  "start": 32.4418604651163,
		  "velocity": 80
		},
		{
		  "duration": 0.116279069767442,
		  "pitch": 91,
		  "start": 32.5581395348837,
		  "velocity": 80
		},
		{
		  "duration": 0.116279069767442,
		  "pitch": 79,
		  "start": 32.5581395348837,
		  "velocity": 80
		},
		{
		  "duration": 0.116279069767442,
		  "pitch": 96,
		  "start": 32.6744186046512,
		  "velocity": 80
		},
		{
		  "duration": 0.116279069767442,
		  "pitch": 84,
		  "start": 32.6744186046512,
		  "velocity": 80
		},
		{
		  "duration": 0.116279069767442,
		  "pitch": 95,
		  "start": 32.7906976744186,
		  "velocity": 80
		},
		{
		  "duration": 0.116279069767442,
		  "pitch": 83,
		  "start": 32.7906976744186,
		  "velocity": 80
		},
		{
		  "duration": 0.116279069767442,
		  "pitch": 86,
		  "start": 32.906976744186,
		  "velocity": 80
		},
		{
		  "duration": 0.116279069767442,
		  "pitch": 74,
		  "start": 32.906976744186,
		  "velocity": 80
		},
		{
		  "duration": 0.116279069767442,
		  "pitch": 91,
		  "start": 33.0232558139535,
		  "velocity": 80
		},
		{
		  "duration": 0.116279069767442,
		  "pitch": 79,
		  "start": 33.0232558139535,
		  "velocity": 80
		},
		{
		  "duration": 0.116279069767442,
		  "pitch": 98,
		  "start": 33.1395348837209,
		  "velocity": 80
		},
		{
		  "duration": 0.116279069767442,
		  "pitch": 86,
		  "start": 33.1395348837209,
		  "velocity": 80
		},
		{
		  "duration": 0.116279069767442,
		  "pitch": 95,
		  "start": 33.2558139534884,
		  "velocity": 80
		},
		{
		  "duration": 0.116279069767442,
		  "pitch": 83,
		  "start": 33.2558139534884,
		  "velocity": 80
		},
		{
		  "duration": 0.116279069767442,
		  "pitch": 91,
		  "start": 33.3720930232558,
		  "velocity": 80
		},
		{
		  "duration": 0.116279069767442,
		  "pitch": 79,
		  "start": 33.3720930232558,
		  "velocity": 80
		},
		{
		  "duration": 1.04651162790698,
		  "pitch": 96,
		  "start": 33.4883720930233,
		  "velocity": 80
		},
		{
		  "duration": 1.04651162790698,
		  "pitch": 84,
		  "start": 33.4883720930233,
		  "velocity": 80
		},
		{
		  "duration": 0.348837209302326,
		  "pitch": 96,
		  "start": 34.5348837209302,
		  "velocity": 80
		},
		{
		  "duration": 0.348837209302326,
		  "pitch": 84,
		  "start": 34.5348837209302,
		  "velocity": 80
		},
		{
		  "duration": 0.697674418604651,
		  "pitch": 96,
		  "start": 34.8837209302326,
		  "velocity": 80
		},
		{
		  "duration": 0.697674418604651,
		  "pitch": 84,
		  "start": 34.8837209302326,
		  "velocity": 80
		},
		{
		  "duration": 0.697674418604651,
		  "pitch": 95,
		  "start": 35.5813953488372,
		  "velocity": 80
		},
		{
		  "duration": 0.697674418604651,
		  "pitch": 83,
		  "start": 35.5813953488372,
		  "velocity": 80
		},
		{
		  "duration": 0.348837209302326,
		  "pitch": 96,
		  "start": 36.2790697674419,
		  "velocity": 80
		},
		{
		  "duration": 0.348837209302326,
		  "pitch": 84,
		  "start": 36.2790697674419,
		  "velocity": 80
		},
		{
		  "duration": 0.116279069767442,
		  "pitch": 81,
		  "start": 39.0697674418605,
		  "velocity": 80
		},
		{
		  "duration": 0.116279069767442,
		  "pitch": 69,
		  "start": 39.0697674418605,
		  "velocity": 80
		},
		{
		  "duration": 0.116279069767442,
		  "pitch": 83,
		  "start": 39.1860465116279,
		  "velocity": 80
		},
		{
		  "duration": 0.116279069767442,
		  "pitch": 71,
		  "start": 39.1860465116279,
		  "velocity": 80
		},
		{
		  "duration": 0.116279069767442,
		  "pitch": 84,
		  "start": 39.3023255813954,
		  "velocity": 80
		},
		{
		  "duration": 0.116279069767442,
		  "pitch": 72,
		  "start": 39.3023255813954,
		  "velocity": 80
		},
		{
		  "duration": 0.116279069767442,
		  "pitch": 86,
		  "start": 39.4186046511628,
		  "velocity": 80
		},
		{
		  "duration": 0.116279069767442,
		  "pitch": 74,
		  "start": 39.4186046511628,
		  "velocity": 80
		},
		{
		  "duration": 0.116279069767442,
		  "pitch": 84,
		  "start": 39.5348837209302,
		  "velocity": 80
		},
		{
		  "duration": 0.116279069767442,
		  "pitch": 72,
		  "start": 39.5348837209302,
		  "velocity": 80
		},
		{
		  "duration": 0.116279069767442,
		  "pitch": 83,
		  "start": 39.6511627906977,
		  "velocity": 80
		},
		{
		  "duration": 0.116279069767442,
		  "pitch": 71,
		  "start": 39.6511627906977,
		  "velocity": 80
		},
		{
		  "duration": 0.116279069767442,
		  "pitch": 84,
		  "start": 39.7674418604651,
		  "velocity": 80
		},
		{
		  "duration": 0.116279069767442,
		  "pitch": 72,
		  "start": 39.7674418604651,
		  "velocity": 80
		},
		{
		  "duration": 0.116279069767442,
		  "pitch": 86,
		  "start": 39.8837209302326,
		  "velocity": 80
		},
		{
		  "duration": 0.116279069767442,
		  "pitch": 74,
		  "start": 39.8837209302326,
		  "velocity": 80
		},
		{
		  "duration": 0.116279069767442,
		  "pitch": 88,
		  "start": 40.0,
		  "velocity": 80
		},
		{
		  "duration": 0.116279069767442,
		  "pitch": 76,
		  "start": 40.0,
		  "velocity": 80
		},
		{
		  "duration": 0.116279069767442,
		  "pitch": 90,
		  "start": 40.1162790697674,
		  "velocity": 80
		},
		{
		  "duration": 0.116279069767442,
		  "pitch": 78,
		  "start": 40.1162790697674,
		  "velocity": 80
		},
		{
		  "duration": 0.116279069767442,
		  "pitch": 88,
		  "start": 40.2325581395349,
		  "velocity": 80
		},
		{
		  "duration": 0.116279069767442,
		  "pitch": 76,
		  "start": 40.2325581395349,
		  "velocity": 80
		},
		{
		  "duration": 0.116279069767442,
		  "pitch": 86,
		  "start": 40.3488372093023,
		  "velocity": 80
		},
		{
		  "duration": 0.116279069767442,
		  "pitch": 74,
		  "start": 40.3488372093023,
		  "velocity": 80
		},
		{
		  "duration": 0.116279069767442,
		  "pitch": 88,
		  "start": 40.4651162790698,
		  "velocity": 80
		},
		{
		  "duration": 0.116279069767442,
		  "pitch": 76,
		  "start": 40.4651162790698,
		  "velocity": 80
		},
		{
		  "duration": 0.116279069767442,
		  "pitch": 86,
		  "start": 40.5813953488372,
		  "velocity": 80
		},
		{
		  "duration": 0.116279069767442,
		  "pitch": 74,
		  "start": 40.5813953488372,
		  "velocity": 80
		},
		{
		  "duration": 0.116279069767442,
		  "pitch": 84,
		  "start": 40.6976744186046,
		  "velocity": 80
		},
		{
		  "duration": 0.116279069767442,
		  "pitch": 72,
		  "start": 40.6976744186046,
		  "velocity": 80
		},
		{
		  "duration": 0.116279069767442,
		  "pitch": 86,
		  "start": 40.8139534883721,
		  "velocity": 80
		},
		{
		  "duration": 0.116279069767442,
		  "pitch": 74,
		  "start": 40.8139534883721,
		  "velocity": 80
		},
		{
		  "duration": 0.116279069767442,
		  "pitch": 84,
		  "start": 40.9302325581395,
		  "velocity": 80
		},
		{
		  "duration": 0.116279069767442,
		  "pitch": 72,
		  "start": 40.9302325581395,
		  "velocity": 80
		},
		{
		  "duration": 0.116279069767442,
		  "pitch": 83,
		  "start": 41.046511627907,
		  "velocity": 80
		},
		{
		  "duration": 0.116279069767442,
		  "pitch": 71,
		  "start": 41.046511627907,
		  "velocity": 80
		},
		{
		  "duration": 0.116279069767442,
		  "pitch": 84,
		  "start": 41.1627906976744,
		  "velocity": 80
		},
		{
		  "duration": 0.116279069767442,
		  "pitch": 72,
		  "start": 41.1627906976744,
		  "velocity": 80
		},
		{
		  "duration": 0.116279069767442,
		  "pitch": 83,
		  "start": 41.2790697674419,
		  "velocity": 80
		},
		{
		  "duration": 0.116279069767442,
		  "pitch": 71,
		  "start": 41.2790697674419,
		  "velocity": 80
		},
		{
		  "duration": 0.116279069767442,
		  "pitch": 81,
		  "start": 41.3953488372093,
		  "velocity": 80
		},
		{
		  "duration": 0.116279069767442,
		  "pitch": 69,
		  "start": 41.3953488372093,
		  "velocity": 80
		},
		{
		  "duration": 0.116279069767442,
		  "pitch": 80,
		  "start": 41.5116279069767,
		  "velocity": 80
		},
		{
		  "duration": 0.116279069767442,
		  "pitch": 68,
		  "start": 41.5116279069767,
		  "velocity": 80
		},
		{
		  "duration": 0.116279069767442,
		  "pitch": 83,
		  "start": 41.6279069767442,
		  "velocity": 80
		},
		{
		  "duration": 0.116279069767442,
		  "pitch": 71,
		  "start": 41.6279069767442,
		  "velocity": 80
		},
		{
		  "duration": 0.116279069767442,
		  "pitch": 86,
		  "start": 41.7441860465116,
		  "velocity": 80
		},
		{
		  "duration": 0.116279069767442,
		  "pitch": 74,
		  "start": 41.7441860465116,
		  "velocity": 80
		},
		{
		  "duration": 0.116279069767442,
		  "pitch": 81,
		  "start": 41.8604651162791,
		  "velocity": 80
		},
		{
		  "duration": 0.116279069767442,
		  "pitch": 69,
		  "start": 41.8604651162791,
		  "velocity": 80
		},
		{
		  "duration": 0.116279069767442,
		  "pitch": 83,
		  "start": 41.9767441860465,
		  "velocity": 80
		},
		{
		  "duration": 0.116279069767442,
		  "pitch": 71,
		  "start": 41.9767441860465,
		  "velocity": 80
		},
		{
		  "duration": 0.116279069767442,
		  "pitch": 84,
		  "start": 42.093023255814,
		  "velocity": 80
		},
		{
		  "duration": 0.116279069767442,
		  "pitch": 72,
		  "start": 42.093023255814,
		  "velocity": 80
		},
		{
		  "duration": 0.116279069767442,
		  "pitch": 86,
		  "start": 42.2093023255814,
		  "velocity": 80
		},
		{
		  "duration": 0.116279069767442,
		  "pitch": 74,
		  "start": 42.2093023255814,
		  "velocity": 80
		},
		{
		  "duration": 0.116279069767442,
		  "pitch": 84,
		  "start": 42.3255813953488,
		  "velocity": 80
		},
		{
		  "duration": 0.116279069767442,
		  "pitch": 72,
		  "start": 42.3255813953488,
		  "velocity": 80
		},
		{
		  "duration": 0.116279069767442,
		  "pitch": 83,
		  "start": 42.4418604651163,
		  "velocity": 80
		},
		{
		  "duration": 0.116279069767442,
		  "pitch": 71,
		  "start": 42.4418604651163,
		  "velocity": 80
		},
		{
		  "duration": 0.116279069767442,
		  "pitch": 84,
		  "start": 42.5581395348837,
		  "velocity": 80
		},
		{
		  "duration": 0.116279069767442,
		  "pitch": 72,
		  "start": 42.5581395348837,
		  "velocity": 80
		},
		{
		  "duration": 0.116279069767442,
		  "pitch": 86,
		  "start": 42.6744186046512,
		  "velocity": 80
		},
		{
		  "duration": 0.116279069767442,
		  "pitch": 74,
		  "start": 42.6744186046512,
		  "velocity": 80
		},
		{
		  "duration": 0.116279069767442,
		  "pitch": 88,
		  "start": 42.7906976744186,
		  "velocity": 80
		},
		{
		  "duration": 0.116279069767442,
		  "pitch": 76,
		  "start": 42.7906976744186,
		  "velocity": 80
		},
		{
		  "duration": 0.116279069767442,
		  "pitch": 90,
		  "start": 42.906976744186,
		  "velocity": 80
		},
		{
		  "duration": 0.116279069767442,
		  "pitch": 78,
		  "start": 42.906976744186,
		  "velocity": 80
		},
		{
		  "duration": 0.116279069767442,
		  "pitch": 88,
		  "start": 43.0232558139535,
		  "velocity": 80
		},
		{
		  "duration": 0.116279069767442,
		  "pitch": 76,
		  "start": 43.0232558139535,
		  "velocity": 80
		},
		{
		  "duration": 0.116279069767442,
		  "pitch": 86,
		  "start": 43.1395348837209,
		  "velocity": 80
		},
		{
		  "duration": 0.116279069767442,
		  "pitch": 74,
		  "start": 43.1395348837209,
		  "velocity": 80
		},
		{
		  "duration": 0.116279069767442,
		  "pitch": 88,
		  "start": 43.2558139534884,
		  "velocity": 80
		},
		{
		  "duration": 0.116279069767442,
		  "pitch": 76,
		  "start": 43.2558139534884,
		  "velocity": 80
		},
		{
		  "duration": 0.116279069767442,
		  "pitch": 84,
		  "start": 43.3720930232558,
		  "velocity": 80
		},
		{
		  "duration": 0.116279069767442,
		  "pitch": 72,
		  "start": 43.3720930232558,
		  "velocity": 80
		},
		{
		  "duration": 0.116279069767442,
		  "pitch": 81,
		  "start": 43.4883720930233,
		  "velocity": 80
		},
		{
		  "duration": 0.116279069767442,
		  "pitch": 69,
		  "start": 43.4883720930233,
		  "velocity": 80
		},
		{
		  "duration": 0.116279069767442,
		  "pitch": 80,
		  "start": 43.6046511627907,
		  "velocity": 80
		},
		{
		  "duration": 0.116279069767442,
		  "pitch": 68,
		  "start": 43.6046511627907,
		  "velocity": 80
		},
		{
		  "duration": 0.116279069767442,
		  "pitch": 83,
		  "start": 43.7209302325581,
		  "velocity": 80
		},
		{
		  "duration": 0.116279069767442,
		  "pitch": 71,
		  "start": 43.7209302325581,
		  "velocity": 80
		},
		{
		  "duration": 0.116279069767442,
		  "pitch": 86,
		  "start": 43.8372093023256,
		  "velocity": 80
		},
		{
		  "duration": 0.116279069767442,
		  "pitch": 74,
		  "start": 43.8372093023256,
		  "velocity": 80
		},
		{
		  "duration": 0.116279069767442,
		  "pitch": 84,
		  "start": 43.953488372093,
		  "velocity": 80
		},
		{
		  "duration": 0.116279069767442,
		  "pitch": 72,
		  "start": 43.953488372093,
		  "velocity": 80
		},
		{
		  "duration": 0.116279069767442,
		  "pitch": 81,
		  "start": 44.0697674418605,
		  "velocity": 80
		},
		{
		  "duration": 0.116279069767442,
		  "pitch": 69,
		  "start": 44.0697674418605,
		  "velocity": 80
		},
		{
		  "duration": 0.116279069767442,
		  "pitch": 80,
		  "start": 44.1860465116279,
		  "velocity": 80
		},
		{
		  "duration": 0.116279069767442,
		  "pitch": 68,
		  "start": 44.1860465116279,
		  "velocity": 80
		},
		{
		  "duration": 0.348837209302326,
		  "pitch": 81,
		  "start": 44.3023255813954,
		  "velocity": 80
		},
		{
		  "duration": 0.348837209302326,
		  "pitch": 69,
		  "start": 44.3023255813954,
		  "velocity": 80
		},
		{
		  "duration": 0.116279069767442,
		  "pitch": 81,
		  "start": 44.6511627906977,
		  "velocity": 80
		},
		{
		  "duration": 0.116279069767442,
		  "pitch": 69,
		  "start": 44.6511627906977,
		  "velocity": 80
		},
		{
		  "duration": 0.116279069767442,
		  "pitch": 83,
		  "start": 44.7674418604651,
		  "velocity": 80
		},
		{
		  "duration": 0.116279069767442,
		  "pitch": 71,
		  "start": 44.7674418604651,
		  "velocity": 80
		},
		{
		  "duration": 0.116279069767442,
		  "pitch": 84,
		  "start": 44.8837209302326,
		  "velocity": 80
		},
		{
		  "duration": 0.116279069767442,
		  "pitch": 72,
		  "start": 44.8837209302326,
		  "velocity": 80
		},
		{
		  "duration": 0.116279069767442,
		  "pitch": 86,
		  "start": 45.0,
		  "velocity": 80
		},
		{
		  "duration": 0.116279069767442,
		  "pitch": 74,
		  "start": 45.0,
		  "velocity": 80
		},
		{
		  "duration": 0.116279069767442,
		  "pitch": 84,
		  "start": 45.1162790697674,
		  "velocity": 80
		},
		{
		  "duration": 0.116279069767442,
		  "pitch": 72,
		  "start": 45.1162790697674,
		  "velocity": 80
		},
		{
		  "duration": 0.116279069767442,
		  "pitch": 83,
		  "start": 45.2325581395349,
		  "velocity": 80
		},
		{
		  "duration": 0.116279069767442,
		  "pitch": 71,
		  "start": 45.2325581395349,
		  "velocity": 80
		},
		{
		  "duration": 0.116279069767442,
		  "pitch": 84,
		  "start": 45.3488372093023,
		  "velocity": 80
		},
		{
		  "duration": 0.116279069767442,
		  "pitch": 72,
		  "start": 45.3488372093023,
		  "velocity": 80
		},
		{
		  "duration": 0.116279069767442,
		  "pitch": 86,
		  "start": 45.4651162790698,
		  "velocity": 80
		},
		{
		  "duration": 0.116279069767442,
		  "pitch": 74,
		  "start": 45.4651162790698,
		  "velocity": 80
		},
		{
		  "duration": 0.116279069767442,
		  "pitch": 88,
		  "start": 45.5813953488372,
		  "velocity": 80
		},
		{
		  "duration": 0.116279069767442,
		  "pitch": 76,
		  "start": 45.5813953488372,
		  "velocity": 80
		},
		{
		  "duration": 0.116279069767442,
		  "pitch": 90,
		  "start": 45.6976744186046,
		  "velocity": 80
		},
		{
		  "duration": 0.116279069767442,
		  "pitch": 78,
		  "start": 45.6976744186046,
		  "velocity": 80
		},
		{
		  "duration": 0.116279069767442,
		  "pitch": 88,
		  "start": 45.8139534883721,
		  "velocity": 80
		},
		{
		  "duration": 0.116279069767442,
		  "pitch": 76,
		  "start": 45.8139534883721,
		  "velocity": 80
		},
		{
		  "duration": 0.116279069767442,
		  "pitch": 86,
		  "start": 45.9302325581395,
		  "velocity": 80
		},
		{
		  "duration": 0.116279069767442,
		  "pitch": 74,
		  "start": 45.9302325581395,
		  "velocity": 80
		},
		{
		  "duration": 0.116279069767442,
		  "pitch": 88,
		  "start": 46.046511627907,
		  "velocity": 80
		},
		{
		  "duration": 0.116279069767442,
		  "pitch": 76,
		  "start": 46.046511627907,
		  "velocity": 80
		},
		{
		  "duration": 0.116279069767442,
		  "pitch": 86,
		  "start": 46.1627906976744,
		  "velocity": 80
		},
		{
		  "duration": 0.116279069767442,
		  "pitch": 74,
		  "start": 46.1627906976744,
		  "velocity": 80
		},
		{
		  "duration": 0.116279069767442,
		  "pitch": 84,
		  "start": 46.2790697674419,
		  "velocity": 80
		},
		{
		  "duration": 0.116279069767442,
		  "pitch": 72,
		  "start": 46.2790697674419,
		  "velocity": 80
		},
		{
		  "duration": 0.116279069767442,
		  "pitch": 86,
		  "start": 46.3953488372093,
		  "velocity": 80
		},
		{
		  "duration": 0.116279069767442,
		  "pitch": 74,
		  "start": 46.3953488372093,
		  "velocity": 80
		},
		{
		  "duration": 0.116279069767442,
		  "pitch": 84,
		  "start": 46.5116279069767,
		  "velocity": 80
		},
		{
		  "duration": 0.116279069767442,
		  "pitch": 72,
		  "start": 46.5116279069767,
		  "velocity": 80
		},
		{
		  "duration": 0.116279069767442,
		  "pitch": 83,
		  "start": 46.6279069767442,
		  "velocity": 80
		},
		{
		  "duration": 0.116279069767442,
		  "pitch": 71,
		  "start": 46.6279069767442,
		  "velocity": 80
		},
		{
		  "duration": 0.116279069767442,
		  "pitch": 84,
		  "start": 46.7441860465116,
		  "velocity": 80
		},
		{
		  "duration": 0.116279069767442,
		  "pitch": 72,
		  "start": 46.7441860465116,
		  "velocity": 80
		},
		{
		  "duration": 0.116279069767442,
		  "pitch": 83,
		  "start": 46.8604651162791,
		  "velocity": 80
		},
		{
		  "duration": 0.116279069767442,
		  "pitch": 71,
		  "start": 46.8604651162791,
		  "velocity": 80
		},
		{
		  "duration": 0.116279069767442,
		  "pitch": 81,
		  "start": 46.9767441860465,
		  "velocity": 80
		},
		{
		  "duration": 0.116279069767442,
		  "pitch": 69,
		  "start": 46.9767441860465,
		  "velocity": 80
		},
		{
		  "duration": 0.116279069767442,
		  "pitch": 80,
		  "start": 47.093023255814,
		  "velocity": 80
		},
		{
		  "duration": 0.116279069767442,
		  "pitch": 68,
		  "start": 47.093023255814,
		  "velocity": 80
		},
		{
		  "duration": 0.116279069767442,
		  "pitch": 83,
		  "start": 47.2093023255814,
		  "velocity": 80
		},
		{
		  "duration": 0.116279069767442,
		  "pitch": 71,
		  "start": 47.2093023255814,
		  "velocity": 80
		},
		{
		  "duration": 0.116279069767442,
		  "pitch": 86,
		  "start": 47.3255813953488,
		  "velocity": 80
		},
		{
		  "duration": 0.116279069767442,
		  "pitch": 74,
		  "start": 47.3255813953488,
		  "velocity": 80
		},
		{
		  "duration": 0.116279069767442,
		  "pitch": 81,
		  "start": 47.4418604651163,
		  "velocity": 80
		},
		{
		  "duration": 0.116279069767442,
		  "pitch": 69,
		  "start": 47.4418604651163,
		  "velocity": 80
		},
		{
		  "duration": 0.116279069767442,
		  "pitch": 83,
		  "start": 47.5581395348837,
		  "velocity": 80
		},
		{
		  "duration": 0.116279069767442,
		  "pitch": 71,
		  "start": 47.5581395348837,
		  "velocity": 80
		},
		{
		  "duration": 0.116279069767442,
		  "pitch": 84,
		  "start": 47.6744186046512,
		  "velocity": 80
		},
		{
		  "duration": 0.116279069767442,
		  "pitch": 72,
		  "start": 47.6744186046512,
		  "velocity": 80
		},
		{
		  "duration": 0.116279069767442,
		  "pitch": 86,
		  "start": 47.7906976744186,
		  "velocity": 80
		},
		{
		  "duration": 0.116279069767442,
		  "pitch": 74,
		  "start": 47.7906976744186,
		  "velocity": 80
		},
		{
		  "duration": 0.116279069767442,
		  "pitch": 84,
		  "start": 47.906976744186,
		  "velocity": 80
		},
		{
		  "duration": 0.116279069767442,
		  "pitch": 72,
		  "start": 47.906976744186,
		  "velocity": 80
		},
		{
		  "duration": 0.116279069767442,
		  "pitch": 83,
		  "start": 48.0232558139535,
		  "velocity": 80
		},
		{
		  "duration": 0.116279069767442,
		  "pitch": 71,
		  "start": 48.0232558139535,
		  "velocity": 80
		},
		{
		  "duration": 0.116279069767442,
		  "pitch": 84,
		  "start": 48.1395348837209,
		  "velocity": 80
		},
		{
		  "duration": 0.116279069767442,
		  "pitch": 72,
		  "start": 48.1395348837209,
		  "velocity": 80
		},
		{
		  "duration": 0.116279069767442,
		  "pitch": 86,
		  "start": 48.2558139534884,
		  "velocity": 80
		},
		{
		  "duration": 0.116279069767442,
		  "pitch": 74,
		  "start": 48.2558139534884,
		  "velocity": 80
		},
		{
		  "duration": 0.116279069767442,
		  "pitch": 88,
		  "start": 48.3720930232558,
		  "velocity": 80
		},
		{
		  "duration": 0.116279069767442,
		  "pitch": 76,
		  "start": 48.3720930232558,
		  "velocity": 80
		},
		{
		  "duration": 0.116279069767442,
		  "pitch": 90,
		  "start": 48.4883720930233,
		  "velocity": 80
		},
		{
		  "duration": 0.116279069767442,
		  "pitch": 78,
		  "start": 48.4883720930233,
		  "velocity": 80
		},
		{
		  "duration": 0.116279069767442,
		  "pitch": 88,
		  "start": 48.6046511627907,
		  "velocity": 80
		},
		{
		  "duration": 0.116279069767442,
		  "pitch": 76,
		  "start": 48.6046511627907,
		  "velocity": 80
		},
		{
		  "duration": 0.116279069767442,
		  "pitch": 86,
		  "start": 48.7209302325581,
		  "velocity": 80
		},
		{
		  "duration": 0.116279069767442,
		  "pitch": 74,
		  "start": 48.7209302325581,
		  "velocity": 80
		},
		{
		  "duration": 0.116279069767442,
		  "pitch": 88,
		  "start": 48.8372093023256,
		  "velocity": 80
		},
		{
		  "duration": 0.116279069767442,
		  "pitch": 76,
		  "start": 48.8372093023256,
		  "velocity": 80
		},
		{
		  "duration": 0.116279069767442,
		  "pitch": 84,
		  "start": 48.953488372093,
		  "velocity": 80
		},
		{
		  "duration": 0.116279069767442,
		  "pitch": 72,
		  "start": 48.953488372093,
		  "velocity": 80
		},
		{
		  "duration": 0.116279069767442,
		  "pitch": 81,
		  "start": 49.0697674418605,
		  "velocity": 80
		},
		{
		  "duration": 0.116279069767442,
		  "pitch": 69,
		  "start": 49.0697674418605,
		  "velocity": 80
		},
		{
		  "duration": 0.116279069767442,
		  "pitch": 80,
		  "start": 49.1860465116279,
		  "velocity": 80
		},
		{
		  "duration": 0.116279069767442,
		  "pitch": 68,
		  "start": 49.1860465116279,
		  "velocity": 80
		},
		{
		  "duration": 0.116279069767442,
		  "pitch": 83,
		  "start": 49.3023255813954,
		  "velocity": 80
		},
		{
		  "duration": 0.116279069767442,
		  "pitch": 71,
		  "start": 49.3023255813954,
		  "velocity": 80
		},
		{
		  "duration": 0.116279069767442,
		  "pitch": 86,
		  "start": 49.4186046511628,
		  "velocity": 80
		},
		{
		  "duration": 0.116279069767442,
		  "pitch": 74,
		  "start": 49.4186046511628,
		  "velocity": 80
		},
		{
		  "duration": 0.116279069767442,
		  "pitch": 84,
		  "start": 49.5348837209302,
		  "velocity": 80
		},
		{
		  "duration": 0.116279069767442,
		  "pitch": 72,
		  "start": 49.5348837209302,
		  "velocity": 80
		},
		{
		  "duration": 0.116279069767442,
		  "pitch": 81,
		  "start": 49.6511627906977,
		  "velocity": 80
		},
		{
		  "duration": 0.116279069767442,
		  "pitch": 69,
		  "start": 49.6511627906977,
		  "velocity": 80
		},
		{
		  "duration": 0.116279069767442,
		  "pitch": 80,
		  "start": 49.7674418604651,
		  "velocity": 80
		},
		{
		  "duration": 0.116279069767442,
		  "pitch": 68,
		  "start": 49.7674418604651,
		  "velocity": 80
		},
		{
		  "duration": 0.348837209302326,
		  "pitch": 81,
		  "start": 49.8837209302326,
		  "velocity": 80
		},
		{
		  "duration": 0.348837209302326,
		  "pitch": 69,
		  "start": 49.8837209302326,
		  "velocity": 80
		},
		{
		  "duration": 0.697674418604651,
		  "pitch": 86,
		  "start": 50.2325581395349,
		  "velocity": 80
		},
		{
		  "duration": 0.697674418604651,
		  "pitch": 74,
		  "start": 50.2325581395349,
		  "velocity": 80
		},
		{
		  "duration": 0.348837209302326,
		  "pitch": 86,
		  "start": 50.9302325581395,
		  "velocity": 80
		},
		{
		  "duration": 0.348837209302326,
		  "pitch": 74,
		  "start": 50.9302325581395,
		  "velocity": 80
		},
		{
		  "duration": 0.348837209302326,
		  "pitch": 86,
		  "start": 51.2790697674419,
		  "velocity": 80
		},
		{
		  "duration": 0.348837209302326,
		  "pitch": 74,
		  "start": 51.2790697674419,
		  "velocity": 80
		},
		{
		  "duration": 1.3953488372093,
		  "pitch": 88,
		  "start": 51.6279069767442,
		  "velocity": 80
		},
		{
		  "duration": 1.3953488372093,
		  "pitch": 76,
		  "start": 51.6279069767442,
		  "velocity": 80
		},
		{
		  "duration": 0.348837209302326,
		  "pitch": 98,
		  "start": 53.0232558139535,
		  "velocity": 80
		},
		{
		  "duration": 0.348837209302326,
		  "pitch": 86,
		  "start": 53.0232558139535,
		  "velocity": 80
		},
		{
		  "duration": 0.348837209302326,
		  "pitch": 98,
		  "start": 53.3720930232558,
		  "velocity": 80
		},
		{
		  "duration": 0.348837209302326,
		  "pitch": 86,
		  "start": 53.3720930232558,
		  "velocity": 80
		},
		{
		  "duration": 0.348837209302326,
		  "pitch": 96,
		  "start": 53.7209302325581,
		  "velocity": 80
		},
		{
		  "duration": 0.348837209302326,
		  "pitch": 84,
		  "start": 53.7209302325581,
		  "velocity": 80
		},
		{
		  "duration": 0.348837209302326,
		  "pitch": 98,
		  "start": 54.0697674418605,
		  "velocity": 80
		},
		{
		  "duration": 0.348837209302326,
		  "pitch": 86,
		  "start": 54.0697674418605,
		  "velocity": 80
		},
		{
		  "duration": 1.3953488372093,
		  "pitch": 100,
		  "start": 54.4186046511628,
		  "velocity": 80
		},
		{
		  "duration": 1.3953488372093,
		  "pitch": 88,
		  "start": 54.4186046511628,
		  "velocity": 80
		},
		{
		  "duration": 0.697674418604651,
		  "pitch": 88,
		  "start": 55.8139534883721,
		  "velocity": 80
		},
		{
		  "duration": 0.697674418604651,
		  "pitch": 76,
		  "start": 55.8139534883721,
		  "velocity": 80
		},
		{
		  "duration": 0.348837209302326,
		  "pitch": 88,
		  "start": 56.5116279069767,
		  "velocity": 80
		},
		{
		  "duration": 0.348837209302326,
		  "pitch": 76,
		  "start": 56.5116279069767,
		  "velocity": 80
		},
		{
		  "duration": 0.348837209302326,
		  "pitch": 88,
		  "start": 56.8604651162791,
		  "velocity": 80
		},
		{
		  "duration": 0.348837209302326,
		  "pitch": 76,
		  "start": 56.8604651162791,
		  "velocity": 80
		},
		{
		  "duration": 1.3953488372093,
		  "pitch": 89,
		  "start": 57.2093023255814,
		  "velocity": 80
		},
		{
		  "duration": 1.3953488372093,
		  "pitch": 77,
		  "start": 57.2093023255814,
		  "velocity": 80
		},
		{
		  "duration": 0.348837209302326,
		  "pitch": 100,
		  "start": 58.6046511627907,
		  "velocity": 80
		},
		{
		  "duration": 0.348837209302326,
		  "pitch": 88,
		  "start": 58.6046511627907,
		  "velocity": 80
		},
		{
		  "duration": 0.348837209302326,
		  "pitch": 100,
		  "start": 58.953488372093,
		  "velocity": 80
		},
		{
		  "duration": 0.348837209302326,
		  "pitch": 88,
		  "start": 58.953488372093,
		  "velocity": 80
		},
		{
		  "duration": 0.348837209302326,
		  "pitch": 98,
		  "start": 59.3023255813954,
		  "velocity": 80
		},
		{
		  "duration": 0.348837209302326,
		  "pitch": 86,
		  "start": 59.3023255813954,
		  "velocity": 80
		},
		{
		  "duration": 0.348837209302326,
		  "pitch": 100,
		  "start": 59.6511627906977,
		  "velocity": 80
		},
		{
		  "duration": 0.348837209302326,
		  "pitch": 88,
		  "start": 59.6511627906977,
		  "velocity": 80
		},
		{
		  "duration": 1.3953488372093,
		  "pitch": 101,
		  "start": 60.0,
		  "velocity": 80
		},
		{
		  "duration": 1.3953488372093,
		  "pitch": 89,
		  "start": 60.0,
		  "velocity": 80
		},
		{
		  "duration": 0.116279069767442,
		  "pitch": 81,
		  "start": 61.3953488372093,
		  "velocity": 80
		},
		{
		  "duration": 0.116279069767442,
		  "pitch": 81,
		  "start": 61.6279069767442,
		  "velocity": 80
		},
		{
		  "duration": 0.348837209302326,
		  "pitch": 79,
		  "start": 61.7441860465116,
		  "velocity": 80
		},
		{
		  "duration": 0.116279069767442,
		  "pitch": 81,
		  "start": 62.093023255814,
		  "velocity": 80
		},
		{
		  "duration": 0.116279069767442,
		  "pitch": 81,
		  "start": 62.3255813953488,
		  "velocity": 80
		},
		{
		  "duration": 0.348837209302326,
		  "pitch": 82,
		  "start": 62.4418604651163,
		  "velocity": 80
		},
		{
		  "duration": 0.116279069767442,
		  "pitch": 81,
		  "start": 62.7906976744186,
		  "velocity": 80
		},
		{
		  "duration": 0.116279069767442,
		  "pitch": 81,
		  "start": 63.0232558139535,
		  "velocity": 80
		},
		{
		  "duration": 0.116279069767442,
		  "pitch": 81,
		  "start": 63.1395348837209,
		  "velocity": 80
		},
		{
		  "duration": 0.116279069767442,
		  "pitch": 81,
		  "start": 63.2558139534884,
		  "velocity": 80
		},
		{
		  "duration": 0.116279069767442,
		  "pitch": 81,
		  "start": 63.3720930232558,
		  "velocity": 80
		},
		{
		  "duration": 0.116279069767442,
		  "pitch": 82,
		  "start": 63.4883720930233,
		  "velocity": 80
		},
		{
		  "duration": 0.116279069767442,
		  "pitch": 82,
		  "start": 63.7209302325581,
		  "velocity": 80
		},
		{
		  "duration": 0.348837209302326,
		  "pitch": 81,
		  "start": 63.8372093023256,
		  "velocity": 80
		},
		{
		  "duration": 0.116279069767442,
		  "pitch": 81,
		  "start": 64.1860465116279,
		  "velocity": 80
		},
		{
		  "duration": 0.697674418604651,
		  "pitch": 81,
		  "start": 64.5348837209302,
		  "velocity": 80
		},
		{
		  "duration": 0.116279069767442,
		  "pitch": 79,
		  "start": 65.2325581395349,
		  "velocity": 80
		},
		{
		  "duration": 0.116279069767442,
		  "pitch": 79,
		  "start": 65.3488372093023,
		  "velocity": 80
		},
		{
		  "duration": 0.116279069767442,
		  "pitch": 79,
		  "start": 65.4651162790698,
		  "velocity": 80
		},
		{
		  "duration": 1.3953488372093,
		  "pitch": 81,
		  "start": 65.5813953488372,
		  "velocity": 80
		},
		{
		  "duration": 0.116279069767442,
		  "pitch": 76,
		  "start": 66.9767441860465,
		  "velocity": 80
		},
		{
		  "duration": 0.116279069767442,
		  "pitch": 76,
		  "start": 67.2093023255814,
		  "velocity": 80
		},
		{
		  "duration": 0.348837209302326,
		  "pitch": 74,
		  "start": 67.3255813953488,
		  "velocity": 80
		},
		{
		  "duration": 0.116279069767442,
		  "pitch": 76,
		  "start": 67.6744186046512,
		  "velocity": 80
		},
		{
		  "duration": 0.116279069767442,
		  "pitch": 76,
		  "start": 67.9069767441861,
		  "velocity": 80
		},
		{
		  "duration": 0.348837209302326,
		  "pitch": 77,
		  "start": 68.0232558139535,
		  "velocity": 80
		},
		{
		  "duration": 0.116279069767442,
		  "pitch": 76,
		  "start": 68.3720930232558,
		  "velocity": 80
		},
		{
		  "duration": 0.116279069767442,
		  "pitch": 76,
		  "start": 68.6046511627907,
		  "velocity": 80
		},
		{
		  "duration": 0.116279069767442,
		  "pitch": 76,
		  "start": 68.7209302325581,
		  "velocity": 80
		},
		{
		  "duration": 0.116279069767442,
		  "pitch": 76,
		  "start": 68.8372093023256,
		  "velocity": 80
		},
		{
		  "duration": 0.116279069767442,
		  "pitch": 76,
		  "start": 68.953488372093,
		  "velocity": 80
		},
		{
		  "duration": 0.116279069767442,
		  "pitch": 77,
		  "start": 69.0697674418605,
		  "velocity": 80
		},
		{
		  "duration": 0.116279069767442,
		  "pitch": 77,
		  "start": 69.3023255813954,
		  "velocity": 80
		},
		{
		  "duration": 0.348837209302326,
		  "pitch": 76,
		  "start": 69.4186046511628,
		  "velocity": 80
		},
		{
		  "duration": 0.116279069767442,
		  "pitch": 76,
		  "start": 69.7674418604651,
		  "velocity": 80
		},
		{
		  "duration": 0.697674418604651,
		  "pitch": 76,
		  "start": 70.1162790697674,
		  "velocity": 80
		},
		{
		  "duration": 0.116279069767442,
		  "pitch": 74,
		  "start": 70.8139534883721,
		  "velocity": 80
		},
		{
		  "duration": 0.116279069767442,
		  "pitch": 74,
		  "start": 70.9302325581395,
		  "velocity": 80
		},
		{
		  "duration": 0.116279069767442,
		  "pitch": 74,
		  "start": 71.046511627907,
		  "velocity": 80
		},
		{
		  "duration": 1.3953488372093,
		  "pitch": 76,
		  "start": 71.1627906976744,
		  "velocity": 80
		},
		{
		  "duration": 0.116279069767442,
		  "pitch": 81,
		  "start": 72.5581395348837,
		  "velocity": 80
		},
		{
		  "duration": 0.116279069767442,
		  "pitch": 81,
		  "start": 72.7906976744186,
		  "velocity": 80
		},
		{
		  "duration": 0.348837209302326,
		  "pitch": 79,
		  "start": 72.9069767441861,
		  "velocity": 80
		},
		{
		  "duration": 0.116279069767442,
		  "pitch": 81,
		  "start": 73.2558139534884,
		  "velocity": 80
		},
		{
		  "duration": 0.116279069767442,
		  "pitch": 81,
		  "start": 73.4883720930233,
		  "velocity": 80
		},
		{
		  "duration": 0.348837209302326,
		  "pitch": 82,
		  "start": 73.6046511627907,
		  "velocity": 80
		},
		{
		  "duration": 0.116279069767442,
		  "pitch": 81,
		  "start": 73.953488372093,
		  "velocity": 80
		},
		{
		  "duration": 0.116279069767442,
		  "pitch": 81,
		  "start": 74.1860465116279,
		  "velocity": 80
		},
		{
		  "duration": 0.116279069767442,
		  "pitch": 81,
		  "start": 74.3023255813954,
		  "velocity": 80
		},
		{
		  "duration": 0.116279069767442,
		  "pitch": 81,
		  "start": 74.4186046511628,
		  "velocity": 80
		},
		{
		  "duration": 0.116279069767442,
		  "pitch": 81,
		  "start": 74.5348837209302,
		  "velocity": 80
		},
		{
		  "duration": 0.116279069767442,
		  "pitch": 82,
		  "start": 74.6511627906977,
		  "velocity": 80
		},
		{
		  "duration": 0.116279069767442,
		  "pitch": 82,
		  "start": 74.8837209302326,
		  "velocity": 80
		},
		{
		  "duration": 0.348837209302326,
		  "pitch": 81,
		  "start": 75.0,
		  "velocity": 80
		},
		{
		  "duration": 0.116279069767442,
		  "pitch": 81,
		  "start": 75.3488372093023,
		  "velocity": 80
		},
		{
		  "duration": 0.697674418604651,
		  "pitch": 81,
		  "start": 75.6976744186046,
		  "velocity": 80
		},
		{
		  "duration": 0.116279069767442,
		  "pitch": 79,
		  "start": 76.3953488372093,
		  "velocity": 80
		},
		{
		  "duration": 0.116279069767442,
		  "pitch": 79,
		  "start": 76.5116279069767,
		  "velocity": 80
		},
		{
		  "duration": 0.116279069767442,
		  "pitch": 79,
		  "start": 76.6279069767442,
		  "velocity": 80
		},
		{
		  "duration": 1.3953488372093,
		  "pitch": 81,
		  "start": 76.7441860465116,
		  "velocity": 80
		},
		{
		  "duration": 0.116279069767442,
		  "pitch": 76,
		  "start": 78.1395348837209,
		  "velocity": 80
		},
		{
		  "duration": 0.116279069767442,
		  "pitch": 76,
		  "start": 78.3720930232558,
		  "velocity": 80
		},
		{
		  "duration": 0.348837209302326,
		  "pitch": 74,
		  "start": 78.4883720930233,
		  "velocity": 80
		},
		{
		  "duration": 0.116279069767442,
		  "pitch": 76,
		  "start": 78.8372093023256,
		  "velocity": 80
		},
		{
		  "duration": 0.116279069767442,
		  "pitch": 76,
		  "start": 79.0697674418605,
		  "velocity": 80
		},
		{
		  "duration": 0.348837209302326,
		  "pitch": 77,
		  "start": 79.1860465116279,
		  "velocity": 80
		},
		{
		  "duration": 0.116279069767442,
		  "pitch": 76,
		  "start": 79.5348837209302,
		  "velocity": 80
		},
		{
		  "duration": 0.116279069767442,
		  "pitch": 76,
		  "start": 79.7674418604651,
		  "velocity": 80
		},
		{
		  "duration": 0.116279069767442,
		  "pitch": 76,
		  "start": 79.8837209302326,
		  "velocity": 80
		},
		{
		  "duration": 0.116279069767442,
		  "pitch": 76,
		  "start": 80.0,
		  "velocity": 80
		},
		{
		  "duration": 0.116279069767442,
		  "pitch": 76,
		  "start": 80.1162790697674,
		  "velocity": 80
		},
		{
		  "duration": 0.116279069767442,
		  "pitch": 77,
		  "start": 80.2325581395349,
		  "velocity": 80
		},
		{
		  "duration": 0.116279069767442,
		  "pitch": 77,
		  "start": 80.4651162790698,
		  "velocity": 80
		},
		{
		  "duration": 0.348837209302326,
		  "pitch": 76,
		  "start": 80.5813953488372,
		  "velocity": 80
		},
		{
		  "duration": 0.116279069767442,
		  "pitch": 76,
		  "start": 80.9302325581395,
		  "velocity": 80
		},
		{
		  "duration": 0.697674418604651,
		  "pitch": 76,
		  "start": 81.2790697674419,
		  "velocity": 80
		},
		{
		  "duration": 0.116279069767442,
		  "pitch": 74,
		  "start": 81.9767441860465,
		  "velocity": 80
		},
		{
		  "duration": 0.116279069767442,
		  "pitch": 74,
		  "start": 82.0930232558139,
		  "velocity": 80
		},
		{
		  "duration": 0.116279069767442,
		  "pitch": 74,
		  "start": 82.2093023255814,
		  "velocity": 80
		},
		{
		  "duration": 1.3953488372093,
		  "pitch": 76,
		  "start": 82.3255813953488,
		  "velocity": 80
		},
		{
		  "duration": 0.116279069767442,
		  "pitch": 81,
		  "start": 83.7209302325581,
		  "velocity": 80
		},
		{
		  "duration": 0.116279069767442,
		  "pitch": 81,
		  "start": 83.953488372093,
		  "velocity": 80
		},
		{
		  "duration": 0.348837209302326,
		  "pitch": 79,
		  "start": 84.0697674418605,
		  "velocity": 80
		},
		{
		  "duration": 0.116279069767442,
		  "pitch": 81,
		  "start": 84.4186046511628,
		  "velocity": 80
		},
		{
		  "duration": 0.116279069767442,
		  "pitch": 81,
		  "start": 84.6511627906977,
		  "velocity": 80
		},
		{
		  "duration": 0.348837209302326,
		  "pitch": 82,
		  "start": 84.7674418604651,
		  "velocity": 80
		},
		{
		  "duration": 0.116279069767442,
		  "pitch": 81,
		  "start": 85.1162790697674,
		  "velocity": 80
		},
		{
		  "duration": 0.116279069767442,
		  "pitch": 81,
		  "start": 85.3488372093023,
		  "velocity": 80
		},
		{
		  "duration": 0.116279069767442,
		  "pitch": 81,
		  "start": 85.4651162790698,
		  "velocity": 80
		},
		{
		  "duration": 0.116279069767442,
		  "pitch": 81,
		  "start": 85.5813953488372,
		  "velocity": 80
		},
		{
		  "duration": 0.116279069767442,
		  "pitch": 81,
		  "start": 85.6976744186046,
		  "velocity": 80
		},
		{
		  "duration": 0.116279069767442,
		  "pitch": 82,
		  "start": 85.8139534883721,
		  "velocity": 80
		},
		{
		  "duration": 0.116279069767442,
		  "pitch": 82,
		  "start": 86.046511627907,
		  "velocity": 80
		},
		{
		  "duration": 0.348837209302326,
		  "pitch": 81,
		  "start": 86.1627906976744,
		  "velocity": 80
		},
		{
		  "duration": 0.116279069767442,
		  "pitch": 81,
		  "start": 86.5116279069767,
		  "velocity": 80
		},
		{
		  "duration": 0.697674418604651,
		  "pitch": 81,
		  "start": 86.8604651162791,
		  "velocity": 80
		},
		{
		  "duration": 0.116279069767442,
		  "pitch": 79,
		  "start": 87.5581395348837,
		  "velocity": 80
		},
		{
		  "duration": 0.116279069767442,
		  "pitch": 79,
		  "start": 87.6744186046512,
		  "velocity": 80
		},
		{
		  "duration": 0.116279069767442,
		  "pitch": 79,
		  "start": 87.7906976744186,
		  "velocity": 80
		},
		{
		  "duration": 1.3953488372093,
		  "pitch": 81,
		  "start": 87.9069767441861,
		  "velocity": 80
		},
		{
		  "duration": 0.116279069767442,
		  "pitch": 76,
		  "start": 89.3023255813954,
		  "velocity": 80
		},
		{
		  "duration": 0.116279069767442,
		  "pitch": 76,
		  "start": 89.5348837209302,
		  "velocity": 80
		},
		{
		  "duration": 0.348837209302326,
		  "pitch": 74,
		  "start": 89.6511627906977,
		  "velocity": 80
		},
		{
		  "duration": 0.116279069767442,
		  "pitch": 76,
		  "start": 90.0,
		  "velocity": 80
		},
		{
		  "duration": 0.116279069767442,
		  "pitch": 76,
		  "start": 90.2325581395349,
		  "velocity": 80
		},
		{
		  "duration": 0.348837209302326,
		  "pitch": 77,
		  "start": 90.3488372093023,
		  "velocity": 80
		},
		{
		  "duration": 0.116279069767442,
		  "pitch": 76,
		  "start": 90.6976744186046,
		  "velocity": 80
		},
		{
		  "duration": 0.116279069767442,
		  "pitch": 76,
		  "start": 90.9302325581395,
		  "velocity": 80
		},
		{
		  "duration": 0.116279069767442,
		  "pitch": 76,
		  "start": 91.046511627907,
		  "velocity": 80
		},
		{
		  "duration": 0.116279069767442,
		  "pitch": 76,
		  "start": 91.1627906976744,
		  "velocity": 80
		},
		{
		  "duration": 0.116279069767442,
		  "pitch": 76,
		  "start": 91.2790697674419,
		  "velocity": 80
		},
		{
		  "duration": 0.116279069767442,
		  "pitch": 77,
		  "start": 91.3953488372093,
		  "velocity": 80
		},
		{
		  "duration": 0.116279069767442,
		  "pitch": 77,
		  "start": 91.6279069767442,
		  "velocity": 80
		},
		{
		  "duration": 0.348837209302326,
		  "pitch": 76,
		  "start": 91.7441860465116,
		  "velocity": 80
		},
		{
		  "duration": 0.697674418604651,
		  "pitch": 76,
		  "start": 92.0930232558139,
		  "velocity": 80
		},
		{
		  "duration": 0.697674418604651,
		  "pitch": 78,
		  "start": 92.7906976744186,
		  "velocity": 80
		},
		{
		  "duration": 0.697674418604651,
		  "pitch": 79,
		  "start": 93.4883720930233,
		  "velocity": 80
		},
		{
		  "duration": 0.697674418604651,
		  "pitch": 80,
		  "start": 94.1860465116279,
		  "velocity": 80
		},
		{
		  "duration": 2.7906976744186,
		  "pitch": 81,
		  "start": 94.8837209302326,
		  "velocity": 80
		},
		{
		  "duration": 0.0436046511627907,
		  "pitch": 43,
		  "start": 105.348837209302,
		  "velocity": 80
		},
		{
		  "duration": 0.0436046511627907,
		  "pitch": 31,
		  "start": 105.348837209302,
		  "velocity": 80
		},
		{
		  "duration": 0.0436046511627907,
		  "pitch": 45,
		  "start": 105.370639534884,
		  "velocity": 80
		},
		{
		  "duration": 0.0436046511627907,
		  "pitch": 33,
		  "start": 105.370639534884,
		  "velocity": 80
		},
		{
		  "duration": 0.0436046511627907,
		  "pitch": 47,
		  "start": 105.392441860465,
		  "velocity": 80
		},
		{
		  "duration": 0.0436046511627907,
		  "pitch": 35,
		  "start": 105.392441860465,
		  "velocity": 80
		},
		{
		  "duration": 0.0436046511627907,
		  "pitch": 48,
		  "start": 105.414244186047,
		  "velocity": 80
		},
		{
		  "duration": 0.0436046511627907,
		  "pitch": 36,
		  "start": 105.414244186047,
		  "velocity": 80
		},
		{
		  "duration": 0.0436046511627907,
		  "pitch": 50,
		  "start": 105.436046511628,
		  "velocity": 80
		},
		{
		  "duration": 0.0436046511627907,
		  "pitch": 38,
		  "start": 105.436046511628,
		  "velocity": 80
		},
		{
		  "duration": 0.0436046511627907,
		  "pitch": 52,
		  "start": 105.457848837209,
		  "velocity": 80
		},
		{
		  "duration": 0.0436046511627907,
		  "pitch": 40,
		  "start": 105.457848837209,
		  "velocity": 80
		},
		{
		  "duration": 0.0436046511627907,
		  "pitch": 53,
		  "start": 105.479651162791,
		  "velocity": 80
		},
		{
		  "duration": 0.0436046511627907,
		  "pitch": 41,
		  "start": 105.479651162791,
		  "velocity": 80
		},
		{
		  "duration": 0.0436046511627907,
		  "pitch": 55,
		  "start": 105.501453488372,
		  "velocity": 80
		},
		{
		  "duration": 0.0436046511627907,
		  "pitch": 43,
		  "start": 105.501453488372,
		  "velocity": 80
		},
		{
		  "duration": 0.0436046511627907,
		  "pitch": 57,
		  "start": 105.523255813953,
		  "velocity": 80
		},
		{
		  "duration": 0.0436046511627907,
		  "pitch": 45,
		  "start": 105.523255813953,
		  "velocity": 80
		},
		{
		  "duration": 0.0436046511627907,
		  "pitch": 59,
		  "start": 105.545058139535,
		  "velocity": 80
		},
		{
		  "duration": 0.0436046511627907,
		  "pitch": 47,
		  "start": 105.545058139535,
		  "velocity": 80
		},
		{
		  "duration": 0.0436046511627907,
		  "pitch": 60,
		  "start": 105.566860465116,
		  "velocity": 80
		},
		{
		  "duration": 0.0436046511627907,
		  "pitch": 48,
		  "start": 105.566860465116,
		  "velocity": 80
		},
		{
		  "duration": 0.0436046511627907,
		  "pitch": 62,
		  "start": 105.588662790698,
		  "velocity": 80
		},
		{
		  "duration": 0.0436046511627907,
		  "pitch": 50,
		  "start": 105.588662790698,
		  "velocity": 80
		},
		{
		  "duration": 0.0436046511627907,
		  "pitch": 64,
		  "start": 105.610465116279,
		  "velocity": 80
		},
		{
		  "duration": 0.0436046511627907,
		  "pitch": 52,
		  "start": 105.610465116279,
		  "velocity": 80
		},
		{
		  "duration": 0.0436046511627907,
		  "pitch": 65,
		  "start": 105.63226744186,
		  "velocity": 80
		},
		{
		  "duration": 0.0436046511627907,
		  "pitch": 53,
		  "start": 105.63226744186,
		  "velocity": 80
		},
		{
		  "duration": 0.0436046511627907,
		  "pitch": 67,
		  "start": 105.654069767442,
		  "velocity": 80
		},
		{
		  "duration": 0.0436046511627907,
		  "pitch": 55,
		  "start": 105.654069767442,
		  "velocity": 80
		},
		{
		  "duration": 0.0436046511627907,
		  "pitch": 69,
		  "start": 105.675872093023,
		  "velocity": 80
		},
		{
		  "duration": 0.0436046511627907,
		  "pitch": 57,
		  "start": 105.675872093023,
		  "velocity": 80
		},
		{
		  "duration": 0.0436046511627907,
		  "pitch": 71,
		  "start": 105.697674418605,
		  "velocity": 80
		},
		{
		  "duration": 0.0436046511627907,
		  "pitch": 59,
		  "start": 105.697674418605,
		  "velocity": 80
		},
		{
		  "duration": 0.0436046511627907,
		  "pitch": 72,
		  "start": 105.719476744186,
		  "velocity": 80
		},
		{
		  "duration": 0.0436046511627907,
		  "pitch": 60,
		  "start": 105.719476744186,
		  "velocity": 80
		},
		{
		  "duration": 0.0436046511627907,
		  "pitch": 74,
		  "start": 105.741279069767,
		  "velocity": 80
		},
		{
		  "duration": 0.0436046511627907,
		  "pitch": 62,
		  "start": 105.741279069767,
		  "velocity": 80
		},
		{
		  "duration": 0.0436046511627907,
		  "pitch": 76,
		  "start": 105.763081395349,
		  "velocity": 80
		},
		{
		  "duration": 0.0436046511627907,
		  "pitch": 64,
		  "start": 105.763081395349,
		  "velocity": 80
		},
		{
		  "duration": 0.0436046511627907,
		  "pitch": 77,
		  "start": 105.78488372093,
		  "velocity": 80
		},
		{
		  "duration": 0.0436046511627907,
		  "pitch": 65,
		  "start": 105.78488372093,
		  "velocity": 80
		},
		{
		  "duration": 0.0436046511627907,
		  "pitch": 79,
		  "start": 105.806686046512,
		  "velocity": 80
		},
		{
		  "duration": 0.0436046511627907,
		  "pitch": 67,
		  "start": 105.806686046512,
		  "velocity": 80
		},
		{
		  "duration": 0.0436046511627907,
		  "pitch": 81,
		  "start": 105.828488372093,
		  "velocity": 80
		},
		{
		  "duration": 0.0436046511627907,
		  "pitch": 69,
		  "start": 105.828488372093,
		  "velocity": 80
		},
		{
		  "duration": 0.0436046511627907,
		  "pitch": 83,
		  "start": 105.850290697674,
		  "velocity": 80
		},
		{
		  "duration": 0.0436046511627907,
		  "pitch": 71,
		  "start": 105.850290697674,
		  "velocity": 80
		},
		{
		  "duration": 0.0436046511627907,
		  "pitch": 84,
		  "start": 105.872093023256,
		  "velocity": 80
		},
		{
		  "duration": 0.0436046511627907,
		  "pitch": 72,
		  "start": 105.872093023256,
		  "velocity": 80
		},
		{
		  "duration": 0.0436046511627907,
		  "pitch": 86,
		  "start": 105.893895348837,
		  "velocity": 80
		},
		{
		  "duration": 0.0436046511627907,
		  "pitch": 74,
		  "start": 105.893895348837,
		  "velocity": 80
		},
		{
		  "duration": 0.0436046511627907,
		  "pitch": 88,
		  "start": 105.915697674419,
		  "velocity": 80
		},
		{
		  "duration": 0.0436046511627907,
		  "pitch": 76,
		  "start": 105.915697674419,
		  "velocity": 80
		},
		{
		  "duration": 0.0436046511627907,
		  "pitch": 89,
		  "start": 105.9375,
		  "velocity": 80
		},
		{
		  "duration": 0.0436046511627907,
		  "pitch": 77,
		  "start": 105.9375,
		  "velocity": 80
		},
		{
		  "duration": 0.0436046511627907,
		  "pitch": 91,
		  "start": 105.959302325581,
		  "velocity": 80
		},
		{
		  "duration": 0.0436046511627907,
		  "pitch": 79,
		  "start": 105.959302325581,
		  "velocity": 80
		},
		{
		  "duration": 0.0436046511627907,
		  "pitch": 93,
		  "start": 105.981104651163,
		  "velocity": 80
		},
		{
		  "duration": 0.0436046511627907,
		  "pitch": 81,
		  "start": 105.981104651163,
		  "velocity": 80
		},
		{
		  "duration": 0.0218023255813953,
		  "pitch": 96,
		  "start": 106.024709302326,
		  "velocity": 80
		},
		{
		  "duration": 0.0218023255813953,
		  "pitch": 84,
		  "start": 106.024709302326,
		  "velocity": 80
		},
		{
		  "duration": 0.0436046511627907,
		  "pitch": 95,
		  "start": 106.002906976744,
		  "velocity": 80
		},
		{
		  "duration": 0.0436046511627907,
		  "pitch": 83,
		  "start": 106.002906976744,
		  "velocity": 80
		},
		{
		  "duration": 2.09302325581395,
		  "pitch": 81,
		  "start": 106.046511627907,
		  "velocity": 80
		},
		{
		  "duration": 2.09302325581395,
		  "pitch": 93,
		  "start": 106.046511627907,
		  "velocity": 80
		},
		{
		  "duration": 0.232558139534884,
		  "pitch": 81,
		  "start": 108.139534883721,
		  "velocity": 80
		},
		{
		  "duration": 0.232558139534884,
		  "pitch": 93,
		  "start": 108.139534883721,
		  "velocity": 80
		},
		{
		  "duration": 0.232558139534884,
		  "pitch": 81,
		  "start": 108.372093023256,
		  "velocity": 80
		},
		{
		  "duration": 0.232558139534884,
		  "pitch": 93,
		  "start": 108.372093023256,
		  "velocity": 80
		},
		{
		  "duration": 0.232558139534884,
		  "pitch": 81,
		  "start": 108.604651162791,
		  "velocity": 80
		},
		{
		  "duration": 0.232558139534884,
		  "pitch": 93,
		  "start": 108.604651162791,
		  "velocity": 80
		},
		{
		  "duration": 2.09302325581395,
		  "pitch": 81,
		  "start": 108.837209302326,
		  "velocity": 80
		},
		{
		  "duration": 2.09302325581395,
		  "pitch": 93,
		  "start": 108.837209302326,
		  "velocity": 80
		},
		{
		  "duration": 0.232558139534884,
		  "pitch": 81,
		  "start": 110.93023255814,
		  "velocity": 80
		},
		{
		  "duration": 0.232558139534884,
		  "pitch": 93,
		  "start": 110.93023255814,
		  "velocity": 80
		},
		{
		  "duration": 0.232558139534884,
		  "pitch": 81,
		  "start": 111.162790697674,
		  "velocity": 80
		},
		{
		  "duration": 0.232558139534884,
		  "pitch": 93,
		  "start": 111.162790697674,
		  "velocity": 80
		},
		{
		  "duration": 0.232558139534884,
		  "pitch": 81,
		  "start": 111.395348837209,
		  "velocity": 80
		},
		{
		  "duration": 0.232558139534884,
		  "pitch": 93,
		  "start": 111.395348837209,
		  "velocity": 80
		},
		{
		  "duration": 2.09302325581395,
		  "pitch": 79,
		  "start": 111.627906976744,
		  "velocity": 80
		},
		{
		  "duration": 2.09302325581395,
		  "pitch": 91,
		  "start": 111.627906976744,
		  "velocity": 80
		},
		{
		  "duration": 0.232558139534884,
		  "pitch": 81,
		  "start": 113.720930232558,
		  "velocity": 80
		},
		{
		  "duration": 0.232558139534884,
		  "pitch": 93,
		  "start": 113.720930232558,
		  "velocity": 80
		},
		{
		  "duration": 0.232558139534884,
		  "pitch": 81,
		  "start": 113.953488372093,
		  "velocity": 80
		},
		{
		  "duration": 0.232558139534884,
		  "pitch": 93,
		  "start": 113.953488372093,
		  "velocity": 80
		},
		{
		  "duration": 0.232558139534884,
		  "pitch": 81,
		  "start": 114.186046511628,
		  "velocity": 80
		},
		{
		  "duration": 0.232558139534884,
		  "pitch": 93,
		  "start": 114.186046511628,
		  "velocity": 80
		},
		{
		  "duration": 2.09302325581395,
		  "pitch": 79,
		  "start": 114.418604651163,
		  "velocity": 80
		},
		{
		  "duration": 2.09302325581395,
		  "pitch": 91,
		  "start": 114.418604651163,
		  "velocity": 80
		},
		{
		  "duration": 0.232558139534884,
		  "pitch": 84,
		  "start": 116.511627906977,
		  "velocity": 80
		},
		{
		  "duration": 0.232558139534884,
		  "pitch": 96,
		  "start": 116.511627906977,
		  "velocity": 80
		},
		{
		  "duration": 0.232558139534884,
		  "pitch": 84,
		  "start": 116.744186046512,
		  "velocity": 80
		},
		{
		  "duration": 0.232558139534884,
		  "pitch": 96,
		  "start": 116.744186046512,
		  "velocity": 80
		},
		{
		  "duration": 0.232558139534884,
		  "pitch": 84,
		  "start": 116.976744186047,
		  "velocity": 80
		},
		{
		  "duration": 0.232558139534884,
		  "pitch": 96,
		  "start": 116.976744186047,
		  "velocity": 80
		},
		{
		  "duration": 0.232558139534884,
		  "pitch": 93,
		  "start": 117.209302325581,
		  "velocity": 80
		},
		{
		  "duration": 0.232558139534884,
		  "pitch": 81,
		  "start": 117.209302325581,
		  "velocity": 80
		},
		{
		  "duration": 0.116279069767442,
		  "pitch": 88,
		  "start": 117.441860465116,
		  "velocity": 80
		},
		{
		  "duration": 0.116279069767442,
		  "pitch": 76,
		  "start": 117.441860465116,
		  "velocity": 80
		},
		{
		  "duration": 0.116279069767442,
		  "pitch": 81,
		  "start": 117.558139534884,
		  "velocity": 80
		},
		{
		  "duration": 0.116279069767442,
		  "pitch": 69,
		  "start": 117.558139534884,
		  "velocity": 80
		},
		{
		  "duration": 0.116279069767442,
		  "pitch": 88,
		  "start": 117.674418604651,
		  "velocity": 80
		},
		{
		  "duration": 0.116279069767442,
		  "pitch": 76,
		  "start": 117.674418604651,
		  "velocity": 80
		},
		{
		  "duration": 0.116279069767442,
		  "pitch": 93,
		  "start": 117.790697674419,
		  "velocity": 80
		},
		{
		  "duration": 0.116279069767442,
		  "pitch": 81,
		  "start": 117.790697674419,
		  "velocity": 80
		},
		{
		  "duration": 0.116279069767442,
		  "pitch": 91,
		  "start": 117.906976744186,
		  "velocity": 80
		},
		{
		  "duration": 0.116279069767442,
		  "pitch": 79,
		  "start": 117.906976744186,
		  "velocity": 80
		},
		{
		  "duration": 0.116279069767442,
		  "pitch": 86,
		  "start": 118.023255813953,
		  "velocity": 80
		},
		{
		  "duration": 0.116279069767442,
		  "pitch": 74,
		  "start": 118.023255813953,
		  "velocity": 80
		},
		{
		  "duration": 0.116279069767442,
		  "pitch": 88,
		  "start": 118.139534883721,
		  "velocity": 80
		},
		{
		  "duration": 0.116279069767442,
		  "pitch": 76,
		  "start": 118.139534883721,
		  "velocity": 80
		},
		{
		  "duration": 0.116279069767442,
		  "pitch": 95,
		  "start": 118.255813953488,
		  "velocity": 80
		},
		{
		  "duration": 0.116279069767442,
		  "pitch": 83,
		  "start": 118.255813953488,
		  "velocity": 80
		},
		{
		  "duration": 0.116279069767442,
		  "pitch": 91,
		  "start": 118.372093023256,
		  "velocity": 80
		},
		{
		  "duration": 0.116279069767442,
		  "pitch": 79,
		  "start": 118.372093023256,
		  "velocity": 80
		},
		{
		  "duration": 0.116279069767442,
		  "pitch": 88,
		  "start": 118.488372093023,
		  "velocity": 80
		},
		{
		  "duration": 0.116279069767442,
		  "pitch": 76,
		  "start": 118.488372093023,
		  "velocity": 80
		},
		{
		  "duration": 0.232558139534884,
		  "pitch": 96,
		  "start": 118.604651162791,
		  "velocity": 80
		},
		{
		  "duration": 0.232558139534884,
		  "pitch": 84,
		  "start": 118.604651162791,
		  "velocity": 80
		},
		{
		  "duration": 0.116279069767442,
		  "pitch": 91,
		  "start": 118.837209302326,
		  "velocity": 80
		},
		{
		  "duration": 0.116279069767442,
		  "pitch": 79,
		  "start": 118.837209302326,
		  "velocity": 80
		},
		{
		  "duration": 0.116279069767442,
		  "pitch": 88,
		  "start": 118.953488372093,
		  "velocity": 80
		},
		{
		  "duration": 0.116279069767442,
		  "pitch": 76,
		  "start": 118.953488372093,
		  "velocity": 80
		},
		{
		  "duration": 0.116279069767442,
		  "pitch": 91,
		  "start": 119.06976744186,
		  "velocity": 80
		},
		{
		  "duration": 0.116279069767442,
		  "pitch": 79,
		  "start": 119.06976744186,
		  "velocity": 80
		},
		{
		  "duration": 0.116279069767442,
		  "pitch": 96,
		  "start": 119.186046511628,
		  "velocity": 80
		},
		{
		  "duration": 0.116279069767442,
		  "pitch": 84,
		  "start": 119.186046511628,
		  "velocity": 80
		},
		{
		  "duration": 0.116279069767442,
		  "pitch": 95,
		  "start": 119.302325581395,
		  "velocity": 80
		},
		{
		  "duration": 0.116279069767442,
		  "pitch": 83,
		  "start": 119.302325581395,
		  "velocity": 80
		},
		{
		  "duration": 0.116279069767442,
		  "pitch": 86,
		  "start": 119.418604651163,
		  "velocity": 80
		},
		{
		  "duration": 0.116279069767442,
		  "pitch": 74,
		  "start": 119.418604651163,
		  "velocity": 80
		},
		{
		  "duration": 0.116279069767442,
		  "pitch": 91,
		  "start": 119.53488372093,
		  "velocity": 80
		},
		{
		  "duration": 0.116279069767442,
		  "pitch": 79,
		  "start": 119.53488372093,
		  "velocity": 80
		},
		{
		  "duration": 0.116279069767442,
		  "pitch": 98,
		  "start": 119.651162790698,
		  "velocity": 80
		},
		{
		  "duration": 0.116279069767442,
		  "pitch": 86,
		  "start": 119.651162790698,
		  "velocity": 80
		},
		{
		  "duration": 0.116279069767442,
		  "pitch": 95,
		  "start": 119.767441860465,
		  "velocity": 80
		},
		{
		  "duration": 0.116279069767442,
		  "pitch": 83,
		  "start": 119.767441860465,
		  "velocity": 80
		},
		{
		  "duration": 0.116279069767442,
		  "pitch": 91,
		  "start": 119.883720930233,
		  "velocity": 80
		},
		{
		  "duration": 0.116279069767442,
		  "pitch": 79,
		  "start": 119.883720930233,
		  "velocity": 80
		},
		{
		  "duration": 1.04651162790698,
		  "pitch": 96,
		  "start": 120.0,
		  "velocity": 80
		},
		{
		  "duration": 1.04651162790698,
		  "pitch": 84,
		  "start": 120.0,
		  "velocity": 80
		},
		{
		  "duration": 0.348837209302326,
		  "pitch": 96,
		  "start": 121.046511627907,
		  "velocity": 80
		},
		{
		  "duration": 0.348837209302326,
		  "pitch": 84,
		  "start": 121.046511627907,
		  "velocity": 80
		},
		{
		  "duration": 0.697674418604651,
		  "pitch": 96,
		  "start": 121.395348837209,
		  "velocity": 80
		},
		{
		  "duration": 0.697674418604651,
		  "pitch": 84,
		  "start": 121.395348837209,
		  "velocity": 80
		},
		{
		  "duration": 0.697674418604651,
		  "pitch": 95,
		  "start": 122.093023255814,
		  "velocity": 80
		},
		{
		  "duration": 0.697674418604651,
		  "pitch": 83,
		  "start": 122.093023255814,
		  "velocity": 80
		},
		{
		  "duration": 0.348837209302326,
		  "pitch": 96,
		  "start": 122.790697674419,
		  "velocity": 80
		},
		{
		  "duration": 0.348837209302326,
		  "pitch": 84,
		  "start": 122.790697674419,
		  "velocity": 80
		},
		{
		  "duration": 0.232558139534884,
		  "pitch": 93,
		  "start": 125.581395348837,
		  "velocity": 80
		},
		{
		  "duration": 0.232558139534884,
		  "pitch": 81,
		  "start": 125.581395348837,
		  "velocity": 80
		},
		{
		  "duration": 0.116279069767442,
		  "pitch": 88,
		  "start": 125.813953488372,
		  "velocity": 80
		},
		{
		  "duration": 0.116279069767442,
		  "pitch": 76,
		  "start": 125.813953488372,
		  "velocity": 80
		},
		{
		  "duration": 0.116279069767442,
		  "pitch": 81,
		  "start": 125.93023255814,
		  "velocity": 80
		},
		{
		  "duration": 0.116279069767442,
		  "pitch": 69,
		  "start": 125.93023255814,
		  "velocity": 80
		},
		{
		  "duration": 0.116279069767442,
		  "pitch": 88,
		  "start": 126.046511627907,
		  "velocity": 80
		},
		{
		  "duration": 0.116279069767442,
		  "pitch": 76,
		  "start": 126.046511627907,
		  "velocity": 80
		},
		{
		  "duration": 0.116279069767442,
		  "pitch": 93,
		  "start": 126.162790697674,
		  "velocity": 80
		},
		{
		  "duration": 0.116279069767442,
		  "pitch": 81,
		  "start": 126.162790697674,
		  "velocity": 80
		},
		{
		  "duration": 0.116279069767442,
		  "pitch": 91,
		  "start": 126.279069767442,
		  "velocity": 80
		},
		{
		  "duration": 0.116279069767442,
		  "pitch": 79,
		  "start": 126.279069767442,
		  "velocity": 80
		},
		{
		  "duration": 0.116279069767442,
		  "pitch": 86,
		  "start": 126.395348837209,
		  "velocity": 80
		},
		{
		  "duration": 0.116279069767442,
		  "pitch": 74,
		  "start": 126.395348837209,
		  "velocity": 80
		},
		{
		  "duration": 0.116279069767442,
		  "pitch": 88,
		  "start": 126.511627906977,
		  "velocity": 80
		},
		{
		  "duration": 0.116279069767442,
		  "pitch": 76,
		  "start": 126.511627906977,
		  "velocity": 80
		},
		{
		  "duration": 0.116279069767442,
		  "pitch": 95,
		  "start": 126.627906976744,
		  "velocity": 80
		},
		{
		  "duration": 0.116279069767442,
		  "pitch": 83,
		  "start": 126.627906976744,
		  "velocity": 80
		},
		{
		  "duration": 0.116279069767442,
		  "pitch": 91,
		  "start": 126.744186046512,
		  "velocity": 80
		},
		{
		  "duration": 0.116279069767442,
		  "pitch": 79,
		  "start": 126.744186046512,
		  "velocity": 80
		},
		{
		  "duration": 0.116279069767442,
		  "pitch": 88,
		  "start": 126.860465116279,
		  "velocity": 80
		},
		{
		  "duration": 0.116279069767442,
		  "pitch": 76,
		  "start": 126.860465116279,
		  "velocity": 80
		},
		{
		  "duration": 0.232558139534884,
		  "pitch": 96,
		  "start": 126.976744186047,
		  "velocity": 80
		},
		{
		  "duration": 0.232558139534884,
		  "pitch": 84,
		  "start": 126.976744186047,
		  "velocity": 80
		},
		{
		  "duration": 0.116279069767442,
		  "pitch": 91,
		  "start": 127.209302325581,
		  "velocity": 80
		},
		{
		  "duration": 0.116279069767442,
		  "pitch": 79,
		  "start": 127.209302325581,
		  "velocity": 80
		},
		{
		  "duration": 0.116279069767442,
		  "pitch": 88,
		  "start": 127.325581395349,
		  "velocity": 80
		},
		{
		  "duration": 0.116279069767442,
		  "pitch": 76,
		  "start": 127.325581395349,
		  "velocity": 80
		},
		{
		  "duration": 0.116279069767442,
		  "pitch": 91,
		  "start": 127.441860465116,
		  "velocity": 80
		},
		{
		  "duration": 0.116279069767442,
		  "pitch": 79,
		  "start": 127.441860465116,
		  "velocity": 80
		},
		{
		  "duration": 0.116279069767442,
		  "pitch": 96,
		  "start": 127.558139534884,
		  "velocity": 80
		},
		{
		  "duration": 0.116279069767442,
		  "pitch": 84,
		  "start": 127.558139534884,
		  "velocity": 80
		},
		{
		  "duration": 0.116279069767442,
		  "pitch": 95,
		  "start": 127.674418604651,
		  "velocity": 80
		},
		{
		  "duration": 0.116279069767442,
		  "pitch": 83,
		  "start": 127.674418604651,
		  "velocity": 80
		},
		{
		  "duration": 0.116279069767442,
		  "pitch": 86,
		  "start": 127.790697674419,
		  "velocity": 80
		},
		{
		  "duration": 0.116279069767442,
		  "pitch": 74,
		  "start": 127.790697674419,
		  "velocity": 80
		},
		{
		  "duration": 0.116279069767442,
		  "pitch": 91,
		  "start": 127.906976744186,
		  "velocity": 80
		},
		{
		  "duration": 0.116279069767442,
		  "pitch": 79,
		  "start": 127.906976744186,
		  "velocity": 80
		},
		{
		  "duration": 0.116279069767442,
		  "pitch": 98,
		  "start": 128.023255813953,
		  "velocity": 80
		},
		{
		  "duration": 0.116279069767442,
		  "pitch": 86,
		  "start": 128.023255813953,
		  "velocity": 80
		},
		{
		  "duration": 0.116279069767442,
		  "pitch": 95,
		  "start": 128.139534883721,
		  "velocity": 80
		},
		{
		  "duration": 0.116279069767442,
		  "pitch": 83,
		  "start": 128.139534883721,
		  "velocity": 80
		},
		{
		  "duration": 0.116279069767442,
		  "pitch": 91,
		  "start": 128.255813953488,
		  "velocity": 80
		},
		{
		  "duration": 0.116279069767442,
		  "pitch": 79,
		  "start": 128.255813953488,
		  "velocity": 80
		},
		{
		  "duration": 1.04651162790698,
		  "pitch": 96,
		  "start": 128.372093023256,
		  "velocity": 80
		},
		{
		  "duration": 1.04651162790698,
		  "pitch": 84,
		  "start": 128.372093023256,
		  "velocity": 80
		},
		{
		  "duration": 0.348837209302326,
		  "pitch": 96,
		  "start": 129.418604651163,
		  "velocity": 80
		},
		{
		  "duration": 0.348837209302326,
		  "pitch": 84,
		  "start": 129.418604651163,
		  "velocity": 80
		},
		{
		  "duration": 0.697674418604651,
		  "pitch": 96,
		  "start": 129.767441860465,
		  "velocity": 80
		},
		{
		  "duration": 0.697674418604651,
		  "pitch": 84,
		  "start": 129.767441860465,
		  "velocity": 80
		},
		{
		  "duration": 0.697674418604651,
		  "pitch": 95,
		  "start": 130.46511627907,
		  "velocity": 80
		},
		{
		  "duration": 0.697674418604651,
		  "pitch": 83,
		  "start": 130.46511627907,
		  "velocity": 80
		},
		{
		  "duration": 0.348837209302326,
		  "pitch": 96,
		  "start": 131.162790697674,
		  "velocity": 80
		},
		{
		  "duration": 0.348837209302326,
		  "pitch": 84,
		  "start": 131.162790697674,
		  "velocity": 80
		},
		{
		  "duration": 0.116279069767442,
		  "pitch": 81,
		  "start": 133.953488372093,
		  "velocity": 80
		},
		{
		  "duration": 0.116279069767442,
		  "pitch": 69,
		  "start": 133.953488372093,
		  "velocity": 80
		},
		{
		  "duration": 0.116279069767442,
		  "pitch": 83,
		  "start": 134.06976744186,
		  "velocity": 80
		},
		{
		  "duration": 0.116279069767442,
		  "pitch": 71,
		  "start": 134.06976744186,
		  "velocity": 80
		},
		{
		  "duration": 0.116279069767442,
		  "pitch": 84,
		  "start": 134.186046511628,
		  "velocity": 80
		},
		{
		  "duration": 0.116279069767442,
		  "pitch": 72,
		  "start": 134.186046511628,
		  "velocity": 80
		},
		{
		  "duration": 0.116279069767442,
		  "pitch": 86,
		  "start": 134.302325581395,
		  "velocity": 80
		},
		{
		  "duration": 0.116279069767442,
		  "pitch": 74,
		  "start": 134.302325581395,
		  "velocity": 80
		},
		{
		  "duration": 0.116279069767442,
		  "pitch": 84,
		  "start": 134.418604651163,
		  "velocity": 80
		},
		{
		  "duration": 0.116279069767442,
		  "pitch": 72,
		  "start": 134.418604651163,
		  "velocity": 80
		},
		{
		  "duration": 0.116279069767442,
		  "pitch": 83,
		  "start": 134.53488372093,
		  "velocity": 80
		},
		{
		  "duration": 0.116279069767442,
		  "pitch": 71,
		  "start": 134.53488372093,
		  "velocity": 80
		},
		{
		  "duration": 0.116279069767442,
		  "pitch": 84,
		  "start": 134.651162790698,
		  "velocity": 80
		},
		{
		  "duration": 0.116279069767442,
		  "pitch": 72,
		  "start": 134.651162790698,
		  "velocity": 80
		},
		{
		  "duration": 0.116279069767442,
		  "pitch": 86,
		  "start": 134.767441860465,
		  "velocity": 80
		},
		{
		  "duration": 0.116279069767442,
		  "pitch": 74,
		  "start": 134.767441860465,
		  "velocity": 80
		},
		{
		  "duration": 0.116279069767442,
		  "pitch": 88,
		  "start": 134.883720930233,
		  "velocity": 80
		},
		{
		  "duration": 0.116279069767442,
		  "pitch": 76,
		  "start": 134.883720930233,
		  "velocity": 80
		},
		{
		  "duration": 0.116279069767442,
		  "pitch": 90,
		  "start": 135.0,
		  "velocity": 80
		},
		{
		  "duration": 0.116279069767442,
		  "pitch": 78,
		  "start": 135.0,
		  "velocity": 80
		},
		{
		  "duration": 0.116279069767442,
		  "pitch": 88,
		  "start": 135.116279069767,
		  "velocity": 80
		},
		{
		  "duration": 0.116279069767442,
		  "pitch": 76,
		  "start": 135.116279069767,
		  "velocity": 80
		},
		{
		  "duration": 0.116279069767442,
		  "pitch": 86,
		  "start": 135.232558139535,
		  "velocity": 80
		},
		{
		  "duration": 0.116279069767442,
		  "pitch": 74,
		  "start": 135.232558139535,
		  "velocity": 80
		},
		{
		  "duration": 0.116279069767442,
		  "pitch": 88,
		  "start": 135.348837209302,
		  "velocity": 80
		},
		{
		  "duration": 0.116279069767442,
		  "pitch": 76,
		  "start": 135.348837209302,
		  "velocity": 80
		},
		{
		  "duration": 0.116279069767442,
		  "pitch": 86,
		  "start": 135.46511627907,
		  "velocity": 80
		},
		{
		  "duration": 0.116279069767442,
		  "pitch": 74,
		  "start": 135.46511627907,
		  "velocity": 80
		},
		{
		  "duration": 0.116279069767442,
		  "pitch": 84,
		  "start": 135.581395348837,
		  "velocity": 80
		},
		{
		  "duration": 0.116279069767442,
		  "pitch": 72,
		  "start": 135.581395348837,
		  "velocity": 80
		},
		{
		  "duration": 0.116279069767442,
		  "pitch": 86,
		  "start": 135.697674418605,
		  "velocity": 80
		},
		{
		  "duration": 0.116279069767442,
		  "pitch": 74,
		  "start": 135.697674418605,
		  "velocity": 80
		},
		{
		  "duration": 0.116279069767442,
		  "pitch": 84,
		  "start": 135.813953488372,
		  "velocity": 80
		},
		{
		  "duration": 0.116279069767442,
		  "pitch": 72,
		  "start": 135.813953488372,
		  "velocity": 80
		},
		{
		  "duration": 0.116279069767442,
		  "pitch": 83,
		  "start": 135.93023255814,
		  "velocity": 80
		},
		{
		  "duration": 0.116279069767442,
		  "pitch": 71,
		  "start": 135.93023255814,
		  "velocity": 80
		},
		{
		  "duration": 0.116279069767442,
		  "pitch": 84,
		  "start": 136.046511627907,
		  "velocity": 80
		},
		{
		  "duration": 0.116279069767442,
		  "pitch": 72,
		  "start": 136.046511627907,
		  "velocity": 80
		},
		{
		  "duration": 0.116279069767442,
		  "pitch": 83,
		  "start": 136.162790697674,
		  "velocity": 80
		},
		{
		  "duration": 0.116279069767442,
		  "pitch": 71,
		  "start": 136.162790697674,
		  "velocity": 80
		},
		{
		  "duration": 0.116279069767442,
		  "pitch": 81,
		  "start": 136.279069767442,
		  "velocity": 80
		},
		{
		  "duration": 0.116279069767442,
		  "pitch": 69,
		  "start": 136.279069767442,
		  "velocity": 80
		},
		{
		  "duration": 0.116279069767442,
		  "pitch": 80,
		  "start": 136.395348837209,
		  "velocity": 80
		},
		{
		  "duration": 0.116279069767442,
		  "pitch": 68,
		  "start": 136.395348837209,
		  "velocity": 80
		},
		{
		  "duration": 0.116279069767442,
		  "pitch": 83,
		  "start": 136.511627906977,
		  "velocity": 80
		},
		{
		  "duration": 0.116279069767442,
		  "pitch": 71,
		  "start": 136.511627906977,
		  "velocity": 80
		},
		{
		  "duration": 0.116279069767442,
		  "pitch": 86,
		  "start": 136.627906976744,
		  "velocity": 80
		},
		{
		  "duration": 0.116279069767442,
		  "pitch": 74,
		  "start": 136.627906976744,
		  "velocity": 80
		},
		{
		  "duration": 0.116279069767442,
		  "pitch": 81,
		  "start": 136.744186046512,
		  "velocity": 80
		},
		{
		  "duration": 0.116279069767442,
		  "pitch": 69,
		  "start": 136.744186046512,
		  "velocity": 80
		},
		{
		  "duration": 0.116279069767442,
		  "pitch": 83,
		  "start": 136.860465116279,
		  "velocity": 80
		},
		{
		  "duration": 0.116279069767442,
		  "pitch": 71,
		  "start": 136.860465116279,
		  "velocity": 80
		},
		{
		  "duration": 0.116279069767442,
		  "pitch": 84,
		  "start": 136.976744186047,
		  "velocity": 80
		},
		{
		  "duration": 0.116279069767442,
		  "pitch": 72,
		  "start": 136.976744186047,
		  "velocity": 80
		},
		{
		  "duration": 0.116279069767442,
		  "pitch": 86,
		  "start": 137.093023255814,
		  "velocity": 80
		},
		{
		  "duration": 0.116279069767442,
		  "pitch": 74,
		  "start": 137.093023255814,
		  "velocity": 80
		},
		{
		  "duration": 0.116279069767442,
		  "pitch": 84,
		  "start": 137.209302325581,
		  "velocity": 80
		},
		{
		  "duration": 0.116279069767442,
		  "pitch": 72,
		  "start": 137.209302325581,
		  "velocity": 80
		},
		{
		  "duration": 0.116279069767442,
		  "pitch": 83,
		  "start": 137.325581395349,
		  "velocity": 80
		},
		{
		  "duration": 0.116279069767442,
		  "pitch": 71,
		  "start": 137.325581395349,
		  "velocity": 80
		},
		{
		  "duration": 0.116279069767442,
		  "pitch": 84,
		  "start": 137.441860465116,
		  "velocity": 80
		},
		{
		  "duration": 0.116279069767442,
		  "pitch": 72,
		  "start": 137.441860465116,
		  "velocity": 80
		},
		{
		  "duration": 0.116279069767442,
		  "pitch": 86,
		  "start": 137.558139534884,
		  "velocity": 80
		},
		{
		  "duration": 0.116279069767442,
		  "pitch": 74,
		  "start": 137.558139534884,
		  "velocity": 80
		},
		{
		  "duration": 0.116279069767442,
		  "pitch": 88,
		  "start": 137.674418604651,
		  "velocity": 80
		},
		{
		  "duration": 0.116279069767442,
		  "pitch": 76,
		  "start": 137.674418604651,
		  "velocity": 80
		},
		{
		  "duration": 0.116279069767442,
		  "pitch": 90,
		  "start": 137.790697674419,
		  "velocity": 80
		},
		{
		  "duration": 0.116279069767442,
		  "pitch": 78,
		  "start": 137.790697674419,
		  "velocity": 80
		},
		{
		  "duration": 0.116279069767442,
		  "pitch": 88,
		  "start": 137.906976744186,
		  "velocity": 80
		},
		{
		  "duration": 0.116279069767442,
		  "pitch": 76,
		  "start": 137.906976744186,
		  "velocity": 80
		},
		{
		  "duration": 0.116279069767442,
		  "pitch": 86,
		  "start": 138.023255813953,
		  "velocity": 80
		},
		{
		  "duration": 0.116279069767442,
		  "pitch": 74,
		  "start": 138.023255813953,
		  "velocity": 80
		},
		{
		  "duration": 0.116279069767442,
		  "pitch": 88,
		  "start": 138.139534883721,
		  "velocity": 80
		},
		{
		  "duration": 0.116279069767442,
		  "pitch": 76,
		  "start": 138.139534883721,
		  "velocity": 80
		},
		{
		  "duration": 0.116279069767442,
		  "pitch": 84,
		  "start": 138.255813953488,
		  "velocity": 80
		},
		{
		  "duration": 0.116279069767442,
		  "pitch": 72,
		  "start": 138.255813953488,
		  "velocity": 80
		},
		{
		  "duration": 0.116279069767442,
		  "pitch": 81,
		  "start": 138.372093023256,
		  "velocity": 80
		},
		{
		  "duration": 0.116279069767442,
		  "pitch": 69,
		  "start": 138.372093023256,
		  "velocity": 80
		},
		{
		  "duration": 0.116279069767442,
		  "pitch": 80,
		  "start": 138.488372093023,
		  "velocity": 80
		},
		{
		  "duration": 0.116279069767442,
		  "pitch": 68,
		  "start": 138.488372093023,
		  "velocity": 80
		},
		{
		  "duration": 0.116279069767442,
		  "pitch": 83,
		  "start": 138.604651162791,
		  "velocity": 80
		},
		{
		  "duration": 0.116279069767442,
		  "pitch": 71,
		  "start": 138.604651162791,
		  "velocity": 80
		},
		{
		  "duration": 0.116279069767442,
		  "pitch": 86,
		  "start": 138.720930232558,
		  "velocity": 80
		},
		{
		  "duration": 0.116279069767442,
		  "pitch": 74,
		  "start": 138.720930232558,
		  "velocity": 80
		},
		{
		  "duration": 0.116279069767442,
		  "pitch": 84,
		  "start": 138.837209302326,
		  "velocity": 80
		},
		{
		  "duration": 0.116279069767442,
		  "pitch": 72,
		  "start": 138.837209302326,
		  "velocity": 80
		},
		{
		  "duration": 0.116279069767442,
		  "pitch": 81,
		  "start": 138.953488372093,
		  "velocity": 80
		},
		{
		  "duration": 0.116279069767442,
		  "pitch": 69,
		  "start": 138.953488372093,
		  "velocity": 80
		},
		{
		  "duration": 0.116279069767442,
		  "pitch": 80,
		  "start": 139.06976744186,
		  "velocity": 80
		},
		{
		  "duration": 0.116279069767442,
		  "pitch": 68,
		  "start": 139.06976744186,
		  "velocity": 80
		},
		{
		  "duration": 0.348837209302326,
		  "pitch": 81,
		  "start": 139.186046511628,
		  "velocity": 80
		},
		{
		  "duration": 0.348837209302326,
		  "pitch": 69,
		  "start": 139.186046511628,
		  "velocity": 80
		},
		{
		  "duration": 0.116279069767442,
		  "pitch": 81,
		  "start": 139.53488372093,
		  "velocity": 80
		},
		{
		  "duration": 0.116279069767442,
		  "pitch": 69,
		  "start": 139.53488372093,
		  "velocity": 80
		},
		{
		  "duration": 0.116279069767442,
		  "pitch": 83,
		  "start": 139.651162790698,
		  "velocity": 80
		},
		{
		  "duration": 0.116279069767442,
		  "pitch": 71,
		  "start": 139.651162790698,
		  "velocity": 80
		},
		{
		  "duration": 0.116279069767442,
		  "pitch": 84,
		  "start": 139.767441860465,
		  "velocity": 80
		},
		{
		  "duration": 0.116279069767442,
		  "pitch": 72,
		  "start": 139.767441860465,
		  "velocity": 80
		},
		{
		  "duration": 0.116279069767442,
		  "pitch": 86,
		  "start": 139.883720930233,
		  "velocity": 80
		},
		{
		  "duration": 0.116279069767442,
		  "pitch": 74,
		  "start": 139.883720930233,
		  "velocity": 80
		},
		{
		  "duration": 0.116279069767442,
		  "pitch": 84,
		  "start": 140.0,
		  "velocity": 80
		},
		{
		  "duration": 0.116279069767442,
		  "pitch": 72,
		  "start": 140.0,
		  "velocity": 80
		},
		{
		  "duration": 0.116279069767442,
		  "pitch": 83,
		  "start": 140.116279069767,
		  "velocity": 80
		},
		{
		  "duration": 0.116279069767442,
		  "pitch": 71,
		  "start": 140.116279069767,
		  "velocity": 80
		},
		{
		  "duration": 0.116279069767442,
		  "pitch": 84,
		  "start": 140.232558139535,
		  "velocity": 80
		},
		{
		  "duration": 0.116279069767442,
		  "pitch": 72,
		  "start": 140.232558139535,
		  "velocity": 80
		},
		{
		  "duration": 0.116279069767442,
		  "pitch": 86,
		  "start": 140.348837209302,
		  "velocity": 80
		},
		{
		  "duration": 0.116279069767442,
		  "pitch": 74,
		  "start": 140.348837209302,
		  "velocity": 80
		},
		{
		  "duration": 0.116279069767442,
		  "pitch": 88,
		  "start": 140.46511627907,
		  "velocity": 80
		},
		{
		  "duration": 0.116279069767442,
		  "pitch": 76,
		  "start": 140.46511627907,
		  "velocity": 80
		},
		{
		  "duration": 0.116279069767442,
		  "pitch": 90,
		  "start": 140.581395348837,
		  "velocity": 80
		},
		{
		  "duration": 0.116279069767442,
		  "pitch": 78,
		  "start": 140.581395348837,
		  "velocity": 80
		},
		{
		  "duration": 0.116279069767442,
		  "pitch": 88,
		  "start": 140.697674418605,
		  "velocity": 80
		},
		{
		  "duration": 0.116279069767442,
		  "pitch": 76,
		  "start": 140.697674418605,
		  "velocity": 80
		},
		{
		  "duration": 0.116279069767442,
		  "pitch": 86,
		  "start": 140.813953488372,
		  "velocity": 80
		},
		{
		  "duration": 0.116279069767442,
		  "pitch": 74,
		  "start": 140.813953488372,
		  "velocity": 80
		},
		{
		  "duration": 0.116279069767442,
		  "pitch": 88,
		  "start": 140.93023255814,
		  "velocity": 80
		},
		{
		  "duration": 0.116279069767442,
		  "pitch": 76,
		  "start": 140.93023255814,
		  "velocity": 80
		},
		{
		  "duration": 0.116279069767442,
		  "pitch": 86,
		  "start": 141.046511627907,
		  "velocity": 80
		},
		{
		  "duration": 0.116279069767442,
		  "pitch": 74,
		  "start": 141.046511627907,
		  "velocity": 80
		},
		{
		  "duration": 0.116279069767442,
		  "pitch": 84,
		  "start": 141.162790697674,
		  "velocity": 80
		},
		{
		  "duration": 0.116279069767442,
		  "pitch": 72,
		  "start": 141.162790697674,
		  "velocity": 80
		},
		{
		  "duration": 0.116279069767442,
		  "pitch": 86,
		  "start": 141.279069767442,
		  "velocity": 80
		},
		{
		  "duration": 0.116279069767442,
		  "pitch": 74,
		  "start": 141.279069767442,
		  "velocity": 80
		},
		{
		  "duration": 0.116279069767442,
		  "pitch": 84,
		  "start": 141.395348837209,
		  "velocity": 80
		},
		{
		  "duration": 0.116279069767442,
		  "pitch": 72,
		  "start": 141.395348837209,
		  "velocity": 80
		},
		{
		  "duration": 0.116279069767442,
		  "pitch": 83,
		  "start": 141.511627906977,
		  "velocity": 80
		},
		{
		  "duration": 0.116279069767442,
		  "pitch": 71,
		  "start": 141.511627906977,
		  "velocity": 80
		},
		{
		  "duration": 0.116279069767442,
		  "pitch": 84,
		  "start": 141.627906976744,
		  "velocity": 80
		},
		{
		  "duration": 0.116279069767442,
		  "pitch": 72,
		  "start": 141.627906976744,
		  "velocity": 80
		},
		{
		  "duration": 0.116279069767442,
		  "pitch": 83,
		  "start": 141.744186046512,
		  "velocity": 80
		},
		{
		  "duration": 0.116279069767442,
		  "pitch": 71,
		  "start": 141.744186046512,
		  "velocity": 80
		},
		{
		  "duration": 0.116279069767442,
		  "pitch": 81,
		  "start": 141.860465116279,
		  "velocity": 80
		},
		{
		  "duration": 0.116279069767442,
		  "pitch": 69,
		  "start": 141.860465116279,
		  "velocity": 80
		},
		{
		  "duration": 0.116279069767442,
		  "pitch": 80,
		  "start": 141.976744186047,
		  "velocity": 80
		},
		{
		  "duration": 0.116279069767442,
		  "pitch": 68,
		  "start": 141.976744186047,
		  "velocity": 80
		},
		{
		  "duration": 0.116279069767442,
		  "pitch": 83,
		  "start": 142.093023255814,
		  "velocity": 80
		},
		{
		  "duration": 0.116279069767442,
		  "pitch": 71,
		  "start": 142.093023255814,
		  "velocity": 80
		},
		{
		  "duration": 0.116279069767442,
		  "pitch": 86,
		  "start": 142.209302325581,
		  "velocity": 80
		},
		{
		  "duration": 0.116279069767442,
		  "pitch": 74,
		  "start": 142.209302325581,
		  "velocity": 80
		},
		{
		  "duration": 0.116279069767442,
		  "pitch": 81,
		  "start": 142.325581395349,
		  "velocity": 80
		},
		{
		  "duration": 0.116279069767442,
		  "pitch": 69,
		  "start": 142.325581395349,
		  "velocity": 80
		},
		{
		  "duration": 0.116279069767442,
		  "pitch": 83,
		  "start": 142.441860465116,
		  "velocity": 80
		},
		{
		  "duration": 0.116279069767442,
		  "pitch": 71,
		  "start": 142.441860465116,
		  "velocity": 80
		},
		{
		  "duration": 0.116279069767442,
		  "pitch": 84,
		  "start": 142.558139534884,
		  "velocity": 80
		},
		{
		  "duration": 0.116279069767442,
		  "pitch": 72,
		  "start": 142.558139534884,
		  "velocity": 80
		},
		{
		  "duration": 0.116279069767442,
		  "pitch": 86,
		  "start": 142.674418604651,
		  "velocity": 80
		},
		{
		  "duration": 0.116279069767442,
		  "pitch": 74,
		  "start": 142.674418604651,
		  "velocity": 80
		},
		{
		  "duration": 0.116279069767442,
		  "pitch": 84,
		  "start": 142.790697674419,
		  "velocity": 80
		},
		{
		  "duration": 0.116279069767442,
		  "pitch": 72,
		  "start": 142.790697674419,
		  "velocity": 80
		},
		{
		  "duration": 0.116279069767442,
		  "pitch": 83,
		  "start": 142.906976744186,
		  "velocity": 80
		},
		{
		  "duration": 0.116279069767442,
		  "pitch": 71,
		  "start": 142.906976744186,
		  "velocity": 80
		},
		{
		  "duration": 0.116279069767442,
		  "pitch": 84,
		  "start": 143.023255813953,
		  "velocity": 80
		},
		{
		  "duration": 0.116279069767442,
		  "pitch": 72,
		  "start": 143.023255813953,
		  "velocity": 80
		},
		{
		  "duration": 0.116279069767442,
		  "pitch": 86,
		  "start": 143.139534883721,
		  "velocity": 80
		},
		{
		  "duration": 0.116279069767442,
		  "pitch": 74,
		  "start": 143.139534883721,
		  "velocity": 80
		},
		{
		  "duration": 0.116279069767442,
		  "pitch": 88,
		  "start": 143.255813953488,
		  "velocity": 80
		},
		{
		  "duration": 0.116279069767442,
		  "pitch": 76,
		  "start": 143.255813953488,
		  "velocity": 80
		},
		{
		  "duration": 0.116279069767442,
		  "pitch": 90,
		  "start": 143.372093023256,
		  "velocity": 80
		},
		{
		  "duration": 0.116279069767442,
		  "pitch": 78,
		  "start": 143.372093023256,
		  "velocity": 80
		},
		{
		  "duration": 0.116279069767442,
		  "pitch": 88,
		  "start": 143.488372093023,
		  "velocity": 80
		},
		{
		  "duration": 0.116279069767442,
		  "pitch": 76,
		  "start": 143.488372093023,
		  "velocity": 80
		},
		{
		  "duration": 0.116279069767442,
		  "pitch": 86,
		  "start": 143.604651162791,
		  "velocity": 80
		},
		{
		  "duration": 0.116279069767442,
		  "pitch": 74,
		  "start": 143.604651162791,
		  "velocity": 80
		},
		{
		  "duration": 0.116279069767442,
		  "pitch": 88,
		  "start": 143.720930232558,
		  "velocity": 80
		},
		{
		  "duration": 0.116279069767442,
		  "pitch": 76,
		  "start": 143.720930232558,
		  "velocity": 80
		},
		{
		  "duration": 0.116279069767442,
		  "pitch": 84,
		  "start": 143.837209302326,
		  "velocity": 80
		},
		{
		  "duration": 0.116279069767442,
		  "pitch": 72,
		  "start": 143.837209302326,
		  "velocity": 80
		},
		{
		  "duration": 0.116279069767442,
		  "pitch": 81,
		  "start": 143.953488372093,
		  "velocity": 80
		},
		{
		  "duration": 0.116279069767442,
		  "pitch": 69,
		  "start": 143.953488372093,
		  "velocity": 80
		},
		{
		  "duration": 0.116279069767442,
		  "pitch": 80,
		  "start": 144.06976744186,
		  "velocity": 80
		},
		{
		  "duration": 0.116279069767442,
		  "pitch": 68,
		  "start": 144.06976744186,
		  "velocity": 80
		},
		{
		  "duration": 0.116279069767442,
		  "pitch": 83,
		  "start": 144.186046511628,
		  "velocity": 80
		},
		{
		  "duration": 0.116279069767442,
		  "pitch": 71,
		  "start": 144.186046511628,
		  "velocity": 80
		},
		{
		  "duration": 0.116279069767442,
		  "pitch": 86,
		  "start": 144.302325581395,
		  "velocity": 80
		},
		{
		  "duration": 0.116279069767442,
		  "pitch": 74,
		  "start": 144.302325581395,
		  "velocity": 80
		},
		{
		  "duration": 0.116279069767442,
		  "pitch": 84,
		  "start": 144.418604651163,
		  "velocity": 80
		},
		{
		  "duration": 0.116279069767442,
		  "pitch": 72,
		  "start": 144.418604651163,
		  "velocity": 80
		},
		{
		  "duration": 0.116279069767442,
		  "pitch": 81,
		  "start": 144.53488372093,
		  "velocity": 80
		},
		{
		  "duration": 0.116279069767442,
		  "pitch": 69,
		  "start": 144.53488372093,
		  "velocity": 80
		},
		{
		  "duration": 0.116279069767442,
		  "pitch": 80,
		  "start": 144.651162790698,
		  "velocity": 80
		},
		{
		  "duration": 0.116279069767442,
		  "pitch": 68,
		  "start": 144.651162790698,
		  "velocity": 80
		},
		{
		  "duration": 0.348837209302326,
		  "pitch": 81,
		  "start": 144.767441860465,
		  "velocity": 80
		},
		{
		  "duration": 0.348837209302326,
		  "pitch": 69,
		  "start": 144.767441860465,
		  "velocity": 80
		},
		{
		  "duration": 0.697674418604651,
		  "pitch": 86,
		  "start": 145.116279069767,
		  "velocity": 80
		},
		{
		  "duration": 0.697674418604651,
		  "pitch": 74,
		  "start": 145.116279069767,
		  "velocity": 80
		},
		{
		  "duration": 0.348837209302326,
		  "pitch": 86,
		  "start": 145.813953488372,
		  "velocity": 80
		},
		{
		  "duration": 0.348837209302326,
		  "pitch": 74,
		  "start": 145.813953488372,
		  "velocity": 80
		},
		{
		  "duration": 0.348837209302326,
		  "pitch": 86,
		  "start": 146.162790697674,
		  "velocity": 80
		},
		{
		  "duration": 0.348837209302326,
		  "pitch": 74,
		  "start": 146.162790697674,
		  "velocity": 80
		},
		{
		  "duration": 1.3953488372093,
		  "pitch": 88,
		  "start": 146.511627906977,
		  "velocity": 80
		},
		{
		  "duration": 1.3953488372093,
		  "pitch": 76,
		  "start": 146.511627906977,
		  "velocity": 80
		},
		{
		  "duration": 0.348837209302326,
		  "pitch": 98,
		  "start": 147.906976744186,
		  "velocity": 80
		},
		{
		  "duration": 0.348837209302326,
		  "pitch": 86,
		  "start": 147.906976744186,
		  "velocity": 80
		},
		{
		  "duration": 0.348837209302326,
		  "pitch": 98,
		  "start": 148.255813953488,
		  "velocity": 80
		},
		{
		  "duration": 0.348837209302326,
		  "pitch": 86,
		  "start": 148.255813953488,
		  "velocity": 80
		},
		{
		  "duration": 0.348837209302326,
		  "pitch": 96,
		  "start": 148.604651162791,
		  "velocity": 80
		},
		{
		  "duration": 0.348837209302326,
		  "pitch": 84,
		  "start": 148.604651162791,
		  "velocity": 80
		},
		{
		  "duration": 0.348837209302326,
		  "pitch": 98,
		  "start": 148.953488372093,
		  "velocity": 80
		},
		{
		  "duration": 0.348837209302326,
		  "pitch": 86,
		  "start": 148.953488372093,
		  "velocity": 80
		},
		{
		  "duration": 1.3953488372093,
		  "pitch": 100,
		  "start": 149.302325581395,
		  "velocity": 80
		},
		{
		  "duration": 1.3953488372093,
		  "pitch": 88,
		  "start": 149.302325581395,
		  "velocity": 80
		},
		{
		  "duration": 0.697674418604651,
		  "pitch": 88,
		  "start": 150.697674418605,
		  "velocity": 80
		},
		{
		  "duration": 0.697674418604651,
		  "pitch": 76,
		  "start": 150.697674418605,
		  "velocity": 80
		},
		{
		  "duration": 0.348837209302326,
		  "pitch": 88,
		  "start": 151.395348837209,
		  "velocity": 80
		},
		{
		  "duration": 0.348837209302326,
		  "pitch": 76,
		  "start": 151.395348837209,
		  "velocity": 80
		},
		{
		  "duration": 0.348837209302326,
		  "pitch": 88,
		  "start": 151.744186046512,
		  "velocity": 80
		},
		{
		  "duration": 0.348837209302326,
		  "pitch": 76,
		  "start": 151.744186046512,
		  "velocity": 80
		},
		{
		  "duration": 1.3953488372093,
		  "pitch": 89,
		  "start": 152.093023255814,
		  "velocity": 80
		},
		{
		  "duration": 1.3953488372093,
		  "pitch": 77,
		  "start": 152.093023255814,
		  "velocity": 80
		},
		{
		  "duration": 0.348837209302326,
		  "pitch": 100,
		  "start": 153.488372093023,
		  "velocity": 80
		},
		{
		  "duration": 0.348837209302326,
		  "pitch": 88,
		  "start": 153.488372093023,
		  "velocity": 80
		},
		{
		  "duration": 0.348837209302326,
		  "pitch": 100,
		  "start": 153.837209302326,
		  "velocity": 80
		},
		{
		  "duration": 0.348837209302326,
		  "pitch": 88,
		  "start": 153.837209302326,
		  "velocity": 80
		},
		{
		  "duration": 0.348837209302326,
		  "pitch": 98,
		  "start": 154.186046511628,
		  "velocity": 80
		},
		{
		  "duration": 0.348837209302326,
		  "pitch": 86,
		  "start": 154.186046511628,
		  "velocity": 80
		},
		{
		  "duration": 0.348837209302326,
		  "pitch": 100,
		  "start": 154.53488372093,
		  "velocity": 80
		},
		{
		  "duration": 0.348837209302326,
		  "pitch": 88,
		  "start": 154.53488372093,
		  "velocity": 80
		},
		{
		  "duration": 1.3953488372093,
		  "pitch": 101,
		  "start": 154.883720930233,
		  "velocity": 80
		},
		{
		  "duration": 1.3953488372093,
		  "pitch": 89,
		  "start": 154.883720930233,
		  "velocity": 80
		},
		{
		  "duration": 0.116279069767442,
		  "pitch": 81,
		  "start": 156.279069767442,
		  "velocity": 80
		},
		{
		  "duration": 0.116279069767442,
		  "pitch": 81,
		  "start": 156.511627906977,
		  "velocity": 80
		},
		{
		  "duration": 0.348837209302326,
		  "pitch": 79,
		  "start": 156.627906976744,
		  "velocity": 80
		},
		{
		  "duration": 0.116279069767442,
		  "pitch": 81,
		  "start": 156.976744186047,
		  "velocity": 80
		},
		{
		  "duration": 0.116279069767442,
		  "pitch": 81,
		  "start": 157.209302325581,
		  "velocity": 80
		},
		{
		  "duration": 0.348837209302326,
		  "pitch": 82,
		  "start": 157.325581395349,
		  "velocity": 80
		},
		{
		  "duration": 0.116279069767442,
		  "pitch": 81,
		  "start": 157.674418604651,
		  "velocity": 80
		},
		{
		  "duration": 0.116279069767442,
		  "pitch": 81,
		  "start": 157.906976744186,
		  "velocity": 80
		},
		{
		  "duration": 0.116279069767442,
		  "pitch": 81,
		  "start": 158.023255813953,
		  "velocity": 80
		},
		{
		  "duration": 0.116279069767442,
		  "pitch": 81,
		  "start": 158.139534883721,
		  "velocity": 80
		},
		{
		  "duration": 0.116279069767442,
		  "pitch": 81,
		  "start": 158.255813953488,
		  "velocity": 80
		},
		{
		  "duration": 0.116279069767442,
		  "pitch": 82,
		  "start": 158.372093023256,
		  "velocity": 80
		},
		{
		  "duration": 0.116279069767442,
		  "pitch": 82,
		  "start": 158.604651162791,
		  "velocity": 80
		},
		{
		  "duration": 0.348837209302326,
		  "pitch": 81,
		  "start": 158.720930232558,
		  "velocity": 80
		},
		{
		  "duration": 0.116279069767442,
		  "pitch": 81,
		  "start": 159.06976744186,
		  "velocity": 80
		},
		{
		  "duration": 0.697674418604651,
		  "pitch": 81,
		  "start": 159.418604651163,
		  "velocity": 80
		},
		{
		  "duration": 0.116279069767442,
		  "pitch": 79,
		  "start": 160.116279069767,
		  "velocity": 80
		},
		{
		  "duration": 0.116279069767442,
		  "pitch": 79,
		  "start": 160.232558139535,
		  "velocity": 80
		},
		{
		  "duration": 0.116279069767442,
		  "pitch": 79,
		  "start": 160.348837209302,
		  "velocity": 80
		},
		{
		  "duration": 1.3953488372093,
		  "pitch": 81,
		  "start": 160.46511627907,
		  "velocity": 80
		},
		{
		  "duration": 0.116279069767442,
		  "pitch": 76,
		  "start": 161.860465116279,
		  "velocity": 80
		},
		{
		  "duration": 0.116279069767442,
		  "pitch": 76,
		  "start": 162.093023255814,
		  "velocity": 80
		},
		{
		  "duration": 0.348837209302326,
		  "pitch": 74,
		  "start": 162.209302325581,
		  "velocity": 80
		},
		{
		  "duration": 0.116279069767442,
		  "pitch": 76,
		  "start": 162.558139534884,
		  "velocity": 80
		},
		{
		  "duration": 0.116279069767442,
		  "pitch": 76,
		  "start": 162.790697674419,
		  "velocity": 80
		},
		{
		  "duration": 0.348837209302326,
		  "pitch": 77,
		  "start": 162.906976744186,
		  "velocity": 80
		},
		{
		  "duration": 0.116279069767442,
		  "pitch": 76,
		  "start": 163.255813953488,
		  "velocity": 80
		},
		{
		  "duration": 0.116279069767442,
		  "pitch": 76,
		  "start": 163.488372093023,
		  "velocity": 80
		},
		{
		  "duration": 0.116279069767442,
		  "pitch": 76,
		  "start": 163.604651162791,
		  "velocity": 80
		},
		{
		  "duration": 0.116279069767442,
		  "pitch": 76,
		  "start": 163.720930232558,
		  "velocity": 80
		},
		{
		  "duration": 0.116279069767442,
		  "pitch": 76,
		  "start": 163.837209302326,
		  "velocity": 80
		},
		{
		  "duration": 0.116279069767442,
		  "pitch": 77,
		  "start": 163.953488372093,
		  "velocity": 80
		},
		{
		  "duration": 0.116279069767442,
		  "pitch": 77,
		  "start": 164.186046511628,
		  "velocity": 80
		},
		{
		  "duration": 0.348837209302326,
		  "pitch": 76,
		  "start": 164.302325581395,
		  "velocity": 80
		},
		{
		  "duration": 0.116279069767442,
		  "pitch": 76,
		  "start": 164.651162790698,
		  "velocity": 80
		},
		{
		  "duration": 0.697674418604651,
		  "pitch": 76,
		  "start": 165.0,
		  "velocity": 80
		},
		{
		  "duration": 0.116279069767442,
		  "pitch": 74,
		  "start": 165.697674418605,
		  "velocity": 80
		},
		{
		  "duration": 0.116279069767442,
		  "pitch": 74,
		  "start": 165.813953488372,
		  "velocity": 80
		},
		{
		  "duration": 0.116279069767442,
		  "pitch": 74,
		  "start": 165.93023255814,
		  "velocity": 80
		},
		{
		  "duration": 1.3953488372093,
		  "pitch": 76,
		  "start": 166.046511627907,
		  "velocity": 80
		},
		{
		  "duration": 0.116279069767442,
		  "pitch": 81,
		  "start": 167.441860465116,
		  "velocity": 80
		},
		{
		  "duration": 0.116279069767442,
		  "pitch": 81,
		  "start": 167.674418604651,
		  "velocity": 80
		},
		{
		  "duration": 0.348837209302326,
		  "pitch": 79,
		  "start": 167.790697674419,
		  "velocity": 80
		},
		{
		  "duration": 0.116279069767442,
		  "pitch": 81,
		  "start": 168.139534883721,
		  "velocity": 80
		},
		{
		  "duration": 0.116279069767442,
		  "pitch": 81,
		  "start": 168.372093023256,
		  "velocity": 80
		},
		{
		  "duration": 0.348837209302326,
		  "pitch": 82,
		  "start": 168.488372093023,
		  "velocity": 80
		},
		{
		  "duration": 0.116279069767442,
		  "pitch": 81,
		  "start": 168.837209302326,
		  "velocity": 80
		},
		{
		  "duration": 0.116279069767442,
		  "pitch": 81,
		  "start": 169.06976744186,
		  "velocity": 80
		},
		{
		  "duration": 0.116279069767442,
		  "pitch": 81,
		  "start": 169.186046511628,
		  "velocity": 80
		},
		{
		  "duration": 0.116279069767442,
		  "pitch": 81,
		  "start": 169.302325581395,
		  "velocity": 80
		},
		{
		  "duration": 0.116279069767442,
		  "pitch": 81,
		  "start": 169.418604651163,
		  "velocity": 80
		},
		{
		  "duration": 0.116279069767442,
		  "pitch": 82,
		  "start": 169.53488372093,
		  "velocity": 80
		},
		{
		  "duration": 0.116279069767442,
		  "pitch": 82,
		  "start": 169.767441860465,
		  "velocity": 80
		},
		{
		  "duration": 0.348837209302326,
		  "pitch": 81,
		  "start": 169.883720930233,
		  "velocity": 80
		},
		{
		  "duration": 0.116279069767442,
		  "pitch": 81,
		  "start": 170.232558139535,
		  "velocity": 80
		},
		{
		  "duration": 0.697674418604651,
		  "pitch": 81,
		  "start": 170.581395348837,
		  "velocity": 80
		},
		{
		  "duration": 0.116279069767442,
		  "pitch": 79,
		  "start": 171.279069767442,
		  "velocity": 80
		},
		{
		  "duration": 0.116279069767442,
		  "pitch": 79,
		  "start": 171.395348837209,
		  "velocity": 80
		},
		{
		  "duration": 0.116279069767442,
		  "pitch": 79,
		  "start": 171.511627906977,
		  "velocity": 80
		},
		{
		  "duration": 1.3953488372093,
		  "pitch": 81,
		  "start": 171.627906976744,
		  "velocity": 80
		},
		{
		  "duration": 0.116279069767442,
		  "pitch": 76,
		  "start": 173.023255813953,
		  "velocity": 80
		},
		{
		  "duration": 0.116279069767442,
		  "pitch": 76,
		  "start": 173.255813953488,
		  "velocity": 80
		},
		{
		  "duration": 0.348837209302326,
		  "pitch": 74,
		  "start": 173.372093023256,
		  "velocity": 80
		},
		{
		  "duration": 0.116279069767442,
		  "pitch": 76,
		  "start": 173.720930232558,
		  "velocity": 80
		},
		{
		  "duration": 0.116279069767442,
		  "pitch": 76,
		  "start": 173.953488372093,
		  "velocity": 80
		},
		{
		  "duration": 0.348837209302326,
		  "pitch": 77,
		  "start": 174.06976744186,
		  "velocity": 80
		},
		{
		  "duration": 0.116279069767442,
		  "pitch": 76,
		  "start": 174.418604651163,
		  "velocity": 80
		},
		{
		  "duration": 0.116279069767442,
		  "pitch": 76,
		  "start": 174.651162790698,
		  "velocity": 80
		},
		{
		  "duration": 0.116279069767442,
		  "pitch": 76,
		  "start": 174.767441860465,
		  "velocity": 80
		},
		{
		  "duration": 0.116279069767442,
		  "pitch": 76,
		  "start": 174.883720930233,
		  "velocity": 80
		},
		{
		  "duration": 0.116279069767442,
		  "pitch": 76,
		  "start": 175.0,
		  "velocity": 80
		},
		{
		  "duration": 0.116279069767442,
		  "pitch": 77,
		  "start": 175.116279069767,
		  "velocity": 80
		},
		{
		  "duration": 0.116279069767442,
		  "pitch": 77,
		  "start": 175.348837209302,
		  "velocity": 80
		},
		{
		  "duration": 0.348837209302326,
		  "pitch": 76,
		  "start": 175.46511627907,
		  "velocity": 80
		},
		{
		  "duration": 0.116279069767442,
		  "pitch": 76,
		  "start": 175.813953488372,
		  "velocity": 80
		},
		{
		  "duration": 0.697674418604651,
		  "pitch": 76,
		  "start": 176.162790697674,
		  "velocity": 80
		},
		{
		  "duration": 0.116279069767442,
		  "pitch": 74,
		  "start": 176.860465116279,
		  "velocity": 80
		},
		{
		  "duration": 0.116279069767442,
		  "pitch": 74,
		  "start": 176.976744186047,
		  "velocity": 80
		},
		{
		  "duration": 0.116279069767442,
		  "pitch": 74,
		  "start": 177.093023255814,
		  "velocity": 80
		},
		{
		  "duration": 1.3953488372093,
		  "pitch": 76,
		  "start": 177.209302325581,
		  "velocity": 80
		},
		{
		  "duration": 0.116279069767442,
		  "pitch": 81,
		  "start": 178.604651162791,
		  "velocity": 80
		},
		{
		  "duration": 0.116279069767442,
		  "pitch": 81,
		  "start": 178.837209302326,
		  "velocity": 80
		},
		{
		  "duration": 0.348837209302326,
		  "pitch": 79,
		  "start": 178.953488372093,
		  "velocity": 80
		},
		{
		  "duration": 0.116279069767442,
		  "pitch": 81,
		  "start": 179.302325581395,
		  "velocity": 80
		},
		{
		  "duration": 0.116279069767442,
		  "pitch": 81,
		  "start": 179.53488372093,
		  "velocity": 80
		},
		{
		  "duration": 0.348837209302326,
		  "pitch": 82,
		  "start": 179.651162790698,
		  "velocity": 80
		},
		{
		  "duration": 0.116279069767442,
		  "pitch": 81,
		  "start": 180.0,
		  "velocity": 80
		},
		{
		  "duration": 0.116279069767442,
		  "pitch": 81,
		  "start": 180.232558139535,
		  "velocity": 80
		},
		{
		  "duration": 0.116279069767442,
		  "pitch": 81,
		  "start": 180.348837209302,
		  "velocity": 80
		},
		{
		  "duration": 0.116279069767442,
		  "pitch": 81,
		  "start": 180.46511627907,
		  "velocity": 80
		},
		{
		  "duration": 0.116279069767442,
		  "pitch": 81,
		  "start": 180.581395348837,
		  "velocity": 80
		},
		{
		  "duration": 0.116279069767442,
		  "pitch": 82,
		  "start": 180.697674418605,
		  "velocity": 80
		},
		{
		  "duration": 0.116279069767442,
		  "pitch": 82,
		  "start": 180.93023255814,
		  "velocity": 80
		},
		{
		  "duration": 0.348837209302326,
		  "pitch": 81,
		  "start": 181.046511627907,
		  "velocity": 80
		},
		{
		  "duration": 0.116279069767442,
		  "pitch": 81,
		  "start": 181.395348837209,
		  "velocity": 80
		},
		{
		  "duration": 0.697674418604651,
		  "pitch": 81,
		  "start": 181.744186046512,
		  "velocity": 80
		},
		{
		  "duration": 0.116279069767442,
		  "pitch": 79,
		  "start": 182.441860465116,
		  "velocity": 80
		},
		{
		  "duration": 0.116279069767442,
		  "pitch": 79,
		  "start": 182.558139534884,
		  "velocity": 80
		},
		{
		  "duration": 0.116279069767442,
		  "pitch": 79,
		  "start": 182.674418604651,
		  "velocity": 80
		},
		{
		  "duration": 1.3953488372093,
		  "pitch": 81,
		  "start": 182.790697674419,
		  "velocity": 80
		},
		{
		  "duration": 0.116279069767442,
		  "pitch": 76,
		  "start": 184.186046511628,
		  "velocity": 80
		},
		{
		  "duration": 0.116279069767442,
		  "pitch": 76,
		  "start": 184.418604651163,
		  "velocity": 80
		},
		{
		  "duration": 0.348837209302326,
		  "pitch": 74,
		  "start": 184.53488372093,
		  "velocity": 80
		},
		{
		  "duration": 0.116279069767442,
		  "pitch": 76,
		  "start": 184.883720930233,
		  "velocity": 80
		},
		{
		  "duration": 0.116279069767442,
		  "pitch": 76,
		  "start": 185.116279069767,
		  "velocity": 80
		},
		{
		  "duration": 0.348837209302326,
		  "pitch": 77,
		  "start": 185.232558139535,
		  "velocity": 80
		},
		{
		  "duration": 0.116279069767442,
		  "pitch": 76,
		  "start": 185.581395348837,
		  "velocity": 80
		},
		{
		  "duration": 0.116279069767442,
		  "pitch": 76,
		  "start": 185.813953488372,
		  "velocity": 80
		},
		{
		  "duration": 0.116279069767442,
		  "pitch": 76,
		  "start": 185.93023255814,
		  "velocity": 80
		},
		{
		  "duration": 0.116279069767442,
		  "pitch": 76,
		  "start": 186.046511627907,
		  "velocity": 80
		},
		{
		  "duration": 0.116279069767442,
		  "pitch": 76,
		  "start": 186.162790697674,
		  "velocity": 80
		},
		{
		  "duration": 0.116279069767442,
		  "pitch": 77,
		  "start": 186.279069767442,
		  "velocity": 80
		},
		{
		  "duration": 0.116279069767442,
		  "pitch": 77,
		  "start": 186.511627906977,
		  "velocity": 80
		},
		{
		  "duration": 0.348837209302326,
		  "pitch": 76,
		  "start": 186.627906976744,
		  "velocity": 80
		},
		{
		  "duration": 0.697674418604651,
		  "pitch": 76,
		  "start": 186.976744186047,
		  "velocity": 80
		},
		{
		  "duration": 0.697674418604651,
		  "pitch": 78,
		  "start": 187.674418604651,
		  "velocity": 80
		},
		{
		  "duration": 0.697674418604651,
		  "pitch": 79,
		  "start": 188.372093023256,
		  "velocity": 80
		},
		{
		  "duration": 0.697674418604651,
		  "pitch": 80,
		  "start": 189.06976744186,
		  "velocity": 80
		},
		{
		  "duration": 2.7906976744186,
		  "pitch": 81,
		  "start": 189.767441860465,
		  "velocity": 80
		},
		{
		  "duration": 0.0436046511627907,
		  "pitch": 43,
		  "start": 200.232558139535,
		  "velocity": 80
		},
		{
		  "duration": 0.0436046511627907,
		  "pitch": 31,
		  "start": 200.232558139535,
		  "velocity": 80
		},
		{
		  "duration": 0.0436046511627907,
		  "pitch": 45,
		  "start": 200.254360465116,
		  "velocity": 80
		},
		{
		  "duration": 0.0436046511627907,
		  "pitch": 33,
		  "start": 200.254360465116,
		  "velocity": 80
		},
		{
		  "duration": 0.0436046511627907,
		  "pitch": 47,
		  "start": 200.276162790698,
		  "velocity": 80
		},
		{
		  "duration": 0.0436046511627907,
		  "pitch": 35,
		  "start": 200.276162790698,
		  "velocity": 80
		},
		{
		  "duration": 0.0436046511627907,
		  "pitch": 48,
		  "start": 200.297965116279,
		  "velocity": 80
		},
		{
		  "duration": 0.0436046511627907,
		  "pitch": 36,
		  "start": 200.297965116279,
		  "velocity": 80
		},
		{
		  "duration": 0.0436046511627907,
		  "pitch": 50,
		  "start": 200.31976744186,
		  "velocity": 80
		},
		{
		  "duration": 0.0436046511627907,
		  "pitch": 38,
		  "start": 200.31976744186,
		  "velocity": 80
		},
		{
		  "duration": 0.0436046511627907,
		  "pitch": 52,
		  "start": 200.341569767442,
		  "velocity": 80
		},
		{
		  "duration": 0.0436046511627907,
		  "pitch": 40,
		  "start": 200.341569767442,
		  "velocity": 80
		},
		{
		  "duration": 0.0436046511627907,
		  "pitch": 53,
		  "start": 200.363372093023,
		  "velocity": 80
		},
		{
		  "duration": 0.0436046511627907,
		  "pitch": 41,
		  "start": 200.363372093023,
		  "velocity": 80
		},
		{
		  "duration": 0.0436046511627907,
		  "pitch": 55,
		  "start": 200.385174418605,
		  "velocity": 80
		},
		{
		  "duration": 0.0436046511627907,
		  "pitch": 43,
		  "start": 200.385174418605,
		  "velocity": 80
		},
		{
		  "duration": 0.0436046511627907,
		  "pitch": 57,
		  "start": 200.406976744186,
		  "velocity": 80
		},
		{
		  "duration": 0.0436046511627907,
		  "pitch": 45,
		  "start": 200.406976744186,
		  "velocity": 80
		},
		{
		  "duration": 0.0436046511627907,
		  "pitch": 59,
		  "start": 200.428779069767,
		  "velocity": 80
		},
		{
		  "duration": 0.0436046511627907,
		  "pitch": 47,
		  "start": 200.428779069767,
		  "velocity": 80
		},
		{
		  "duration": 0.0436046511627907,
		  "pitch": 60,
		  "start": 200.450581395349,
		  "velocity": 80
		},
		{
		  "duration": 0.0436046511627907,
		  "pitch": 48,
		  "start": 200.450581395349,
		  "velocity": 80
		},
		{
		  "duration": 0.0436046511627907,
		  "pitch": 62,
		  "start": 200.47238372093,
		  "velocity": 80
		},
		{
		  "duration": 0.0436046511627907,
		  "pitch": 50,
		  "start": 200.47238372093,
		  "velocity": 80
		},
		{
		  "duration": 0.0436046511627907,
		  "pitch": 64,
		  "start": 200.494186046512,
		  "velocity": 80
		},
		{
		  "duration": 0.0436046511627907,
		  "pitch": 52,
		  "start": 200.494186046512,
		  "velocity": 80
		},
		{
		  "duration": 0.0436046511627907,
		  "pitch": 65,
		  "start": 200.515988372093,
		  "velocity": 80
		},
		{
		  "duration": 0.0436046511627907,
		  "pitch": 53,
		  "start": 200.515988372093,
		  "velocity": 80
		},
		{
		  "duration": 0.0436046511627907,
		  "pitch": 67,
		  "start": 200.537790697674,
		  "velocity": 80
		},
		{
		  "duration": 0.0436046511627907,
		  "pitch": 55,
		  "start": 200.537790697674,
		  "velocity": 80
		},
		{
		  "duration": 0.0436046511627907,
		  "pitch": 69,
		  "start": 200.559593023256,
		  "velocity": 80
		},
		{
		  "duration": 0.0436046511627907,
		  "pitch": 57,
		  "start": 200.559593023256,
		  "velocity": 80
		},
		{
		  "duration": 0.0436046511627907,
		  "pitch": 71,
		  "start": 200.581395348837,
		  "velocity": 80
		},
		{
		  "duration": 0.0436046511627907,
		  "pitch": 59,
		  "start": 200.581395348837,
		  "velocity": 80
		},
		{
		  "duration": 0.0436046511627907,
		  "pitch": 72,
		  "start": 200.603197674419,
		  "velocity": 80
		},
		{
		  "duration": 0.0436046511627907,
		  "pitch": 60,
		  "start": 200.603197674419,
		  "velocity": 80
		},
		{
		  "duration": 0.0436046511627907,
		  "pitch": 74,
		  "start": 200.625,
		  "velocity": 80
		},
		{
		  "duration": 0.0436046511627907,
		  "pitch": 62,
		  "start": 200.625,
		  "velocity": 80
		},
		{
		  "duration": 0.0436046511627907,
		  "pitch": 76,
		  "start": 200.646802325581,
		  "velocity": 80
		},
		{
		  "duration": 0.0436046511627907,
		  "pitch": 64,
		  "start": 200.646802325581,
		  "velocity": 80
		},
		{
		  "duration": 0.0436046511627907,
		  "pitch": 77,
		  "start": 200.668604651163,
		  "velocity": 80
		},
		{
		  "duration": 0.0436046511627907,
		  "pitch": 65,
		  "start": 200.668604651163,
		  "velocity": 80
		},
		{
		  "duration": 0.0436046511627907,
		  "pitch": 79,
		  "start": 200.690406976744,
		  "velocity": 80
		},
		{
		  "duration": 0.0436046511627907,
		  "pitch": 67,
		  "start": 200.690406976744,
		  "velocity": 80
		},
		{
		  "duration": 0.0436046511627907,
		  "pitch": 81,
		  "start": 200.712209302326,
		  "velocity": 80
		},
		{
		  "duration": 0.0436046511627907,
		  "pitch": 69,
		  "start": 200.712209302326,
		  "velocity": 80
		},
		{
		  "duration": 0.0436046511627907,
		  "pitch": 83,
		  "start": 200.734011627907,
		  "velocity": 80
		},
		{
		  "duration": 0.0436046511627907,
		  "pitch": 71,
		  "start": 200.734011627907,
		  "velocity": 80
		},
		{
		  "duration": 0.0436046511627907,
		  "pitch": 84,
		  "start": 200.755813953488,
		  "velocity": 80
		},
		{
		  "duration": 0.0436046511627907,
		  "pitch": 72,
		  "start": 200.755813953488,
		  "velocity": 80
		},
		{
		  "duration": 0.0436046511627907,
		  "pitch": 86,
		  "start": 200.77761627907,
		  "velocity": 80
		},
		{
		  "duration": 0.0436046511627907,
		  "pitch": 74,
		  "start": 200.77761627907,
		  "velocity": 80
		},
		{
		  "duration": 0.0436046511627907,
		  "pitch": 88,
		  "start": 200.799418604651,
		  "velocity": 80
		},
		{
		  "duration": 0.0436046511627907,
		  "pitch": 76,
		  "start": 200.799418604651,
		  "velocity": 80
		},
		{
		  "duration": 0.0436046511627907,
		  "pitch": 89,
		  "start": 200.821220930233,
		  "velocity": 80
		},
		{
		  "duration": 0.0436046511627907,
		  "pitch": 77,
		  "start": 200.821220930233,
		  "velocity": 80
		},
		{
		  "duration": 0.0436046511627907,
		  "pitch": 91,
		  "start": 200.843023255814,
		  "velocity": 80
		},
		{
		  "duration": 0.0436046511627907,
		  "pitch": 79,
		  "start": 200.843023255814,
		  "velocity": 80
		},
		{
		  "duration": 0.0436046511627907,
		  "pitch": 93,
		  "start": 200.864825581395,
		  "velocity": 80
		},
		{
		  "duration": 0.0436046511627907,
		  "pitch": 81,
		  "start": 200.864825581395,
		  "velocity": 80
		},
		{
		  "duration": 0.0218023255813953,
		  "pitch": 96,
		  "start": 200.908430232558,
		  "velocity": 80
		},
		{
		  "duration": 0.0218023255813953,
		  "pitch": 84,
		  "start": 200.908430232558,
		  "velocity": 80
		},
		{
		  "duration": 0.0436046511627907,
		  "pitch": 95,
		  "start": 200.886627906977,
		  "velocity": 80
		},
		{
		  "duration": 0.0436046511627907,
		  "pitch": 83,
		  "start": 200.886627906977,
		  "velocity": 80
		},
		{
		  "duration": 2.09302325581395,
		  "pitch": 81,
		  "start": 200.93023255814,
		  "velocity": 80
		},
		{
		  "duration": 2.09302325581395,
		  "pitch": 93,
		  "start": 200.93023255814,
		  "velocity": 80
		},
		{
		  "duration": 0.232558139534884,
		  "pitch": 81,
		  "start": 203.023255813953,
		  "velocity": 80
		},
		{
		  "duration": 0.232558139534884,
		  "pitch": 93,
		  "start": 203.023255813953,
		  "velocity": 80
		},
		{
		  "duration": 0.232558139534884,
		  "pitch": 81,
		  "start": 203.255813953488,
		  "velocity": 80
		},
		{
		  "duration": 0.232558139534884,
		  "pitch": 93,
		  "start": 203.255813953488,
		  "velocity": 80
		},
		{
		  "duration": 0.232558139534884,
		  "pitch": 81,
		  "start": 203.488372093023,
		  "velocity": 80
		},
		{
		  "duration": 0.232558139534884,
		  "pitch": 93,
		  "start": 203.488372093023,
		  "velocity": 80
		},
		{
		  "duration": 2.09302325581395,
		  "pitch": 81,
		  "start": 203.720930232558,
		  "velocity": 80
		},
		{
		  "duration": 2.09302325581395,
		  "pitch": 93,
		  "start": 203.720930232558,
		  "velocity": 80
		},
		{
		  "duration": 0.232558139534884,
		  "pitch": 81,
		  "start": 205.813953488372,
		  "velocity": 80
		},
		{
		  "duration": 0.232558139534884,
		  "pitch": 93,
		  "start": 205.813953488372,
		  "velocity": 80
		},
		{
		  "duration": 0.232558139534884,
		  "pitch": 81,
		  "start": 206.046511627907,
		  "velocity": 80
		},
		{
		  "duration": 0.232558139534884,
		  "pitch": 93,
		  "start": 206.046511627907,
		  "velocity": 80
		},
		{
		  "duration": 0.232558139534884,
		  "pitch": 81,
		  "start": 206.279069767442,
		  "velocity": 80
		},
		{
		  "duration": 0.232558139534884,
		  "pitch": 93,
		  "start": 206.279069767442,
		  "velocity": 80
		},
		{
		  "duration": 2.09302325581395,
		  "pitch": 79,
		  "start": 206.511627906977,
		  "velocity": 80
		},
		{
		  "duration": 2.09302325581395,
		  "pitch": 91,
		  "start": 206.511627906977,
		  "velocity": 80
		},
		{
		  "duration": 0.232558139534884,
		  "pitch": 81,
		  "start": 208.604651162791,
		  "velocity": 80
		},
		{
		  "duration": 0.232558139534884,
		  "pitch": 93,
		  "start": 208.604651162791,
		  "velocity": 80
		},
		{
		  "duration": 0.232558139534884,
		  "pitch": 81,
		  "start": 208.837209302326,
		  "velocity": 80
		},
		{
		  "duration": 0.232558139534884,
		  "pitch": 93,
		  "start": 208.837209302326,
		  "velocity": 80
		},
		{
		  "duration": 0.232558139534884,
		  "pitch": 81,
		  "start": 209.06976744186,
		  "velocity": 80
		},
		{
		  "duration": 0.232558139534884,
		  "pitch": 93,
		  "start": 209.06976744186,
		  "velocity": 80
		},
		{
		  "duration": 2.09302325581395,
		  "pitch": 79,
		  "start": 209.302325581395,
		  "velocity": 80
		},
		{
		  "duration": 2.09302325581395,
		  "pitch": 91,
		  "start": 209.302325581395,
		  "velocity": 80
		},
		{
		  "duration": 0.232558139534884,
		  "pitch": 84,
		  "start": 211.395348837209,
		  "velocity": 80
		},
		{
		  "duration": 0.232558139534884,
		  "pitch": 96,
		  "start": 211.395348837209,
		  "velocity": 80
		},
		{
		  "duration": 0.232558139534884,
		  "pitch": 84,
		  "start": 211.627906976744,
		  "velocity": 80
		},
		{
		  "duration": 0.232558139534884,
		  "pitch": 96,
		  "start": 211.627906976744,
		  "velocity": 80
		},
		{
		  "duration": 0.232558139534884,
		  "pitch": 84,
		  "start": 211.860465116279,
		  "velocity": 80
		},
		{
		  "duration": 0.232558139534884,
		  "pitch": 96,
		  "start": 211.860465116279,
		  "velocity": 80
		},
		{
		  "duration": 0.232558139534884,
		  "pitch": 93,
		  "start": 212.093023255814,
		  "velocity": 80
		},
		{
		  "duration": 0.232558139534884,
		  "pitch": 81,
		  "start": 212.093023255814,
		  "velocity": 80
		},
		{
		  "duration": 0.116279069767442,
		  "pitch": 88,
		  "start": 212.325581395349,
		  "velocity": 80
		},
		{
		  "duration": 0.116279069767442,
		  "pitch": 76,
		  "start": 212.325581395349,
		  "velocity": 80
		},
		{
		  "duration": 0.116279069767442,
		  "pitch": 81,
		  "start": 212.441860465116,
		  "velocity": 80
		},
		{
		  "duration": 0.116279069767442,
		  "pitch": 69,
		  "start": 212.441860465116,
		  "velocity": 80
		},
		{
		  "duration": 0.116279069767442,
		  "pitch": 88,
		  "start": 212.558139534884,
		  "velocity": 80
		},
		{
		  "duration": 0.116279069767442,
		  "pitch": 76,
		  "start": 212.558139534884,
		  "velocity": 80
		},
		{
		  "duration": 0.116279069767442,
		  "pitch": 93,
		  "start": 212.674418604651,
		  "velocity": 80
		},
		{
		  "duration": 0.116279069767442,
		  "pitch": 81,
		  "start": 212.674418604651,
		  "velocity": 80
		},
		{
		  "duration": 0.116279069767442,
		  "pitch": 91,
		  "start": 212.790697674419,
		  "velocity": 80
		},
		{
		  "duration": 0.116279069767442,
		  "pitch": 79,
		  "start": 212.790697674419,
		  "velocity": 80
		},
		{
		  "duration": 0.116279069767442,
		  "pitch": 86,
		  "start": 212.906976744186,
		  "velocity": 80
		},
		{
		  "duration": 0.116279069767442,
		  "pitch": 74,
		  "start": 212.906976744186,
		  "velocity": 80
		},
		{
		  "duration": 0.116279069767442,
		  "pitch": 88,
		  "start": 213.023255813953,
		  "velocity": 80
		},
		{
		  "duration": 0.116279069767442,
		  "pitch": 76,
		  "start": 213.023255813953,
		  "velocity": 80
		},
		{
		  "duration": 0.116279069767442,
		  "pitch": 95,
		  "start": 213.139534883721,
		  "velocity": 80
		},
		{
		  "duration": 0.116279069767442,
		  "pitch": 83,
		  "start": 213.139534883721,
		  "velocity": 80
		},
		{
		  "duration": 0.116279069767442,
		  "pitch": 91,
		  "start": 213.255813953488,
		  "velocity": 80
		},
		{
		  "duration": 0.116279069767442,
		  "pitch": 79,
		  "start": 213.255813953488,
		  "velocity": 80
		},
		{
		  "duration": 0.116279069767442,
		  "pitch": 88,
		  "start": 213.372093023256,
		  "velocity": 80
		},
		{
		  "duration": 0.116279069767442,
		  "pitch": 76,
		  "start": 213.372093023256,
		  "velocity": 80
		},
		{
		  "duration": 0.232558139534884,
		  "pitch": 96,
		  "start": 213.488372093023,
		  "velocity": 80
		},
		{
		  "duration": 0.232558139534884,
		  "pitch": 84,
		  "start": 213.488372093023,
		  "velocity": 80
		},
		{
		  "duration": 0.116279069767442,
		  "pitch": 91,
		  "start": 213.720930232558,
		  "velocity": 80
		},
		{
		  "duration": 0.116279069767442,
		  "pitch": 79,
		  "start": 213.720930232558,
		  "velocity": 80
		},
		{
		  "duration": 0.116279069767442,
		  "pitch": 88,
		  "start": 213.837209302326,
		  "velocity": 80
		},
		{
		  "duration": 0.116279069767442,
		  "pitch": 76,
		  "start": 213.837209302326,
		  "velocity": 80
		},
		{
		  "duration": 0.116279069767442,
		  "pitch": 91,
		  "start": 213.953488372093,
		  "velocity": 80
		},
		{
		  "duration": 0.116279069767442,
		  "pitch": 79,
		  "start": 213.953488372093,
		  "velocity": 80
		},
		{
		  "duration": 0.116279069767442,
		  "pitch": 96,
		  "start": 214.06976744186,
		  "velocity": 80
		},
		{
		  "duration": 0.116279069767442,
		  "pitch": 84,
		  "start": 214.06976744186,
		  "velocity": 80
		},
		{
		  "duration": 0.116279069767442,
		  "pitch": 95,
		  "start": 214.186046511628,
		  "velocity": 80
		},
		{
		  "duration": 0.116279069767442,
		  "pitch": 83,
		  "start": 214.186046511628,
		  "velocity": 80
		},
		{
		  "duration": 0.116279069767442,
		  "pitch": 86,
		  "start": 214.302325581395,
		  "velocity": 80
		},
		{
		  "duration": 0.116279069767442,
		  "pitch": 74,
		  "start": 214.302325581395,
		  "velocity": 80
		},
		{
		  "duration": 0.116279069767442,
		  "pitch": 91,
		  "start": 214.418604651163,
		  "velocity": 80
		},
		{
		  "duration": 0.116279069767442,
		  "pitch": 79,
		  "start": 214.418604651163,
		  "velocity": 80
		},
		{
		  "duration": 0.116279069767442,
		  "pitch": 98,
		  "start": 214.53488372093,
		  "velocity": 80
		},
		{
		  "duration": 0.116279069767442,
		  "pitch": 86,
		  "start": 214.53488372093,
		  "velocity": 80
		},
		{
		  "duration": 0.116279069767442,
		  "pitch": 95,
		  "start": 214.651162790698,
		  "velocity": 80
		},
		{
		  "duration": 0.116279069767442,
		  "pitch": 83,
		  "start": 214.651162790698,
		  "velocity": 80
		},
		{
		  "duration": 0.116279069767442,
		  "pitch": 91,
		  "start": 214.767441860465,
		  "velocity": 80
		},
		{
		  "duration": 0.116279069767442,
		  "pitch": 79,
		  "start": 214.767441860465,
		  "velocity": 80
		},
		{
		  "duration": 1.04651162790698,
		  "pitch": 96,
		  "start": 214.883720930233,
		  "velocity": 80
		},
		{
		  "duration": 1.04651162790698,
		  "pitch": 84,
		  "start": 214.883720930233,
		  "velocity": 80
		},
		{
		  "duration": 0.348837209302326,
		  "pitch": 96,
		  "start": 215.93023255814,
		  "velocity": 80
		},
		{
		  "duration": 0.348837209302326,
		  "pitch": 84,
		  "start": 215.93023255814,
		  "velocity": 80
		},
		{
		  "duration": 0.697674418604651,
		  "pitch": 96,
		  "start": 216.279069767442,
		  "velocity": 80
		},
		{
		  "duration": 0.697674418604651,
		  "pitch": 84,
		  "start": 216.279069767442,
		  "velocity": 80
		},
		{
		  "duration": 0.697674418604651,
		  "pitch": 95,
		  "start": 216.976744186047,
		  "velocity": 80
		},
		{
		  "duration": 0.697674418604651,
		  "pitch": 83,
		  "start": 216.976744186047,
		  "velocity": 80
		},
		{
		  "duration": 0.348837209302326,
		  "pitch": 96,
		  "start": 217.674418604651,
		  "velocity": 80
		},
		{
		  "duration": 0.348837209302326,
		  "pitch": 84,
		  "start": 217.674418604651,
		  "velocity": 80
		},
		{
		  "duration": 0.232558139534884,
		  "pitch": 93,
		  "start": 220.46511627907,
		  "velocity": 80
		},
		{
		  "duration": 0.232558139534884,
		  "pitch": 81,
		  "start": 220.46511627907,
		  "velocity": 80
		},
		{
		  "duration": 0.116279069767442,
		  "pitch": 88,
		  "start": 220.697674418605,
		  "velocity": 80
		},
		{
		  "duration": 0.116279069767442,
		  "pitch": 76,
		  "start": 220.697674418605,
		  "velocity": 80
		},
		{
		  "duration": 0.116279069767442,
		  "pitch": 81,
		  "start": 220.813953488372,
		  "velocity": 80
		},
		{
		  "duration": 0.116279069767442,
		  "pitch": 69,
		  "start": 220.813953488372,
		  "velocity": 80
		},
		{
		  "duration": 0.116279069767442,
		  "pitch": 88,
		  "start": 220.93023255814,
		  "velocity": 80
		},
		{
		  "duration": 0.116279069767442,
		  "pitch": 76,
		  "start": 220.93023255814,
		  "velocity": 80
		},
		{
		  "duration": 0.116279069767442,
		  "pitch": 93,
		  "start": 221.046511627907,
		  "velocity": 80
		},
		{
		  "duration": 0.116279069767442,
		  "pitch": 81,
		  "start": 221.046511627907,
		  "velocity": 80
		},
		{
		  "duration": 0.116279069767442,
		  "pitch": 91,
		  "start": 221.162790697674,
		  "velocity": 80
		},
		{
		  "duration": 0.116279069767442,
		  "pitch": 79,
		  "start": 221.162790697674,
		  "velocity": 80
		},
		{
		  "duration": 0.116279069767442,
		  "pitch": 86,
		  "start": 221.279069767442,
		  "velocity": 80
		},
		{
		  "duration": 0.116279069767442,
		  "pitch": 74,
		  "start": 221.279069767442,
		  "velocity": 80
		},
		{
		  "duration": 0.116279069767442,
		  "pitch": 88,
		  "start": 221.395348837209,
		  "velocity": 80
		},
		{
		  "duration": 0.116279069767442,
		  "pitch": 76,
		  "start": 221.395348837209,
		  "velocity": 80
		},
		{
		  "duration": 0.116279069767442,
		  "pitch": 95,
		  "start": 221.511627906977,
		  "velocity": 80
		},
		{
		  "duration": 0.116279069767442,
		  "pitch": 83,
		  "start": 221.511627906977,
		  "velocity": 80
		},
		{
		  "duration": 0.116279069767442,
		  "pitch": 91,
		  "start": 221.627906976744,
		  "velocity": 80
		},
		{
		  "duration": 0.116279069767442,
		  "pitch": 79,
		  "start": 221.627906976744,
		  "velocity": 80
		},
		{
		  "duration": 0.116279069767442,
		  "pitch": 88,
		  "start": 221.744186046512,
		  "velocity": 80
		},
		{
		  "duration": 0.116279069767442,
		  "pitch": 76,
		  "start": 221.744186046512,
		  "velocity": 80
		},
		{
		  "duration": 0.232558139534884,
		  "pitch": 96,
		  "start": 221.860465116279,
		  "velocity": 80
		},
		{
		  "duration": 0.232558139534884,
		  "pitch": 84,
		  "start": 221.860465116279,
		  "velocity": 80
		},
		{
		  "duration": 0.116279069767442,
		  "pitch": 91,
		  "start": 222.093023255814,
		  "velocity": 80
		},
		{
		  "duration": 0.116279069767442,
		  "pitch": 79,
		  "start": 222.093023255814,
		  "velocity": 80
		},
		{
		  "duration": 0.116279069767442,
		  "pitch": 88,
		  "start": 222.209302325581,
		  "velocity": 80
		},
		{
		  "duration": 0.116279069767442,
		  "pitch": 76,
		  "start": 222.209302325581,
		  "velocity": 80
		},
		{
		  "duration": 0.116279069767442,
		  "pitch": 91,
		  "start": 222.325581395349,
		  "velocity": 80
		},
		{
		  "duration": 0.116279069767442,
		  "pitch": 79,
		  "start": 222.325581395349,
		  "velocity": 80
		},
		{
		  "duration": 0.116279069767442,
		  "pitch": 96,
		  "start": 222.441860465116,
		  "velocity": 80
		},
		{
		  "duration": 0.116279069767442,
		  "pitch": 84,
		  "start": 222.441860465116,
		  "velocity": 80
		},
		{
		  "duration": 0.116279069767442,
		  "pitch": 95,
		  "start": 222.558139534884,
		  "velocity": 80
		},
		{
		  "duration": 0.116279069767442,
		  "pitch": 83,
		  "start": 222.558139534884,
		  "velocity": 80
		},
		{
		  "duration": 0.116279069767442,
		  "pitch": 86,
		  "start": 222.674418604651,
		  "velocity": 80
		},
		{
		  "duration": 0.116279069767442,
		  "pitch": 74,
		  "start": 222.674418604651,
		  "velocity": 80
		},
		{
		  "duration": 0.116279069767442,
		  "pitch": 91,
		  "start": 222.790697674419,
		  "velocity": 80
		},
		{
		  "duration": 0.116279069767442,
		  "pitch": 79,
		  "start": 222.790697674419,
		  "velocity": 80
		},
		{
		  "duration": 0.116279069767442,
		  "pitch": 98,
		  "start": 222.906976744186,
		  "velocity": 80
		},
		{
		  "duration": 0.116279069767442,
		  "pitch": 86,
		  "start": 222.906976744186,
		  "velocity": 80
		},
		{
		  "duration": 0.116279069767442,
		  "pitch": 95,
		  "start": 223.023255813953,
		  "velocity": 80
		},
		{
		  "duration": 0.116279069767442,
		  "pitch": 83,
		  "start": 223.023255813953,
		  "velocity": 80
		},
		{
		  "duration": 0.116279069767442,
		  "pitch": 91,
		  "start": 223.139534883721,
		  "velocity": 80
		},
		{
		  "duration": 0.116279069767442,
		  "pitch": 79,
		  "start": 223.139534883721,
		  "velocity": 80
		},
		{
		  "duration": 1.04651162790698,
		  "pitch": 96,
		  "start": 223.255813953488,
		  "velocity": 80
		},
		{
		  "duration": 1.04651162790698,
		  "pitch": 84,
		  "start": 223.255813953488,
		  "velocity": 80
		},
		{
		  "duration": 0.348837209302326,
		  "pitch": 96,
		  "start": 224.302325581395,
		  "velocity": 80
		},
		{
		  "duration": 0.348837209302326,
		  "pitch": 84,
		  "start": 224.302325581395,
		  "velocity": 80
		},
		{
		  "duration": 0.697674418604651,
		  "pitch": 96,
		  "start": 224.651162790698,
		  "velocity": 80
		},
		{
		  "duration": 0.697674418604651,
		  "pitch": 84,
		  "start": 224.651162790698,
		  "velocity": 80
		},
		{
		  "duration": 0.697674418604651,
		  "pitch": 95,
		  "start": 225.348837209302,
		  "velocity": 80
		},
		{
		  "duration": 0.697674418604651,
		  "pitch": 83,
		  "start": 225.348837209302,
		  "velocity": 80
		},
		{
		  "duration": 0.348837209302326,
		  "pitch": 96,
		  "start": 226.046511627907,
		  "velocity": 80
		},
		{
		  "duration": 0.348837209302326,
		  "pitch": 84,
		  "start": 226.046511627907,
		  "velocity": 80
		},
		{
		  "duration": 0.116279069767442,
		  "pitch": 81,
		  "start": 228.837209302326,
		  "velocity": 80
		},
		{
		  "duration": 0.116279069767442,
		  "pitch": 69,
		  "start": 228.837209302326,
		  "velocity": 80
		},
		{
		  "duration": 0.116279069767442,
		  "pitch": 83,
		  "start": 228.953488372093,
		  "velocity": 80
		},
		{
		  "duration": 0.116279069767442,
		  "pitch": 71,
		  "start": 228.953488372093,
		  "velocity": 80
		},
		{
		  "duration": 0.116279069767442,
		  "pitch": 84,
		  "start": 229.06976744186,
		  "velocity": 80
		},
		{
		  "duration": 0.116279069767442,
		  "pitch": 72,
		  "start": 229.06976744186,
		  "velocity": 80
		},
		{
		  "duration": 0.116279069767442,
		  "pitch": 86,
		  "start": 229.186046511628,
		  "velocity": 80
		},
		{
		  "duration": 0.116279069767442,
		  "pitch": 74,
		  "start": 229.186046511628,
		  "velocity": 80
		},
		{
		  "duration": 0.116279069767442,
		  "pitch": 84,
		  "start": 229.302325581395,
		  "velocity": 80
		},
		{
		  "duration": 0.116279069767442,
		  "pitch": 72,
		  "start": 229.302325581395,
		  "velocity": 80
		},
		{
		  "duration": 0.116279069767442,
		  "pitch": 83,
		  "start": 229.418604651163,
		  "velocity": 80
		},
		{
		  "duration": 0.116279069767442,
		  "pitch": 71,
		  "start": 229.418604651163,
		  "velocity": 80
		},
		{
		  "duration": 0.116279069767442,
		  "pitch": 84,
		  "start": 229.53488372093,
		  "velocity": 80
		},
		{
		  "duration": 0.116279069767442,
		  "pitch": 72,
		  "start": 229.53488372093,
		  "velocity": 80
		},
		{
		  "duration": 0.116279069767442,
		  "pitch": 86,
		  "start": 229.651162790698,
		  "velocity": 80
		},
		{
		  "duration": 0.116279069767442,
		  "pitch": 74,
		  "start": 229.651162790698,
		  "velocity": 80
		},
		{
		  "duration": 0.116279069767442,
		  "pitch": 88,
		  "start": 229.767441860465,
		  "velocity": 80
		},
		{
		  "duration": 0.116279069767442,
		  "pitch": 76,
		  "start": 229.767441860465,
		  "velocity": 80
		},
		{
		  "duration": 0.116279069767442,
		  "pitch": 90,
		  "start": 229.883720930233,
		  "velocity": 80
		},
		{
		  "duration": 0.116279069767442,
		  "pitch": 78,
		  "start": 229.883720930233,
		  "velocity": 80
		},
		{
		  "duration": 0.116279069767442,
		  "pitch": 88,
		  "start": 230.0,
		  "velocity": 80
		},
		{
		  "duration": 0.116279069767442,
		  "pitch": 76,
		  "start": 230.0,
		  "velocity": 80
		},
		{
		  "duration": 0.116279069767442,
		  "pitch": 86,
		  "start": 230.116279069767,
		  "velocity": 80
		},
		{
		  "duration": 0.116279069767442,
		  "pitch": 74,
		  "start": 230.116279069767,
		  "velocity": 80
		},
		{
		  "duration": 0.116279069767442,
		  "pitch": 88,
		  "start": 230.232558139535,
		  "velocity": 80
		},
		{
		  "duration": 0.116279069767442,
		  "pitch": 76,
		  "start": 230.232558139535,
		  "velocity": 80
		},
		{
		  "duration": 0.116279069767442,
		  "pitch": 86,
		  "start": 230.348837209302,
		  "velocity": 80
		},
		{
		  "duration": 0.116279069767442,
		  "pitch": 74,
		  "start": 230.348837209302,
		  "velocity": 80
		},
		{
		  "duration": 0.116279069767442,
		  "pitch": 84,
		  "start": 230.46511627907,
		  "velocity": 80
		},
		{
		  "duration": 0.116279069767442,
		  "pitch": 72,
		  "start": 230.46511627907,
		  "velocity": 80
		},
		{
		  "duration": 0.116279069767442,
		  "pitch": 86,
		  "start": 230.581395348837,
		  "velocity": 80
		},
		{
		  "duration": 0.116279069767442,
		  "pitch": 74,
		  "start": 230.581395348837,
		  "velocity": 80
		},
		{
		  "duration": 0.116279069767442,
		  "pitch": 84,
		  "start": 230.697674418605,
		  "velocity": 80
		},
		{
		  "duration": 0.116279069767442,
		  "pitch": 72,
		  "start": 230.697674418605,
		  "velocity": 80
		},
		{
		  "duration": 0.116279069767442,
		  "pitch": 83,
		  "start": 230.813953488372,
		  "velocity": 80
		},
		{
		  "duration": 0.116279069767442,
		  "pitch": 71,
		  "start": 230.813953488372,
		  "velocity": 80
		},
		{
		  "duration": 0.116279069767442,
		  "pitch": 84,
		  "start": 230.93023255814,
		  "velocity": 80
		},
		{
		  "duration": 0.116279069767442,
		  "pitch": 72,
		  "start": 230.93023255814,
		  "velocity": 80
		},
		{
		  "duration": 0.116279069767442,
		  "pitch": 83,
		  "start": 231.046511627907,
		  "velocity": 80
		},
		{
		  "duration": 0.116279069767442,
		  "pitch": 71,
		  "start": 231.046511627907,
		  "velocity": 80
		},
		{
		  "duration": 0.116279069767442,
		  "pitch": 81,
		  "start": 231.162790697674,
		  "velocity": 80
		},
		{
		  "duration": 0.116279069767442,
		  "pitch": 69,
		  "start": 231.162790697674,
		  "velocity": 80
		},
		{
		  "duration": 0.116279069767442,
		  "pitch": 80,
		  "start": 231.279069767442,
		  "velocity": 80
		},
		{
		  "duration": 0.116279069767442,
		  "pitch": 68,
		  "start": 231.279069767442,
		  "velocity": 80
		},
		{
		  "duration": 0.116279069767442,
		  "pitch": 83,
		  "start": 231.395348837209,
		  "velocity": 80
		},
		{
		  "duration": 0.116279069767442,
		  "pitch": 71,
		  "start": 231.395348837209,
		  "velocity": 80
		},
		{
		  "duration": 0.116279069767442,
		  "pitch": 86,
		  "start": 231.511627906977,
		  "velocity": 80
		},
		{
		  "duration": 0.116279069767442,
		  "pitch": 74,
		  "start": 231.511627906977,
		  "velocity": 80
		},
		{
		  "duration": 0.116279069767442,
		  "pitch": 81,
		  "start": 231.627906976744,
		  "velocity": 80
		},
		{
		  "duration": 0.116279069767442,
		  "pitch": 69,
		  "start": 231.627906976744,
		  "velocity": 80
		},
		{
		  "duration": 0.116279069767442,
		  "pitch": 83,
		  "start": 231.744186046512,
		  "velocity": 80
		},
		{
		  "duration": 0.116279069767442,
		  "pitch": 71,
		  "start": 231.744186046512,
		  "velocity": 80
		},
		{
		  "duration": 0.116279069767442,
		  "pitch": 84,
		  "start": 231.860465116279,
		  "velocity": 80
		},
		{
		  "duration": 0.116279069767442,
		  "pitch": 72,
		  "start": 231.860465116279,
		  "velocity": 80
		},
		{
		  "duration": 0.116279069767442,
		  "pitch": 86,
		  "start": 231.976744186047,
		  "velocity": 80
		},
		{
		  "duration": 0.116279069767442,
		  "pitch": 74,
		  "start": 231.976744186047,
		  "velocity": 80
		},
		{
		  "duration": 0.116279069767442,
		  "pitch": 84,
		  "start": 232.093023255814,
		  "velocity": 80
		},
		{
		  "duration": 0.116279069767442,
		  "pitch": 72,
		  "start": 232.093023255814,
		  "velocity": 80
		},
		{
		  "duration": 0.116279069767442,
		  "pitch": 83,
		  "start": 232.209302325581,
		  "velocity": 80
		},
		{
		  "duration": 0.116279069767442,
		  "pitch": 71,
		  "start": 232.209302325581,
		  "velocity": 80
		},
		{
		  "duration": 0.116279069767442,
		  "pitch": 84,
		  "start": 232.325581395349,
		  "velocity": 80
		},
		{
		  "duration": 0.116279069767442,
		  "pitch": 72,
		  "start": 232.325581395349,
		  "velocity": 80
		},
		{
		  "duration": 0.116279069767442,
		  "pitch": 86,
		  "start": 232.441860465116,
		  "velocity": 80
		},
		{
		  "duration": 0.116279069767442,
		  "pitch": 74,
		  "start": 232.441860465116,
		  "velocity": 80
		},
		{
		  "duration": 0.116279069767442,
		  "pitch": 88,
		  "start": 232.558139534884,
		  "velocity": 80
		},
		{
		  "duration": 0.116279069767442,
		  "pitch": 76,
		  "start": 232.558139534884,
		  "velocity": 80
		},
		{
		  "duration": 0.116279069767442,
		  "pitch": 90,
		  "start": 232.674418604651,
		  "velocity": 80
		},
		{
		  "duration": 0.116279069767442,
		  "pitch": 78,
		  "start": 232.674418604651,
		  "velocity": 80
		},
		{
		  "duration": 0.116279069767442,
		  "pitch": 88,
		  "start": 232.790697674419,
		  "velocity": 80
		},
		{
		  "duration": 0.116279069767442,
		  "pitch": 76,
		  "start": 232.790697674419,
		  "velocity": 80
		},
		{
		  "duration": 0.116279069767442,
		  "pitch": 86,
		  "start": 232.906976744186,
		  "velocity": 80
		},
		{
		  "duration": 0.116279069767442,
		  "pitch": 74,
		  "start": 232.906976744186,
		  "velocity": 80
		},
		{
		  "duration": 0.116279069767442,
		  "pitch": 88,
		  "start": 233.023255813953,
		  "velocity": 80
		},
		{
		  "duration": 0.116279069767442,
		  "pitch": 76,
		  "start": 233.023255813953,
		  "velocity": 80
		},
		{
		  "duration": 0.116279069767442,
		  "pitch": 84,
		  "start": 233.139534883721,
		  "velocity": 80
		},
		{
		  "duration": 0.116279069767442,
		  "pitch": 72,
		  "start": 233.139534883721,
		  "velocity": 80
		},
		{
		  "duration": 0.116279069767442,
		  "pitch": 81,
		  "start": 233.255813953488,
		  "velocity": 80
		},
		{
		  "duration": 0.116279069767442,
		  "pitch": 69,
		  "start": 233.255813953488,
		  "velocity": 80
		},
		{
		  "duration": 0.116279069767442,
		  "pitch": 80,
		  "start": 233.372093023256,
		  "velocity": 80
		},
		{
		  "duration": 0.116279069767442,
		  "pitch": 68,
		  "start": 233.372093023256,
		  "velocity": 80
		},
		{
		  "duration": 0.116279069767442,
		  "pitch": 83,
		  "start": 233.488372093023,
		  "velocity": 80
		},
		{
		  "duration": 0.116279069767442,
		  "pitch": 71,
		  "start": 233.488372093023,
		  "velocity": 80
		},
		{
		  "duration": 0.116279069767442,
		  "pitch": 86,
		  "start": 233.604651162791,
		  "velocity": 80
		},
		{
		  "duration": 0.116279069767442,
		  "pitch": 74,
		  "start": 233.604651162791,
		  "velocity": 80
		},
		{
		  "duration": 0.116279069767442,
		  "pitch": 84,
		  "start": 233.720930232558,
		  "velocity": 80
		},
		{
		  "duration": 0.116279069767442,
		  "pitch": 72,
		  "start": 233.720930232558,
		  "velocity": 80
		},
		{
		  "duration": 0.116279069767442,
		  "pitch": 81,
		  "start": 233.837209302326,
		  "velocity": 80
		},
		{
		  "duration": 0.116279069767442,
		  "pitch": 69,
		  "start": 233.837209302326,
		  "velocity": 80
		},
		{
		  "duration": 0.116279069767442,
		  "pitch": 80,
		  "start": 233.953488372093,
		  "velocity": 80
		},
		{
		  "duration": 0.116279069767442,
		  "pitch": 68,
		  "start": 233.953488372093,
		  "velocity": 80
		},
		{
		  "duration": 0.348837209302326,
		  "pitch": 81,
		  "start": 234.06976744186,
		  "velocity": 80
		},
		{
		  "duration": 0.348837209302326,
		  "pitch": 69,
		  "start": 234.06976744186,
		  "velocity": 80
		},
		{
		  "duration": 0.116279069767442,
		  "pitch": 81,
		  "start": 234.418604651163,
		  "velocity": 80
		},
		{
		  "duration": 0.116279069767442,
		  "pitch": 69,
		  "start": 234.418604651163,
		  "velocity": 80
		},
		{
		  "duration": 0.116279069767442,
		  "pitch": 83,
		  "start": 234.53488372093,
		  "velocity": 80
		},
		{
		  "duration": 0.116279069767442,
		  "pitch": 71,
		  "start": 234.53488372093,
		  "velocity": 80
		},
		{
		  "duration": 0.116279069767442,
		  "pitch": 84,
		  "start": 234.651162790698,
		  "velocity": 80
		},
		{
		  "duration": 0.116279069767442,
		  "pitch": 72,
		  "start": 234.651162790698,
		  "velocity": 80
		},
		{
		  "duration": 0.116279069767442,
		  "pitch": 86,
		  "start": 234.767441860465,
		  "velocity": 80
		},
		{
		  "duration": 0.116279069767442,
		  "pitch": 74,
		  "start": 234.767441860465,
		  "velocity": 80
		},
		{
		  "duration": 0.116279069767442,
		  "pitch": 84,
		  "start": 234.883720930233,
		  "velocity": 80
		},
		{
		  "duration": 0.116279069767442,
		  "pitch": 72,
		  "start": 234.883720930233,
		  "velocity": 80
		},
		{
		  "duration": 0.116279069767442,
		  "pitch": 83,
		  "start": 235.0,
		  "velocity": 80
		},
		{
		  "duration": 0.116279069767442,
		  "pitch": 71,
		  "start": 235.0,
		  "velocity": 80
		},
		{
		  "duration": 0.116279069767442,
		  "pitch": 84,
		  "start": 235.116279069767,
		  "velocity": 80
		},
		{
		  "duration": 0.116279069767442,
		  "pitch": 72,
		  "start": 235.116279069767,
		  "velocity": 80
		},
		{
		  "duration": 0.116279069767442,
		  "pitch": 86,
		  "start": 235.232558139535,
		  "velocity": 80
		},
		{
		  "duration": 0.116279069767442,
		  "pitch": 74,
		  "start": 235.232558139535,
		  "velocity": 80
		},
		{
		  "duration": 0.116279069767442,
		  "pitch": 88,
		  "start": 235.348837209302,
		  "velocity": 80
		},
		{
		  "duration": 0.116279069767442,
		  "pitch": 76,
		  "start": 235.348837209302,
		  "velocity": 80
		},
		{
		  "duration": 0.116279069767442,
		  "pitch": 90,
		  "start": 235.46511627907,
		  "velocity": 80
		},
		{
		  "duration": 0.116279069767442,
		  "pitch": 78,
		  "start": 235.46511627907,
		  "velocity": 80
		},
		{
		  "duration": 0.116279069767442,
		  "pitch": 88,
		  "start": 235.581395348837,
		  "velocity": 80
		},
		{
		  "duration": 0.116279069767442,
		  "pitch": 76,
		  "start": 235.581395348837,
		  "velocity": 80
		},
		{
		  "duration": 0.116279069767442,
		  "pitch": 86,
		  "start": 235.697674418605,
		  "velocity": 80
		},
		{
		  "duration": 0.116279069767442,
		  "pitch": 74,
		  "start": 235.697674418605,
		  "velocity": 80
		},
		{
		  "duration": 0.116279069767442,
		  "pitch": 88,
		  "start": 235.813953488372,
		  "velocity": 80
		},
		{
		  "duration": 0.116279069767442,
		  "pitch": 76,
		  "start": 235.813953488372,
		  "velocity": 80
		},
		{
		  "duration": 0.116279069767442,
		  "pitch": 86,
		  "start": 235.93023255814,
		  "velocity": 80
		},
		{
		  "duration": 0.116279069767442,
		  "pitch": 74,
		  "start": 235.93023255814,
		  "velocity": 80
		},
		{
		  "duration": 0.116279069767442,
		  "pitch": 84,
		  "start": 236.046511627907,
		  "velocity": 80
		},
		{
		  "duration": 0.116279069767442,
		  "pitch": 72,
		  "start": 236.046511627907,
		  "velocity": 80
		},
		{
		  "duration": 0.116279069767442,
		  "pitch": 86,
		  "start": 236.162790697674,
		  "velocity": 80
		},
		{
		  "duration": 0.116279069767442,
		  "pitch": 74,
		  "start": 236.162790697674,
		  "velocity": 80
		},
		{
		  "duration": 0.116279069767442,
		  "pitch": 84,
		  "start": 236.279069767442,
		  "velocity": 80
		},
		{
		  "duration": 0.116279069767442,
		  "pitch": 72,
		  "start": 236.279069767442,
		  "velocity": 80
		},
		{
		  "duration": 0.116279069767442,
		  "pitch": 83,
		  "start": 236.395348837209,
		  "velocity": 80
		},
		{
		  "duration": 0.116279069767442,
		  "pitch": 71,
		  "start": 236.395348837209,
		  "velocity": 80
		},
		{
		  "duration": 0.116279069767442,
		  "pitch": 84,
		  "start": 236.511627906977,
		  "velocity": 80
		},
		{
		  "duration": 0.116279069767442,
		  "pitch": 72,
		  "start": 236.511627906977,
		  "velocity": 80
		},
		{
		  "duration": 0.116279069767442,
		  "pitch": 83,
		  "start": 236.627906976744,
		  "velocity": 80
		},
		{
		  "duration": 0.116279069767442,
		  "pitch": 71,
		  "start": 236.627906976744,
		  "velocity": 80
		},
		{
		  "duration": 0.116279069767442,
		  "pitch": 81,
		  "start": 236.744186046512,
		  "velocity": 80
		},
		{
		  "duration": 0.116279069767442,
		  "pitch": 69,
		  "start": 236.744186046512,
		  "velocity": 80
		},
		{
		  "duration": 0.116279069767442,
		  "pitch": 80,
		  "start": 236.860465116279,
		  "velocity": 80
		},
		{
		  "duration": 0.116279069767442,
		  "pitch": 68,
		  "start": 236.860465116279,
		  "velocity": 80
		},
		{
		  "duration": 0.116279069767442,
		  "pitch": 83,
		  "start": 236.976744186047,
		  "velocity": 80
		},
		{
		  "duration": 0.116279069767442,
		  "pitch": 71,
		  "start": 236.976744186047,
		  "velocity": 80
		},
		{
		  "duration": 0.116279069767442,
		  "pitch": 86,
		  "start": 237.093023255814,
		  "velocity": 80
		},
		{
		  "duration": 0.116279069767442,
		  "pitch": 74,
		  "start": 237.093023255814,
		  "velocity": 80
		},
		{
		  "duration": 0.116279069767442,
		  "pitch": 81,
		  "start": 237.209302325581,
		  "velocity": 80
		},
		{
		  "duration": 0.116279069767442,
		  "pitch": 69,
		  "start": 237.209302325581,
		  "velocity": 80
		},
		{
		  "duration": 0.116279069767442,
		  "pitch": 83,
		  "start": 237.325581395349,
		  "velocity": 80
		},
		{
		  "duration": 0.116279069767442,
		  "pitch": 71,
		  "start": 237.325581395349,
		  "velocity": 80
		},
		{
		  "duration": 0.116279069767442,
		  "pitch": 84,
		  "start": 237.441860465116,
		  "velocity": 80
		},
		{
		  "duration": 0.116279069767442,
		  "pitch": 72,
		  "start": 237.441860465116,
		  "velocity": 80
		},
		{
		  "duration": 0.116279069767442,
		  "pitch": 86,
		  "start": 237.558139534884,
		  "velocity": 80
		},
		{
		  "duration": 0.116279069767442,
		  "pitch": 74,
		  "start": 237.558139534884,
		  "velocity": 80
		},
		{
		  "duration": 0.116279069767442,
		  "pitch": 84,
		  "start": 237.674418604651,
		  "velocity": 80
		},
		{
		  "duration": 0.116279069767442,
		  "pitch": 72,
		  "start": 237.674418604651,
		  "velocity": 80
		},
		{
		  "duration": 0.116279069767442,
		  "pitch": 83,
		  "start": 237.790697674419,
		  "velocity": 80
		},
		{
		  "duration": 0.116279069767442,
		  "pitch": 71,
		  "start": 237.790697674419,
		  "velocity": 80
		},
		{
		  "duration": 0.116279069767442,
		  "pitch": 84,
		  "start": 237.906976744186,
		  "velocity": 80
		},
		{
		  "duration": 0.116279069767442,
		  "pitch": 72,
		  "start": 237.906976744186,
		  "velocity": 80
		},
		{
		  "duration": 0.116279069767442,
		  "pitch": 86,
		  "start": 238.023255813953,
		  "velocity": 80
		},
		{
		  "duration": 0.116279069767442,
		  "pitch": 74,
		  "start": 238.023255813953,
		  "velocity": 80
		},
		{
		  "duration": 0.116279069767442,
		  "pitch": 88,
		  "start": 238.139534883721,
		  "velocity": 80
		},
		{
		  "duration": 0.116279069767442,
		  "pitch": 76,
		  "start": 238.139534883721,
		  "velocity": 80
		},
		{
		  "duration": 0.116279069767442,
		  "pitch": 90,
		  "start": 238.255813953488,
		  "velocity": 80
		},
		{
		  "duration": 0.116279069767442,
		  "pitch": 78,
		  "start": 238.255813953488,
		  "velocity": 80
		},
		{
		  "duration": 0.116279069767442,
		  "pitch": 88,
		  "start": 238.372093023256,
		  "velocity": 80
		},
		{
		  "duration": 0.116279069767442,
		  "pitch": 76,
		  "start": 238.372093023256,
		  "velocity": 80
		},
		{
		  "duration": 0.116279069767442,
		  "pitch": 86,
		  "start": 238.488372093023,
		  "velocity": 80
		},
		{
		  "duration": 0.116279069767442,
		  "pitch": 74,
		  "start": 238.488372093023,
		  "velocity": 80
		},
		{
		  "duration": 0.116279069767442,
		  "pitch": 88,
		  "start": 238.604651162791,
		  "velocity": 80
		},
		{
		  "duration": 0.116279069767442,
		  "pitch": 76,
		  "start": 238.604651162791,
		  "velocity": 80
		},
		{
		  "duration": 0.116279069767442,
		  "pitch": 84,
		  "start": 238.720930232558,
		  "velocity": 80
		},
		{
		  "duration": 0.116279069767442,
		  "pitch": 72,
		  "start": 238.720930232558,
		  "velocity": 80
		},
		{
		  "duration": 0.116279069767442,
		  "pitch": 81,
		  "start": 238.837209302326,
		  "velocity": 80
		},
		{
		  "duration": 0.116279069767442,
		  "pitch": 69,
		  "start": 238.837209302326,
		  "velocity": 80
		},
		{
		  "duration": 0.116279069767442,
		  "pitch": 80,
		  "start": 238.953488372093,
		  "velocity": 80
		},
		{
		  "duration": 0.116279069767442,
		  "pitch": 68,
		  "start": 238.953488372093,
		  "velocity": 80
		},
		{
		  "duration": 0.116279069767442,
		  "pitch": 83,
		  "start": 239.06976744186,
		  "velocity": 80
		},
		{
		  "duration": 0.116279069767442,
		  "pitch": 71,
		  "start": 239.06976744186,
		  "velocity": 80
		},
		{
		  "duration": 0.116279069767442,
		  "pitch": 86,
		  "start": 239.186046511628,
		  "velocity": 80
		},
		{
		  "duration": 0.116279069767442,
		  "pitch": 74,
		  "start": 239.186046511628,
		  "velocity": 80
		},
		{
		  "duration": 0.116279069767442,
		  "pitch": 84,
		  "start": 239.302325581395,
		  "velocity": 80
		},
		{
		  "duration": 0.116279069767442,
		  "pitch": 72,
		  "start": 239.302325581395,
		  "velocity": 80
		},
		{
		  "duration": 0.116279069767442,
		  "pitch": 81,
		  "start": 239.418604651163,
		  "velocity": 80
		},
		{
		  "duration": 0.116279069767442,
		  "pitch": 69,
		  "start": 239.418604651163,
		  "velocity": 80
		},
		{
		  "duration": 0.116279069767442,
		  "pitch": 80,
		  "start": 239.53488372093,
		  "velocity": 80
		},
		{
		  "duration": 0.116279069767442,
		  "pitch": 68,
		  "start": 239.53488372093,
		  "velocity": 80
		},
		{
		  "duration": 0.348837209302326,
		  "pitch": 81,
		  "start": 239.651162790698,
		  "velocity": 80
		},
		{
		  "duration": 0.348837209302326,
		  "pitch": 69,
		  "start": 239.651162790698,
		  "velocity": 80
		},
		{
		  "duration": 0.697674418604651,
		  "pitch": 86,
		  "start": 240.0,
		  "velocity": 80
		},
		{
		  "duration": 0.697674418604651,
		  "pitch": 74,
		  "start": 240.0,
		  "velocity": 80
		},
		{
		  "duration": 0.348837209302326,
		  "pitch": 86,
		  "start": 240.697674418605,
		  "velocity": 80
		},
		{
		  "duration": 0.348837209302326,
		  "pitch": 74,
		  "start": 240.697674418605,
		  "velocity": 80
		},
		{
		  "duration": 0.348837209302326,
		  "pitch": 86,
		  "start": 241.046511627907,
		  "velocity": 80
		},
		{
		  "duration": 0.348837209302326,
		  "pitch": 74,
		  "start": 241.046511627907,
		  "velocity": 80
		},
		{
		  "duration": 1.3953488372093,
		  "pitch": 88,
		  "start": 241.395348837209,
		  "velocity": 80
		},
		{
		  "duration": 1.3953488372093,
		  "pitch": 76,
		  "start": 241.395348837209,
		  "velocity": 80
		},
		{
		  "duration": 0.348837209302326,
		  "pitch": 98,
		  "start": 242.790697674419,
		  "velocity": 80
		},
		{
		  "duration": 0.348837209302326,
		  "pitch": 86,
		  "start": 242.790697674419,
		  "velocity": 80
		},
		{
		  "duration": 0.348837209302326,
		  "pitch": 98,
		  "start": 243.139534883721,
		  "velocity": 80
		},
		{
		  "duration": 0.348837209302326,
		  "pitch": 86,
		  "start": 243.139534883721,
		  "velocity": 80
		},
		{
		  "duration": 0.348837209302326,
		  "pitch": 96,
		  "start": 243.488372093023,
		  "velocity": 80
		},
		{
		  "duration": 0.348837209302326,
		  "pitch": 84,
		  "start": 243.488372093023,
		  "velocity": 80
		},
		{
		  "duration": 0.348837209302326,
		  "pitch": 98,
		  "start": 243.837209302326,
		  "velocity": 80
		},
		{
		  "duration": 0.348837209302326,
		  "pitch": 86,
		  "start": 243.837209302326,
		  "velocity": 80
		},
		{
		  "duration": 1.3953488372093,
		  "pitch": 100,
		  "start": 244.186046511628,
		  "velocity": 80
		},
		{
		  "duration": 1.3953488372093,
		  "pitch": 88,
		  "start": 244.186046511628,
		  "velocity": 80
		},
		{
		  "duration": 0.697674418604651,
		  "pitch": 88,
		  "start": 245.581395348837,
		  "velocity": 80
		},
		{
		  "duration": 0.697674418604651,
		  "pitch": 76,
		  "start": 245.581395348837,
		  "velocity": 80
		},
		{
		  "duration": 0.348837209302326,
		  "pitch": 88,
		  "start": 246.279069767442,
		  "velocity": 80
		},
		{
		  "duration": 0.348837209302326,
		  "pitch": 76,
		  "start": 246.279069767442,
		  "velocity": 80
		},
		{
		  "duration": 0.348837209302326,
		  "pitch": 88,
		  "start": 246.627906976744,
		  "velocity": 80
		},
		{
		  "duration": 0.348837209302326,
		  "pitch": 76,
		  "start": 246.627906976744,
		  "velocity": 80
		},
		{
		  "duration": 1.3953488372093,
		  "pitch": 89,
		  "start": 246.976744186047,
		  "velocity": 80
		},
		{
		  "duration": 1.3953488372093,
		  "pitch": 77,
		  "start": 246.976744186047,
		  "velocity": 80
		},
		{
		  "duration": 0.348837209302326,
		  "pitch": 100,
		  "start": 248.372093023256,
		  "velocity": 80
		},
		{
		  "duration": 0.348837209302326,
		  "pitch": 88,
		  "start": 248.372093023256,
		  "velocity": 80
		},
		{
		  "duration": 0.348837209302326,
		  "pitch": 100,
		  "start": 248.720930232558,
		  "velocity": 80
		},
		{
		  "duration": 0.348837209302326,
		  "pitch": 88,
		  "start": 248.720930232558,
		  "velocity": 80
		},
		{
		  "duration": 0.348837209302326,
		  "pitch": 98,
		  "start": 249.06976744186,
		  "velocity": 80
		},
		{
		  "duration": 0.348837209302326,
		  "pitch": 86,
		  "start": 249.06976744186,
		  "velocity": 80
		},
		{
		  "duration": 0.348837209302326,
		  "pitch": 100,
		  "start": 249.418604651163,
		  "velocity": 80
		},
		{
		  "duration": 0.348837209302326,
		  "pitch": 88,
		  "start": 249.418604651163,
		  "velocity": 80
		},
		{
		  "duration": 1.3953488372093,
		  "pitch": 101,
		  "start": 249.767441860465,
		  "velocity": 80
		},
		{
		  "duration": 1.3953488372093,
		  "pitch": 89,
		  "start": 249.767441860465,
		  "velocity": 80
		},
		{
		  "duration": 0.116279069767442,
		  "pitch": 81,
		  "start": 251.162790697674,
		  "velocity": 80
		},
		{
		  "duration": 0.116279069767442,
		  "pitch": 81,
		  "start": 251.395348837209,
		  "velocity": 80
		},
		{
		  "duration": 0.348837209302326,
		  "pitch": 79,
		  "start": 251.511627906977,
		  "velocity": 80
		},
		{
		  "duration": 0.116279069767442,
		  "pitch": 81,
		  "start": 251.860465116279,
		  "velocity": 80
		},
		{
		  "duration": 0.116279069767442,
		  "pitch": 81,
		  "start": 252.093023255814,
		  "velocity": 80
		},
		{
		  "duration": 0.348837209302326,
		  "pitch": 82,
		  "start": 252.209302325581,
		  "velocity": 80
		},
		{
		  "duration": 0.116279069767442,
		  "pitch": 81,
		  "start": 252.558139534884,
		  "velocity": 80
		},
		{
		  "duration": 0.116279069767442,
		  "pitch": 81,
		  "start": 252.790697674419,
		  "velocity": 80
		},
		{
		  "duration": 0.116279069767442,
		  "pitch": 81,
		  "start": 252.906976744186,
		  "velocity": 80
		},
		{
		  "duration": 0.116279069767442,
		  "pitch": 81,
		  "start": 253.023255813953,
		  "velocity": 80
		},
		{
		  "duration": 0.116279069767442,
		  "pitch": 81,
		  "start": 253.139534883721,
		  "velocity": 80
		},
		{
		  "duration": 0.116279069767442,
		  "pitch": 82,
		  "start": 253.255813953488,
		  "velocity": 80
		},
		{
		  "duration": 0.116279069767442,
		  "pitch": 82,
		  "start": 253.488372093023,
		  "velocity": 80
		},
		{
		  "duration": 0.348837209302326,
		  "pitch": 81,
		  "start": 253.604651162791,
		  "velocity": 80
		},
		{
		  "duration": 0.116279069767442,
		  "pitch": 81,
		  "start": 253.953488372093,
		  "velocity": 80
		},
		{
		  "duration": 0.697674418604651,
		  "pitch": 81,
		  "start": 254.302325581395,
		  "velocity": 80
		},
		{
		  "duration": 0.116279069767442,
		  "pitch": 79,
		  "start": 255.0,
		  "velocity": 80
		},
		{
		  "duration": 0.116279069767442,
		  "pitch": 79,
		  "start": 255.116279069767,
		  "velocity": 80
		},
		{
		  "duration": 0.116279069767442,
		  "pitch": 79,
		  "start": 255.232558139535,
		  "velocity": 80
		},
		{
		  "duration": 1.3953488372093,
		  "pitch": 81,
		  "start": 255.348837209302,
		  "velocity": 80
		},
		{
		  "duration": 0.116279069767442,
		  "pitch": 76,
		  "start": 256.744186046512,
		  "velocity": 80
		},
		{
		  "duration": 0.116279069767442,
		  "pitch": 76,
		  "start": 256.976744186047,
		  "velocity": 80
		},
		{
		  "duration": 0.348837209302326,
		  "pitch": 74,
		  "start": 257.093023255814,
		  "velocity": 80
		},
		{
		  "duration": 0.116279069767442,
		  "pitch": 76,
		  "start": 257.441860465116,
		  "velocity": 80
		},
		{
		  "duration": 0.116279069767442,
		  "pitch": 76,
		  "start": 257.674418604651,
		  "velocity": 80
		},
		{
		  "duration": 0.348837209302326,
		  "pitch": 77,
		  "start": 257.790697674419,
		  "velocity": 80
		},
		{
		  "duration": 0.116279069767442,
		  "pitch": 76,
		  "start": 258.139534883721,
		  "velocity": 80
		},
		{
		  "duration": 0.116279069767442,
		  "pitch": 76,
		  "start": 258.372093023256,
		  "velocity": 80
		},
		{
		  "duration": 0.116279069767442,
		  "pitch": 76,
		  "start": 258.488372093023,
		  "velocity": 80
		},
		{
		  "duration": 0.116279069767442,
		  "pitch": 76,
		  "start": 258.604651162791,
		  "velocity": 80
		},
		{
		  "duration": 0.116279069767442,
		  "pitch": 76,
		  "start": 258.720930232558,
		  "velocity": 80
		},
		{
		  "duration": 0.116279069767442,
		  "pitch": 77,
		  "start": 258.837209302326,
		  "velocity": 80
		},
		{
		  "duration": 0.116279069767442,
		  "pitch": 77,
		  "start": 259.06976744186,
		  "velocity": 80
		},
		{
		  "duration": 0.348837209302326,
		  "pitch": 76,
		  "start": 259.186046511628,
		  "velocity": 80
		},
		{
		  "duration": 0.116279069767442,
		  "pitch": 76,
		  "start": 259.53488372093,
		  "velocity": 80
		},
		{
		  "duration": 0.697674418604651,
		  "pitch": 76,
		  "start": 259.883720930233,
		  "velocity": 80
		},
		{
		  "duration": 0.116279069767442,
		  "pitch": 74,
		  "start": 260.581395348837,
		  "velocity": 80
		},
		{
		  "duration": 0.116279069767442,
		  "pitch": 74,
		  "start": 260.697674418605,
		  "velocity": 80
		},
		{
		  "duration": 0.116279069767442,
		  "pitch": 74,
		  "start": 260.813953488372,
		  "velocity": 80
		},
		{
		  "duration": 1.3953488372093,
		  "pitch": 76,
		  "start": 260.93023255814,
		  "velocity": 80
		},
		{
		  "duration": 0.116279069767442,
		  "pitch": 81,
		  "start": 262.325581395349,
		  "velocity": 80
		},
		{
		  "duration": 0.116279069767442,
		  "pitch": 81,
		  "start": 262.558139534884,
		  "velocity": 80
		},
		{
		  "duration": 0.348837209302326,
		  "pitch": 79,
		  "start": 262.674418604651,
		  "velocity": 80
		},
		{
		  "duration": 0.116279069767442,
		  "pitch": 81,
		  "start": 263.023255813953,
		  "velocity": 80
		},
		{
		  "duration": 0.116279069767442,
		  "pitch": 81,
		  "start": 263.255813953488,
		  "velocity": 80
		},
		{
		  "duration": 0.348837209302326,
		  "pitch": 82,
		  "start": 263.372093023256,
		  "velocity": 80
		},
		{
		  "duration": 0.116279069767442,
		  "pitch": 81,
		  "start": 263.720930232558,
		  "velocity": 80
		},
		{
		  "duration": 0.116279069767442,
		  "pitch": 81,
		  "start": 263.953488372093,
		  "velocity": 80
		},
		{
		  "duration": 0.116279069767442,
		  "pitch": 81,
		  "start": 264.06976744186,
		  "velocity": 80
		},
		{
		  "duration": 0.116279069767442,
		  "pitch": 81,
		  "start": 264.186046511628,
		  "velocity": 80
		},
		{
		  "duration": 0.116279069767442,
		  "pitch": 81,
		  "start": 264.302325581395,
		  "velocity": 80
		},
		{
		  "duration": 0.116279069767442,
		  "pitch": 82,
		  "start": 264.418604651163,
		  "velocity": 80
		},
		{
		  "duration": 0.116279069767442,
		  "pitch": 82,
		  "start": 264.651162790698,
		  "velocity": 80
		},
		{
		  "duration": 0.348837209302326,
		  "pitch": 81,
		  "start": 264.767441860465,
		  "velocity": 80
		},
		{
		  "duration": 0.116279069767442,
		  "pitch": 81,
		  "start": 265.116279069767,
		  "velocity": 80
		},
		{
		  "duration": 0.697674418604651,
		  "pitch": 81,
		  "start": 265.46511627907,
		  "velocity": 80
		},
		{
		  "duration": 0.116279069767442,
		  "pitch": 79,
		  "start": 266.162790697674,
		  "velocity": 80
		},
		{
		  "duration": 0.116279069767442,
		  "pitch": 79,
		  "start": 266.279069767442,
		  "velocity": 80
		},
		{
		  "duration": 0.116279069767442,
		  "pitch": 79,
		  "start": 266.395348837209,
		  "velocity": 80
		},
		{
		  "duration": 1.3953488372093,
		  "pitch": 81,
		  "start": 266.511627906977,
		  "velocity": 80
		},
		{
		  "duration": 0.116279069767442,
		  "pitch": 76,
		  "start": 267.906976744186,
		  "velocity": 80
		},
		{
		  "duration": 0.116279069767442,
		  "pitch": 76,
		  "start": 268.139534883721,
		  "velocity": 80
		},
		{
		  "duration": 0.348837209302326,
		  "pitch": 74,
		  "start": 268.255813953488,
		  "velocity": 80
		},
		{
		  "duration": 0.116279069767442,
		  "pitch": 76,
		  "start": 268.604651162791,
		  "velocity": 80
		},
		{
		  "duration": 0.116279069767442,
		  "pitch": 76,
		  "start": 268.837209302326,
		  "velocity": 80
		},
		{
		  "duration": 0.348837209302326,
		  "pitch": 77,
		  "start": 268.953488372093,
		  "velocity": 80
		},
		{
		  "duration": 0.116279069767442,
		  "pitch": 76,
		  "start": 269.302325581395,
		  "velocity": 80
		},
		{
		  "duration": 0.116279069767442,
		  "pitch": 76,
		  "start": 269.53488372093,
		  "velocity": 80
		},
		{
		  "duration": 0.116279069767442,
		  "pitch": 76,
		  "start": 269.651162790698,
		  "velocity": 80
		},
		{
		  "duration": 0.116279069767442,
		  "pitch": 76,
		  "start": 269.767441860465,
		  "velocity": 80
		},
		{
		  "duration": 0.116279069767442,
		  "pitch": 76,
		  "start": 269.883720930233,
		  "velocity": 80
		},
		{
		  "duration": 0.116279069767442,
		  "pitch": 77,
		  "start": 270.0,
		  "velocity": 80
		},
		{
		  "duration": 0.116279069767442,
		  "pitch": 77,
		  "start": 270.232558139535,
		  "velocity": 80
		},
		{
		  "duration": 0.348837209302326,
		  "pitch": 76,
		  "start": 270.348837209302,
		  "velocity": 80
		},
		{
		  "duration": 0.116279069767442,
		  "pitch": 76,
		  "start": 270.697674418605,
		  "velocity": 80
		},
		{
		  "duration": 0.697674418604651,
		  "pitch": 76,
		  "start": 271.046511627907,
		  "velocity": 80
		},
		{
		  "duration": 0.116279069767442,
		  "pitch": 74,
		  "start": 271.744186046512,
		  "velocity": 80
		},
		{
		  "duration": 0.116279069767442,
		  "pitch": 74,
		  "start": 271.860465116279,
		  "velocity": 80
		},
		{
		  "duration": 0.116279069767442,
		  "pitch": 74,
		  "start": 271.976744186047,
		  "velocity": 80
		},
		{
		  "duration": 1.3953488372093,
		  "pitch": 76,
		  "start": 272.093023255814,
		  "velocity": 80
		},
		{
		  "duration": 0.116279069767442,
		  "pitch": 81,
		  "start": 273.488372093023,
		  "velocity": 80
		},
		{
		  "duration": 0.116279069767442,
		  "pitch": 81,
		  "start": 273.720930232558,
		  "velocity": 80
		},
		{
		  "duration": 0.348837209302326,
		  "pitch": 79,
		  "start": 273.837209302326,
		  "velocity": 80
		},
		{
		  "duration": 0.116279069767442,
		  "pitch": 81,
		  "start": 274.186046511628,
		  "velocity": 80
		},
		{
		  "duration": 0.116279069767442,
		  "pitch": 81,
		  "start": 274.418604651163,
		  "velocity": 80
		},
		{
		  "duration": 0.348837209302326,
		  "pitch": 82,
		  "start": 274.53488372093,
		  "velocity": 80
		},
		{
		  "duration": 0.116279069767442,
		  "pitch": 81,
		  "start": 274.883720930233,
		  "velocity": 80
		},
		{
		  "duration": 0.116279069767442,
		  "pitch": 81,
		  "start": 275.116279069767,
		  "velocity": 80
		},
		{
		  "duration": 0.116279069767442,
		  "pitch": 81,
		  "start": 275.232558139535,
		  "velocity": 80
		},
		{
		  "duration": 0.116279069767442,
		  "pitch": 81,
		  "start": 275.348837209302,
		  "velocity": 80
		},
		{
		  "duration": 0.116279069767442,
		  "pitch": 81,
		  "start": 275.46511627907,
		  "velocity": 80
		},
		{
		  "duration": 0.116279069767442,
		  "pitch": 82,
		  "start": 275.581395348837,
		  "velocity": 80
		},
		{
		  "duration": 0.116279069767442,
		  "pitch": 82,
		  "start": 275.813953488372,
		  "velocity": 80
		},
		{
		  "duration": 0.348837209302326,
		  "pitch": 81,
		  "start": 275.93023255814,
		  "velocity": 80
		},
		{
		  "duration": 0.116279069767442,
		  "pitch": 81,
		  "start": 276.279069767442,
		  "velocity": 80
		},
		{
		  "duration": 0.697674418604651,
		  "pitch": 81,
		  "start": 276.627906976744,
		  "velocity": 80
		},
		{
		  "duration": 0.116279069767442,
		  "pitch": 79,
		  "start": 277.325581395349,
		  "velocity": 80
		},
		{
		  "duration": 0.116279069767442,
		  "pitch": 79,
		  "start": 277.441860465116,
		  "velocity": 80
		},
		{
		  "duration": 0.116279069767442,
		  "pitch": 79,
		  "start": 277.558139534884,
		  "velocity": 80
		},
		{
		  "duration": 1.3953488372093,
		  "pitch": 81,
		  "start": 277.674418604651,
		  "velocity": 80
		},
		{
		  "duration": 0.116279069767442,
		  "pitch": 76,
		  "start": 279.06976744186,
		  "velocity": 80
		},
		{
		  "duration": 0.116279069767442,
		  "pitch": 76,
		  "start": 279.302325581395,
		  "velocity": 80
		},
		{
		  "duration": 0.348837209302326,
		  "pitch": 74,
		  "start": 279.418604651163,
		  "velocity": 80
		},
		{
		  "duration": 0.116279069767442,
		  "pitch": 76,
		  "start": 279.767441860465,
		  "velocity": 80
		},
		{
		  "duration": 0.116279069767442,
		  "pitch": 76,
		  "start": 280.0,
		  "velocity": 80
		},
		{
		  "duration": 0.348837209302326,
		  "pitch": 77,
		  "start": 280.116279069767,
		  "velocity": 80
		},
		{
		  "duration": 0.116279069767442,
		  "pitch": 76,
		  "start": 280.46511627907,
		  "velocity": 80
		},
		{
		  "duration": 0.116279069767442,
		  "pitch": 76,
		  "start": 280.697674418605,
		  "velocity": 80
		},
		{
		  "duration": 0.116279069767442,
		  "pitch": 76,
		  "start": 280.813953488372,
		  "velocity": 80
		},
		{
		  "duration": 0.116279069767442,
		  "pitch": 76,
		  "start": 280.93023255814,
		  "velocity": 80
		},
		{
		  "duration": 0.116279069767442,
		  "pitch": 76,
		  "start": 281.046511627907,
		  "velocity": 80
		},
		{
		  "duration": 0.116279069767442,
		  "pitch": 77,
		  "start": 281.162790697674,
		  "velocity": 80
		},
		{
		  "duration": 0.116279069767442,
		  "pitch": 77,
		  "start": 281.395348837209,
		  "velocity": 80
		},
		{
		  "duration": 0.348837209302326,
		  "pitch": 76,
		  "start": 281.511627906977,
		  "velocity": 80
		},
		{
		  "duration": 0.697674418604651,
		  "pitch": 76,
		  "start": 281.860465116279,
		  "velocity": 80
		},
		{
		  "duration": 0.697674418604651,
		  "pitch": 78,
		  "start": 282.558139534884,
		  "velocity": 80
		},
		{
		  "duration": 0.697674418604651,
		  "pitch": 79,
		  "start": 283.255813953488,
		  "velocity": 80
		},
		{
		  "duration": 0.697674418604651,
		  "pitch": 80,
		  "start": 283.953488372093,
		  "velocity": 80
		},
		{
		  "duration": 2.7906976744186,
		  "pitch": 81,
		  "start": 284.651162790698,
		  "velocity": 80
		},
		{
		  "duration": 0.0436046511627907,
		  "pitch": 43,
		  "start": 295.116279069767,
		  "velocity": 80
		},
		{
		  "duration": 0.0436046511627907,
		  "pitch": 31,
		  "start": 295.116279069767,
		  "velocity": 80
		},
		{
		  "duration": 0.0436046511627907,
		  "pitch": 45,
		  "start": 295.138081395349,
		  "velocity": 80
		},
		{
		  "duration": 0.0436046511627907,
		  "pitch": 33,
		  "start": 295.138081395349,
		  "velocity": 80
		},
		{
		  "duration": 0.0436046511627907,
		  "pitch": 47,
		  "start": 295.15988372093,
		  "velocity": 80
		},
		{
		  "duration": 0.0436046511627907,
		  "pitch": 35,
		  "start": 295.15988372093,
		  "velocity": 80
		},
		{
		  "duration": 0.0436046511627907,
		  "pitch": 48,
		  "start": 295.181686046512,
		  "velocity": 80
		},
		{
		  "duration": 0.0436046511627907,
		  "pitch": 36,
		  "start": 295.181686046512,
		  "velocity": 80
		},
		{
		  "duration": 0.0436046511627907,
		  "pitch": 50,
		  "start": 295.203488372093,
		  "velocity": 80
		},
		{
		  "duration": 0.0436046511627907,
		  "pitch": 38,
		  "start": 295.203488372093,
		  "velocity": 80
		},
		{
		  "duration": 0.0436046511627907,
		  "pitch": 52,
		  "start": 295.225290697674,
		  "velocity": 80
		},
		{
		  "duration": 0.0436046511627907,
		  "pitch": 40,
		  "start": 295.225290697674,
		  "velocity": 80
		},
		{
		  "duration": 0.0436046511627907,
		  "pitch": 53,
		  "start": 295.247093023256,
		  "velocity": 80
		},
		{
		  "duration": 0.0436046511627907,
		  "pitch": 41,
		  "start": 295.247093023256,
		  "velocity": 80
		},
		{
		  "duration": 0.0436046511627907,
		  "pitch": 55,
		  "start": 295.268895348837,
		  "velocity": 80
		},
		{
		  "duration": 0.0436046511627907,
		  "pitch": 43,
		  "start": 295.268895348837,
		  "velocity": 80
		},
		{
		  "duration": 0.0436046511627907,
		  "pitch": 57,
		  "start": 295.290697674419,
		  "velocity": 80
		},
		{
		  "duration": 0.0436046511627907,
		  "pitch": 45,
		  "start": 295.290697674419,
		  "velocity": 80
		},
		{
		  "duration": 0.0436046511627907,
		  "pitch": 59,
		  "start": 295.3125,
		  "velocity": 80
		},
		{
		  "duration": 0.0436046511627907,
		  "pitch": 47,
		  "start": 295.3125,
		  "velocity": 80
		},
		{
		  "duration": 0.0436046511627907,
		  "pitch": 60,
		  "start": 295.334302325581,
		  "velocity": 80
		},
		{
		  "duration": 0.0436046511627907,
		  "pitch": 48,
		  "start": 295.334302325581,
		  "velocity": 80
		},
		{
		  "duration": 0.0436046511627907,
		  "pitch": 62,
		  "start": 295.356104651163,
		  "velocity": 80
		},
		{
		  "duration": 0.0436046511627907,
		  "pitch": 50,
		  "start": 295.356104651163,
		  "velocity": 80
		},
		{
		  "duration": 0.0436046511627907,
		  "pitch": 64,
		  "start": 295.377906976744,
		  "velocity": 80
		},
		{
		  "duration": 0.0436046511627907,
		  "pitch": 52,
		  "start": 295.377906976744,
		  "velocity": 80
		},
		{
		  "duration": 0.0436046511627907,
		  "pitch": 65,
		  "start": 295.399709302326,
		  "velocity": 80
		},
		{
		  "duration": 0.0436046511627907,
		  "pitch": 53,
		  "start": 295.399709302326,
		  "velocity": 80
		},
		{
		  "duration": 0.0436046511627907,
		  "pitch": 67,
		  "start": 295.421511627907,
		  "velocity": 80
		},
		{
		  "duration": 0.0436046511627907,
		  "pitch": 55,
		  "start": 295.421511627907,
		  "velocity": 80
		},
		{
		  "duration": 0.0436046511627907,
		  "pitch": 69,
		  "start": 295.443313953488,
		  "velocity": 80
		},
		{
		  "duration": 0.0436046511627907,
		  "pitch": 57,
		  "start": 295.443313953488,
		  "velocity": 80
		},
		{
		  "duration": 0.0436046511627907,
		  "pitch": 71,
		  "start": 295.46511627907,
		  "velocity": 80
		},
		{
		  "duration": 0.0436046511627907,
		  "pitch": 59,
		  "start": 295.46511627907,
		  "velocity": 80
		},
		{
		  "duration": 0.0436046511627907,
		  "pitch": 72,
		  "start": 295.486918604651,
		  "velocity": 80
		},
		{
		  "duration": 0.0436046511627907,
		  "pitch": 60,
		  "start": 295.486918604651,
		  "velocity": 80
		},
		{
		  "duration": 0.0436046511627907,
		  "pitch": 74,
		  "start": 295.508720930233,
		  "velocity": 80
		},
		{
		  "duration": 0.0436046511627907,
		  "pitch": 62,
		  "start": 295.508720930233,
		  "velocity": 80
		},
		{
		  "duration": 0.0436046511627907,
		  "pitch": 76,
		  "start": 295.530523255814,
		  "velocity": 80
		},
		{
		  "duration": 0.0436046511627907,
		  "pitch": 64,
		  "start": 295.530523255814,
		  "velocity": 80
		},
		{
		  "duration": 0.0436046511627907,
		  "pitch": 77,
		  "start": 295.552325581395,
		  "velocity": 80
		},
		{
		  "duration": 0.0436046511627907,
		  "pitch": 65,
		  "start": 295.552325581395,
		  "velocity": 80
		},
		{
		  "duration": 0.0436046511627907,
		  "pitch": 79,
		  "start": 295.574127906977,
		  "velocity": 80
		},
		{
		  "duration": 0.0436046511627907,
		  "pitch": 67,
		  "start": 295.574127906977,
		  "velocity": 80
		},
		{
		  "duration": 0.0436046511627907,
		  "pitch": 81,
		  "start": 295.595930232558,
		  "velocity": 80
		},
		{
		  "duration": 0.0436046511627907,
		  "pitch": 69,
		  "start": 295.595930232558,
		  "velocity": 80
		},
		{
		  "duration": 0.0436046511627907,
		  "pitch": 83,
		  "start": 295.61773255814,
		  "velocity": 80
		},
		{
		  "duration": 0.0436046511627907,
		  "pitch": 71,
		  "start": 295.61773255814,
		  "velocity": 80
		},
		{
		  "duration": 0.0436046511627907,
		  "pitch": 84,
		  "start": 295.639534883721,
		  "velocity": 80
		},
		{
		  "duration": 0.0436046511627907,
		  "pitch": 72,
		  "start": 295.639534883721,
		  "velocity": 80
		},
		{
		  "duration": 0.0436046511627907,
		  "pitch": 86,
		  "start": 295.661337209302,
		  "velocity": 80
		},
		{
		  "duration": 0.0436046511627907,
		  "pitch": 74,
		  "start": 295.661337209302,
		  "velocity": 80
		},
		{
		  "duration": 0.0436046511627907,
		  "pitch": 88,
		  "start": 295.683139534884,
		  "velocity": 80
		},
		{
		  "duration": 0.0436046511627907,
		  "pitch": 76,
		  "start": 295.683139534884,
		  "velocity": 80
		},
		{
		  "duration": 0.0436046511627907,
		  "pitch": 89,
		  "start": 295.704941860465,
		  "velocity": 80
		},
		{
		  "duration": 0.0436046511627907,
		  "pitch": 77,
		  "start": 295.704941860465,
		  "velocity": 80
		},
		{
		  "duration": 0.0436046511627907,
		  "pitch": 91,
		  "start": 295.726744186047,
		  "velocity": 80
		},
		{
		  "duration": 0.0436046511627907,
		  "pitch": 79,
		  "start": 295.726744186047,
		  "velocity": 80
		},
		{
		  "duration": 0.0436046511627907,
		  "pitch": 93,
		  "start": 295.748546511628,
		  "velocity": 80
		},
		{
		  "duration": 0.0436046511627907,
		  "pitch": 81,
		  "start": 295.748546511628,
		  "velocity": 80
		},
		{
		  "duration": 0.0218023255813953,
		  "pitch": 96,
		  "start": 295.792151162791,
		  "velocity": 80
		},
		{
		  "duration": 0.0218023255813953,
		  "pitch": 84,
		  "start": 295.792151162791,
		  "velocity": 80
		},
		{
		  "duration": 0.0436046511627907,
		  "pitch": 95,
		  "start": 295.770348837209,
		  "velocity": 80
		},
		{
		  "duration": 0.0436046511627907,
		  "pitch": 83,
		  "start": 295.770348837209,
		  "velocity": 80
		},
		{
		  "duration": 2.09302325581395,
		  "pitch": 81,
		  "start": 295.813953488372,
		  "velocity": 80
		},
		{
		  "duration": 2.09302325581395,
		  "pitch": 93,
		  "start": 295.813953488372,
		  "velocity": 80
		},
		{
		  "duration": 0.232558139534884,
		  "pitch": 81,
		  "start": 297.906976744186,
		  "velocity": 80
		},
		{
		  "duration": 0.232558139534884,
		  "pitch": 93,
		  "start": 297.906976744186,
		  "velocity": 80
		},
		{
		  "duration": 0.232558139534884,
		  "pitch": 81,
		  "start": 298.139534883721,
		  "velocity": 80
		},
		{
		  "duration": 0.232558139534884,
		  "pitch": 93,
		  "start": 298.139534883721,
		  "velocity": 80
		},
		{
		  "duration": 0.232558139534884,
		  "pitch": 81,
		  "start": 298.372093023256,
		  "velocity": 80
		},
		{
		  "duration": 0.232558139534884,
		  "pitch": 93,
		  "start": 298.372093023256,
		  "velocity": 80
		},
		{
		  "duration": 2.09302325581395,
		  "pitch": 81,
		  "start": 298.604651162791,
		  "velocity": 80
		},
		{
		  "duration": 2.09302325581395,
		  "pitch": 93,
		  "start": 298.604651162791,
		  "velocity": 80
		},
		{
		  "duration": 0.232558139534884,
		  "pitch": 81,
		  "start": 300.697674418605,
		  "velocity": 80
		},
		{
		  "duration": 0.232558139534884,
		  "pitch": 93,
		  "start": 300.697674418605,
		  "velocity": 80
		},
		{
		  "duration": 0.232558139534884,
		  "pitch": 81,
		  "start": 300.93023255814,
		  "velocity": 80
		},
		{
		  "duration": 0.232558139534884,
		  "pitch": 93,
		  "start": 300.93023255814,
		  "velocity": 80
		},
		{
		  "duration": 0.232558139534884,
		  "pitch": 81,
		  "start": 301.162790697674,
		  "velocity": 80
		},
		{
		  "duration": 0.232558139534884,
		  "pitch": 93,
		  "start": 301.162790697674,
		  "velocity": 80
		},
		{
		  "duration": 2.09302325581395,
		  "pitch": 79,
		  "start": 301.395348837209,
		  "velocity": 80
		},
		{
		  "duration": 2.09302325581395,
		  "pitch": 91,
		  "start": 301.395348837209,
		  "velocity": 80
		},
		{
		  "duration": 0.232558139534884,
		  "pitch": 81,
		  "start": 303.488372093023,
		  "velocity": 80
		},
		{
		  "duration": 0.232558139534884,
		  "pitch": 93,
		  "start": 303.488372093023,
		  "velocity": 80
		},
		{
		  "duration": 0.232558139534884,
		  "pitch": 81,
		  "start": 303.720930232558,
		  "velocity": 80
		},
		{
		  "duration": 0.232558139534884,
		  "pitch": 93,
		  "start": 303.720930232558,
		  "velocity": 80
		},
		{
		  "duration": 0.232558139534884,
		  "pitch": 81,
		  "start": 303.953488372093,
		  "velocity": 80
		},
		{
		  "duration": 0.232558139534884,
		  "pitch": 93,
		  "start": 303.953488372093,
		  "velocity": 80
		},
		{
		  "duration": 1.3953488372093,
		  "pitch": 79,
		  "start": 304.186046511628,
		  "velocity": 80
		},
		{
		  "duration": 1.3953488372093,
		  "pitch": 91,
		  "start": 304.186046511628,
		  "velocity": 80
		}
	  ]
	},
	{
	  "cc_events": [
		{
		  "controller": 7,
		  "time": 0.0,
		  "value": 92
		},
		{
		  "controller": 10,
		  "time": 0.0,
		  "value": 127
		},
		{
		  "controller": 10,
		  "time": 25.1162790697674,
		  "value": 0
		},
		{
		  "controller": 10,
		  "time": 25.1162790697674,
		  "value": 0
		},
		{
		  "controller": 10,
		  "time": 33.4883720930233,
		  "value": 0
		},
		{
		  "controller": 10,
		  "time": 33.4883720930233,
		  "value": 0
		},
		{
		  "controller": 10,
		  "time": 44.6511627906977,
		  "value": 127
		},
		{
		  "controller": 10,
		  "time": 44.6511627906977,
		  "value": 127
		},
		{
		  "controller": 10,
		  "time": 94.8837209302326,
		  "value": 127
		},
		{
		  "controller": 10,
		  "time": 94.8837209302326,
		  "value": 127
		},
		{
		  "controller": 10,
		  "time": 120.0,
		  "value": 0
		},
		{
		  "controller": 10,
		  "time": 120.0,
		  "value": 0
		},
		{
		  "controller": 10,
		  "time": 128.372093023256,
		  "value": 0
		},
		{
		  "controller": 10,
		  "time": 128.372093023256,
		  "value": 0
		},
		{
		  "controller": 10,
		  "time": 139.53488372093,
		  "value": 127
		},
		{
		  "controller": 10,
		  "time": 139.53488372093,
		  "value": 127
		},
		{
		  "controller": 10,
		  "time": 189.767441860465,
		  "value": 127
		},
		{
		  "controller": 10,
		  "time": 189.767441860465,
		  "value": 127
		},
		{
		  "controller": 10,
		  "time": 214.883720930233,
		  "value": 0
		},
		{
		  "controller": 10,
		  "time": 214.883720930233,
		  "value": 0
		},
		{
		  "controller": 10,
		  "time": 223.255813953488,
		  "value": 0
		},
		{
		  "controller": 10,
		  "time": 223.255813953488,
		  "value": 0
		},
		{
		  "controller": 10,
		  "time": 234.418604651163,
		  "value": 127
		},
		{
		  "controller": 10,
		  "time": 234.418604651163,
		  "value": 127
		},
		{
		  "controller": 10,
		  "time": 284.651162790698,
		  "value": 127
		},
		{
		  "controller": 10,
		  "time": 284.651162790698,
		  "value": 127
		}
	  ],
	  "channel": 2,
	  "instrument": 17,
	  "name": "Organ2",
	  "notes": [
		{
		  "duration": 2.09302325581395,
		  "pitch": 88,
		  "start": 11.1627906976744,
		  "velocity": 80
		},
		{
		  "duration": 2.09302325581395,
		  "pitch": 76,
		  "start": 11.1627906976744,
		  "velocity": 80
		},
		{
		  "duration": 0.232558139534884,
		  "pitch": 74,
		  "start": 13.2558139534884,
		  "velocity": 80
		},
		{
		  "duration": 0.232558139534884,
		  "pitch": 86,
		  "start": 13.2558139534884,
		  "velocity": 80
		},
		{
		  "duration": 0.232558139534884,
		  "pitch": 74,
		  "start": 13.4883720930233,
		  "velocity": 80
		},
		{
		  "duration": 0.232558139534884,
		  "pitch": 86,
		  "start": 13.4883720930233,
		  "velocity": 80
		},
		{
		  "duration": 0.232558139534884,
		  "pitch": 74,
		  "start": 13.7209302325581,
		  "velocity": 80
		},
		{
		  "duration": 0.232558139534884,
		  "pitch": 86,
		  "start": 13.7209302325581,
		  "velocity": 80
		},
		{
		  "duration": 2.09302325581395,
		  "pitch": 88,
		  "start": 13.953488372093,
		  "velocity": 80
		},
		{
		  "duration": 2.09302325581395,
		  "pitch": 76,
		  "start": 13.953488372093,
		  "velocity": 80
		},
		{
		  "duration": 0.232558139534884,
		  "pitch": 74,
		  "start": 16.046511627907,
		  "velocity": 80
		},
		{
		  "duration": 0.232558139534884,
		  "pitch": 86,
		  "start": 16.046511627907,
		  "velocity": 80
		},
		{
		  "duration": 0.232558139534884,
		  "pitch": 74,
		  "start": 16.2790697674419,
		  "velocity": 80
		},
		{
		  "duration": 0.232558139534884,
		  "pitch": 86,
		  "start": 16.2790697674419,
		  "velocity": 80
		},
		{
		  "duration": 0.232558139534884,
		  "pitch": 74,
		  "start": 16.5116279069767,
		  "velocity": 80
		},
		{
		  "duration": 0.232558139534884,
		  "pitch": 86,
		  "start": 16.5116279069767,
		  "velocity": 80
		},
		{
		  "duration": 2.09302325581395,
		  "pitch": 84,
		  "start": 16.7441860465116,
		  "velocity": 80
		},
		{
		  "duration": 2.09302325581395,
		  "pitch": 72,
		  "start": 16.7441860465116,
		  "velocity": 80
		},
		{
		  "duration": 0.232558139534884,
		  "pitch": 72,
		  "start": 18.8372093023256,
		  "velocity": 80
		},
		{
		  "duration": 0.232558139534884,
		  "pitch": 84,
		  "start": 18.8372093023256,
		  "velocity": 80
		},
		{
		  "duration": 0.232558139534884,
		  "pitch": 72,
		  "start": 19.0697674418605,
		  "velocity": 80
		},
		{
		  "duration": 0.232558139534884,
		  "pitch": 84,
		  "start": 19.0697674418605,
		  "velocity": 80
		},
		{
		  "duration": 0.232558139534884,
		  "pitch": 72,
		  "start": 19.3023255813953,
		  "velocity": 80
		},
		{
		  "duration": 0.232558139534884,
		  "pitch": 84,
		  "start": 19.3023255813953,
		  "velocity": 80
		},
		{
		  "duration": 2.09302325581395,
		  "pitch": 84,
		  "start": 19.5348837209302,
		  "velocity": 80
		},
		{
		  "duration": 2.09302325581395,
		  "pitch": 72,
		  "start": 19.5348837209302,
		  "velocity": 80
		},
		{
		  "duration": 0.232558139534884,
		  "pitch": 81,
		  "start": 21.6279069767442,
		  "velocity": 80
		},
		{
		  "duration": 0.232558139534884,
		  "pitch": 93,
		  "start": 21.6279069767442,
		  "velocity": 80
		},
		{
		  "duration": 0.232558139534884,
		  "pitch": 81,
		  "start": 21.8604651162791,
		  "velocity": 80
		},
		{
		  "duration": 0.232558139534884,
		  "pitch": 93,
		  "start": 21.8604651162791,
		  "velocity": 80
		},
		{
		  "duration": 0.232558139534884,
		  "pitch": 81,
		  "start": 22.093023255814,
		  "velocity": 80
		},
		{
		  "duration": 0.232558139534884,
		  "pitch": 93,
		  "start": 22.093023255814,
		  "velocity": 80
		},
		{
		  "duration": 1.04651162790698,
		  "pitch": 89,
		  "start": 25.1162790697674,
		  "velocity": 80
		},
		{
		  "duration": 1.04651162790698,
		  "pitch": 81,
		  "start": 25.1162790697674,
		  "velocity": 80
		},
		{
		  "duration": 1.04651162790698,
		  "pitch": 93,
		  "start": 25.1162790697674,
		  "velocity": 80
		},
		{
		  "duration": 1.04651162790698,
		  "pitch": 77,
		  "start": 25.1162790697674,
		  "velocity": 80
		},
		{
		  "duration": 0.348837209302326,
		  "pitch": 88,
		  "start": 26.1627906976744,
		  "velocity": 80
		},
		{
		  "duration": 0.348837209302326,
		  "pitch": 79,
		  "start": 26.1627906976744,
		  "velocity": 80
		},
		{
		  "duration": 0.348837209302326,
		  "pitch": 91,
		  "start": 26.1627906976744,
		  "velocity": 80
		},
		{
		  "duration": 0.348837209302326,
		  "pitch": 76,
		  "start": 26.1627906976744,
		  "velocity": 80
		},
		{
		  "duration": 0.697674418604651,
		  "pitch": 86,
		  "start": 26.5116279069767,
		  "velocity": 80
		},
		{
		  "duration": 0.697674418604651,
		  "pitch": 77,
		  "start": 26.5116279069767,
		  "velocity": 80
		},
		{
		  "duration": 0.697674418604651,
		  "pitch": 89,
		  "start": 26.5116279069767,
		  "velocity": 80
		},
		{
		  "duration": 0.697674418604651,
		  "pitch": 74,
		  "start": 26.5116279069767,
		  "velocity": 80
		},
		{
		  "duration": 0.697674418604651,
		  "pitch": 83,
		  "start": 27.2093023255814,
		  "velocity": 80
		},
		{
		  "duration": 0.697674418604651,
		  "pitch": 76,
		  "start": 27.2093023255814,
		  "velocity": 80
		},
		{
		  "duration": 0.697674418604651,
		  "pitch": 88,
		  "start": 27.2093023255814,
		  "velocity": 80
		},
		{
		  "duration": 0.697674418604651,
		  "pitch": 71,
		  "start": 27.2093023255814,
		  "velocity": 80
		},
		{
		  "duration": 0.348837209302326,
		  "pitch": 91,
		  "start": 27.906976744186,
		  "velocity": 80
		},
		{
		  "duration": 0.348837209302326,
		  "pitch": 76,
		  "start": 27.906976744186,
		  "velocity": 80
		},
		{
		  "duration": 0.348837209302326,
		  "pitch": 88,
		  "start": 27.906976744186,
		  "velocity": 80
		},
		{
		  "duration": 0.348837209302326,
		  "pitch": 79,
		  "start": 27.906976744186,
		  "velocity": 80
		},
		{
		  "duration": 1.04651162790698,
		  "pitch": 89,
		  "start": 33.4883720930233,
		  "velocity": 80
		},
		{
		  "duration": 1.04651162790698,
		  "pitch": 81,
		  "start": 33.4883720930233,
		  "velocity": 80
		},
		{
		  "duration": 1.04651162790698,
		  "pitch": 93,
		  "start": 33.4883720930233,
		  "velocity": 80
		},
		{
		  "duration": 1.04651162790698,
		  "pitch": 77,
		  "start": 33.4883720930233,
		  "velocity": 80
		},
		{
		  "duration": 0.348837209302326,
		  "pitch": 88,
		  "start": 34.5348837209302,
		  "velocity": 80
		},
		{
		  "duration": 0.348837209302326,
		  "pitch": 79,
		  "start": 34.5348837209302,
		  "velocity": 80
		},
		{
		  "duration": 0.348837209302326,
		  "pitch": 91,
		  "start": 34.5348837209302,
		  "velocity": 80
		},
		{
		  "duration": 0.348837209302326,
		  "pitch": 76,
		  "start": 34.5348837209302,
		  "velocity": 80
		},
		{
		  "duration": 0.697674418604651,
		  "pitch": 86,
		  "start": 34.8837209302326,
		  "velocity": 80
		},
		{
		  "duration": 0.697674418604651,
		  "pitch": 77,
		  "start": 34.8837209302326,
		  "velocity": 80
		},
		{
		  "duration": 0.697674418604651,
		  "pitch": 89,
		  "start": 34.8837209302326,
		  "velocity": 80
		},
		{
		  "duration": 0.697674418604651,
		  "pitch": 74,
		  "start": 34.8837209302326,
		  "velocity": 80
		},
		{
		  "duration": 0.697674418604651,
		  "pitch": 83,
		  "start": 35.5813953488372,
		  "velocity": 80
		},
		{
		  "duration": 0.697674418604651,
		  "pitch": 76,
		  "start": 35.5813953488372,
		  "velocity": 80
		},
		{
		  "duration": 0.697674418604651,
		  "pitch": 88,
		  "start": 35.5813953488372,
		  "velocity": 80
		},
		{
		  "duration": 0.697674418604651,
		  "pitch": 71,
		  "start": 35.5813953488372,
		  "velocity": 80
		},
		{
		  "duration": 0.348837209302326,
		  "pitch": 91,
		  "start": 36.2790697674419,
		  "velocity": 80
		},
		{
		  "duration": 0.348837209302326,
		  "pitch": 76,
		  "start": 36.2790697674419,
		  "velocity": 80
		},
		{
		  "duration": 0.348837209302326,
		  "pitch": 88,
		  "start": 36.2790697674419,
		  "velocity": 80
		},
		{
		  "duration": 0.348837209302326,
		  "pitch": 79,
		  "start": 36.2790697674419,
		  "velocity": 80
		},
		{
		  "duration": 0.116279069767442,
		  "pitch": 72,
		  "start": 44.6511627906977,
		  "velocity": 80
		},
		{
		  "duration": 0.116279069767442,
		  "pitch": 84,
		  "start": 44.6511627906977,
		  "velocity": 80
		},
		{
		  "duration": 0.116279069767442,
		  "pitch": 86,
		  "start": 44.7674418604651,
		  "velocity": 80
		},
		{
		  "duration": 0.116279069767442,
		  "pitch": 74,
		  "start": 44.7674418604651,
		  "velocity": 80
		},
		{
		  "duration": 0.116279069767442,
		  "pitch": 88,
		  "start": 44.8837209302326,
		  "velocity": 80
		},
		{
		  "duration": 0.116279069767442,
		  "pitch": 76,
		  "start": 44.8837209302326,
		  "velocity": 80
		},
		{
		  "duration": 0.116279069767442,
		  "pitch": 90,
		  "start": 45.0,
		  "velocity": 80
		},
		{
		  "duration": 0.116279069767442,
		  "pitch": 78,
		  "start": 45.0,
		  "velocity": 80
		},
		{
		  "duration": 0.116279069767442,
		  "pitch": 88,
		  "start": 45.1162790697674,
		  "velocity": 80
		},
		{
		  "duration": 0.116279069767442,
		  "pitch": 76,
		  "start": 45.1162790697674,
		  "velocity": 80
		},
		{
		  "duration": 0.116279069767442,
		  "pitch": 86,
		  "start": 45.2325581395349,
		  "velocity": 80
		},
		{
		  "duration": 0.116279069767442,
		  "pitch": 74,
		  "start": 45.2325581395349,
		  "velocity": 80
		},
		{
		  "duration": 0.116279069767442,
		  "pitch": 88,
		  "start": 45.3488372093023,
		  "velocity": 80
		},
		{
		  "duration": 0.116279069767442,
		  "pitch": 76,
		  "start": 45.3488372093023,
		  "velocity": 80
		},
		{
		  "duration": 0.116279069767442,
		  "pitch": 90,
		  "start": 45.4651162790698,
		  "velocity": 80
		},
		{
		  "duration": 0.116279069767442,
		  "pitch": 78,
		  "start": 45.4651162790698,
		  "velocity": 80
		},
		{
		  "duration": 0.116279069767442,
		  "pitch": 91,
		  "start": 45.5813953488372,
		  "velocity": 80
		},
		{
		  "duration": 0.116279069767442,
		  "pitch": 79,
		  "start": 45.5813953488372,
		  "velocity": 80
		},
		{
		  "duration": 0.116279069767442,
		  "pitch": 93,
		  "start": 45.6976744186046,
		  "velocity": 80
		},
		{
		  "duration": 0.116279069767442,
		  "pitch": 81,
		  "start": 45.6976744186046,
		  "velocity": 80
		},
		{
		  "duration": 0.116279069767442,
		  "pitch": 91,
		  "start": 45.8139534883721,
		  "velocity": 80
		},
		{
		  "duration": 0.116279069767442,
		  "pitch": 79,
		  "start": 45.8139534883721,
		  "velocity": 80
		},
		{
		  "duration": 0.116279069767442,
		  "pitch": 90,
		  "start": 45.9302325581395,
		  "velocity": 80
		},
		{
		  "duration": 0.116279069767442,
		  "pitch": 78,
		  "start": 45.9302325581395,
		  "velocity": 80
		},
		{
		  "duration": 0.116279069767442,
		  "pitch": 91,
		  "start": 46.046511627907,
		  "velocity": 80
		},
		{
		  "duration": 0.116279069767442,
		  "pitch": 79,
		  "start": 46.046511627907,
		  "velocity": 80
		},
		{
		  "duration": 0.116279069767442,
		  "pitch": 90,
		  "start": 46.1627906976744,
		  "velocity": 80
		},
		{
		  "duration": 0.116279069767442,
		  "pitch": 78,
		  "start": 46.1627906976744,
		  "velocity": 80
		},
		{
		  "duration": 0.116279069767442,
		  "pitch": 88,
		  "start": 46.2790697674419,
		  "velocity": 80
		},
		{
		  "duration": 0.116279069767442,
		  "pitch": 76,
		  "start": 46.2790697674419,
		  "velocity": 80
		},
		{
		  "duration": 0.116279069767442,
		  "pitch": 90,
		  "start": 46.3953488372093,
		  "velocity": 80
		},
		{
		  "duration": 0.116279069767442,
		  "pitch": 78,
		  "start": 46.3953488372093,
		  "velocity": 80
		},
		{
		  "duration": 0.116279069767442,
		  "pitch": 88,
		  "start": 46.5116279069767,
		  "velocity": 80
		},
		{
		  "duration": 0.116279069767442,
		  "pitch": 76,
		  "start": 46.5116279069767,
		  "velocity": 80
		},
		{
		  "duration": 0.116279069767442,
		  "pitch": 86,
		  "start": 46.6279069767442,
		  "velocity": 80
		},
		{
		  "duration": 0.116279069767442,
		  "pitch": 74,
		  "start": 46.6279069767442,
		  "velocity": 80
		},
		{
		  "duration": 0.116279069767442,
		  "pitch": 88,
		  "start": 46.7441860465116,
		  "velocity": 80
		},
		{
		  "duration": 0.116279069767442,
		  "pitch": 76,
		  "start": 46.7441860465116,
		  "velocity": 80
		},
		{
		  "duration": 0.116279069767442,
		  "pitch": 86,
		  "start": 46.8604651162791,
		  "velocity": 80
		},
		{
		  "duration": 0.116279069767442,
		  "pitch": 74,
		  "start": 46.8604651162791,
		  "velocity": 80
		},
		{
		  "duration": 0.116279069767442,
		  "pitch": 84,
		  "start": 46.9767441860465,
		  "velocity": 80
		},
		{
		  "duration": 0.116279069767442,
		  "pitch": 72,
		  "start": 46.9767441860465,
		  "velocity": 80
		},
		{
		  "duration": 0.116279069767442,
		  "pitch": 83,
		  "start": 47.093023255814,
		  "velocity": 80
		},
		{
		  "duration": 0.116279069767442,
		  "pitch": 71,
		  "start": 47.093023255814,
		  "velocity": 80
		},
		{
		  "duration": 0.116279069767442,
		  "pitch": 86,
		  "start": 47.2093023255814,
		  "velocity": 80
		},
		{
		  "duration": 0.116279069767442,
		  "pitch": 74,
		  "start": 47.2093023255814,
		  "velocity": 80
		},
		{
		  "duration": 0.116279069767442,
		  "pitch": 90,
		  "start": 47.3255813953488,
		  "velocity": 80
		},
		{
		  "duration": 0.116279069767442,
		  "pitch": 78,
		  "start": 47.3255813953488,
		  "velocity": 80
		},
		{
		  "duration": 0.116279069767442,
		  "pitch": 84,
		  "start": 47.4418604651163,
		  "velocity": 80
		},
		{
		  "duration": 0.116279069767442,
		  "pitch": 72,
		  "start": 47.4418604651163,
		  "velocity": 80
		},
		{
		  "duration": 0.116279069767442,
		  "pitch": 86,
		  "start": 47.5581395348837,
		  "velocity": 80
		},
		{
		  "duration": 0.116279069767442,
		  "pitch": 74,
		  "start": 47.5581395348837,
		  "velocity": 80
		},
		{
		  "duration": 0.116279069767442,
		  "pitch": 88,
		  "start": 47.6744186046512,
		  "velocity": 80
		},
		{
		  "duration": 0.116279069767442,
		  "pitch": 76,
		  "start": 47.6744186046512,
		  "velocity": 80
		},
		{
		  "duration": 0.116279069767442,
		  "pitch": 90,
		  "start": 47.7906976744186,
		  "velocity": 80
		},
		{
		  "duration": 0.116279069767442,
		  "pitch": 78,
		  "start": 47.7906976744186,
		  "velocity": 80
		},
		{
		  "duration": 0.116279069767442,
		  "pitch": 88,
		  "start": 47.906976744186,
		  "velocity": 80
		},
		{
		  "duration": 0.116279069767442,
		  "pitch": 76,
		  "start": 47.906976744186,
		  "velocity": 80
		},
		{
		  "duration": 0.116279069767442,
		  "pitch": 86,
		  "start": 48.0232558139535,
		  "velocity": 80
		},
		{
		  "duration": 0.116279069767442,
		  "pitch": 74,
		  "start": 48.0232558139535,
		  "velocity": 80
		},
		{
		  "duration": 0.116279069767442,
		  "pitch": 88,
		  "start": 48.1395348837209,
		  "velocity": 80
		},
		{
		  "duration": 0.116279069767442,
		  "pitch": 76,
		  "start": 48.1395348837209,
		  "velocity": 80
		},
		{
		  "duration": 0.116279069767442,
		  "pitch": 90,
		  "start": 48.2558139534884,
		  "velocity": 80
		},
		{
		  "duration": 0.116279069767442,
		  "pitch": 78,
		  "start": 48.2558139534884,
		  "velocity": 80
		},
		{
		  "duration": 0.116279069767442,
		  "pitch": 91,
		  "start": 48.3720930232558,
		  "velocity": 80
		},
		{
		  "duration": 0.116279069767442,
		  "pitch": 79,
		  "start": 48.3720930232558,
		  "velocity": 80
		},
		{
		  "duration": 0.116279069767442,
		  "pitch": 93,
		  "start": 48.4883720930233,
		  "velocity": 80
		},
		{
		  "duration": 0.116279069767442,
		  "pitch": 81,
		  "start": 48.4883720930233,
		  "velocity": 80
		},
		{
		  "duration": 0.116279069767442,
		  "pitch": 91,
		  "start": 48.6046511627907,
		  "velocity": 80
		},
		{
		  "duration": 0.116279069767442,
		  "pitch": 79,
		  "start": 48.6046511627907,
		  "velocity": 80
		},
		{
		  "duration": 0.116279069767442,
		  "pitch": 90,
		  "start": 48.7209302325581,
		  "velocity": 80
		},
		{
		  "duration": 0.116279069767442,
		  "pitch": 78,
		  "start": 48.7209302325581,
		  "velocity": 80
		},
		{
		  "duration": 0.116279069767442,
		  "pitch": 91,
		  "start": 48.8372093023256,
		  "velocity": 80
		},
		{
		  "duration": 0.116279069767442,
		  "pitch": 79,
		  "start": 48.8372093023256,
		  "velocity": 80
		},
		{
		  "duration": 0.116279069767442,
		  "pitch": 88,
		  "start": 48.953488372093,
		  "velocity": 80
		},
		{
		  "duration": 0.116279069767442,
		  "pitch": 76,
		  "start": 48.953488372093,
		  "velocity": 80
		},
		{
		  "duration": 0.116279069767442,
		  "pitch": 84,
		  "start": 49.0697674418605,
		  "velocity": 80
		},
		{
		  "duration": 0.116279069767442,
		  "pitch": 72,
		  "start": 49.0697674418605,
		  "velocity": 80
		},
		{
		  "duration": 0.116279069767442,
		  "pitch": 83,
		  "start": 49.1860465116279,
		  "velocity": 80
		},
		{
		  "duration": 0.116279069767442,
		  "pitch": 71,
		  "start": 49.1860465116279,
		  "velocity": 80
		},
		{
		  "duration": 0.116279069767442,
		  "pitch": 86,
		  "start": 49.3023255813954,
		  "velocity": 80
		},
		{
		  "duration": 0.116279069767442,
		  "pitch": 74,
		  "start": 49.3023255813954,
		  "velocity": 80
		},
		{
		  "duration": 0.116279069767442,
		  "pitch": 90,
		  "start": 49.4186046511628,
		  "velocity": 80
		},
		{
		  "duration": 0.116279069767442,
		  "pitch": 78,
		  "start": 49.4186046511628,
		  "velocity": 80
		},
		{
		  "duration": 0.116279069767442,
		  "pitch": 88,
		  "start": 49.5348837209302,
		  "velocity": 80
		},
		{
		  "duration": 0.116279069767442,
		  "pitch": 76,
		  "start": 49.5348837209302,
		  "velocity": 80
		},
		{
		  "duration": 0.116279069767442,
		  "pitch": 84,
		  "start": 49.6511627906977,
		  "velocity": 80
		},
		{
		  "duration": 0.116279069767442,
		  "pitch": 72,
		  "start": 49.6511627906977,
		  "velocity": 80
		},
		{
		  "duration": 0.116279069767442,
		  "pitch": 83,
		  "start": 49.7674418604651,
		  "velocity": 80
		},
		{
		  "duration": 0.116279069767442,
		  "pitch": 71,
		  "start": 49.7674418604651,
		  "velocity": 80
		},
		{
		  "duration": 0.348837209302326,
		  "pitch": 84,
		  "start": 49.8837209302326,
		  "velocity": 80
		},
		{
		  "duration": 0.348837209302326,
		  "pitch": 72,
		  "start": 49.8837209302326,
		  "velocity": 80
		},
		{
		  "duration": 0.697674418604651,
		  "pitch": 79,
		  "start": 50.2325581395349,
		  "velocity": 80
		},
		{
		  "duration": 0.697674418604651,
		  "pitch": 67,
		  "start": 50.2325581395349,
		  "velocity": 80
		},
		{
		  "duration": 0.348837209302326,
		  "pitch": 81,
		  "start": 50.9302325581395,
		  "velocity": 80
		},
		{
		  "duration": 0.348837209302326,
		  "pitch": 69,
		  "start": 50.9302325581395,
		  "velocity": 80
		},
		{
		  "duration": 0.348837209302326,
		  "pitch": 83,
		  "start": 51.2790697674419,
		  "velocity": 80
		},
		{
		  "duration": 0.348837209302326,
		  "pitch": 71,
		  "start": 51.2790697674419,
		  "velocity": 80
		},
		{
		  "duration": 1.3953488372093,
		  "pitch": 84,
		  "start": 51.6279069767442,
		  "velocity": 80
		},
		{
		  "duration": 1.3953488372093,
		  "pitch": 72,
		  "start": 51.6279069767442,
		  "velocity": 80
		},
		{
		  "duration": 0.697674418604651,
		  "pitch": 91,
		  "start": 53.0232558139535,
		  "velocity": 80
		},
		{
		  "duration": 0.697674418604651,
		  "pitch": 79,
		  "start": 53.0232558139535,
		  "velocity": 80
		},
		{
		  "duration": 0.348837209302326,
		  "pitch": 93,
		  "start": 53.7209302325581,
		  "velocity": 80
		},
		{
		  "duration": 0.348837209302326,
		  "pitch": 81,
		  "start": 53.7209302325581,
		  "velocity": 80
		},
		{
		  "duration": 0.348837209302326,
		  "pitch": 95,
		  "start": 54.0697674418605,
		  "velocity": 80
		},
		{
		  "duration": 0.348837209302326,
		  "pitch": 83,
		  "start": 54.0697674418605,
		  "velocity": 80
		},
		{
		  "duration": 1.3953488372093,
		  "pitch": 96,
		  "start": 54.4186046511628,
		  "velocity": 80
		},
		{
		  "duration": 1.3953488372093,
		  "pitch": 84,
		  "start": 54.4186046511628,
		  "velocity": 80
		},
		{
		  "duration": 0.697674418604651,
		  "pitch": 81,
		  "start": 55.8139534883721,
		  "velocity": 80
		},
		{
		  "duration": 0.697674418604651,
		  "pitch": 69,
		  "start": 55.8139534883721,
		  "velocity": 80
		},
		{
		  "duration": 0.348837209302326,
		  "pitch": 83,
		  "start": 56.5116279069767,
		  "velocity": 80
		},
		{
		  "duration": 0.348837209302326,
		  "pitch": 71,
		  "start": 56.5116279069767,
		  "velocity": 80
		},
		{
		  "duration": 0.348837209302326,
		  "pitch": 85,
		  "start": 56.8604651162791,
		  "velocity": 80
		},
		{
		  "duration": 0.348837209302326,
		  "pitch": 73,
		  "start": 56.8604651162791,
		  "velocity": 80
		},
		{
		  "duration": 1.3953488372093,
		  "pitch": 86,
		  "start": 57.2093023255814,
		  "velocity": 80
		},
		{
		  "duration": 1.3953488372093,
		  "pitch": 74,
		  "start": 57.2093023255814,
		  "velocity": 80
		},
		{
		  "duration": 0.348837209302326,
		  "pitch": 93,
		  "start": 58.6046511627907,
		  "velocity": 80
		},
		{
		  "duration": 0.348837209302326,
		  "pitch": 81,
		  "start": 58.6046511627907,
		  "velocity": 80
		},
		{
		  "duration": 0.348837209302326,
		  "pitch": 93,
		  "start": 58.953488372093,
		  "velocity": 80
		},
		{
		  "duration": 0.348837209302326,
		  "pitch": 81,
		  "start": 58.953488372093,
		  "velocity": 80
		},
		{
		  "duration": 0.348837209302326,
		  "pitch": 95,
		  "start": 59.3023255813954,
		  "velocity": 80
		},
		{
		  "duration": 0.348837209302326,
		  "pitch": 83,
		  "start": 59.3023255813954,
		  "velocity": 80
		},
		{
		  "duration": 0.348837209302326,
		  "pitch": 97,
		  "start": 59.6511627906977,
		  "velocity": 80
		},
		{
		  "duration": 0.348837209302326,
		  "pitch": 85,
		  "start": 59.6511627906977,
		  "velocity": 80
		},
		{
		  "duration": 1.3953488372093,
		  "pitch": 98,
		  "start": 60.0,
		  "velocity": 80
		},
		{
		  "duration": 1.3953488372093,
		  "pitch": 86,
		  "start": 60.0,
		  "velocity": 80
		},
		{
		  "duration": 0.116279069767442,
		  "pitch": 74,
		  "start": 61.3953488372093,
		  "velocity": 80
		},
		{
		  "duration": 0.116279069767442,
		  "pitch": 74,
		  "start": 61.6279069767442,
		  "velocity": 80
		},
		{
		  "duration": 0.348837209302326,
		  "pitch": 74,
		  "start": 61.7441860465116,
		  "velocity": 80
		},
		{
		  "duration": 0.116279069767442,
		  "pitch": 74,
		  "start": 62.093023255814,
		  "velocity": 80
		},
		{
		  "duration": 0.116279069767442,
		  "pitch": 74,
		  "start": 62.3255813953488,
		  "velocity": 80
		},
		{
		  "duration": 0.348837209302326,
		  "pitch": 74,
		  "start": 62.4418604651163,
		  "velocity": 80
		},
		{
		  "duration": 0.116279069767442,
		  "pitch": 74,
		  "start": 62.7906976744186,
		  "velocity": 80
		},
		{
		  "duration": 0.116279069767442,
		  "pitch": 74,
		  "start": 63.0232558139535,
		  "velocity": 80
		},
		{
		  "duration": 0.348837209302326,
		  "pitch": 74,
		  "start": 63.1395348837209,
		  "velocity": 80
		},
		{
		  "duration": 0.116279069767442,
		  "pitch": 74,
		  "start": 63.4883720930233,
		  "velocity": 80
		},
		{
		  "duration": 0.116279069767442,
		  "pitch": 74,
		  "start": 63.7209302325581,
		  "velocity": 80
		},
		{
		  "duration": 0.348837209302326,
		  "pitch": 74,
		  "start": 63.8372093023256,
		  "velocity": 80
		},
		{
		  "duration": 0.116279069767442,
		  "pitch": 74,
		  "start": 64.1860465116279,
		  "velocity": 80
		},
		{
		  "duration": 0.697674418604651,
		  "pitch": 74,
		  "start": 64.5348837209302,
		  "velocity": 80
		},
		{
		  "duration": 0.116279069767442,
		  "pitch": 74,
		  "start": 65.2325581395349,
		  "velocity": 80
		},
		{
		  "duration": 0.116279069767442,
		  "pitch": 74,
		  "start": 65.3488372093023,
		  "velocity": 80
		},
		{
		  "duration": 0.116279069767442,
		  "pitch": 74,
		  "start": 65.4651162790698,
		  "velocity": 80
		},
		{
		  "duration": 1.3953488372093,
		  "pitch": 74,
		  "start": 65.5813953488372,
		  "velocity": 80
		},
		{
		  "duration": 0.116279069767442,
		  "pitch": 69,
		  "start": 66.9767441860465,
		  "velocity": 80
		},
		{
		  "duration": 0.116279069767442,
		  "pitch": 69,
		  "start": 67.2093023255814,
		  "velocity": 80
		},
		{
		  "duration": 0.348837209302326,
		  "pitch": 69,
		  "start": 67.3255813953488,
		  "velocity": 80
		},
		{
		  "duration": 0.116279069767442,
		  "pitch": 69,
		  "start": 67.6744186046512,
		  "velocity": 80
		},
		{
		  "duration": 0.116279069767442,
		  "pitch": 69,
		  "start": 67.9069767441861,
		  "velocity": 80
		},
		{
		  "duration": 0.348837209302326,
		  "pitch": 69,
		  "start": 68.0232558139535,
		  "velocity": 80
		},
		{
		  "duration": 0.116279069767442,
		  "pitch": 69,
		  "start": 68.3720930232558,
		  "velocity": 80
		},
		{
		  "duration": 0.116279069767442,
		  "pitch": 69,
		  "start": 68.6046511627907,
		  "velocity": 80
		},
		{
		  "duration": 0.348837209302326,
		  "pitch": 69,
		  "start": 68.7209302325581,
		  "velocity": 80
		},
		{
		  "duration": 0.116279069767442,
		  "pitch": 69,
		  "start": 69.0697674418605,
		  "velocity": 80
		},
		{
		  "duration": 0.116279069767442,
		  "pitch": 69,
		  "start": 69.3023255813954,
		  "velocity": 80
		},
		{
		  "duration": 0.348837209302326,
		  "pitch": 69,
		  "start": 69.4186046511628,
		  "velocity": 80
		},
		{
		  "duration": 0.116279069767442,
		  "pitch": 69,
		  "start": 69.7674418604651,
		  "velocity": 80
		},
		{
		  "duration": 0.697674418604651,
		  "pitch": 69,
		  "start": 70.1162790697674,
		  "velocity": 80
		},
		{
		  "duration": 0.116279069767442,
		  "pitch": 69,
		  "start": 70.8139534883721,
		  "velocity": 80
		},
		{
		  "duration": 0.116279069767442,
		  "pitch": 69,
		  "start": 70.9302325581395,
		  "velocity": 80
		},
		{
		  "duration": 0.116279069767442,
		  "pitch": 69,
		  "start": 71.046511627907,
		  "velocity": 80
		},
		{
		  "duration": 1.3953488372093,
		  "pitch": 69,
		  "start": 71.1627906976744,
		  "velocity": 80
		},
		{
		  "duration": 0.116279069767442,
		  "pitch": 74,
		  "start": 72.5581395348837,
		  "velocity": 80
		},
		{
		  "duration": 0.116279069767442,
		  "pitch": 74,
		  "start": 72.7906976744186,
		  "velocity": 80
		},
		{
		  "duration": 0.348837209302326,
		  "pitch": 74,
		  "start": 72.9069767441861,
		  "velocity": 80
		},
		{
		  "duration": 0.116279069767442,
		  "pitch": 74,
		  "start": 73.2558139534884,
		  "velocity": 80
		},
		{
		  "duration": 0.116279069767442,
		  "pitch": 74,
		  "start": 73.4883720930233,
		  "velocity": 80
		},
		{
		  "duration": 0.348837209302326,
		  "pitch": 74,
		  "start": 73.6046511627907,
		  "velocity": 80
		},
		{
		  "duration": 0.116279069767442,
		  "pitch": 74,
		  "start": 73.953488372093,
		  "velocity": 80
		},
		{
		  "duration": 0.116279069767442,
		  "pitch": 74,
		  "start": 74.1860465116279,
		  "velocity": 80
		},
		{
		  "duration": 0.348837209302326,
		  "pitch": 74,
		  "start": 74.3023255813954,
		  "velocity": 80
		},
		{
		  "duration": 0.116279069767442,
		  "pitch": 74,
		  "start": 74.6511627906977,
		  "velocity": 80
		},
		{
		  "duration": 0.116279069767442,
		  "pitch": 74,
		  "start": 74.8837209302326,
		  "velocity": 80
		},
		{
		  "duration": 0.348837209302326,
		  "pitch": 74,
		  "start": 75.0,
		  "velocity": 80
		},
		{
		  "duration": 0.116279069767442,
		  "pitch": 74,
		  "start": 75.3488372093023,
		  "velocity": 80
		},
		{
		  "duration": 0.697674418604651,
		  "pitch": 74,
		  "start": 75.6976744186046,
		  "velocity": 80
		},
		{
		  "duration": 0.116279069767442,
		  "pitch": 74,
		  "start": 76.3953488372093,
		  "velocity": 80
		},
		{
		  "duration": 0.116279069767442,
		  "pitch": 74,
		  "start": 76.5116279069767,
		  "velocity": 80
		},
		{
		  "duration": 0.116279069767442,
		  "pitch": 74,
		  "start": 76.6279069767442,
		  "velocity": 80
		},
		{
		  "duration": 1.3953488372093,
		  "pitch": 74,
		  "start": 76.7441860465116,
		  "velocity": 80
		},
		{
		  "duration": 0.116279069767442,
		  "pitch": 69,
		  "start": 78.1395348837209,
		  "velocity": 80
		},
		{
		  "duration": 0.116279069767442,
		  "pitch": 69,
		  "start": 78.3720930232558,
		  "velocity": 80
		},
		{
		  "duration": 0.348837209302326,
		  "pitch": 69,
		  "start": 78.4883720930233,
		  "velocity": 80
		},
		{
		  "duration": 0.116279069767442,
		  "pitch": 69,
		  "start": 78.8372093023256,
		  "velocity": 80
		},
		{
		  "duration": 0.116279069767442,
		  "pitch": 69,
		  "start": 79.0697674418605,
		  "velocity": 80
		},
		{
		  "duration": 0.348837209302326,
		  "pitch": 69,
		  "start": 79.1860465116279,
		  "velocity": 80
		},
		{
		  "duration": 0.116279069767442,
		  "pitch": 69,
		  "start": 79.5348837209302,
		  "velocity": 80
		},
		{
		  "duration": 0.116279069767442,
		  "pitch": 69,
		  "start": 79.7674418604651,
		  "velocity": 80
		},
		{
		  "duration": 0.348837209302326,
		  "pitch": 69,
		  "start": 79.8837209302326,
		  "velocity": 80
		},
		{
		  "duration": 0.116279069767442,
		  "pitch": 69,
		  "start": 80.2325581395349,
		  "velocity": 80
		},
		{
		  "duration": 0.116279069767442,
		  "pitch": 69,
		  "start": 80.4651162790698,
		  "velocity": 80
		},
		{
		  "duration": 0.348837209302326,
		  "pitch": 69,
		  "start": 80.5813953488372,
		  "velocity": 80
		},
		{
		  "duration": 0.116279069767442,
		  "pitch": 69,
		  "start": 80.9302325581395,
		  "velocity": 80
		},
		{
		  "duration": 0.697674418604651,
		  "pitch": 69,
		  "start": 81.2790697674419,
		  "velocity": 80
		},
		{
		  "duration": 0.116279069767442,
		  "pitch": 69,
		  "start": 81.9767441860465,
		  "velocity": 80
		},
		{
		  "duration": 0.116279069767442,
		  "pitch": 69,
		  "start": 82.0930232558139,
		  "velocity": 80
		},
		{
		  "duration": 0.116279069767442,
		  "pitch": 69,
		  "start": 82.2093023255814,
		  "velocity": 80
		},
		{
		  "duration": 1.3953488372093,
		  "pitch": 69,
		  "start": 82.3255813953488,
		  "velocity": 80
		},
		{
		  "duration": 0.116279069767442,
		  "pitch": 74,
		  "start": 83.7209302325581,
		  "velocity": 80
		},
		{
		  "duration": 0.116279069767442,
		  "pitch": 74,
		  "start": 83.953488372093,
		  "velocity": 80
		},
		{
		  "duration": 0.348837209302326,
		  "pitch": 74,
		  "start": 84.0697674418605,
		  "velocity": 80
		},
		{
		  "duration": 0.116279069767442,
		  "pitch": 74,
		  "start": 84.4186046511628,
		  "velocity": 80
		},
		{
		  "duration": 0.116279069767442,
		  "pitch": 74,
		  "start": 84.6511627906977,
		  "velocity": 80
		},
		{
		  "duration": 0.348837209302326,
		  "pitch": 74,
		  "start": 84.7674418604651,
		  "velocity": 80
		},
		{
		  "duration": 0.116279069767442,
		  "pitch": 74,
		  "start": 85.1162790697674,
		  "velocity": 80
		},
		{
		  "duration": 0.116279069767442,
		  "pitch": 74,
		  "start": 85.3488372093023,
		  "velocity": 80
		},
		{
		  "duration": 0.348837209302326,
		  "pitch": 74,
		  "start": 85.4651162790698,
		  "velocity": 80
		},
		{
		  "duration": 0.116279069767442,
		  "pitch": 74,
		  "start": 85.8139534883721,
		  "velocity": 80
		},
		{
		  "duration": 0.116279069767442,
		  "pitch": 74,
		  "start": 86.046511627907,
		  "velocity": 80
		},
		{
		  "duration": 0.348837209302326,
		  "pitch": 74,
		  "start": 86.1627906976744,
		  "velocity": 80
		},
		{
		  "duration": 0.116279069767442,
		  "pitch": 74,
		  "start": 86.5116279069767,
		  "velocity": 80
		},
		{
		  "duration": 0.697674418604651,
		  "pitch": 74,
		  "start": 86.8604651162791,
		  "velocity": 80
		},
		{
		  "duration": 0.116279069767442,
		  "pitch": 74,
		  "start": 87.5581395348837,
		  "velocity": 80
		},
		{
		  "duration": 0.116279069767442,
		  "pitch": 74,
		  "start": 87.6744186046512,
		  "velocity": 80
		},
		{
		  "duration": 0.116279069767442,
		  "pitch": 74,
		  "start": 87.7906976744186,
		  "velocity": 80
		},
		{
		  "duration": 1.3953488372093,
		  "pitch": 74,
		  "start": 87.9069767441861,
		  "velocity": 80
		},
		{
		  "duration": 0.116279069767442,
		  "pitch": 69,
		  "start": 89.3023255813954,
		  "velocity": 80
		},
		{
		  "duration": 0.116279069767442,
		  "pitch": 69,
		  "start": 89.5348837209302,
		  "velocity": 80
		},
		{
		  "duration": 0.348837209302326,
		  "pitch": 69,
		  "start": 89.6511627906977,
		  "velocity": 80
		},
		{
		  "duration": 0.116279069767442,
		  "pitch": 69,
		  "start": 90.0,
		  "velocity": 80
		},
		{
		  "duration": 0.116279069767442,
		  "pitch": 69,
		  "start": 90.2325581395349,
		  "velocity": 80
		},
		{
		  "duration": 0.348837209302326,
		  "pitch": 69,
		  "start": 90.3488372093023,
		  "velocity": 80
		},
		{
		  "duration": 0.116279069767442,
		  "pitch": 69,
		  "start": 90.6976744186046,
		  "velocity": 80
		},
		{
		  "duration": 0.116279069767442,
		  "pitch": 69,
		  "start": 90.9302325581395,
		  "velocity": 80
		},
		{
		  "duration": 0.348837209302326,
		  "pitch": 69,
		  "start": 91.046511627907,
		  "velocity": 80
		},
		{
		  "duration": 0.116279069767442,
		  "pitch": 69,
		  "start": 91.3953488372093,
		  "velocity": 80
		},
		{
		  "duration": 0.116279069767442,
		  "pitch": 69,
		  "start": 91.6279069767442,
		  "velocity": 80
		},
		{
		  "duration": 0.348837209302326,
		  "pitch": 69,
		  "start": 91.7441860465116,
		  "velocity": 80
		},
		{
		  "duration": 0.697674418604651,
		  "pitch": 72,
		  "start": 92.0930232558139,
		  "velocity": 80
		},
		{
		  "duration": 0.697674418604651,
		  "pitch": 74,
		  "start": 92.7906976744186,
		  "velocity": 80
		},
		{
		  "duration": 0.697674418604651,
		  "pitch": 76,
		  "start": 93.4883720930233,
		  "velocity": 80
		},
		{
		  "duration": 0.697674418604651,
		  "pitch": 76,
		  "start": 94.1860465116279,
		  "velocity": 80
		},
		{
		  "duration": 2.7906976744186,
		  "pitch": 76,
		  "start": 94.8837209302326,
		  "velocity": 80
		},
		{
		  "duration": 2.09302325581395,
		  "pitch": 88,
		  "start": 106.046511627907,
		  "velocity": 80
		},
		{
		  "duration": 2.09302325581395,
		  "pitch": 76,
		  "start": 106.046511627907,
		  "velocity": 80
		},
		{
		  "duration": 0.232558139534884,
		  "pitch": 74,
		  "start": 108.139534883721,
		  "velocity": 80
		},
		{
		  "duration": 0.232558139534884,
		  "pitch": 86,
		  "start": 108.139534883721,
		  "velocity": 80
		},
		{
		  "duration": 0.232558139534884,
		  "pitch": 74,
		  "start": 108.372093023256,
		  "velocity": 80
		},
		{
		  "duration": 0.232558139534884,
		  "pitch": 86,
		  "start": 108.372093023256,
		  "velocity": 80
		},
		{
		  "duration": 0.232558139534884,
		  "pitch": 74,
		  "start": 108.604651162791,
		  "velocity": 80
		},
		{
		  "duration": 0.232558139534884,
		  "pitch": 86,
		  "start": 108.604651162791,
		  "velocity": 80
		},
		{
		  "duration": 2.09302325581395,
		  "pitch": 88,
		  "start": 108.837209302326,
		  "velocity": 80
		},
		{
		  "duration": 2.09302325581395,
		  "pitch": 76,
		  "start": 108.837209302326,
		  "velocity": 80
		},
		{
		  "duration": 0.232558139534884,
		  "pitch": 74,
		  "start": 110.93023255814,
		  "velocity": 80
		},
		{
		  "duration": 0.232558139534884,
		  "pitch": 86,
		  "start": 110.93023255814,
		  "velocity": 80
		},
		{
		  "duration": 0.232558139534884,
		  "pitch": 74,
		  "start": 111.162790697674,
		  "velocity": 80
		},
		{
		  "duration": 0.232558139534884,
		  "pitch": 86,
		  "start": 111.162790697674,
		  "velocity": 80
		},
		{
		  "duration": 0.232558139534884,
		  "pitch": 74,
		  "start": 111.395348837209,
		  "velocity": 80
		},
		{
		  "duration": 0.232558139534884,
		  "pitch": 86,
		  "start": 111.395348837209,
		  "velocity": 80
		},
		{
		  "duration": 2.09302325581395,
		  "pitch": 84,
		  "start": 111.627906976744,
		  "velocity": 80
		},
		{
		  "duration": 2.09302325581395,
		  "pitch": 72,
		  "start": 111.627906976744,
		  "velocity": 80
		},
		{
		  "duration": 0.232558139534884,
		  "pitch": 72,
		  "start": 113.720930232558,
		  "velocity": 80
		},
		{
		  "duration": 0.232558139534884,
		  "pitch": 84,
		  "start": 113.720930232558,
		  "velocity": 80
		},
		{
		  "duration": 0.232558139534884,
		  "pitch": 72,
		  "start": 113.953488372093,
		  "velocity": 80
		},
		{
		  "duration": 0.232558139534884,
		  "pitch": 84,
		  "start": 113.953488372093,
		  "velocity": 80
		},
		{
		  "duration": 0.232558139534884,
		  "pitch": 72,
		  "start": 114.186046511628,
		  "velocity": 80
		},
		{
		  "duration": 0.232558139534884,
		  "pitch": 84,
		  "start": 114.186046511628,
		  "velocity": 80
		},
		{
		  "duration": 2.09302325581395,
		  "pitch": 84,
		  "start": 114.418604651163,
		  "velocity": 80
		},
		{
		  "duration": 2.09302325581395,
		  "pitch": 72,
		  "start": 114.418604651163,
		  "velocity": 80
		},
		{
		  "duration": 0.232558139534884,
		  "pitch": 81,
		  "start": 116.511627906977,
		  "velocity": 80
		},
		{
		  "duration": 0.232558139534884,
		  "pitch": 93,
		  "start": 116.511627906977,
		  "velocity": 80
		},
		{
		  "duration": 0.232558139534884,
		  "pitch": 81,
		  "start": 116.744186046512,
		  "velocity": 80
		},
		{
		  "duration": 0.232558139534884,
		  "pitch": 93,
		  "start": 116.744186046512,
		  "velocity": 80
		},
		{
		  "duration": 0.232558139534884,
		  "pitch": 81,
		  "start": 116.976744186047,
		  "velocity": 80
		},
		{
		  "duration": 0.232558139534884,
		  "pitch": 93,
		  "start": 116.976744186047,
		  "velocity": 80
		},
		{
		  "duration": 1.04651162790698,
		  "pitch": 89,
		  "start": 120.0,
		  "velocity": 80
		},
		{
		  "duration": 1.04651162790698,
		  "pitch": 81,
		  "start": 120.0,
		  "velocity": 80
		},
		{
		  "duration": 1.04651162790698,
		  "pitch": 93,
		  "start": 120.0,
		  "velocity": 80
		},
		{
		  "duration": 1.04651162790698,
		  "pitch": 77,
		  "start": 120.0,
		  "velocity": 80
		},
		{
		  "duration": 0.348837209302326,
		  "pitch": 88,
		  "start": 121.046511627907,
		  "velocity": 80
		},
		{
		  "duration": 0.348837209302326,
		  "pitch": 79,
		  "start": 121.046511627907,
		  "velocity": 80
		},
		{
		  "duration": 0.348837209302326,
		  "pitch": 91,
		  "start": 121.046511627907,
		  "velocity": 80
		},
		{
		  "duration": 0.348837209302326,
		  "pitch": 76,
		  "start": 121.046511627907,
		  "velocity": 80
		},
		{
		  "duration": 0.697674418604651,
		  "pitch": 86,
		  "start": 121.395348837209,
		  "velocity": 80
		},
		{
		  "duration": 0.697674418604651,
		  "pitch": 77,
		  "start": 121.395348837209,
		  "velocity": 80
		},
		{
		  "duration": 0.697674418604651,
		  "pitch": 89,
		  "start": 121.395348837209,
		  "velocity": 80
		},
		{
		  "duration": 0.697674418604651,
		  "pitch": 74,
		  "start": 121.395348837209,
		  "velocity": 80
		},
		{
		  "duration": 0.697674418604651,
		  "pitch": 83,
		  "start": 122.093023255814,
		  "velocity": 80
		},
		{
		  "duration": 0.697674418604651,
		  "pitch": 76,
		  "start": 122.093023255814,
		  "velocity": 80
		},
		{
		  "duration": 0.697674418604651,
		  "pitch": 88,
		  "start": 122.093023255814,
		  "velocity": 80
		},
		{
		  "duration": 0.697674418604651,
		  "pitch": 71,
		  "start": 122.093023255814,
		  "velocity": 80
		},
		{
		  "duration": 0.348837209302326,
		  "pitch": 91,
		  "start": 122.790697674419,
		  "velocity": 80
		},
		{
		  "duration": 0.348837209302326,
		  "pitch": 76,
		  "start": 122.790697674419,
		  "velocity": 80
		},
		{
		  "duration": 0.348837209302326,
		  "pitch": 88,
		  "start": 122.790697674419,
		  "velocity": 80
		},
		{
		  "duration": 0.348837209302326,
		  "pitch": 79,
		  "start": 122.790697674419,
		  "velocity": 80
		},
		{
		  "duration": 1.04651162790698,
		  "pitch": 89,
		  "start": 128.372093023256,
		  "velocity": 80
		},
		{
		  "duration": 1.04651162790698,
		  "pitch": 81,
		  "start": 128.372093023256,
		  "velocity": 80
		},
		{
		  "duration": 1.04651162790698,
		  "pitch": 93,
		  "start": 128.372093023256,
		  "velocity": 80
		},
		{
		  "duration": 1.04651162790698,
		  "pitch": 77,
		  "start": 128.372093023256,
		  "velocity": 80
		},
		{
		  "duration": 0.348837209302326,
		  "pitch": 88,
		  "start": 129.418604651163,
		  "velocity": 80
		},
		{
		  "duration": 0.348837209302326,
		  "pitch": 79,
		  "start": 129.418604651163,
		  "velocity": 80
		},
		{
		  "duration": 0.348837209302326,
		  "pitch": 91,
		  "start": 129.418604651163,
		  "velocity": 80
		},
		{
		  "duration": 0.348837209302326,
		  "pitch": 76,
		  "start": 129.418604651163,
		  "velocity": 80
		},
		{
		  "duration": 0.697674418604651,
		  "pitch": 86,
		  "start": 129.767441860465,
		  "velocity": 80
		},
		{
		  "duration": 0.697674418604651,
		  "pitch": 77,
		  "start": 129.767441860465,
		  "velocity": 80
		},
		{
		  "duration": 0.697674418604651,
		  "pitch": 89,
		  "start": 129.767441860465,
		  "velocity": 80
		},
		{
		  "duration": 0.697674418604651,
		  "pitch": 74,
		  "start": 129.767441860465,
		  "velocity": 80
		},
		{
		  "duration": 0.697674418604651,
		  "pitch": 83,
		  "start": 130.46511627907,
		  "velocity": 80
		},
		{
		  "duration": 0.697674418604651,
		  "pitch": 76,
		  "start": 130.46511627907,
		  "velocity": 80
		},
		{
		  "duration": 0.697674418604651,
		  "pitch": 88,
		  "start": 130.46511627907,
		  "velocity": 80
		},
		{
		  "duration": 0.697674418604651,
		  "pitch": 71,
		  "start": 130.46511627907,
		  "velocity": 80
		},
		{
		  "duration": 0.348837209302326,
		  "pitch": 91,
		  "start": 131.162790697674,
		  "velocity": 80
		},
		{
		  "duration": 0.348837209302326,
		  "pitch": 76,
		  "start": 131.162790697674,
		  "velocity": 80
		},
		{
		  "duration": 0.348837209302326,
		  "pitch": 88,
		  "start": 131.162790697674,
		  "velocity": 80
		},
		{
		  "duration": 0.348837209302326,
		  "pitch": 79,
		  "start": 131.162790697674,
		  "velocity": 80
		},
		{
		  "duration": 0.116279069767442,
		  "pitch": 72,
		  "start": 139.53488372093,
		  "velocity": 80
		},
		{
		  "duration": 0.116279069767442,
		  "pitch": 84,
		  "start": 139.53488372093,
		  "velocity": 80
		},
		{
		  "duration": 0.116279069767442,
		  "pitch": 86,
		  "start": 139.651162790698,
		  "velocity": 80
		},
		{
		  "duration": 0.116279069767442,
		  "pitch": 74,
		  "start": 139.651162790698,
		  "velocity": 80
		},
		{
		  "duration": 0.116279069767442,
		  "pitch": 88,
		  "start": 139.767441860465,
		  "velocity": 80
		},
		{
		  "duration": 0.116279069767442,
		  "pitch": 76,
		  "start": 139.767441860465,
		  "velocity": 80
		},
		{
		  "duration": 0.116279069767442,
		  "pitch": 90,
		  "start": 139.883720930233,
		  "velocity": 80
		},
		{
		  "duration": 0.116279069767442,
		  "pitch": 78,
		  "start": 139.883720930233,
		  "velocity": 80
		},
		{
		  "duration": 0.116279069767442,
		  "pitch": 88,
		  "start": 140.0,
		  "velocity": 80
		},
		{
		  "duration": 0.116279069767442,
		  "pitch": 76,
		  "start": 140.0,
		  "velocity": 80
		},
		{
		  "duration": 0.116279069767442,
		  "pitch": 86,
		  "start": 140.116279069767,
		  "velocity": 80
		},
		{
		  "duration": 0.116279069767442,
		  "pitch": 74,
		  "start": 140.116279069767,
		  "velocity": 80
		},
		{
		  "duration": 0.116279069767442,
		  "pitch": 88,
		  "start": 140.232558139535,
		  "velocity": 80
		},
		{
		  "duration": 0.116279069767442,
		  "pitch": 76,
		  "start": 140.232558139535,
		  "velocity": 80
		},
		{
		  "duration": 0.116279069767442,
		  "pitch": 90,
		  "start": 140.348837209302,
		  "velocity": 80
		},
		{
		  "duration": 0.116279069767442,
		  "pitch": 78,
		  "start": 140.348837209302,
		  "velocity": 80
		},
		{
		  "duration": 0.116279069767442,
		  "pitch": 91,
		  "start": 140.46511627907,
		  "velocity": 80
		},
		{
		  "duration": 0.116279069767442,
		  "pitch": 79,
		  "start": 140.46511627907,
		  "velocity": 80
		},
		{
		  "duration": 0.116279069767442,
		  "pitch": 93,
		  "start": 140.581395348837,
		  "velocity": 80
		},
		{
		  "duration": 0.116279069767442,
		  "pitch": 81,
		  "start": 140.581395348837,
		  "velocity": 80
		},
		{
		  "duration": 0.116279069767442,
		  "pitch": 91,
		  "start": 140.697674418605,
		  "velocity": 80
		},
		{
		  "duration": 0.116279069767442,
		  "pitch": 79,
		  "start": 140.697674418605,
		  "velocity": 80
		},
		{
		  "duration": 0.116279069767442,
		  "pitch": 90,
		  "start": 140.813953488372,
		  "velocity": 80
		},
		{
		  "duration": 0.116279069767442,
		  "pitch": 78,
		  "start": 140.813953488372,
		  "velocity": 80
		},
		{
		  "duration": 0.116279069767442,
		  "pitch": 91,
		  "start": 140.93023255814,
		  "velocity": 80
		},
		{
		  "duration": 0.116279069767442,
		  "pitch": 79,
		  "start": 140.93023255814,
		  "velocity": 80
		},
		{
		  "duration": 0.116279069767442,
		  "pitch": 90,
		  "start": 141.046511627907,
		  "velocity": 80
		},
		{
		  "duration": 0.116279069767442,
		  "pitch": 78,
		  "start": 141.046511627907,
		  "velocity": 80
		},
		{
		  "duration": 0.116279069767442,
		  "pitch": 88,
		  "start": 141.162790697674,
		  "velocity": 80
		},
		{
		  "duration": 0.116279069767442,
		  "pitch": 76,
		  "start": 141.162790697674,
		  "velocity": 80
		},
		{
		  "duration": 0.116279069767442,
		  "pitch": 90,
		  "start": 141.279069767442,
		  "velocity": 80
		},
		{
		  "duration": 0.116279069767442,
		  "pitch": 78,
		  "start": 141.279069767442,
		  "velocity": 80
		},
		{
		  "duration": 0.116279069767442,
		  "pitch": 88,
		  "start": 141.395348837209,
		  "velocity": 80
		},
		{
		  "duration": 0.116279069767442,
		  "pitch": 76,
		  "start": 141.395348837209,
		  "velocity": 80
		},
		{
		  "duration": 0.116279069767442,
		  "pitch": 86,
		  "start": 141.511627906977,
		  "velocity": 80
		},
		{
		  "duration": 0.116279069767442,
		  "pitch": 74,
		  "start": 141.511627906977,
		  "velocity": 80
		},
		{
		  "duration": 0.116279069767442,
		  "pitch": 88,
		  "start": 141.627906976744,
		  "velocity": 80
		},
		{
		  "duration": 0.116279069767442,
		  "pitch": 76,
		  "start": 141.627906976744,
		  "velocity": 80
		},
		{
		  "duration": 0.116279069767442,
		  "pitch": 86,
		  "start": 141.744186046512,
		  "velocity": 80
		},
		{
		  "duration": 0.116279069767442,
		  "pitch": 74,
		  "start": 141.744186046512,
		  "velocity": 80
		},
		{
		  "duration": 0.116279069767442,
		  "pitch": 84,
		  "start": 141.860465116279,
		  "velocity": 80
		},
		{
		  "duration": 0.116279069767442,
		  "pitch": 72,
		  "start": 141.860465116279,
		  "velocity": 80
		},
		{
		  "duration": 0.116279069767442,
		  "pitch": 83,
		  "start": 141.976744186047,
		  "velocity": 80
		},
		{
		  "duration": 0.116279069767442,
		  "pitch": 71,
		  "start": 141.976744186047,
		  "velocity": 80
		},
		{
		  "duration": 0.116279069767442,
		  "pitch": 86,
		  "start": 142.093023255814,
		  "velocity": 80
		},
		{
		  "duration": 0.116279069767442,
		  "pitch": 74,
		  "start": 142.093023255814,
		  "velocity": 80
		},
		{
		  "duration": 0.116279069767442,
		  "pitch": 90,
		  "start": 142.209302325581,
		  "velocity": 80
		},
		{
		  "duration": 0.116279069767442,
		  "pitch": 78,
		  "start": 142.209302325581,
		  "velocity": 80
		},
		{
		  "duration": 0.116279069767442,
		  "pitch": 84,
		  "start": 142.325581395349,
		  "velocity": 80
		},
		{
		  "duration": 0.116279069767442,
		  "pitch": 72,
		  "start": 142.325581395349,
		  "velocity": 80
		},
		{
		  "duration": 0.116279069767442,
		  "pitch": 86,
		  "start": 142.441860465116,
		  "velocity": 80
		},
		{
		  "duration": 0.116279069767442,
		  "pitch": 74,
		  "start": 142.441860465116,
		  "velocity": 80
		},
		{
		  "duration": 0.116279069767442,
		  "pitch": 88,
		  "start": 142.558139534884,
		  "velocity": 80
		},
		{
		  "duration": 0.116279069767442,
		  "pitch": 76,
		  "start": 142.558139534884,
		  "velocity": 80
		},
		{
		  "duration": 0.116279069767442,
		  "pitch": 90,
		  "start": 142.674418604651,
		  "velocity": 80
		},
		{
		  "duration": 0.116279069767442,
		  "pitch": 78,
		  "start": 142.674418604651,
		  "velocity": 80
		},
		{
		  "duration": 0.116279069767442,
		  "pitch": 88,
		  "start": 142.790697674419,
		  "velocity": 80
		},
		{
		  "duration": 0.116279069767442,
		  "pitch": 76,
		  "start": 142.790697674419,
		  "velocity": 80
		},
		{
		  "duration": 0.116279069767442,
		  "pitch": 86,
		  "start": 142.906976744186,
		  "velocity": 80
		},
		{
		  "duration": 0.116279069767442,
		  "pitch": 74,
		  "start": 142.906976744186,
		  "velocity": 80
		},
		{
		  "duration": 0.116279069767442,
		  "pitch": 88,
		  "start": 143.023255813953,
		  "velocity": 80
		},
		{
		  "duration": 0.116279069767442,
		  "pitch": 76,
		  "start": 143.023255813953,
		  "velocity": 80
		},
		{
		  "duration": 0.116279069767442,
		  "pitch": 90,
		  "start": 143.139534883721,
		  "velocity": 80
		},
		{
		  "duration": 0.116279069767442,
		  "pitch": 78,
		  "start": 143.139534883721,
		  "velocity": 80
		},
		{
		  "duration": 0.116279069767442,
		  "pitch": 91,
		  "start": 143.255813953488,
		  "velocity": 80
		},
		{
		  "duration": 0.116279069767442,
		  "pitch": 79,
		  "start": 143.255813953488,
		  "velocity": 80
		},
		{
		  "duration": 0.116279069767442,
		  "pitch": 93,
		  "start": 143.372093023256,
		  "velocity": 80
		},
		{
		  "duration": 0.116279069767442,
		  "pitch": 81,
		  "start": 143.372093023256,
		  "velocity": 80
		},
		{
		  "duration": 0.116279069767442,
		  "pitch": 91,
		  "start": 143.488372093023,
		  "velocity": 80
		},
		{
		  "duration": 0.116279069767442,
		  "pitch": 79,
		  "start": 143.488372093023,
		  "velocity": 80
		},
		{
		  "duration": 0.116279069767442,
		  "pitch": 90,
		  "start": 143.604651162791,
		  "velocity": 80
		},
		{
		  "duration": 0.116279069767442,
		  "pitch": 78,
		  "start": 143.604651162791,
		  "velocity": 80
		},
		{
		  "duration": 0.116279069767442,
		  "pitch": 91,
		  "start": 143.720930232558,
		  "velocity": 80
		},
		{
		  "duration": 0.116279069767442,
		  "pitch": 79,
		  "start": 143.720930232558,
		  "velocity": 80
		},
		{
		  "duration": 0.116279069767442,
		  "pitch": 88,
		  "start": 143.837209302326,
		  "velocity": 80
		},
		{
		  "duration": 0.116279069767442,
		  "pitch": 76,
		  "start": 143.837209302326,
		  "velocity": 80
		},
		{
		  "duration": 0.116279069767442,
		  "pitch": 84,
		  "start": 143.953488372093,
		  "velocity": 80
		},
		{
		  "duration": 0.116279069767442,
		  "pitch": 72,
		  "start": 143.953488372093,
		  "velocity": 80
		},
		{
		  "duration": 0.116279069767442,
		  "pitch": 83,
		  "start": 144.06976744186,
		  "velocity": 80
		},
		{
		  "duration": 0.116279069767442,
		  "pitch": 71,
		  "start": 144.06976744186,
		  "velocity": 80
		},
		{
		  "duration": 0.116279069767442,
		  "pitch": 86,
		  "start": 144.186046511628,
		  "velocity": 80
		},
		{
		  "duration": 0.116279069767442,
		  "pitch": 74,
		  "start": 144.186046511628,
		  "velocity": 80
		},
		{
		  "duration": 0.116279069767442,
		  "pitch": 90,
		  "start": 144.302325581395,
		  "velocity": 80
		},
		{
		  "duration": 0.116279069767442,
		  "pitch": 78,
		  "start": 144.302325581395,
		  "velocity": 80
		},
		{
		  "duration": 0.116279069767442,
		  "pitch": 88,
		  "start": 144.418604651163,
		  "velocity": 80
		},
		{
		  "duration": 0.116279069767442,
		  "pitch": 76,
		  "start": 144.418604651163,
		  "velocity": 80
		},
		{
		  "duration": 0.116279069767442,
		  "pitch": 84,
		  "start": 144.53488372093,
		  "velocity": 80
		},
		{
		  "duration": 0.116279069767442,
		  "pitch": 72,
		  "start": 144.53488372093,
		  "velocity": 80
		},
		{
		  "duration": 0.116279069767442,
		  "pitch": 83,
		  "start": 144.651162790698,
		  "velocity": 80
		},
		{
		  "duration": 0.116279069767442,
		  "pitch": 71,
		  "start": 144.651162790698,
		  "velocity": 80
		},
		{
		  "duration": 0.348837209302326,
		  "pitch": 84,
		  "start": 144.767441860465,
		  "velocity": 80
		},
		{
		  "duration": 0.348837209302326,
		  "pitch": 72,
		  "start": 144.767441860465,
		  "velocity": 80
		},
		{
		  "duration": 0.697674418604651,
		  "pitch": 79,
		  "start": 145.116279069767,
		  "velocity": 80
		},
		{
		  "duration": 0.697674418604651,
		  "pitch": 67,
		  "start": 145.116279069767,
		  "velocity": 80
		},
		{
		  "duration": 0.348837209302326,
		  "pitch": 81,
		  "start": 145.813953488372,
		  "velocity": 80
		},
		{
		  "duration": 0.348837209302326,
		  "pitch": 69,
		  "start": 145.813953488372,
		  "velocity": 80
		},
		{
		  "duration": 0.348837209302326,
		  "pitch": 83,
		  "start": 146.162790697674,
		  "velocity": 80
		},
		{
		  "duration": 0.348837209302326,
		  "pitch": 71,
		  "start": 146.162790697674,
		  "velocity": 80
		},
		{
		  "duration": 1.3953488372093,
		  "pitch": 84,
		  "start": 146.511627906977,
		  "velocity": 80
		},
		{
		  "duration": 1.3953488372093,
		  "pitch": 72,
		  "start": 146.511627906977,
		  "velocity": 80
		},
		{
		  "duration": 0.697674418604651,
		  "pitch": 91,
		  "start": 147.906976744186,
		  "velocity": 80
		},
		{
		  "duration": 0.697674418604651,
		  "pitch": 79,
		  "start": 147.906976744186,
		  "velocity": 80
		},
		{
		  "duration": 0.348837209302326,
		  "pitch": 93,
		  "start": 148.604651162791,
		  "velocity": 80
		},
		{
		  "duration": 0.348837209302326,
		  "pitch": 81,
		  "start": 148.604651162791,
		  "velocity": 80
		},
		{
		  "duration": 0.348837209302326,
		  "pitch": 95,
		  "start": 148.953488372093,
		  "velocity": 80
		},
		{
		  "duration": 0.348837209302326,
		  "pitch": 83,
		  "start": 148.953488372093,
		  "velocity": 80
		},
		{
		  "duration": 1.3953488372093,
		  "pitch": 96,
		  "start": 149.302325581395,
		  "velocity": 80
		},
		{
		  "duration": 1.3953488372093,
		  "pitch": 84,
		  "start": 149.302325581395,
		  "velocity": 80
		},
		{
		  "duration": 0.697674418604651,
		  "pitch": 81,
		  "start": 150.697674418605,
		  "velocity": 80
		},
		{
		  "duration": 0.697674418604651,
		  "pitch": 69,
		  "start": 150.697674418605,
		  "velocity": 80
		},
		{
		  "duration": 0.348837209302326,
		  "pitch": 83,
		  "start": 151.395348837209,
		  "velocity": 80
		},
		{
		  "duration": 0.348837209302326,
		  "pitch": 71,
		  "start": 151.395348837209,
		  "velocity": 80
		},
		{
		  "duration": 0.348837209302326,
		  "pitch": 85,
		  "start": 151.744186046512,
		  "velocity": 80
		},
		{
		  "duration": 0.348837209302326,
		  "pitch": 73,
		  "start": 151.744186046512,
		  "velocity": 80
		},
		{
		  "duration": 1.3953488372093,
		  "pitch": 86,
		  "start": 152.093023255814,
		  "velocity": 80
		},
		{
		  "duration": 1.3953488372093,
		  "pitch": 74,
		  "start": 152.093023255814,
		  "velocity": 80
		},
		{
		  "duration": 0.348837209302326,
		  "pitch": 93,
		  "start": 153.488372093023,
		  "velocity": 80
		},
		{
		  "duration": 0.348837209302326,
		  "pitch": 81,
		  "start": 153.488372093023,
		  "velocity": 80
		},
		{
		  "duration": 0.348837209302326,
		  "pitch": 93,
		  "start": 153.837209302326,
		  "velocity": 80
		},
		{
		  "duration": 0.348837209302326,
		  "pitch": 81,
		  "start": 153.837209302326,
		  "velocity": 80
		},
		{
		  "duration": 0.348837209302326,
		  "pitch": 95,
		  "start": 154.186046511628,
		  "velocity": 80
		},
		{
		  "duration": 0.348837209302326,
		  "pitch": 83,
		  "start": 154.186046511628,
		  "velocity": 80
		},
		{
		  "duration": 0.348837209302326,
		  "pitch": 97,
		  "start": 154.53488372093,
		  "velocity": 80
		},
		{
		  "duration": 0.348837209302326,
		  "pitch": 85,
		  "start": 154.53488372093,
		  "velocity": 80
		},
		{
		  "duration": 1.3953488372093,
		  "pitch": 98,
		  "start": 154.883720930233,
		  "velocity": 80
		},
		{
		  "duration": 1.3953488372093,
		  "pitch": 86,
		  "start": 154.883720930233,
		  "velocity": 80
		},
		{
		  "duration": 0.116279069767442,
		  "pitch": 74,
		  "start": 156.279069767442,
		  "velocity": 80
		},
		{
		  "duration": 0.116279069767442,
		  "pitch": 74,
		  "start": 156.511627906977,
		  "velocity": 80
		},
		{
		  "duration": 0.348837209302326,
		  "pitch": 74,
		  "start": 156.627906976744,
		  "velocity": 80
		},
		{
		  "duration": 0.116279069767442,
		  "pitch": 74,
		  "start": 156.976744186047,
		  "velocity": 80
		},
		{
		  "duration": 0.116279069767442,
		  "pitch": 74,
		  "start": 157.209302325581,
		  "velocity": 80
		},
		{
		  "duration": 0.348837209302326,
		  "pitch": 74,
		  "start": 157.325581395349,
		  "velocity": 80
		},
		{
		  "duration": 0.116279069767442,
		  "pitch": 74,
		  "start": 157.674418604651,
		  "velocity": 80
		},
		{
		  "duration": 0.116279069767442,
		  "pitch": 74,
		  "start": 157.906976744186,
		  "velocity": 80
		},
		{
		  "duration": 0.348837209302326,
		  "pitch": 74,
		  "start": 158.023255813953,
		  "velocity": 80
		},
		{
		  "duration": 0.116279069767442,
		  "pitch": 74,
		  "start": 158.372093023256,
		  "velocity": 80
		},
		{
		  "duration": 0.116279069767442,
		  "pitch": 74,
		  "start": 158.604651162791,
		  "velocity": 80
		},
		{
		  "duration": 0.348837209302326,
		  "pitch": 74,
		  "start": 158.720930232558,
		  "velocity": 80
		},
		{
		  "duration": 0.116279069767442,
		  "pitch": 74,
		  "start": 159.06976744186,
		  "velocity": 80
		},
		{
		  "duration": 0.697674418604651,
		  "pitch": 74,
		  "start": 159.418604651163,
		  "velocity": 80
		},
		{
		  "duration": 0.116279069767442,
		  "pitch": 74,
		  "start": 160.116279069767,
		  "velocity": 80
		},
		{
		  "duration": 0.116279069767442,
		  "pitch": 74,
		  "start": 160.232558139535,
		  "velocity": 80
		},
		{
		  "duration": 0.116279069767442,
		  "pitch": 74,
		  "start": 160.348837209302,
		  "velocity": 80
		},
		{
		  "duration": 1.3953488372093,
		  "pitch": 74,
		  "start": 160.46511627907,
		  "velocity": 80
		},
		{
		  "duration": 0.116279069767442,
		  "pitch": 69,
		  "start": 161.860465116279,
		  "velocity": 80
		},
		{
		  "duration": 0.116279069767442,
		  "pitch": 69,
		  "start": 162.093023255814,
		  "velocity": 80
		},
		{
		  "duration": 0.348837209302326,
		  "pitch": 69,
		  "start": 162.209302325581,
		  "velocity": 80
		},
		{
		  "duration": 0.116279069767442,
		  "pitch": 69,
		  "start": 162.558139534884,
		  "velocity": 80
		},
		{
		  "duration": 0.116279069767442,
		  "pitch": 69,
		  "start": 162.790697674419,
		  "velocity": 80
		},
		{
		  "duration": 0.348837209302326,
		  "pitch": 69,
		  "start": 162.906976744186,
		  "velocity": 80
		},
		{
		  "duration": 0.116279069767442,
		  "pitch": 69,
		  "start": 163.255813953488,
		  "velocity": 80
		},
		{
		  "duration": 0.116279069767442,
		  "pitch": 69,
		  "start": 163.488372093023,
		  "velocity": 80
		},
		{
		  "duration": 0.348837209302326,
		  "pitch": 69,
		  "start": 163.604651162791,
		  "velocity": 80
		},
		{
		  "duration": 0.116279069767442,
		  "pitch": 69,
		  "start": 163.953488372093,
		  "velocity": 80
		},
		{
		  "duration": 0.116279069767442,
		  "pitch": 69,
		  "start": 164.186046511628,
		  "velocity": 80
		},
		{
		  "duration": 0.348837209302326,
		  "pitch": 69,
		  "start": 164.302325581395,
		  "velocity": 80
		},
		{
		  "duration": 0.116279069767442,
		  "pitch": 69,
		  "start": 164.651162790698,
		  "velocity": 80
		},
		{
		  "duration": 0.697674418604651,
		  "pitch": 69,
		  "start": 165.0,
		  "velocity": 80
		},
		{
		  "duration": 0.116279069767442,
		  "pitch": 69,
		  "start": 165.697674418605,
		  "velocity": 80
		},
		{
		  "duration": 0.116279069767442,
		  "pitch": 69,
		  "start": 165.813953488372,
		  "velocity": 80
		},
		{
		  "duration": 0.116279069767442,
		  "pitch": 69,
		  "start": 165.93023255814,
		  "velocity": 80
		},
		{
		  "duration": 1.3953488372093,
		  "pitch": 69,
		  "start": 166.046511627907,
		  "velocity": 80
		},
		{
		  "duration": 0.116279069767442,
		  "pitch": 74,
		  "start": 167.441860465116,
		  "velocity": 80
		},
		{
		  "duration": 0.116279069767442,
		  "pitch": 74,
		  "start": 167.674418604651,
		  "velocity": 80
		},
		{
		  "duration": 0.348837209302326,
		  "pitch": 74,
		  "start": 167.790697674419,
		  "velocity": 80
		},
		{
		  "duration": 0.116279069767442,
		  "pitch": 74,
		  "start": 168.139534883721,
		  "velocity": 80
		},
		{
		  "duration": 0.116279069767442,
		  "pitch": 74,
		  "start": 168.372093023256,
		  "velocity": 80
		},
		{
		  "duration": 0.348837209302326,
		  "pitch": 74,
		  "start": 168.488372093023,
		  "velocity": 80
		},
		{
		  "duration": 0.116279069767442,
		  "pitch": 74,
		  "start": 168.837209302326,
		  "velocity": 80
		},
		{
		  "duration": 0.116279069767442,
		  "pitch": 74,
		  "start": 169.06976744186,
		  "velocity": 80
		},
		{
		  "duration": 0.348837209302326,
		  "pitch": 74,
		  "start": 169.186046511628,
		  "velocity": 80
		},
		{
		  "duration": 0.116279069767442,
		  "pitch": 74,
		  "start": 169.53488372093,
		  "velocity": 80
		},
		{
		  "duration": 0.116279069767442,
		  "pitch": 74,
		  "start": 169.767441860465,
		  "velocity": 80
		},
		{
		  "duration": 0.348837209302326,
		  "pitch": 74,
		  "start": 169.883720930233,
		  "velocity": 80
		},
		{
		  "duration": 0.116279069767442,
		  "pitch": 74,
		  "start": 170.232558139535,
		  "velocity": 80
		},
		{
		  "duration": 0.697674418604651,
		  "pitch": 74,
		  "start": 170.581395348837,
		  "velocity": 80
		},
		{
		  "duration": 0.116279069767442,
		  "pitch": 74,
		  "start": 171.279069767442,
		  "velocity": 80
		},
		{
		  "duration": 0.116279069767442,
		  "pitch": 74,
		  "start": 171.395348837209,
		  "velocity": 80
		},
		{
		  "duration": 0.116279069767442,
		  "pitch": 74,
		  "start": 171.511627906977,
		  "velocity": 80
		},
		{
		  "duration": 1.3953488372093,
		  "pitch": 74,
		  "start": 171.627906976744,
		  "velocity": 80
		},
		{
		  "duration": 0.116279069767442,
		  "pitch": 69,
		  "start": 173.023255813953,
		  "velocity": 80
		},
		{
		  "duration": 0.116279069767442,
		  "pitch": 69,
		  "start": 173.255813953488,
		  "velocity": 80
		},
		{
		  "duration": 0.348837209302326,
		  "pitch": 69,
		  "start": 173.372093023256,
		  "velocity": 80
		},
		{
		  "duration": 0.116279069767442,
		  "pitch": 69,
		  "start": 173.720930232558,
		  "velocity": 80
		},
		{
		  "duration": 0.116279069767442,
		  "pitch": 69,
		  "start": 173.953488372093,
		  "velocity": 80
		},
		{
		  "duration": 0.348837209302326,
		  "pitch": 69,
		  "start": 174.06976744186,
		  "velocity": 80
		},
		{
		  "duration": 0.116279069767442,
		  "pitch": 69,
		  "start": 174.418604651163,
		  "velocity": 80
		},
		{
		  "duration": 0.116279069767442,
		  "pitch": 69,
		  "start": 174.651162790698,
		  "velocity": 80
		},
		{
		  "duration": 0.348837209302326,
		  "pitch": 69,
		  "start": 174.767441860465,
		  "velocity": 80
		},
		{
		  "duration": 0.116279069767442,
		  "pitch": 69,
		  "start": 175.116279069767,
		  "velocity": 80
		},
		{
		  "duration": 0.116279069767442,
		  "pitch": 69,
		  "start": 175.348837209302,
		  "velocity": 80
		},
		{
		  "duration": 0.348837209302326,
		  "pitch": 69,
		  "start": 175.46511627907,
		  "velocity": 80
		},
		{
		  "duration": 0.116279069767442,
		  "pitch": 69,
		  "start": 175.813953488372,
		  "velocity": 80
		},
		{
		  "duration": 0.697674418604651,
		  "pitch": 69,
		  "start": 176.162790697674,
		  "velocity": 80
		},
		{
		  "duration": 0.116279069767442,
		  "pitch": 69,
		  "start": 176.860465116279,
		  "velocity": 80
		},
		{
		  "duration": 0.116279069767442,
		  "pitch": 69,
		  "start": 176.976744186047,
		  "velocity": 80
		},
		{
		  "duration": 0.116279069767442,
		  "pitch": 69,
		  "start": 177.093023255814,
		  "velocity": 80
		},
		{
		  "duration": 1.3953488372093,
		  "pitch": 69,
		  "start": 177.209302325581,
		  "velocity": 80
		},
		{
		  "duration": 0.116279069767442,
		  "pitch": 74,
		  "start": 178.604651162791,
		  "velocity": 80
		},
		{
		  "duration": 0.116279069767442,
		  "pitch": 74,
		  "start": 178.837209302326,
		  "velocity": 80
		},
		{
		  "duration": 0.348837209302326,
		  "pitch": 74,
		  "start": 178.953488372093,
		  "velocity": 80
		},
		{
		  "duration": 0.116279069767442,
		  "pitch": 74,
		  "start": 179.302325581395,
		  "velocity": 80
		},
		{
		  "duration": 0.116279069767442,
		  "pitch": 74,
		  "start": 179.53488372093,
		  "velocity": 80
		},
		{
		  "duration": 0.348837209302326,
		  "pitch": 74,
		  "start": 179.651162790698,
		  "velocity": 80
		},
		{
		  "duration": 0.116279069767442,
		  "pitch": 74,
		  "start": 180.0,
		  "velocity": 80
		},
		{
		  "duration": 0.116279069767442,
		  "pitch": 74,
		  "start": 180.232558139535,
		  "velocity": 80
		},
		{
		  "duration": 0.348837209302326,
		  "pitch": 74,
		  "start": 180.348837209302,
		  "velocity": 80
		},
		{
		  "duration": 0.116279069767442,
		  "pitch": 74,
		  "start": 180.697674418605,
		  "velocity": 80
		},
		{
		  "duration": 0.116279069767442,
		  "pitch": 74,
		  "start": 180.93023255814,
		  "velocity": 80
		},
		{
		  "duration": 0.348837209302326,
		  "pitch": 74,
		  "start": 181.046511627907,
		  "velocity": 80
		},
		{
		  "duration": 0.116279069767442,
		  "pitch": 74,
		  "start": 181.395348837209,
		  "velocity": 80
		},
		{
		  "duration": 0.697674418604651,
		  "pitch": 74,
		  "start": 181.744186046512,
		  "velocity": 80
		},
		{
		  "duration": 0.116279069767442,
		  "pitch": 74,
		  "start": 182.441860465116,
		  "velocity": 80
		},
		{
		  "duration": 0.116279069767442,
		  "pitch": 74,
		  "start": 182.558139534884,
		  "velocity": 80
		},
		{
		  "duration": 0.116279069767442,
		  "pitch": 74,
		  "start": 182.674418604651,
		  "velocity": 80
		},
		{
		  "duration": 1.3953488372093,
		  "pitch": 74,
		  "start": 182.790697674419,
		  "velocity": 80
		},
		{
		  "duration": 0.116279069767442,
		  "pitch": 69,
		  "start": 184.186046511628,
		  "velocity": 80
		},
		{
		  "duration": 0.116279069767442,
		  "pitch": 69,
		  "start": 184.418604651163,
		  "velocity": 80
		},
		{
		  "duration": 0.348837209302326,
		  "pitch": 69,
		  "start": 184.53488372093,
		  "velocity": 80
		},
		{
		  "duration": 0.116279069767442,
		  "pitch": 69,
		  "start": 184.883720930233,
		  "velocity": 80
		},
		{
		  "duration": 0.116279069767442,
		  "pitch": 69,
		  "start": 185.116279069767,
		  "velocity": 80
		},
		{
		  "duration": 0.348837209302326,
		  "pitch": 69,
		  "start": 185.232558139535,
		  "velocity": 80
		},
		{
		  "duration": 0.116279069767442,
		  "pitch": 69,
		  "start": 185.581395348837,
		  "velocity": 80
		},
		{
		  "duration": 0.116279069767442,
		  "pitch": 69,
		  "start": 185.813953488372,
		  "velocity": 80
		},
		{
		  "duration": 0.348837209302326,
		  "pitch": 69,
		  "start": 185.93023255814,
		  "velocity": 80
		},
		{
		  "duration": 0.116279069767442,
		  "pitch": 69,
		  "start": 186.279069767442,
		  "velocity": 80
		},
		{
		  "duration": 0.116279069767442,
		  "pitch": 69,
		  "start": 186.511627906977,
		  "velocity": 80
		},
		{
		  "duration": 0.348837209302326,
		  "pitch": 69,
		  "start": 186.627906976744,
		  "velocity": 80
		},
		{
		  "duration": 0.697674418604651,
		  "pitch": 72,
		  "start": 186.976744186047,
		  "velocity": 80
		},
		{
		  "duration": 0.697674418604651,
		  "pitch": 74,
		  "start": 187.674418604651,
		  "velocity": 80
		},
		{
		  "duration": 0.697674418604651,
		  "pitch": 76,
		  "start": 188.372093023256,
		  "velocity": 80
		},
		{
		  "duration": 0.697674418604651,
		  "pitch": 76,
		  "start": 189.06976744186,
		  "velocity": 80
		},
		{
		  "duration": 2.7906976744186,
		  "pitch": 76,
		  "start": 189.767441860465,
		  "velocity": 80
		},
		{
		  "duration": 2.09302325581395,
		  "pitch": 88,
		  "start": 200.93023255814,
		  "velocity": 80
		},
		{
		  "duration": 2.09302325581395,
		  "pitch": 76,
		  "start": 200.93023255814,
		  "velocity": 80
		},
		{
		  "duration": 0.232558139534884,
		  "pitch": 74,
		  "start": 203.023255813953,
		  "velocity": 80
		},
		{
		  "duration": 0.232558139534884,
		  "pitch": 86,
		  "start": 203.023255813953,
		  "velocity": 80
		},
		{
		  "duration": 0.232558139534884,
		  "pitch": 74,
		  "start": 203.255813953488,
		  "velocity": 80
		},
		{
		  "duration": 0.232558139534884,
		  "pitch": 86,
		  "start": 203.255813953488,
		  "velocity": 80
		},
		{
		  "duration": 0.232558139534884,
		  "pitch": 74,
		  "start": 203.488372093023,
		  "velocity": 80
		},
		{
		  "duration": 0.232558139534884,
		  "pitch": 86,
		  "start": 203.488372093023,
		  "velocity": 80
		},
		{
		  "duration": 2.09302325581395,
		  "pitch": 88,
		  "start": 203.720930232558,
		  "velocity": 80
		},
		{
		  "duration": 2.09302325581395,
		  "pitch": 76,
		  "start": 203.720930232558,
		  "velocity": 80
		},
		{
		  "duration": 0.232558139534884,
		  "pitch": 74,
		  "start": 205.813953488372,
		  "velocity": 80
		},
		{
		  "duration": 0.232558139534884,
		  "pitch": 86,
		  "start": 205.813953488372,
		  "velocity": 80
		},
		{
		  "duration": 0.232558139534884,
		  "pitch": 74,
		  "start": 206.046511627907,
		  "velocity": 80
		},
		{
		  "duration": 0.232558139534884,
		  "pitch": 86,
		  "start": 206.046511627907,
		  "velocity": 80
		},
		{
		  "duration": 0.232558139534884,
		  "pitch": 74,
		  "start": 206.279069767442,
		  "velocity": 80
		},
		{
		  "duration": 0.232558139534884,
		  "pitch": 86,
		  "start": 206.279069767442,
		  "velocity": 80
		},
		{
		  "duration": 2.09302325581395,
		  "pitch": 84,
		  "start": 206.511627906977,
		  "velocity": 80
		},
		{
		  "duration": 2.09302325581395,
		  "pitch": 72,
		  "start": 206.511627906977,
		  "velocity": 80
		},
		{
		  "duration": 0.232558139534884,
		  "pitch": 72,
		  "start": 208.604651162791,
		  "velocity": 80
		},
		{
		  "duration": 0.232558139534884,
		  "pitch": 84,
		  "start": 208.604651162791,
		  "velocity": 80
		},
		{
		  "duration": 0.232558139534884,
		  "pitch": 72,
		  "start": 208.837209302326,
		  "velocity": 80
		},
		{
		  "duration": 0.232558139534884,
		  "pitch": 84,
		  "start": 208.837209302326,
		  "velocity": 80
		},
		{
		  "duration": 0.232558139534884,
		  "pitch": 72,
		  "start": 209.06976744186,
		  "velocity": 80
		},
		{
		  "duration": 0.232558139534884,
		  "pitch": 84,
		  "start": 209.06976744186,
		  "velocity": 80
		},
		{
		  "duration": 2.09302325581395,
		  "pitch": 84,
		  "start": 209.302325581395,
		  "velocity": 80
		},
		{
		  "duration": 2.09302325581395,
		  "pitch": 72,
		  "start": 209.302325581395,
		  "velocity": 80
		},
		{
		  "duration": 0.232558139534884,
		  "pitch": 81,
		  "start": 211.395348837209,
		  "velocity": 80
		},
		{
		  "duration": 0.232558139534884,
		  "pitch": 93,
		  "start": 211.395348837209,
		  "velocity": 80
		},
		{
		  "duration": 0.232558139534884,
		  "pitch": 81,
		  "start": 211.627906976744,
		  "velocity": 80
		},
		{
		  "duration": 0.232558139534884,
		  "pitch": 93,
		  "start": 211.627906976744,
		  "velocity": 80
		},
		{
		  "duration": 0.232558139534884,
		  "pitch": 81,
		  "start": 211.860465116279,
		  "velocity": 80
		},
		{
		  "duration": 0.232558139534884,
		  "pitch": 93,
		  "start": 211.860465116279,
		  "velocity": 80
		},
		{
		  "duration": 1.04651162790698,
		  "pitch": 89,
		  "start": 214.883720930233,
		  "velocity": 80
		},
		{
		  "duration": 1.04651162790698,
		  "pitch": 81,
		  "start": 214.883720930233,
		  "velocity": 80
		},
		{
		  "duration": 1.04651162790698,
		  "pitch": 93,
		  "start": 214.883720930233,
		  "velocity": 80
		},
		{
		  "duration": 1.04651162790698,
		  "pitch": 77,
		  "start": 214.883720930233,
		  "velocity": 80
		},
		{
		  "duration": 0.348837209302326,
		  "pitch": 88,
		  "start": 215.93023255814,
		  "velocity": 80
		},
		{
		  "duration": 0.348837209302326,
		  "pitch": 79,
		  "start": 215.93023255814,
		  "velocity": 80
		},
		{
		  "duration": 0.348837209302326,
		  "pitch": 91,
		  "start": 215.93023255814,
		  "velocity": 80
		},
		{
		  "duration": 0.348837209302326,
		  "pitch": 76,
		  "start": 215.93023255814,
		  "velocity": 80
		},
		{
		  "duration": 0.697674418604651,
		  "pitch": 86,
		  "start": 216.279069767442,
		  "velocity": 80
		},
		{
		  "duration": 0.697674418604651,
		  "pitch": 77,
		  "start": 216.279069767442,
		  "velocity": 80
		},
		{
		  "duration": 0.697674418604651,
		  "pitch": 89,
		  "start": 216.279069767442,
		  "velocity": 80
		},
		{
		  "duration": 0.697674418604651,
		  "pitch": 74,
		  "start": 216.279069767442,
		  "velocity": 80
		},
		{
		  "duration": 0.697674418604651,
		  "pitch": 83,
		  "start": 216.976744186047,
		  "velocity": 80
		},
		{
		  "duration": 0.697674418604651,
		  "pitch": 76,
		  "start": 216.976744186047,
		  "velocity": 80
		},
		{
		  "duration": 0.697674418604651,
		  "pitch": 88,
		  "start": 216.976744186047,
		  "velocity": 80
		},
		{
		  "duration": 0.697674418604651,
		  "pitch": 71,
		  "start": 216.976744186047,
		  "velocity": 80
		},
		{
		  "duration": 0.348837209302326,
		  "pitch": 91,
		  "start": 217.674418604651,
		  "velocity": 80
		},
		{
		  "duration": 0.348837209302326,
		  "pitch": 76,
		  "start": 217.674418604651,
		  "velocity": 80
		},
		{
		  "duration": 0.348837209302326,
		  "pitch": 88,
		  "start": 217.674418604651,
		  "velocity": 80
		},
		{
		  "duration": 0.348837209302326,
		  "pitch": 79,
		  "start": 217.674418604651,
		  "velocity": 80
		},
		{
		  "duration": 1.04651162790698,
		  "pitch": 89,
		  "start": 223.255813953488,
		  "velocity": 80
		},
		{
		  "duration": 1.04651162790698,
		  "pitch": 81,
		  "start": 223.255813953488,
		  "velocity": 80
		},
		{
		  "duration": 1.04651162790698,
		  "pitch": 93,
		  "start": 223.255813953488,
		  "velocity": 80
		},
		{
		  "duration": 1.04651162790698,
		  "pitch": 77,
		  "start": 223.255813953488,
		  "velocity": 80
		},
		{
		  "duration": 0.348837209302326,
		  "pitch": 88,
		  "start": 224.302325581395,
		  "velocity": 80
		},
		{
		  "duration": 0.348837209302326,
		  "pitch": 79,
		  "start": 224.302325581395,
		  "velocity": 80
		},
		{
		  "duration": 0.348837209302326,
		  "pitch": 91,
		  "start": 224.302325581395,
		  "velocity": 80
		},
		{
		  "duration": 0.348837209302326,
		  "pitch": 76,
		  "start": 224.302325581395,
		  "velocity": 80
		},
		{
		  "duration": 0.697674418604651,
		  "pitch": 86,
		  "start": 224.651162790698,
		  "velocity": 80
		},
		{
		  "duration": 0.697674418604651,
		  "pitch": 77,
		  "start": 224.651162790698,
		  "velocity": 80
		},
		{
		  "duration": 0.697674418604651,
		  "pitch": 89,
		  "start": 224.651162790698,
		  "velocity": 80
		},
		{
		  "duration": 0.697674418604651,
		  "pitch": 74,
		  "start": 224.651162790698,
		  "velocity": 80
		},
		{
		  "duration": 0.697674418604651,
		  "pitch": 83,
		  "start": 225.348837209302,
		  "velocity": 80
		},
		{
		  "duration": 0.697674418604651,
		  "pitch": 76,
		  "start": 225.348837209302,
		  "velocity": 80
		},
		{
		  "duration": 0.697674418604651,
		  "pitch": 88,
		  "start": 225.348837209302,
		  "velocity": 80
		},
		{
		  "duration": 0.697674418604651,
		  "pitch": 71,
		  "start": 225.348837209302,
		  "velocity": 80
		},
		{
		  "duration": 0.348837209302326,
		  "pitch": 91,
		  "start": 226.046511627907,
		  "velocity": 80
		},
		{
		  "duration": 0.348837209302326,
		  "pitch": 76,
		  "start": 226.046511627907,
		  "velocity": 80
		},
		{
		  "duration": 0.348837209302326,
		  "pitch": 88,
		  "start": 226.046511627907,
		  "velocity": 80
		},
		{
		  "duration": 0.348837209302326,
		  "pitch": 79,
		  "start": 226.046511627907,
		  "velocity": 80
		},
		{
		  "duration": 0.116279069767442,
		  "pitch": 72,
		  "start": 234.418604651163,
		  "velocity": 80
		},
		{
		  "duration": 0.116279069767442,
		  "pitch": 84,
		  "start": 234.418604651163,
		  "velocity": 80
		},
		{
		  "duration": 0.116279069767442,
		  "pitch": 86,
		  "start": 234.53488372093,
		  "velocity": 80
		},
		{
		  "duration": 0.116279069767442,
		  "pitch": 74,
		  "start": 234.53488372093,
		  "velocity": 80
		},
		{
		  "duration": 0.116279069767442,
		  "pitch": 88,
		  "start": 234.651162790698,
		  "velocity": 80
		},
		{
		  "duration": 0.116279069767442,
		  "pitch": 76,
		  "start": 234.651162790698,
		  "velocity": 80
		},
		{
		  "duration": 0.116279069767442,
		  "pitch": 90,
		  "start": 234.767441860465,
		  "velocity": 80
		},
		{
		  "duration": 0.116279069767442,
		  "pitch": 78,
		  "start": 234.767441860465,
		  "velocity": 80
		},
		{
		  "duration": 0.116279069767442,
		  "pitch": 88,
		  "start": 234.883720930233,
		  "velocity": 80
		},
		{
		  "duration": 0.116279069767442,
		  "pitch": 76,
		  "start": 234.883720930233,
		  "velocity": 80
		},
		{
		  "duration": 0.116279069767442,
		  "pitch": 86,
		  "start": 235.0,
		  "velocity": 80
		},
		{
		  "duration": 0.116279069767442,
		  "pitch": 74,
		  "start": 235.0,
		  "velocity": 80
		},
		{
		  "duration": 0.116279069767442,
		  "pitch": 88,
		  "start": 235.116279069767,
		  "velocity": 80
		},
		{
		  "duration": 0.116279069767442,
		  "pitch": 76,
		  "start": 235.116279069767,
		  "velocity": 80
		},
		{
		  "duration": 0.116279069767442,
		  "pitch": 90,
		  "start": 235.232558139535,
		  "velocity": 80
		},
		{
		  "duration": 0.116279069767442,
		  "pitch": 78,
		  "start": 235.232558139535,
		  "velocity": 80
		},
		{
		  "duration": 0.116279069767442,
		  "pitch": 91,
		  "start": 235.348837209302,
		  "velocity": 80
		},
		{
		  "duration": 0.116279069767442,
		  "pitch": 79,
		  "start": 235.348837209302,
		  "velocity": 80
		},
		{
		  "duration": 0.116279069767442,
		  "pitch": 93,
		  "start": 235.46511627907,
		  "velocity": 80
		},
		{
		  "duration": 0.116279069767442,
		  "pitch": 81,
		  "start": 235.46511627907,
		  "velocity": 80
		},
		{
		  "duration": 0.116279069767442,
		  "pitch": 91,
		  "start": 235.581395348837,
		  "velocity": 80
		},
		{
		  "duration": 0.116279069767442,
		  "pitch": 79,
		  "start": 235.581395348837,
		  "velocity": 80
		},
		{
		  "duration": 0.116279069767442,
		  "pitch": 90,
		  "start": 235.697674418605,
		  "velocity": 80
		},
		{
		  "duration": 0.116279069767442,
		  "pitch": 78,
		  "start": 235.697674418605,
		  "velocity": 80
		},
		{
		  "duration": 0.116279069767442,
		  "pitch": 91,
		  "start": 235.813953488372,
		  "velocity": 80
		},
		{
		  "duration": 0.116279069767442,
		  "pitch": 79,
		  "start": 235.813953488372,
		  "velocity": 80
		},
		{
		  "duration": 0.116279069767442,
		  "pitch": 90,
		  "start": 235.93023255814,
		  "velocity": 80
		},
		{
		  "duration": 0.116279069767442,
		  "pitch": 78,
		  "start": 235.93023255814,
		  "velocity": 80
		},
		{
		  "duration": 0.116279069767442,
		  "pitch": 88,
		  "start": 236.046511627907,
		  "velocity": 80
		},
		{
		  "duration": 0.116279069767442,
		  "pitch": 76,
		  "start": 236.046511627907,
		  "velocity": 80
		},
		{
		  "duration": 0.116279069767442,
		  "pitch": 90,
		  "start": 236.162790697674,
		  "velocity": 80
		},
		{
		  "duration": 0.116279069767442,
		  "pitch": 78,
		  "start": 236.162790697674,
		  "velocity": 80
		},
		{
		  "duration": 0.116279069767442,
		  "pitch": 88,
		  "start": 236.279069767442,
		  "velocity": 80
		},
		{
		  "duration": 0.116279069767442,
		  "pitch": 76,
		  "start": 236.279069767442,
		  "velocity": 80
		},
		{
		  "duration": 0.116279069767442,
		  "pitch": 86,
		  "start": 236.395348837209,
		  "velocity": 80
		},
		{
		  "duration": 0.116279069767442,
		  "pitch": 74,
		  "start": 236.395348837209,
		  "velocity": 80
		},
		{
		  "duration": 0.116279069767442,
		  "pitch": 88,
		  "start": 236.511627906977,
		  "velocity": 80
		},
		{
		  "duration": 0.116279069767442,
		  "pitch": 76,
		  "start": 236.511627906977,
		  "velocity": 80
		},
		{
		  "duration": 0.116279069767442,
		  "pitch": 86,
		  "start": 236.627906976744,
		  "velocity": 80
		},
		{
		  "duration": 0.116279069767442,
		  "pitch": 74,
		  "start": 236.627906976744,
		  "velocity": 80
		},
		{
		  "duration": 0.116279069767442,
		  "pitch": 84,
		  "start": 236.744186046512,
		  "velocity": 80
		},
		{
		  "duration": 0.116279069767442,
		  "pitch": 72,
		  "start": 236.744186046512,
		  "velocity": 80
		},
		{
		  "duration": 0.116279069767442,
		  "pitch": 83,
		  "start": 236.860465116279,
		  "velocity": 80
		},
		{
		  "duration": 0.116279069767442,
		  "pitch": 71,
		  "start": 236.860465116279,
		  "velocity": 80
		},
		{
		  "duration": 0.116279069767442,
		  "pitch": 86,
		  "start": 236.976744186047,
		  "velocity": 80
		},
		{
		  "duration": 0.116279069767442,
		  "pitch": 74,
		  "start": 236.976744186047,
		  "velocity": 80
		},
		{
		  "duration": 0.116279069767442,
		  "pitch": 90,
		  "start": 237.093023255814,
		  "velocity": 80
		},
		{
		  "duration": 0.116279069767442,
		  "pitch": 78,
		  "start": 237.093023255814,
		  "velocity": 80
		},
		{
		  "duration": 0.116279069767442,
		  "pitch": 84,
		  "start": 237.209302325581,
		  "velocity": 80
		},
		{
		  "duration": 0.116279069767442,
		  "pitch": 72,
		  "start": 237.209302325581,
		  "velocity": 80
		},
		{
		  "duration": 0.116279069767442,
		  "pitch": 86,
		  "start": 237.325581395349,
		  "velocity": 80
		},
		{
		  "duration": 0.116279069767442,
		  "pitch": 74,
		  "start": 237.325581395349,
		  "velocity": 80
		},
		{
		  "duration": 0.116279069767442,
		  "pitch": 88,
		  "start": 237.441860465116,
		  "velocity": 80
		},
		{
		  "duration": 0.116279069767442,
		  "pitch": 76,
		  "start": 237.441860465116,
		  "velocity": 80
		},
		{
		  "duration": 0.116279069767442,
		  "pitch": 90,
		  "start": 237.558139534884,
		  "velocity": 80
		},
		{
		  "duration": 0.116279069767442,
		  "pitch": 78,
		  "start": 237.558139534884,
		  "velocity": 80
		},
		{
		  "duration": 0.116279069767442,
		  "pitch": 88,
		  "start": 237.674418604651,
		  "velocity": 80
		},
		{
		  "duration": 0.116279069767442,
		  "pitch": 76,
		  "start": 237.674418604651,
		  "velocity": 80
		},
		{
		  "duration": 0.116279069767442,
		  "pitch": 86,
		  "start": 237.790697674419,
		  "velocity": 80
		},
		{
		  "duration": 0.116279069767442,
		  "pitch": 74,
		  "start": 237.790697674419,
		  "velocity": 80
		},
		{
		  "duration": 0.116279069767442,
		  "pitch": 88,
		  "start": 237.906976744186,
		  "velocity": 80
		},
		{
		  "duration": 0.116279069767442,
		  "pitch": 76,
		  "start": 237.906976744186,
		  "velocity": 80
		},
		{
		  "duration": 0.116279069767442,
		  "pitch": 90,
		  "start": 238.023255813953,
		  "velocity": 80
		},
		{
		  "duration": 0.116279069767442,
		  "pitch": 78,
		  "start": 238.023255813953,
		  "velocity": 80
		},
		{
		  "duration": 0.116279069767442,
		  "pitch": 91,
		  "start": 238.139534883721,
		  "velocity": 80
		},
		{
		  "duration": 0.116279069767442,
		  "pitch": 79,
		  "start": 238.139534883721,
		  "velocity": 80
		},
		{
		  "duration": 0.116279069767442,
		  "pitch": 93,
		  "start": 238.255813953488,
		  "velocity": 80
		},
		{
		  "duration": 0.116279069767442,
		  "pitch": 81,
		  "start": 238.255813953488,
		  "velocity": 80
		},
		{
		  "duration": 0.116279069767442,
		  "pitch": 91,
		  "start": 238.372093023256,
		  "velocity": 80
		},
		{
		  "duration": 0.116279069767442,
		  "pitch": 79,
		  "start": 238.372093023256,
		  "velocity": 80
		},
		{
		  "duration": 0.116279069767442,
		  "pitch": 90,
		  "start": 238.488372093023,
		  "velocity": 80
		},
		{
		  "duration": 0.116279069767442,
		  "pitch": 78,
		  "start": 238.488372093023,
		  "velocity": 80
		},
		{
		  "duration": 0.116279069767442,
		  "pitch": 91,
		  "start": 238.604651162791,
		  "velocity": 80
		},
		{
		  "duration": 0.116279069767442,
		  "pitch": 79,
		  "start": 238.604651162791,
		  "velocity": 80
		},
		{
		  "duration": 0.116279069767442,
		  "pitch": 88,
		  "start": 238.720930232558,
		  "velocity": 80
		},
		{
		  "duration": 0.116279069767442,
		  "pitch": 76,
		  "start": 238.720930232558,
		  "velocity": 80
		},
		{
		  "duration": 0.116279069767442,
		  "pitch": 84,
		  "start": 238.837209302326,
		  "velocity": 80
		},
		{
		  "duration": 0.116279069767442,
		  "pitch": 72,
		  "start": 238.837209302326,
		  "velocity": 80
		},
		{
		  "duration": 0.116279069767442,
		  "pitch": 83,
		  "start": 238.953488372093,
		  "velocity": 80
		},
		{
		  "duration": 0.116279069767442,
		  "pitch": 71,
		  "start": 238.953488372093,
		  "velocity": 80
		},
		{
		  "duration": 0.116279069767442,
		  "pitch": 86,
		  "start": 239.06976744186,
		  "velocity": 80
		},
		{
		  "duration": 0.116279069767442,
		  "pitch": 74,
		  "start": 239.06976744186,
		  "velocity": 80
		},
		{
		  "duration": 0.116279069767442,
		  "pitch": 90,
		  "start": 239.186046511628,
		  "velocity": 80
		},
		{
		  "duration": 0.116279069767442,
		  "pitch": 78,
		  "start": 239.186046511628,
		  "velocity": 80
		},
		{
		  "duration": 0.116279069767442,
		  "pitch": 88,
		  "start": 239.302325581395,
		  "velocity": 80
		},
		{
		  "duration": 0.116279069767442,
		  "pitch": 76,
		  "start": 239.302325581395,
		  "velocity": 80
		},
		{
		  "duration": 0.116279069767442,
		  "pitch": 84,
		  "start": 239.418604651163,
		  "velocity": 80
		},
		{
		  "duration": 0.116279069767442,
		  "pitch": 72,
		  "start": 239.418604651163,
		  "velocity": 80
		},
		{
		  "duration": 0.116279069767442,
		  "pitch": 83,
		  "start": 239.53488372093,
		  "velocity": 80
		},
		{
		  "duration": 0.116279069767442,
		  "pitch": 71,
		  "start": 239.53488372093,
		  "velocity": 80
		},
		{
		  "duration": 0.348837209302326,
		  "pitch": 84,
		  "start": 239.651162790698,
		  "velocity": 80
		},
		{
		  "duration": 0.348837209302326,
		  "pitch": 72,
		  "start": 239.651162790698,
		  "velocity": 80
		},
		{
		  "duration": 0.697674418604651,
		  "pitch": 79,
		  "start": 240.0,
		  "velocity": 80
		},
		{
		  "duration": 0.697674418604651,
		  "pitch": 67,
		  "start": 240.0,
		  "velocity": 80
		},
		{
		  "duration": 0.348837209302326,
		  "pitch": 81,
		  "start": 240.697674418605,
		  "velocity": 80
		},
		{
		  "duration": 0.348837209302326,
		  "pitch": 69,
		  "start": 240.697674418605,
		  "velocity": 80
		},
		{
		  "duration": 0.348837209302326,
		  "pitch": 83,
		  "start": 241.046511627907,
		  "velocity": 80
		},
		{
		  "duration": 0.348837209302326,
		  "pitch": 71,
		  "start": 241.046511627907,
		  "velocity": 80
		},
		{
		  "duration": 1.3953488372093,
		  "pitch": 84,
		  "start": 241.395348837209,
		  "velocity": 80
		},
		{
		  "duration": 1.3953488372093,
		  "pitch": 72,
		  "start": 241.395348837209,
		  "velocity": 80
		},
		{
		  "duration": 0.697674418604651,
		  "pitch": 91,
		  "start": 242.790697674419,
		  "velocity": 80
		},
		{
		  "duration": 0.697674418604651,
		  "pitch": 79,
		  "start": 242.790697674419,
		  "velocity": 80
		},
		{
		  "duration": 0.348837209302326,
		  "pitch": 93,
		  "start": 243.488372093023,
		  "velocity": 80
		},
		{
		  "duration": 0.348837209302326,
		  "pitch": 81,
		  "start": 243.488372093023,
		  "velocity": 80
		},
		{
		  "duration": 0.348837209302326,
		  "pitch": 95,
		  "start": 243.837209302326,
		  "velocity": 80
		},
		{
		  "duration": 0.348837209302326,
		  "pitch": 83,
		  "start": 243.837209302326,
		  "velocity": 80
		},
		{
		  "duration": 1.3953488372093,
		  "pitch": 96,
		  "start": 244.186046511628,
		  "velocity": 80
		},
		{
		  "duration": 1.3953488372093,
		  "pitch": 84,
		  "start": 244.186046511628,
		  "velocity": 80
		},
		{
		  "duration": 0.697674418604651,
		  "pitch": 81,
		  "start": 245.581395348837,
		  "velocity": 80
		},
		{
		  "duration": 0.697674418604651,
		  "pitch": 69,
		  "start": 245.581395348837,
		  "velocity": 80
		},
		{
		  "duration": 0.348837209302326,
		  "pitch": 83,
		  "start": 246.279069767442,
		  "velocity": 80
		},
		{
		  "duration": 0.348837209302326,
		  "pitch": 71,
		  "start": 246.279069767442,
		  "velocity": 80
		},
		{
		  "duration": 0.348837209302326,
		  "pitch": 85,
		  "start": 246.627906976744,
		  "velocity": 80
		},
		{
		  "duration": 0.348837209302326,
		  "pitch": 73,
		  "start": 246.627906976744,
		  "velocity": 80
		},
		{
		  "duration": 1.3953488372093,
		  "pitch": 86,
		  "start": 246.976744186047,
		  "velocity": 80
		},
		{
		  "duration": 1.3953488372093,
		  "pitch": 74,
		  "start": 246.976744186047,
		  "velocity": 80
		},
		{
		  "duration": 0.348837209302326,
		  "pitch": 93,
		  "start": 248.372093023256,
		  "velocity": 80
		},
		{
		  "duration": 0.348837209302326,
		  "pitch": 81,
		  "start": 248.372093023256,
		  "velocity": 80
		},
		{
		  "duration": 0.348837209302326,
		  "pitch": 93,
		  "start": 248.720930232558,
		  "velocity": 80
		},
		{
		  "duration": 0.348837209302326,
		  "pitch": 81,
		  "start": 248.720930232558,
		  "velocity": 80
		},
		{
		  "duration": 0.348837209302326,
		  "pitch": 95,
		  "start": 249.06976744186,
		  "velocity": 80
		},
		{
		  "duration": 0.348837209302326,
		  "pitch": 83,
		  "start": 249.06976744186,
		  "velocity": 80
		},
		{
		  "duration": 0.348837209302326,
		  "pitch": 97,
		  "start": 249.418604651163,
		  "velocity": 80
		},
		{
		  "duration": 0.348837209302326,
		  "pitch": 85,
		  "start": 249.418604651163,
		  "velocity": 80
		},
		{
		  "duration": 1.3953488372093,
		  "pitch": 98,
		  "start": 249.767441860465,
		  "velocity": 80
		},
		{
		  "duration": 1.3953488372093,
		  "pitch": 86,
		  "start": 249.767441860465,
		  "velocity": 80
		},
		{
		  "duration": 0.116279069767442,
		  "pitch": 74,
		  "start": 251.162790697674,
		  "velocity": 80
		},
		{
		  "duration": 0.116279069767442,
		  "pitch": 74,
		  "start": 251.395348837209,
		  "velocity": 80
		},
		{
		  "duration": 0.348837209302326,
		  "pitch": 74,
		  "start": 251.511627906977,
		  "velocity": 80
		},
		{
		  "duration": 0.116279069767442,
		  "pitch": 74,
		  "start": 251.860465116279,
		  "velocity": 80
		},
		{
		  "duration": 0.116279069767442,
		  "pitch": 74,
		  "start": 252.093023255814,
		  "velocity": 80
		},
		{
		  "duration": 0.348837209302326,
		  "pitch": 74,
		  "start": 252.209302325581,
		  "velocity": 80
		},
		{
		  "duration": 0.116279069767442,
		  "pitch": 74,
		  "start": 252.558139534884,
		  "velocity": 80
		},
		{
		  "duration": 0.116279069767442,
		  "pitch": 74,
		  "start": 252.790697674419,
		  "velocity": 80
		},
		{
		  "duration": 0.348837209302326,
		  "pitch": 74,
		  "start": 252.906976744186,
		  "velocity": 80
		},
		{
		  "duration": 0.116279069767442,
		  "pitch": 74,
		  "start": 253.255813953488,
		  "velocity": 80
		},
		{
		  "duration": 0.116279069767442,
		  "pitch": 74,
		  "start": 253.488372093023,
		  "velocity": 80
		},
		{
		  "duration": 0.348837209302326,
		  "pitch": 74,
		  "start": 253.604651162791,
		  "velocity": 80
		},
		{
		  "duration": 0.116279069767442,
		  "pitch": 74,
		  "start": 253.953488372093,
		  "velocity": 80
		},
		{
		  "duration": 0.697674418604651,
		  "pitch": 74,
		  "start": 254.302325581395,
		  "velocity": 80
		},
		{
		  "duration": 0.116279069767442,
		  "pitch": 74,
		  "start": 255.0,
		  "velocity": 80
		},
		{
		  "duration": 0.116279069767442,
		  "pitch": 74,
		  "start": 255.116279069767,
		  "velocity": 80
		},
		{
		  "duration": 0.116279069767442,
		  "pitch": 74,
		  "start": 255.232558139535,
		  "velocity": 80
		},
		{
		  "duration": 1.3953488372093,
		  "pitch": 74,
		  "start": 255.348837209302,
		  "velocity": 80
		},
		{
		  "duration": 0.116279069767442,
		  "pitch": 69,
		  "start": 256.744186046512,
		  "velocity": 80
		},
		{
		  "duration": 0.116279069767442,
		  "pitch": 69,
		  "start": 256.976744186047,
		  "velocity": 80
		},
		{
		  "duration": 0.348837209302326,
		  "pitch": 69,
		  "start": 257.093023255814,
		  "velocity": 80
		},
		{
		  "duration": 0.116279069767442,
		  "pitch": 69,
		  "start": 257.441860465116,
		  "velocity": 80
		},
		{
		  "duration": 0.116279069767442,
		  "pitch": 69,
		  "start": 257.674418604651,
		  "velocity": 80
		},
		{
		  "duration": 0.348837209302326,
		  "pitch": 69,
		  "start": 257.790697674419,
		  "velocity": 80
		},
		{
		  "duration": 0.116279069767442,
		  "pitch": 69,
		  "start": 258.139534883721,
		  "velocity": 80
		},
		{
		  "duration": 0.116279069767442,
		  "pitch": 69,
		  "start": 258.372093023256,
		  "velocity": 80
		},
		{
		  "duration": 0.348837209302326,
		  "pitch": 69,
		  "start": 258.488372093023,
		  "velocity": 80
		},
		{
		  "duration": 0.116279069767442,
		  "pitch": 69,
		  "start": 258.837209302326,
		  "velocity": 80
		},
		{
		  "duration": 0.116279069767442,
		  "pitch": 69,
		  "start": 259.06976744186,
		  "velocity": 80
		},
		{
		  "duration": 0.348837209302326,
		  "pitch": 69,
		  "start": 259.186046511628,
		  "velocity": 80
		},
		{
		  "duration": 0.116279069767442,
		  "pitch": 69,
		  "start": 259.53488372093,
		  "velocity": 80
		},
		{
		  "duration": 0.697674418604651,
		  "pitch": 69,
		  "start": 259.883720930233,
		  "velocity": 80
		},
		{
		  "duration": 0.116279069767442,
		  "pitch": 69,
		  "start": 260.581395348837,
		  "velocity": 80
		},
		{
		  "duration": 0.116279069767442,
		  "pitch": 69,
		  "start": 260.697674418605,
		  "velocity": 80
		},
		{
		  "duration": 0.116279069767442,
		  "pitch": 69,
		  "start": 260.813953488372,
		  "velocity": 80
		},
		{
		  "duration": 1.3953488372093,
		  "pitch": 69,
		  "start": 260.93023255814,
		  "velocity": 80
		},
		{
		  "duration": 0.116279069767442,
		  "pitch": 74,
		  "start": 262.325581395349,
		  "velocity": 80
		},
		{
		  "duration": 0.116279069767442,
		  "pitch": 74,
		  "start": 262.558139534884,
		  "velocity": 80
		},
		{
		  "duration": 0.348837209302326,
		  "pitch": 74,
		  "start": 262.674418604651,
		  "velocity": 80
		},
		{
		  "duration": 0.116279069767442,
		  "pitch": 74,
		  "start": 263.023255813953,
		  "velocity": 80
		},
		{
		  "duration": 0.116279069767442,
		  "pitch": 74,
		  "start": 263.255813953488,
		  "velocity": 80
		},
		{
		  "duration": 0.348837209302326,
		  "pitch": 74,
		  "start": 263.372093023256,
		  "velocity": 80
		},
		{
		  "duration": 0.116279069767442,
		  "pitch": 74,
		  "start": 263.720930232558,
		  "velocity": 80
		},
		{
		  "duration": 0.116279069767442,
		  "pitch": 74,
		  "start": 263.953488372093,
		  "velocity": 80
		},
		{
		  "duration": 0.348837209302326,
		  "pitch": 74,
		  "start": 264.06976744186,
		  "velocity": 80
		},
		{
		  "duration": 0.116279069767442,
		  "pitch": 74,
		  "start": 264.418604651163,
		  "velocity": 80
		},
		{
		  "duration": 0.116279069767442,
		  "pitch": 74,
		  "start": 264.651162790698,
		  "velocity": 80
		},
		{
		  "duration": 0.348837209302326,
		  "pitch": 74,
		  "start": 264.767441860465,
		  "velocity": 80
		},
		{
		  "duration": 0.116279069767442,
		  "pitch": 74,
		  "start": 265.116279069767,
		  "velocity": 80
		},
		{
		  "duration": 0.697674418604651,
		  "pitch": 74,
		  "start": 265.46511627907,
		  "velocity": 80
		},
		{
		  "duration": 0.116279069767442,
		  "pitch": 74,
		  "start": 266.162790697674,
		  "velocity": 80
		},
		{
		  "duration": 0.116279069767442,
		  "pitch": 74,
		  "start": 266.279069767442,
		  "velocity": 80
		},
		{
		  "duration": 0.116279069767442,
		  "pitch": 74,
		  "start": 266.395348837209,
		  "velocity": 80
		},
		{
		  "duration": 1.3953488372093,
		  "pitch": 74,
		  "start": 266.511627906977,
		  "velocity": 80
		},
		{
		  "duration": 0.116279069767442,
		  "pitch": 69,
		  "start": 267.906976744186,
		  "velocity": 80
		},
		{
		  "duration": 0.116279069767442,
		  "pitch": 69,
		  "start": 268.139534883721,
		  "velocity": 80
		},
		{
		  "duration": 0.348837209302326,
		  "pitch": 69,
		  "start": 268.255813953488,
		  "velocity": 80
		},
		{
		  "duration": 0.116279069767442,
		  "pitch": 69,
		  "start": 268.604651162791,
		  "velocity": 80
		},
		{
		  "duration": 0.116279069767442,
		  "pitch": 69,
		  "start": 268.837209302326,
		  "velocity": 80
		},
		{
		  "duration": 0.348837209302326,
		  "pitch": 69,
		  "start": 268.953488372093,
		  "velocity": 80
		},
		{
		  "duration": 0.116279069767442,
		  "pitch": 69,
		  "start": 269.302325581395,
		  "velocity": 80
		},
		{
		  "duration": 0.116279069767442,
		  "pitch": 69,
		  "start": 269.53488372093,
		  "velocity": 80
		},
		{
		  "duration": 0.348837209302326,
		  "pitch": 69,
		  "start": 269.651162790698,
		  "velocity": 80
		},
		{
		  "duration": 0.116279069767442,
		  "pitch": 69,
		  "start": 270.0,
		  "velocity": 80
		},
		{
		  "duration": 0.116279069767442,
		  "pitch": 69,
		  "start": 270.232558139535,
		  "velocity": 80
		},
		{
		  "duration": 0.348837209302326,
		  "pitch": 69,
		  "start": 270.348837209302,
		  "velocity": 80
		},
		{
		  "duration": 0.116279069767442,
		  "pitch": 69,
		  "start": 270.697674418605,
		  "velocity": 80
		},
		{
		  "duration": 0.697674418604651,
		  "pitch": 69,
		  "start": 271.046511627907,
		  "velocity": 80
		},
		{
		  "duration": 0.116279069767442,
		  "pitch": 69,
		  "start": 271.744186046512,
		  "velocity": 80
		},
		{
		  "duration": 0.116279069767442,
		  "pitch": 69,
		  "start": 271.860465116279,
		  "velocity": 80
		},
		{
		  "duration": 0.116279069767442,
		  "pitch": 69,
		  "start": 271.976744186047,
		  "velocity": 80
		},
		{
		  "duration": 1.3953488372093,
		  "pitch": 69,
		  "start": 272.093023255814,
		  "velocity": 80
		},
		{
		  "duration": 0.116279069767442,
		  "pitch": 74,
		  "start": 273.488372093023,
		  "velocity": 80
		},
		{
		  "duration": 0.116279069767442,
		  "pitch": 74,
		  "start": 273.720930232558,
		  "velocity": 80
		},
		{
		  "duration": 0.348837209302326,
		  "pitch": 74,
		  "start": 273.837209302326,
		  "velocity": 80
		},
		{
		  "duration": 0.116279069767442,
		  "pitch": 74,
		  "start": 274.186046511628,
		  "velocity": 80
		},
		{
		  "duration": 0.116279069767442,
		  "pitch": 74,
		  "start": 274.418604651163,
		  "velocity": 80
		},
		{
		  "duration": 0.348837209302326,
		  "pitch": 74,
		  "start": 274.53488372093,
		  "velocity": 80
		},
		{
		  "duration": 0.116279069767442,
		  "pitch": 74,
		  "start": 274.883720930233,
		  "velocity": 80
		},
		{
		  "duration": 0.116279069767442,
		  "pitch": 74,
		  "start": 275.116279069767,
		  "velocity": 80
		},
		{
		  "duration": 0.348837209302326,
		  "pitch": 74,
		  "start": 275.232558139535,
		  "velocity": 80
		},
		{
		  "duration": 0.116279069767442,
		  "pitch": 74,
		  "start": 275.581395348837,
		  "velocity": 80
		},
		{
		  "duration": 0.116279069767442,
		  "pitch": 74,
		  "start": 275.813953488372,
		  "velocity": 80
		},
		{
		  "duration": 0.348837209302326,
		  "pitch": 74,
		  "start": 275.93023255814,
		  "velocity": 80
		},
		{
		  "duration": 0.116279069767442,
		  "pitch": 74,
		  "start": 276.279069767442,
		  "velocity": 80
		},
		{
		  "duration": 0.697674418604651,
		  "pitch": 74,
		  "start": 276.627906976744,
		  "velocity": 80
		},
		{
		  "duration": 0.116279069767442,
		  "pitch": 74,
		  "start": 277.325581395349,
		  "velocity": 80
		},
		{
		  "duration": 0.116279069767442,
		  "pitch": 74,
		  "start": 277.441860465116,
		  "velocity": 80
		},
		{
		  "duration": 0.116279069767442,
		  "pitch": 74,
		  "start": 277.558139534884,
		  "velocity": 80
		},
		{
		  "duration": 1.3953488372093,
		  "pitch": 74,
		  "start": 277.674418604651,
		  "velocity": 80
		},
		{
		  "duration": 0.116279069767442,
		  "pitch": 69,
		  "start": 279.06976744186,
		  "velocity": 80
		},
		{
		  "duration": 0.116279069767442,
		  "pitch": 69,
		  "start": 279.302325581395,
		  "velocity": 80
		},
		{
		  "duration": 0.348837209302326,
		  "pitch": 69,
		  "start": 279.418604651163,
		  "velocity": 80
		},
		{
		  "duration": 0.116279069767442,
		  "pitch": 69,
		  "start": 279.767441860465,
		  "velocity": 80
		},
		{
		  "duration": 0.116279069767442,
		  "pitch": 69,
		  "start": 280.0,
		  "velocity": 80
		},
		{
		  "duration": 0.348837209302326,
		  "pitch": 69,
		  "start": 280.116279069767,
		  "velocity": 80
		},
		{
		  "duration": 0.116279069767442,
		  "pitch": 69,
		  "start": 280.46511627907,
		  "velocity": 80
		},
		{
		  "duration": 0.116279069767442,
		  "pitch": 69,
		  "start": 280.697674418605,
		  "velocity": 80
		},
		{
		  "duration": 0.348837209302326,
		  "pitch": 69,
		  "start": 280.813953488372,
		  "velocity": 80
		},
		{
		  "duration": 0.116279069767442,
		  "pitch": 69,
		  "start": 281.162790697674,
		  "velocity": 80
		},
		{
		  "duration": 0.116279069767442,
		  "pitch": 69,
		  "start": 281.395348837209,
		  "velocity": 80
		},
		{
		  "duration": 0.348837209302326,
		  "pitch": 69,
		  "start": 281.511627906977,
		  "velocity": 80
		},
		{
		  "duration": 0.697674418604651,
		  "pitch": 72,
		  "start": 281.860465116279,
		  "velocity": 80
		},
		{
		  "duration": 0.697674418604651,
		  "pitch": 74,
		  "start": 282.558139534884,
		  "velocity": 80
		},
		{
		  "duration": 0.697674418604651,
		  "pitch": 76,
		  "start": 283.255813953488,
		  "velocity": 80
		},
		{
		  "duration": 0.697674418604651,
		  "pitch": 76,
		  "start": 283.953488372093,
		  "velocity": 80
		},
		{
		  "duration": 2.7906976744186,
		  "pitch": 76,
		  "start": 284.651162790698,
		  "velocity": 80
		},
		{
		  "duration": 2.09302325581395,
		  "pitch": 88,
		  "start": 295.813953488372,
		  "velocity": 80
		},
		{
		  "duration": 2.09302325581395,
		  "pitch": 76,
		  "start": 295.813953488372,
		  "velocity": 80
		},
		{
		  "duration": 0.232558139534884,
		  "pitch": 74,
		  "start": 297.906976744186,
		  "velocity": 80
		},
		{
		  "duration": 0.232558139534884,
		  "pitch": 86,
		  "start": 297.906976744186,
		  "velocity": 80
		},
		{
		  "duration": 0.232558139534884,
		  "pitch": 74,
		  "start": 298.139534883721,
		  "velocity": 80
		},
		{
		  "duration": 0.232558139534884,
		  "pitch": 86,
		  "start": 298.139534883721,
		  "velocity": 80
		},
		{
		  "duration": 0.232558139534884,
		  "pitch": 74,
		  "start": 298.372093023256,
		  "velocity": 80
		},
		{
		  "duration": 0.232558139534884,
		  "pitch": 86,
		  "start": 298.372093023256,
		  "velocity": 80
		},
		{
		  "duration": 2.09302325581395,
		  "pitch": 88,
		  "start": 298.604651162791,
		  "velocity": 80
		},
		{
		  "duration": 2.09302325581395,
		  "pitch": 76,
		  "start": 298.604651162791,
		  "velocity": 80
		},
		{
		  "duration": 0.232558139534884,
		  "pitch": 74,
		  "start": 300.697674418605,
		  "velocity": 80
		},
		{
		  "duration": 0.232558139534884,
		  "pitch": 86,
		  "start": 300.697674418605,
		  "velocity": 80
		},
		{
		  "duration": 0.232558139534884,
		  "pitch": 74,
		  "start": 300.93023255814,
		  "velocity": 80
		},
		{
		  "duration": 0.232558139534884,
		  "pitch": 86,
		  "start": 300.93023255814,
		  "velocity": 80
		},
		{
		  "duration": 0.232558139534884,
		  "pitch": 74,
		  "start": 301.162790697674,
		  "velocity": 80
		},
		{
		  "duration": 0.232558139534884,
		  "pitch": 86,
		  "start": 301.162790697674,
		  "velocity": 80
		},
		{
		  "duration": 2.09302325581395,
		  "pitch": 84,
		  "start": 301.395348837209,
		  "velocity": 80
		},
		{
		  "duration": 2.09302325581395,
		  "pitch": 72,
		  "start": 301.395348837209,
		  "velocity": 80
		},
		{
		  "duration": 0.232558139534884,
		  "pitch": 72,
		  "start": 303.488372093023,
		  "velocity": 80
		},
		{
		  "duration": 0.232558139534884,
		  "pitch": 84,
		  "start": 303.488372093023,
		  "velocity": 80
		},
		{
		  "duration": 0.232558139534884,
		  "pitch": 72,
		  "start": 303.720930232558,
		  "velocity": 80
		},
		{
		  "duration": 0.232558139534884,
		  "pitch": 84,
		  "start": 303.720930232558,
		  "velocity": 80
		},
		{
		  "duration": 0.232558139534884,
		  "pitch": 72,
		  "start": 303.953488372093,
		  "velocity": 80
		},
		{
		  "duration": 0.232558139534884,
		  "pitch": 84,
		  "start": 303.953488372093,
		  "velocity": 80
		},
		{
		  "duration": 1.3953488372093,
		  "pitch": 84,
		  "start": 304.186046511628,
		  "velocity": 80
		},
		{
		  "duration": 1.3953488372093,
		  "pitch": 72,
		  "start": 304.186046511628,
		  "velocity": 80
		}
	  ]
	},
	{
	  "cc_events": [
		{
		  "controller": 7,
		  "time": 0.0,
		  "value": 94
		},
		{
		  "controller": 10,
		  "time": 0.0,
		  "value": 63
		},
		{
		  "controller": 10,
		  "time": 94.8837209302326,
		  "value": 63
		},
		{
		  "controller": 10,
		  "time": 189.767441860465,
		  "value": 63
		},
		{
		  "controller": 10,
		  "time": 284.651162790698,
		  "value": 63
		}
	  ],
	  "channel": 3,
	  "instrument": 33,
	  "name": "Bass",
	  "notes": [
		{
		  "duration": 0.232558139534884,
		  "pitch": 45,
		  "start": 0.0,
		  "velocity": 80
		},
		{
		  "duration": 0.348837209302326,
		  "pitch": 40,
		  "start": 1.74418604651163,
		  "velocity": 80
		},
		{
		  "duration": 0.348837209302326,
		  "pitch": 43,
		  "start": 2.09302325581395,
		  "velocity": 80
		},
		{
		  "duration": 0.348837209302326,
		  "pitch": 44,
		  "start": 2.44186046511628,
		  "velocity": 80
		},
		{
		  "duration": 0.232558139534884,
		  "pitch": 45,
		  "start": 2.7906976744186,
		  "velocity": 80
		},
		{
		  "duration": 0.116279069767442,
		  "pitch": 40,
		  "start": 4.88372093023256,
		  "velocity": 80
		},
		{
		  "duration": 0.116279069767442,
		  "pitch": 43,
		  "start": 5.0,
		  "velocity": 80
		},
		{
		  "duration": 0.116279069767442,
		  "pitch": 44,
		  "start": 5.11627906976744,
		  "velocity": 80
		},
		{
		  "duration": 0.232558139534884,
		  "pitch": 51,
		  "start": 5.23255813953488,
		  "velocity": 80
		},
		{
		  "duration": 0.116279069767442,
		  "pitch": 50,
		  "start": 5.46511627906977,
		  "velocity": 80
		},
		{
		  "duration": 0.232558139534884,
		  "pitch": 48,
		  "start": 5.58139534883721,
		  "velocity": 80
		},
		{
		  "duration": 0.348837209302326,
		  "pitch": 43,
		  "start": 7.32558139534884,
		  "velocity": 80
		},
		{
		  "duration": 0.348837209302326,
		  "pitch": 46,
		  "start": 7.67441860465116,
		  "velocity": 80
		},
		{
		  "duration": 0.348837209302326,
		  "pitch": 47,
		  "start": 8.02325581395349,
		  "velocity": 80
		},
		{
		  "duration": 0.232558139534884,
		  "pitch": 48,
		  "start": 8.37209302325581,
		  "velocity": 80
		},
		{
		  "duration": 0.116279069767442,
		  "pitch": 45,
		  "start": 10.4651162790698,
		  "velocity": 80
		},
		{
		  "duration": 0.116279069767442,
		  "pitch": 48,
		  "start": 10.5813953488372,
		  "velocity": 80
		},
		{
		  "duration": 0.116279069767442,
		  "pitch": 48,
		  "start": 10.6976744186047,
		  "velocity": 80
		},
		{
		  "duration": 0.116279069767442,
		  "pitch": 48,
		  "start": 10.8139534883721,
		  "velocity": 80
		},
		{
		  "duration": 0.116279069767442,
		  "pitch": 46,
		  "start": 10.9302325581395,
		  "velocity": 80
		},
		{
		  "duration": 0.116279069767442,
		  "pitch": 45,
		  "start": 11.046511627907,
		  "velocity": 80
		},
		{
		  "duration": 0.116279069767442,
		  "pitch": 43,
		  "start": 11.1627906976744,
		  "velocity": 80
		},
		{
		  "duration": 0.116279069767442,
		  "pitch": 45,
		  "start": 11.2790697674419,
		  "velocity": 80
		},
		{
		  "duration": 0.116279069767442,
		  "pitch": 45,
		  "start": 11.3953488372093,
		  "velocity": 80
		},
		{
		  "duration": 0.116279069767442,
		  "pitch": 45,
		  "start": 11.5116279069767,
		  "velocity": 80
		},
		{
		  "duration": 0.116279069767442,
		  "pitch": 45,
		  "start": 11.6279069767442,
		  "velocity": 80
		},
		{
		  "duration": 0.116279069767442,
		  "pitch": 45,
		  "start": 11.7441860465116,
		  "velocity": 80
		},
		{
		  "duration": 0.116279069767442,
		  "pitch": 45,
		  "start": 11.8604651162791,
		  "velocity": 80
		},
		{
		  "duration": 0.116279069767442,
		  "pitch": 45,
		  "start": 11.9767441860465,
		  "velocity": 80
		},
		{
		  "duration": 0.116279069767442,
		  "pitch": 45,
		  "start": 12.093023255814,
		  "velocity": 80
		},
		{
		  "duration": 0.116279069767442,
		  "pitch": 45,
		  "start": 12.2093023255814,
		  "velocity": 80
		},
		{
		  "duration": 0.116279069767442,
		  "pitch": 45,
		  "start": 12.3255813953488,
		  "velocity": 80
		},
		{
		  "duration": 0.116279069767442,
		  "pitch": 45,
		  "start": 12.4418604651163,
		  "velocity": 80
		},
		{
		  "duration": 0.116279069767442,
		  "pitch": 43,
		  "start": 12.5581395348837,
		  "velocity": 80
		},
		{
		  "duration": 0.116279069767442,
		  "pitch": 45,
		  "start": 12.6744186046512,
		  "velocity": 80
		},
		{
		  "duration": 0.116279069767442,
		  "pitch": 45,
		  "start": 12.7906976744186,
		  "velocity": 80
		},
		{
		  "duration": 0.116279069767442,
		  "pitch": 45,
		  "start": 12.906976744186,
		  "velocity": 80
		},
		{
		  "duration": 0.116279069767442,
		  "pitch": 45,
		  "start": 13.0232558139535,
		  "velocity": 80
		},
		{
		  "duration": 0.116279069767442,
		  "pitch": 45,
		  "start": 13.1395348837209,
		  "velocity": 80
		},
		{
		  "duration": 0.116279069767442,
		  "pitch": 45,
		  "start": 13.2558139534884,
		  "velocity": 80
		},
		{
		  "duration": 0.116279069767442,
		  "pitch": 45,
		  "start": 13.3720930232558,
		  "velocity": 80
		},
		{
		  "duration": 0.116279069767442,
		  "pitch": 45,
		  "start": 13.4883720930233,
		  "velocity": 80
		},
		{
		  "duration": 0.116279069767442,
		  "pitch": 45,
		  "start": 13.6046511627907,
		  "velocity": 80
		},
		{
		  "duration": 0.116279069767442,
		  "pitch": 45,
		  "start": 13.7209302325581,
		  "velocity": 80
		},
		{
		  "duration": 0.116279069767442,
		  "pitch": 45,
		  "start": 13.8372093023256,
		  "velocity": 80
		},
		{
		  "duration": 0.116279069767442,
		  "pitch": 43,
		  "start": 13.953488372093,
		  "velocity": 80
		},
		{
		  "duration": 0.116279069767442,
		  "pitch": 45,
		  "start": 14.0697674418605,
		  "velocity": 80
		},
		{
		  "duration": 0.116279069767442,
		  "pitch": 45,
		  "start": 14.1860465116279,
		  "velocity": 80
		},
		{
		  "duration": 0.116279069767442,
		  "pitch": 45,
		  "start": 14.3023255813953,
		  "velocity": 80
		},
		{
		  "duration": 0.116279069767442,
		  "pitch": 45,
		  "start": 14.4186046511628,
		  "velocity": 80
		},
		{
		  "duration": 0.116279069767442,
		  "pitch": 45,
		  "start": 14.5348837209302,
		  "velocity": 80
		},
		{
		  "duration": 0.116279069767442,
		  "pitch": 45,
		  "start": 14.6511627906977,
		  "velocity": 80
		},
		{
		  "duration": 0.116279069767442,
		  "pitch": 45,
		  "start": 14.7674418604651,
		  "velocity": 80
		},
		{
		  "duration": 0.116279069767442,
		  "pitch": 45,
		  "start": 14.8837209302326,
		  "velocity": 80
		},
		{
		  "duration": 0.116279069767442,
		  "pitch": 45,
		  "start": 15.0,
		  "velocity": 80
		},
		{
		  "duration": 0.116279069767442,
		  "pitch": 45,
		  "start": 15.1162790697674,
		  "velocity": 80
		},
		{
		  "duration": 0.116279069767442,
		  "pitch": 45,
		  "start": 15.2325581395349,
		  "velocity": 80
		},
		{
		  "duration": 0.116279069767442,
		  "pitch": 52,
		  "start": 15.3488372093023,
		  "velocity": 80
		},
		{
		  "duration": 0.116279069767442,
		  "pitch": 45,
		  "start": 15.4651162790698,
		  "velocity": 80
		},
		{
		  "duration": 0.116279069767442,
		  "pitch": 45,
		  "start": 15.5813953488372,
		  "velocity": 80
		},
		{
		  "duration": 0.116279069767442,
		  "pitch": 50,
		  "start": 15.6976744186047,
		  "velocity": 80
		},
		{
		  "duration": 0.116279069767442,
		  "pitch": 45,
		  "start": 15.8139534883721,
		  "velocity": 80
		},
		{
		  "duration": 0.116279069767442,
		  "pitch": 45,
		  "start": 15.9302325581395,
		  "velocity": 80
		},
		{
		  "duration": 0.232558139534884,
		  "pitch": 48,
		  "start": 16.046511627907,
		  "velocity": 80
		},
		{
		  "duration": 0.116279069767442,
		  "pitch": 45,
		  "start": 16.2790697674419,
		  "velocity": 80
		},
		{
		  "duration": 0.116279069767442,
		  "pitch": 43,
		  "start": 16.3953488372093,
		  "velocity": 80
		},
		{
		  "duration": 0.116279069767442,
		  "pitch": 45,
		  "start": 16.5116279069767,
		  "velocity": 80
		},
		{
		  "duration": 0.116279069767442,
		  "pitch": 45,
		  "start": 16.6279069767442,
		  "velocity": 80
		},
		{
		  "duration": 0.116279069767442,
		  "pitch": 46,
		  "start": 16.7441860465116,
		  "velocity": 80
		},
		{
		  "duration": 0.116279069767442,
		  "pitch": 48,
		  "start": 16.8604651162791,
		  "velocity": 80
		},
		{
		  "duration": 0.116279069767442,
		  "pitch": 48,
		  "start": 16.9767441860465,
		  "velocity": 80
		},
		{
		  "duration": 0.116279069767442,
		  "pitch": 48,
		  "start": 17.093023255814,
		  "velocity": 80
		},
		{
		  "duration": 0.116279069767442,
		  "pitch": 48,
		  "start": 17.2093023255814,
		  "velocity": 80
		},
		{
		  "duration": 0.116279069767442,
		  "pitch": 48,
		  "start": 17.3255813953488,
		  "velocity": 80
		},
		{
		  "duration": 0.116279069767442,
		  "pitch": 48,
		  "start": 17.4418604651163,
		  "velocity": 80
		},
		{
		  "duration": 0.116279069767442,
		  "pitch": 48,
		  "start": 17.5581395348837,
		  "velocity": 80
		},
		{
		  "duration": 0.116279069767442,
		  "pitch": 48,
		  "start": 17.6744186046512,
		  "velocity": 80
		},
		{
		  "duration": 0.116279069767442,
		  "pitch": 48,
		  "start": 17.7906976744186,
		  "velocity": 80
		},
		{
		  "duration": 0.116279069767442,
		  "pitch": 48,
		  "start": 17.906976744186,
		  "velocity": 80
		},
		{
		  "duration": 0.116279069767442,
		  "pitch": 48,
		  "start": 18.0232558139535,
		  "velocity": 80
		},
		{
		  "duration": 0.116279069767442,
		  "pitch": 46,
		  "start": 18.1395348837209,
		  "velocity": 80
		},
		{
		  "duration": 0.116279069767442,
		  "pitch": 48,
		  "start": 18.2558139534884,
		  "velocity": 80
		},
		{
		  "duration": 0.116279069767442,
		  "pitch": 48,
		  "start": 18.3720930232558,
		  "velocity": 80
		},
		{
		  "duration": 0.116279069767442,
		  "pitch": 48,
		  "start": 18.4883720930233,
		  "velocity": 80
		},
		{
		  "duration": 0.116279069767442,
		  "pitch": 48,
		  "start": 18.6046511627907,
		  "velocity": 80
		},
		{
		  "duration": 0.116279069767442,
		  "pitch": 48,
		  "start": 18.7209302325581,
		  "velocity": 80
		},
		{
		  "duration": 0.116279069767442,
		  "pitch": 48,
		  "start": 18.8372093023256,
		  "velocity": 80
		},
		{
		  "duration": 0.116279069767442,
		  "pitch": 48,
		  "start": 18.953488372093,
		  "velocity": 80
		},
		{
		  "duration": 0.116279069767442,
		  "pitch": 48,
		  "start": 19.0697674418605,
		  "velocity": 80
		},
		{
		  "duration": 0.116279069767442,
		  "pitch": 48,
		  "start": 19.1860465116279,
		  "velocity": 80
		},
		{
		  "duration": 0.116279069767442,
		  "pitch": 48,
		  "start": 19.3023255813953,
		  "velocity": 80
		},
		{
		  "duration": 0.116279069767442,
		  "pitch": 48,
		  "start": 19.4186046511628,
		  "velocity": 80
		},
		{
		  "duration": 0.116279069767442,
		  "pitch": 46,
		  "start": 19.5348837209302,
		  "velocity": 80
		},
		{
		  "duration": 0.116279069767442,
		  "pitch": 48,
		  "start": 19.6511627906977,
		  "velocity": 80
		},
		{
		  "duration": 0.116279069767442,
		  "pitch": 48,
		  "start": 19.7674418604651,
		  "velocity": 80
		},
		{
		  "duration": 0.116279069767442,
		  "pitch": 48,
		  "start": 19.8837209302326,
		  "velocity": 80
		},
		{
		  "duration": 0.116279069767442,
		  "pitch": 48,
		  "start": 20.0,
		  "velocity": 80
		},
		{
		  "duration": 0.116279069767442,
		  "pitch": 48,
		  "start": 20.1162790697674,
		  "velocity": 80
		},
		{
		  "duration": 0.116279069767442,
		  "pitch": 48,
		  "start": 20.2325581395349,
		  "velocity": 80
		},
		{
		  "duration": 0.116279069767442,
		  "pitch": 48,
		  "start": 20.3488372093023,
		  "velocity": 80
		},
		{
		  "duration": 0.116279069767442,
		  "pitch": 48,
		  "start": 20.4651162790698,
		  "velocity": 80
		},
		{
		  "duration": 0.116279069767442,
		  "pitch": 48,
		  "start": 20.5813953488372,
		  "velocity": 80
		},
		{
		  "duration": 0.116279069767442,
		  "pitch": 48,
		  "start": 20.6976744186047,
		  "velocity": 80
		},
		{
		  "duration": 0.116279069767442,
		  "pitch": 48,
		  "start": 20.8139534883721,
		  "velocity": 80
		},
		{
		  "duration": 0.116279069767442,
		  "pitch": 55,
		  "start": 20.9302325581395,
		  "velocity": 80
		},
		{
		  "duration": 0.116279069767442,
		  "pitch": 48,
		  "start": 21.046511627907,
		  "velocity": 80
		},
		{
		  "duration": 0.116279069767442,
		  "pitch": 48,
		  "start": 21.1627906976744,
		  "velocity": 80
		},
		{
		  "duration": 0.116279069767442,
		  "pitch": 53,
		  "start": 21.2790697674419,
		  "velocity": 80
		},
		{
		  "duration": 0.116279069767442,
		  "pitch": 48,
		  "start": 21.3953488372093,
		  "velocity": 80
		},
		{
		  "duration": 0.116279069767442,
		  "pitch": 48,
		  "start": 21.5116279069767,
		  "velocity": 80
		},
		{
		  "duration": 0.232558139534884,
		  "pitch": 52,
		  "start": 21.6279069767442,
		  "velocity": 80
		},
		{
		  "duration": 0.116279069767442,
		  "pitch": 50,
		  "start": 21.8604651162791,
		  "velocity": 80
		},
		{
		  "duration": 0.116279069767442,
		  "pitch": 49,
		  "start": 21.9767441860465,
		  "velocity": 80
		},
		{
		  "duration": 0.116279069767442,
		  "pitch": 48,
		  "start": 22.093023255814,
		  "velocity": 80
		},
		{
		  "duration": 0.116279069767442,
		  "pitch": 47,
		  "start": 22.2093023255814,
		  "velocity": 80
		},
		{
		  "duration": 0.116279069767442,
		  "pitch": 45,
		  "start": 22.3255813953488,
		  "velocity": 80
		},
		{
		  "duration": 0.116279069767442,
		  "pitch": 45,
		  "start": 22.5581395348837,
		  "velocity": 80
		},
		{
		  "duration": 0.116279069767442,
		  "pitch": 45,
		  "start": 22.6744186046512,
		  "velocity": 80
		},
		{
		  "duration": 0.116279069767442,
		  "pitch": 47,
		  "start": 22.7906976744186,
		  "velocity": 80
		},
		{
		  "duration": 0.116279069767442,
		  "pitch": 48,
		  "start": 22.906976744186,
		  "velocity": 80
		},
		{
		  "duration": 0.348837209302326,
		  "pitch": 52,
		  "start": 23.0232558139535,
		  "velocity": 80
		},
		{
		  "duration": 0.348837209302326,
		  "pitch": 47,
		  "start": 23.3720930232558,
		  "velocity": 80
		},
		{
		  "duration": 0.116279069767442,
		  "pitch": 48,
		  "start": 23.7209302325581,
		  "velocity": 80
		},
		{
		  "duration": 0.116279069767442,
		  "pitch": 48,
		  "start": 23.953488372093,
		  "velocity": 80
		},
		{
		  "duration": 0.116279069767442,
		  "pitch": 48,
		  "start": 24.0697674418605,
		  "velocity": 80
		},
		{
		  "duration": 0.116279069767442,
		  "pitch": 47,
		  "start": 24.1860465116279,
		  "velocity": 80
		},
		{
		  "duration": 0.116279069767442,
		  "pitch": 45,
		  "start": 24.3023255813953,
		  "velocity": 80
		},
		{
		  "duration": 0.348837209302326,
		  "pitch": 43,
		  "start": 24.4186046511628,
		  "velocity": 80
		},
		{
		  "duration": 0.116279069767442,
		  "pitch": 43,
		  "start": 25.0,
		  "velocity": 80
		},
		{
		  "duration": 0.116279069767442,
		  "pitch": 41,
		  "start": 25.1162790697674,
		  "velocity": 80
		},
		{
		  "duration": 0.116279069767442,
		  "pitch": 41,
		  "start": 25.3488372093023,
		  "velocity": 80
		},
		{
		  "duration": 0.116279069767442,
		  "pitch": 41,
		  "start": 25.4651162790698,
		  "velocity": 80
		},
		{
		  "duration": 0.116279069767442,
		  "pitch": 41,
		  "start": 25.6976744186047,
		  "velocity": 80
		},
		{
		  "duration": 0.116279069767442,
		  "pitch": 41,
		  "start": 25.8139534883721,
		  "velocity": 80
		},
		{
		  "duration": 0.116279069767442,
		  "pitch": 41,
		  "start": 26.046511627907,
		  "velocity": 80
		},
		{
		  "duration": 0.116279069767442,
		  "pitch": 43,
		  "start": 26.1627906976744,
		  "velocity": 80
		},
		{
		  "duration": 0.116279069767442,
		  "pitch": 43,
		  "start": 26.3953488372093,
		  "velocity": 80
		},
		{
		  "duration": 0.116279069767442,
		  "pitch": 45,
		  "start": 26.5116279069767,
		  "velocity": 80
		},
		{
		  "duration": 0.116279069767442,
		  "pitch": 45,
		  "start": 26.7441860465116,
		  "velocity": 80
		},
		{
		  "duration": 0.116279069767442,
		  "pitch": 45,
		  "start": 26.8604651162791,
		  "velocity": 80
		},
		{
		  "duration": 0.116279069767442,
		  "pitch": 45,
		  "start": 27.093023255814,
		  "velocity": 80
		},
		{
		  "duration": 0.116279069767442,
		  "pitch": 44,
		  "start": 27.2093023255814,
		  "velocity": 80
		},
		{
		  "duration": 0.116279069767442,
		  "pitch": 44,
		  "start": 27.4418604651163,
		  "velocity": 80
		},
		{
		  "duration": 0.116279069767442,
		  "pitch": 44,
		  "start": 27.5581395348837,
		  "velocity": 80
		},
		{
		  "duration": 0.116279069767442,
		  "pitch": 44,
		  "start": 27.7906976744186,
		  "velocity": 80
		},
		{
		  "duration": 0.116279069767442,
		  "pitch": 45,
		  "start": 27.906976744186,
		  "velocity": 80
		},
		{
		  "duration": 0.116279069767442,
		  "pitch": 45,
		  "start": 28.1395348837209,
		  "velocity": 80
		},
		{
		  "duration": 0.116279069767442,
		  "pitch": 45,
		  "start": 28.2558139534884,
		  "velocity": 80
		},
		{
		  "duration": 0.116279069767442,
		  "pitch": 45,
		  "start": 28.4883720930233,
		  "velocity": 80
		},
		{
		  "duration": 0.116279069767442,
		  "pitch": 45,
		  "start": 28.6046511627907,
		  "velocity": 80
		},
		{
		  "duration": 0.116279069767442,
		  "pitch": 45,
		  "start": 28.8372093023256,
		  "velocity": 80
		},
		{
		  "duration": 0.116279069767442,
		  "pitch": 45,
		  "start": 28.953488372093,
		  "velocity": 80
		},
		{
		  "duration": 0.116279069767442,
		  "pitch": 45,
		  "start": 29.1860465116279,
		  "velocity": 80
		},
		{
		  "duration": 0.116279069767442,
		  "pitch": 45,
		  "start": 29.3023255813953,
		  "velocity": 80
		},
		{
		  "duration": 0.116279069767442,
		  "pitch": 45,
		  "start": 29.5348837209302,
		  "velocity": 80
		},
		{
		  "duration": 0.116279069767442,
		  "pitch": 45,
		  "start": 29.6511627906977,
		  "velocity": 80
		},
		{
		  "duration": 0.116279069767442,
		  "pitch": 45,
		  "start": 29.8837209302326,
		  "velocity": 80
		},
		{
		  "duration": 0.116279069767442,
		  "pitch": 45,
		  "start": 30.0,
		  "velocity": 80
		},
		{
		  "duration": 0.116279069767442,
		  "pitch": 45,
		  "start": 30.2325581395349,
		  "velocity": 80
		},
		{
		  "duration": 0.116279069767442,
		  "pitch": 45,
		  "start": 30.3488372093023,
		  "velocity": 80
		},
		{
		  "duration": 0.116279069767442,
		  "pitch": 45,
		  "start": 30.5813953488372,
		  "velocity": 80
		},
		{
		  "duration": 0.116279069767442,
		  "pitch": 45,
		  "start": 30.6976744186047,
		  "velocity": 80
		},
		{
		  "duration": 0.116279069767442,
		  "pitch": 45,
		  "start": 30.9302325581395,
		  "velocity": 80
		},
		{
		  "duration": 0.116279069767442,
		  "pitch": 45,
		  "start": 31.046511627907,
		  "velocity": 80
		},
		{
		  "duration": 0.116279069767442,
		  "pitch": 47,
		  "start": 31.1627906976744,
		  "velocity": 80
		},
		{
		  "duration": 0.116279069767442,
		  "pitch": 48,
		  "start": 31.2790697674419,
		  "velocity": 80
		},
		{
		  "duration": 0.348837209302326,
		  "pitch": 52,
		  "start": 31.3953488372093,
		  "velocity": 80
		},
		{
		  "duration": 0.348837209302326,
		  "pitch": 47,
		  "start": 31.7441860465116,
		  "velocity": 80
		},
		{
		  "duration": 0.116279069767442,
		  "pitch": 48,
		  "start": 32.093023255814,
		  "velocity": 80
		},
		{
		  "duration": 0.116279069767442,
		  "pitch": 48,
		  "start": 32.3255813953488,
		  "velocity": 80
		},
		{
		  "duration": 0.116279069767442,
		  "pitch": 48,
		  "start": 32.4418604651163,
		  "velocity": 80
		},
		{
		  "duration": 0.116279069767442,
		  "pitch": 47,
		  "start": 32.5581395348837,
		  "velocity": 80
		},
		{
		  "duration": 0.116279069767442,
		  "pitch": 45,
		  "start": 32.6744186046512,
		  "velocity": 80
		},
		{
		  "duration": 0.348837209302326,
		  "pitch": 43,
		  "start": 32.7906976744186,
		  "velocity": 80
		},
		{
		  "duration": 0.116279069767442,
		  "pitch": 43,
		  "start": 33.3720930232558,
		  "velocity": 80
		},
		{
		  "duration": 0.116279069767442,
		  "pitch": 41,
		  "start": 33.4883720930233,
		  "velocity": 80
		},
		{
		  "duration": 0.116279069767442,
		  "pitch": 41,
		  "start": 33.7209302325581,
		  "velocity": 80
		},
		{
		  "duration": 0.116279069767442,
		  "pitch": 41,
		  "start": 33.8372093023256,
		  "velocity": 80
		},
		{
		  "duration": 0.116279069767442,
		  "pitch": 41,
		  "start": 34.0697674418605,
		  "velocity": 80
		},
		{
		  "duration": 0.116279069767442,
		  "pitch": 41,
		  "start": 34.1860465116279,
		  "velocity": 80
		},
		{
		  "duration": 0.116279069767442,
		  "pitch": 41,
		  "start": 34.4186046511628,
		  "velocity": 80
		},
		{
		  "duration": 0.116279069767442,
		  "pitch": 43,
		  "start": 34.5348837209302,
		  "velocity": 80
		},
		{
		  "duration": 0.116279069767442,
		  "pitch": 43,
		  "start": 34.7674418604651,
		  "velocity": 80
		},
		{
		  "duration": 0.116279069767442,
		  "pitch": 45,
		  "start": 34.8837209302326,
		  "velocity": 80
		},
		{
		  "duration": 0.116279069767442,
		  "pitch": 45,
		  "start": 35.1162790697674,
		  "velocity": 80
		},
		{
		  "duration": 0.116279069767442,
		  "pitch": 45,
		  "start": 35.2325581395349,
		  "velocity": 80
		},
		{
		  "duration": 0.116279069767442,
		  "pitch": 45,
		  "start": 35.4651162790698,
		  "velocity": 80
		},
		{
		  "duration": 0.116279069767442,
		  "pitch": 44,
		  "start": 35.5813953488372,
		  "velocity": 80
		},
		{
		  "duration": 0.116279069767442,
		  "pitch": 44,
		  "start": 35.8139534883721,
		  "velocity": 80
		},
		{
		  "duration": 0.116279069767442,
		  "pitch": 44,
		  "start": 35.9302325581395,
		  "velocity": 80
		},
		{
		  "duration": 0.116279069767442,
		  "pitch": 44,
		  "start": 36.1627906976744,
		  "velocity": 80
		},
		{
		  "duration": 0.116279069767442,
		  "pitch": 45,
		  "start": 36.2790697674419,
		  "velocity": 80
		},
		{
		  "duration": 0.116279069767442,
		  "pitch": 45,
		  "start": 36.5116279069767,
		  "velocity": 80
		},
		{
		  "duration": 0.116279069767442,
		  "pitch": 45,
		  "start": 36.6279069767442,
		  "velocity": 80
		},
		{
		  "duration": 0.116279069767442,
		  "pitch": 45,
		  "start": 36.8604651162791,
		  "velocity": 80
		},
		{
		  "duration": 0.116279069767442,
		  "pitch": 45,
		  "start": 36.9767441860465,
		  "velocity": 80
		},
		{
		  "duration": 0.116279069767442,
		  "pitch": 45,
		  "start": 37.2093023255814,
		  "velocity": 80
		},
		{
		  "duration": 0.116279069767442,
		  "pitch": 45,
		  "start": 37.3255813953488,
		  "velocity": 80
		},
		{
		  "duration": 0.116279069767442,
		  "pitch": 45,
		  "start": 37.5581395348837,
		  "velocity": 80
		},
		{
		  "duration": 0.116279069767442,
		  "pitch": 45,
		  "start": 37.6744186046512,
		  "velocity": 80
		},
		{
		  "duration": 0.116279069767442,
		  "pitch": 45,
		  "start": 37.906976744186,
		  "velocity": 80
		},
		{
		  "duration": 0.116279069767442,
		  "pitch": 45,
		  "start": 38.0232558139535,
		  "velocity": 80
		},
		{
		  "duration": 0.116279069767442,
		  "pitch": 45,
		  "start": 38.2558139534884,
		  "velocity": 80
		},
		{
		  "duration": 0.116279069767442,
		  "pitch": 45,
		  "start": 38.3720930232558,
		  "velocity": 80
		},
		{
		  "duration": 0.116279069767442,
		  "pitch": 45,
		  "start": 38.6046511627907,
		  "velocity": 80
		},
		{
		  "duration": 0.116279069767442,
		  "pitch": 45,
		  "start": 38.7209302325581,
		  "velocity": 80
		},
		{
		  "duration": 0.116279069767442,
		  "pitch": 45,
		  "start": 38.953488372093,
		  "velocity": 80
		},
		{
		  "duration": 0.232558139534884,
		  "pitch": 45,
		  "start": 39.0697674418605,
		  "velocity": 80
		},
		{
		  "duration": 0.116279069767442,
		  "pitch": 45,
		  "start": 39.3023255813954,
		  "velocity": 80
		},
		{
		  "duration": 0.116279069767442,
		  "pitch": 38,
		  "start": 39.4186046511628,
		  "velocity": 80
		},
		{
		  "duration": 0.116279069767442,
		  "pitch": 40,
		  "start": 39.5348837209302,
		  "velocity": 80
		},
		{
		  "duration": 0.116279069767442,
		  "pitch": 43,
		  "start": 39.6511627906977,
		  "velocity": 80
		},
		{
		  "duration": 0.232558139534884,
		  "pitch": 45,
		  "start": 39.7674418604651,
		  "velocity": 80
		},
		{
		  "duration": 0.116279069767442,
		  "pitch": 45,
		  "start": 40.0,
		  "velocity": 80
		},
		{
		  "duration": 0.232558139534884,
		  "pitch": 45,
		  "start": 40.4651162790698,
		  "velocity": 80
		},
		{
		  "duration": 0.116279069767442,
		  "pitch": 45,
		  "start": 40.6976744186046,
		  "velocity": 80
		},
		{
		  "duration": 0.116279069767442,
		  "pitch": 38,
		  "start": 40.8139534883721,
		  "velocity": 80
		},
		{
		  "duration": 0.116279069767442,
		  "pitch": 40,
		  "start": 40.9302325581395,
		  "velocity": 80
		},
		{
		  "duration": 0.116279069767442,
		  "pitch": 43,
		  "start": 41.046511627907,
		  "velocity": 80
		},
		{
		  "duration": 0.232558139534884,
		  "pitch": 45,
		  "start": 41.1627906976744,
		  "velocity": 80
		},
		{
		  "duration": 0.116279069767442,
		  "pitch": 45,
		  "start": 41.3953488372093,
		  "velocity": 80
		},
		{
		  "duration": 0.116279069767442,
		  "pitch": 47,
		  "start": 41.5116279069767,
		  "velocity": 80
		},
		{
		  "duration": 0.116279069767442,
		  "pitch": 50,
		  "start": 41.6279069767442,
		  "velocity": 80
		},
		{
		  "duration": 0.116279069767442,
		  "pitch": 52,
		  "start": 41.7441860465116,
		  "velocity": 80
		},
		{
		  "duration": 0.232558139534884,
		  "pitch": 45,
		  "start": 41.8604651162791,
		  "velocity": 80
		},
		{
		  "duration": 0.116279069767442,
		  "pitch": 45,
		  "start": 42.093023255814,
		  "velocity": 80
		},
		{
		  "duration": 0.116279069767442,
		  "pitch": 38,
		  "start": 42.2093023255814,
		  "velocity": 80
		},
		{
		  "duration": 0.116279069767442,
		  "pitch": 40,
		  "start": 42.3255813953488,
		  "velocity": 80
		},
		{
		  "duration": 0.116279069767442,
		  "pitch": 43,
		  "start": 42.4418604651163,
		  "velocity": 80
		},
		{
		  "duration": 0.232558139534884,
		  "pitch": 45,
		  "start": 42.5581395348837,
		  "velocity": 80
		},
		{
		  "duration": 0.116279069767442,
		  "pitch": 45,
		  "start": 42.7906976744186,
		  "velocity": 80
		},
		{
		  "duration": 0.232558139534884,
		  "pitch": 45,
		  "start": 43.2558139534884,
		  "velocity": 80
		},
		{
		  "duration": 0.116279069767442,
		  "pitch": 45,
		  "start": 43.4883720930233,
		  "velocity": 80
		},
		{
		  "duration": 0.116279069767442,
		  "pitch": 38,
		  "start": 43.6046511627907,
		  "velocity": 80
		},
		{
		  "duration": 0.116279069767442,
		  "pitch": 40,
		  "start": 43.7209302325581,
		  "velocity": 80
		},
		{
		  "duration": 0.116279069767442,
		  "pitch": 43,
		  "start": 43.8372093023256,
		  "velocity": 80
		},
		{
		  "duration": 0.232558139534884,
		  "pitch": 45,
		  "start": 43.953488372093,
		  "velocity": 80
		},
		{
		  "duration": 0.116279069767442,
		  "pitch": 45,
		  "start": 44.1860465116279,
		  "velocity": 80
		},
		{
		  "duration": 0.232558139534884,
		  "pitch": 45,
		  "start": 44.3023255813954,
		  "velocity": 80
		},
		{
		  "duration": 0.232558139534884,
		  "pitch": 45,
		  "start": 44.6511627906977,
		  "velocity": 80
		},
		{
		  "duration": 0.116279069767442,
		  "pitch": 45,
		  "start": 44.8837209302326,
		  "velocity": 80
		},
		{
		  "duration": 0.116279069767442,
		  "pitch": 38,
		  "start": 45.0,
		  "velocity": 80
		},
		{
		  "duration": 0.116279069767442,
		  "pitch": 40,
		  "start": 45.1162790697674,
		  "velocity": 80
		},
		{
		  "duration": 0.116279069767442,
		  "pitch": 43,
		  "start": 45.2325581395349,
		  "velocity": 80
		},
		{
		  "duration": 0.232558139534884,
		  "pitch": 45,
		  "start": 45.3488372093023,
		  "velocity": 80
		},
		{
		  "duration": 0.116279069767442,
		  "pitch": 45,
		  "start": 45.5813953488372,
		  "velocity": 80
		},
		{
		  "duration": 0.232558139534884,
		  "pitch": 45,
		  "start": 46.046511627907,
		  "velocity": 80
		},
		{
		  "duration": 0.116279069767442,
		  "pitch": 45,
		  "start": 46.2790697674419,
		  "velocity": 80
		},
		{
		  "duration": 0.116279069767442,
		  "pitch": 38,
		  "start": 46.3953488372093,
		  "velocity": 80
		},
		{
		  "duration": 0.116279069767442,
		  "pitch": 40,
		  "start": 46.5116279069767,
		  "velocity": 80
		},
		{
		  "duration": 0.116279069767442,
		  "pitch": 43,
		  "start": 46.6279069767442,
		  "velocity": 80
		},
		{
		  "duration": 0.232558139534884,
		  "pitch": 45,
		  "start": 46.7441860465116,
		  "velocity": 80
		},
		{
		  "duration": 0.116279069767442,
		  "pitch": 45,
		  "start": 46.9767441860465,
		  "velocity": 80
		},
		{
		  "duration": 0.116279069767442,
		  "pitch": 47,
		  "start": 47.093023255814,
		  "velocity": 80
		},
		{
		  "duration": 0.116279069767442,
		  "pitch": 50,
		  "start": 47.2093023255814,
		  "velocity": 80
		},
		{
		  "duration": 0.116279069767442,
		  "pitch": 52,
		  "start": 47.3255813953488,
		  "velocity": 80
		},
		{
		  "duration": 0.232558139534884,
		  "pitch": 45,
		  "start": 47.4418604651163,
		  "velocity": 80
		},
		{
		  "duration": 0.116279069767442,
		  "pitch": 45,
		  "start": 47.6744186046512,
		  "velocity": 80
		},
		{
		  "duration": 0.116279069767442,
		  "pitch": 38,
		  "start": 47.7906976744186,
		  "velocity": 80
		},
		{
		  "duration": 0.116279069767442,
		  "pitch": 40,
		  "start": 47.906976744186,
		  "velocity": 80
		},
		{
		  "duration": 0.116279069767442,
		  "pitch": 43,
		  "start": 48.0232558139535,
		  "velocity": 80
		},
		{
		  "duration": 0.232558139534884,
		  "pitch": 45,
		  "start": 48.1395348837209,
		  "velocity": 80
		},
		{
		  "duration": 0.116279069767442,
		  "pitch": 45,
		  "start": 48.3720930232558,
		  "velocity": 80
		},
		{
		  "duration": 0.232558139534884,
		  "pitch": 45,
		  "start": 48.8372093023256,
		  "velocity": 80
		},
		{
		  "duration": 0.116279069767442,
		  "pitch": 45,
		  "start": 49.0697674418605,
		  "velocity": 80
		},
		{
		  "duration": 0.116279069767442,
		  "pitch": 38,
		  "start": 49.1860465116279,
		  "velocity": 80
		},
		{
		  "duration": 0.116279069767442,
		  "pitch": 40,
		  "start": 49.3023255813954,
		  "velocity": 80
		},
		{
		  "duration": 0.116279069767442,
		  "pitch": 43,
		  "start": 49.4186046511628,
		  "velocity": 80
		},
		{
		  "duration": 0.232558139534884,
		  "pitch": 45,
		  "start": 49.5348837209302,
		  "velocity": 80
		},
		{
		  "duration": 0.116279069767442,
		  "pitch": 45,
		  "start": 49.7674418604651,
		  "velocity": 80
		},
		{
		  "duration": 0.232558139534884,
		  "pitch": 45,
		  "start": 49.8837209302326,
		  "velocity": 80
		},
		{
		  "duration": 0.116279069767442,
		  "pitch": 43,
		  "start": 50.2325581395349,
		  "velocity": 80
		},
		{
		  "duration": 0.116279069767442,
		  "pitch": 43,
		  "start": 50.4651162790698,
		  "velocity": 80
		},
		{
		  "duration": 0.116279069767442,
		  "pitch": 43,
		  "start": 50.5813953488372,
		  "velocity": 80
		},
		{
		  "duration": 0.116279069767442,
		  "pitch": 43,
		  "start": 50.8139534883721,
		  "velocity": 80
		},
		{
		  "duration": 0.116279069767442,
		  "pitch": 43,
		  "start": 50.9302325581395,
		  "velocity": 80
		},
		{
		  "duration": 0.116279069767442,
		  "pitch": 43,
		  "start": 51.1627906976744,
		  "velocity": 80
		},
		{
		  "duration": 0.116279069767442,
		  "pitch": 43,
		  "start": 51.2790697674419,
		  "velocity": 80
		},
		{
		  "duration": 0.116279069767442,
		  "pitch": 45,
		  "start": 51.3953488372093,
		  "velocity": 80
		},
		{
		  "duration": 0.116279069767442,
		  "pitch": 47,
		  "start": 51.5116279069767,
		  "velocity": 80
		},
		{
		  "duration": 0.116279069767442,
		  "pitch": 48,
		  "start": 51.6279069767442,
		  "velocity": 80
		},
		{
		  "duration": 0.116279069767442,
		  "pitch": 48,
		  "start": 51.8604651162791,
		  "velocity": 80
		},
		{
		  "duration": 0.116279069767442,
		  "pitch": 48,
		  "start": 51.9767441860465,
		  "velocity": 80
		},
		{
		  "duration": 0.116279069767442,
		  "pitch": 48,
		  "start": 52.2093023255814,
		  "velocity": 80
		},
		{
		  "duration": 0.116279069767442,
		  "pitch": 48,
		  "start": 52.3255813953488,
		  "velocity": 80
		},
		{
		  "duration": 0.116279069767442,
		  "pitch": 48,
		  "start": 52.5581395348837,
		  "velocity": 80
		},
		{
		  "duration": 0.116279069767442,
		  "pitch": 48,
		  "start": 52.6744186046512,
		  "velocity": 80
		},
		{
		  "duration": 0.116279069767442,
		  "pitch": 48,
		  "start": 52.906976744186,
		  "velocity": 80
		},
		{
		  "duration": 0.116279069767442,
		  "pitch": 43,
		  "start": 53.0232558139535,
		  "velocity": 80
		},
		{
		  "duration": 0.116279069767442,
		  "pitch": 43,
		  "start": 53.2558139534884,
		  "velocity": 80
		},
		{
		  "duration": 0.116279069767442,
		  "pitch": 43,
		  "start": 53.3720930232558,
		  "velocity": 80
		},
		{
		  "duration": 0.116279069767442,
		  "pitch": 43,
		  "start": 53.6046511627907,
		  "velocity": 80
		},
		{
		  "duration": 0.116279069767442,
		  "pitch": 43,
		  "start": 53.7209302325581,
		  "velocity": 80
		},
		{
		  "duration": 0.116279069767442,
		  "pitch": 43,
		  "start": 53.953488372093,
		  "velocity": 80
		},
		{
		  "duration": 0.116279069767442,
		  "pitch": 43,
		  "start": 54.0697674418605,
		  "velocity": 80
		},
		{
		  "duration": 0.116279069767442,
		  "pitch": 45,
		  "start": 54.1860465116279,
		  "velocity": 80
		},
		{
		  "duration": 0.116279069767442,
		  "pitch": 47,
		  "start": 54.3023255813954,
		  "velocity": 80
		},
		{
		  "duration": 0.116279069767442,
		  "pitch": 48,
		  "start": 54.4186046511628,
		  "velocity": 80
		},
		{
		  "duration": 0.116279069767442,
		  "pitch": 48,
		  "start": 54.6511627906977,
		  "velocity": 80
		},
		{
		  "duration": 0.116279069767442,
		  "pitch": 48,
		  "start": 54.7674418604651,
		  "velocity": 80
		},
		{
		  "duration": 0.116279069767442,
		  "pitch": 48,
		  "start": 55.0,
		  "velocity": 80
		},
		{
		  "duration": 0.116279069767442,
		  "pitch": 48,
		  "start": 55.1162790697674,
		  "velocity": 80
		},
		{
		  "duration": 0.116279069767442,
		  "pitch": 48,
		  "start": 55.3488372093023,
		  "velocity": 80
		},
		{
		  "duration": 0.116279069767442,
		  "pitch": 48,
		  "start": 55.4651162790698,
		  "velocity": 80
		},
		{
		  "duration": 0.116279069767442,
		  "pitch": 48,
		  "start": 55.6976744186046,
		  "velocity": 80
		},
		{
		  "duration": 0.116279069767442,
		  "pitch": 45,
		  "start": 55.8139534883721,
		  "velocity": 80
		},
		{
		  "duration": 0.116279069767442,
		  "pitch": 45,
		  "start": 56.046511627907,
		  "velocity": 80
		},
		{
		  "duration": 0.116279069767442,
		  "pitch": 45,
		  "start": 56.1627906976744,
		  "velocity": 80
		},
		{
		  "duration": 0.116279069767442,
		  "pitch": 45,
		  "start": 56.3953488372093,
		  "velocity": 80
		},
		{
		  "duration": 0.116279069767442,
		  "pitch": 45,
		  "start": 56.5116279069767,
		  "velocity": 80
		},
		{
		  "duration": 0.116279069767442,
		  "pitch": 45,
		  "start": 56.7441860465116,
		  "velocity": 80
		},
		{
		  "duration": 0.116279069767442,
		  "pitch": 45,
		  "start": 56.8604651162791,
		  "velocity": 80
		},
		{
		  "duration": 0.116279069767442,
		  "pitch": 47,
		  "start": 56.9767441860465,
		  "velocity": 80
		},
		{
		  "duration": 0.116279069767442,
		  "pitch": 48,
		  "start": 57.093023255814,
		  "velocity": 80
		},
		{
		  "duration": 0.116279069767442,
		  "pitch": 50,
		  "start": 57.2093023255814,
		  "velocity": 80
		},
		{
		  "duration": 0.116279069767442,
		  "pitch": 50,
		  "start": 57.4418604651163,
		  "velocity": 80
		},
		{
		  "duration": 0.116279069767442,
		  "pitch": 50,
		  "start": 57.5581395348837,
		  "velocity": 80
		},
		{
		  "duration": 0.116279069767442,
		  "pitch": 50,
		  "start": 57.7906976744186,
		  "velocity": 80
		},
		{
		  "duration": 0.116279069767442,
		  "pitch": 50,
		  "start": 57.906976744186,
		  "velocity": 80
		},
		{
		  "duration": 0.116279069767442,
		  "pitch": 50,
		  "start": 58.1395348837209,
		  "velocity": 80
		},
		{
		  "duration": 0.116279069767442,
		  "pitch": 50,
		  "start": 58.2558139534884,
		  "velocity": 80
		},
		{
		  "duration": 0.116279069767442,
		  "pitch": 50,
		  "start": 58.4883720930233,
		  "velocity": 80
		},
		{
		  "duration": 0.116279069767442,
		  "pitch": 45,
		  "start": 58.6046511627907,
		  "velocity": 80
		},
		{
		  "duration": 0.116279069767442,
		  "pitch": 45,
		  "start": 58.8372093023256,
		  "velocity": 80
		},
		{
		  "duration": 0.116279069767442,
		  "pitch": 45,
		  "start": 58.953488372093,
		  "velocity": 80
		},
		{
		  "duration": 0.116279069767442,
		  "pitch": 45,
		  "start": 59.1860465116279,
		  "velocity": 80
		},
		{
		  "duration": 0.116279069767442,
		  "pitch": 45,
		  "start": 59.3023255813954,
		  "velocity": 80
		},
		{
		  "duration": 0.116279069767442,
		  "pitch": 45,
		  "start": 59.5348837209302,
		  "velocity": 80
		},
		{
		  "duration": 0.116279069767442,
		  "pitch": 45,
		  "start": 59.6511627906977,
		  "velocity": 80
		},
		{
		  "duration": 0.116279069767442,
		  "pitch": 45,
		  "start": 59.8837209302326,
		  "velocity": 80
		},
		{
		  "duration": 0.116279069767442,
		  "pitch": 46,
		  "start": 60.0,
		  "velocity": 80
		},
		{
		  "duration": 0.116279069767442,
		  "pitch": 46,
		  "start": 60.2325581395349,
		  "velocity": 80
		},
		{
		  "duration": 0.116279069767442,
		  "pitch": 46,
		  "start": 60.3488372093023,
		  "velocity": 80
		},
		{
		  "duration": 0.116279069767442,
		  "pitch": 46,
		  "start": 60.5813953488372,
		  "velocity": 80
		},
		{
		  "duration": 0.116279069767442,
		  "pitch": 46,
		  "start": 60.6976744186046,
		  "velocity": 80
		},
		{
		  "duration": 0.116279069767442,
		  "pitch": 46,
		  "start": 60.9302325581395,
		  "velocity": 80
		},
		{
		  "duration": 0.116279069767442,
		  "pitch": 46,
		  "start": 61.046511627907,
		  "velocity": 80
		},
		{
		  "duration": 0.116279069767442,
		  "pitch": 46,
		  "start": 61.2790697674419,
		  "velocity": 80
		},
		{
		  "duration": 0.116279069767442,
		  "pitch": 50,
		  "start": 61.3953488372093,
		  "velocity": 80
		},
		{
		  "duration": 0.116279069767442,
		  "pitch": 50,
		  "start": 61.6279069767442,
		  "velocity": 80
		},
		{
		  "duration": 0.116279069767442,
		  "pitch": 50,
		  "start": 61.7441860465116,
		  "velocity": 80
		},
		{
		  "duration": 0.116279069767442,
		  "pitch": 50,
		  "start": 61.9767441860465,
		  "velocity": 80
		},
		{
		  "duration": 0.116279069767442,
		  "pitch": 50,
		  "start": 62.093023255814,
		  "velocity": 80
		},
		{
		  "duration": 0.116279069767442,
		  "pitch": 50,
		  "start": 62.3255813953488,
		  "velocity": 80
		},
		{
		  "duration": 0.116279069767442,
		  "pitch": 48,
		  "start": 62.4418604651163,
		  "velocity": 80
		},
		{
		  "duration": 0.116279069767442,
		  "pitch": 48,
		  "start": 62.6744186046512,
		  "velocity": 80
		},
		{
		  "duration": 0.116279069767442,
		  "pitch": 50,
		  "start": 62.7906976744186,
		  "velocity": 80
		},
		{
		  "duration": 0.116279069767442,
		  "pitch": 50,
		  "start": 63.0232558139535,
		  "velocity": 80
		},
		{
		  "duration": 0.116279069767442,
		  "pitch": 50,
		  "start": 63.1395348837209,
		  "velocity": 80
		},
		{
		  "duration": 0.116279069767442,
		  "pitch": 50,
		  "start": 63.3720930232558,
		  "velocity": 80
		},
		{
		  "duration": 0.116279069767442,
		  "pitch": 50,
		  "start": 63.4883720930233,
		  "velocity": 80
		},
		{
		  "duration": 0.116279069767442,
		  "pitch": 50,
		  "start": 63.7209302325581,
		  "velocity": 80
		},
		{
		  "duration": 0.116279069767442,
		  "pitch": 48,
		  "start": 63.8372093023256,
		  "velocity": 80
		},
		{
		  "duration": 0.116279069767442,
		  "pitch": 48,
		  "start": 64.0697674418605,
		  "velocity": 80
		},
		{
		  "duration": 0.116279069767442,
		  "pitch": 50,
		  "start": 64.1860465116279,
		  "velocity": 80
		},
		{
		  "duration": 0.116279069767442,
		  "pitch": 50,
		  "start": 64.4186046511628,
		  "velocity": 80
		},
		{
		  "duration": 0.116279069767442,
		  "pitch": 50,
		  "start": 64.5348837209302,
		  "velocity": 80
		},
		{
		  "duration": 0.116279069767442,
		  "pitch": 50,
		  "start": 64.7674418604651,
		  "velocity": 80
		},
		{
		  "duration": 0.116279069767442,
		  "pitch": 50,
		  "start": 64.8837209302326,
		  "velocity": 80
		},
		{
		  "duration": 0.116279069767442,
		  "pitch": 50,
		  "start": 65.1162790697674,
		  "velocity": 80
		},
		{
		  "duration": 0.116279069767442,
		  "pitch": 48,
		  "start": 65.2325581395349,
		  "velocity": 80
		},
		{
		  "duration": 0.116279069767442,
		  "pitch": 48,
		  "start": 65.4651162790698,
		  "velocity": 80
		},
		{
		  "duration": 0.348837209302326,
		  "pitch": 50,
		  "start": 65.5813953488372,
		  "velocity": 80
		},
		{
		  "duration": 0.348837209302326,
		  "pitch": 45,
		  "start": 65.9302325581395,
		  "velocity": 80
		},
		{
		  "duration": 0.348837209302326,
		  "pitch": 48,
		  "start": 66.2790697674419,
		  "velocity": 80
		},
		{
		  "duration": 0.116279069767442,
		  "pitch": 47,
		  "start": 66.6279069767442,
		  "velocity": 80
		},
		{
		  "duration": 0.116279069767442,
		  "pitch": 46,
		  "start": 66.7441860465116,
		  "velocity": 80
		},
		{
		  "duration": 0.116279069767442,
		  "pitch": 43,
		  "start": 66.8604651162791,
		  "velocity": 80
		},
		{
		  "duration": 0.116279069767442,
		  "pitch": 45,
		  "start": 66.9767441860465,
		  "velocity": 80
		},
		{
		  "duration": 0.116279069767442,
		  "pitch": 45,
		  "start": 67.2093023255814,
		  "velocity": 80
		},
		{
		  "duration": 0.116279069767442,
		  "pitch": 45,
		  "start": 67.3255813953488,
		  "velocity": 80
		},
		{
		  "duration": 0.116279069767442,
		  "pitch": 45,
		  "start": 67.5581395348837,
		  "velocity": 80
		},
		{
		  "duration": 0.116279069767442,
		  "pitch": 45,
		  "start": 67.6744186046512,
		  "velocity": 80
		},
		{
		  "duration": 0.116279069767442,
		  "pitch": 45,
		  "start": 67.9069767441861,
		  "velocity": 80
		},
		{
		  "duration": 0.116279069767442,
		  "pitch": 45,
		  "start": 68.0232558139535,
		  "velocity": 80
		},
		{
		  "duration": 0.116279069767442,
		  "pitch": 45,
		  "start": 68.2558139534884,
		  "velocity": 80
		},
		{
		  "duration": 0.116279069767442,
		  "pitch": 45,
		  "start": 68.3720930232558,
		  "velocity": 80
		},
		{
		  "duration": 0.116279069767442,
		  "pitch": 45,
		  "start": 68.6046511627907,
		  "velocity": 80
		},
		{
		  "duration": 0.116279069767442,
		  "pitch": 45,
		  "start": 68.7209302325581,
		  "velocity": 80
		},
		{
		  "duration": 0.116279069767442,
		  "pitch": 45,
		  "start": 68.953488372093,
		  "velocity": 80
		},
		{
		  "duration": 0.116279069767442,
		  "pitch": 45,
		  "start": 69.0697674418605,
		  "velocity": 80
		},
		{
		  "duration": 0.116279069767442,
		  "pitch": 45,
		  "start": 69.3023255813954,
		  "velocity": 80
		},
		{
		  "duration": 0.116279069767442,
		  "pitch": 45,
		  "start": 69.4186046511628,
		  "velocity": 80
		},
		{
		  "duration": 0.116279069767442,
		  "pitch": 45,
		  "start": 69.6511627906977,
		  "velocity": 80
		},
		{
		  "duration": 0.116279069767442,
		  "pitch": 45,
		  "start": 69.7674418604651,
		  "velocity": 80
		},
		{
		  "duration": 0.116279069767442,
		  "pitch": 45,
		  "start": 70.0,
		  "velocity": 80
		},
		{
		  "duration": 0.116279069767442,
		  "pitch": 45,
		  "start": 70.1162790697674,
		  "velocity": 80
		},
		{
		  "duration": 0.116279069767442,
		  "pitch": 45,
		  "start": 70.3488372093023,
		  "velocity": 80
		},
		{
		  "duration": 0.116279069767442,
		  "pitch": 45,
		  "start": 70.4651162790698,
		  "velocity": 80
		},
		{
		  "duration": 0.116279069767442,
		  "pitch": 45,
		  "start": 70.6976744186046,
		  "velocity": 80
		},
		{
		  "duration": 0.116279069767442,
		  "pitch": 45,
		  "start": 70.8139534883721,
		  "velocity": 80
		},
		{
		  "duration": 0.116279069767442,
		  "pitch": 45,
		  "start": 71.046511627907,
		  "velocity": 80
		},
		{
		  "duration": 0.116279069767442,
		  "pitch": 45,
		  "start": 71.1627906976744,
		  "velocity": 80
		},
		{
		  "duration": 0.116279069767442,
		  "pitch": 45,
		  "start": 71.3953488372093,
		  "velocity": 80
		},
		{
		  "duration": 0.116279069767442,
		  "pitch": 45,
		  "start": 71.5116279069767,
		  "velocity": 80
		},
		{
		  "duration": 0.116279069767442,
		  "pitch": 45,
		  "start": 71.7441860465116,
		  "velocity": 80
		},
		{
		  "duration": 0.116279069767442,
		  "pitch": 45,
		  "start": 71.8604651162791,
		  "velocity": 80
		},
		{
		  "duration": 0.116279069767442,
		  "pitch": 48,
		  "start": 71.9767441860465,
		  "velocity": 80
		},
		{
		  "duration": 0.116279069767442,
		  "pitch": 52,
		  "start": 72.0930232558139,
		  "velocity": 80
		},
		{
		  "duration": 0.116279069767442,
		  "pitch": 55,
		  "start": 72.2093023255814,
		  "velocity": 80
		},
		{
		  "duration": 0.116279069767442,
		  "pitch": 52,
		  "start": 72.3255813953488,
		  "velocity": 80
		},
		{
		  "duration": 0.116279069767442,
		  "pitch": 55,
		  "start": 72.4418604651163,
		  "velocity": 80
		},
		{
		  "duration": 0.116279069767442,
		  "pitch": 50,
		  "start": 72.5581395348837,
		  "velocity": 80
		},
		{
		  "duration": 0.116279069767442,
		  "pitch": 50,
		  "start": 72.7906976744186,
		  "velocity": 80
		},
		{
		  "duration": 0.116279069767442,
		  "pitch": 50,
		  "start": 72.9069767441861,
		  "velocity": 80
		},
		{
		  "duration": 0.116279069767442,
		  "pitch": 50,
		  "start": 73.1395348837209,
		  "velocity": 80
		},
		{
		  "duration": 0.116279069767442,
		  "pitch": 50,
		  "start": 73.2558139534884,
		  "velocity": 80
		},
		{
		  "duration": 0.116279069767442,
		  "pitch": 50,
		  "start": 73.4883720930233,
		  "velocity": 80
		},
		{
		  "duration": 0.116279069767442,
		  "pitch": 48,
		  "start": 73.6046511627907,
		  "velocity": 80
		},
		{
		  "duration": 0.116279069767442,
		  "pitch": 48,
		  "start": 73.8372093023256,
		  "velocity": 80
		},
		{
		  "duration": 0.116279069767442,
		  "pitch": 50,
		  "start": 73.953488372093,
		  "velocity": 80
		},
		{
		  "duration": 0.116279069767442,
		  "pitch": 50,
		  "start": 74.1860465116279,
		  "velocity": 80
		},
		{
		  "duration": 0.116279069767442,
		  "pitch": 50,
		  "start": 74.3023255813954,
		  "velocity": 80
		},
		{
		  "duration": 0.116279069767442,
		  "pitch": 50,
		  "start": 74.5348837209302,
		  "velocity": 80
		},
		{
		  "duration": 0.116279069767442,
		  "pitch": 50,
		  "start": 74.6511627906977,
		  "velocity": 80
		},
		{
		  "duration": 0.116279069767442,
		  "pitch": 50,
		  "start": 74.8837209302326,
		  "velocity": 80
		},
		{
		  "duration": 0.116279069767442,
		  "pitch": 48,
		  "start": 75.0,
		  "velocity": 80
		},
		{
		  "duration": 0.116279069767442,
		  "pitch": 48,
		  "start": 75.2325581395349,
		  "velocity": 80
		},
		{
		  "duration": 0.116279069767442,
		  "pitch": 50,
		  "start": 75.3488372093023,
		  "velocity": 80
		},
		{
		  "duration": 0.116279069767442,
		  "pitch": 50,
		  "start": 75.5813953488372,
		  "velocity": 80
		},
		{
		  "duration": 0.116279069767442,
		  "pitch": 50,
		  "start": 75.6976744186046,
		  "velocity": 80
		},
		{
		  "duration": 0.116279069767442,
		  "pitch": 50,
		  "start": 75.9302325581395,
		  "velocity": 80
		},
		{
		  "duration": 0.116279069767442,
		  "pitch": 50,
		  "start": 76.046511627907,
		  "velocity": 80
		},
		{
		  "duration": 0.116279069767442,
		  "pitch": 50,
		  "start": 76.2790697674419,
		  "velocity": 80
		},
		{
		  "duration": 0.116279069767442,
		  "pitch": 48,
		  "start": 76.3953488372093,
		  "velocity": 80
		},
		{
		  "duration": 0.116279069767442,
		  "pitch": 48,
		  "start": 76.6279069767442,
		  "velocity": 80
		},
		{
		  "duration": 0.348837209302326,
		  "pitch": 50,
		  "start": 76.7441860465116,
		  "velocity": 80
		},
		{
		  "duration": 0.348837209302326,
		  "pitch": 45,
		  "start": 77.0930232558139,
		  "velocity": 80
		},
		{
		  "duration": 0.348837209302326,
		  "pitch": 48,
		  "start": 77.4418604651163,
		  "velocity": 80
		},
		{
		  "duration": 0.116279069767442,
		  "pitch": 47,
		  "start": 77.7906976744186,
		  "velocity": 80
		},
		{
		  "duration": 0.116279069767442,
		  "pitch": 46,
		  "start": 77.9069767441861,
		  "velocity": 80
		},
		{
		  "duration": 0.116279069767442,
		  "pitch": 43,
		  "start": 78.0232558139535,
		  "velocity": 80
		},
		{
		  "duration": 0.116279069767442,
		  "pitch": 45,
		  "start": 78.1395348837209,
		  "velocity": 80
		},
		{
		  "duration": 0.116279069767442,
		  "pitch": 45,
		  "start": 78.3720930232558,
		  "velocity": 80
		},
		{
		  "duration": 0.116279069767442,
		  "pitch": 45,
		  "start": 78.4883720930233,
		  "velocity": 80
		},
		{
		  "duration": 0.116279069767442,
		  "pitch": 45,
		  "start": 78.7209302325581,
		  "velocity": 80
		},
		{
		  "duration": 0.116279069767442,
		  "pitch": 45,
		  "start": 78.8372093023256,
		  "velocity": 80
		},
		{
		  "duration": 0.116279069767442,
		  "pitch": 45,
		  "start": 79.0697674418605,
		  "velocity": 80
		},
		{
		  "duration": 0.116279069767442,
		  "pitch": 45,
		  "start": 79.1860465116279,
		  "velocity": 80
		},
		{
		  "duration": 0.116279069767442,
		  "pitch": 45,
		  "start": 79.4186046511628,
		  "velocity": 80
		},
		{
		  "duration": 0.116279069767442,
		  "pitch": 45,
		  "start": 79.5348837209302,
		  "velocity": 80
		},
		{
		  "duration": 0.116279069767442,
		  "pitch": 45,
		  "start": 79.7674418604651,
		  "velocity": 80
		},
		{
		  "duration": 0.116279069767442,
		  "pitch": 45,
		  "start": 79.8837209302326,
		  "velocity": 80
		},
		{
		  "duration": 0.116279069767442,
		  "pitch": 45,
		  "start": 80.1162790697674,
		  "velocity": 80
		},
		{
		  "duration": 0.116279069767442,
		  "pitch": 45,
		  "start": 80.2325581395349,
		  "velocity": 80
		},
		{
		  "duration": 0.116279069767442,
		  "pitch": 45,
		  "start": 80.4651162790698,
		  "velocity": 80
		},
		{
		  "duration": 0.116279069767442,
		  "pitch": 45,
		  "start": 80.5813953488372,
		  "velocity": 80
		},
		{
		  "duration": 0.116279069767442,
		  "pitch": 45,
		  "start": 80.8139534883721,
		  "velocity": 80
		},
		{
		  "duration": 0.116279069767442,
		  "pitch": 45,
		  "start": 80.9302325581395,
		  "velocity": 80
		},
		{
		  "duration": 0.116279069767442,
		  "pitch": 45,
		  "start": 81.1627906976744,
		  "velocity": 80
		},
		{
		  "duration": 0.116279069767442,
		  "pitch": 45,
		  "start": 81.2790697674419,
		  "velocity": 80
		},
		{
		  "duration": 0.116279069767442,
		  "pitch": 45,
		  "start": 81.5116279069767,
		  "velocity": 80
		},
		{
		  "duration": 0.116279069767442,
		  "pitch": 45,
		  "start": 81.6279069767442,
		  "velocity": 80
		},
		{
		  "duration": 0.116279069767442,
		  "pitch": 45,
		  "start": 81.8604651162791,
		  "velocity": 80
		},
		{
		  "duration": 0.116279069767442,
		  "pitch": 45,
		  "start": 81.9767441860465,
		  "velocity": 80
		},
		{
		  "duration": 0.116279069767442,
		  "pitch": 45,
		  "start": 82.2093023255814,
		  "velocity": 80
		},
		{
		  "duration": 0.116279069767442,
		  "pitch": 45,
		  "start": 82.3255813953488,
		  "velocity": 80
		},
		{
		  "duration": 0.116279069767442,
		  "pitch": 45,
		  "start": 82.5581395348837,
		  "velocity": 80
		},
		{
		  "duration": 0.116279069767442,
		  "pitch": 45,
		  "start": 82.6744186046512,
		  "velocity": 80
		},
		{
		  "duration": 0.116279069767442,
		  "pitch": 45,
		  "start": 82.9069767441861,
		  "velocity": 80
		},
		{
		  "duration": 0.116279069767442,
		  "pitch": 45,
		  "start": 83.0232558139535,
		  "velocity": 80
		},
		{
		  "duration": 0.116279069767442,
		  "pitch": 48,
		  "start": 83.1395348837209,
		  "velocity": 80
		},
		{
		  "duration": 0.116279069767442,
		  "pitch": 52,
		  "start": 83.2558139534884,
		  "velocity": 80
		},
		{
		  "duration": 0.116279069767442,
		  "pitch": 55,
		  "start": 83.3720930232558,
		  "velocity": 80
		},
		{
		  "duration": 0.116279069767442,
		  "pitch": 52,
		  "start": 83.4883720930233,
		  "velocity": 80
		},
		{
		  "duration": 0.116279069767442,
		  "pitch": 55,
		  "start": 83.6046511627907,
		  "velocity": 80
		},
		{
		  "duration": 0.116279069767442,
		  "pitch": 50,
		  "start": 83.7209302325581,
		  "velocity": 80
		},
		{
		  "duration": 0.116279069767442,
		  "pitch": 50,
		  "start": 83.953488372093,
		  "velocity": 80
		},
		{
		  "duration": 0.116279069767442,
		  "pitch": 50,
		  "start": 84.0697674418605,
		  "velocity": 80
		},
		{
		  "duration": 0.116279069767442,
		  "pitch": 50,
		  "start": 84.3023255813954,
		  "velocity": 80
		},
		{
		  "duration": 0.116279069767442,
		  "pitch": 50,
		  "start": 84.4186046511628,
		  "velocity": 80
		},
		{
		  "duration": 0.116279069767442,
		  "pitch": 50,
		  "start": 84.6511627906977,
		  "velocity": 80
		},
		{
		  "duration": 0.116279069767442,
		  "pitch": 48,
		  "start": 84.7674418604651,
		  "velocity": 80
		},
		{
		  "duration": 0.116279069767442,
		  "pitch": 48,
		  "start": 85.0,
		  "velocity": 80
		},
		{
		  "duration": 0.116279069767442,
		  "pitch": 50,
		  "start": 85.1162790697674,
		  "velocity": 80
		},
		{
		  "duration": 0.116279069767442,
		  "pitch": 50,
		  "start": 85.3488372093023,
		  "velocity": 80
		},
		{
		  "duration": 0.116279069767442,
		  "pitch": 50,
		  "start": 85.4651162790698,
		  "velocity": 80
		},
		{
		  "duration": 0.116279069767442,
		  "pitch": 50,
		  "start": 85.6976744186046,
		  "velocity": 80
		},
		{
		  "duration": 0.116279069767442,
		  "pitch": 50,
		  "start": 85.8139534883721,
		  "velocity": 80
		},
		{
		  "duration": 0.116279069767442,
		  "pitch": 50,
		  "start": 86.046511627907,
		  "velocity": 80
		},
		{
		  "duration": 0.116279069767442,
		  "pitch": 48,
		  "start": 86.1627906976744,
		  "velocity": 80
		},
		{
		  "duration": 0.116279069767442,
		  "pitch": 48,
		  "start": 86.3953488372093,
		  "velocity": 80
		},
		{
		  "duration": 0.116279069767442,
		  "pitch": 50,
		  "start": 86.5116279069767,
		  "velocity": 80
		},
		{
		  "duration": 0.116279069767442,
		  "pitch": 50,
		  "start": 86.7441860465116,
		  "velocity": 80
		},
		{
		  "duration": 0.116279069767442,
		  "pitch": 50,
		  "start": 86.8604651162791,
		  "velocity": 80
		},
		{
		  "duration": 0.116279069767442,
		  "pitch": 50,
		  "start": 87.0930232558139,
		  "velocity": 80
		},
		{
		  "duration": 0.116279069767442,
		  "pitch": 50,
		  "start": 87.2093023255814,
		  "velocity": 80
		},
		{
		  "duration": 0.116279069767442,
		  "pitch": 50,
		  "start": 87.4418604651163,
		  "velocity": 80
		},
		{
		  "duration": 0.116279069767442,
		  "pitch": 48,
		  "start": 87.5581395348837,
		  "velocity": 80
		},
		{
		  "duration": 0.116279069767442,
		  "pitch": 48,
		  "start": 87.7906976744186,
		  "velocity": 80
		},
		{
		  "duration": 0.348837209302326,
		  "pitch": 50,
		  "start": 87.9069767441861,
		  "velocity": 80
		},
		{
		  "duration": 0.348837209302326,
		  "pitch": 45,
		  "start": 88.2558139534884,
		  "velocity": 80
		},
		{
		  "duration": 0.348837209302326,
		  "pitch": 48,
		  "start": 88.6046511627907,
		  "velocity": 80
		},
		{
		  "duration": 0.116279069767442,
		  "pitch": 47,
		  "start": 88.953488372093,
		  "velocity": 80
		},
		{
		  "duration": 0.116279069767442,
		  "pitch": 46,
		  "start": 89.0697674418605,
		  "velocity": 80
		},
		{
		  "duration": 0.116279069767442,
		  "pitch": 43,
		  "start": 89.1860465116279,
		  "velocity": 80
		},
		{
		  "duration": 0.116279069767442,
		  "pitch": 45,
		  "start": 89.3023255813954,
		  "velocity": 80
		},
		{
		  "duration": 0.116279069767442,
		  "pitch": 45,
		  "start": 89.5348837209302,
		  "velocity": 80
		},
		{
		  "duration": 0.116279069767442,
		  "pitch": 45,
		  "start": 89.6511627906977,
		  "velocity": 80
		},
		{
		  "duration": 0.116279069767442,
		  "pitch": 45,
		  "start": 89.8837209302326,
		  "velocity": 80
		},
		{
		  "duration": 0.116279069767442,
		  "pitch": 45,
		  "start": 90.0,
		  "velocity": 80
		},
		{
		  "duration": 0.116279069767442,
		  "pitch": 45,
		  "start": 90.2325581395349,
		  "velocity": 80
		},
		{
		  "duration": 0.116279069767442,
		  "pitch": 45,
		  "start": 90.3488372093023,
		  "velocity": 80
		},
		{
		  "duration": 0.116279069767442,
		  "pitch": 45,
		  "start": 90.5813953488372,
		  "velocity": 80
		},
		{
		  "duration": 0.116279069767442,
		  "pitch": 45,
		  "start": 90.6976744186046,
		  "velocity": 80
		},
		{
		  "duration": 0.116279069767442,
		  "pitch": 45,
		  "start": 90.9302325581395,
		  "velocity": 80
		},
		{
		  "duration": 0.116279069767442,
		  "pitch": 45,
		  "start": 91.046511627907,
		  "velocity": 80
		},
		{
		  "duration": 0.116279069767442,
		  "pitch": 45,
		  "start": 91.2790697674419,
		  "velocity": 80
		},
		{
		  "duration": 0.116279069767442,
		  "pitch": 45,
		  "start": 91.3953488372093,
		  "velocity": 80
		},
		{
		  "duration": 0.116279069767442,
		  "pitch": 45,
		  "start": 91.6279069767442,
		  "velocity": 80
		},
		{
		  "duration": 0.116279069767442,
		  "pitch": 45,
		  "start": 91.7441860465116,
		  "velocity": 80
		},
		{
		  "duration": 0.116279069767442,
		  "pitch": 45,
		  "start": 91.9767441860465,
		  "velocity": 80
		},
		{
		  "duration": 0.116279069767442,
		  "pitch": 48,
		  "start": 92.0930232558139,
		  "velocity": 80
		},
		{
		  "duration": 0.116279069767442,
		  "pitch": 48,
		  "start": 92.3255813953488,
		  "velocity": 80
		},
		{
		  "duration": 0.116279069767442,
		  "pitch": 48,
		  "start": 92.4418604651163,
		  "velocity": 80
		},
		{
		  "duration": 0.116279069767442,
		  "pitch": 48,
		  "start": 92.6744186046512,
		  "velocity": 80
		},
		{
		  "duration": 0.116279069767442,
		  "pitch": 48,
		  "start": 92.7906976744186,
		  "velocity": 80
		},
		{
		  "duration": 0.116279069767442,
		  "pitch": 48,
		  "start": 93.0232558139535,
		  "velocity": 80
		},
		{
		  "duration": 0.116279069767442,
		  "pitch": 48,
		  "start": 93.1395348837209,
		  "velocity": 80
		},
		{
		  "duration": 0.116279069767442,
		  "pitch": 48,
		  "start": 93.3720930232558,
		  "velocity": 80
		},
		{
		  "duration": 0.116279069767442,
		  "pitch": 47,
		  "start": 93.4883720930233,
		  "velocity": 80
		},
		{
		  "duration": 0.116279069767442,
		  "pitch": 47,
		  "start": 93.7209302325581,
		  "velocity": 80
		},
		{
		  "duration": 0.116279069767442,
		  "pitch": 47,
		  "start": 93.8372093023256,
		  "velocity": 80
		},
		{
		  "duration": 0.116279069767442,
		  "pitch": 47,
		  "start": 94.0697674418605,
		  "velocity": 80
		},
		{
		  "duration": 0.116279069767442,
		  "pitch": 52,
		  "start": 94.1860465116279,
		  "velocity": 80
		},
		{
		  "duration": 0.116279069767442,
		  "pitch": 52,
		  "start": 94.4186046511628,
		  "velocity": 80
		},
		{
		  "duration": 0.116279069767442,
		  "pitch": 50,
		  "start": 94.5348837209302,
		  "velocity": 80
		},
		{
		  "duration": 0.116279069767442,
		  "pitch": 48,
		  "start": 94.6511627906977,
		  "velocity": 80
		},
		{
		  "duration": 0.116279069767442,
		  "pitch": 47,
		  "start": 94.7674418604651,
		  "velocity": 80
		},
		{
		  "duration": 0.232558139534884,
		  "pitch": 45,
		  "start": 94.8837209302326,
		  "velocity": 80
		},
		{
		  "duration": 0.348837209302326,
		  "pitch": 40,
		  "start": 96.6279069767442,
		  "velocity": 80
		},
		{
		  "duration": 0.348837209302326,
		  "pitch": 43,
		  "start": 96.9767441860465,
		  "velocity": 80
		},
		{
		  "duration": 0.348837209302326,
		  "pitch": 44,
		  "start": 97.3255813953488,
		  "velocity": 80
		},
		{
		  "duration": 0.232558139534884,
		  "pitch": 45,
		  "start": 97.6744186046512,
		  "velocity": 80
		},
		{
		  "duration": 0.116279069767442,
		  "pitch": 40,
		  "start": 99.7674418604651,
		  "velocity": 80
		},
		{
		  "duration": 0.116279069767442,
		  "pitch": 43,
		  "start": 99.8837209302326,
		  "velocity": 80
		},
		{
		  "duration": 0.116279069767442,
		  "pitch": 44,
		  "start": 100.0,
		  "velocity": 80
		},
		{
		  "duration": 0.232558139534884,
		  "pitch": 51,
		  "start": 100.116279069767,
		  "velocity": 80
		},
		{
		  "duration": 0.116279069767442,
		  "pitch": 50,
		  "start": 100.348837209302,
		  "velocity": 80
		},
		{
		  "duration": 0.232558139534884,
		  "pitch": 48,
		  "start": 100.46511627907,
		  "velocity": 80
		},
		{
		  "duration": 0.348837209302326,
		  "pitch": 43,
		  "start": 102.209302325581,
		  "velocity": 80
		},
		{
		  "duration": 0.348837209302326,
		  "pitch": 46,
		  "start": 102.558139534884,
		  "velocity": 80
		},
		{
		  "duration": 0.348837209302326,
		  "pitch": 47,
		  "start": 102.906976744186,
		  "velocity": 80
		},
		{
		  "duration": 0.232558139534884,
		  "pitch": 48,
		  "start": 103.255813953488,
		  "velocity": 80
		},
		{
		  "duration": 0.116279069767442,
		  "pitch": 45,
		  "start": 105.348837209302,
		  "velocity": 80
		},
		{
		  "duration": 0.116279069767442,
		  "pitch": 48,
		  "start": 105.46511627907,
		  "velocity": 80
		},
		{
		  "duration": 0.116279069767442,
		  "pitch": 48,
		  "start": 105.581395348837,
		  "velocity": 80
		},
		{
		  "duration": 0.116279069767442,
		  "pitch": 48,
		  "start": 105.697674418605,
		  "velocity": 80
		},
		{
		  "duration": 0.116279069767442,
		  "pitch": 46,
		  "start": 105.813953488372,
		  "velocity": 80
		},
		{
		  "duration": 0.116279069767442,
		  "pitch": 45,
		  "start": 105.93023255814,
		  "velocity": 80
		},
		{
		  "duration": 0.116279069767442,
		  "pitch": 43,
		  "start": 106.046511627907,
		  "velocity": 80
		},
		{
		  "duration": 0.116279069767442,
		  "pitch": 45,
		  "start": 106.162790697674,
		  "velocity": 80
		},
		{
		  "duration": 0.116279069767442,
		  "pitch": 45,
		  "start": 106.279069767442,
		  "velocity": 80
		},
		{
		  "duration": 0.116279069767442,
		  "pitch": 45,
		  "start": 106.395348837209,
		  "velocity": 80
		},
		{
		  "duration": 0.116279069767442,
		  "pitch": 45,
		  "start": 106.511627906977,
		  "velocity": 80
		},
		{
		  "duration": 0.116279069767442,
		  "pitch": 45,
		  "start": 106.627906976744,
		  "velocity": 80
		},
		{
		  "duration": 0.116279069767442,
		  "pitch": 45,
		  "start": 106.744186046512,
		  "velocity": 80
		},
		{
		  "duration": 0.116279069767442,
		  "pitch": 45,
		  "start": 106.860465116279,
		  "velocity": 80
		},
		{
		  "duration": 0.116279069767442,
		  "pitch": 45,
		  "start": 106.976744186047,
		  "velocity": 80
		},
		{
		  "duration": 0.116279069767442,
		  "pitch": 45,
		  "start": 107.093023255814,
		  "velocity": 80
		},
		{
		  "duration": 0.116279069767442,
		  "pitch": 45,
		  "start": 107.209302325581,
		  "velocity": 80
		},
		{
		  "duration": 0.116279069767442,
		  "pitch": 45,
		  "start": 107.325581395349,
		  "velocity": 80
		},
		{
		  "duration": 0.116279069767442,
		  "pitch": 43,
		  "start": 107.441860465116,
		  "velocity": 80
		},
		{
		  "duration": 0.116279069767442,
		  "pitch": 45,
		  "start": 107.558139534884,
		  "velocity": 80
		},
		{
		  "duration": 0.116279069767442,
		  "pitch": 45,
		  "start": 107.674418604651,
		  "velocity": 80
		},
		{
		  "duration": 0.116279069767442,
		  "pitch": 45,
		  "start": 107.790697674419,
		  "velocity": 80
		},
		{
		  "duration": 0.116279069767442,
		  "pitch": 45,
		  "start": 107.906976744186,
		  "velocity": 80
		},
		{
		  "duration": 0.116279069767442,
		  "pitch": 45,
		  "start": 108.023255813953,
		  "velocity": 80
		},
		{
		  "duration": 0.116279069767442,
		  "pitch": 45,
		  "start": 108.139534883721,
		  "velocity": 80
		},
		{
		  "duration": 0.116279069767442,
		  "pitch": 45,
		  "start": 108.255813953488,
		  "velocity": 80
		},
		{
		  "duration": 0.116279069767442,
		  "pitch": 45,
		  "start": 108.372093023256,
		  "velocity": 80
		},
		{
		  "duration": 0.116279069767442,
		  "pitch": 45,
		  "start": 108.488372093023,
		  "velocity": 80
		},
		{
		  "duration": 0.116279069767442,
		  "pitch": 45,
		  "start": 108.604651162791,
		  "velocity": 80
		},
		{
		  "duration": 0.116279069767442,
		  "pitch": 45,
		  "start": 108.720930232558,
		  "velocity": 80
		},
		{
		  "duration": 0.116279069767442,
		  "pitch": 43,
		  "start": 108.837209302326,
		  "velocity": 80
		},
		{
		  "duration": 0.116279069767442,
		  "pitch": 45,
		  "start": 108.953488372093,
		  "velocity": 80
		},
		{
		  "duration": 0.116279069767442,
		  "pitch": 45,
		  "start": 109.06976744186,
		  "velocity": 80
		},
		{
		  "duration": 0.116279069767442,
		  "pitch": 45,
		  "start": 109.186046511628,
		  "velocity": 80
		},
		{
		  "duration": 0.116279069767442,
		  "pitch": 45,
		  "start": 109.302325581395,
		  "velocity": 80
		},
		{
		  "duration": 0.116279069767442,
		  "pitch": 45,
		  "start": 109.418604651163,
		  "velocity": 80
		},
		{
		  "duration": 0.116279069767442,
		  "pitch": 45,
		  "start": 109.53488372093,
		  "velocity": 80
		},
		{
		  "duration": 0.116279069767442,
		  "pitch": 45,
		  "start": 109.651162790698,
		  "velocity": 80
		},
		{
		  "duration": 0.116279069767442,
		  "pitch": 45,
		  "start": 109.767441860465,
		  "velocity": 80
		},
		{
		  "duration": 0.116279069767442,
		  "pitch": 45,
		  "start": 109.883720930233,
		  "velocity": 80
		},
		{
		  "duration": 0.116279069767442,
		  "pitch": 45,
		  "start": 110.0,
		  "velocity": 80
		},
		{
		  "duration": 0.116279069767442,
		  "pitch": 45,
		  "start": 110.116279069767,
		  "velocity": 80
		},
		{
		  "duration": 0.116279069767442,
		  "pitch": 52,
		  "start": 110.232558139535,
		  "velocity": 80
		},
		{
		  "duration": 0.116279069767442,
		  "pitch": 45,
		  "start": 110.348837209302,
		  "velocity": 80
		},
		{
		  "duration": 0.116279069767442,
		  "pitch": 45,
		  "start": 110.46511627907,
		  "velocity": 80
		},
		{
		  "duration": 0.116279069767442,
		  "pitch": 50,
		  "start": 110.581395348837,
		  "velocity": 80
		},
		{
		  "duration": 0.116279069767442,
		  "pitch": 45,
		  "start": 110.697674418605,
		  "velocity": 80
		},
		{
		  "duration": 0.116279069767442,
		  "pitch": 45,
		  "start": 110.813953488372,
		  "velocity": 80
		},
		{
		  "duration": 0.232558139534884,
		  "pitch": 48,
		  "start": 110.93023255814,
		  "velocity": 80
		},
		{
		  "duration": 0.116279069767442,
		  "pitch": 45,
		  "start": 111.162790697674,
		  "velocity": 80
		},
		{
		  "duration": 0.116279069767442,
		  "pitch": 43,
		  "start": 111.279069767442,
		  "velocity": 80
		},
		{
		  "duration": 0.116279069767442,
		  "pitch": 45,
		  "start": 111.395348837209,
		  "velocity": 80
		},
		{
		  "duration": 0.116279069767442,
		  "pitch": 45,
		  "start": 111.511627906977,
		  "velocity": 80
		},
		{
		  "duration": 0.116279069767442,
		  "pitch": 46,
		  "start": 111.627906976744,
		  "velocity": 80
		},
		{
		  "duration": 0.116279069767442,
		  "pitch": 48,
		  "start": 111.744186046512,
		  "velocity": 80
		},
		{
		  "duration": 0.116279069767442,
		  "pitch": 48,
		  "start": 111.860465116279,
		  "velocity": 80
		},
		{
		  "duration": 0.116279069767442,
		  "pitch": 48,
		  "start": 111.976744186047,
		  "velocity": 80
		},
		{
		  "duration": 0.116279069767442,
		  "pitch": 48,
		  "start": 112.093023255814,
		  "velocity": 80
		},
		{
		  "duration": 0.116279069767442,
		  "pitch": 48,
		  "start": 112.209302325581,
		  "velocity": 80
		},
		{
		  "duration": 0.116279069767442,
		  "pitch": 48,
		  "start": 112.325581395349,
		  "velocity": 80
		},
		{
		  "duration": 0.116279069767442,
		  "pitch": 48,
		  "start": 112.441860465116,
		  "velocity": 80
		},
		{
		  "duration": 0.116279069767442,
		  "pitch": 48,
		  "start": 112.558139534884,
		  "velocity": 80
		},
		{
		  "duration": 0.116279069767442,
		  "pitch": 48,
		  "start": 112.674418604651,
		  "velocity": 80
		},
		{
		  "duration": 0.116279069767442,
		  "pitch": 48,
		  "start": 112.790697674419,
		  "velocity": 80
		},
		{
		  "duration": 0.116279069767442,
		  "pitch": 48,
		  "start": 112.906976744186,
		  "velocity": 80
		},
		{
		  "duration": 0.116279069767442,
		  "pitch": 46,
		  "start": 113.023255813953,
		  "velocity": 80
		},
		{
		  "duration": 0.116279069767442,
		  "pitch": 48,
		  "start": 113.139534883721,
		  "velocity": 80
		},
		{
		  "duration": 0.116279069767442,
		  "pitch": 48,
		  "start": 113.255813953488,
		  "velocity": 80
		},
		{
		  "duration": 0.116279069767442,
		  "pitch": 48,
		  "start": 113.372093023256,
		  "velocity": 80
		},
		{
		  "duration": 0.116279069767442,
		  "pitch": 48,
		  "start": 113.488372093023,
		  "velocity": 80
		},
		{
		  "duration": 0.116279069767442,
		  "pitch": 48,
		  "start": 113.604651162791,
		  "velocity": 80
		},
		{
		  "duration": 0.116279069767442,
		  "pitch": 48,
		  "start": 113.720930232558,
		  "velocity": 80
		},
		{
		  "duration": 0.116279069767442,
		  "pitch": 48,
		  "start": 113.837209302326,
		  "velocity": 80
		},
		{
		  "duration": 0.116279069767442,
		  "pitch": 48,
		  "start": 113.953488372093,
		  "velocity": 80
		},
		{
		  "duration": 0.116279069767442,
		  "pitch": 48,
		  "start": 114.06976744186,
		  "velocity": 80
		},
		{
		  "duration": 0.116279069767442,
		  "pitch": 48,
		  "start": 114.186046511628,
		  "velocity": 80
		},
		{
		  "duration": 0.116279069767442,
		  "pitch": 48,
		  "start": 114.302325581395,
		  "velocity": 80
		},
		{
		  "duration": 0.116279069767442,
		  "pitch": 46,
		  "start": 114.418604651163,
		  "velocity": 80
		},
		{
		  "duration": 0.116279069767442,
		  "pitch": 48,
		  "start": 114.53488372093,
		  "velocity": 80
		},
		{
		  "duration": 0.116279069767442,
		  "pitch": 48,
		  "start": 114.651162790698,
		  "velocity": 80
		},
		{
		  "duration": 0.116279069767442,
		  "pitch": 48,
		  "start": 114.767441860465,
		  "velocity": 80
		},
		{
		  "duration": 0.116279069767442,
		  "pitch": 48,
		  "start": 114.883720930233,
		  "velocity": 80
		},
		{
		  "duration": 0.116279069767442,
		  "pitch": 48,
		  "start": 115.0,
		  "velocity": 80
		},
		{
		  "duration": 0.116279069767442,
		  "pitch": 48,
		  "start": 115.116279069767,
		  "velocity": 80
		},
		{
		  "duration": 0.116279069767442,
		  "pitch": 48,
		  "start": 115.232558139535,
		  "velocity": 80
		},
		{
		  "duration": 0.116279069767442,
		  "pitch": 48,
		  "start": 115.348837209302,
		  "velocity": 80
		},
		{
		  "duration": 0.116279069767442,
		  "pitch": 48,
		  "start": 115.46511627907,
		  "velocity": 80
		},
		{
		  "duration": 0.116279069767442,
		  "pitch": 48,
		  "start": 115.581395348837,
		  "velocity": 80
		},
		{
		  "duration": 0.116279069767442,
		  "pitch": 48,
		  "start": 115.697674418605,
		  "velocity": 80
		},
		{
		  "duration": 0.116279069767442,
		  "pitch": 55,
		  "start": 115.813953488372,
		  "velocity": 80
		},
		{
		  "duration": 0.116279069767442,
		  "pitch": 48,
		  "start": 115.93023255814,
		  "velocity": 80
		},
		{
		  "duration": 0.116279069767442,
		  "pitch": 48,
		  "start": 116.046511627907,
		  "velocity": 80
		},
		{
		  "duration": 0.116279069767442,
		  "pitch": 53,
		  "start": 116.162790697674,
		  "velocity": 80
		},
		{
		  "duration": 0.116279069767442,
		  "pitch": 48,
		  "start": 116.279069767442,
		  "velocity": 80
		},
		{
		  "duration": 0.116279069767442,
		  "pitch": 48,
		  "start": 116.395348837209,
		  "velocity": 80
		},
		{
		  "duration": 0.232558139534884,
		  "pitch": 52,
		  "start": 116.511627906977,
		  "velocity": 80
		},
		{
		  "duration": 0.116279069767442,
		  "pitch": 50,
		  "start": 116.744186046512,
		  "velocity": 80
		},
		{
		  "duration": 0.116279069767442,
		  "pitch": 49,
		  "start": 116.860465116279,
		  "velocity": 80
		},
		{
		  "duration": 0.116279069767442,
		  "pitch": 48,
		  "start": 116.976744186047,
		  "velocity": 80
		},
		{
		  "duration": 0.116279069767442,
		  "pitch": 47,
		  "start": 117.093023255814,
		  "velocity": 80
		},
		{
		  "duration": 0.116279069767442,
		  "pitch": 45,
		  "start": 117.209302325581,
		  "velocity": 80
		},
		{
		  "duration": 0.116279069767442,
		  "pitch": 45,
		  "start": 117.441860465116,
		  "velocity": 80
		},
		{
		  "duration": 0.116279069767442,
		  "pitch": 45,
		  "start": 117.558139534884,
		  "velocity": 80
		},
		{
		  "duration": 0.116279069767442,
		  "pitch": 47,
		  "start": 117.674418604651,
		  "velocity": 80
		},
		{
		  "duration": 0.116279069767442,
		  "pitch": 48,
		  "start": 117.790697674419,
		  "velocity": 80
		},
		{
		  "duration": 0.348837209302326,
		  "pitch": 52,
		  "start": 117.906976744186,
		  "velocity": 80
		},
		{
		  "duration": 0.348837209302326,
		  "pitch": 47,
		  "start": 118.255813953488,
		  "velocity": 80
		},
		{
		  "duration": 0.116279069767442,
		  "pitch": 48,
		  "start": 118.604651162791,
		  "velocity": 80
		},
		{
		  "duration": 0.116279069767442,
		  "pitch": 48,
		  "start": 118.837209302326,
		  "velocity": 80
		},
		{
		  "duration": 0.116279069767442,
		  "pitch": 48,
		  "start": 118.953488372093,
		  "velocity": 80
		},
		{
		  "duration": 0.116279069767442,
		  "pitch": 47,
		  "start": 119.06976744186,
		  "velocity": 80
		},
		{
		  "duration": 0.116279069767442,
		  "pitch": 45,
		  "start": 119.186046511628,
		  "velocity": 80
		},
		{
		  "duration": 0.348837209302326,
		  "pitch": 43,
		  "start": 119.302325581395,
		  "velocity": 80
		},
		{
		  "duration": 0.116279069767442,
		  "pitch": 43,
		  "start": 119.883720930233,
		  "velocity": 80
		},
		{
		  "duration": 0.116279069767442,
		  "pitch": 41,
		  "start": 120.0,
		  "velocity": 80
		},
		{
		  "duration": 0.116279069767442,
		  "pitch": 41,
		  "start": 120.232558139535,
		  "velocity": 80
		},
		{
		  "duration": 0.116279069767442,
		  "pitch": 41,
		  "start": 120.348837209302,
		  "velocity": 80
		},
		{
		  "duration": 0.116279069767442,
		  "pitch": 41,
		  "start": 120.581395348837,
		  "velocity": 80
		},
		{
		  "duration": 0.116279069767442,
		  "pitch": 41,
		  "start": 120.697674418605,
		  "velocity": 80
		},
		{
		  "duration": 0.116279069767442,
		  "pitch": 41,
		  "start": 120.93023255814,
		  "velocity": 80
		},
		{
		  "duration": 0.116279069767442,
		  "pitch": 43,
		  "start": 121.046511627907,
		  "velocity": 80
		},
		{
		  "duration": 0.116279069767442,
		  "pitch": 43,
		  "start": 121.279069767442,
		  "velocity": 80
		},
		{
		  "duration": 0.116279069767442,
		  "pitch": 45,
		  "start": 121.395348837209,
		  "velocity": 80
		},
		{
		  "duration": 0.116279069767442,
		  "pitch": 45,
		  "start": 121.627906976744,
		  "velocity": 80
		},
		{
		  "duration": 0.116279069767442,
		  "pitch": 45,
		  "start": 121.744186046512,
		  "velocity": 80
		},
		{
		  "duration": 0.116279069767442,
		  "pitch": 45,
		  "start": 121.976744186047,
		  "velocity": 80
		},
		{
		  "duration": 0.116279069767442,
		  "pitch": 44,
		  "start": 122.093023255814,
		  "velocity": 80
		},
		{
		  "duration": 0.116279069767442,
		  "pitch": 44,
		  "start": 122.325581395349,
		  "velocity": 80
		},
		{
		  "duration": 0.116279069767442,
		  "pitch": 44,
		  "start": 122.441860465116,
		  "velocity": 80
		},
		{
		  "duration": 0.116279069767442,
		  "pitch": 44,
		  "start": 122.674418604651,
		  "velocity": 80
		},
		{
		  "duration": 0.116279069767442,
		  "pitch": 45,
		  "start": 122.790697674419,
		  "velocity": 80
		},
		{
		  "duration": 0.116279069767442,
		  "pitch": 45,
		  "start": 123.023255813953,
		  "velocity": 80
		},
		{
		  "duration": 0.116279069767442,
		  "pitch": 45,
		  "start": 123.139534883721,
		  "velocity": 80
		},
		{
		  "duration": 0.116279069767442,
		  "pitch": 45,
		  "start": 123.372093023256,
		  "velocity": 80
		},
		{
		  "duration": 0.116279069767442,
		  "pitch": 45,
		  "start": 123.488372093023,
		  "velocity": 80
		},
		{
		  "duration": 0.116279069767442,
		  "pitch": 45,
		  "start": 123.720930232558,
		  "velocity": 80
		},
		{
		  "duration": 0.116279069767442,
		  "pitch": 45,
		  "start": 123.837209302326,
		  "velocity": 80
		},
		{
		  "duration": 0.116279069767442,
		  "pitch": 45,
		  "start": 124.06976744186,
		  "velocity": 80
		},
		{
		  "duration": 0.116279069767442,
		  "pitch": 45,
		  "start": 124.186046511628,
		  "velocity": 80
		},
		{
		  "duration": 0.116279069767442,
		  "pitch": 45,
		  "start": 124.418604651163,
		  "velocity": 80
		},
		{
		  "duration": 0.116279069767442,
		  "pitch": 45,
		  "start": 124.53488372093,
		  "velocity": 80
		},
		{
		  "duration": 0.116279069767442,
		  "pitch": 45,
		  "start": 124.767441860465,
		  "velocity": 80
		},
		{
		  "duration": 0.116279069767442,
		  "pitch": 45,
		  "start": 124.883720930233,
		  "velocity": 80
		},
		{
		  "duration": 0.116279069767442,
		  "pitch": 45,
		  "start": 125.116279069767,
		  "velocity": 80
		},
		{
		  "duration": 0.116279069767442,
		  "pitch": 45,
		  "start": 125.232558139535,
		  "velocity": 80
		},
		{
		  "duration": 0.116279069767442,
		  "pitch": 45,
		  "start": 125.46511627907,
		  "velocity": 80
		},
		{
		  "duration": 0.116279069767442,
		  "pitch": 45,
		  "start": 125.581395348837,
		  "velocity": 80
		},
		{
		  "duration": 0.116279069767442,
		  "pitch": 45,
		  "start": 125.813953488372,
		  "velocity": 80
		},
		{
		  "duration": 0.116279069767442,
		  "pitch": 45,
		  "start": 125.93023255814,
		  "velocity": 80
		},
		{
		  "duration": 0.116279069767442,
		  "pitch": 47,
		  "start": 126.046511627907,
		  "velocity": 80
		},
		{
		  "duration": 0.116279069767442,
		  "pitch": 48,
		  "start": 126.162790697674,
		  "velocity": 80
		},
		{
		  "duration": 0.348837209302326,
		  "pitch": 52,
		  "start": 126.279069767442,
		  "velocity": 80
		},
		{
		  "duration": 0.348837209302326,
		  "pitch": 47,
		  "start": 126.627906976744,
		  "velocity": 80
		},
		{
		  "duration": 0.116279069767442,
		  "pitch": 48,
		  "start": 126.976744186047,
		  "velocity": 80
		},
		{
		  "duration": 0.116279069767442,
		  "pitch": 48,
		  "start": 127.209302325581,
		  "velocity": 80
		},
		{
		  "duration": 0.116279069767442,
		  "pitch": 48,
		  "start": 127.325581395349,
		  "velocity": 80
		},
		{
		  "duration": 0.116279069767442,
		  "pitch": 47,
		  "start": 127.441860465116,
		  "velocity": 80
		},
		{
		  "duration": 0.116279069767442,
		  "pitch": 45,
		  "start": 127.558139534884,
		  "velocity": 80
		},
		{
		  "duration": 0.348837209302326,
		  "pitch": 43,
		  "start": 127.674418604651,
		  "velocity": 80
		},
		{
		  "duration": 0.116279069767442,
		  "pitch": 43,
		  "start": 128.255813953488,
		  "velocity": 80
		},
		{
		  "duration": 0.116279069767442,
		  "pitch": 41,
		  "start": 128.372093023256,
		  "velocity": 80
		},
		{
		  "duration": 0.116279069767442,
		  "pitch": 41,
		  "start": 128.604651162791,
		  "velocity": 80
		},
		{
		  "duration": 0.116279069767442,
		  "pitch": 41,
		  "start": 128.720930232558,
		  "velocity": 80
		},
		{
		  "duration": 0.116279069767442,
		  "pitch": 41,
		  "start": 128.953488372093,
		  "velocity": 80
		},
		{
		  "duration": 0.116279069767442,
		  "pitch": 41,
		  "start": 129.06976744186,
		  "velocity": 80
		},
		{
		  "duration": 0.116279069767442,
		  "pitch": 41,
		  "start": 129.302325581395,
		  "velocity": 80
		},
		{
		  "duration": 0.116279069767442,
		  "pitch": 43,
		  "start": 129.418604651163,
		  "velocity": 80
		},
		{
		  "duration": 0.116279069767442,
		  "pitch": 43,
		  "start": 129.651162790698,
		  "velocity": 80
		},
		{
		  "duration": 0.116279069767442,
		  "pitch": 45,
		  "start": 129.767441860465,
		  "velocity": 80
		},
		{
		  "duration": 0.116279069767442,
		  "pitch": 45,
		  "start": 130.0,
		  "velocity": 80
		},
		{
		  "duration": 0.116279069767442,
		  "pitch": 45,
		  "start": 130.116279069767,
		  "velocity": 80
		},
		{
		  "duration": 0.116279069767442,
		  "pitch": 45,
		  "start": 130.348837209302,
		  "velocity": 80
		},
		{
		  "duration": 0.116279069767442,
		  "pitch": 44,
		  "start": 130.46511627907,
		  "velocity": 80
		},
		{
		  "duration": 0.116279069767442,
		  "pitch": 44,
		  "start": 130.697674418605,
		  "velocity": 80
		},
		{
		  "duration": 0.116279069767442,
		  "pitch": 44,
		  "start": 130.813953488372,
		  "velocity": 80
		},
		{
		  "duration": 0.116279069767442,
		  "pitch": 44,
		  "start": 131.046511627907,
		  "velocity": 80
		},
		{
		  "duration": 0.116279069767442,
		  "pitch": 45,
		  "start": 131.162790697674,
		  "velocity": 80
		},
		{
		  "duration": 0.116279069767442,
		  "pitch": 45,
		  "start": 131.395348837209,
		  "velocity": 80
		},
		{
		  "duration": 0.116279069767442,
		  "pitch": 45,
		  "start": 131.511627906977,
		  "velocity": 80
		},
		{
		  "duration": 0.116279069767442,
		  "pitch": 45,
		  "start": 131.744186046512,
		  "velocity": 80
		},
		{
		  "duration": 0.116279069767442,
		  "pitch": 45,
		  "start": 131.860465116279,
		  "velocity": 80
		},
		{
		  "duration": 0.116279069767442,
		  "pitch": 45,
		  "start": 132.093023255814,
		  "velocity": 80
		},
		{
		  "duration": 0.116279069767442,
		  "pitch": 45,
		  "start": 132.209302325581,
		  "velocity": 80
		},
		{
		  "duration": 0.116279069767442,
		  "pitch": 45,
		  "start": 132.441860465116,
		  "velocity": 80
		},
		{
		  "duration": 0.116279069767442,
		  "pitch": 45,
		  "start": 132.558139534884,
		  "velocity": 80
		},
		{
		  "duration": 0.116279069767442,
		  "pitch": 45,
		  "start": 132.790697674419,
		  "velocity": 80
		},
		{
		  "duration": 0.116279069767442,
		  "pitch": 45,
		  "start": 132.906976744186,
		  "velocity": 80
		},
		{
		  "duration": 0.116279069767442,
		  "pitch": 45,
		  "start": 133.139534883721,
		  "velocity": 80
		},
		{
		  "duration": 0.116279069767442,
		  "pitch": 45,
		  "start": 133.255813953488,
		  "velocity": 80
		},
		{
		  "duration": 0.116279069767442,
		  "pitch": 45,
		  "start": 133.488372093023,
		  "velocity": 80
		},
		{
		  "duration": 0.116279069767442,
		  "pitch": 45,
		  "start": 133.604651162791,
		  "velocity": 80
		},
		{
		  "duration": 0.116279069767442,
		  "pitch": 45,
		  "start": 133.837209302326,
		  "velocity": 80
		},
		{
		  "duration": 0.232558139534884,
		  "pitch": 45,
		  "start": 133.953488372093,
		  "velocity": 80
		},
		{
		  "duration": 0.116279069767442,
		  "pitch": 45,
		  "start": 134.186046511628,
		  "velocity": 80
		},
		{
		  "duration": 0.116279069767442,
		  "pitch": 38,
		  "start": 134.302325581395,
		  "velocity": 80
		},
		{
		  "duration": 0.116279069767442,
		  "pitch": 40,
		  "start": 134.418604651163,
		  "velocity": 80
		},
		{
		  "duration": 0.116279069767442,
		  "pitch": 43,
		  "start": 134.53488372093,
		  "velocity": 80
		},
		{
		  "duration": 0.232558139534884,
		  "pitch": 45,
		  "start": 134.651162790698,
		  "velocity": 80
		},
		{
		  "duration": 0.116279069767442,
		  "pitch": 45,
		  "start": 134.883720930233,
		  "velocity": 80
		},
		{
		  "duration": 0.232558139534884,
		  "pitch": 45,
		  "start": 135.348837209302,
		  "velocity": 80
		},
		{
		  "duration": 0.116279069767442,
		  "pitch": 45,
		  "start": 135.581395348837,
		  "velocity": 80
		},
		{
		  "duration": 0.116279069767442,
		  "pitch": 38,
		  "start": 135.697674418605,
		  "velocity": 80
		},
		{
		  "duration": 0.116279069767442,
		  "pitch": 40,
		  "start": 135.813953488372,
		  "velocity": 80
		},
		{
		  "duration": 0.116279069767442,
		  "pitch": 43,
		  "start": 135.93023255814,
		  "velocity": 80
		},
		{
		  "duration": 0.232558139534884,
		  "pitch": 45,
		  "start": 136.046511627907,
		  "velocity": 80
		},
		{
		  "duration": 0.116279069767442,
		  "pitch": 45,
		  "start": 136.279069767442,
		  "velocity": 80
		},
		{
		  "duration": 0.116279069767442,
		  "pitch": 47,
		  "start": 136.395348837209,
		  "velocity": 80
		},
		{
		  "duration": 0.116279069767442,
		  "pitch": 50,
		  "start": 136.511627906977,
		  "velocity": 80
		},
		{
		  "duration": 0.116279069767442,
		  "pitch": 52,
		  "start": 136.627906976744,
		  "velocity": 80
		},
		{
		  "duration": 0.232558139534884,
		  "pitch": 45,
		  "start": 136.744186046512,
		  "velocity": 80
		},
		{
		  "duration": 0.116279069767442,
		  "pitch": 45,
		  "start": 136.976744186047,
		  "velocity": 80
		},
		{
		  "duration": 0.116279069767442,
		  "pitch": 38,
		  "start": 137.093023255814,
		  "velocity": 80
		},
		{
		  "duration": 0.116279069767442,
		  "pitch": 40,
		  "start": 137.209302325581,
		  "velocity": 80
		},
		{
		  "duration": 0.116279069767442,
		  "pitch": 43,
		  "start": 137.325581395349,
		  "velocity": 80
		},
		{
		  "duration": 0.232558139534884,
		  "pitch": 45,
		  "start": 137.441860465116,
		  "velocity": 80
		},
		{
		  "duration": 0.116279069767442,
		  "pitch": 45,
		  "start": 137.674418604651,
		  "velocity": 80
		},
		{
		  "duration": 0.232558139534884,
		  "pitch": 45,
		  "start": 138.139534883721,
		  "velocity": 80
		},
		{
		  "duration": 0.116279069767442,
		  "pitch": 45,
		  "start": 138.372093023256,
		  "velocity": 80
		},
		{
		  "duration": 0.116279069767442,
		  "pitch": 38,
		  "start": 138.488372093023,
		  "velocity": 80
		},
		{
		  "duration": 0.116279069767442,
		  "pitch": 40,
		  "start": 138.604651162791,
		  "velocity": 80
		},
		{
		  "duration": 0.116279069767442,
		  "pitch": 43,
		  "start": 138.720930232558,
		  "velocity": 80
		},
		{
		  "duration": 0.232558139534884,
		  "pitch": 45,
		  "start": 138.837209302326,
		  "velocity": 80
		},
		{
		  "duration": 0.116279069767442,
		  "pitch": 45,
		  "start": 139.06976744186,
		  "velocity": 80
		},
		{
		  "duration": 0.232558139534884,
		  "pitch": 45,
		  "start": 139.186046511628,
		  "velocity": 80
		},
		{
		  "duration": 0.232558139534884,
		  "pitch": 45,
		  "start": 139.53488372093,
		  "velocity": 80
		},
		{
		  "duration": 0.116279069767442,
		  "pitch": 45,
		  "start": 139.767441860465,
		  "velocity": 80
		},
		{
		  "duration": 0.116279069767442,
		  "pitch": 38,
		  "start": 139.883720930233,
		  "velocity": 80
		},
		{
		  "duration": 0.116279069767442,
		  "pitch": 40,
		  "start": 140.0,
		  "velocity": 80
		},
		{
		  "duration": 0.116279069767442,
		  "pitch": 43,
		  "start": 140.116279069767,
		  "velocity": 80
		},
		{
		  "duration": 0.232558139534884,
		  "pitch": 45,
		  "start": 140.232558139535,
		  "velocity": 80
		},
		{
		  "duration": 0.116279069767442,
		  "pitch": 45,
		  "start": 140.46511627907,
		  "velocity": 80
		},
		{
		  "duration": 0.232558139534884,
		  "pitch": 45,
		  "start": 140.93023255814,
		  "velocity": 80
		},
		{
		  "duration": 0.116279069767442,
		  "pitch": 45,
		  "start": 141.162790697674,
		  "velocity": 80
		},
		{
		  "duration": 0.116279069767442,
		  "pitch": 38,
		  "start": 141.279069767442,
		  "velocity": 80
		},
		{
		  "duration": 0.116279069767442,
		  "pitch": 40,
		  "start": 141.395348837209,
		  "velocity": 80
		},
		{
		  "duration": 0.116279069767442,
		  "pitch": 43,
		  "start": 141.511627906977,
		  "velocity": 80
		},
		{
		  "duration": 0.232558139534884,
		  "pitch": 45,
		  "start": 141.627906976744,
		  "velocity": 80
		},
		{
		  "duration": 0.116279069767442,
		  "pitch": 45,
		  "start": 141.860465116279,
		  "velocity": 80
		},
		{
		  "duration": 0.116279069767442,
		  "pitch": 47,
		  "start": 141.976744186047,
		  "velocity": 80
		},
		{
		  "duration": 0.116279069767442,
		  "pitch": 50,
		  "start": 142.093023255814,
		  "velocity": 80
		},
		{
		  "duration": 0.116279069767442,
		  "pitch": 52,
		  "start": 142.209302325581,
		  "velocity": 80
		},
		{
		  "duration": 0.232558139534884,
		  "pitch": 45,
		  "start": 142.325581395349,
		  "velocity": 80
		},
		{
		  "duration": 0.116279069767442,
		  "pitch": 45,
		  "start": 142.558139534884,
		  "velocity": 80
		},
		{
		  "duration": 0.116279069767442,
		  "pitch": 38,
		  "start": 142.674418604651,
		  "velocity": 80
		},
		{
		  "duration": 0.116279069767442,
		  "pitch": 40,
		  "start": 142.790697674419,
		  "velocity": 80
		},
		{
		  "duration": 0.116279069767442,
		  "pitch": 43,
		  "start": 142.906976744186,
		  "velocity": 80
		},
		{
		  "duration": 0.232558139534884,
		  "pitch": 45,
		  "start": 143.023255813953,
		  "velocity": 80
		},
		{
		  "duration": 0.116279069767442,
		  "pitch": 45,
		  "start": 143.255813953488,
		  "velocity": 80
		},
		{
		  "duration": 0.232558139534884,
		  "pitch": 45,
		  "start": 143.720930232558,
		  "velocity": 80
		},
		{
		  "duration": 0.116279069767442,
		  "pitch": 45,
		  "start": 143.953488372093,
		  "velocity": 80
		},
		{
		  "duration": 0.116279069767442,
		  "pitch": 38,
		  "start": 144.06976744186,
		  "velocity": 80
		},
		{
		  "duration": 0.116279069767442,
		  "pitch": 40,
		  "start": 144.186046511628,
		  "velocity": 80
		},
		{
		  "duration": 0.116279069767442,
		  "pitch": 43,
		  "start": 144.302325581395,
		  "velocity": 80
		},
		{
		  "duration": 0.232558139534884,
		  "pitch": 45,
		  "start": 144.418604651163,
		  "velocity": 80
		},
		{
		  "duration": 0.116279069767442,
		  "pitch": 45,
		  "start": 144.651162790698,
		  "velocity": 80
		},
		{
		  "duration": 0.232558139534884,
		  "pitch": 45,
		  "start": 144.767441860465,
		  "velocity": 80
		},
		{
		  "duration": 0.116279069767442,
		  "pitch": 43,
		  "start": 145.116279069767,
		  "velocity": 80
		},
		{
		  "duration": 0.116279069767442,
		  "pitch": 43,
		  "start": 145.348837209302,
		  "velocity": 80
		},
		{
		  "duration": 0.116279069767442,
		  "pitch": 43,
		  "start": 145.46511627907,
		  "velocity": 80
		},
		{
		  "duration": 0.116279069767442,
		  "pitch": 43,
		  "start": 145.697674418605,
		  "velocity": 80
		},
		{
		  "duration": 0.116279069767442,
		  "pitch": 43,
		  "start": 145.813953488372,
		  "velocity": 80
		},
		{
		  "duration": 0.116279069767442,
		  "pitch": 43,
		  "start": 146.046511627907,
		  "velocity": 80
		},
		{
		  "duration": 0.116279069767442,
		  "pitch": 43,
		  "start": 146.162790697674,
		  "velocity": 80
		},
		{
		  "duration": 0.116279069767442,
		  "pitch": 45,
		  "start": 146.279069767442,
		  "velocity": 80
		},
		{
		  "duration": 0.116279069767442,
		  "pitch": 47,
		  "start": 146.395348837209,
		  "velocity": 80
		},
		{
		  "duration": 0.116279069767442,
		  "pitch": 48,
		  "start": 146.511627906977,
		  "velocity": 80
		},
		{
		  "duration": 0.116279069767442,
		  "pitch": 48,
		  "start": 146.744186046512,
		  "velocity": 80
		},
		{
		  "duration": 0.116279069767442,
		  "pitch": 48,
		  "start": 146.860465116279,
		  "velocity": 80
		},
		{
		  "duration": 0.116279069767442,
		  "pitch": 48,
		  "start": 147.093023255814,
		  "velocity": 80
		},
		{
		  "duration": 0.116279069767442,
		  "pitch": 48,
		  "start": 147.209302325581,
		  "velocity": 80
		},
		{
		  "duration": 0.116279069767442,
		  "pitch": 48,
		  "start": 147.441860465116,
		  "velocity": 80
		},
		{
		  "duration": 0.116279069767442,
		  "pitch": 48,
		  "start": 147.558139534884,
		  "velocity": 80
		},
		{
		  "duration": 0.116279069767442,
		  "pitch": 48,
		  "start": 147.790697674419,
		  "velocity": 80
		},
		{
		  "duration": 0.116279069767442,
		  "pitch": 43,
		  "start": 147.906976744186,
		  "velocity": 80
		},
		{
		  "duration": 0.116279069767442,
		  "pitch": 43,
		  "start": 148.139534883721,
		  "velocity": 80
		},
		{
		  "duration": 0.116279069767442,
		  "pitch": 43,
		  "start": 148.255813953488,
		  "velocity": 80
		},
		{
		  "duration": 0.116279069767442,
		  "pitch": 43,
		  "start": 148.488372093023,
		  "velocity": 80
		},
		{
		  "duration": 0.116279069767442,
		  "pitch": 43,
		  "start": 148.604651162791,
		  "velocity": 80
		},
		{
		  "duration": 0.116279069767442,
		  "pitch": 43,
		  "start": 148.837209302326,
		  "velocity": 80
		},
		{
		  "duration": 0.116279069767442,
		  "pitch": 43,
		  "start": 148.953488372093,
		  "velocity": 80
		},
		{
		  "duration": 0.116279069767442,
		  "pitch": 45,
		  "start": 149.06976744186,
		  "velocity": 80
		},
		{
		  "duration": 0.116279069767442,
		  "pitch": 47,
		  "start": 149.186046511628,
		  "velocity": 80
		},
		{
		  "duration": 0.116279069767442,
		  "pitch": 48,
		  "start": 149.302325581395,
		  "velocity": 80
		},
		{
		  "duration": 0.116279069767442,
		  "pitch": 48,
		  "start": 149.53488372093,
		  "velocity": 80
		},
		{
		  "duration": 0.116279069767442,
		  "pitch": 48,
		  "start": 149.651162790698,
		  "velocity": 80
		},
		{
		  "duration": 0.116279069767442,
		  "pitch": 48,
		  "start": 149.883720930233,
		  "velocity": 80
		},
		{
		  "duration": 0.116279069767442,
		  "pitch": 48,
		  "start": 150.0,
		  "velocity": 80
		},
		{
		  "duration": 0.116279069767442,
		  "pitch": 48,
		  "start": 150.232558139535,
		  "velocity": 80
		},
		{
		  "duration": 0.116279069767442,
		  "pitch": 48,
		  "start": 150.348837209302,
		  "velocity": 80
		},
		{
		  "duration": 0.116279069767442,
		  "pitch": 48,
		  "start": 150.581395348837,
		  "velocity": 80
		},
		{
		  "duration": 0.116279069767442,
		  "pitch": 45,
		  "start": 150.697674418605,
		  "velocity": 80
		},
		{
		  "duration": 0.116279069767442,
		  "pitch": 45,
		  "start": 150.93023255814,
		  "velocity": 80
		},
		{
		  "duration": 0.116279069767442,
		  "pitch": 45,
		  "start": 151.046511627907,
		  "velocity": 80
		},
		{
		  "duration": 0.116279069767442,
		  "pitch": 45,
		  "start": 151.279069767442,
		  "velocity": 80
		},
		{
		  "duration": 0.116279069767442,
		  "pitch": 45,
		  "start": 151.395348837209,
		  "velocity": 80
		},
		{
		  "duration": 0.116279069767442,
		  "pitch": 45,
		  "start": 151.627906976744,
		  "velocity": 80
		},
		{
		  "duration": 0.116279069767442,
		  "pitch": 45,
		  "start": 151.744186046512,
		  "velocity": 80
		},
		{
		  "duration": 0.116279069767442,
		  "pitch": 47,
		  "start": 151.860465116279,
		  "velocity": 80
		},
		{
		  "duration": 0.116279069767442,
		  "pitch": 48,
		  "start": 151.976744186047,
		  "velocity": 80
		},
		{
		  "duration": 0.116279069767442,
		  "pitch": 50,
		  "start": 152.093023255814,
		  "velocity": 80
		},
		{
		  "duration": 0.116279069767442,
		  "pitch": 50,
		  "start": 152.325581395349,
		  "velocity": 80
		},
		{
		  "duration": 0.116279069767442,
		  "pitch": 50,
		  "start": 152.441860465116,
		  "velocity": 80
		},
		{
		  "duration": 0.116279069767442,
		  "pitch": 50,
		  "start": 152.674418604651,
		  "velocity": 80
		},
		{
		  "duration": 0.116279069767442,
		  "pitch": 50,
		  "start": 152.790697674419,
		  "velocity": 80
		},
		{
		  "duration": 0.116279069767442,
		  "pitch": 50,
		  "start": 153.023255813953,
		  "velocity": 80
		},
		{
		  "duration": 0.116279069767442,
		  "pitch": 50,
		  "start": 153.139534883721,
		  "velocity": 80
		},
		{
		  "duration": 0.116279069767442,
		  "pitch": 50,
		  "start": 153.372093023256,
		  "velocity": 80
		},
		{
		  "duration": 0.116279069767442,
		  "pitch": 45,
		  "start": 153.488372093023,
		  "velocity": 80
		},
		{
		  "duration": 0.116279069767442,
		  "pitch": 45,
		  "start": 153.720930232558,
		  "velocity": 80
		},
		{
		  "duration": 0.116279069767442,
		  "pitch": 45,
		  "start": 153.837209302326,
		  "velocity": 80
		},
		{
		  "duration": 0.116279069767442,
		  "pitch": 45,
		  "start": 154.06976744186,
		  "velocity": 80
		},
		{
		  "duration": 0.116279069767442,
		  "pitch": 45,
		  "start": 154.186046511628,
		  "velocity": 80
		},
		{
		  "duration": 0.116279069767442,
		  "pitch": 45,
		  "start": 154.418604651163,
		  "velocity": 80
		},
		{
		  "duration": 0.116279069767442,
		  "pitch": 45,
		  "start": 154.53488372093,
		  "velocity": 80
		},
		{
		  "duration": 0.116279069767442,
		  "pitch": 45,
		  "start": 154.767441860465,
		  "velocity": 80
		},
		{
		  "duration": 0.116279069767442,
		  "pitch": 46,
		  "start": 154.883720930233,
		  "velocity": 80
		},
		{
		  "duration": 0.116279069767442,
		  "pitch": 46,
		  "start": 155.116279069767,
		  "velocity": 80
		},
		{
		  "duration": 0.116279069767442,
		  "pitch": 46,
		  "start": 155.232558139535,
		  "velocity": 80
		},
		{
		  "duration": 0.116279069767442,
		  "pitch": 46,
		  "start": 155.46511627907,
		  "velocity": 80
		},
		{
		  "duration": 0.116279069767442,
		  "pitch": 46,
		  "start": 155.581395348837,
		  "velocity": 80
		},
		{
		  "duration": 0.116279069767442,
		  "pitch": 46,
		  "start": 155.813953488372,
		  "velocity": 80
		},
		{
		  "duration": 0.116279069767442,
		  "pitch": 46,
		  "start": 155.93023255814,
		  "velocity": 80
		},
		{
		  "duration": 0.116279069767442,
		  "pitch": 46,
		  "start": 156.162790697674,
		  "velocity": 80
		},
		{
		  "duration": 0.116279069767442,
		  "pitch": 50,
		  "start": 156.279069767442,
		  "velocity": 80
		},
		{
		  "duration": 0.116279069767442,
		  "pitch": 50,
		  "start": 156.511627906977,
		  "velocity": 80
		},
		{
		  "duration": 0.116279069767442,
		  "pitch": 50,
		  "start": 156.627906976744,
		  "velocity": 80
		},
		{
		  "duration": 0.116279069767442,
		  "pitch": 50,
		  "start": 156.860465116279,
		  "velocity": 80
		},
		{
		  "duration": 0.116279069767442,
		  "pitch": 50,
		  "start": 156.976744186047,
		  "velocity": 80
		},
		{
		  "duration": 0.116279069767442,
		  "pitch": 50,
		  "start": 157.209302325581,
		  "velocity": 80
		},
		{
		  "duration": 0.116279069767442,
		  "pitch": 48,
		  "start": 157.325581395349,
		  "velocity": 80
		},
		{
		  "duration": 0.116279069767442,
		  "pitch": 48,
		  "start": 157.558139534884,
		  "velocity": 80
		},
		{
		  "duration": 0.116279069767442,
		  "pitch": 50,
		  "start": 157.674418604651,
		  "velocity": 80
		},
		{
		  "duration": 0.116279069767442,
		  "pitch": 50,
		  "start": 157.906976744186,
		  "velocity": 80
		},
		{
		  "duration": 0.116279069767442,
		  "pitch": 50,
		  "start": 158.023255813953,
		  "velocity": 80
		},
		{
		  "duration": 0.116279069767442,
		  "pitch": 50,
		  "start": 158.255813953488,
		  "velocity": 80
		},
		{
		  "duration": 0.116279069767442,
		  "pitch": 50,
		  "start": 158.372093023256,
		  "velocity": 80
		},
		{
		  "duration": 0.116279069767442,
		  "pitch": 50,
		  "start": 158.604651162791,
		  "velocity": 80
		},
		{
		  "duration": 0.116279069767442,
		  "pitch": 48,
		  "start": 158.720930232558,
		  "velocity": 80
		},
		{
		  "duration": 0.116279069767442,
		  "pitch": 48,
		  "start": 158.953488372093,
		  "velocity": 80
		},
		{
		  "duration": 0.116279069767442,
		  "pitch": 50,
		  "start": 159.06976744186,
		  "velocity": 80
		},
		{
		  "duration": 0.116279069767442,
		  "pitch": 50,
		  "start": 159.302325581395,
		  "velocity": 80
		},
		{
		  "duration": 0.116279069767442,
		  "pitch": 50,
		  "start": 159.418604651163,
		  "velocity": 80
		},
		{
		  "duration": 0.116279069767442,
		  "pitch": 50,
		  "start": 159.651162790698,
		  "velocity": 80
		},
		{
		  "duration": 0.116279069767442,
		  "pitch": 50,
		  "start": 159.767441860465,
		  "velocity": 80
		},
		{
		  "duration": 0.116279069767442,
		  "pitch": 50,
		  "start": 160.0,
		  "velocity": 80
		},
		{
		  "duration": 0.116279069767442,
		  "pitch": 48,
		  "start": 160.116279069767,
		  "velocity": 80
		},
		{
		  "duration": 0.116279069767442,
		  "pitch": 48,
		  "start": 160.348837209302,
		  "velocity": 80
		},
		{
		  "duration": 0.348837209302326,
		  "pitch": 50,
		  "start": 160.46511627907,
		  "velocity": 80
		},
		{
		  "duration": 0.348837209302326,
		  "pitch": 45,
		  "start": 160.813953488372,
		  "velocity": 80
		},
		{
		  "duration": 0.348837209302326,
		  "pitch": 48,
		  "start": 161.162790697674,
		  "velocity": 80
		},
		{
		  "duration": 0.116279069767442,
		  "pitch": 47,
		  "start": 161.511627906977,
		  "velocity": 80
		},
		{
		  "duration": 0.116279069767442,
		  "pitch": 46,
		  "start": 161.627906976744,
		  "velocity": 80
		},
		{
		  "duration": 0.116279069767442,
		  "pitch": 43,
		  "start": 161.744186046512,
		  "velocity": 80
		},
		{
		  "duration": 0.116279069767442,
		  "pitch": 45,
		  "start": 161.860465116279,
		  "velocity": 80
		},
		{
		  "duration": 0.116279069767442,
		  "pitch": 45,
		  "start": 162.093023255814,
		  "velocity": 80
		},
		{
		  "duration": 0.116279069767442,
		  "pitch": 45,
		  "start": 162.209302325581,
		  "velocity": 80
		},
		{
		  "duration": 0.116279069767442,
		  "pitch": 45,
		  "start": 162.441860465116,
		  "velocity": 80
		},
		{
		  "duration": 0.116279069767442,
		  "pitch": 45,
		  "start": 162.558139534884,
		  "velocity": 80
		},
		{
		  "duration": 0.116279069767442,
		  "pitch": 45,
		  "start": 162.790697674419,
		  "velocity": 80
		},
		{
		  "duration": 0.116279069767442,
		  "pitch": 45,
		  "start": 162.906976744186,
		  "velocity": 80
		},
		{
		  "duration": 0.116279069767442,
		  "pitch": 45,
		  "start": 163.139534883721,
		  "velocity": 80
		},
		{
		  "duration": 0.116279069767442,
		  "pitch": 45,
		  "start": 163.255813953488,
		  "velocity": 80
		},
		{
		  "duration": 0.116279069767442,
		  "pitch": 45,
		  "start": 163.488372093023,
		  "velocity": 80
		},
		{
		  "duration": 0.116279069767442,
		  "pitch": 45,
		  "start": 163.604651162791,
		  "velocity": 80
		},
		{
		  "duration": 0.116279069767442,
		  "pitch": 45,
		  "start": 163.837209302326,
		  "velocity": 80
		},
		{
		  "duration": 0.116279069767442,
		  "pitch": 45,
		  "start": 163.953488372093,
		  "velocity": 80
		},
		{
		  "duration": 0.116279069767442,
		  "pitch": 45,
		  "start": 164.186046511628,
		  "velocity": 80
		},
		{
		  "duration": 0.116279069767442,
		  "pitch": 45,
		  "start": 164.302325581395,
		  "velocity": 80
		},
		{
		  "duration": 0.116279069767442,
		  "pitch": 45,
		  "start": 164.53488372093,
		  "velocity": 80
		},
		{
		  "duration": 0.116279069767442,
		  "pitch": 45,
		  "start": 164.651162790698,
		  "velocity": 80
		},
		{
		  "duration": 0.116279069767442,
		  "pitch": 45,
		  "start": 164.883720930233,
		  "velocity": 80
		},
		{
		  "duration": 0.116279069767442,
		  "pitch": 45,
		  "start": 165.0,
		  "velocity": 80
		},
		{
		  "duration": 0.116279069767442,
		  "pitch": 45,
		  "start": 165.232558139535,
		  "velocity": 80
		},
		{
		  "duration": 0.116279069767442,
		  "pitch": 45,
		  "start": 165.348837209302,
		  "velocity": 80
		},
		{
		  "duration": 0.116279069767442,
		  "pitch": 45,
		  "start": 165.581395348837,
		  "velocity": 80
		},
		{
		  "duration": 0.116279069767442,
		  "pitch": 45,
		  "start": 165.697674418605,
		  "velocity": 80
		},
		{
		  "duration": 0.116279069767442,
		  "pitch": 45,
		  "start": 165.93023255814,
		  "velocity": 80
		},
		{
		  "duration": 0.116279069767442,
		  "pitch": 45,
		  "start": 166.046511627907,
		  "velocity": 80
		},
		{
		  "duration": 0.116279069767442,
		  "pitch": 45,
		  "start": 166.279069767442,
		  "velocity": 80
		},
		{
		  "duration": 0.116279069767442,
		  "pitch": 45,
		  "start": 166.395348837209,
		  "velocity": 80
		},
		{
		  "duration": 0.116279069767442,
		  "pitch": 45,
		  "start": 166.627906976744,
		  "velocity": 80
		},
		{
		  "duration": 0.116279069767442,
		  "pitch": 45,
		  "start": 166.744186046512,
		  "velocity": 80
		},
		{
		  "duration": 0.116279069767442,
		  "pitch": 48,
		  "start": 166.860465116279,
		  "velocity": 80
		},
		{
		  "duration": 0.116279069767442,
		  "pitch": 52,
		  "start": 166.976744186047,
		  "velocity": 80
		},
		{
		  "duration": 0.116279069767442,
		  "pitch": 55,
		  "start": 167.093023255814,
		  "velocity": 80
		},
		{
		  "duration": 0.116279069767442,
		  "pitch": 52,
		  "start": 167.209302325581,
		  "velocity": 80
		},
		{
		  "duration": 0.116279069767442,
		  "pitch": 55,
		  "start": 167.325581395349,
		  "velocity": 80
		},
		{
		  "duration": 0.116279069767442,
		  "pitch": 50,
		  "start": 167.441860465116,
		  "velocity": 80
		},
		{
		  "duration": 0.116279069767442,
		  "pitch": 50,
		  "start": 167.674418604651,
		  "velocity": 80
		},
		{
		  "duration": 0.116279069767442,
		  "pitch": 50,
		  "start": 167.790697674419,
		  "velocity": 80
		},
		{
		  "duration": 0.116279069767442,
		  "pitch": 50,
		  "start": 168.023255813953,
		  "velocity": 80
		},
		{
		  "duration": 0.116279069767442,
		  "pitch": 50,
		  "start": 168.139534883721,
		  "velocity": 80
		},
		{
		  "duration": 0.116279069767442,
		  "pitch": 50,
		  "start": 168.372093023256,
		  "velocity": 80
		},
		{
		  "duration": 0.116279069767442,
		  "pitch": 48,
		  "start": 168.488372093023,
		  "velocity": 80
		},
		{
		  "duration": 0.116279069767442,
		  "pitch": 48,
		  "start": 168.720930232558,
		  "velocity": 80
		},
		{
		  "duration": 0.116279069767442,
		  "pitch": 50,
		  "start": 168.837209302326,
		  "velocity": 80
		},
		{
		  "duration": 0.116279069767442,
		  "pitch": 50,
		  "start": 169.06976744186,
		  "velocity": 80
		},
		{
		  "duration": 0.116279069767442,
		  "pitch": 50,
		  "start": 169.186046511628,
		  "velocity": 80
		},
		{
		  "duration": 0.116279069767442,
		  "pitch": 50,
		  "start": 169.418604651163,
		  "velocity": 80
		},
		{
		  "duration": 0.116279069767442,
		  "pitch": 50,
		  "start": 169.53488372093,
		  "velocity": 80
		},
		{
		  "duration": 0.116279069767442,
		  "pitch": 50,
		  "start": 169.767441860465,
		  "velocity": 80
		},
		{
		  "duration": 0.116279069767442,
		  "pitch": 48,
		  "start": 169.883720930233,
		  "velocity": 80
		},
		{
		  "duration": 0.116279069767442,
		  "pitch": 48,
		  "start": 170.116279069767,
		  "velocity": 80
		},
		{
		  "duration": 0.116279069767442,
		  "pitch": 50,
		  "start": 170.232558139535,
		  "velocity": 80
		},
		{
		  "duration": 0.116279069767442,
		  "pitch": 50,
		  "start": 170.46511627907,
		  "velocity": 80
		},
		{
		  "duration": 0.116279069767442,
		  "pitch": 50,
		  "start": 170.581395348837,
		  "velocity": 80
		},
		{
		  "duration": 0.116279069767442,
		  "pitch": 50,
		  "start": 170.813953488372,
		  "velocity": 80
		},
		{
		  "duration": 0.116279069767442,
		  "pitch": 50,
		  "start": 170.93023255814,
		  "velocity": 80
		},
		{
		  "duration": 0.116279069767442,
		  "pitch": 50,
		  "start": 171.162790697674,
		  "velocity": 80
		},
		{
		  "duration": 0.116279069767442,
		  "pitch": 48,
		  "start": 171.279069767442,
		  "velocity": 80
		},
		{
		  "duration": 0.116279069767442,
		  "pitch": 48,
		  "start": 171.511627906977,
		  "velocity": 80
		},
		{
		  "duration": 0.348837209302326,
		  "pitch": 50,
		  "start": 171.627906976744,
		  "velocity": 80
		},
		{
		  "duration": 0.348837209302326,
		  "pitch": 45,
		  "start": 171.976744186047,
		  "velocity": 80
		},
		{
		  "duration": 0.348837209302326,
		  "pitch": 48,
		  "start": 172.325581395349,
		  "velocity": 80
		},
		{
		  "duration": 0.116279069767442,
		  "pitch": 47,
		  "start": 172.674418604651,
		  "velocity": 80
		},
		{
		  "duration": 0.116279069767442,
		  "pitch": 46,
		  "start": 172.790697674419,
		  "velocity": 80
		},
		{
		  "duration": 0.116279069767442,
		  "pitch": 43,
		  "start": 172.906976744186,
		  "velocity": 80
		},
		{
		  "duration": 0.116279069767442,
		  "pitch": 45,
		  "start": 173.023255813953,
		  "velocity": 80
		},
		{
		  "duration": 0.116279069767442,
		  "pitch": 45,
		  "start": 173.255813953488,
		  "velocity": 80
		},
		{
		  "duration": 0.116279069767442,
		  "pitch": 45,
		  "start": 173.372093023256,
		  "velocity": 80
		},
		{
		  "duration": 0.116279069767442,
		  "pitch": 45,
		  "start": 173.604651162791,
		  "velocity": 80
		},
		{
		  "duration": 0.116279069767442,
		  "pitch": 45,
		  "start": 173.720930232558,
		  "velocity": 80
		},
		{
		  "duration": 0.116279069767442,
		  "pitch": 45,
		  "start": 173.953488372093,
		  "velocity": 80
		},
		{
		  "duration": 0.116279069767442,
		  "pitch": 45,
		  "start": 174.06976744186,
		  "velocity": 80
		},
		{
		  "duration": 0.116279069767442,
		  "pitch": 45,
		  "start": 174.302325581395,
		  "velocity": 80
		},
		{
		  "duration": 0.116279069767442,
		  "pitch": 45,
		  "start": 174.418604651163,
		  "velocity": 80
		},
		{
		  "duration": 0.116279069767442,
		  "pitch": 45,
		  "start": 174.651162790698,
		  "velocity": 80
		},
		{
		  "duration": 0.116279069767442,
		  "pitch": 45,
		  "start": 174.767441860465,
		  "velocity": 80
		},
		{
		  "duration": 0.116279069767442,
		  "pitch": 45,
		  "start": 175.0,
		  "velocity": 80
		},
		{
		  "duration": 0.116279069767442,
		  "pitch": 45,
		  "start": 175.116279069767,
		  "velocity": 80
		},
		{
		  "duration": 0.116279069767442,
		  "pitch": 45,
		  "start": 175.348837209302,
		  "velocity": 80
		},
		{
		  "duration": 0.116279069767442,
		  "pitch": 45,
		  "start": 175.46511627907,
		  "velocity": 80
		},
		{
		  "duration": 0.116279069767442,
		  "pitch": 45,
		  "start": 175.697674418605,
		  "velocity": 80
		},
		{
		  "duration": 0.116279069767442,
		  "pitch": 45,
		  "start": 175.813953488372,
		  "velocity": 80
		},
		{
		  "duration": 0.116279069767442,
		  "pitch": 45,
		  "start": 176.046511627907,
		  "velocity": 80
		},
		{
		  "duration": 0.116279069767442,
		  "pitch": 45,
		  "start": 176.162790697674,
		  "velocity": 80
		},
		{
		  "duration": 0.116279069767442,
		  "pitch": 45,
		  "start": 176.395348837209,
		  "velocity": 80
		},
		{
		  "duration": 0.116279069767442,
		  "pitch": 45,
		  "start": 176.511627906977,
		  "velocity": 80
		},
		{
		  "duration": 0.116279069767442,
		  "pitch": 45,
		  "start": 176.744186046512,
		  "velocity": 80
		},
		{
		  "duration": 0.116279069767442,
		  "pitch": 45,
		  "start": 176.860465116279,
		  "velocity": 80
		},
		{
		  "duration": 0.116279069767442,
		  "pitch": 45,
		  "start": 177.093023255814,
		  "velocity": 80
		},
		{
		  "duration": 0.116279069767442,
		  "pitch": 45,
		  "start": 177.209302325581,
		  "velocity": 80
		},
		{
		  "duration": 0.116279069767442,
		  "pitch": 45,
		  "start": 177.441860465116,
		  "velocity": 80
		},
		{
		  "duration": 0.116279069767442,
		  "pitch": 45,
		  "start": 177.558139534884,
		  "velocity": 80
		},
		{
		  "duration": 0.116279069767442,
		  "pitch": 45,
		  "start": 177.790697674419,
		  "velocity": 80
		},
		{
		  "duration": 0.116279069767442,
		  "pitch": 45,
		  "start": 177.906976744186,
		  "velocity": 80
		},
		{
		  "duration": 0.116279069767442,
		  "pitch": 48,
		  "start": 178.023255813953,
		  "velocity": 80
		},
		{
		  "duration": 0.116279069767442,
		  "pitch": 52,
		  "start": 178.139534883721,
		  "velocity": 80
		},
		{
		  "duration": 0.116279069767442,
		  "pitch": 55,
		  "start": 178.255813953488,
		  "velocity": 80
		},
		{
		  "duration": 0.116279069767442,
		  "pitch": 52,
		  "start": 178.372093023256,
		  "velocity": 80
		},
		{
		  "duration": 0.116279069767442,
		  "pitch": 55,
		  "start": 178.488372093023,
		  "velocity": 80
		},
		{
		  "duration": 0.116279069767442,
		  "pitch": 50,
		  "start": 178.604651162791,
		  "velocity": 80
		},
		{
		  "duration": 0.116279069767442,
		  "pitch": 50,
		  "start": 178.837209302326,
		  "velocity": 80
		},
		{
		  "duration": 0.116279069767442,
		  "pitch": 50,
		  "start": 178.953488372093,
		  "velocity": 80
		},
		{
		  "duration": 0.116279069767442,
		  "pitch": 50,
		  "start": 179.186046511628,
		  "velocity": 80
		},
		{
		  "duration": 0.116279069767442,
		  "pitch": 50,
		  "start": 179.302325581395,
		  "velocity": 80
		},
		{
		  "duration": 0.116279069767442,
		  "pitch": 50,
		  "start": 179.53488372093,
		  "velocity": 80
		},
		{
		  "duration": 0.116279069767442,
		  "pitch": 48,
		  "start": 179.651162790698,
		  "velocity": 80
		},
		{
		  "duration": 0.116279069767442,
		  "pitch": 48,
		  "start": 179.883720930233,
		  "velocity": 80
		},
		{
		  "duration": 0.116279069767442,
		  "pitch": 50,
		  "start": 180.0,
		  "velocity": 80
		},
		{
		  "duration": 0.116279069767442,
		  "pitch": 50,
		  "start": 180.232558139535,
		  "velocity": 80
		},
		{
		  "duration": 0.116279069767442,
		  "pitch": 50,
		  "start": 180.348837209302,
		  "velocity": 80
		},
		{
		  "duration": 0.116279069767442,
		  "pitch": 50,
		  "start": 180.581395348837,
		  "velocity": 80
		},
		{
		  "duration": 0.116279069767442,
		  "pitch": 50,
		  "start": 180.697674418605,
		  "velocity": 80
		},
		{
		  "duration": 0.116279069767442,
		  "pitch": 50,
		  "start": 180.93023255814,
		  "velocity": 80
		},
		{
		  "duration": 0.116279069767442,
		  "pitch": 48,
		  "start": 181.046511627907,
		  "velocity": 80
		},
		{
		  "duration": 0.116279069767442,
		  "pitch": 48,
		  "start": 181.279069767442,
		  "velocity": 80
		},
		{
		  "duration": 0.116279069767442,
		  "pitch": 50,
		  "start": 181.395348837209,
		  "velocity": 80
		},
		{
		  "duration": 0.116279069767442,
		  "pitch": 50,
		  "start": 181.627906976744,
		  "velocity": 80
		},
		{
		  "duration": 0.116279069767442,
		  "pitch": 50,
		  "start": 181.744186046512,
		  "velocity": 80
		},
		{
		  "duration": 0.116279069767442,
		  "pitch": 50,
		  "start": 181.976744186047,
		  "velocity": 80
		},
		{
		  "duration": 0.116279069767442,
		  "pitch": 50,
		  "start": 182.093023255814,
		  "velocity": 80
		},
		{
		  "duration": 0.116279069767442,
		  "pitch": 50,
		  "start": 182.325581395349,
		  "velocity": 80
		},
		{
		  "duration": 0.116279069767442,
		  "pitch": 48,
		  "start": 182.441860465116,
		  "velocity": 80
		},
		{
		  "duration": 0.116279069767442,
		  "pitch": 48,
		  "start": 182.674418604651,
		  "velocity": 80
		},
		{
		  "duration": 0.348837209302326,
		  "pitch": 50,
		  "start": 182.790697674419,
		  "velocity": 80
		},
		{
		  "duration": 0.348837209302326,
		  "pitch": 45,
		  "start": 183.139534883721,
		  "velocity": 80
		},
		{
		  "duration": 0.348837209302326,
		  "pitch": 48,
		  "start": 183.488372093023,
		  "velocity": 80
		},
		{
		  "duration": 0.116279069767442,
		  "pitch": 47,
		  "start": 183.837209302326,
		  "velocity": 80
		},
		{
		  "duration": 0.116279069767442,
		  "pitch": 46,
		  "start": 183.953488372093,
		  "velocity": 80
		},
		{
		  "duration": 0.116279069767442,
		  "pitch": 43,
		  "start": 184.06976744186,
		  "velocity": 80
		},
		{
		  "duration": 0.116279069767442,
		  "pitch": 45,
		  "start": 184.186046511628,
		  "velocity": 80
		},
		{
		  "duration": 0.116279069767442,
		  "pitch": 45,
		  "start": 184.418604651163,
		  "velocity": 80
		},
		{
		  "duration": 0.116279069767442,
		  "pitch": 45,
		  "start": 184.53488372093,
		  "velocity": 80
		},
		{
		  "duration": 0.116279069767442,
		  "pitch": 45,
		  "start": 184.767441860465,
		  "velocity": 80
		},
		{
		  "duration": 0.116279069767442,
		  "pitch": 45,
		  "start": 184.883720930233,
		  "velocity": 80
		},
		{
		  "duration": 0.116279069767442,
		  "pitch": 45,
		  "start": 185.116279069767,
		  "velocity": 80
		},
		{
		  "duration": 0.116279069767442,
		  "pitch": 45,
		  "start": 185.232558139535,
		  "velocity": 80
		},
		{
		  "duration": 0.116279069767442,
		  "pitch": 45,
		  "start": 185.46511627907,
		  "velocity": 80
		},
		{
		  "duration": 0.116279069767442,
		  "pitch": 45,
		  "start": 185.581395348837,
		  "velocity": 80
		},
		{
		  "duration": 0.116279069767442,
		  "pitch": 45,
		  "start": 185.813953488372,
		  "velocity": 80
		},
		{
		  "duration": 0.116279069767442,
		  "pitch": 45,
		  "start": 185.93023255814,
		  "velocity": 80
		},
		{
		  "duration": 0.116279069767442,
		  "pitch": 45,
		  "start": 186.162790697674,
		  "velocity": 80
		},
		{
		  "duration": 0.116279069767442,
		  "pitch": 45,
		  "start": 186.279069767442,
		  "velocity": 80
		},
		{
		  "duration": 0.116279069767442,
		  "pitch": 45,
		  "start": 186.511627906977,
		  "velocity": 80
		},
		{
		  "duration": 0.116279069767442,
		  "pitch": 45,
		  "start": 186.627906976744,
		  "velocity": 80
		},
		{
		  "duration": 0.116279069767442,
		  "pitch": 45,
		  "start": 186.860465116279,
		  "velocity": 80
		},
		{
		  "duration": 0.116279069767442,
		  "pitch": 48,
		  "start": 186.976744186047,
		  "velocity": 80
		},
		{
		  "duration": 0.116279069767442,
		  "pitch": 48,
		  "start": 187.209302325581,
		  "velocity": 80
		},
		{
		  "duration": 0.116279069767442,
		  "pitch": 48,
		  "start": 187.325581395349,
		  "velocity": 80
		},
		{
		  "duration": 0.116279069767442,
		  "pitch": 48,
		  "start": 187.558139534884,
		  "velocity": 80
		},
		{
		  "duration": 0.116279069767442,
		  "pitch": 48,
		  "start": 187.674418604651,
		  "velocity": 80
		},
		{
		  "duration": 0.116279069767442,
		  "pitch": 48,
		  "start": 187.906976744186,
		  "velocity": 80
		},
		{
		  "duration": 0.116279069767442,
		  "pitch": 48,
		  "start": 188.023255813953,
		  "velocity": 80
		},
		{
		  "duration": 0.116279069767442,
		  "pitch": 48,
		  "start": 188.255813953488,
		  "velocity": 80
		},
		{
		  "duration": 0.116279069767442,
		  "pitch": 47,
		  "start": 188.372093023256,
		  "velocity": 80
		},
		{
		  "duration": 0.116279069767442,
		  "pitch": 47,
		  "start": 188.604651162791,
		  "velocity": 80
		},
		{
		  "duration": 0.116279069767442,
		  "pitch": 47,
		  "start": 188.720930232558,
		  "velocity": 80
		},
		{
		  "duration": 0.116279069767442,
		  "pitch": 47,
		  "start": 188.953488372093,
		  "velocity": 80
		},
		{
		  "duration": 0.116279069767442,
		  "pitch": 52,
		  "start": 189.06976744186,
		  "velocity": 80
		},
		{
		  "duration": 0.116279069767442,
		  "pitch": 52,
		  "start": 189.302325581395,
		  "velocity": 80
		},
		{
		  "duration": 0.116279069767442,
		  "pitch": 50,
		  "start": 189.418604651163,
		  "velocity": 80
		},
		{
		  "duration": 0.116279069767442,
		  "pitch": 48,
		  "start": 189.53488372093,
		  "velocity": 80
		},
		{
		  "duration": 0.116279069767442,
		  "pitch": 47,
		  "start": 189.651162790698,
		  "velocity": 80
		},
		{
		  "duration": 0.232558139534884,
		  "pitch": 45,
		  "start": 189.767441860465,
		  "velocity": 80
		},
		{
		  "duration": 0.348837209302326,
		  "pitch": 40,
		  "start": 191.511627906977,
		  "velocity": 80
		},
		{
		  "duration": 0.348837209302326,
		  "pitch": 43,
		  "start": 191.860465116279,
		  "velocity": 80
		},
		{
		  "duration": 0.348837209302326,
		  "pitch": 44,
		  "start": 192.209302325581,
		  "velocity": 80
		},
		{
		  "duration": 0.232558139534884,
		  "pitch": 45,
		  "start": 192.558139534884,
		  "velocity": 80
		},
		{
		  "duration": 0.116279069767442,
		  "pitch": 40,
		  "start": 194.651162790698,
		  "velocity": 80
		},
		{
		  "duration": 0.116279069767442,
		  "pitch": 43,
		  "start": 194.767441860465,
		  "velocity": 80
		},
		{
		  "duration": 0.116279069767442,
		  "pitch": 44,
		  "start": 194.883720930233,
		  "velocity": 80
		},
		{
		  "duration": 0.232558139534884,
		  "pitch": 51,
		  "start": 195.0,
		  "velocity": 80
		},
		{
		  "duration": 0.116279069767442,
		  "pitch": 50,
		  "start": 195.232558139535,
		  "velocity": 80
		},
		{
		  "duration": 0.232558139534884,
		  "pitch": 48,
		  "start": 195.348837209302,
		  "velocity": 80
		},
		{
		  "duration": 0.348837209302326,
		  "pitch": 43,
		  "start": 197.093023255814,
		  "velocity": 80
		},
		{
		  "duration": 0.348837209302326,
		  "pitch": 46,
		  "start": 197.441860465116,
		  "velocity": 80
		},
		{
		  "duration": 0.348837209302326,
		  "pitch": 47,
		  "start": 197.790697674419,
		  "velocity": 80
		},
		{
		  "duration": 0.232558139534884,
		  "pitch": 48,
		  "start": 198.139534883721,
		  "velocity": 80
		},
		{
		  "duration": 0.116279069767442,
		  "pitch": 45,
		  "start": 200.232558139535,
		  "velocity": 80
		},
		{
		  "duration": 0.116279069767442,
		  "pitch": 48,
		  "start": 200.348837209302,
		  "velocity": 80
		},
		{
		  "duration": 0.116279069767442,
		  "pitch": 48,
		  "start": 200.46511627907,
		  "velocity": 80
		},
		{
		  "duration": 0.116279069767442,
		  "pitch": 48,
		  "start": 200.581395348837,
		  "velocity": 80
		},
		{
		  "duration": 0.116279069767442,
		  "pitch": 46,
		  "start": 200.697674418605,
		  "velocity": 80
		},
		{
		  "duration": 0.116279069767442,
		  "pitch": 45,
		  "start": 200.813953488372,
		  "velocity": 80
		},
		{
		  "duration": 0.116279069767442,
		  "pitch": 43,
		  "start": 200.93023255814,
		  "velocity": 80
		},
		{
		  "duration": 0.116279069767442,
		  "pitch": 45,
		  "start": 201.046511627907,
		  "velocity": 80
		},
		{
		  "duration": 0.116279069767442,
		  "pitch": 45,
		  "start": 201.162790697674,
		  "velocity": 80
		},
		{
		  "duration": 0.116279069767442,
		  "pitch": 45,
		  "start": 201.279069767442,
		  "velocity": 80
		},
		{
		  "duration": 0.116279069767442,
		  "pitch": 45,
		  "start": 201.395348837209,
		  "velocity": 80
		},
		{
		  "duration": 0.116279069767442,
		  "pitch": 45,
		  "start": 201.511627906977,
		  "velocity": 80
		},
		{
		  "duration": 0.116279069767442,
		  "pitch": 45,
		  "start": 201.627906976744,
		  "velocity": 80
		},
		{
		  "duration": 0.116279069767442,
		  "pitch": 45,
		  "start": 201.744186046512,
		  "velocity": 80
		},
		{
		  "duration": 0.116279069767442,
		  "pitch": 45,
		  "start": 201.860465116279,
		  "velocity": 80
		},
		{
		  "duration": 0.116279069767442,
		  "pitch": 45,
		  "start": 201.976744186047,
		  "velocity": 80
		},
		{
		  "duration": 0.116279069767442,
		  "pitch": 45,
		  "start": 202.093023255814,
		  "velocity": 80
		},
		{
		  "duration": 0.116279069767442,
		  "pitch": 45,
		  "start": 202.209302325581,
		  "velocity": 80
		},
		{
		  "duration": 0.116279069767442,
		  "pitch": 43,
		  "start": 202.325581395349,
		  "velocity": 80
		},
		{
		  "duration": 0.116279069767442,
		  "pitch": 45,
		  "start": 202.441860465116,
		  "velocity": 80
		},
		{
		  "duration": 0.116279069767442,
		  "pitch": 45,
		  "start": 202.558139534884,
		  "velocity": 80
		},
		{
		  "duration": 0.116279069767442,
		  "pitch": 45,
		  "start": 202.674418604651,
		  "velocity": 80
		},
		{
		  "duration": 0.116279069767442,
		  "pitch": 45,
		  "start": 202.790697674419,
		  "velocity": 80
		},
		{
		  "duration": 0.116279069767442,
		  "pitch": 45,
		  "start": 202.906976744186,
		  "velocity": 80
		},
		{
		  "duration": 0.116279069767442,
		  "pitch": 45,
		  "start": 203.023255813953,
		  "velocity": 80
		},
		{
		  "duration": 0.116279069767442,
		  "pitch": 45,
		  "start": 203.139534883721,
		  "velocity": 80
		},
		{
		  "duration": 0.116279069767442,
		  "pitch": 45,
		  "start": 203.255813953488,
		  "velocity": 80
		},
		{
		  "duration": 0.116279069767442,
		  "pitch": 45,
		  "start": 203.372093023256,
		  "velocity": 80
		},
		{
		  "duration": 0.116279069767442,
		  "pitch": 45,
		  "start": 203.488372093023,
		  "velocity": 80
		},
		{
		  "duration": 0.116279069767442,
		  "pitch": 45,
		  "start": 203.604651162791,
		  "velocity": 80
		},
		{
		  "duration": 0.116279069767442,
		  "pitch": 43,
		  "start": 203.720930232558,
		  "velocity": 80
		},
		{
		  "duration": 0.116279069767442,
		  "pitch": 45,
		  "start": 203.837209302326,
		  "velocity": 80
		},
		{
		  "duration": 0.116279069767442,
		  "pitch": 45,
		  "start": 203.953488372093,
		  "velocity": 80
		},
		{
		  "duration": 0.116279069767442,
		  "pitch": 45,
		  "start": 204.06976744186,
		  "velocity": 80
		},
		{
		  "duration": 0.116279069767442,
		  "pitch": 45,
		  "start": 204.186046511628,
		  "velocity": 80
		},
		{
		  "duration": 0.116279069767442,
		  "pitch": 45,
		  "start": 204.302325581395,
		  "velocity": 80
		},
		{
		  "duration": 0.116279069767442,
		  "pitch": 45,
		  "start": 204.418604651163,
		  "velocity": 80
		},
		{
		  "duration": 0.116279069767442,
		  "pitch": 45,
		  "start": 204.53488372093,
		  "velocity": 80
		},
		{
		  "duration": 0.116279069767442,
		  "pitch": 45,
		  "start": 204.651162790698,
		  "velocity": 80
		},
		{
		  "duration": 0.116279069767442,
		  "pitch": 45,
		  "start": 204.767441860465,
		  "velocity": 80
		},
		{
		  "duration": 0.116279069767442,
		  "pitch": 45,
		  "start": 204.883720930233,
		  "velocity": 80
		},
		{
		  "duration": 0.116279069767442,
		  "pitch": 45,
		  "start": 205.0,
		  "velocity": 80
		},
		{
		  "duration": 0.116279069767442,
		  "pitch": 52,
		  "start": 205.116279069767,
		  "velocity": 80
		},
		{
		  "duration": 0.116279069767442,
		  "pitch": 45,
		  "start": 205.232558139535,
		  "velocity": 80
		},
		{
		  "duration": 0.116279069767442,
		  "pitch": 45,
		  "start": 205.348837209302,
		  "velocity": 80
		},
		{
		  "duration": 0.116279069767442,
		  "pitch": 50,
		  "start": 205.46511627907,
		  "velocity": 80
		},
		{
		  "duration": 0.116279069767442,
		  "pitch": 45,
		  "start": 205.581395348837,
		  "velocity": 80
		},
		{
		  "duration": 0.116279069767442,
		  "pitch": 45,
		  "start": 205.697674418605,
		  "velocity": 80
		},
		{
		  "duration": 0.232558139534884,
		  "pitch": 48,
		  "start": 205.813953488372,
		  "velocity": 80
		},
		{
		  "duration": 0.116279069767442,
		  "pitch": 45,
		  "start": 206.046511627907,
		  "velocity": 80
		},
		{
		  "duration": 0.116279069767442,
		  "pitch": 43,
		  "start": 206.162790697674,
		  "velocity": 80
		},
		{
		  "duration": 0.116279069767442,
		  "pitch": 45,
		  "start": 206.279069767442,
		  "velocity": 80
		},
		{
		  "duration": 0.116279069767442,
		  "pitch": 45,
		  "start": 206.395348837209,
		  "velocity": 80
		},
		{
		  "duration": 0.116279069767442,
		  "pitch": 46,
		  "start": 206.511627906977,
		  "velocity": 80
		},
		{
		  "duration": 0.116279069767442,
		  "pitch": 48,
		  "start": 206.627906976744,
		  "velocity": 80
		},
		{
		  "duration": 0.116279069767442,
		  "pitch": 48,
		  "start": 206.744186046512,
		  "velocity": 80
		},
		{
		  "duration": 0.116279069767442,
		  "pitch": 48,
		  "start": 206.860465116279,
		  "velocity": 80
		},
		{
		  "duration": 0.116279069767442,
		  "pitch": 48,
		  "start": 206.976744186047,
		  "velocity": 80
		},
		{
		  "duration": 0.116279069767442,
		  "pitch": 48,
		  "start": 207.093023255814,
		  "velocity": 80
		},
		{
		  "duration": 0.116279069767442,
		  "pitch": 48,
		  "start": 207.209302325581,
		  "velocity": 80
		},
		{
		  "duration": 0.116279069767442,
		  "pitch": 48,
		  "start": 207.325581395349,
		  "velocity": 80
		},
		{
		  "duration": 0.116279069767442,
		  "pitch": 48,
		  "start": 207.441860465116,
		  "velocity": 80
		},
		{
		  "duration": 0.116279069767442,
		  "pitch": 48,
		  "start": 207.558139534884,
		  "velocity": 80
		},
		{
		  "duration": 0.116279069767442,
		  "pitch": 48,
		  "start": 207.674418604651,
		  "velocity": 80
		},
		{
		  "duration": 0.116279069767442,
		  "pitch": 48,
		  "start": 207.790697674419,
		  "velocity": 80
		},
		{
		  "duration": 0.116279069767442,
		  "pitch": 46,
		  "start": 207.906976744186,
		  "velocity": 80
		},
		{
		  "duration": 0.116279069767442,
		  "pitch": 48,
		  "start": 208.023255813953,
		  "velocity": 80
		},
		{
		  "duration": 0.116279069767442,
		  "pitch": 48,
		  "start": 208.139534883721,
		  "velocity": 80
		},
		{
		  "duration": 0.116279069767442,
		  "pitch": 48,
		  "start": 208.255813953488,
		  "velocity": 80
		},
		{
		  "duration": 0.116279069767442,
		  "pitch": 48,
		  "start": 208.372093023256,
		  "velocity": 80
		},
		{
		  "duration": 0.116279069767442,
		  "pitch": 48,
		  "start": 208.488372093023,
		  "velocity": 80
		},
		{
		  "duration": 0.116279069767442,
		  "pitch": 48,
		  "start": 208.604651162791,
		  "velocity": 80
		},
		{
		  "duration": 0.116279069767442,
		  "pitch": 48,
		  "start": 208.720930232558,
		  "velocity": 80
		},
		{
		  "duration": 0.116279069767442,
		  "pitch": 48,
		  "start": 208.837209302326,
		  "velocity": 80
		},
		{
		  "duration": 0.116279069767442,
		  "pitch": 48,
		  "start": 208.953488372093,
		  "velocity": 80
		},
		{
		  "duration": 0.116279069767442,
		  "pitch": 48,
		  "start": 209.06976744186,
		  "velocity": 80
		},
		{
		  "duration": 0.116279069767442,
		  "pitch": 48,
		  "start": 209.186046511628,
		  "velocity": 80
		},
		{
		  "duration": 0.116279069767442,
		  "pitch": 46,
		  "start": 209.302325581395,
		  "velocity": 80
		},
		{
		  "duration": 0.116279069767442,
		  "pitch": 48,
		  "start": 209.418604651163,
		  "velocity": 80
		},
		{
		  "duration": 0.116279069767442,
		  "pitch": 48,
		  "start": 209.53488372093,
		  "velocity": 80
		},
		{
		  "duration": 0.116279069767442,
		  "pitch": 48,
		  "start": 209.651162790698,
		  "velocity": 80
		},
		{
		  "duration": 0.116279069767442,
		  "pitch": 48,
		  "start": 209.767441860465,
		  "velocity": 80
		},
		{
		  "duration": 0.116279069767442,
		  "pitch": 48,
		  "start": 209.883720930233,
		  "velocity": 80
		},
		{
		  "duration": 0.116279069767442,
		  "pitch": 48,
		  "start": 210.0,
		  "velocity": 80
		},
		{
		  "duration": 0.116279069767442,
		  "pitch": 48,
		  "start": 210.116279069767,
		  "velocity": 80
		},
		{
		  "duration": 0.116279069767442,
		  "pitch": 48,
		  "start": 210.232558139535,
		  "velocity": 80
		},
		{
		  "duration": 0.116279069767442,
		  "pitch": 48,
		  "start": 210.348837209302,
		  "velocity": 80
		},
		{
		  "duration": 0.116279069767442,
		  "pitch": 48,
		  "start": 210.46511627907,
		  "velocity": 80
		},
		{
		  "duration": 0.116279069767442,
		  "pitch": 48,
		  "start": 210.581395348837,
		  "velocity": 80
		},
		{
		  "duration": 0.116279069767442,
		  "pitch": 55,
		  "start": 210.697674418605,
		  "velocity": 80
		},
		{
		  "duration": 0.116279069767442,
		  "pitch": 48,
		  "start": 210.813953488372,
		  "velocity": 80
		},
		{
		  "duration": 0.116279069767442,
		  "pitch": 48,
		  "start": 210.93023255814,
		  "velocity": 80
		},
		{
		  "duration": 0.116279069767442,
		  "pitch": 53,
		  "start": 211.046511627907,
		  "velocity": 80
		},
		{
		  "duration": 0.116279069767442,
		  "pitch": 48,
		  "start": 211.162790697674,
		  "velocity": 80
		},
		{
		  "duration": 0.116279069767442,
		  "pitch": 48,
		  "start": 211.279069767442,
		  "velocity": 80
		},
		{
		  "duration": 0.232558139534884,
		  "pitch": 52,
		  "start": 211.395348837209,
		  "velocity": 80
		},
		{
		  "duration": 0.116279069767442,
		  "pitch": 50,
		  "start": 211.627906976744,
		  "velocity": 80
		},
		{
		  "duration": 0.116279069767442,
		  "pitch": 49,
		  "start": 211.744186046512,
		  "velocity": 80
		},
		{
		  "duration": 0.116279069767442,
		  "pitch": 48,
		  "start": 211.860465116279,
		  "velocity": 80
		},
		{
		  "duration": 0.116279069767442,
		  "pitch": 47,
		  "start": 211.976744186047,
		  "velocity": 80
		},
		{
		  "duration": 0.116279069767442,
		  "pitch": 45,
		  "start": 212.093023255814,
		  "velocity": 80
		},
		{
		  "duration": 0.116279069767442,
		  "pitch": 45,
		  "start": 212.325581395349,
		  "velocity": 80
		},
		{
		  "duration": 0.116279069767442,
		  "pitch": 45,
		  "start": 212.441860465116,
		  "velocity": 80
		},
		{
		  "duration": 0.116279069767442,
		  "pitch": 47,
		  "start": 212.558139534884,
		  "velocity": 80
		},
		{
		  "duration": 0.116279069767442,
		  "pitch": 48,
		  "start": 212.674418604651,
		  "velocity": 80
		},
		{
		  "duration": 0.348837209302326,
		  "pitch": 52,
		  "start": 212.790697674419,
		  "velocity": 80
		},
		{
		  "duration": 0.348837209302326,
		  "pitch": 47,
		  "start": 213.139534883721,
		  "velocity": 80
		},
		{
		  "duration": 0.116279069767442,
		  "pitch": 48,
		  "start": 213.488372093023,
		  "velocity": 80
		},
		{
		  "duration": 0.116279069767442,
		  "pitch": 48,
		  "start": 213.720930232558,
		  "velocity": 80
		},
		{
		  "duration": 0.116279069767442,
		  "pitch": 48,
		  "start": 213.837209302326,
		  "velocity": 80
		},
		{
		  "duration": 0.116279069767442,
		  "pitch": 47,
		  "start": 213.953488372093,
		  "velocity": 80
		},
		{
		  "duration": 0.116279069767442,
		  "pitch": 45,
		  "start": 214.06976744186,
		  "velocity": 80
		},
		{
		  "duration": 0.348837209302326,
		  "pitch": 43,
		  "start": 214.186046511628,
		  "velocity": 80
		},
		{
		  "duration": 0.116279069767442,
		  "pitch": 43,
		  "start": 214.767441860465,
		  "velocity": 80
		},
		{
		  "duration": 0.116279069767442,
		  "pitch": 41,
		  "start": 214.883720930233,
		  "velocity": 80
		},
		{
		  "duration": 0.116279069767442,
		  "pitch": 41,
		  "start": 215.116279069767,
		  "velocity": 80
		},
		{
		  "duration": 0.116279069767442,
		  "pitch": 41,
		  "start": 215.232558139535,
		  "velocity": 80
		},
		{
		  "duration": 0.116279069767442,
		  "pitch": 41,
		  "start": 215.46511627907,
		  "velocity": 80
		},
		{
		  "duration": 0.116279069767442,
		  "pitch": 41,
		  "start": 215.581395348837,
		  "velocity": 80
		},
		{
		  "duration": 0.116279069767442,
		  "pitch": 41,
		  "start": 215.813953488372,
		  "velocity": 80
		},
		{
		  "duration": 0.116279069767442,
		  "pitch": 43,
		  "start": 215.93023255814,
		  "velocity": 80
		},
		{
		  "duration": 0.116279069767442,
		  "pitch": 43,
		  "start": 216.162790697674,
		  "velocity": 80
		},
		{
		  "duration": 0.116279069767442,
		  "pitch": 45,
		  "start": 216.279069767442,
		  "velocity": 80
		},
		{
		  "duration": 0.116279069767442,
		  "pitch": 45,
		  "start": 216.511627906977,
		  "velocity": 80
		},
		{
		  "duration": 0.116279069767442,
		  "pitch": 45,
		  "start": 216.627906976744,
		  "velocity": 80
		},
		{
		  "duration": 0.116279069767442,
		  "pitch": 45,
		  "start": 216.860465116279,
		  "velocity": 80
		},
		{
		  "duration": 0.116279069767442,
		  "pitch": 44,
		  "start": 216.976744186047,
		  "velocity": 80
		},
		{
		  "duration": 0.116279069767442,
		  "pitch": 44,
		  "start": 217.209302325581,
		  "velocity": 80
		},
		{
		  "duration": 0.116279069767442,
		  "pitch": 44,
		  "start": 217.325581395349,
		  "velocity": 80
		},
		{
		  "duration": 0.116279069767442,
		  "pitch": 44,
		  "start": 217.558139534884,
		  "velocity": 80
		},
		{
		  "duration": 0.116279069767442,
		  "pitch": 45,
		  "start": 217.674418604651,
		  "velocity": 80
		},
		{
		  "duration": 0.116279069767442,
		  "pitch": 45,
		  "start": 217.906976744186,
		  "velocity": 80
		},
		{
		  "duration": 0.116279069767442,
		  "pitch": 45,
		  "start": 218.023255813953,
		  "velocity": 80
		},
		{
		  "duration": 0.116279069767442,
		  "pitch": 45,
		  "start": 218.255813953488,
		  "velocity": 80
		},
		{
		  "duration": 0.116279069767442,
		  "pitch": 45,
		  "start": 218.372093023256,
		  "velocity": 80
		},
		{
		  "duration": 0.116279069767442,
		  "pitch": 45,
		  "start": 218.604651162791,
		  "velocity": 80
		},
		{
		  "duration": 0.116279069767442,
		  "pitch": 45,
		  "start": 218.720930232558,
		  "velocity": 80
		},
		{
		  "duration": 0.116279069767442,
		  "pitch": 45,
		  "start": 218.953488372093,
		  "velocity": 80
		},
		{
		  "duration": 0.116279069767442,
		  "pitch": 45,
		  "start": 219.06976744186,
		  "velocity": 80
		},
		{
		  "duration": 0.116279069767442,
		  "pitch": 45,
		  "start": 219.302325581395,
		  "velocity": 80
		},
		{
		  "duration": 0.116279069767442,
		  "pitch": 45,
		  "start": 219.418604651163,
		  "velocity": 80
		},
		{
		  "duration": 0.116279069767442,
		  "pitch": 45,
		  "start": 219.651162790698,
		  "velocity": 80
		},
		{
		  "duration": 0.116279069767442,
		  "pitch": 45,
		  "start": 219.767441860465,
		  "velocity": 80
		},
		{
		  "duration": 0.116279069767442,
		  "pitch": 45,
		  "start": 220.0,
		  "velocity": 80
		},
		{
		  "duration": 0.116279069767442,
		  "pitch": 45,
		  "start": 220.116279069767,
		  "velocity": 80
		},
		{
		  "duration": 0.116279069767442,
		  "pitch": 45,
		  "start": 220.348837209302,
		  "velocity": 80
		},
		{
		  "duration": 0.116279069767442,
		  "pitch": 45,
		  "start": 220.46511627907,
		  "velocity": 80
		},
		{
		  "duration": 0.116279069767442,
		  "pitch": 45,
		  "start": 220.697674418605,
		  "velocity": 80
		},
		{
		  "duration": 0.116279069767442,
		  "pitch": 45,
		  "start": 220.813953488372,
		  "velocity": 80
		},
		{
		  "duration": 0.116279069767442,
		  "pitch": 47,
		  "start": 220.93023255814,
		  "velocity": 80
		},
		{
		  "duration": 0.116279069767442,
		  "pitch": 48,
		  "start": 221.046511627907,
		  "velocity": 80
		},
		{
		  "duration": 0.348837209302326,
		  "pitch": 52,
		  "start": 221.162790697674,
		  "velocity": 80
		},
		{
		  "duration": 0.348837209302326,
		  "pitch": 47,
		  "start": 221.511627906977,
		  "velocity": 80
		},
		{
		  "duration": 0.116279069767442,
		  "pitch": 48,
		  "start": 221.860465116279,
		  "velocity": 80
		},
		{
		  "duration": 0.116279069767442,
		  "pitch": 48,
		  "start": 222.093023255814,
		  "velocity": 80
		},
		{
		  "duration": 0.116279069767442,
		  "pitch": 48,
		  "start": 222.209302325581,
		  "velocity": 80
		},
		{
		  "duration": 0.116279069767442,
		  "pitch": 47,
		  "start": 222.325581395349,
		  "velocity": 80
		},
		{
		  "duration": 0.116279069767442,
		  "pitch": 45,
		  "start": 222.441860465116,
		  "velocity": 80
		},
		{
		  "duration": 0.348837209302326,
		  "pitch": 43,
		  "start": 222.558139534884,
		  "velocity": 80
		},
		{
		  "duration": 0.116279069767442,
		  "pitch": 43,
		  "start": 223.139534883721,
		  "velocity": 80
		},
		{
		  "duration": 0.116279069767442,
		  "pitch": 41,
		  "start": 223.255813953488,
		  "velocity": 80
		},
		{
		  "duration": 0.116279069767442,
		  "pitch": 41,
		  "start": 223.488372093023,
		  "velocity": 80
		},
		{
		  "duration": 0.116279069767442,
		  "pitch": 41,
		  "start": 223.604651162791,
		  "velocity": 80
		},
		{
		  "duration": 0.116279069767442,
		  "pitch": 41,
		  "start": 223.837209302326,
		  "velocity": 80
		},
		{
		  "duration": 0.116279069767442,
		  "pitch": 41,
		  "start": 223.953488372093,
		  "velocity": 80
		},
		{
		  "duration": 0.116279069767442,
		  "pitch": 41,
		  "start": 224.186046511628,
		  "velocity": 80
		},
		{
		  "duration": 0.116279069767442,
		  "pitch": 43,
		  "start": 224.302325581395,
		  "velocity": 80
		},
		{
		  "duration": 0.116279069767442,
		  "pitch": 43,
		  "start": 224.53488372093,
		  "velocity": 80
		},
		{
		  "duration": 0.116279069767442,
		  "pitch": 45,
		  "start": 224.651162790698,
		  "velocity": 80
		},
		{
		  "duration": 0.116279069767442,
		  "pitch": 45,
		  "start": 224.883720930233,
		  "velocity": 80
		},
		{
		  "duration": 0.116279069767442,
		  "pitch": 45,
		  "start": 225.0,
		  "velocity": 80
		},
		{
		  "duration": 0.116279069767442,
		  "pitch": 45,
		  "start": 225.232558139535,
		  "velocity": 80
		},
		{
		  "duration": 0.116279069767442,
		  "pitch": 44,
		  "start": 225.348837209302,
		  "velocity": 80
		},
		{
		  "duration": 0.116279069767442,
		  "pitch": 44,
		  "start": 225.581395348837,
		  "velocity": 80
		},
		{
		  "duration": 0.116279069767442,
		  "pitch": 44,
		  "start": 225.697674418605,
		  "velocity": 80
		},
		{
		  "duration": 0.116279069767442,
		  "pitch": 44,
		  "start": 225.93023255814,
		  "velocity": 80
		},
		{
		  "duration": 0.116279069767442,
		  "pitch": 45,
		  "start": 226.046511627907,
		  "velocity": 80
		},
		{
		  "duration": 0.116279069767442,
		  "pitch": 45,
		  "start": 226.279069767442,
		  "velocity": 80
		},
		{
		  "duration": 0.116279069767442,
		  "pitch": 45,
		  "start": 226.395348837209,
		  "velocity": 80
		},
		{
		  "duration": 0.116279069767442,
		  "pitch": 45,
		  "start": 226.627906976744,
		  "velocity": 80
		},
		{
		  "duration": 0.116279069767442,
		  "pitch": 45,
		  "start": 226.744186046512,
		  "velocity": 80
		},
		{
		  "duration": 0.116279069767442,
		  "pitch": 45,
		  "start": 226.976744186047,
		  "velocity": 80
		},
		{
		  "duration": 0.116279069767442,
		  "pitch": 45,
		  "start": 227.093023255814,
		  "velocity": 80
		},
		{
		  "duration": 0.116279069767442,
		  "pitch": 45,
		  "start": 227.325581395349,
		  "velocity": 80
		},
		{
		  "duration": 0.116279069767442,
		  "pitch": 45,
		  "start": 227.441860465116,
		  "velocity": 80
		},
		{
		  "duration": 0.116279069767442,
		  "pitch": 45,
		  "start": 227.674418604651,
		  "velocity": 80
		},
		{
		  "duration": 0.116279069767442,
		  "pitch": 45,
		  "start": 227.790697674419,
		  "velocity": 80
		},
		{
		  "duration": 0.116279069767442,
		  "pitch": 45,
		  "start": 228.023255813953,
		  "velocity": 80
		},
		{
		  "duration": 0.116279069767442,
		  "pitch": 45,
		  "start": 228.139534883721,
		  "velocity": 80
		},
		{
		  "duration": 0.116279069767442,
		  "pitch": 45,
		  "start": 228.372093023256,
		  "velocity": 80
		},
		{
		  "duration": 0.116279069767442,
		  "pitch": 45,
		  "start": 228.488372093023,
		  "velocity": 80
		},
		{
		  "duration": 0.116279069767442,
		  "pitch": 45,
		  "start": 228.720930232558,
		  "velocity": 80
		},
		{
		  "duration": 0.232558139534884,
		  "pitch": 45,
		  "start": 228.837209302326,
		  "velocity": 80
		},
		{
		  "duration": 0.116279069767442,
		  "pitch": 45,
		  "start": 229.06976744186,
		  "velocity": 80
		},
		{
		  "duration": 0.116279069767442,
		  "pitch": 38,
		  "start": 229.186046511628,
		  "velocity": 80
		},
		{
		  "duration": 0.116279069767442,
		  "pitch": 40,
		  "start": 229.302325581395,
		  "velocity": 80
		},
		{
		  "duration": 0.116279069767442,
		  "pitch": 43,
		  "start": 229.418604651163,
		  "velocity": 80
		},
		{
		  "duration": 0.232558139534884,
		  "pitch": 45,
		  "start": 229.53488372093,
		  "velocity": 80
		},
		{
		  "duration": 0.116279069767442,
		  "pitch": 45,
		  "start": 229.767441860465,
		  "velocity": 80
		},
		{
		  "duration": 0.232558139534884,
		  "pitch": 45,
		  "start": 230.232558139535,
		  "velocity": 80
		},
		{
		  "duration": 0.116279069767442,
		  "pitch": 45,
		  "start": 230.46511627907,
		  "velocity": 80
		},
		{
		  "duration": 0.116279069767442,
		  "pitch": 38,
		  "start": 230.581395348837,
		  "velocity": 80
		},
		{
		  "duration": 0.116279069767442,
		  "pitch": 40,
		  "start": 230.697674418605,
		  "velocity": 80
		},
		{
		  "duration": 0.116279069767442,
		  "pitch": 43,
		  "start": 230.813953488372,
		  "velocity": 80
		},
		{
		  "duration": 0.232558139534884,
		  "pitch": 45,
		  "start": 230.93023255814,
		  "velocity": 80
		},
		{
		  "duration": 0.116279069767442,
		  "pitch": 45,
		  "start": 231.162790697674,
		  "velocity": 80
		},
		{
		  "duration": 0.116279069767442,
		  "pitch": 47,
		  "start": 231.279069767442,
		  "velocity": 80
		},
		{
		  "duration": 0.116279069767442,
		  "pitch": 50,
		  "start": 231.395348837209,
		  "velocity": 80
		},
		{
		  "duration": 0.116279069767442,
		  "pitch": 52,
		  "start": 231.511627906977,
		  "velocity": 80
		},
		{
		  "duration": 0.232558139534884,
		  "pitch": 45,
		  "start": 231.627906976744,
		  "velocity": 80
		},
		{
		  "duration": 0.116279069767442,
		  "pitch": 45,
		  "start": 231.860465116279,
		  "velocity": 80
		},
		{
		  "duration": 0.116279069767442,
		  "pitch": 38,
		  "start": 231.976744186047,
		  "velocity": 80
		},
		{
		  "duration": 0.116279069767442,
		  "pitch": 40,
		  "start": 232.093023255814,
		  "velocity": 80
		},
		{
		  "duration": 0.116279069767442,
		  "pitch": 43,
		  "start": 232.209302325581,
		  "velocity": 80
		},
		{
		  "duration": 0.232558139534884,
		  "pitch": 45,
		  "start": 232.325581395349,
		  "velocity": 80
		},
		{
		  "duration": 0.116279069767442,
		  "pitch": 45,
		  "start": 232.558139534884,
		  "velocity": 80
		},
		{
		  "duration": 0.232558139534884,
		  "pitch": 45,
		  "start": 233.023255813953,
		  "velocity": 80
		},
		{
		  "duration": 0.116279069767442,
		  "pitch": 45,
		  "start": 233.255813953488,
		  "velocity": 80
		},
		{
		  "duration": 0.116279069767442,
		  "pitch": 38,
		  "start": 233.372093023256,
		  "velocity": 80
		},
		{
		  "duration": 0.116279069767442,
		  "pitch": 40,
		  "start": 233.488372093023,
		  "velocity": 80
		},
		{
		  "duration": 0.116279069767442,
		  "pitch": 43,
		  "start": 233.604651162791,
		  "velocity": 80
		},
		{
		  "duration": 0.232558139534884,
		  "pitch": 45,
		  "start": 233.720930232558,
		  "velocity": 80
		},
		{
		  "duration": 0.116279069767442,
		  "pitch": 45,
		  "start": 233.953488372093,
		  "velocity": 80
		},
		{
		  "duration": 0.232558139534884,
		  "pitch": 45,
		  "start": 234.06976744186,
		  "velocity": 80
		},
		{
		  "duration": 0.232558139534884,
		  "pitch": 45,
		  "start": 234.418604651163,
		  "velocity": 80
		},
		{
		  "duration": 0.116279069767442,
		  "pitch": 45,
		  "start": 234.651162790698,
		  "velocity": 80
		},
		{
		  "duration": 0.116279069767442,
		  "pitch": 38,
		  "start": 234.767441860465,
		  "velocity": 80
		},
		{
		  "duration": 0.116279069767442,
		  "pitch": 40,
		  "start": 234.883720930233,
		  "velocity": 80
		},
		{
		  "duration": 0.116279069767442,
		  "pitch": 43,
		  "start": 235.0,
		  "velocity": 80
		},
		{
		  "duration": 0.232558139534884,
		  "pitch": 45,
		  "start": 235.116279069767,
		  "velocity": 80
		},
		{
		  "duration": 0.116279069767442,
		  "pitch": 45,
		  "start": 235.348837209302,
		  "velocity": 80
		},
		{
		  "duration": 0.232558139534884,
		  "pitch": 45,
		  "start": 235.813953488372,
		  "velocity": 80
		},
		{
		  "duration": 0.116279069767442,
		  "pitch": 45,
		  "start": 236.046511627907,
		  "velocity": 80
		},
		{
		  "duration": 0.116279069767442,
		  "pitch": 38,
		  "start": 236.162790697674,
		  "velocity": 80
		},
		{
		  "duration": 0.116279069767442,
		  "pitch": 40,
		  "start": 236.279069767442,
		  "velocity": 80
		},
		{
		  "duration": 0.116279069767442,
		  "pitch": 43,
		  "start": 236.395348837209,
		  "velocity": 80
		},
		{
		  "duration": 0.232558139534884,
		  "pitch": 45,
		  "start": 236.511627906977,
		  "velocity": 80
		},
		{
		  "duration": 0.116279069767442,
		  "pitch": 45,
		  "start": 236.744186046512,
		  "velocity": 80
		},
		{
		  "duration": 0.116279069767442,
		  "pitch": 47,
		  "start": 236.860465116279,
		  "velocity": 80
		},
		{
		  "duration": 0.116279069767442,
		  "pitch": 50,
		  "start": 236.976744186047,
		  "velocity": 80
		},
		{
		  "duration": 0.116279069767442,
		  "pitch": 52,
		  "start": 237.093023255814,
		  "velocity": 80
		},
		{
		  "duration": 0.232558139534884,
		  "pitch": 45,
		  "start": 237.209302325581,
		  "velocity": 80
		},
		{
		  "duration": 0.116279069767442,
		  "pitch": 45,
		  "start": 237.441860465116,
		  "velocity": 80
		},
		{
		  "duration": 0.116279069767442,
		  "pitch": 38,
		  "start": 237.558139534884,
		  "velocity": 80
		},
		{
		  "duration": 0.116279069767442,
		  "pitch": 40,
		  "start": 237.674418604651,
		  "velocity": 80
		},
		{
		  "duration": 0.116279069767442,
		  "pitch": 43,
		  "start": 237.790697674419,
		  "velocity": 80
		},
		{
		  "duration": 0.232558139534884,
		  "pitch": 45,
		  "start": 237.906976744186,
		  "velocity": 80
		},
		{
		  "duration": 0.116279069767442,
		  "pitch": 45,
		  "start": 238.139534883721,
		  "velocity": 80
		},
		{
		  "duration": 0.232558139534884,
		  "pitch": 45,
		  "start": 238.604651162791,
		  "velocity": 80
		},
		{
		  "duration": 0.116279069767442,
		  "pitch": 45,
		  "start": 238.837209302326,
		  "velocity": 80
		},
		{
		  "duration": 0.116279069767442,
		  "pitch": 38,
		  "start": 238.953488372093,
		  "velocity": 80
		},
		{
		  "duration": 0.116279069767442,
		  "pitch": 40,
		  "start": 239.06976744186,
		  "velocity": 80
		},
		{
		  "duration": 0.116279069767442,
		  "pitch": 43,
		  "start": 239.186046511628,
		  "velocity": 80
		},
		{
		  "duration": 0.232558139534884,
		  "pitch": 45,
		  "start": 239.302325581395,
		  "velocity": 80
		},
		{
		  "duration": 0.116279069767442,
		  "pitch": 45,
		  "start": 239.53488372093,
		  "velocity": 80
		},
		{
		  "duration": 0.232558139534884,
		  "pitch": 45,
		  "start": 239.651162790698,
		  "velocity": 80
		},
		{
		  "duration": 0.116279069767442,
		  "pitch": 43,
		  "start": 240.0,
		  "velocity": 80
		},
		{
		  "duration": 0.116279069767442,
		  "pitch": 43,
		  "start": 240.232558139535,
		  "velocity": 80
		},
		{
		  "duration": 0.116279069767442,
		  "pitch": 43,
		  "start": 240.348837209302,
		  "velocity": 80
		},
		{
		  "duration": 0.116279069767442,
		  "pitch": 43,
		  "start": 240.581395348837,
		  "velocity": 80
		},
		{
		  "duration": 0.116279069767442,
		  "pitch": 43,
		  "start": 240.697674418605,
		  "velocity": 80
		},
		{
		  "duration": 0.116279069767442,
		  "pitch": 43,
		  "start": 240.93023255814,
		  "velocity": 80
		},
		{
		  "duration": 0.116279069767442,
		  "pitch": 43,
		  "start": 241.046511627907,
		  "velocity": 80
		},
		{
		  "duration": 0.116279069767442,
		  "pitch": 45,
		  "start": 241.162790697674,
		  "velocity": 80
		},
		{
		  "duration": 0.116279069767442,
		  "pitch": 47,
		  "start": 241.279069767442,
		  "velocity": 80
		},
		{
		  "duration": 0.116279069767442,
		  "pitch": 48,
		  "start": 241.395348837209,
		  "velocity": 80
		},
		{
		  "duration": 0.116279069767442,
		  "pitch": 48,
		  "start": 241.627906976744,
		  "velocity": 80
		},
		{
		  "duration": 0.116279069767442,
		  "pitch": 48,
		  "start": 241.744186046512,
		  "velocity": 80
		},
		{
		  "duration": 0.116279069767442,
		  "pitch": 48,
		  "start": 241.976744186047,
		  "velocity": 80
		},
		{
		  "duration": 0.116279069767442,
		  "pitch": 48,
		  "start": 242.093023255814,
		  "velocity": 80
		},
		{
		  "duration": 0.116279069767442,
		  "pitch": 48,
		  "start": 242.325581395349,
		  "velocity": 80
		},
		{
		  "duration": 0.116279069767442,
		  "pitch": 48,
		  "start": 242.441860465116,
		  "velocity": 80
		},
		{
		  "duration": 0.116279069767442,
		  "pitch": 48,
		  "start": 242.674418604651,
		  "velocity": 80
		},
		{
		  "duration": 0.116279069767442,
		  "pitch": 43,
		  "start": 242.790697674419,
		  "velocity": 80
		},
		{
		  "duration": 0.116279069767442,
		  "pitch": 43,
		  "start": 243.023255813953,
		  "velocity": 80
		},
		{
		  "duration": 0.116279069767442,
		  "pitch": 43,
		  "start": 243.139534883721,
		  "velocity": 80
		},
		{
		  "duration": 0.116279069767442,
		  "pitch": 43,
		  "start": 243.372093023256,
		  "velocity": 80
		},
		{
		  "duration": 0.116279069767442,
		  "pitch": 43,
		  "start": 243.488372093023,
		  "velocity": 80
		},
		{
		  "duration": 0.116279069767442,
		  "pitch": 43,
		  "start": 243.720930232558,
		  "velocity": 80
		},
		{
		  "duration": 0.116279069767442,
		  "pitch": 43,
		  "start": 243.837209302326,
		  "velocity": 80
		},
		{
		  "duration": 0.116279069767442,
		  "pitch": 45,
		  "start": 243.953488372093,
		  "velocity": 80
		},
		{
		  "duration": 0.116279069767442,
		  "pitch": 47,
		  "start": 244.06976744186,
		  "velocity": 80
		},
		{
		  "duration": 0.116279069767442,
		  "pitch": 48,
		  "start": 244.186046511628,
		  "velocity": 80
		},
		{
		  "duration": 0.116279069767442,
		  "pitch": 48,
		  "start": 244.418604651163,
		  "velocity": 80
		},
		{
		  "duration": 0.116279069767442,
		  "pitch": 48,
		  "start": 244.53488372093,
		  "velocity": 80
		},
		{
		  "duration": 0.116279069767442,
		  "pitch": 48,
		  "start": 244.767441860465,
		  "velocity": 80
		},
		{
		  "duration": 0.116279069767442,
		  "pitch": 48,
		  "start": 244.883720930233,
		  "velocity": 80
		},
		{
		  "duration": 0.116279069767442,
		  "pitch": 48,
		  "start": 245.116279069767,
		  "velocity": 80
		},
		{
		  "duration": 0.116279069767442,
		  "pitch": 48,
		  "start": 245.232558139535,
		  "velocity": 80
		},
		{
		  "duration": 0.116279069767442,
		  "pitch": 48,
		  "start": 245.46511627907,
		  "velocity": 80
		},
		{
		  "duration": 0.116279069767442,
		  "pitch": 45,
		  "start": 245.581395348837,
		  "velocity": 80
		},
		{
		  "duration": 0.116279069767442,
		  "pitch": 45,
		  "start": 245.813953488372,
		  "velocity": 80
		},
		{
		  "duration": 0.116279069767442,
		  "pitch": 45,
		  "start": 245.93023255814,
		  "velocity": 80
		},
		{
		  "duration": 0.116279069767442,
		  "pitch": 45,
		  "start": 246.162790697674,
		  "velocity": 80
		},
		{
		  "duration": 0.116279069767442,
		  "pitch": 45,
		  "start": 246.279069767442,
		  "velocity": 80
		},
		{
		  "duration": 0.116279069767442,
		  "pitch": 45,
		  "start": 246.511627906977,
		  "velocity": 80
		},
		{
		  "duration": 0.116279069767442,
		  "pitch": 45,
		  "start": 246.627906976744,
		  "velocity": 80
		},
		{
		  "duration": 0.116279069767442,
		  "pitch": 47,
		  "start": 246.744186046512,
		  "velocity": 80
		},
		{
		  "duration": 0.116279069767442,
		  "pitch": 48,
		  "start": 246.860465116279,
		  "velocity": 80
		},
		{
		  "duration": 0.116279069767442,
		  "pitch": 50,
		  "start": 246.976744186047,
		  "velocity": 80
		},
		{
		  "duration": 0.116279069767442,
		  "pitch": 50,
		  "start": 247.209302325581,
		  "velocity": 80
		},
		{
		  "duration": 0.116279069767442,
		  "pitch": 50,
		  "start": 247.325581395349,
		  "velocity": 80
		},
		{
		  "duration": 0.116279069767442,
		  "pitch": 50,
		  "start": 247.558139534884,
		  "velocity": 80
		},
		{
		  "duration": 0.116279069767442,
		  "pitch": 50,
		  "start": 247.674418604651,
		  "velocity": 80
		},
		{
		  "duration": 0.116279069767442,
		  "pitch": 50,
		  "start": 247.906976744186,
		  "velocity": 80
		},
		{
		  "duration": 0.116279069767442,
		  "pitch": 50,
		  "start": 248.023255813953,
		  "velocity": 80
		},
		{
		  "duration": 0.116279069767442,
		  "pitch": 50,
		  "start": 248.255813953488,
		  "velocity": 80
		},
		{
		  "duration": 0.116279069767442,
		  "pitch": 45,
		  "start": 248.372093023256,
		  "velocity": 80
		},
		{
		  "duration": 0.116279069767442,
		  "pitch": 45,
		  "start": 248.604651162791,
		  "velocity": 80
		},
		{
		  "duration": 0.116279069767442,
		  "pitch": 45,
		  "start": 248.720930232558,
		  "velocity": 80
		},
		{
		  "duration": 0.116279069767442,
		  "pitch": 45,
		  "start": 248.953488372093,
		  "velocity": 80
		},
		{
		  "duration": 0.116279069767442,
		  "pitch": 45,
		  "start": 249.06976744186,
		  "velocity": 80
		},
		{
		  "duration": 0.116279069767442,
		  "pitch": 45,
		  "start": 249.302325581395,
		  "velocity": 80
		},
		{
		  "duration": 0.116279069767442,
		  "pitch": 45,
		  "start": 249.418604651163,
		  "velocity": 80
		},
		{
		  "duration": 0.116279069767442,
		  "pitch": 45,
		  "start": 249.651162790698,
		  "velocity": 80
		},
		{
		  "duration": 0.116279069767442,
		  "pitch": 46,
		  "start": 249.767441860465,
		  "velocity": 80
		},
		{
		  "duration": 0.116279069767442,
		  "pitch": 46,
		  "start": 250.0,
		  "velocity": 80
		},
		{
		  "duration": 0.116279069767442,
		  "pitch": 46,
		  "start": 250.116279069767,
		  "velocity": 80
		},
		{
		  "duration": 0.116279069767442,
		  "pitch": 46,
		  "start": 250.348837209302,
		  "velocity": 80
		},
		{
		  "duration": 0.116279069767442,
		  "pitch": 46,
		  "start": 250.46511627907,
		  "velocity": 80
		},
		{
		  "duration": 0.116279069767442,
		  "pitch": 46,
		  "start": 250.697674418605,
		  "velocity": 80
		},
		{
		  "duration": 0.116279069767442,
		  "pitch": 46,
		  "start": 250.813953488372,
		  "velocity": 80
		},
		{
		  "duration": 0.116279069767442,
		  "pitch": 46,
		  "start": 251.046511627907,
		  "velocity": 80
		},
		{
		  "duration": 0.116279069767442,
		  "pitch": 50,
		  "start": 251.162790697674,
		  "velocity": 80
		},
		{
		  "duration": 0.116279069767442,
		  "pitch": 50,
		  "start": 251.395348837209,
		  "velocity": 80
		},
		{
		  "duration": 0.116279069767442,
		  "pitch": 50,
		  "start": 251.511627906977,
		  "velocity": 80
		},
		{
		  "duration": 0.116279069767442,
		  "pitch": 50,
		  "start": 251.744186046512,
		  "velocity": 80
		},
		{
		  "duration": 0.116279069767442,
		  "pitch": 50,
		  "start": 251.860465116279,
		  "velocity": 80
		},
		{
		  "duration": 0.116279069767442,
		  "pitch": 50,
		  "start": 252.093023255814,
		  "velocity": 80
		},
		{
		  "duration": 0.116279069767442,
		  "pitch": 48,
		  "start": 252.209302325581,
		  "velocity": 80
		},
		{
		  "duration": 0.116279069767442,
		  "pitch": 48,
		  "start": 252.441860465116,
		  "velocity": 80
		},
		{
		  "duration": 0.116279069767442,
		  "pitch": 50,
		  "start": 252.558139534884,
		  "velocity": 80
		},
		{
		  "duration": 0.116279069767442,
		  "pitch": 50,
		  "start": 252.790697674419,
		  "velocity": 80
		},
		{
		  "duration": 0.116279069767442,
		  "pitch": 50,
		  "start": 252.906976744186,
		  "velocity": 80
		},
		{
		  "duration": 0.116279069767442,
		  "pitch": 50,
		  "start": 253.139534883721,
		  "velocity": 80
		},
		{
		  "duration": 0.116279069767442,
		  "pitch": 50,
		  "start": 253.255813953488,
		  "velocity": 80
		},
		{
		  "duration": 0.116279069767442,
		  "pitch": 50,
		  "start": 253.488372093023,
		  "velocity": 80
		},
		{
		  "duration": 0.116279069767442,
		  "pitch": 48,
		  "start": 253.604651162791,
		  "velocity": 80
		},
		{
		  "duration": 0.116279069767442,
		  "pitch": 48,
		  "start": 253.837209302326,
		  "velocity": 80
		},
		{
		  "duration": 0.116279069767442,
		  "pitch": 50,
		  "start": 253.953488372093,
		  "velocity": 80
		},
		{
		  "duration": 0.116279069767442,
		  "pitch": 50,
		  "start": 254.186046511628,
		  "velocity": 80
		},
		{
		  "duration": 0.116279069767442,
		  "pitch": 50,
		  "start": 254.302325581395,
		  "velocity": 80
		},
		{
		  "duration": 0.116279069767442,
		  "pitch": 50,
		  "start": 254.53488372093,
		  "velocity": 80
		},
		{
		  "duration": 0.116279069767442,
		  "pitch": 50,
		  "start": 254.651162790698,
		  "velocity": 80
		},
		{
		  "duration": 0.116279069767442,
		  "pitch": 50,
		  "start": 254.883720930233,
		  "velocity": 80
		},
		{
		  "duration": 0.116279069767442,
		  "pitch": 48,
		  "start": 255.0,
		  "velocity": 80
		},
		{
		  "duration": 0.116279069767442,
		  "pitch": 48,
		  "start": 255.232558139535,
		  "velocity": 80
		},
		{
		  "duration": 0.348837209302326,
		  "pitch": 50,
		  "start": 255.348837209302,
		  "velocity": 80
		},
		{
		  "duration": 0.348837209302326,
		  "pitch": 45,
		  "start": 255.697674418605,
		  "velocity": 80
		},
		{
		  "duration": 0.348837209302326,
		  "pitch": 48,
		  "start": 256.046511627907,
		  "velocity": 80
		},
		{
		  "duration": 0.116279069767442,
		  "pitch": 47,
		  "start": 256.395348837209,
		  "velocity": 80
		},
		{
		  "duration": 0.116279069767442,
		  "pitch": 46,
		  "start": 256.511627906977,
		  "velocity": 80
		},
		{
		  "duration": 0.116279069767442,
		  "pitch": 43,
		  "start": 256.627906976744,
		  "velocity": 80
		},
		{
		  "duration": 0.116279069767442,
		  "pitch": 45,
		  "start": 256.744186046512,
		  "velocity": 80
		},
		{
		  "duration": 0.116279069767442,
		  "pitch": 45,
		  "start": 256.976744186047,
		  "velocity": 80
		},
		{
		  "duration": 0.116279069767442,
		  "pitch": 45,
		  "start": 257.093023255814,
		  "velocity": 80
		},
		{
		  "duration": 0.116279069767442,
		  "pitch": 45,
		  "start": 257.325581395349,
		  "velocity": 80
		},
		{
		  "duration": 0.116279069767442,
		  "pitch": 45,
		  "start": 257.441860465116,
		  "velocity": 80
		},
		{
		  "duration": 0.116279069767442,
		  "pitch": 45,
		  "start": 257.674418604651,
		  "velocity": 80
		},
		{
		  "duration": 0.116279069767442,
		  "pitch": 45,
		  "start": 257.790697674419,
		  "velocity": 80
		},
		{
		  "duration": 0.116279069767442,
		  "pitch": 45,
		  "start": 258.023255813953,
		  "velocity": 80
		},
		{
		  "duration": 0.116279069767442,
		  "pitch": 45,
		  "start": 258.139534883721,
		  "velocity": 80
		},
		{
		  "duration": 0.116279069767442,
		  "pitch": 45,
		  "start": 258.372093023256,
		  "velocity": 80
		},
		{
		  "duration": 0.116279069767442,
		  "pitch": 45,
		  "start": 258.488372093023,
		  "velocity": 80
		},
		{
		  "duration": 0.116279069767442,
		  "pitch": 45,
		  "start": 258.720930232558,
		  "velocity": 80
		},
		{
		  "duration": 0.116279069767442,
		  "pitch": 45,
		  "start": 258.837209302326,
		  "velocity": 80
		},
		{
		  "duration": 0.116279069767442,
		  "pitch": 45,
		  "start": 259.06976744186,
		  "velocity": 80
		},
		{
		  "duration": 0.116279069767442,
		  "pitch": 45,
		  "start": 259.186046511628,
		  "velocity": 80
		},
		{
		  "duration": 0.116279069767442,
		  "pitch": 45,
		  "start": 259.418604651163,
		  "velocity": 80
		},
		{
		  "duration": 0.116279069767442,
		  "pitch": 45,
		  "start": 259.53488372093,
		  "velocity": 80
		},
		{
		  "duration": 0.116279069767442,
		  "pitch": 45,
		  "start": 259.767441860465,
		  "velocity": 80
		},
		{
		  "duration": 0.116279069767442,
		  "pitch": 45,
		  "start": 259.883720930233,
		  "velocity": 80
		},
		{
		  "duration": 0.116279069767442,
		  "pitch": 45,
		  "start": 260.116279069767,
		  "velocity": 80
		},
		{
		  "duration": 0.116279069767442,
		  "pitch": 45,
		  "start": 260.232558139535,
		  "velocity": 80
		},
		{
		  "duration": 0.116279069767442,
		  "pitch": 45,
		  "start": 260.46511627907,
		  "velocity": 80
		},
		{
		  "duration": 0.116279069767442,
		  "pitch": 45,
		  "start": 260.581395348837,
		  "velocity": 80
		},
		{
		  "duration": 0.116279069767442,
		  "pitch": 45,
		  "start": 260.813953488372,
		  "velocity": 80
		},
		{
		  "duration": 0.116279069767442,
		  "pitch": 45,
		  "start": 260.93023255814,
		  "velocity": 80
		},
		{
		  "duration": 0.116279069767442,
		  "pitch": 45,
		  "start": 261.162790697674,
		  "velocity": 80
		},
		{
		  "duration": 0.116279069767442,
		  "pitch": 45,
		  "start": 261.279069767442,
		  "velocity": 80
		},
		{
		  "duration": 0.116279069767442,
		  "pitch": 45,
		  "start": 261.511627906977,
		  "velocity": 80
		},
		{
		  "duration": 0.116279069767442,
		  "pitch": 45,
		  "start": 261.627906976744,
		  "velocity": 80
		},
		{
		  "duration": 0.116279069767442,
		  "pitch": 48,
		  "start": 261.744186046512,
		  "velocity": 80
		},
		{
		  "duration": 0.116279069767442,
		  "pitch": 52,
		  "start": 261.860465116279,
		  "velocity": 80
		},
		{
		  "duration": 0.116279069767442,
		  "pitch": 55,
		  "start": 261.976744186047,
		  "velocity": 80
		},
		{
		  "duration": 0.116279069767442,
		  "pitch": 52,
		  "start": 262.093023255814,
		  "velocity": 80
		},
		{
		  "duration": 0.116279069767442,
		  "pitch": 55,
		  "start": 262.209302325581,
		  "velocity": 80
		},
		{
		  "duration": 0.116279069767442,
		  "pitch": 50,
		  "start": 262.325581395349,
		  "velocity": 80
		},
		{
		  "duration": 0.116279069767442,
		  "pitch": 50,
		  "start": 262.558139534884,
		  "velocity": 80
		},
		{
		  "duration": 0.116279069767442,
		  "pitch": 50,
		  "start": 262.674418604651,
		  "velocity": 80
		},
		{
		  "duration": 0.116279069767442,
		  "pitch": 50,
		  "start": 262.906976744186,
		  "velocity": 80
		},
		{
		  "duration": 0.116279069767442,
		  "pitch": 50,
		  "start": 263.023255813953,
		  "velocity": 80
		},
		{
		  "duration": 0.116279069767442,
		  "pitch": 50,
		  "start": 263.255813953488,
		  "velocity": 80
		},
		{
		  "duration": 0.116279069767442,
		  "pitch": 48,
		  "start": 263.372093023256,
		  "velocity": 80
		},
		{
		  "duration": 0.116279069767442,
		  "pitch": 48,
		  "start": 263.604651162791,
		  "velocity": 80
		},
		{
		  "duration": 0.116279069767442,
		  "pitch": 50,
		  "start": 263.720930232558,
		  "velocity": 80
		},
		{
		  "duration": 0.116279069767442,
		  "pitch": 50,
		  "start": 263.953488372093,
		  "velocity": 80
		},
		{
		  "duration": 0.116279069767442,
		  "pitch": 50,
		  "start": 264.06976744186,
		  "velocity": 80
		},
		{
		  "duration": 0.116279069767442,
		  "pitch": 50,
		  "start": 264.302325581395,
		  "velocity": 80
		},
		{
		  "duration": 0.116279069767442,
		  "pitch": 50,
		  "start": 264.418604651163,
		  "velocity": 80
		},
		{
		  "duration": 0.116279069767442,
		  "pitch": 50,
		  "start": 264.651162790698,
		  "velocity": 80
		},
		{
		  "duration": 0.116279069767442,
		  "pitch": 48,
		  "start": 264.767441860465,
		  "velocity": 80
		},
		{
		  "duration": 0.116279069767442,
		  "pitch": 48,
		  "start": 265.0,
		  "velocity": 80
		},
		{
		  "duration": 0.116279069767442,
		  "pitch": 50,
		  "start": 265.116279069767,
		  "velocity": 80
		},
		{
		  "duration": 0.116279069767442,
		  "pitch": 50,
		  "start": 265.348837209302,
		  "velocity": 80
		},
		{
		  "duration": 0.116279069767442,
		  "pitch": 50,
		  "start": 265.46511627907,
		  "velocity": 80
		},
		{
		  "duration": 0.116279069767442,
		  "pitch": 50,
		  "start": 265.697674418605,
		  "velocity": 80
		},
		{
		  "duration": 0.116279069767442,
		  "pitch": 50,
		  "start": 265.813953488372,
		  "velocity": 80
		},
		{
		  "duration": 0.116279069767442,
		  "pitch": 50,
		  "start": 266.046511627907,
		  "velocity": 80
		},
		{
		  "duration": 0.116279069767442,
		  "pitch": 48,
		  "start": 266.162790697674,
		  "velocity": 80
		},
		{
		  "duration": 0.116279069767442,
		  "pitch": 48,
		  "start": 266.395348837209,
		  "velocity": 80
		},
		{
		  "duration": 0.348837209302326,
		  "pitch": 50,
		  "start": 266.511627906977,
		  "velocity": 80
		},
		{
		  "duration": 0.348837209302326,
		  "pitch": 45,
		  "start": 266.860465116279,
		  "velocity": 80
		},
		{
		  "duration": 0.348837209302326,
		  "pitch": 48,
		  "start": 267.209302325581,
		  "velocity": 80
		},
		{
		  "duration": 0.116279069767442,
		  "pitch": 47,
		  "start": 267.558139534884,
		  "velocity": 80
		},
		{
		  "duration": 0.116279069767442,
		  "pitch": 46,
		  "start": 267.674418604651,
		  "velocity": 80
		},
		{
		  "duration": 0.116279069767442,
		  "pitch": 43,
		  "start": 267.790697674419,
		  "velocity": 80
		},
		{
		  "duration": 0.116279069767442,
		  "pitch": 45,
		  "start": 267.906976744186,
		  "velocity": 80
		},
		{
		  "duration": 0.116279069767442,
		  "pitch": 45,
		  "start": 268.139534883721,
		  "velocity": 80
		},
		{
		  "duration": 0.116279069767442,
		  "pitch": 45,
		  "start": 268.255813953488,
		  "velocity": 80
		},
		{
		  "duration": 0.116279069767442,
		  "pitch": 45,
		  "start": 268.488372093023,
		  "velocity": 80
		},
		{
		  "duration": 0.116279069767442,
		  "pitch": 45,
		  "start": 268.604651162791,
		  "velocity": 80
		},
		{
		  "duration": 0.116279069767442,
		  "pitch": 45,
		  "start": 268.837209302326,
		  "velocity": 80
		},
		{
		  "duration": 0.116279069767442,
		  "pitch": 45,
		  "start": 268.953488372093,
		  "velocity": 80
		},
		{
		  "duration": 0.116279069767442,
		  "pitch": 45,
		  "start": 269.186046511628,
		  "velocity": 80
		},
		{
		  "duration": 0.116279069767442,
		  "pitch": 45,
		  "start": 269.302325581395,
		  "velocity": 80
		},
		{
		  "duration": 0.116279069767442,
		  "pitch": 45,
		  "start": 269.53488372093,
		  "velocity": 80
		},
		{
		  "duration": 0.116279069767442,
		  "pitch": 45,
		  "start": 269.651162790698,
		  "velocity": 80
		},
		{
		  "duration": 0.116279069767442,
		  "pitch": 45,
		  "start": 269.883720930233,
		  "velocity": 80
		},
		{
		  "duration": 0.116279069767442,
		  "pitch": 45,
		  "start": 270.0,
		  "velocity": 80
		},
		{
		  "duration": 0.116279069767442,
		  "pitch": 45,
		  "start": 270.232558139535,
		  "velocity": 80
		},
		{
		  "duration": 0.116279069767442,
		  "pitch": 45,
		  "start": 270.348837209302,
		  "velocity": 80
		},
		{
		  "duration": 0.116279069767442,
		  "pitch": 45,
		  "start": 270.581395348837,
		  "velocity": 80
		},
		{
		  "duration": 0.116279069767442,
		  "pitch": 45,
		  "start": 270.697674418605,
		  "velocity": 80
		},
		{
		  "duration": 0.116279069767442,
		  "pitch": 45,
		  "start": 270.93023255814,
		  "velocity": 80
		},
		{
		  "duration": 0.116279069767442,
		  "pitch": 45,
		  "start": 271.046511627907,
		  "velocity": 80
		},
		{
		  "duration": 0.116279069767442,
		  "pitch": 45,
		  "start": 271.279069767442,
		  "velocity": 80
		},
		{
		  "duration": 0.116279069767442,
		  "pitch": 45,
		  "start": 271.395348837209,
		  "velocity": 80
		},
		{
		  "duration": 0.116279069767442,
		  "pitch": 45,
		  "start": 271.627906976744,
		  "velocity": 80
		},
		{
		  "duration": 0.116279069767442,
		  "pitch": 45,
		  "start": 271.744186046512,
		  "velocity": 80
		},
		{
		  "duration": 0.116279069767442,
		  "pitch": 45,
		  "start": 271.976744186047,
		  "velocity": 80
		},
		{
		  "duration": 0.116279069767442,
		  "pitch": 45,
		  "start": 272.093023255814,
		  "velocity": 80
		},
		{
		  "duration": 0.116279069767442,
		  "pitch": 45,
		  "start": 272.325581395349,
		  "velocity": 80
		},
		{
		  "duration": 0.116279069767442,
		  "pitch": 45,
		  "start": 272.441860465116,
		  "velocity": 80
		},
		{
		  "duration": 0.116279069767442,
		  "pitch": 45,
		  "start": 272.674418604651,
		  "velocity": 80
		},
		{
		  "duration": 0.116279069767442,
		  "pitch": 45,
		  "start": 272.790697674419,
		  "velocity": 80
		},
		{
		  "duration": 0.116279069767442,
		  "pitch": 48,
		  "start": 272.906976744186,
		  "velocity": 80
		},
		{
		  "duration": 0.116279069767442,
		  "pitch": 52,
		  "start": 273.023255813953,
		  "velocity": 80
		},
		{
		  "duration": 0.116279069767442,
		  "pitch": 55,
		  "start": 273.139534883721,
		  "velocity": 80
		},
		{
		  "duration": 0.116279069767442,
		  "pitch": 52,
		  "start": 273.255813953488,
		  "velocity": 80
		},
		{
		  "duration": 0.116279069767442,
		  "pitch": 55,
		  "start": 273.372093023256,
		  "velocity": 80
		},
		{
		  "duration": 0.116279069767442,
		  "pitch": 50,
		  "start": 273.488372093023,
		  "velocity": 80
		},
		{
		  "duration": 0.116279069767442,
		  "pitch": 50,
		  "start": 273.720930232558,
		  "velocity": 80
		},
		{
		  "duration": 0.116279069767442,
		  "pitch": 50,
		  "start": 273.837209302326,
		  "velocity": 80
		},
		{
		  "duration": 0.116279069767442,
		  "pitch": 50,
		  "start": 274.06976744186,
		  "velocity": 80
		},
		{
		  "duration": 0.116279069767442,
		  "pitch": 50,
		  "start": 274.186046511628,
		  "velocity": 80
		},
		{
		  "duration": 0.116279069767442,
		  "pitch": 50,
		  "start": 274.418604651163,
		  "velocity": 80
		},
		{
		  "duration": 0.116279069767442,
		  "pitch": 48,
		  "start": 274.53488372093,
		  "velocity": 80
		},
		{
		  "duration": 0.116279069767442,
		  "pitch": 48,
		  "start": 274.767441860465,
		  "velocity": 80
		},
		{
		  "duration": 0.116279069767442,
		  "pitch": 50,
		  "start": 274.883720930233,
		  "velocity": 80
		},
		{
		  "duration": 0.116279069767442,
		  "pitch": 50,
		  "start": 275.116279069767,
		  "velocity": 80
		},
		{
		  "duration": 0.116279069767442,
		  "pitch": 50,
		  "start": 275.232558139535,
		  "velocity": 80
		},
		{
		  "duration": 0.116279069767442,
		  "pitch": 50,
		  "start": 275.46511627907,
		  "velocity": 80
		},
		{
		  "duration": 0.116279069767442,
		  "pitch": 50,
		  "start": 275.581395348837,
		  "velocity": 80
		},
		{
		  "duration": 0.116279069767442,
		  "pitch": 50,
		  "start": 275.813953488372,
		  "velocity": 80
		},
		{
		  "duration": 0.116279069767442,
		  "pitch": 48,
		  "start": 275.93023255814,
		  "velocity": 80
		},
		{
		  "duration": 0.116279069767442,
		  "pitch": 48,
		  "start": 276.162790697674,
		  "velocity": 80
		},
		{
		  "duration": 0.116279069767442,
		  "pitch": 50,
		  "start": 276.279069767442,
		  "velocity": 80
		},
		{
		  "duration": 0.116279069767442,
		  "pitch": 50,
		  "start": 276.511627906977,
		  "velocity": 80
		},
		{
		  "duration": 0.116279069767442,
		  "pitch": 50,
		  "start": 276.627906976744,
		  "velocity": 80
		},
		{
		  "duration": 0.116279069767442,
		  "pitch": 50,
		  "start": 276.860465116279,
		  "velocity": 80
		},
		{
		  "duration": 0.116279069767442,
		  "pitch": 50,
		  "start": 276.976744186047,
		  "velocity": 80
		},
		{
		  "duration": 0.116279069767442,
		  "pitch": 50,
		  "start": 277.209302325581,
		  "velocity": 80
		},
		{
		  "duration": 0.116279069767442,
		  "pitch": 48,
		  "start": 277.325581395349,
		  "velocity": 80
		},
		{
		  "duration": 0.116279069767442,
		  "pitch": 48,
		  "start": 277.558139534884,
		  "velocity": 80
		},
		{
		  "duration": 0.348837209302326,
		  "pitch": 50,
		  "start": 277.674418604651,
		  "velocity": 80
		},
		{
		  "duration": 0.348837209302326,
		  "pitch": 45,
		  "start": 278.023255813953,
		  "velocity": 80
		},
		{
		  "duration": 0.348837209302326,
		  "pitch": 48,
		  "start": 278.372093023256,
		  "velocity": 80
		},
		{
		  "duration": 0.116279069767442,
		  "pitch": 47,
		  "start": 278.720930232558,
		  "velocity": 80
		},
		{
		  "duration": 0.116279069767442,
		  "pitch": 46,
		  "start": 278.837209302326,
		  "velocity": 80
		},
		{
		  "duration": 0.116279069767442,
		  "pitch": 43,
		  "start": 278.953488372093,
		  "velocity": 80
		},
		{
		  "duration": 0.116279069767442,
		  "pitch": 45,
		  "start": 279.06976744186,
		  "velocity": 80
		},
		{
		  "duration": 0.116279069767442,
		  "pitch": 45,
		  "start": 279.302325581395,
		  "velocity": 80
		},
		{
		  "duration": 0.116279069767442,
		  "pitch": 45,
		  "start": 279.418604651163,
		  "velocity": 80
		},
		{
		  "duration": 0.116279069767442,
		  "pitch": 45,
		  "start": 279.651162790698,
		  "velocity": 80
		},
		{
		  "duration": 0.116279069767442,
		  "pitch": 45,
		  "start": 279.767441860465,
		  "velocity": 80
		},
		{
		  "duration": 0.116279069767442,
		  "pitch": 45,
		  "start": 280.0,
		  "velocity": 80
		},
		{
		  "duration": 0.116279069767442,
		  "pitch": 45,
		  "start": 280.116279069767,
		  "velocity": 80
		},
		{
		  "duration": 0.116279069767442,
		  "pitch": 45,
		  "start": 280.348837209302,
		  "velocity": 80
		},
		{
		  "duration": 0.116279069767442,
		  "pitch": 45,
		  "start": 280.46511627907,
		  "velocity": 80
		},
		{
		  "duration": 0.116279069767442,
		  "pitch": 45,
		  "start": 280.697674418605,
		  "velocity": 80
		},
		{
		  "duration": 0.116279069767442,
		  "pitch": 45,
		  "start": 280.813953488372,
		  "velocity": 80
		},
		{
		  "duration": 0.116279069767442,
		  "pitch": 45,
		  "start": 281.046511627907,
		  "velocity": 80
		},
		{
		  "duration": 0.116279069767442,
		  "pitch": 45,
		  "start": 281.162790697674,
		  "velocity": 80
		},
		{
		  "duration": 0.116279069767442,
		  "pitch": 45,
		  "start": 281.395348837209,
		  "velocity": 80
		},
		{
		  "duration": 0.116279069767442,
		  "pitch": 45,
		  "start": 281.511627906977,
		  "velocity": 80
		},
		{
		  "duration": 0.116279069767442,
		  "pitch": 45,
		  "start": 281.744186046512,
		  "velocity": 80
		},
		{
		  "duration": 0.116279069767442,
		  "pitch": 48,
		  "start": 281.860465116279,
		  "velocity": 80
		},
		{
		  "duration": 0.116279069767442,
		  "pitch": 48,
		  "start": 282.093023255814,
		  "velocity": 80
		},
		{
		  "duration": 0.116279069767442,
		  "pitch": 48,
		  "start": 282.209302325581,
		  "velocity": 80
		},
		{
		  "duration": 0.116279069767442,
		  "pitch": 48,
		  "start": 282.441860465116,
		  "velocity": 80
		},
		{
		  "duration": 0.116279069767442,
		  "pitch": 48,
		  "start": 282.558139534884,
		  "velocity": 80
		},
		{
		  "duration": 0.116279069767442,
		  "pitch": 48,
		  "start": 282.790697674419,
		  "velocity": 80
		},
		{
		  "duration": 0.116279069767442,
		  "pitch": 48,
		  "start": 282.906976744186,
		  "velocity": 80
		},
		{
		  "duration": 0.116279069767442,
		  "pitch": 48,
		  "start": 283.139534883721,
		  "velocity": 80
		},
		{
		  "duration": 0.116279069767442,
		  "pitch": 47,
		  "start": 283.255813953488,
		  "velocity": 80
		},
		{
		  "duration": 0.116279069767442,
		  "pitch": 47,
		  "start": 283.488372093023,
		  "velocity": 80
		},
		{
		  "duration": 0.116279069767442,
		  "pitch": 47,
		  "start": 283.604651162791,
		  "velocity": 80
		},
		{
		  "duration": 0.116279069767442,
		  "pitch": 47,
		  "start": 283.837209302326,
		  "velocity": 80
		},
		{
		  "duration": 0.116279069767442,
		  "pitch": 52,
		  "start": 283.953488372093,
		  "velocity": 80
		},
		{
		  "duration": 0.116279069767442,
		  "pitch": 52,
		  "start": 284.186046511628,
		  "velocity": 80
		},
		{
		  "duration": 0.116279069767442,
		  "pitch": 50,
		  "start": 284.302325581395,
		  "velocity": 80
		},
		{
		  "duration": 0.116279069767442,
		  "pitch": 48,
		  "start": 284.418604651163,
		  "velocity": 80
		},
		{
		  "duration": 0.116279069767442,
		  "pitch": 47,
		  "start": 284.53488372093,
		  "velocity": 80
		},
		{
		  "duration": 0.232558139534884,
		  "pitch": 45,
		  "start": 284.651162790698,
		  "velocity": 80
		},
		{
		  "duration": 0.348837209302326,
		  "pitch": 40,
		  "start": 286.395348837209,
		  "velocity": 80
		},
		{
		  "duration": 0.348837209302326,
		  "pitch": 43,
		  "start": 286.744186046512,
		  "velocity": 80
		},
		{
		  "duration": 0.348837209302326,
		  "pitch": 44,
		  "start": 287.093023255814,
		  "velocity": 80
		},
		{
		  "duration": 0.232558139534884,
		  "pitch": 45,
		  "start": 287.441860465116,
		  "velocity": 80
		},
		{
		  "duration": 0.116279069767442,
		  "pitch": 40,
		  "start": 289.53488372093,
		  "velocity": 80
		},
		{
		  "duration": 0.116279069767442,
		  "pitch": 43,
		  "start": 289.651162790698,
		  "velocity": 80
		},
		{
		  "duration": 0.116279069767442,
		  "pitch": 44,
		  "start": 289.767441860465,
		  "velocity": 80
		},
		{
		  "duration": 0.232558139534884,
		  "pitch": 51,
		  "start": 289.883720930233,
		  "velocity": 80
		},
		{
		  "duration": 0.116279069767442,
		  "pitch": 50,
		  "start": 290.116279069767,
		  "velocity": 80
		},
		{
		  "duration": 0.232558139534884,
		  "pitch": 48,
		  "start": 290.232558139535,
		  "velocity": 80
		},
		{
		  "duration": 0.348837209302326,
		  "pitch": 43,
		  "start": 291.976744186047,
		  "velocity": 80
		},
		{
		  "duration": 0.348837209302326,
		  "pitch": 46,
		  "start": 292.325581395349,
		  "velocity": 80
		},
		{
		  "duration": 0.348837209302326,
		  "pitch": 47,
		  "start": 292.674418604651,
		  "velocity": 80
		},
		{
		  "duration": 0.232558139534884,
		  "pitch": 48,
		  "start": 293.023255813953,
		  "velocity": 80
		},
		{
		  "duration": 0.116279069767442,
		  "pitch": 45,
		  "start": 295.116279069767,
		  "velocity": 80
		},
		{
		  "duration": 0.116279069767442,
		  "pitch": 48,
		  "start": 295.232558139535,
		  "velocity": 80
		},
		{
		  "duration": 0.116279069767442,
		  "pitch": 48,
		  "start": 295.348837209302,
		  "velocity": 80
		},
		{
		  "duration": 0.116279069767442,
		  "pitch": 48,
		  "start": 295.46511627907,
		  "velocity": 80
		},
		{
		  "duration": 0.116279069767442,
		  "pitch": 46,
		  "start": 295.581395348837,
		  "velocity": 80
		},
		{
		  "duration": 0.116279069767442,
		  "pitch": 45,
		  "start": 295.697674418605,
		  "velocity": 80
		},
		{
		  "duration": 0.116279069767442,
		  "pitch": 43,
		  "start": 295.813953488372,
		  "velocity": 80
		},
		{
		  "duration": 0.116279069767442,
		  "pitch": 45,
		  "start": 295.93023255814,
		  "velocity": 80
		},
		{
		  "duration": 0.116279069767442,
		  "pitch": 45,
		  "start": 296.046511627907,
		  "velocity": 80
		},
		{
		  "duration": 0.116279069767442,
		  "pitch": 45,
		  "start": 296.162790697674,
		  "velocity": 80
		},
		{
		  "duration": 0.116279069767442,
		  "pitch": 45,
		  "start": 296.279069767442,
		  "velocity": 80
		},
		{
		  "duration": 0.116279069767442,
		  "pitch": 45,
		  "start": 296.395348837209,
		  "velocity": 80
		},
		{
		  "duration": 0.116279069767442,
		  "pitch": 45,
		  "start": 296.511627906977,
		  "velocity": 80
		},
		{
		  "duration": 0.116279069767442,
		  "pitch": 45,
		  "start": 296.627906976744,
		  "velocity": 80
		},
		{
		  "duration": 0.116279069767442,
		  "pitch": 45,
		  "start": 296.744186046512,
		  "velocity": 80
		},
		{
		  "duration": 0.116279069767442,
		  "pitch": 45,
		  "start": 296.860465116279,
		  "velocity": 80
		},
		{
		  "duration": 0.116279069767442,
		  "pitch": 45,
		  "start": 296.976744186047,
		  "velocity": 80
		},
		{
		  "duration": 0.116279069767442,
		  "pitch": 45,
		  "start": 297.093023255814,
		  "velocity": 80
		},
		{
		  "duration": 0.116279069767442,
		  "pitch": 43,
		  "start": 297.209302325581,
		  "velocity": 80
		},
		{
		  "duration": 0.116279069767442,
		  "pitch": 45,
		  "start": 297.325581395349,
		  "velocity": 80
		},
		{
		  "duration": 0.116279069767442,
		  "pitch": 45,
		  "start": 297.441860465116,
		  "velocity": 80
		},
		{
		  "duration": 0.116279069767442,
		  "pitch": 45,
		  "start": 297.558139534884,
		  "velocity": 80
		},
		{
		  "duration": 0.116279069767442,
		  "pitch": 45,
		  "start": 297.674418604651,
		  "velocity": 80
		},
		{
		  "duration": 0.116279069767442,
		  "pitch": 45,
		  "start": 297.790697674419,
		  "velocity": 80
		},
		{
		  "duration": 0.116279069767442,
		  "pitch": 45,
		  "start": 297.906976744186,
		  "velocity": 80
		},
		{
		  "duration": 0.116279069767442,
		  "pitch": 45,
		  "start": 298.023255813953,
		  "velocity": 80
		},
		{
		  "duration": 0.116279069767442,
		  "pitch": 45,
		  "start": 298.139534883721,
		  "velocity": 80
		},
		{
		  "duration": 0.116279069767442,
		  "pitch": 45,
		  "start": 298.255813953488,
		  "velocity": 80
		},
		{
		  "duration": 0.116279069767442,
		  "pitch": 45,
		  "start": 298.372093023256,
		  "velocity": 80
		},
		{
		  "duration": 0.116279069767442,
		  "pitch": 45,
		  "start": 298.488372093023,
		  "velocity": 80
		},
		{
		  "duration": 0.116279069767442,
		  "pitch": 43,
		  "start": 298.604651162791,
		  "velocity": 80
		},
		{
		  "duration": 0.116279069767442,
		  "pitch": 45,
		  "start": 298.720930232558,
		  "velocity": 80
		},
		{
		  "duration": 0.116279069767442,
		  "pitch": 45,
		  "start": 298.837209302326,
		  "velocity": 80
		},
		{
		  "duration": 0.116279069767442,
		  "pitch": 45,
		  "start": 298.953488372093,
		  "velocity": 80
		},
		{
		  "duration": 0.116279069767442,
		  "pitch": 45,
		  "start": 299.06976744186,
		  "velocity": 80
		},
		{
		  "duration": 0.116279069767442,
		  "pitch": 45,
		  "start": 299.186046511628,
		  "velocity": 80
		},
		{
		  "duration": 0.116279069767442,
		  "pitch": 45,
		  "start": 299.302325581395,
		  "velocity": 80
		},
		{
		  "duration": 0.116279069767442,
		  "pitch": 45,
		  "start": 299.418604651163,
		  "velocity": 80
		},
		{
		  "duration": 0.116279069767442,
		  "pitch": 45,
		  "start": 299.53488372093,
		  "velocity": 80
		},
		{
		  "duration": 0.116279069767442,
		  "pitch": 45,
		  "start": 299.651162790698,
		  "velocity": 80
		},
		{
		  "duration": 0.116279069767442,
		  "pitch": 45,
		  "start": 299.767441860465,
		  "velocity": 80
		},
		{
		  "duration": 0.116279069767442,
		  "pitch": 45,
		  "start": 299.883720930233,
		  "velocity": 80
		},
		{
		  "duration": 0.116279069767442,
		  "pitch": 52,
		  "start": 300.0,
		  "velocity": 80
		},
		{
		  "duration": 0.116279069767442,
		  "pitch": 45,
		  "start": 300.116279069767,
		  "velocity": 80
		},
		{
		  "duration": 0.116279069767442,
		  "pitch": 45,
		  "start": 300.232558139535,
		  "velocity": 80
		},
		{
		  "duration": 0.116279069767442,
		  "pitch": 50,
		  "start": 300.348837209302,
		  "velocity": 80
		},
		{
		  "duration": 0.116279069767442,
		  "pitch": 45,
		  "start": 300.46511627907,
		  "velocity": 80
		},
		{
		  "duration": 0.116279069767442,
		  "pitch": 45,
		  "start": 300.581395348837,
		  "velocity": 80
		},
		{
		  "duration": 0.232558139534884,
		  "pitch": 48,
		  "start": 300.697674418605,
		  "velocity": 80
		},
		{
		  "duration": 0.116279069767442,
		  "pitch": 45,
		  "start": 300.93023255814,
		  "velocity": 80
		},
		{
		  "duration": 0.116279069767442,
		  "pitch": 43,
		  "start": 301.046511627907,
		  "velocity": 80
		},
		{
		  "duration": 0.116279069767442,
		  "pitch": 45,
		  "start": 301.162790697674,
		  "velocity": 80
		},
		{
		  "duration": 0.116279069767442,
		  "pitch": 45,
		  "start": 301.279069767442,
		  "velocity": 80
		},
		{
		  "duration": 0.116279069767442,
		  "pitch": 46,
		  "start": 301.395348837209,
		  "velocity": 80
		},
		{
		  "duration": 0.116279069767442,
		  "pitch": 48,
		  "start": 301.511627906977,
		  "velocity": 80
		},
		{
		  "duration": 0.116279069767442,
		  "pitch": 48,
		  "start": 301.627906976744,
		  "velocity": 80
		},
		{
		  "duration": 0.116279069767442,
		  "pitch": 48,
		  "start": 301.744186046512,
		  "velocity": 80
		},
		{
		  "duration": 0.116279069767442,
		  "pitch": 48,
		  "start": 301.860465116279,
		  "velocity": 80
		},
		{
		  "duration": 0.116279069767442,
		  "pitch": 48,
		  "start": 301.976744186047,
		  "velocity": 80
		},
		{
		  "duration": 0.116279069767442,
		  "pitch": 48,
		  "start": 302.093023255814,
		  "velocity": 80
		},
		{
		  "duration": 0.116279069767442,
		  "pitch": 48,
		  "start": 302.209302325581,
		  "velocity": 80
		},
		{
		  "duration": 0.116279069767442,
		  "pitch": 48,
		  "start": 302.325581395349,
		  "velocity": 80
		},
		{
		  "duration": 0.116279069767442,
		  "pitch": 48,
		  "start": 302.441860465116,
		  "velocity": 80
		},
		{
		  "duration": 0.116279069767442,
		  "pitch": 48,
		  "start": 302.558139534884,
		  "velocity": 80
		},
		{
		  "duration": 0.116279069767442,
		  "pitch": 48,
		  "start": 302.674418604651,
		  "velocity": 80
		},
		{
		  "duration": 0.116279069767442,
		  "pitch": 46,
		  "start": 302.790697674419,
		  "velocity": 80
		},
		{
		  "duration": 0.116279069767442,
		  "pitch": 48,
		  "start": 302.906976744186,
		  "velocity": 80
		},
		{
		  "duration": 0.116279069767442,
		  "pitch": 48,
		  "start": 303.023255813953,
		  "velocity": 80
		},
		{
		  "duration": 0.116279069767442,
		  "pitch": 48,
		  "start": 303.139534883721,
		  "velocity": 80
		},
		{
		  "duration": 0.116279069767442,
		  "pitch": 48,
		  "start": 303.255813953488,
		  "velocity": 80
		},
		{
		  "duration": 0.116279069767442,
		  "pitch": 48,
		  "start": 303.372093023256,
		  "velocity": 80
		},
		{
		  "duration": 0.116279069767442,
		  "pitch": 48,
		  "start": 303.488372093023,
		  "velocity": 80
		},
		{
		  "duration": 0.116279069767442,
		  "pitch": 48,
		  "start": 303.604651162791,
		  "velocity": 80
		},
		{
		  "duration": 0.116279069767442,
		  "pitch": 48,
		  "start": 303.720930232558,
		  "velocity": 80
		},
		{
		  "duration": 0.116279069767442,
		  "pitch": 48,
		  "start": 303.837209302326,
		  "velocity": 80
		},
		{
		  "duration": 0.116279069767442,
		  "pitch": 48,
		  "start": 303.953488372093,
		  "velocity": 80
		},
		{
		  "duration": 0.116279069767442,
		  "pitch": 48,
		  "start": 304.06976744186,
		  "velocity": 80
		},
		{
		  "duration": 0.116279069767442,
		  "pitch": 46,
		  "start": 304.186046511628,
		  "velocity": 80
		},
		{
		  "duration": 0.116279069767442,
		  "pitch": 48,
		  "start": 304.302325581395,
		  "velocity": 80
		},
		{
		  "duration": 0.116279069767442,
		  "pitch": 48,
		  "start": 304.418604651163,
		  "velocity": 80
		},
		{
		  "duration": 0.116279069767442,
		  "pitch": 48,
		  "start": 304.53488372093,
		  "velocity": 80
		},
		{
		  "duration": 0.116279069767442,
		  "pitch": 48,
		  "start": 304.651162790698,
		  "velocity": 80
		},
		{
		  "duration": 0.116279069767442,
		  "pitch": 48,
		  "start": 304.767441860465,
		  "velocity": 80
		},
		{
		  "duration": 0.116279069767442,
		  "pitch": 48,
		  "start": 304.883720930233,
		  "velocity": 80
		},
		{
		  "duration": 0.116279069767442,
		  "pitch": 48,
		  "start": 305.0,
		  "velocity": 80
		},
		{
		  "duration": 0.116279069767442,
		  "pitch": 48,
		  "start": 305.116279069767,
		  "velocity": 80
		},
		{
		  "duration": 0.116279069767442,
		  "pitch": 48,
		  "start": 305.232558139535,
		  "velocity": 80
		},
		{
		  "duration": 0.116279069767442,
		  "pitch": 48,
		  "start": 305.348837209302,
		  "velocity": 80
		},
		{
		  "duration": 0.116279069767442,
		  "pitch": 48,
		  "start": 305.46511627907,
		  "velocity": 80
		}
	  ]
	},
	{
	  "cc_events": [
		{
		  "controller": 7,
		  "time": 0.0,
		  "value": 80
		},
		{
		  "controller": 10,
		  "time": 0.0,
		  "value": 0
		},
		{
		  "controller": 11,
		  "time": 29.7790697674419,
		  "value": 120
		},
		{
		  "controller": 11,
		  "time": 29.8372093023256,
		  "value": 114
		},
		{
		  "controller": 11,
		  "time": 29.8953488372093,
		  "value": 103
		},
		{
		  "controller": 11,
		  "time": 29.9593023255814,
		  "value": 91
		},
		{
		  "controller": 11,
		  "time": 29.9883720930233,
		  "value": 79
		},
		{
		  "controller": 11,
		  "time": 30.046511627907,
		  "value": 66
		},
		{
		  "controller": 11,
		  "time": 30.093023255814,
		  "value": 52
		},
		{
		  "controller": 11,
		  "time": 30.1511627906977,
		  "value": 31
		},
		{
		  "controller": 11,
		  "time": 30.2093023255814,
		  "value": 15
		},
		{
		  "controller": 11,
		  "time": 30.2441860465116,
		  "value": 4
		},
		{
		  "controller": 11,
		  "time": 30.5,
		  "value": 127
		},
		{
		  "controller": 11,
		  "time": 38.1511627906977,
		  "value": 120
		},
		{
		  "controller": 11,
		  "time": 38.2093023255814,
		  "value": 114
		},
		{
		  "controller": 11,
		  "time": 38.2674418604651,
		  "value": 103
		},
		{
		  "controller": 11,
		  "time": 38.3313953488372,
		  "value": 91
		},
		{
		  "controller": 11,
		  "time": 38.3604651162791,
		  "value": 79
		},
		{
		  "controller": 11,
		  "time": 38.4186046511628,
		  "value": 66
		},
		{
		  "controller": 11,
		  "time": 38.4651162790698,
		  "value": 52
		},
		{
		  "controller": 11,
		  "time": 38.5232558139535,
		  "value": 31
		},
		{
		  "controller": 11,
		  "time": 38.5813953488372,
		  "value": 15
		},
		{
		  "controller": 11,
		  "time": 38.6162790697674,
		  "value": 4
		},
		{
		  "controller": 11,
		  "time": 38.8720930232558,
		  "value": 127
		},
		{
		  "controller": 11,
		  "time": 124.662790697674,
		  "value": 120
		},
		{
		  "controller": 11,
		  "time": 124.720930232558,
		  "value": 114
		},
		{
		  "controller": 11,
		  "time": 124.779069767442,
		  "value": 103
		},
		{
		  "controller": 11,
		  "time": 124.843023255814,
		  "value": 91
		},
		{
		  "controller": 11,
		  "time": 124.872093023256,
		  "value": 79
		},
		{
		  "controller": 11,
		  "time": 124.93023255814,
		  "value": 66
		},
		{
		  "controller": 11,
		  "time": 124.976744186047,
		  "value": 52
		},
		{
		  "controller": 11,
		  "time": 125.03488372093,
		  "value": 31
		},
		{
		  "controller": 11,
		  "time": 125.093023255814,
		  "value": 15
		},
		{
		  "controller": 11,
		  "time": 125.127906976744,
		  "value": 4
		},
		{
		  "controller": 11,
		  "time": 125.383720930233,
		  "value": 127
		},
		{
		  "controller": 11,
		  "time": 133.03488372093,
		  "value": 120
		},
		{
		  "controller": 11,
		  "time": 133.093023255814,
		  "value": 114
		},
		{
		  "controller": 11,
		  "time": 133.151162790698,
		  "value": 103
		},
		{
		  "controller": 11,
		  "time": 133.21511627907,
		  "value": 91
		},
		{
		  "controller": 11,
		  "time": 133.244186046512,
		  "value": 79
		},
		{
		  "controller": 11,
		  "time": 133.302325581395,
		  "value": 66
		},
		{
		  "controller": 11,
		  "time": 133.348837209302,
		  "value": 52
		},
		{
		  "controller": 11,
		  "time": 133.406976744186,
		  "value": 31
		},
		{
		  "controller": 11,
		  "time": 133.46511627907,
		  "value": 15
		},
		{
		  "controller": 11,
		  "time": 133.5,
		  "value": 4
		},
		{
		  "controller": 11,
		  "time": 133.755813953488,
		  "value": 127
		},
		{
		  "controller": 11,
		  "time": 219.546511627907,
		  "value": 120
		},
		{
		  "controller": 11,
		  "time": 219.604651162791,
		  "value": 114
		},
		{
		  "controller": 11,
		  "time": 219.662790697674,
		  "value": 103
		},
		{
		  "controller": 11,
		  "time": 219.726744186047,
		  "value": 91
		},
		{
		  "controller": 11,
		  "time": 219.755813953488,
		  "value": 79
		},
		{
		  "controller": 11,
		  "time": 219.813953488372,
		  "value": 66
		},
		{
		  "controller": 11,
		  "time": 219.860465116279,
		  "value": 52
		},
		{
		  "controller": 11,
		  "time": 219.918604651163,
		  "value": 31
		},
		{
		  "controller": 11,
		  "time": 219.976744186047,
		  "value": 15
		},
		{
		  "controller": 11,
		  "time": 220.011627906977,
		  "value": 4
		},
		{
		  "controller": 11,
		  "time": 220.267441860465,
		  "value": 127
		},
		{
		  "controller": 11,
		  "time": 227.918604651163,
		  "value": 120
		},
		{
		  "controller": 11,
		  "time": 227.976744186047,
		  "value": 114
		},
		{
		  "controller": 11,
		  "time": 228.03488372093,
		  "value": 103
		},
		{
		  "controller": 11,
		  "time": 228.098837209302,
		  "value": 91
		},
		{
		  "controller": 11,
		  "time": 228.127906976744,
		  "value": 79
		},
		{
		  "controller": 11,
		  "time": 228.186046511628,
		  "value": 66
		},
		{
		  "controller": 11,
		  "time": 228.232558139535,
		  "value": 52
		},
		{
		  "controller": 11,
		  "time": 228.290697674419,
		  "value": 31
		},
		{
		  "controller": 11,
		  "time": 228.348837209302,
		  "value": 15
		},
		{
		  "controller": 11,
		  "time": 228.383720930233,
		  "value": 4
		},
		{
		  "controller": 11,
		  "time": 228.639534883721,
		  "value": 127
		}
	  ],
	  "channel": 4,
	  "instrument": 30,
	  "name": "Distortion Guitar",
	  "notes": [
		{
		  "duration": 0.0581395348837209,
		  "pitch": 45,
		  "start": 0.0,
		  "velocity": 110
		},
		{
		  "duration": 0.0581395348837209,
		  "pitch": 45,
		  "start": 0.116279069767442,
		  "velocity": 110
		},
		{
		  "duration": 0.0581395348837209,
		  "pitch": 45,
		  "start": 0.232558139534884,
		  "velocity": 110
		},
		{
		  "duration": 0.348837209302326,
		  "pitch": 48,
		  "start": 0.348837209302326,
		  "velocity": 110
		},
		{
		  "duration": 0.0581395348837209,
		  "pitch": 45,
		  "start": 0.697674418604651,
		  "velocity": 110
		},
		{
		  "duration": 0.0581395348837209,
		  "pitch": 45,
		  "start": 0.813953488372093,
		  "velocity": 110
		},
		{
		  "duration": 0.0581395348837209,
		  "pitch": 45,
		  "start": 0.930232558139535,
		  "velocity": 110
		},
		{
		  "duration": 0.348837209302326,
		  "pitch": 50,
		  "start": 1.04651162790698,
		  "velocity": 110
		},
		{
		  "duration": 0.0581395348837209,
		  "pitch": 45,
		  "start": 1.3953488372093,
		  "velocity": 110
		},
		{
		  "duration": 0.0581395348837209,
		  "pitch": 45,
		  "start": 1.51162790697674,
		  "velocity": 110
		},
		{
		  "duration": 0.0581395348837209,
		  "pitch": 45,
		  "start": 1.62790697674419,
		  "velocity": 110
		},
		{
		  "duration": 0.232558139534884,
		  "pitch": 50,
		  "start": 1.74418604651163,
		  "velocity": 110
		},
		{
		  "duration": 0.116279069767442,
		  "pitch": 48,
		  "start": 1.97674418604651,
		  "velocity": 110
		},
		{
		  "duration": 0.232558139534884,
		  "pitch": 48,
		  "start": 2.09302325581395,
		  "velocity": 110
		},
		{
		  "duration": 0.116279069767442,
		  "pitch": 47,
		  "start": 2.32558139534884,
		  "velocity": 110
		},
		{
		  "duration": 0.232558139534884,
		  "pitch": 48,
		  "start": 2.44186046511628,
		  "velocity": 110
		},
		{
		  "duration": 0.116279069767442,
		  "pitch": 47,
		  "start": 2.67441860465116,
		  "velocity": 110
		},
		{
		  "duration": 0.0581395348837209,
		  "pitch": 45,
		  "start": 2.7906976744186,
		  "velocity": 110
		},
		{
		  "duration": 0.0581395348837209,
		  "pitch": 45,
		  "start": 2.90697674418605,
		  "velocity": 110
		},
		{
		  "duration": 0.0581395348837209,
		  "pitch": 45,
		  "start": 3.02325581395349,
		  "velocity": 110
		},
		{
		  "duration": 0.348837209302326,
		  "pitch": 48,
		  "start": 3.13953488372093,
		  "velocity": 110
		},
		{
		  "duration": 0.0581395348837209,
		  "pitch": 45,
		  "start": 3.48837209302326,
		  "velocity": 110
		},
		{
		  "duration": 0.0581395348837209,
		  "pitch": 45,
		  "start": 3.6046511627907,
		  "velocity": 110
		},
		{
		  "duration": 0.0581395348837209,
		  "pitch": 45,
		  "start": 3.72093023255814,
		  "velocity": 110
		},
		{
		  "duration": 0.348837209302326,
		  "pitch": 50,
		  "start": 3.83720930232558,
		  "velocity": 110
		},
		{
		  "duration": 0.0581395348837209,
		  "pitch": 45,
		  "start": 4.18604651162791,
		  "velocity": 110
		},
		{
		  "duration": 0.0581395348837209,
		  "pitch": 45,
		  "start": 4.30232558139535,
		  "velocity": 110
		},
		{
		  "duration": 0.0581395348837209,
		  "pitch": 45,
		  "start": 4.41860465116279,
		  "velocity": 110
		},
		{
		  "duration": 0.232558139534884,
		  "pitch": 50,
		  "start": 4.53488372093023,
		  "velocity": 110
		},
		{
		  "duration": 0.116279069767442,
		  "pitch": 48,
		  "start": 4.76744186046512,
		  "velocity": 110
		},
		{
		  "duration": 0.232558139534884,
		  "pitch": 48,
		  "start": 4.88372093023256,
		  "velocity": 110
		},
		{
		  "duration": 0.116279069767442,
		  "pitch": 47,
		  "start": 5.11627906976744,
		  "velocity": 110
		},
		{
		  "duration": 0.232558139534884,
		  "pitch": 48,
		  "start": 5.23255813953488,
		  "velocity": 110
		},
		{
		  "duration": 0.116279069767442,
		  "pitch": 47,
		  "start": 5.46511627906977,
		  "velocity": 110
		},
		{
		  "duration": 0.0581395348837209,
		  "pitch": 48,
		  "start": 5.58139534883721,
		  "velocity": 110
		},
		{
		  "duration": 0.0581395348837209,
		  "pitch": 48,
		  "start": 5.69767441860465,
		  "velocity": 110
		},
		{
		  "duration": 0.0581395348837209,
		  "pitch": 48,
		  "start": 5.81395348837209,
		  "velocity": 110
		},
		{
		  "duration": 0.348837209302326,
		  "pitch": 51,
		  "start": 5.93023255813953,
		  "velocity": 110
		},
		{
		  "duration": 0.0581395348837209,
		  "pitch": 48,
		  "start": 6.27906976744186,
		  "velocity": 110
		},
		{
		  "duration": 0.0581395348837209,
		  "pitch": 48,
		  "start": 6.3953488372093,
		  "velocity": 110
		},
		{
		  "duration": 0.0581395348837209,
		  "pitch": 48,
		  "start": 6.51162790697674,
		  "velocity": 110
		},
		{
		  "duration": 0.348837209302326,
		  "pitch": 53,
		  "start": 6.62790697674419,
		  "velocity": 110
		},
		{
		  "duration": 0.0581395348837209,
		  "pitch": 48,
		  "start": 6.97674418604651,
		  "velocity": 110
		},
		{
		  "duration": 0.0581395348837209,
		  "pitch": 48,
		  "start": 7.09302325581395,
		  "velocity": 110
		},
		{
		  "duration": 0.0581395348837209,
		  "pitch": 48,
		  "start": 7.2093023255814,
		  "velocity": 110
		},
		{
		  "duration": 0.232558139534884,
		  "pitch": 53,
		  "start": 7.32558139534884,
		  "velocity": 110
		},
		{
		  "duration": 0.116279069767442,
		  "pitch": 51,
		  "start": 7.55813953488372,
		  "velocity": 110
		},
		{
		  "duration": 0.232558139534884,
		  "pitch": 51,
		  "start": 7.67441860465116,
		  "velocity": 110
		},
		{
		  "duration": 0.116279069767442,
		  "pitch": 50,
		  "start": 7.90697674418605,
		  "velocity": 110
		},
		{
		  "duration": 0.232558139534884,
		  "pitch": 51,
		  "start": 8.02325581395349,
		  "velocity": 110
		},
		{
		  "duration": 0.116279069767442,
		  "pitch": 50,
		  "start": 8.25581395348837,
		  "velocity": 110
		},
		{
		  "duration": 0.0581395348837209,
		  "pitch": 48,
		  "start": 8.37209302325581,
		  "velocity": 110
		},
		{
		  "duration": 0.0581395348837209,
		  "pitch": 48,
		  "start": 8.48837209302326,
		  "velocity": 110
		},
		{
		  "duration": 0.0581395348837209,
		  "pitch": 48,
		  "start": 8.6046511627907,
		  "velocity": 110
		},
		{
		  "duration": 0.348837209302326,
		  "pitch": 51,
		  "start": 8.72093023255814,
		  "velocity": 110
		},
		{
		  "duration": 0.0581395348837209,
		  "pitch": 48,
		  "start": 9.06976744186047,
		  "velocity": 110
		},
		{
		  "duration": 0.0581395348837209,
		  "pitch": 48,
		  "start": 9.18604651162791,
		  "velocity": 110
		},
		{
		  "duration": 0.0581395348837209,
		  "pitch": 48,
		  "start": 9.30232558139535,
		  "velocity": 110
		},
		{
		  "duration": 0.348837209302326,
		  "pitch": 53,
		  "start": 9.41860465116279,
		  "velocity": 110
		},
		{
		  "duration": 0.0581395348837209,
		  "pitch": 48,
		  "start": 9.76744186046512,
		  "velocity": 110
		},
		{
		  "duration": 0.0581395348837209,
		  "pitch": 48,
		  "start": 9.88372093023256,
		  "velocity": 110
		},
		{
		  "duration": 0.0581395348837209,
		  "pitch": 48,
		  "start": 10.0,
		  "velocity": 110
		},
		{
		  "duration": 0.232558139534884,
		  "pitch": 53,
		  "start": 10.1162790697674,
		  "velocity": 110
		},
		{
		  "duration": 0.116279069767442,
		  "pitch": 51,
		  "start": 10.3488372093023,
		  "velocity": 110
		},
		{
		  "duration": 0.232558139534884,
		  "pitch": 51,
		  "start": 10.4651162790698,
		  "velocity": 110
		},
		{
		  "duration": 0.116279069767442,
		  "pitch": 50,
		  "start": 10.6976744186047,
		  "velocity": 110
		},
		{
		  "duration": 0.232558139534884,
		  "pitch": 51,
		  "start": 10.8139534883721,
		  "velocity": 110
		},
		{
		  "duration": 0.116279069767442,
		  "pitch": 50,
		  "start": 11.046511627907,
		  "velocity": 110
		},
		{
		  "duration": 0.0581395348837209,
		  "pitch": 45,
		  "start": 11.1627906976744,
		  "velocity": 110
		},
		{
		  "duration": 0.0581395348837209,
		  "pitch": 45,
		  "start": 11.2790697674419,
		  "velocity": 110
		},
		{
		  "duration": 0.0581395348837209,
		  "pitch": 45,
		  "start": 11.3953488372093,
		  "velocity": 110
		},
		{
		  "duration": 0.348837209302326,
		  "pitch": 48,
		  "start": 11.5116279069767,
		  "velocity": 110
		},
		{
		  "duration": 0.0581395348837209,
		  "pitch": 45,
		  "start": 11.8604651162791,
		  "velocity": 110
		},
		{
		  "duration": 0.0581395348837209,
		  "pitch": 45,
		  "start": 11.9767441860465,
		  "velocity": 110
		},
		{
		  "duration": 0.0581395348837209,
		  "pitch": 45,
		  "start": 12.093023255814,
		  "velocity": 110
		},
		{
		  "duration": 0.348837209302326,
		  "pitch": 50,
		  "start": 12.2093023255814,
		  "velocity": 110
		},
		{
		  "duration": 0.0581395348837209,
		  "pitch": 45,
		  "start": 12.5581395348837,
		  "velocity": 110
		},
		{
		  "duration": 0.0581395348837209,
		  "pitch": 45,
		  "start": 12.6744186046512,
		  "velocity": 110
		},
		{
		  "duration": 0.0581395348837209,
		  "pitch": 45,
		  "start": 12.7906976744186,
		  "velocity": 110
		},
		{
		  "duration": 0.232558139534884,
		  "pitch": 50,
		  "start": 12.906976744186,
		  "velocity": 110
		},
		{
		  "duration": 0.116279069767442,
		  "pitch": 48,
		  "start": 13.1395348837209,
		  "velocity": 110
		},
		{
		  "duration": 0.232558139534884,
		  "pitch": 48,
		  "start": 13.2558139534884,
		  "velocity": 110
		},
		{
		  "duration": 0.116279069767442,
		  "pitch": 47,
		  "start": 13.4883720930233,
		  "velocity": 110
		},
		{
		  "duration": 0.232558139534884,
		  "pitch": 48,
		  "start": 13.6046511627907,
		  "velocity": 110
		},
		{
		  "duration": 0.116279069767442,
		  "pitch": 47,
		  "start": 13.8372093023256,
		  "velocity": 110
		},
		{
		  "duration": 0.0581395348837209,
		  "pitch": 45,
		  "start": 13.953488372093,
		  "velocity": 110
		},
		{
		  "duration": 0.0581395348837209,
		  "pitch": 45,
		  "start": 14.0697674418605,
		  "velocity": 110
		},
		{
		  "duration": 0.0581395348837209,
		  "pitch": 45,
		  "start": 14.1860465116279,
		  "velocity": 110
		},
		{
		  "duration": 0.348837209302326,
		  "pitch": 48,
		  "start": 14.3023255813953,
		  "velocity": 110
		},
		{
		  "duration": 0.0581395348837209,
		  "pitch": 45,
		  "start": 14.6511627906977,
		  "velocity": 110
		},
		{
		  "duration": 0.0581395348837209,
		  "pitch": 45,
		  "start": 14.7674418604651,
		  "velocity": 110
		},
		{
		  "duration": 0.0581395348837209,
		  "pitch": 45,
		  "start": 14.8837209302326,
		  "velocity": 110
		},
		{
		  "duration": 0.348837209302326,
		  "pitch": 50,
		  "start": 15.0,
		  "velocity": 110
		},
		{
		  "duration": 0.0581395348837209,
		  "pitch": 45,
		  "start": 15.3488372093023,
		  "velocity": 110
		},
		{
		  "duration": 0.0581395348837209,
		  "pitch": 45,
		  "start": 15.4651162790698,
		  "velocity": 110
		},
		{
		  "duration": 0.0581395348837209,
		  "pitch": 45,
		  "start": 15.5813953488372,
		  "velocity": 110
		},
		{
		  "duration": 0.232558139534884,
		  "pitch": 50,
		  "start": 15.6976744186047,
		  "velocity": 110
		},
		{
		  "duration": 0.116279069767442,
		  "pitch": 48,
		  "start": 15.9302325581395,
		  "velocity": 110
		},
		{
		  "duration": 0.232558139534884,
		  "pitch": 48,
		  "start": 16.046511627907,
		  "velocity": 110
		},
		{
		  "duration": 0.116279069767442,
		  "pitch": 47,
		  "start": 16.2790697674419,
		  "velocity": 110
		},
		{
		  "duration": 0.232558139534884,
		  "pitch": 48,
		  "start": 16.3953488372093,
		  "velocity": 110
		},
		{
		  "duration": 0.116279069767442,
		  "pitch": 47,
		  "start": 16.6279069767442,
		  "velocity": 110
		},
		{
		  "duration": 0.0581395348837209,
		  "pitch": 48,
		  "start": 16.7441860465116,
		  "velocity": 110
		},
		{
		  "duration": 0.0581395348837209,
		  "pitch": 48,
		  "start": 16.8604651162791,
		  "velocity": 110
		},
		{
		  "duration": 0.0581395348837209,
		  "pitch": 48,
		  "start": 16.9767441860465,
		  "velocity": 110
		},
		{
		  "duration": 0.348837209302326,
		  "pitch": 51,
		  "start": 17.093023255814,
		  "velocity": 110
		},
		{
		  "duration": 0.0581395348837209,
		  "pitch": 48,
		  "start": 17.4418604651163,
		  "velocity": 110
		},
		{
		  "duration": 0.0581395348837209,
		  "pitch": 48,
		  "start": 17.5581395348837,
		  "velocity": 110
		},
		{
		  "duration": 0.0581395348837209,
		  "pitch": 48,
		  "start": 17.6744186046512,
		  "velocity": 110
		},
		{
		  "duration": 0.348837209302326,
		  "pitch": 53,
		  "start": 17.7906976744186,
		  "velocity": 110
		},
		{
		  "duration": 0.0581395348837209,
		  "pitch": 48,
		  "start": 18.1395348837209,
		  "velocity": 110
		},
		{
		  "duration": 0.0581395348837209,
		  "pitch": 48,
		  "start": 18.2558139534884,
		  "velocity": 110
		},
		{
		  "duration": 0.0581395348837209,
		  "pitch": 48,
		  "start": 18.3720930232558,
		  "velocity": 110
		},
		{
		  "duration": 0.232558139534884,
		  "pitch": 53,
		  "start": 18.4883720930233,
		  "velocity": 110
		},
		{
		  "duration": 0.116279069767442,
		  "pitch": 51,
		  "start": 18.7209302325581,
		  "velocity": 110
		},
		{
		  "duration": 0.232558139534884,
		  "pitch": 51,
		  "start": 18.8372093023256,
		  "velocity": 110
		},
		{
		  "duration": 0.116279069767442,
		  "pitch": 50,
		  "start": 19.0697674418605,
		  "velocity": 110
		},
		{
		  "duration": 0.232558139534884,
		  "pitch": 51,
		  "start": 19.1860465116279,
		  "velocity": 110
		},
		{
		  "duration": 0.116279069767442,
		  "pitch": 50,
		  "start": 19.4186046511628,
		  "velocity": 110
		},
		{
		  "duration": 0.0581395348837209,
		  "pitch": 48,
		  "start": 19.5348837209302,
		  "velocity": 110
		},
		{
		  "duration": 0.0581395348837209,
		  "pitch": 48,
		  "start": 19.6511627906977,
		  "velocity": 110
		},
		{
		  "duration": 0.0581395348837209,
		  "pitch": 48,
		  "start": 19.7674418604651,
		  "velocity": 110
		},
		{
		  "duration": 0.348837209302326,
		  "pitch": 51,
		  "start": 19.8837209302326,
		  "velocity": 110
		},
		{
		  "duration": 0.0581395348837209,
		  "pitch": 48,
		  "start": 20.2325581395349,
		  "velocity": 110
		},
		{
		  "duration": 0.0581395348837209,
		  "pitch": 48,
		  "start": 20.3488372093023,
		  "velocity": 110
		},
		{
		  "duration": 0.0581395348837209,
		  "pitch": 48,
		  "start": 20.4651162790698,
		  "velocity": 110
		},
		{
		  "duration": 0.348837209302326,
		  "pitch": 53,
		  "start": 20.5813953488372,
		  "velocity": 110
		},
		{
		  "duration": 0.0581395348837209,
		  "pitch": 48,
		  "start": 20.9302325581395,
		  "velocity": 110
		},
		{
		  "duration": 0.0581395348837209,
		  "pitch": 48,
		  "start": 21.046511627907,
		  "velocity": 110
		},
		{
		  "duration": 0.0581395348837209,
		  "pitch": 48,
		  "start": 21.1627906976744,
		  "velocity": 110
		},
		{
		  "duration": 0.232558139534884,
		  "pitch": 53,
		  "start": 21.2790697674419,
		  "velocity": 110
		},
		{
		  "duration": 0.116279069767442,
		  "pitch": 51,
		  "start": 21.5116279069767,
		  "velocity": 110
		},
		{
		  "duration": 0.232558139534884,
		  "pitch": 51,
		  "start": 21.6279069767442,
		  "velocity": 110
		},
		{
		  "duration": 0.116279069767442,
		  "pitch": 50,
		  "start": 21.8604651162791,
		  "velocity": 110
		},
		{
		  "duration": 0.232558139534884,
		  "pitch": 51,
		  "start": 21.9767441860465,
		  "velocity": 110
		},
		{
		  "duration": 0.116279069767442,
		  "pitch": 50,
		  "start": 22.2093023255814,
		  "velocity": 110
		},
		{
		  "duration": 0.697674418604651,
		  "pitch": 45,
		  "start": 22.3255813953488,
		  "velocity": 110
		},
		{
		  "duration": 0.697674418604651,
		  "pitch": 47,
		  "start": 23.0232558139535,
		  "velocity": 110
		},
		{
		  "duration": 0.697674418604651,
		  "pitch": 48,
		  "start": 23.7209302325581,
		  "velocity": 110
		},
		{
		  "duration": 0.697674418604651,
		  "pitch": 50,
		  "start": 24.4186046511628,
		  "velocity": 110
		},
		{
		  "duration": 1.04651162790698,
		  "pitch": 41,
		  "start": 25.1162790697674,
		  "velocity": 110
		},
		{
		  "duration": 0.348837209302326,
		  "pitch": 43,
		  "start": 26.1627906976744,
		  "velocity": 110
		},
		{
		  "duration": 0.697674418604651,
		  "pitch": 45,
		  "start": 26.5116279069767,
		  "velocity": 110
		},
		{
		  "duration": 0.697674418604651,
		  "pitch": 40,
		  "start": 27.2093023255814,
		  "velocity": 110
		},
		{
		  "duration": 2.44186046511628,
		  "pitch": 45,
		  "start": 27.906976744186,
		  "velocity": 110
		},
		{
		  "duration": 0.697674418604651,
		  "pitch": 45,
		  "start": 30.6976744186047,
		  "velocity": 110
		},
		{
		  "duration": 0.697674418604651,
		  "pitch": 47,
		  "start": 31.3953488372093,
		  "velocity": 110
		},
		{
		  "duration": 0.697674418604651,
		  "pitch": 48,
		  "start": 32.093023255814,
		  "velocity": 110
		},
		{
		  "duration": 0.697674418604651,
		  "pitch": 50,
		  "start": 32.7906976744186,
		  "velocity": 110
		},
		{
		  "duration": 1.04651162790698,
		  "pitch": 41,
		  "start": 33.4883720930233,
		  "velocity": 110
		},
		{
		  "duration": 0.348837209302326,
		  "pitch": 43,
		  "start": 34.5348837209302,
		  "velocity": 110
		},
		{
		  "duration": 0.697674418604651,
		  "pitch": 45,
		  "start": 34.8837209302326,
		  "velocity": 110
		},
		{
		  "duration": 0.697674418604651,
		  "pitch": 40,
		  "start": 35.5813953488372,
		  "velocity": 110
		},
		{
		  "duration": 2.44186046511628,
		  "pitch": 45,
		  "start": 36.2790697674419,
		  "velocity": 110
		},
		{
		  "duration": 0.0581395348837209,
		  "pitch": 45,
		  "start": 39.0697674418605,
		  "velocity": 110
		},
		{
		  "duration": 0.0581395348837209,
		  "pitch": 45,
		  "start": 39.1860465116279,
		  "velocity": 110
		},
		{
		  "duration": 0.0581395348837209,
		  "pitch": 45,
		  "start": 39.3023255813954,
		  "velocity": 110
		},
		{
		  "duration": 0.0581395348837209,
		  "pitch": 45,
		  "start": 39.4186046511628,
		  "velocity": 110
		},
		{
		  "duration": 0.0581395348837209,
		  "pitch": 45,
		  "start": 39.5348837209302,
		  "velocity": 110
		},
		{
		  "duration": 0.0581395348837209,
		  "pitch": 45,
		  "start": 39.6511627906977,
		  "velocity": 110
		},
		{
		  "duration": 0.232558139534884,
		  "pitch": 45,
		  "start": 39.7674418604651,
		  "velocity": 110
		},
		{
		  "duration": 0.116279069767442,
		  "pitch": 45,
		  "start": 40.0,
		  "velocity": 110
		},
		{
		  "duration": 0.116279069767442,
		  "pitch": 45,
		  "start": 40.1162790697674,
		  "velocity": 110
		},
		{
		  "duration": 0.0581395348837209,
		  "pitch": 45,
		  "start": 40.2325581395349,
		  "velocity": 64
		},
		{
		  "duration": 0.0581395348837209,
		  "pitch": 45,
		  "start": 40.3488372093023,
		  "velocity": 64
		},
		{
		  "duration": 0.0581395348837209,
		  "pitch": 45,
		  "start": 40.4651162790698,
		  "velocity": 110
		},
		{
		  "duration": 0.0581395348837209,
		  "pitch": 45,
		  "start": 40.5813953488372,
		  "velocity": 110
		},
		{
		  "duration": 0.0581395348837209,
		  "pitch": 45,
		  "start": 40.6976744186046,
		  "velocity": 110
		},
		{
		  "duration": 0.0581395348837209,
		  "pitch": 45,
		  "start": 40.8139534883721,
		  "velocity": 110
		},
		{
		  "duration": 0.0581395348837209,
		  "pitch": 45,
		  "start": 40.9302325581395,
		  "velocity": 110
		},
		{
		  "duration": 0.0581395348837209,
		  "pitch": 45,
		  "start": 41.046511627907,
		  "velocity": 110
		},
		{
		  "duration": 0.232558139534884,
		  "pitch": 45,
		  "start": 41.1627906976744,
		  "velocity": 110
		},
		{
		  "duration": 0.116279069767442,
		  "pitch": 45,
		  "start": 41.3953488372093,
		  "velocity": 110
		},
		{
		  "duration": 0.116279069767442,
		  "pitch": 45,
		  "start": 41.5116279069767,
		  "velocity": 110
		},
		{
		  "duration": 0.0581395348837209,
		  "pitch": 45,
		  "start": 41.6279069767442,
		  "velocity": 64
		},
		{
		  "duration": 0.0581395348837209,
		  "pitch": 45,
		  "start": 41.7441860465116,
		  "velocity": 64
		},
		{
		  "duration": 0.0581395348837209,
		  "pitch": 45,
		  "start": 41.8604651162791,
		  "velocity": 110
		},
		{
		  "duration": 0.0581395348837209,
		  "pitch": 45,
		  "start": 41.9767441860465,
		  "velocity": 110
		},
		{
		  "duration": 0.0581395348837209,
		  "pitch": 45,
		  "start": 42.093023255814,
		  "velocity": 110
		},
		{
		  "duration": 0.0581395348837209,
		  "pitch": 45,
		  "start": 42.2093023255814,
		  "velocity": 110
		},
		{
		  "duration": 0.0581395348837209,
		  "pitch": 45,
		  "start": 42.3255813953488,
		  "velocity": 110
		},
		{
		  "duration": 0.0581395348837209,
		  "pitch": 45,
		  "start": 42.4418604651163,
		  "velocity": 110
		},
		{
		  "duration": 0.232558139534884,
		  "pitch": 45,
		  "start": 42.5581395348837,
		  "velocity": 110
		},
		{
		  "duration": 0.116279069767442,
		  "pitch": 45,
		  "start": 42.7906976744186,
		  "velocity": 110
		},
		{
		  "duration": 0.116279069767442,
		  "pitch": 45,
		  "start": 42.906976744186,
		  "velocity": 110
		},
		{
		  "duration": 0.0581395348837209,
		  "pitch": 45,
		  "start": 43.0232558139535,
		  "velocity": 64
		},
		{
		  "duration": 0.0581395348837209,
		  "pitch": 45,
		  "start": 43.1395348837209,
		  "velocity": 64
		},
		{
		  "duration": 0.0581395348837209,
		  "pitch": 45,
		  "start": 43.2558139534884,
		  "velocity": 110
		},
		{
		  "duration": 0.0581395348837209,
		  "pitch": 45,
		  "start": 43.3720930232558,
		  "velocity": 110
		},
		{
		  "duration": 0.0581395348837209,
		  "pitch": 45,
		  "start": 43.4883720930233,
		  "velocity": 110
		},
		{
		  "duration": 0.0581395348837209,
		  "pitch": 45,
		  "start": 43.6046511627907,
		  "velocity": 110
		},
		{
		  "duration": 0.0581395348837209,
		  "pitch": 45,
		  "start": 43.7209302325581,
		  "velocity": 110
		},
		{
		  "duration": 0.0581395348837209,
		  "pitch": 45,
		  "start": 43.8372093023256,
		  "velocity": 110
		},
		{
		  "duration": 0.232558139534884,
		  "pitch": 45,
		  "start": 43.953488372093,
		  "velocity": 110
		},
		{
		  "duration": 0.116279069767442,
		  "pitch": 45,
		  "start": 44.1860465116279,
		  "velocity": 110
		},
		{
		  "duration": 0.116279069767442,
		  "pitch": 45,
		  "start": 44.3023255813954,
		  "velocity": 110
		},
		{
		  "duration": 0.0581395348837209,
		  "pitch": 45,
		  "start": 44.4186046511628,
		  "velocity": 64
		},
		{
		  "duration": 0.0581395348837209,
		  "pitch": 45,
		  "start": 44.5348837209302,
		  "velocity": 64
		},
		{
		  "duration": 0.0581395348837209,
		  "pitch": 45,
		  "start": 44.6511627906977,
		  "velocity": 110
		},
		{
		  "duration": 0.0581395348837209,
		  "pitch": 45,
		  "start": 44.7674418604651,
		  "velocity": 110
		},
		{
		  "duration": 0.0581395348837209,
		  "pitch": 45,
		  "start": 44.8837209302326,
		  "velocity": 110
		},
		{
		  "duration": 0.0581395348837209,
		  "pitch": 45,
		  "start": 45.0,
		  "velocity": 110
		},
		{
		  "duration": 0.0581395348837209,
		  "pitch": 45,
		  "start": 45.1162790697674,
		  "velocity": 110
		},
		{
		  "duration": 0.0581395348837209,
		  "pitch": 45,
		  "start": 45.2325581395349,
		  "velocity": 110
		},
		{
		  "duration": 0.232558139534884,
		  "pitch": 45,
		  "start": 45.3488372093023,
		  "velocity": 110
		},
		{
		  "duration": 0.116279069767442,
		  "pitch": 45,
		  "start": 45.5813953488372,
		  "velocity": 110
		},
		{
		  "duration": 0.116279069767442,
		  "pitch": 45,
		  "start": 45.6976744186046,
		  "velocity": 110
		},
		{
		  "duration": 0.0581395348837209,
		  "pitch": 45,
		  "start": 45.8139534883721,
		  "velocity": 64
		},
		{
		  "duration": 0.0581395348837209,
		  "pitch": 45,
		  "start": 45.9302325581395,
		  "velocity": 64
		},
		{
		  "duration": 0.0581395348837209,
		  "pitch": 45,
		  "start": 46.046511627907,
		  "velocity": 110
		},
		{
		  "duration": 0.0581395348837209,
		  "pitch": 45,
		  "start": 46.1627906976744,
		  "velocity": 110
		},
		{
		  "duration": 0.0581395348837209,
		  "pitch": 45,
		  "start": 46.2790697674419,
		  "velocity": 110
		},
		{
		  "duration": 0.0581395348837209,
		  "pitch": 45,
		  "start": 46.3953488372093,
		  "velocity": 110
		},
		{
		  "duration": 0.0581395348837209,
		  "pitch": 45,
		  "start": 46.5116279069767,
		  "velocity": 110
		},
		{
		  "duration": 0.0581395348837209,
		  "pitch": 45,
		  "start": 46.6279069767442,
		  "velocity": 110
		},
		{
		  "duration": 0.232558139534884,
		  "pitch": 45,
		  "start": 46.7441860465116,
		  "velocity": 110
		},
		{
		  "duration": 0.116279069767442,
		  "pitch": 45,
		  "start": 46.9767441860465,
		  "velocity": 110
		},
		{
		  "duration": 0.116279069767442,
		  "pitch": 45,
		  "start": 47.093023255814,
		  "velocity": 110
		},
		{
		  "duration": 0.0581395348837209,
		  "pitch": 45,
		  "start": 47.2093023255814,
		  "velocity": 64
		},
		{
		  "duration": 0.0581395348837209,
		  "pitch": 45,
		  "start": 47.3255813953488,
		  "velocity": 64
		},
		{
		  "duration": 0.0581395348837209,
		  "pitch": 45,
		  "start": 47.4418604651163,
		  "velocity": 110
		},
		{
		  "duration": 0.0581395348837209,
		  "pitch": 45,
		  "start": 47.5581395348837,
		  "velocity": 110
		},
		{
		  "duration": 0.0581395348837209,
		  "pitch": 45,
		  "start": 47.6744186046512,
		  "velocity": 110
		},
		{
		  "duration": 0.0581395348837209,
		  "pitch": 45,
		  "start": 47.7906976744186,
		  "velocity": 110
		},
		{
		  "duration": 0.0581395348837209,
		  "pitch": 45,
		  "start": 47.906976744186,
		  "velocity": 110
		},
		{
		  "duration": 0.0581395348837209,
		  "pitch": 45,
		  "start": 48.0232558139535,
		  "velocity": 110
		},
		{
		  "duration": 0.232558139534884,
		  "pitch": 45,
		  "start": 48.1395348837209,
		  "velocity": 110
		},
		{
		  "duration": 0.116279069767442,
		  "pitch": 45,
		  "start": 48.3720930232558,
		  "velocity": 110
		},
		{
		  "duration": 0.116279069767442,
		  "pitch": 45,
		  "start": 48.4883720930233,
		  "velocity": 110
		},
		{
		  "duration": 0.0581395348837209,
		  "pitch": 45,
		  "start": 48.6046511627907,
		  "velocity": 64
		},
		{
		  "duration": 0.0581395348837209,
		  "pitch": 45,
		  "start": 48.7209302325581,
		  "velocity": 64
		},
		{
		  "duration": 0.0581395348837209,
		  "pitch": 45,
		  "start": 48.8372093023256,
		  "velocity": 110
		},
		{
		  "duration": 0.0581395348837209,
		  "pitch": 45,
		  "start": 48.953488372093,
		  "velocity": 110
		},
		{
		  "duration": 0.0581395348837209,
		  "pitch": 45,
		  "start": 49.0697674418605,
		  "velocity": 110
		},
		{
		  "duration": 0.0581395348837209,
		  "pitch": 45,
		  "start": 49.1860465116279,
		  "velocity": 110
		},
		{
		  "duration": 0.0581395348837209,
		  "pitch": 45,
		  "start": 49.3023255813954,
		  "velocity": 110
		},
		{
		  "duration": 0.0581395348837209,
		  "pitch": 45,
		  "start": 49.4186046511628,
		  "velocity": 110
		},
		{
		  "duration": 0.232558139534884,
		  "pitch": 45,
		  "start": 49.5348837209302,
		  "velocity": 110
		},
		{
		  "duration": 0.116279069767442,
		  "pitch": 45,
		  "start": 49.7674418604651,
		  "velocity": 110
		},
		{
		  "duration": 0.116279069767442,
		  "pitch": 45,
		  "start": 49.8837209302326,
		  "velocity": 110
		},
		{
		  "duration": 0.0581395348837209,
		  "pitch": 45,
		  "start": 50.0,
		  "velocity": 64
		},
		{
		  "duration": 0.0581395348837209,
		  "pitch": 45,
		  "start": 50.1162790697674,
		  "velocity": 64
		},
		{
		  "duration": 0.697674418604651,
		  "pitch": 47,
		  "start": 50.2325581395349,
		  "velocity": 110
		},
		{
		  "duration": 0.348837209302326,
		  "pitch": 48,
		  "start": 50.9302325581395,
		  "velocity": 110
		},
		{
		  "duration": 0.348837209302326,
		  "pitch": 50,
		  "start": 51.2790697674419,
		  "velocity": 110
		},
		{
		  "duration": 1.3953488372093,
		  "pitch": 52,
		  "start": 51.6279069767442,
		  "velocity": 110
		},
		{
		  "duration": 0.0581395348837209,
		  "pitch": 43,
		  "start": 53.0232558139535,
		  "velocity": 110
		},
		{
		  "duration": 0.0581395348837209,
		  "pitch": 43,
		  "start": 53.2558139534884,
		  "velocity": 110
		},
		{
		  "duration": 0.0581395348837209,
		  "pitch": 43,
		  "start": 53.3720930232558,
		  "velocity": 110
		},
		{
		  "duration": 0.0581395348837209,
		  "pitch": 43,
		  "start": 53.4883720930233,
		  "velocity": 110
		},
		{
		  "duration": 0.0581395348837209,
		  "pitch": 43,
		  "start": 53.6046511627907,
		  "velocity": 110
		},
		{
		  "duration": 0.0581395348837209,
		  "pitch": 43,
		  "start": 53.7209302325581,
		  "velocity": 110
		},
		{
		  "duration": 0.0581395348837209,
		  "pitch": 43,
		  "start": 53.8372093023256,
		  "velocity": 110
		},
		{
		  "duration": 0.0581395348837209,
		  "pitch": 43,
		  "start": 53.953488372093,
		  "velocity": 110
		},
		{
		  "duration": 0.0581395348837209,
		  "pitch": 43,
		  "start": 54.0697674418605,
		  "velocity": 110
		},
		{
		  "duration": 0.0581395348837209,
		  "pitch": 43,
		  "start": 54.1860465116279,
		  "velocity": 110
		},
		{
		  "duration": 0.0581395348837209,
		  "pitch": 43,
		  "start": 54.3023255813954,
		  "velocity": 110
		},
		{
		  "duration": 0.0581395348837209,
		  "pitch": 43,
		  "start": 54.4186046511628,
		  "velocity": 110
		},
		{
		  "duration": 0.0581395348837209,
		  "pitch": 43,
		  "start": 54.6511627906977,
		  "velocity": 110
		},
		{
		  "duration": 0.0581395348837209,
		  "pitch": 43,
		  "start": 54.7674418604651,
		  "velocity": 110
		},
		{
		  "duration": 0.0581395348837209,
		  "pitch": 43,
		  "start": 54.8837209302326,
		  "velocity": 110
		},
		{
		  "duration": 0.0581395348837209,
		  "pitch": 43,
		  "start": 55.0,
		  "velocity": 110
		},
		{
		  "duration": 0.0581395348837209,
		  "pitch": 43,
		  "start": 55.1162790697674,
		  "velocity": 110
		},
		{
		  "duration": 0.0581395348837209,
		  "pitch": 43,
		  "start": 55.2325581395349,
		  "velocity": 110
		},
		{
		  "duration": 0.0581395348837209,
		  "pitch": 43,
		  "start": 55.3488372093023,
		  "velocity": 110
		},
		{
		  "duration": 0.0581395348837209,
		  "pitch": 43,
		  "start": 55.4651162790698,
		  "velocity": 110
		},
		{
		  "duration": 0.0581395348837209,
		  "pitch": 43,
		  "start": 55.5813953488372,
		  "velocity": 110
		},
		{
		  "duration": 0.0581395348837209,
		  "pitch": 43,
		  "start": 55.6976744186046,
		  "velocity": 110
		},
		{
		  "duration": 0.697674418604651,
		  "pitch": 45,
		  "start": 55.8139534883721,
		  "velocity": 110
		},
		{
		  "duration": 0.348837209302326,
		  "pitch": 47,
		  "start": 56.5116279069767,
		  "velocity": 110
		},
		{
		  "duration": 0.348837209302326,
		  "pitch": 49,
		  "start": 56.8604651162791,
		  "velocity": 110
		},
		{
		  "duration": 1.3953488372093,
		  "pitch": 50,
		  "start": 57.2093023255814,
		  "velocity": 110
		},
		{
		  "duration": 0.0581395348837209,
		  "pitch": 45,
		  "start": 58.6046511627907,
		  "velocity": 110
		},
		{
		  "duration": 0.0581395348837209,
		  "pitch": 45,
		  "start": 58.8372093023256,
		  "velocity": 110
		},
		{
		  "duration": 0.0581395348837209,
		  "pitch": 45,
		  "start": 58.953488372093,
		  "velocity": 110
		},
		{
		  "duration": 0.0581395348837209,
		  "pitch": 45,
		  "start": 59.0697674418605,
		  "velocity": 110
		},
		{
		  "duration": 0.0581395348837209,
		  "pitch": 45,
		  "start": 59.1860465116279,
		  "velocity": 110
		},
		{
		  "duration": 0.0581395348837209,
		  "pitch": 45,
		  "start": 59.3023255813954,
		  "velocity": 110
		},
		{
		  "duration": 0.0581395348837209,
		  "pitch": 45,
		  "start": 59.4186046511628,
		  "velocity": 110
		},
		{
		  "duration": 0.0581395348837209,
		  "pitch": 45,
		  "start": 59.5348837209302,
		  "velocity": 110
		},
		{
		  "duration": 0.0581395348837209,
		  "pitch": 45,
		  "start": 59.6511627906977,
		  "velocity": 110
		},
		{
		  "duration": 0.0581395348837209,
		  "pitch": 45,
		  "start": 59.7674418604651,
		  "velocity": 110
		},
		{
		  "duration": 0.0581395348837209,
		  "pitch": 45,
		  "start": 59.8837209302326,
		  "velocity": 110
		},
		{
		  "duration": 0.0581395348837209,
		  "pitch": 46,
		  "start": 60.0,
		  "velocity": 110
		},
		{
		  "duration": 0.0581395348837209,
		  "pitch": 46,
		  "start": 60.2325581395349,
		  "velocity": 110
		},
		{
		  "duration": 0.0581395348837209,
		  "pitch": 46,
		  "start": 60.3488372093023,
		  "velocity": 110
		},
		{
		  "duration": 0.0581395348837209,
		  "pitch": 46,
		  "start": 60.4651162790698,
		  "velocity": 110
		},
		{
		  "duration": 0.0581395348837209,
		  "pitch": 46,
		  "start": 60.5813953488372,
		  "velocity": 110
		},
		{
		  "duration": 0.0581395348837209,
		  "pitch": 46,
		  "start": 60.6976744186046,
		  "velocity": 110
		},
		{
		  "duration": 0.0581395348837209,
		  "pitch": 46,
		  "start": 60.8139534883721,
		  "velocity": 110
		},
		{
		  "duration": 0.0581395348837209,
		  "pitch": 46,
		  "start": 60.9302325581395,
		  "velocity": 110
		},
		{
		  "duration": 0.0581395348837209,
		  "pitch": 46,
		  "start": 61.046511627907,
		  "velocity": 110
		},
		{
		  "duration": 0.0581395348837209,
		  "pitch": 46,
		  "start": 61.1627906976744,
		  "velocity": 110
		},
		{
		  "duration": 0.0581395348837209,
		  "pitch": 46,
		  "start": 61.2790697674419,
		  "velocity": 110
		},
		{
		  "duration": 0.0581395348837209,
		  "pitch": 50,
		  "start": 61.3953488372093,
		  "velocity": 110
		},
		{
		  "duration": 0.0581395348837209,
		  "pitch": 50,
		  "start": 61.6279069767442,
		  "velocity": 110
		},
		{
		  "duration": 0.0581395348837209,
		  "pitch": 50,
		  "start": 61.7441860465116,
		  "velocity": 110
		},
		{
		  "duration": 0.0581395348837209,
		  "pitch": 50,
		  "start": 61.9767441860465,
		  "velocity": 110
		},
		{
		  "duration": 0.0581395348837209,
		  "pitch": 50,
		  "start": 62.093023255814,
		  "velocity": 110
		},
		{
		  "duration": 0.0581395348837209,
		  "pitch": 50,
		  "start": 62.3255813953488,
		  "velocity": 110
		},
		{
		  "duration": 0.0581395348837209,
		  "pitch": 48,
		  "start": 62.4418604651163,
		  "velocity": 110
		},
		{
		  "duration": 0.0581395348837209,
		  "pitch": 48,
		  "start": 62.6744186046512,
		  "velocity": 110
		},
		{
		  "duration": 0.0581395348837209,
		  "pitch": 50,
		  "start": 62.7906976744186,
		  "velocity": 110
		},
		{
		  "duration": 0.0581395348837209,
		  "pitch": 50,
		  "start": 63.0232558139535,
		  "velocity": 110
		},
		{
		  "duration": 0.0581395348837209,
		  "pitch": 50,
		  "start": 63.1395348837209,
		  "velocity": 110
		},
		{
		  "duration": 0.0581395348837209,
		  "pitch": 50,
		  "start": 63.3720930232558,
		  "velocity": 110
		},
		{
		  "duration": 0.0581395348837209,
		  "pitch": 50,
		  "start": 63.4883720930233,
		  "velocity": 110
		},
		{
		  "duration": 0.0581395348837209,
		  "pitch": 50,
		  "start": 63.7209302325581,
		  "velocity": 110
		},
		{
		  "duration": 0.0581395348837209,
		  "pitch": 48,
		  "start": 63.8372093023256,
		  "velocity": 110
		},
		{
		  "duration": 0.0581395348837209,
		  "pitch": 48,
		  "start": 64.0697674418605,
		  "velocity": 110
		},
		{
		  "duration": 0.0581395348837209,
		  "pitch": 50,
		  "start": 64.1860465116279,
		  "velocity": 110
		},
		{
		  "duration": 0.0581395348837209,
		  "pitch": 50,
		  "start": 64.4186046511628,
		  "velocity": 110
		},
		{
		  "duration": 0.0581395348837209,
		  "pitch": 50,
		  "start": 64.5348837209302,
		  "velocity": 110
		},
		{
		  "duration": 0.0581395348837209,
		  "pitch": 50,
		  "start": 64.7674418604651,
		  "velocity": 110
		},
		{
		  "duration": 0.0581395348837209,
		  "pitch": 50,
		  "start": 64.8837209302326,
		  "velocity": 110
		},
		{
		  "duration": 0.0581395348837209,
		  "pitch": 50,
		  "start": 65.1162790697674,
		  "velocity": 110
		},
		{
		  "duration": 0.0581395348837209,
		  "pitch": 48,
		  "start": 65.2325581395349,
		  "velocity": 110
		},
		{
		  "duration": 0.0581395348837209,
		  "pitch": 48,
		  "start": 65.4651162790698,
		  "velocity": 110
		},
		{
		  "duration": 0.0581395348837209,
		  "pitch": 50,
		  "start": 65.5813953488372,
		  "velocity": 110
		},
		{
		  "duration": 0.0581395348837209,
		  "pitch": 50,
		  "start": 65.8139534883721,
		  "velocity": 110
		},
		{
		  "duration": 0.0581395348837209,
		  "pitch": 50,
		  "start": 65.9302325581395,
		  "velocity": 110
		},
		{
		  "duration": 0.0581395348837209,
		  "pitch": 50,
		  "start": 66.1627906976744,
		  "velocity": 110
		},
		{
		  "duration": 0.0581395348837209,
		  "pitch": 50,
		  "start": 66.2790697674419,
		  "velocity": 110
		},
		{
		  "duration": 0.0581395348837209,
		  "pitch": 50,
		  "start": 66.5116279069767,
		  "velocity": 110
		},
		{
		  "duration": 0.116279069767442,
		  "pitch": 48,
		  "start": 66.6279069767442,
		  "velocity": 110
		},
		{
		  "duration": 0.116279069767442,
		  "pitch": 46,
		  "start": 66.7441860465116,
		  "velocity": 110
		},
		{
		  "duration": 0.116279069767442,
		  "pitch": 43,
		  "start": 66.8604651162791,
		  "velocity": 110
		},
		{
		  "duration": 0.0581395348837209,
		  "pitch": 45,
		  "start": 66.9767441860465,
		  "velocity": 110
		},
		{
		  "duration": 0.0581395348837209,
		  "pitch": 45,
		  "start": 67.2093023255814,
		  "velocity": 110
		},
		{
		  "duration": 0.0581395348837209,
		  "pitch": 45,
		  "start": 67.3255813953488,
		  "velocity": 110
		},
		{
		  "duration": 0.0581395348837209,
		  "pitch": 45,
		  "start": 67.5581395348837,
		  "velocity": 110
		},
		{
		  "duration": 0.0581395348837209,
		  "pitch": 45,
		  "start": 67.6744186046512,
		  "velocity": 110
		},
		{
		  "duration": 0.0581395348837209,
		  "pitch": 45,
		  "start": 67.9069767441861,
		  "velocity": 110
		},
		{
		  "duration": 0.0581395348837209,
		  "pitch": 45,
		  "start": 68.0232558139535,
		  "velocity": 110
		},
		{
		  "duration": 0.0581395348837209,
		  "pitch": 45,
		  "start": 68.2558139534884,
		  "velocity": 110
		},
		{
		  "duration": 0.0581395348837209,
		  "pitch": 45,
		  "start": 68.3720930232558,
		  "velocity": 110
		},
		{
		  "duration": 0.0581395348837209,
		  "pitch": 45,
		  "start": 68.6046511627907,
		  "velocity": 110
		},
		{
		  "duration": 0.0581395348837209,
		  "pitch": 45,
		  "start": 68.7209302325581,
		  "velocity": 110
		},
		{
		  "duration": 0.0581395348837209,
		  "pitch": 45,
		  "start": 68.953488372093,
		  "velocity": 110
		},
		{
		  "duration": 0.0581395348837209,
		  "pitch": 45,
		  "start": 69.0697674418605,
		  "velocity": 110
		},
		{
		  "duration": 0.0581395348837209,
		  "pitch": 45,
		  "start": 69.3023255813954,
		  "velocity": 110
		},
		{
		  "duration": 0.0581395348837209,
		  "pitch": 45,
		  "start": 69.4186046511628,
		  "velocity": 110
		},
		{
		  "duration": 0.0581395348837209,
		  "pitch": 45,
		  "start": 69.6511627906977,
		  "velocity": 110
		},
		{
		  "duration": 0.0581395348837209,
		  "pitch": 45,
		  "start": 69.7674418604651,
		  "velocity": 110
		},
		{
		  "duration": 0.0581395348837209,
		  "pitch": 45,
		  "start": 70.0,
		  "velocity": 110
		},
		{
		  "duration": 0.0581395348837209,
		  "pitch": 45,
		  "start": 70.1162790697674,
		  "velocity": 110
		},
		{
		  "duration": 0.0581395348837209,
		  "pitch": 45,
		  "start": 70.3488372093023,
		  "velocity": 110
		},
		{
		  "duration": 0.0581395348837209,
		  "pitch": 45,
		  "start": 70.4651162790698,
		  "velocity": 110
		},
		{
		  "duration": 0.0581395348837209,
		  "pitch": 45,
		  "start": 70.6976744186046,
		  "velocity": 110
		},
		{
		  "duration": 0.0581395348837209,
		  "pitch": 45,
		  "start": 70.8139534883721,
		  "velocity": 110
		},
		{
		  "duration": 0.0581395348837209,
		  "pitch": 45,
		  "start": 71.046511627907,
		  "velocity": 110
		},
		{
		  "duration": 0.348837209302326,
		  "pitch": 45,
		  "start": 71.1627906976744,
		  "velocity": 110
		},
		{
		  "duration": 0.348837209302326,
		  "pitch": 47,
		  "start": 71.5116279069767,
		  "velocity": 110
		},
		{
		  "duration": 0.348837209302326,
		  "pitch": 48,
		  "start": 71.8604651162791,
		  "velocity": 110
		},
		{
		  "duration": 0.348837209302326,
		  "pitch": 49,
		  "start": 72.2093023255814,
		  "velocity": 110
		},
		{
		  "duration": 0.0581395348837209,
		  "pitch": 50,
		  "start": 72.5581395348837,
		  "velocity": 110
		},
		{
		  "duration": 0.0581395348837209,
		  "pitch": 50,
		  "start": 72.7906976744186,
		  "velocity": 110
		},
		{
		  "duration": 0.0581395348837209,
		  "pitch": 50,
		  "start": 72.9069767441861,
		  "velocity": 110
		},
		{
		  "duration": 0.0581395348837209,
		  "pitch": 50,
		  "start": 73.1395348837209,
		  "velocity": 110
		},
		{
		  "duration": 0.0581395348837209,
		  "pitch": 50,
		  "start": 73.2558139534884,
		  "velocity": 110
		},
		{
		  "duration": 0.0581395348837209,
		  "pitch": 50,
		  "start": 73.4883720930233,
		  "velocity": 110
		},
		{
		  "duration": 0.0581395348837209,
		  "pitch": 48,
		  "start": 73.6046511627907,
		  "velocity": 110
		},
		{
		  "duration": 0.0581395348837209,
		  "pitch": 48,
		  "start": 73.8372093023256,
		  "velocity": 110
		},
		{
		  "duration": 0.0581395348837209,
		  "pitch": 50,
		  "start": 73.953488372093,
		  "velocity": 110
		},
		{
		  "duration": 0.0581395348837209,
		  "pitch": 50,
		  "start": 74.1860465116279,
		  "velocity": 110
		},
		{
		  "duration": 0.0581395348837209,
		  "pitch": 50,
		  "start": 74.3023255813954,
		  "velocity": 110
		},
		{
		  "duration": 0.0581395348837209,
		  "pitch": 50,
		  "start": 74.5348837209302,
		  "velocity": 110
		},
		{
		  "duration": 0.0581395348837209,
		  "pitch": 50,
		  "start": 74.6511627906977,
		  "velocity": 110
		},
		{
		  "duration": 0.0581395348837209,
		  "pitch": 50,
		  "start": 74.8837209302326,
		  "velocity": 110
		},
		{
		  "duration": 0.0581395348837209,
		  "pitch": 48,
		  "start": 75.0,
		  "velocity": 110
		},
		{
		  "duration": 0.0581395348837209,
		  "pitch": 48,
		  "start": 75.2325581395349,
		  "velocity": 110
		},
		{
		  "duration": 0.0581395348837209,
		  "pitch": 50,
		  "start": 75.3488372093023,
		  "velocity": 110
		},
		{
		  "duration": 0.0581395348837209,
		  "pitch": 50,
		  "start": 75.5813953488372,
		  "velocity": 110
		},
		{
		  "duration": 0.0581395348837209,
		  "pitch": 50,
		  "start": 75.6976744186046,
		  "velocity": 110
		},
		{
		  "duration": 0.0581395348837209,
		  "pitch": 50,
		  "start": 75.9302325581395,
		  "velocity": 110
		},
		{
		  "duration": 0.0581395348837209,
		  "pitch": 50,
		  "start": 76.046511627907,
		  "velocity": 110
		},
		{
		  "duration": 0.0581395348837209,
		  "pitch": 50,
		  "start": 76.2790697674419,
		  "velocity": 110
		},
		{
		  "duration": 0.0581395348837209,
		  "pitch": 48,
		  "start": 76.3953488372093,
		  "velocity": 110
		},
		{
		  "duration": 0.0581395348837209,
		  "pitch": 48,
		  "start": 76.6279069767442,
		  "velocity": 110
		},
		{
		  "duration": 0.0581395348837209,
		  "pitch": 50,
		  "start": 76.7441860465116,
		  "velocity": 110
		},
		{
		  "duration": 0.0581395348837209,
		  "pitch": 50,
		  "start": 76.9767441860465,
		  "velocity": 110
		},
		{
		  "duration": 0.0581395348837209,
		  "pitch": 50,
		  "start": 77.0930232558139,
		  "velocity": 110
		},
		{
		  "duration": 0.0581395348837209,
		  "pitch": 50,
		  "start": 77.3255813953488,
		  "velocity": 110
		},
		{
		  "duration": 0.0581395348837209,
		  "pitch": 50,
		  "start": 77.4418604651163,
		  "velocity": 110
		},
		{
		  "duration": 0.0581395348837209,
		  "pitch": 50,
		  "start": 77.6744186046512,
		  "velocity": 110
		},
		{
		  "duration": 0.116279069767442,
		  "pitch": 48,
		  "start": 77.7906976744186,
		  "velocity": 110
		},
		{
		  "duration": 0.116279069767442,
		  "pitch": 46,
		  "start": 77.9069767441861,
		  "velocity": 110
		},
		{
		  "duration": 0.116279069767442,
		  "pitch": 43,
		  "start": 78.0232558139535,
		  "velocity": 110
		},
		{
		  "duration": 0.0581395348837209,
		  "pitch": 45,
		  "start": 78.1395348837209,
		  "velocity": 110
		},
		{
		  "duration": 0.0581395348837209,
		  "pitch": 45,
		  "start": 78.3720930232558,
		  "velocity": 110
		},
		{
		  "duration": 0.0581395348837209,
		  "pitch": 45,
		  "start": 78.4883720930233,
		  "velocity": 110
		},
		{
		  "duration": 0.0581395348837209,
		  "pitch": 45,
		  "start": 78.7209302325581,
		  "velocity": 110
		},
		{
		  "duration": 0.0581395348837209,
		  "pitch": 45,
		  "start": 78.8372093023256,
		  "velocity": 110
		},
		{
		  "duration": 0.0581395348837209,
		  "pitch": 45,
		  "start": 79.0697674418605,
		  "velocity": 110
		},
		{
		  "duration": 0.0581395348837209,
		  "pitch": 45,
		  "start": 79.1860465116279,
		  "velocity": 110
		},
		{
		  "duration": 0.0581395348837209,
		  "pitch": 45,
		  "start": 79.4186046511628,
		  "velocity": 110
		},
		{
		  "duration": 0.0581395348837209,
		  "pitch": 45,
		  "start": 79.5348837209302,
		  "velocity": 110
		},
		{
		  "duration": 0.0581395348837209,
		  "pitch": 45,
		  "start": 79.7674418604651,
		  "velocity": 110
		},
		{
		  "duration": 0.0581395348837209,
		  "pitch": 45,
		  "start": 79.8837209302326,
		  "velocity": 110
		},
		{
		  "duration": 0.0581395348837209,
		  "pitch": 45,
		  "start": 80.1162790697674,
		  "velocity": 110
		},
		{
		  "duration": 0.0581395348837209,
		  "pitch": 45,
		  "start": 80.2325581395349,
		  "velocity": 110
		},
		{
		  "duration": 0.0581395348837209,
		  "pitch": 45,
		  "start": 80.4651162790698,
		  "velocity": 110
		},
		{
		  "duration": 0.0581395348837209,
		  "pitch": 45,
		  "start": 80.5813953488372,
		  "velocity": 110
		},
		{
		  "duration": 0.0581395348837209,
		  "pitch": 45,
		  "start": 80.8139534883721,
		  "velocity": 110
		},
		{
		  "duration": 0.0581395348837209,
		  "pitch": 45,
		  "start": 80.9302325581395,
		  "velocity": 110
		},
		{
		  "duration": 0.0581395348837209,
		  "pitch": 45,
		  "start": 81.1627906976744,
		  "velocity": 110
		},
		{
		  "duration": 0.0581395348837209,
		  "pitch": 45,
		  "start": 81.2790697674419,
		  "velocity": 110
		},
		{
		  "duration": 0.0581395348837209,
		  "pitch": 45,
		  "start": 81.5116279069767,
		  "velocity": 110
		},
		{
		  "duration": 0.0581395348837209,
		  "pitch": 45,
		  "start": 81.6279069767442,
		  "velocity": 110
		},
		{
		  "duration": 0.0581395348837209,
		  "pitch": 45,
		  "start": 81.8604651162791,
		  "velocity": 110
		},
		{
		  "duration": 0.0581395348837209,
		  "pitch": 45,
		  "start": 81.9767441860465,
		  "velocity": 110
		},
		{
		  "duration": 0.0581395348837209,
		  "pitch": 45,
		  "start": 82.2093023255814,
		  "velocity": 110
		},
		{
		  "duration": 0.348837209302326,
		  "pitch": 45,
		  "start": 82.3255813953488,
		  "velocity": 110
		},
		{
		  "duration": 0.348837209302326,
		  "pitch": 47,
		  "start": 82.6744186046512,
		  "velocity": 110
		},
		{
		  "duration": 0.348837209302326,
		  "pitch": 48,
		  "start": 83.0232558139535,
		  "velocity": 110
		},
		{
		  "duration": 0.348837209302326,
		  "pitch": 49,
		  "start": 83.3720930232558,
		  "velocity": 110
		},
		{
		  "duration": 0.0581395348837209,
		  "pitch": 50,
		  "start": 83.7209302325581,
		  "velocity": 110
		},
		{
		  "duration": 0.0581395348837209,
		  "pitch": 50,
		  "start": 83.953488372093,
		  "velocity": 110
		},
		{
		  "duration": 0.0581395348837209,
		  "pitch": 50,
		  "start": 84.0697674418605,
		  "velocity": 110
		},
		{
		  "duration": 0.0581395348837209,
		  "pitch": 50,
		  "start": 84.3023255813954,
		  "velocity": 110
		},
		{
		  "duration": 0.0581395348837209,
		  "pitch": 50,
		  "start": 84.4186046511628,
		  "velocity": 110
		},
		{
		  "duration": 0.0581395348837209,
		  "pitch": 50,
		  "start": 84.6511627906977,
		  "velocity": 110
		},
		{
		  "duration": 0.0581395348837209,
		  "pitch": 48,
		  "start": 84.7674418604651,
		  "velocity": 110
		},
		{
		  "duration": 0.0581395348837209,
		  "pitch": 48,
		  "start": 85.0,
		  "velocity": 110
		},
		{
		  "duration": 0.0581395348837209,
		  "pitch": 50,
		  "start": 85.1162790697674,
		  "velocity": 110
		},
		{
		  "duration": 0.0581395348837209,
		  "pitch": 50,
		  "start": 85.3488372093023,
		  "velocity": 110
		},
		{
		  "duration": 0.0581395348837209,
		  "pitch": 50,
		  "start": 85.4651162790698,
		  "velocity": 110
		},
		{
		  "duration": 0.0581395348837209,
		  "pitch": 50,
		  "start": 85.6976744186046,
		  "velocity": 110
		},
		{
		  "duration": 0.0581395348837209,
		  "pitch": 50,
		  "start": 85.8139534883721,
		  "velocity": 110
		},
		{
		  "duration": 0.0581395348837209,
		  "pitch": 50,
		  "start": 86.046511627907,
		  "velocity": 110
		},
		{
		  "duration": 0.0581395348837209,
		  "pitch": 48,
		  "start": 86.1627906976744,
		  "velocity": 110
		},
		{
		  "duration": 0.0581395348837209,
		  "pitch": 48,
		  "start": 86.3953488372093,
		  "velocity": 110
		},
		{
		  "duration": 0.0581395348837209,
		  "pitch": 50,
		  "start": 86.5116279069767,
		  "velocity": 110
		},
		{
		  "duration": 0.0581395348837209,
		  "pitch": 50,
		  "start": 86.7441860465116,
		  "velocity": 110
		},
		{
		  "duration": 0.0581395348837209,
		  "pitch": 50,
		  "start": 86.8604651162791,
		  "velocity": 110
		},
		{
		  "duration": 0.0581395348837209,
		  "pitch": 50,
		  "start": 87.0930232558139,
		  "velocity": 110
		},
		{
		  "duration": 0.0581395348837209,
		  "pitch": 50,
		  "start": 87.2093023255814,
		  "velocity": 110
		},
		{
		  "duration": 0.0581395348837209,
		  "pitch": 50,
		  "start": 87.4418604651163,
		  "velocity": 110
		},
		{
		  "duration": 0.0581395348837209,
		  "pitch": 48,
		  "start": 87.5581395348837,
		  "velocity": 110
		},
		{
		  "duration": 0.0581395348837209,
		  "pitch": 48,
		  "start": 87.7906976744186,
		  "velocity": 110
		},
		{
		  "duration": 0.0581395348837209,
		  "pitch": 50,
		  "start": 87.9069767441861,
		  "velocity": 110
		},
		{
		  "duration": 0.0581395348837209,
		  "pitch": 50,
		  "start": 88.1395348837209,
		  "velocity": 110
		},
		{
		  "duration": 0.0581395348837209,
		  "pitch": 50,
		  "start": 88.2558139534884,
		  "velocity": 110
		},
		{
		  "duration": 0.0581395348837209,
		  "pitch": 50,
		  "start": 88.4883720930233,
		  "velocity": 110
		},
		{
		  "duration": 0.0581395348837209,
		  "pitch": 50,
		  "start": 88.6046511627907,
		  "velocity": 110
		},
		{
		  "duration": 0.0581395348837209,
		  "pitch": 50,
		  "start": 88.8372093023256,
		  "velocity": 110
		},
		{
		  "duration": 0.116279069767442,
		  "pitch": 48,
		  "start": 88.953488372093,
		  "velocity": 110
		},
		{
		  "duration": 0.116279069767442,
		  "pitch": 46,
		  "start": 89.0697674418605,
		  "velocity": 110
		},
		{
		  "duration": 0.116279069767442,
		  "pitch": 43,
		  "start": 89.1860465116279,
		  "velocity": 110
		},
		{
		  "duration": 0.0581395348837209,
		  "pitch": 45,
		  "start": 89.3023255813954,
		  "velocity": 110
		},
		{
		  "duration": 0.0581395348837209,
		  "pitch": 45,
		  "start": 89.5348837209302,
		  "velocity": 110
		},
		{
		  "duration": 0.0581395348837209,
		  "pitch": 45,
		  "start": 89.6511627906977,
		  "velocity": 110
		},
		{
		  "duration": 0.0581395348837209,
		  "pitch": 45,
		  "start": 89.8837209302326,
		  "velocity": 110
		},
		{
		  "duration": 0.0581395348837209,
		  "pitch": 45,
		  "start": 90.0,
		  "velocity": 110
		},
		{
		  "duration": 0.0581395348837209,
		  "pitch": 45,
		  "start": 90.2325581395349,
		  "velocity": 110
		},
		{
		  "duration": 0.0581395348837209,
		  "pitch": 45,
		  "start": 90.3488372093023,
		  "velocity": 110
		},
		{
		  "duration": 0.0581395348837209,
		  "pitch": 45,
		  "start": 90.5813953488372,
		  "velocity": 110
		},
		{
		  "duration": 0.0581395348837209,
		  "pitch": 45,
		  "start": 90.6976744186046,
		  "velocity": 110
		},
		{
		  "duration": 0.0581395348837209,
		  "pitch": 45,
		  "start": 90.9302325581395,
		  "velocity": 110
		},
		{
		  "duration": 0.0581395348837209,
		  "pitch": 45,
		  "start": 91.046511627907,
		  "velocity": 110
		},
		{
		  "duration": 0.0581395348837209,
		  "pitch": 45,
		  "start": 91.2790697674419,
		  "velocity": 110
		},
		{
		  "duration": 0.0581395348837209,
		  "pitch": 45,
		  "start": 91.3953488372093,
		  "velocity": 110
		},
		{
		  "duration": 0.0581395348837209,
		  "pitch": 45,
		  "start": 91.6279069767442,
		  "velocity": 110
		},
		{
		  "duration": 0.0581395348837209,
		  "pitch": 45,
		  "start": 91.7441860465116,
		  "velocity": 110
		},
		{
		  "duration": 0.0581395348837209,
		  "pitch": 45,
		  "start": 91.9767441860465,
		  "velocity": 110
		},
		{
		  "duration": 0.0581395348837209,
		  "pitch": 48,
		  "start": 92.0930232558139,
		  "velocity": 110
		},
		{
		  "duration": 0.0581395348837209,
		  "pitch": 48,
		  "start": 92.3255813953488,
		  "velocity": 110
		},
		{
		  "duration": 0.0581395348837209,
		  "pitch": 48,
		  "start": 92.4418604651163,
		  "velocity": 110
		},
		{
		  "duration": 0.0581395348837209,
		  "pitch": 48,
		  "start": 92.6744186046512,
		  "velocity": 110
		},
		{
		  "duration": 0.0581395348837209,
		  "pitch": 48,
		  "start": 92.7906976744186,
		  "velocity": 110
		},
		{
		  "duration": 0.0581395348837209,
		  "pitch": 48,
		  "start": 93.0232558139535,
		  "velocity": 110
		},
		{
		  "duration": 0.0581395348837209,
		  "pitch": 48,
		  "start": 93.1395348837209,
		  "velocity": 110
		},
		{
		  "duration": 0.0581395348837209,
		  "pitch": 48,
		  "start": 93.3720930232558,
		  "velocity": 110
		},
		{
		  "duration": 0.0581395348837209,
		  "pitch": 47,
		  "start": 93.4883720930233,
		  "velocity": 110
		},
		{
		  "duration": 0.0581395348837209,
		  "pitch": 47,
		  "start": 93.7209302325581,
		  "velocity": 110
		},
		{
		  "duration": 0.0581395348837209,
		  "pitch": 47,
		  "start": 93.8372093023256,
		  "velocity": 110
		},
		{
		  "duration": 0.0581395348837209,
		  "pitch": 47,
		  "start": 94.0697674418605,
		  "velocity": 110
		},
		{
		  "duration": 0.0581395348837209,
		  "pitch": 52,
		  "start": 94.1860465116279,
		  "velocity": 110
		},
		{
		  "duration": 0.0581395348837209,
		  "pitch": 52,
		  "start": 94.4186046511628,
		  "velocity": 110
		},
		{
		  "duration": 0.116279069767442,
		  "pitch": 50,
		  "start": 94.5348837209302,
		  "velocity": 110
		},
		{
		  "duration": 0.116279069767442,
		  "pitch": 48,
		  "start": 94.6511627906977,
		  "velocity": 110
		},
		{
		  "duration": 0.116279069767442,
		  "pitch": 47,
		  "start": 94.7674418604651,
		  "velocity": 110
		},
		{
		  "duration": 0.0581395348837209,
		  "pitch": 45,
		  "start": 94.8837209302326,
		  "velocity": 110
		},
		{
		  "duration": 0.0581395348837209,
		  "pitch": 45,
		  "start": 95.0,
		  "velocity": 110
		},
		{
		  "duration": 0.0581395348837209,
		  "pitch": 45,
		  "start": 95.1162790697674,
		  "velocity": 110
		},
		{
		  "duration": 0.348837209302326,
		  "pitch": 48,
		  "start": 95.2325581395349,
		  "velocity": 110
		},
		{
		  "duration": 0.0581395348837209,
		  "pitch": 45,
		  "start": 95.5813953488372,
		  "velocity": 110
		},
		{
		  "duration": 0.0581395348837209,
		  "pitch": 45,
		  "start": 95.6976744186046,
		  "velocity": 110
		},
		{
		  "duration": 0.0581395348837209,
		  "pitch": 45,
		  "start": 95.8139534883721,
		  "velocity": 110
		},
		{
		  "duration": 0.348837209302326,
		  "pitch": 50,
		  "start": 95.9302325581395,
		  "velocity": 110
		},
		{
		  "duration": 0.0581395348837209,
		  "pitch": 45,
		  "start": 96.2790697674419,
		  "velocity": 110
		},
		{
		  "duration": 0.0581395348837209,
		  "pitch": 45,
		  "start": 96.3953488372093,
		  "velocity": 110
		},
		{
		  "duration": 0.0581395348837209,
		  "pitch": 45,
		  "start": 96.5116279069767,
		  "velocity": 110
		},
		{
		  "duration": 0.232558139534884,
		  "pitch": 50,
		  "start": 96.6279069767442,
		  "velocity": 110
		},
		{
		  "duration": 0.116279069767442,
		  "pitch": 48,
		  "start": 96.8604651162791,
		  "velocity": 110
		},
		{
		  "duration": 0.232558139534884,
		  "pitch": 48,
		  "start": 96.9767441860465,
		  "velocity": 110
		},
		{
		  "duration": 0.116279069767442,
		  "pitch": 47,
		  "start": 97.2093023255814,
		  "velocity": 110
		},
		{
		  "duration": 0.232558139534884,
		  "pitch": 48,
		  "start": 97.3255813953488,
		  "velocity": 110
		},
		{
		  "duration": 0.116279069767442,
		  "pitch": 47,
		  "start": 97.5581395348837,
		  "velocity": 110
		},
		{
		  "duration": 0.0581395348837209,
		  "pitch": 45,
		  "start": 97.6744186046512,
		  "velocity": 110
		},
		{
		  "duration": 0.0581395348837209,
		  "pitch": 45,
		  "start": 97.7906976744186,
		  "velocity": 110
		},
		{
		  "duration": 0.0581395348837209,
		  "pitch": 45,
		  "start": 97.9069767441861,
		  "velocity": 110
		},
		{
		  "duration": 0.348837209302326,
		  "pitch": 48,
		  "start": 98.0232558139535,
		  "velocity": 110
		},
		{
		  "duration": 0.0581395348837209,
		  "pitch": 45,
		  "start": 98.3720930232558,
		  "velocity": 110
		},
		{
		  "duration": 0.0581395348837209,
		  "pitch": 45,
		  "start": 98.4883720930233,
		  "velocity": 110
		},
		{
		  "duration": 0.0581395348837209,
		  "pitch": 45,
		  "start": 98.6046511627907,
		  "velocity": 110
		},
		{
		  "duration": 0.348837209302326,
		  "pitch": 50,
		  "start": 98.7209302325581,
		  "velocity": 110
		},
		{
		  "duration": 0.0581395348837209,
		  "pitch": 45,
		  "start": 99.0697674418605,
		  "velocity": 110
		},
		{
		  "duration": 0.0581395348837209,
		  "pitch": 45,
		  "start": 99.1860465116279,
		  "velocity": 110
		},
		{
		  "duration": 0.0581395348837209,
		  "pitch": 45,
		  "start": 99.3023255813954,
		  "velocity": 110
		},
		{
		  "duration": 0.232558139534884,
		  "pitch": 50,
		  "start": 99.4186046511628,
		  "velocity": 110
		},
		{
		  "duration": 0.116279069767442,
		  "pitch": 48,
		  "start": 99.6511627906977,
		  "velocity": 110
		},
		{
		  "duration": 0.232558139534884,
		  "pitch": 48,
		  "start": 99.7674418604651,
		  "velocity": 110
		},
		{
		  "duration": 0.116279069767442,
		  "pitch": 47,
		  "start": 100.0,
		  "velocity": 110
		},
		{
		  "duration": 0.232558139534884,
		  "pitch": 48,
		  "start": 100.116279069767,
		  "velocity": 110
		},
		{
		  "duration": 0.116279069767442,
		  "pitch": 47,
		  "start": 100.348837209302,
		  "velocity": 110
		},
		{
		  "duration": 0.0581395348837209,
		  "pitch": 48,
		  "start": 100.46511627907,
		  "velocity": 110
		},
		{
		  "duration": 0.0581395348837209,
		  "pitch": 48,
		  "start": 100.581395348837,
		  "velocity": 110
		},
		{
		  "duration": 0.0581395348837209,
		  "pitch": 48,
		  "start": 100.697674418605,
		  "velocity": 110
		},
		{
		  "duration": 0.348837209302326,
		  "pitch": 51,
		  "start": 100.813953488372,
		  "velocity": 110
		},
		{
		  "duration": 0.0581395348837209,
		  "pitch": 48,
		  "start": 101.162790697674,
		  "velocity": 110
		},
		{
		  "duration": 0.0581395348837209,
		  "pitch": 48,
		  "start": 101.279069767442,
		  "velocity": 110
		},
		{
		  "duration": 0.0581395348837209,
		  "pitch": 48,
		  "start": 101.395348837209,
		  "velocity": 110
		},
		{
		  "duration": 0.348837209302326,
		  "pitch": 53,
		  "start": 101.511627906977,
		  "velocity": 110
		},
		{
		  "duration": 0.0581395348837209,
		  "pitch": 48,
		  "start": 101.860465116279,
		  "velocity": 110
		},
		{
		  "duration": 0.0581395348837209,
		  "pitch": 48,
		  "start": 101.976744186047,
		  "velocity": 110
		},
		{
		  "duration": 0.0581395348837209,
		  "pitch": 48,
		  "start": 102.093023255814,
		  "velocity": 110
		},
		{
		  "duration": 0.232558139534884,
		  "pitch": 53,
		  "start": 102.209302325581,
		  "velocity": 110
		},
		{
		  "duration": 0.116279069767442,
		  "pitch": 51,
		  "start": 102.441860465116,
		  "velocity": 110
		},
		{
		  "duration": 0.232558139534884,
		  "pitch": 51,
		  "start": 102.558139534884,
		  "velocity": 110
		},
		{
		  "duration": 0.116279069767442,
		  "pitch": 50,
		  "start": 102.790697674419,
		  "velocity": 110
		},
		{
		  "duration": 0.232558139534884,
		  "pitch": 51,
		  "start": 102.906976744186,
		  "velocity": 110
		},
		{
		  "duration": 0.116279069767442,
		  "pitch": 50,
		  "start": 103.139534883721,
		  "velocity": 110
		},
		{
		  "duration": 0.0581395348837209,
		  "pitch": 48,
		  "start": 103.255813953488,
		  "velocity": 110
		},
		{
		  "duration": 0.0581395348837209,
		  "pitch": 48,
		  "start": 103.372093023256,
		  "velocity": 110
		},
		{
		  "duration": 0.0581395348837209,
		  "pitch": 48,
		  "start": 103.488372093023,
		  "velocity": 110
		},
		{
		  "duration": 0.348837209302326,
		  "pitch": 51,
		  "start": 103.604651162791,
		  "velocity": 110
		},
		{
		  "duration": 0.0581395348837209,
		  "pitch": 48,
		  "start": 103.953488372093,
		  "velocity": 110
		},
		{
		  "duration": 0.0581395348837209,
		  "pitch": 48,
		  "start": 104.06976744186,
		  "velocity": 110
		},
		{
		  "duration": 0.0581395348837209,
		  "pitch": 48,
		  "start": 104.186046511628,
		  "velocity": 110
		},
		{
		  "duration": 0.348837209302326,
		  "pitch": 53,
		  "start": 104.302325581395,
		  "velocity": 110
		},
		{
		  "duration": 0.0581395348837209,
		  "pitch": 48,
		  "start": 104.651162790698,
		  "velocity": 110
		},
		{
		  "duration": 0.0581395348837209,
		  "pitch": 48,
		  "start": 104.767441860465,
		  "velocity": 110
		},
		{
		  "duration": 0.0581395348837209,
		  "pitch": 48,
		  "start": 104.883720930233,
		  "velocity": 110
		},
		{
		  "duration": 0.232558139534884,
		  "pitch": 53,
		  "start": 105.0,
		  "velocity": 110
		},
		{
		  "duration": 0.116279069767442,
		  "pitch": 51,
		  "start": 105.232558139535,
		  "velocity": 110
		},
		{
		  "duration": 0.232558139534884,
		  "pitch": 51,
		  "start": 105.348837209302,
		  "velocity": 110
		},
		{
		  "duration": 0.116279069767442,
		  "pitch": 50,
		  "start": 105.581395348837,
		  "velocity": 110
		},
		{
		  "duration": 0.232558139534884,
		  "pitch": 51,
		  "start": 105.697674418605,
		  "velocity": 110
		},
		{
		  "duration": 0.116279069767442,
		  "pitch": 50,
		  "start": 105.93023255814,
		  "velocity": 110
		},
		{
		  "duration": 0.0581395348837209,
		  "pitch": 45,
		  "start": 106.046511627907,
		  "velocity": 110
		},
		{
		  "duration": 0.0581395348837209,
		  "pitch": 45,
		  "start": 106.162790697674,
		  "velocity": 110
		},
		{
		  "duration": 0.0581395348837209,
		  "pitch": 45,
		  "start": 106.279069767442,
		  "velocity": 110
		},
		{
		  "duration": 0.348837209302326,
		  "pitch": 48,
		  "start": 106.395348837209,
		  "velocity": 110
		},
		{
		  "duration": 0.0581395348837209,
		  "pitch": 45,
		  "start": 106.744186046512,
		  "velocity": 110
		},
		{
		  "duration": 0.0581395348837209,
		  "pitch": 45,
		  "start": 106.860465116279,
		  "velocity": 110
		},
		{
		  "duration": 0.0581395348837209,
		  "pitch": 45,
		  "start": 106.976744186047,
		  "velocity": 110
		},
		{
		  "duration": 0.348837209302326,
		  "pitch": 50,
		  "start": 107.093023255814,
		  "velocity": 110
		},
		{
		  "duration": 0.0581395348837209,
		  "pitch": 45,
		  "start": 107.441860465116,
		  "velocity": 110
		},
		{
		  "duration": 0.0581395348837209,
		  "pitch": 45,
		  "start": 107.558139534884,
		  "velocity": 110
		},
		{
		  "duration": 0.0581395348837209,
		  "pitch": 45,
		  "start": 107.674418604651,
		  "velocity": 110
		},
		{
		  "duration": 0.232558139534884,
		  "pitch": 50,
		  "start": 107.790697674419,
		  "velocity": 110
		},
		{
		  "duration": 0.116279069767442,
		  "pitch": 48,
		  "start": 108.023255813953,
		  "velocity": 110
		},
		{
		  "duration": 0.232558139534884,
		  "pitch": 48,
		  "start": 108.139534883721,
		  "velocity": 110
		},
		{
		  "duration": 0.116279069767442,
		  "pitch": 47,
		  "start": 108.372093023256,
		  "velocity": 110
		},
		{
		  "duration": 0.232558139534884,
		  "pitch": 48,
		  "start": 108.488372093023,
		  "velocity": 110
		},
		{
		  "duration": 0.116279069767442,
		  "pitch": 47,
		  "start": 108.720930232558,
		  "velocity": 110
		},
		{
		  "duration": 0.0581395348837209,
		  "pitch": 45,
		  "start": 108.837209302326,
		  "velocity": 110
		},
		{
		  "duration": 0.0581395348837209,
		  "pitch": 45,
		  "start": 108.953488372093,
		  "velocity": 110
		},
		{
		  "duration": 0.0581395348837209,
		  "pitch": 45,
		  "start": 109.06976744186,
		  "velocity": 110
		},
		{
		  "duration": 0.348837209302326,
		  "pitch": 48,
		  "start": 109.186046511628,
		  "velocity": 110
		},
		{
		  "duration": 0.0581395348837209,
		  "pitch": 45,
		  "start": 109.53488372093,
		  "velocity": 110
		},
		{
		  "duration": 0.0581395348837209,
		  "pitch": 45,
		  "start": 109.651162790698,
		  "velocity": 110
		},
		{
		  "duration": 0.0581395348837209,
		  "pitch": 45,
		  "start": 109.767441860465,
		  "velocity": 110
		},
		{
		  "duration": 0.348837209302326,
		  "pitch": 50,
		  "start": 109.883720930233,
		  "velocity": 110
		},
		{
		  "duration": 0.0581395348837209,
		  "pitch": 45,
		  "start": 110.232558139535,
		  "velocity": 110
		},
		{
		  "duration": 0.0581395348837209,
		  "pitch": 45,
		  "start": 110.348837209302,
		  "velocity": 110
		},
		{
		  "duration": 0.0581395348837209,
		  "pitch": 45,
		  "start": 110.46511627907,
		  "velocity": 110
		},
		{
		  "duration": 0.232558139534884,
		  "pitch": 50,
		  "start": 110.581395348837,
		  "velocity": 110
		},
		{
		  "duration": 0.116279069767442,
		  "pitch": 48,
		  "start": 110.813953488372,
		  "velocity": 110
		},
		{
		  "duration": 0.232558139534884,
		  "pitch": 48,
		  "start": 110.93023255814,
		  "velocity": 110
		},
		{
		  "duration": 0.116279069767442,
		  "pitch": 47,
		  "start": 111.162790697674,
		  "velocity": 110
		},
		{
		  "duration": 0.232558139534884,
		  "pitch": 48,
		  "start": 111.279069767442,
		  "velocity": 110
		},
		{
		  "duration": 0.116279069767442,
		  "pitch": 47,
		  "start": 111.511627906977,
		  "velocity": 110
		},
		{
		  "duration": 0.0581395348837209,
		  "pitch": 48,
		  "start": 111.627906976744,
		  "velocity": 110
		},
		{
		  "duration": 0.0581395348837209,
		  "pitch": 48,
		  "start": 111.744186046512,
		  "velocity": 110
		},
		{
		  "duration": 0.0581395348837209,
		  "pitch": 48,
		  "start": 111.860465116279,
		  "velocity": 110
		},
		{
		  "duration": 0.348837209302326,
		  "pitch": 51,
		  "start": 111.976744186047,
		  "velocity": 110
		},
		{
		  "duration": 0.0581395348837209,
		  "pitch": 48,
		  "start": 112.325581395349,
		  "velocity": 110
		},
		{
		  "duration": 0.0581395348837209,
		  "pitch": 48,
		  "start": 112.441860465116,
		  "velocity": 110
		},
		{
		  "duration": 0.0581395348837209,
		  "pitch": 48,
		  "start": 112.558139534884,
		  "velocity": 110
		},
		{
		  "duration": 0.348837209302326,
		  "pitch": 53,
		  "start": 112.674418604651,
		  "velocity": 110
		},
		{
		  "duration": 0.0581395348837209,
		  "pitch": 48,
		  "start": 113.023255813953,
		  "velocity": 110
		},
		{
		  "duration": 0.0581395348837209,
		  "pitch": 48,
		  "start": 113.139534883721,
		  "velocity": 110
		},
		{
		  "duration": 0.0581395348837209,
		  "pitch": 48,
		  "start": 113.255813953488,
		  "velocity": 110
		},
		{
		  "duration": 0.232558139534884,
		  "pitch": 53,
		  "start": 113.372093023256,
		  "velocity": 110
		},
		{
		  "duration": 0.116279069767442,
		  "pitch": 51,
		  "start": 113.604651162791,
		  "velocity": 110
		},
		{
		  "duration": 0.232558139534884,
		  "pitch": 51,
		  "start": 113.720930232558,
		  "velocity": 110
		},
		{
		  "duration": 0.116279069767442,
		  "pitch": 50,
		  "start": 113.953488372093,
		  "velocity": 110
		},
		{
		  "duration": 0.232558139534884,
		  "pitch": 51,
		  "start": 114.06976744186,
		  "velocity": 110
		},
		{
		  "duration": 0.116279069767442,
		  "pitch": 50,
		  "start": 114.302325581395,
		  "velocity": 110
		},
		{
		  "duration": 0.0581395348837209,
		  "pitch": 48,
		  "start": 114.418604651163,
		  "velocity": 110
		},
		{
		  "duration": 0.0581395348837209,
		  "pitch": 48,
		  "start": 114.53488372093,
		  "velocity": 110
		},
		{
		  "duration": 0.0581395348837209,
		  "pitch": 48,
		  "start": 114.651162790698,
		  "velocity": 110
		},
		{
		  "duration": 0.348837209302326,
		  "pitch": 51,
		  "start": 114.767441860465,
		  "velocity": 110
		},
		{
		  "duration": 0.0581395348837209,
		  "pitch": 48,
		  "start": 115.116279069767,
		  "velocity": 110
		},
		{
		  "duration": 0.0581395348837209,
		  "pitch": 48,
		  "start": 115.232558139535,
		  "velocity": 110
		},
		{
		  "duration": 0.0581395348837209,
		  "pitch": 48,
		  "start": 115.348837209302,
		  "velocity": 110
		},
		{
		  "duration": 0.348837209302326,
		  "pitch": 53,
		  "start": 115.46511627907,
		  "velocity": 110
		},
		{
		  "duration": 0.0581395348837209,
		  "pitch": 48,
		  "start": 115.813953488372,
		  "velocity": 110
		},
		{
		  "duration": 0.0581395348837209,
		  "pitch": 48,
		  "start": 115.93023255814,
		  "velocity": 110
		},
		{
		  "duration": 0.0581395348837209,
		  "pitch": 48,
		  "start": 116.046511627907,
		  "velocity": 110
		},
		{
		  "duration": 0.232558139534884,
		  "pitch": 53,
		  "start": 116.162790697674,
		  "velocity": 110
		},
		{
		  "duration": 0.116279069767442,
		  "pitch": 51,
		  "start": 116.395348837209,
		  "velocity": 110
		},
		{
		  "duration": 0.232558139534884,
		  "pitch": 51,
		  "start": 116.511627906977,
		  "velocity": 110
		},
		{
		  "duration": 0.116279069767442,
		  "pitch": 50,
		  "start": 116.744186046512,
		  "velocity": 110
		},
		{
		  "duration": 0.232558139534884,
		  "pitch": 51,
		  "start": 116.860465116279,
		  "velocity": 110
		},
		{
		  "duration": 0.116279069767442,
		  "pitch": 50,
		  "start": 117.093023255814,
		  "velocity": 110
		},
		{
		  "duration": 0.697674418604651,
		  "pitch": 45,
		  "start": 117.209302325581,
		  "velocity": 110
		},
		{
		  "duration": 0.697674418604651,
		  "pitch": 47,
		  "start": 117.906976744186,
		  "velocity": 110
		},
		{
		  "duration": 0.697674418604651,
		  "pitch": 48,
		  "start": 118.604651162791,
		  "velocity": 110
		},
		{
		  "duration": 0.697674418604651,
		  "pitch": 50,
		  "start": 119.302325581395,
		  "velocity": 110
		},
		{
		  "duration": 1.04651162790698,
		  "pitch": 41,
		  "start": 120.0,
		  "velocity": 110
		},
		{
		  "duration": 0.348837209302326,
		  "pitch": 43,
		  "start": 121.046511627907,
		  "velocity": 110
		},
		{
		  "duration": 0.697674418604651,
		  "pitch": 45,
		  "start": 121.395348837209,
		  "velocity": 110
		},
		{
		  "duration": 0.697674418604651,
		  "pitch": 40,
		  "start": 122.093023255814,
		  "velocity": 110
		},
		{
		  "duration": 2.44186046511628,
		  "pitch": 45,
		  "start": 122.790697674419,
		  "velocity": 110
		},
		{
		  "duration": 0.697674418604651,
		  "pitch": 45,
		  "start": 125.581395348837,
		  "velocity": 110
		},
		{
		  "duration": 0.697674418604651,
		  "pitch": 47,
		  "start": 126.279069767442,
		  "velocity": 110
		},
		{
		  "duration": 0.697674418604651,
		  "pitch": 48,
		  "start": 126.976744186047,
		  "velocity": 110
		},
		{
		  "duration": 0.697674418604651,
		  "pitch": 50,
		  "start": 127.674418604651,
		  "velocity": 110
		},
		{
		  "duration": 1.04651162790698,
		  "pitch": 41,
		  "start": 128.372093023256,
		  "velocity": 110
		},
		{
		  "duration": 0.348837209302326,
		  "pitch": 43,
		  "start": 129.418604651163,
		  "velocity": 110
		},
		{
		  "duration": 0.697674418604651,
		  "pitch": 45,
		  "start": 129.767441860465,
		  "velocity": 110
		},
		{
		  "duration": 0.697674418604651,
		  "pitch": 40,
		  "start": 130.46511627907,
		  "velocity": 110
		},
		{
		  "duration": 2.44186046511628,
		  "pitch": 45,
		  "start": 131.162790697674,
		  "velocity": 110
		},
		{
		  "duration": 0.0581395348837209,
		  "pitch": 45,
		  "start": 133.953488372093,
		  "velocity": 110
		},
		{
		  "duration": 0.0581395348837209,
		  "pitch": 45,
		  "start": 134.06976744186,
		  "velocity": 110
		},
		{
		  "duration": 0.0581395348837209,
		  "pitch": 45,
		  "start": 134.186046511628,
		  "velocity": 110
		},
		{
		  "duration": 0.0581395348837209,
		  "pitch": 45,
		  "start": 134.302325581395,
		  "velocity": 110
		},
		{
		  "duration": 0.0581395348837209,
		  "pitch": 45,
		  "start": 134.418604651163,
		  "velocity": 110
		},
		{
		  "duration": 0.0581395348837209,
		  "pitch": 45,
		  "start": 134.53488372093,
		  "velocity": 110
		},
		{
		  "duration": 0.232558139534884,
		  "pitch": 45,
		  "start": 134.651162790698,
		  "velocity": 110
		},
		{
		  "duration": 0.116279069767442,
		  "pitch": 45,
		  "start": 134.883720930233,
		  "velocity": 110
		},
		{
		  "duration": 0.116279069767442,
		  "pitch": 45,
		  "start": 135.0,
		  "velocity": 110
		},
		{
		  "duration": 0.0581395348837209,
		  "pitch": 45,
		  "start": 135.116279069767,
		  "velocity": 64
		},
		{
		  "duration": 0.0581395348837209,
		  "pitch": 45,
		  "start": 135.232558139535,
		  "velocity": 64
		},
		{
		  "duration": 0.0581395348837209,
		  "pitch": 45,
		  "start": 135.348837209302,
		  "velocity": 110
		},
		{
		  "duration": 0.0581395348837209,
		  "pitch": 45,
		  "start": 135.46511627907,
		  "velocity": 110
		},
		{
		  "duration": 0.0581395348837209,
		  "pitch": 45,
		  "start": 135.581395348837,
		  "velocity": 110
		},
		{
		  "duration": 0.0581395348837209,
		  "pitch": 45,
		  "start": 135.697674418605,
		  "velocity": 110
		},
		{
		  "duration": 0.0581395348837209,
		  "pitch": 45,
		  "start": 135.813953488372,
		  "velocity": 110
		},
		{
		  "duration": 0.0581395348837209,
		  "pitch": 45,
		  "start": 135.93023255814,
		  "velocity": 110
		},
		{
		  "duration": 0.232558139534884,
		  "pitch": 45,
		  "start": 136.046511627907,
		  "velocity": 110
		},
		{
		  "duration": 0.116279069767442,
		  "pitch": 45,
		  "start": 136.279069767442,
		  "velocity": 110
		},
		{
		  "duration": 0.116279069767442,
		  "pitch": 45,
		  "start": 136.395348837209,
		  "velocity": 110
		},
		{
		  "duration": 0.0581395348837209,
		  "pitch": 45,
		  "start": 136.511627906977,
		  "velocity": 64
		},
		{
		  "duration": 0.0581395348837209,
		  "pitch": 45,
		  "start": 136.627906976744,
		  "velocity": 64
		},
		{
		  "duration": 0.0581395348837209,
		  "pitch": 45,
		  "start": 136.744186046512,
		  "velocity": 110
		},
		{
		  "duration": 0.0581395348837209,
		  "pitch": 45,
		  "start": 136.860465116279,
		  "velocity": 110
		},
		{
		  "duration": 0.0581395348837209,
		  "pitch": 45,
		  "start": 136.976744186047,
		  "velocity": 110
		},
		{
		  "duration": 0.0581395348837209,
		  "pitch": 45,
		  "start": 137.093023255814,
		  "velocity": 110
		},
		{
		  "duration": 0.0581395348837209,
		  "pitch": 45,
		  "start": 137.209302325581,
		  "velocity": 110
		},
		{
		  "duration": 0.0581395348837209,
		  "pitch": 45,
		  "start": 137.325581395349,
		  "velocity": 110
		},
		{
		  "duration": 0.232558139534884,
		  "pitch": 45,
		  "start": 137.441860465116,
		  "velocity": 110
		},
		{
		  "duration": 0.116279069767442,
		  "pitch": 45,
		  "start": 137.674418604651,
		  "velocity": 110
		},
		{
		  "duration": 0.116279069767442,
		  "pitch": 45,
		  "start": 137.790697674419,
		  "velocity": 110
		},
		{
		  "duration": 0.0581395348837209,
		  "pitch": 45,
		  "start": 137.906976744186,
		  "velocity": 64
		},
		{
		  "duration": 0.0581395348837209,
		  "pitch": 45,
		  "start": 138.023255813953,
		  "velocity": 64
		},
		{
		  "duration": 0.0581395348837209,
		  "pitch": 45,
		  "start": 138.139534883721,
		  "velocity": 110
		},
		{
		  "duration": 0.0581395348837209,
		  "pitch": 45,
		  "start": 138.255813953488,
		  "velocity": 110
		},
		{
		  "duration": 0.0581395348837209,
		  "pitch": 45,
		  "start": 138.372093023256,
		  "velocity": 110
		},
		{
		  "duration": 0.0581395348837209,
		  "pitch": 45,
		  "start": 138.488372093023,
		  "velocity": 110
		},
		{
		  "duration": 0.0581395348837209,
		  "pitch": 45,
		  "start": 138.604651162791,
		  "velocity": 110
		},
		{
		  "duration": 0.0581395348837209,
		  "pitch": 45,
		  "start": 138.720930232558,
		  "velocity": 110
		},
		{
		  "duration": 0.232558139534884,
		  "pitch": 45,
		  "start": 138.837209302326,
		  "velocity": 110
		},
		{
		  "duration": 0.116279069767442,
		  "pitch": 45,
		  "start": 139.06976744186,
		  "velocity": 110
		},
		{
		  "duration": 0.116279069767442,
		  "pitch": 45,
		  "start": 139.186046511628,
		  "velocity": 110
		},
		{
		  "duration": 0.0581395348837209,
		  "pitch": 45,
		  "start": 139.302325581395,
		  "velocity": 64
		},
		{
		  "duration": 0.0581395348837209,
		  "pitch": 45,
		  "start": 139.418604651163,
		  "velocity": 64
		},
		{
		  "duration": 0.0581395348837209,
		  "pitch": 45,
		  "start": 139.53488372093,
		  "velocity": 110
		},
		{
		  "duration": 0.0581395348837209,
		  "pitch": 45,
		  "start": 139.651162790698,
		  "velocity": 110
		},
		{
		  "duration": 0.0581395348837209,
		  "pitch": 45,
		  "start": 139.767441860465,
		  "velocity": 110
		},
		{
		  "duration": 0.0581395348837209,
		  "pitch": 45,
		  "start": 139.883720930233,
		  "velocity": 110
		},
		{
		  "duration": 0.0581395348837209,
		  "pitch": 45,
		  "start": 140.0,
		  "velocity": 110
		},
		{
		  "duration": 0.0581395348837209,
		  "pitch": 45,
		  "start": 140.116279069767,
		  "velocity": 110
		},
		{
		  "duration": 0.232558139534884,
		  "pitch": 45,
		  "start": 140.232558139535,
		  "velocity": 110
		},
		{
		  "duration": 0.116279069767442,
		  "pitch": 45,
		  "start": 140.46511627907,
		  "velocity": 110
		},
		{
		  "duration": 0.116279069767442,
		  "pitch": 45,
		  "start": 140.581395348837,
		  "velocity": 110
		},
		{
		  "duration": 0.0581395348837209,
		  "pitch": 45,
		  "start": 140.697674418605,
		  "velocity": 64
		},
		{
		  "duration": 0.0581395348837209,
		  "pitch": 45,
		  "start": 140.813953488372,
		  "velocity": 64
		},
		{
		  "duration": 0.0581395348837209,
		  "pitch": 45,
		  "start": 140.93023255814,
		  "velocity": 110
		},
		{
		  "duration": 0.0581395348837209,
		  "pitch": 45,
		  "start": 141.046511627907,
		  "velocity": 110
		},
		{
		  "duration": 0.0581395348837209,
		  "pitch": 45,
		  "start": 141.162790697674,
		  "velocity": 110
		},
		{
		  "duration": 0.0581395348837209,
		  "pitch": 45,
		  "start": 141.279069767442,
		  "velocity": 110
		},
		{
		  "duration": 0.0581395348837209,
		  "pitch": 45,
		  "start": 141.395348837209,
		  "velocity": 110
		},
		{
		  "duration": 0.0581395348837209,
		  "pitch": 45,
		  "start": 141.511627906977,
		  "velocity": 110
		},
		{
		  "duration": 0.232558139534884,
		  "pitch": 45,
		  "start": 141.627906976744,
		  "velocity": 110
		},
		{
		  "duration": 0.116279069767442,
		  "pitch": 45,
		  "start": 141.860465116279,
		  "velocity": 110
		},
		{
		  "duration": 0.116279069767442,
		  "pitch": 45,
		  "start": 141.976744186047,
		  "velocity": 110
		},
		{
		  "duration": 0.0581395348837209,
		  "pitch": 45,
		  "start": 142.093023255814,
		  "velocity": 64
		},
		{
		  "duration": 0.0581395348837209,
		  "pitch": 45,
		  "start": 142.209302325581,
		  "velocity": 64
		},
		{
		  "duration": 0.0581395348837209,
		  "pitch": 45,
		  "start": 142.325581395349,
		  "velocity": 110
		},
		{
		  "duration": 0.0581395348837209,
		  "pitch": 45,
		  "start": 142.441860465116,
		  "velocity": 110
		},
		{
		  "duration": 0.0581395348837209,
		  "pitch": 45,
		  "start": 142.558139534884,
		  "velocity": 110
		},
		{
		  "duration": 0.0581395348837209,
		  "pitch": 45,
		  "start": 142.674418604651,
		  "velocity": 110
		},
		{
		  "duration": 0.0581395348837209,
		  "pitch": 45,
		  "start": 142.790697674419,
		  "velocity": 110
		},
		{
		  "duration": 0.0581395348837209,
		  "pitch": 45,
		  "start": 142.906976744186,
		  "velocity": 110
		},
		{
		  "duration": 0.232558139534884,
		  "pitch": 45,
		  "start": 143.023255813953,
		  "velocity": 110
		},
		{
		  "duration": 0.116279069767442,
		  "pitch": 45,
		  "start": 143.255813953488,
		  "velocity": 110
		},
		{
		  "duration": 0.116279069767442,
		  "pitch": 45,
		  "start": 143.372093023256,
		  "velocity": 110
		},
		{
		  "duration": 0.0581395348837209,
		  "pitch": 45,
		  "start": 143.488372093023,
		  "velocity": 64
		},
		{
		  "duration": 0.0581395348837209,
		  "pitch": 45,
		  "start": 143.604651162791,
		  "velocity": 64
		},
		{
		  "duration": 0.0581395348837209,
		  "pitch": 45,
		  "start": 143.720930232558,
		  "velocity": 110
		},
		{
		  "duration": 0.0581395348837209,
		  "pitch": 45,
		  "start": 143.837209302326,
		  "velocity": 110
		},
		{
		  "duration": 0.0581395348837209,
		  "pitch": 45,
		  "start": 143.953488372093,
		  "velocity": 110
		},
		{
		  "duration": 0.0581395348837209,
		  "pitch": 45,
		  "start": 144.06976744186,
		  "velocity": 110
		},
		{
		  "duration": 0.0581395348837209,
		  "pitch": 45,
		  "start": 144.186046511628,
		  "velocity": 110
		},
		{
		  "duration": 0.0581395348837209,
		  "pitch": 45,
		  "start": 144.302325581395,
		  "velocity": 110
		},
		{
		  "duration": 0.232558139534884,
		  "pitch": 45,
		  "start": 144.418604651163,
		  "velocity": 110
		},
		{
		  "duration": 0.116279069767442,
		  "pitch": 45,
		  "start": 144.651162790698,
		  "velocity": 110
		},
		{
		  "duration": 0.116279069767442,
		  "pitch": 45,
		  "start": 144.767441860465,
		  "velocity": 110
		},
		{
		  "duration": 0.0581395348837209,
		  "pitch": 45,
		  "start": 144.883720930233,
		  "velocity": 64
		},
		{
		  "duration": 0.0581395348837209,
		  "pitch": 45,
		  "start": 145.0,
		  "velocity": 64
		},
		{
		  "duration": 0.697674418604651,
		  "pitch": 47,
		  "start": 145.116279069767,
		  "velocity": 110
		},
		{
		  "duration": 0.348837209302326,
		  "pitch": 48,
		  "start": 145.813953488372,
		  "velocity": 110
		},
		{
		  "duration": 0.348837209302326,
		  "pitch": 50,
		  "start": 146.162790697674,
		  "velocity": 110
		},
		{
		  "duration": 1.3953488372093,
		  "pitch": 52,
		  "start": 146.511627906977,
		  "velocity": 110
		},
		{
		  "duration": 0.0581395348837209,
		  "pitch": 43,
		  "start": 147.906976744186,
		  "velocity": 110
		},
		{
		  "duration": 0.0581395348837209,
		  "pitch": 43,
		  "start": 148.139534883721,
		  "velocity": 110
		},
		{
		  "duration": 0.0581395348837209,
		  "pitch": 43,
		  "start": 148.255813953488,
		  "velocity": 110
		},
		{
		  "duration": 0.0581395348837209,
		  "pitch": 43,
		  "start": 148.372093023256,
		  "velocity": 110
		},
		{
		  "duration": 0.0581395348837209,
		  "pitch": 43,
		  "start": 148.488372093023,
		  "velocity": 110
		},
		{
		  "duration": 0.0581395348837209,
		  "pitch": 43,
		  "start": 148.604651162791,
		  "velocity": 110
		},
		{
		  "duration": 0.0581395348837209,
		  "pitch": 43,
		  "start": 148.720930232558,
		  "velocity": 110
		},
		{
		  "duration": 0.0581395348837209,
		  "pitch": 43,
		  "start": 148.837209302326,
		  "velocity": 110
		},
		{
		  "duration": 0.0581395348837209,
		  "pitch": 43,
		  "start": 148.953488372093,
		  "velocity": 110
		},
		{
		  "duration": 0.0581395348837209,
		  "pitch": 43,
		  "start": 149.06976744186,
		  "velocity": 110
		},
		{
		  "duration": 0.0581395348837209,
		  "pitch": 43,
		  "start": 149.186046511628,
		  "velocity": 110
		},
		{
		  "duration": 0.0581395348837209,
		  "pitch": 43,
		  "start": 149.302325581395,
		  "velocity": 110
		},
		{
		  "duration": 0.0581395348837209,
		  "pitch": 43,
		  "start": 149.53488372093,
		  "velocity": 110
		},
		{
		  "duration": 0.0581395348837209,
		  "pitch": 43,
		  "start": 149.651162790698,
		  "velocity": 110
		},
		{
		  "duration": 0.0581395348837209,
		  "pitch": 43,
		  "start": 149.767441860465,
		  "velocity": 110
		},
		{
		  "duration": 0.0581395348837209,
		  "pitch": 43,
		  "start": 149.883720930233,
		  "velocity": 110
		},
		{
		  "duration": 0.0581395348837209,
		  "pitch": 43,
		  "start": 150.0,
		  "velocity": 110
		},
		{
		  "duration": 0.0581395348837209,
		  "pitch": 43,
		  "start": 150.116279069767,
		  "velocity": 110
		},
		{
		  "duration": 0.0581395348837209,
		  "pitch": 43,
		  "start": 150.232558139535,
		  "velocity": 110
		},
		{
		  "duration": 0.0581395348837209,
		  "pitch": 43,
		  "start": 150.348837209302,
		  "velocity": 110
		},
		{
		  "duration": 0.0581395348837209,
		  "pitch": 43,
		  "start": 150.46511627907,
		  "velocity": 110
		},
		{
		  "duration": 0.0581395348837209,
		  "pitch": 43,
		  "start": 150.581395348837,
		  "velocity": 110
		},
		{
		  "duration": 0.697674418604651,
		  "pitch": 45,
		  "start": 150.697674418605,
		  "velocity": 110
		},
		{
		  "duration": 0.348837209302326,
		  "pitch": 47,
		  "start": 151.395348837209,
		  "velocity": 110
		},
		{
		  "duration": 0.348837209302326,
		  "pitch": 49,
		  "start": 151.744186046512,
		  "velocity": 110
		},
		{
		  "duration": 1.3953488372093,
		  "pitch": 50,
		  "start": 152.093023255814,
		  "velocity": 110
		},
		{
		  "duration": 0.0581395348837209,
		  "pitch": 45,
		  "start": 153.488372093023,
		  "velocity": 110
		},
		{
		  "duration": 0.0581395348837209,
		  "pitch": 45,
		  "start": 153.720930232558,
		  "velocity": 110
		},
		{
		  "duration": 0.0581395348837209,
		  "pitch": 45,
		  "start": 153.837209302326,
		  "velocity": 110
		},
		{
		  "duration": 0.0581395348837209,
		  "pitch": 45,
		  "start": 153.953488372093,
		  "velocity": 110
		},
		{
		  "duration": 0.0581395348837209,
		  "pitch": 45,
		  "start": 154.06976744186,
		  "velocity": 110
		},
		{
		  "duration": 0.0581395348837209,
		  "pitch": 45,
		  "start": 154.186046511628,
		  "velocity": 110
		},
		{
		  "duration": 0.0581395348837209,
		  "pitch": 45,
		  "start": 154.302325581395,
		  "velocity": 110
		},
		{
		  "duration": 0.0581395348837209,
		  "pitch": 45,
		  "start": 154.418604651163,
		  "velocity": 110
		},
		{
		  "duration": 0.0581395348837209,
		  "pitch": 45,
		  "start": 154.53488372093,
		  "velocity": 110
		},
		{
		  "duration": 0.0581395348837209,
		  "pitch": 45,
		  "start": 154.651162790698,
		  "velocity": 110
		},
		{
		  "duration": 0.0581395348837209,
		  "pitch": 45,
		  "start": 154.767441860465,
		  "velocity": 110
		},
		{
		  "duration": 0.0581395348837209,
		  "pitch": 46,
		  "start": 154.883720930233,
		  "velocity": 110
		},
		{
		  "duration": 0.0581395348837209,
		  "pitch": 46,
		  "start": 155.116279069767,
		  "velocity": 110
		},
		{
		  "duration": 0.0581395348837209,
		  "pitch": 46,
		  "start": 155.232558139535,
		  "velocity": 110
		},
		{
		  "duration": 0.0581395348837209,
		  "pitch": 46,
		  "start": 155.348837209302,
		  "velocity": 110
		},
		{
		  "duration": 0.0581395348837209,
		  "pitch": 46,
		  "start": 155.46511627907,
		  "velocity": 110
		},
		{
		  "duration": 0.0581395348837209,
		  "pitch": 46,
		  "start": 155.581395348837,
		  "velocity": 110
		},
		{
		  "duration": 0.0581395348837209,
		  "pitch": 46,
		  "start": 155.697674418605,
		  "velocity": 110
		},
		{
		  "duration": 0.0581395348837209,
		  "pitch": 46,
		  "start": 155.813953488372,
		  "velocity": 110
		},
		{
		  "duration": 0.0581395348837209,
		  "pitch": 46,
		  "start": 155.93023255814,
		  "velocity": 110
		},
		{
		  "duration": 0.0581395348837209,
		  "pitch": 46,
		  "start": 156.046511627907,
		  "velocity": 110
		},
		{
		  "duration": 0.0581395348837209,
		  "pitch": 46,
		  "start": 156.162790697674,
		  "velocity": 110
		},
		{
		  "duration": 0.0581395348837209,
		  "pitch": 50,
		  "start": 156.279069767442,
		  "velocity": 110
		},
		{
		  "duration": 0.0581395348837209,
		  "pitch": 50,
		  "start": 156.511627906977,
		  "velocity": 110
		},
		{
		  "duration": 0.0581395348837209,
		  "pitch": 50,
		  "start": 156.627906976744,
		  "velocity": 110
		},
		{
		  "duration": 0.0581395348837209,
		  "pitch": 50,
		  "start": 156.860465116279,
		  "velocity": 110
		},
		{
		  "duration": 0.0581395348837209,
		  "pitch": 50,
		  "start": 156.976744186047,
		  "velocity": 110
		},
		{
		  "duration": 0.0581395348837209,
		  "pitch": 50,
		  "start": 157.209302325581,
		  "velocity": 110
		},
		{
		  "duration": 0.0581395348837209,
		  "pitch": 48,
		  "start": 157.325581395349,
		  "velocity": 110
		},
		{
		  "duration": 0.0581395348837209,
		  "pitch": 48,
		  "start": 157.558139534884,
		  "velocity": 110
		},
		{
		  "duration": 0.0581395348837209,
		  "pitch": 50,
		  "start": 157.674418604651,
		  "velocity": 110
		},
		{
		  "duration": 0.0581395348837209,
		  "pitch": 50,
		  "start": 157.906976744186,
		  "velocity": 110
		},
		{
		  "duration": 0.0581395348837209,
		  "pitch": 50,
		  "start": 158.023255813953,
		  "velocity": 110
		},
		{
		  "duration": 0.0581395348837209,
		  "pitch": 50,
		  "start": 158.255813953488,
		  "velocity": 110
		},
		{
		  "duration": 0.0581395348837209,
		  "pitch": 50,
		  "start": 158.372093023256,
		  "velocity": 110
		},
		{
		  "duration": 0.0581395348837209,
		  "pitch": 50,
		  "start": 158.604651162791,
		  "velocity": 110
		},
		{
		  "duration": 0.0581395348837209,
		  "pitch": 48,
		  "start": 158.720930232558,
		  "velocity": 110
		},
		{
		  "duration": 0.0581395348837209,
		  "pitch": 48,
		  "start": 158.953488372093,
		  "velocity": 110
		},
		{
		  "duration": 0.0581395348837209,
		  "pitch": 50,
		  "start": 159.06976744186,
		  "velocity": 110
		},
		{
		  "duration": 0.0581395348837209,
		  "pitch": 50,
		  "start": 159.302325581395,
		  "velocity": 110
		},
		{
		  "duration": 0.0581395348837209,
		  "pitch": 50,
		  "start": 159.418604651163,
		  "velocity": 110
		},
		{
		  "duration": 0.0581395348837209,
		  "pitch": 50,
		  "start": 159.651162790698,
		  "velocity": 110
		},
		{
		  "duration": 0.0581395348837209,
		  "pitch": 50,
		  "start": 159.767441860465,
		  "velocity": 110
		},
		{
		  "duration": 0.0581395348837209,
		  "pitch": 50,
		  "start": 160.0,
		  "velocity": 110
		},
		{
		  "duration": 0.0581395348837209,
		  "pitch": 48,
		  "start": 160.116279069767,
		  "velocity": 110
		},
		{
		  "duration": 0.0581395348837209,
		  "pitch": 48,
		  "start": 160.348837209302,
		  "velocity": 110
		},
		{
		  "duration": 0.0581395348837209,
		  "pitch": 50,
		  "start": 160.46511627907,
		  "velocity": 110
		},
		{
		  "duration": 0.0581395348837209,
		  "pitch": 50,
		  "start": 160.697674418605,
		  "velocity": 110
		},
		{
		  "duration": 0.0581395348837209,
		  "pitch": 50,
		  "start": 160.813953488372,
		  "velocity": 110
		},
		{
		  "duration": 0.0581395348837209,
		  "pitch": 50,
		  "start": 161.046511627907,
		  "velocity": 110
		},
		{
		  "duration": 0.0581395348837209,
		  "pitch": 50,
		  "start": 161.162790697674,
		  "velocity": 110
		},
		{
		  "duration": 0.0581395348837209,
		  "pitch": 50,
		  "start": 161.395348837209,
		  "velocity": 110
		},
		{
		  "duration": 0.116279069767442,
		  "pitch": 48,
		  "start": 161.511627906977,
		  "velocity": 110
		},
		{
		  "duration": 0.116279069767442,
		  "pitch": 46,
		  "start": 161.627906976744,
		  "velocity": 110
		},
		{
		  "duration": 0.116279069767442,
		  "pitch": 43,
		  "start": 161.744186046512,
		  "velocity": 110
		},
		{
		  "duration": 0.0581395348837209,
		  "pitch": 45,
		  "start": 161.860465116279,
		  "velocity": 110
		},
		{
		  "duration": 0.0581395348837209,
		  "pitch": 45,
		  "start": 162.093023255814,
		  "velocity": 110
		},
		{
		  "duration": 0.0581395348837209,
		  "pitch": 45,
		  "start": 162.209302325581,
		  "velocity": 110
		},
		{
		  "duration": 0.0581395348837209,
		  "pitch": 45,
		  "start": 162.441860465116,
		  "velocity": 110
		},
		{
		  "duration": 0.0581395348837209,
		  "pitch": 45,
		  "start": 162.558139534884,
		  "velocity": 110
		},
		{
		  "duration": 0.0581395348837209,
		  "pitch": 45,
		  "start": 162.790697674419,
		  "velocity": 110
		},
		{
		  "duration": 0.0581395348837209,
		  "pitch": 45,
		  "start": 162.906976744186,
		  "velocity": 110
		},
		{
		  "duration": 0.0581395348837209,
		  "pitch": 45,
		  "start": 163.139534883721,
		  "velocity": 110
		},
		{
		  "duration": 0.0581395348837209,
		  "pitch": 45,
		  "start": 163.255813953488,
		  "velocity": 110
		},
		{
		  "duration": 0.0581395348837209,
		  "pitch": 45,
		  "start": 163.488372093023,
		  "velocity": 110
		},
		{
		  "duration": 0.0581395348837209,
		  "pitch": 45,
		  "start": 163.604651162791,
		  "velocity": 110
		},
		{
		  "duration": 0.0581395348837209,
		  "pitch": 45,
		  "start": 163.837209302326,
		  "velocity": 110
		},
		{
		  "duration": 0.0581395348837209,
		  "pitch": 45,
		  "start": 163.953488372093,
		  "velocity": 110
		},
		{
		  "duration": 0.0581395348837209,
		  "pitch": 45,
		  "start": 164.186046511628,
		  "velocity": 110
		},
		{
		  "duration": 0.0581395348837209,
		  "pitch": 45,
		  "start": 164.302325581395,
		  "velocity": 110
		},
		{
		  "duration": 0.0581395348837209,
		  "pitch": 45,
		  "start": 164.53488372093,
		  "velocity": 110
		},
		{
		  "duration": 0.0581395348837209,
		  "pitch": 45,
		  "start": 164.651162790698,
		  "velocity": 110
		},
		{
		  "duration": 0.0581395348837209,
		  "pitch": 45,
		  "start": 164.883720930233,
		  "velocity": 110
		},
		{
		  "duration": 0.0581395348837209,
		  "pitch": 45,
		  "start": 165.0,
		  "velocity": 110
		},
		{
		  "duration": 0.0581395348837209,
		  "pitch": 45,
		  "start": 165.232558139535,
		  "velocity": 110
		},
		{
		  "duration": 0.0581395348837209,
		  "pitch": 45,
		  "start": 165.348837209302,
		  "velocity": 110
		},
		{
		  "duration": 0.0581395348837209,
		  "pitch": 45,
		  "start": 165.581395348837,
		  "velocity": 110
		},
		{
		  "duration": 0.0581395348837209,
		  "pitch": 45,
		  "start": 165.697674418605,
		  "velocity": 110
		},
		{
		  "duration": 0.0581395348837209,
		  "pitch": 45,
		  "start": 165.93023255814,
		  "velocity": 110
		},
		{
		  "duration": 0.348837209302326,
		  "pitch": 45,
		  "start": 166.046511627907,
		  "velocity": 110
		},
		{
		  "duration": 0.348837209302326,
		  "pitch": 47,
		  "start": 166.395348837209,
		  "velocity": 110
		},
		{
		  "duration": 0.348837209302326,
		  "pitch": 48,
		  "start": 166.744186046512,
		  "velocity": 110
		},
		{
		  "duration": 0.348837209302326,
		  "pitch": 49,
		  "start": 167.093023255814,
		  "velocity": 110
		},
		{
		  "duration": 0.0581395348837209,
		  "pitch": 50,
		  "start": 167.441860465116,
		  "velocity": 110
		},
		{
		  "duration": 0.0581395348837209,
		  "pitch": 50,
		  "start": 167.674418604651,
		  "velocity": 110
		},
		{
		  "duration": 0.0581395348837209,
		  "pitch": 50,
		  "start": 167.790697674419,
		  "velocity": 110
		},
		{
		  "duration": 0.0581395348837209,
		  "pitch": 50,
		  "start": 168.023255813953,
		  "velocity": 110
		},
		{
		  "duration": 0.0581395348837209,
		  "pitch": 50,
		  "start": 168.139534883721,
		  "velocity": 110
		},
		{
		  "duration": 0.0581395348837209,
		  "pitch": 50,
		  "start": 168.372093023256,
		  "velocity": 110
		},
		{
		  "duration": 0.0581395348837209,
		  "pitch": 48,
		  "start": 168.488372093023,
		  "velocity": 110
		},
		{
		  "duration": 0.0581395348837209,
		  "pitch": 48,
		  "start": 168.720930232558,
		  "velocity": 110
		},
		{
		  "duration": 0.0581395348837209,
		  "pitch": 50,
		  "start": 168.837209302326,
		  "velocity": 110
		},
		{
		  "duration": 0.0581395348837209,
		  "pitch": 50,
		  "start": 169.06976744186,
		  "velocity": 110
		},
		{
		  "duration": 0.0581395348837209,
		  "pitch": 50,
		  "start": 169.186046511628,
		  "velocity": 110
		},
		{
		  "duration": 0.0581395348837209,
		  "pitch": 50,
		  "start": 169.418604651163,
		  "velocity": 110
		},
		{
		  "duration": 0.0581395348837209,
		  "pitch": 50,
		  "start": 169.53488372093,
		  "velocity": 110
		},
		{
		  "duration": 0.0581395348837209,
		  "pitch": 50,
		  "start": 169.767441860465,
		  "velocity": 110
		},
		{
		  "duration": 0.0581395348837209,
		  "pitch": 48,
		  "start": 169.883720930233,
		  "velocity": 110
		},
		{
		  "duration": 0.0581395348837209,
		  "pitch": 48,
		  "start": 170.116279069767,
		  "velocity": 110
		},
		{
		  "duration": 0.0581395348837209,
		  "pitch": 50,
		  "start": 170.232558139535,
		  "velocity": 110
		},
		{
		  "duration": 0.0581395348837209,
		  "pitch": 50,
		  "start": 170.46511627907,
		  "velocity": 110
		},
		{
		  "duration": 0.0581395348837209,
		  "pitch": 50,
		  "start": 170.581395348837,
		  "velocity": 110
		},
		{
		  "duration": 0.0581395348837209,
		  "pitch": 50,
		  "start": 170.813953488372,
		  "velocity": 110
		},
		{
		  "duration": 0.0581395348837209,
		  "pitch": 50,
		  "start": 170.93023255814,
		  "velocity": 110
		},
		{
		  "duration": 0.0581395348837209,
		  "pitch": 50,
		  "start": 171.162790697674,
		  "velocity": 110
		},
		{
		  "duration": 0.0581395348837209,
		  "pitch": 48,
		  "start": 171.279069767442,
		  "velocity": 110
		},
		{
		  "duration": 0.0581395348837209,
		  "pitch": 48,
		  "start": 171.511627906977,
		  "velocity": 110
		},
		{
		  "duration": 0.0581395348837209,
		  "pitch": 50,
		  "start": 171.627906976744,
		  "velocity": 110
		},
		{
		  "duration": 0.0581395348837209,
		  "pitch": 50,
		  "start": 171.860465116279,
		  "velocity": 110
		},
		{
		  "duration": 0.0581395348837209,
		  "pitch": 50,
		  "start": 171.976744186047,
		  "velocity": 110
		},
		{
		  "duration": 0.0581395348837209,
		  "pitch": 50,
		  "start": 172.209302325581,
		  "velocity": 110
		},
		{
		  "duration": 0.0581395348837209,
		  "pitch": 50,
		  "start": 172.325581395349,
		  "velocity": 110
		},
		{
		  "duration": 0.0581395348837209,
		  "pitch": 50,
		  "start": 172.558139534884,
		  "velocity": 110
		},
		{
		  "duration": 0.116279069767442,
		  "pitch": 48,
		  "start": 172.674418604651,
		  "velocity": 110
		},
		{
		  "duration": 0.116279069767442,
		  "pitch": 46,
		  "start": 172.790697674419,
		  "velocity": 110
		},
		{
		  "duration": 0.116279069767442,
		  "pitch": 43,
		  "start": 172.906976744186,
		  "velocity": 110
		},
		{
		  "duration": 0.0581395348837209,
		  "pitch": 45,
		  "start": 173.023255813953,
		  "velocity": 110
		},
		{
		  "duration": 0.0581395348837209,
		  "pitch": 45,
		  "start": 173.255813953488,
		  "velocity": 110
		},
		{
		  "duration": 0.0581395348837209,
		  "pitch": 45,
		  "start": 173.372093023256,
		  "velocity": 110
		},
		{
		  "duration": 0.0581395348837209,
		  "pitch": 45,
		  "start": 173.604651162791,
		  "velocity": 110
		},
		{
		  "duration": 0.0581395348837209,
		  "pitch": 45,
		  "start": 173.720930232558,
		  "velocity": 110
		},
		{
		  "duration": 0.0581395348837209,
		  "pitch": 45,
		  "start": 173.953488372093,
		  "velocity": 110
		},
		{
		  "duration": 0.0581395348837209,
		  "pitch": 45,
		  "start": 174.06976744186,
		  "velocity": 110
		},
		{
		  "duration": 0.0581395348837209,
		  "pitch": 45,
		  "start": 174.302325581395,
		  "velocity": 110
		},
		{
		  "duration": 0.0581395348837209,
		  "pitch": 45,
		  "start": 174.418604651163,
		  "velocity": 110
		},
		{
		  "duration": 0.0581395348837209,
		  "pitch": 45,
		  "start": 174.651162790698,
		  "velocity": 110
		},
		{
		  "duration": 0.0581395348837209,
		  "pitch": 45,
		  "start": 174.767441860465,
		  "velocity": 110
		},
		{
		  "duration": 0.0581395348837209,
		  "pitch": 45,
		  "start": 175.0,
		  "velocity": 110
		},
		{
		  "duration": 0.0581395348837209,
		  "pitch": 45,
		  "start": 175.116279069767,
		  "velocity": 110
		},
		{
		  "duration": 0.0581395348837209,
		  "pitch": 45,
		  "start": 175.348837209302,
		  "velocity": 110
		},
		{
		  "duration": 0.0581395348837209,
		  "pitch": 45,
		  "start": 175.46511627907,
		  "velocity": 110
		},
		{
		  "duration": 0.0581395348837209,
		  "pitch": 45,
		  "start": 175.697674418605,
		  "velocity": 110
		},
		{
		  "duration": 0.0581395348837209,
		  "pitch": 45,
		  "start": 175.813953488372,
		  "velocity": 110
		},
		{
		  "duration": 0.0581395348837209,
		  "pitch": 45,
		  "start": 176.046511627907,
		  "velocity": 110
		},
		{
		  "duration": 0.0581395348837209,
		  "pitch": 45,
		  "start": 176.162790697674,
		  "velocity": 110
		},
		{
		  "duration": 0.0581395348837209,
		  "pitch": 45,
		  "start": 176.395348837209,
		  "velocity": 110
		},
		{
		  "duration": 0.0581395348837209,
		  "pitch": 45,
		  "start": 176.511627906977,
		  "velocity": 110
		},
		{
		  "duration": 0.0581395348837209,
		  "pitch": 45,
		  "start": 176.744186046512,
		  "velocity": 110
		},
		{
		  "duration": 0.0581395348837209,
		  "pitch": 45,
		  "start": 176.860465116279,
		  "velocity": 110
		},
		{
		  "duration": 0.0581395348837209,
		  "pitch": 45,
		  "start": 177.093023255814,
		  "velocity": 110
		},
		{
		  "duration": 0.348837209302326,
		  "pitch": 45,
		  "start": 177.209302325581,
		  "velocity": 110
		},
		{
		  "duration": 0.348837209302326,
		  "pitch": 47,
		  "start": 177.558139534884,
		  "velocity": 110
		},
		{
		  "duration": 0.348837209302326,
		  "pitch": 48,
		  "start": 177.906976744186,
		  "velocity": 110
		},
		{
		  "duration": 0.348837209302326,
		  "pitch": 49,
		  "start": 178.255813953488,
		  "velocity": 110
		},
		{
		  "duration": 0.0581395348837209,
		  "pitch": 50,
		  "start": 178.604651162791,
		  "velocity": 110
		},
		{
		  "duration": 0.0581395348837209,
		  "pitch": 50,
		  "start": 178.837209302326,
		  "velocity": 110
		},
		{
		  "duration": 0.0581395348837209,
		  "pitch": 50,
		  "start": 178.953488372093,
		  "velocity": 110
		},
		{
		  "duration": 0.0581395348837209,
		  "pitch": 50,
		  "start": 179.186046511628,
		  "velocity": 110
		},
		{
		  "duration": 0.0581395348837209,
		  "pitch": 50,
		  "start": 179.302325581395,
		  "velocity": 110
		},
		{
		  "duration": 0.0581395348837209,
		  "pitch": 50,
		  "start": 179.53488372093,
		  "velocity": 110
		},
		{
		  "duration": 0.0581395348837209,
		  "pitch": 48,
		  "start": 179.651162790698,
		  "velocity": 110
		},
		{
		  "duration": 0.0581395348837209,
		  "pitch": 48,
		  "start": 179.883720930233,
		  "velocity": 110
		},
		{
		  "duration": 0.0581395348837209,
		  "pitch": 50,
		  "start": 180.0,
		  "velocity": 110
		},
		{
		  "duration": 0.0581395348837209,
		  "pitch": 50,
		  "start": 180.232558139535,
		  "velocity": 110
		},
		{
		  "duration": 0.0581395348837209,
		  "pitch": 50,
		  "start": 180.348837209302,
		  "velocity": 110
		},
		{
		  "duration": 0.0581395348837209,
		  "pitch": 50,
		  "start": 180.581395348837,
		  "velocity": 110
		},
		{
		  "duration": 0.0581395348837209,
		  "pitch": 50,
		  "start": 180.697674418605,
		  "velocity": 110
		},
		{
		  "duration": 0.0581395348837209,
		  "pitch": 50,
		  "start": 180.93023255814,
		  "velocity": 110
		},
		{
		  "duration": 0.0581395348837209,
		  "pitch": 48,
		  "start": 181.046511627907,
		  "velocity": 110
		},
		{
		  "duration": 0.0581395348837209,
		  "pitch": 48,
		  "start": 181.279069767442,
		  "velocity": 110
		},
		{
		  "duration": 0.0581395348837209,
		  "pitch": 50,
		  "start": 181.395348837209,
		  "velocity": 110
		},
		{
		  "duration": 0.0581395348837209,
		  "pitch": 50,
		  "start": 181.627906976744,
		  "velocity": 110
		},
		{
		  "duration": 0.0581395348837209,
		  "pitch": 50,
		  "start": 181.744186046512,
		  "velocity": 110
		},
		{
		  "duration": 0.0581395348837209,
		  "pitch": 50,
		  "start": 181.976744186047,
		  "velocity": 110
		},
		{
		  "duration": 0.0581395348837209,
		  "pitch": 50,
		  "start": 182.093023255814,
		  "velocity": 110
		},
		{
		  "duration": 0.0581395348837209,
		  "pitch": 50,
		  "start": 182.325581395349,
		  "velocity": 110
		},
		{
		  "duration": 0.0581395348837209,
		  "pitch": 48,
		  "start": 182.441860465116,
		  "velocity": 110
		},
		{
		  "duration": 0.0581395348837209,
		  "pitch": 48,
		  "start": 182.674418604651,
		  "velocity": 110
		},
		{
		  "duration": 0.0581395348837209,
		  "pitch": 50,
		  "start": 182.790697674419,
		  "velocity": 110
		},
		{
		  "duration": 0.0581395348837209,
		  "pitch": 50,
		  "start": 183.023255813953,
		  "velocity": 110
		},
		{
		  "duration": 0.0581395348837209,
		  "pitch": 50,
		  "start": 183.139534883721,
		  "velocity": 110
		},
		{
		  "duration": 0.0581395348837209,
		  "pitch": 50,
		  "start": 183.372093023256,
		  "velocity": 110
		},
		{
		  "duration": 0.0581395348837209,
		  "pitch": 50,
		  "start": 183.488372093023,
		  "velocity": 110
		},
		{
		  "duration": 0.0581395348837209,
		  "pitch": 50,
		  "start": 183.720930232558,
		  "velocity": 110
		},
		{
		  "duration": 0.116279069767442,
		  "pitch": 48,
		  "start": 183.837209302326,
		  "velocity": 110
		},
		{
		  "duration": 0.116279069767442,
		  "pitch": 46,
		  "start": 183.953488372093,
		  "velocity": 110
		},
		{
		  "duration": 0.116279069767442,
		  "pitch": 43,
		  "start": 184.06976744186,
		  "velocity": 110
		},
		{
		  "duration": 0.0581395348837209,
		  "pitch": 45,
		  "start": 184.186046511628,
		  "velocity": 110
		},
		{
		  "duration": 0.0581395348837209,
		  "pitch": 45,
		  "start": 184.418604651163,
		  "velocity": 110
		},
		{
		  "duration": 0.0581395348837209,
		  "pitch": 45,
		  "start": 184.53488372093,
		  "velocity": 110
		},
		{
		  "duration": 0.0581395348837209,
		  "pitch": 45,
		  "start": 184.767441860465,
		  "velocity": 110
		},
		{
		  "duration": 0.0581395348837209,
		  "pitch": 45,
		  "start": 184.883720930233,
		  "velocity": 110
		},
		{
		  "duration": 0.0581395348837209,
		  "pitch": 45,
		  "start": 185.116279069767,
		  "velocity": 110
		},
		{
		  "duration": 0.0581395348837209,
		  "pitch": 45,
		  "start": 185.232558139535,
		  "velocity": 110
		},
		{
		  "duration": 0.0581395348837209,
		  "pitch": 45,
		  "start": 185.46511627907,
		  "velocity": 110
		},
		{
		  "duration": 0.0581395348837209,
		  "pitch": 45,
		  "start": 185.581395348837,
		  "velocity": 110
		},
		{
		  "duration": 0.0581395348837209,
		  "pitch": 45,
		  "start": 185.813953488372,
		  "velocity": 110
		},
		{
		  "duration": 0.0581395348837209,
		  "pitch": 45,
		  "start": 185.93023255814,
		  "velocity": 110
		},
		{
		  "duration": 0.0581395348837209,
		  "pitch": 45,
		  "start": 186.162790697674,
		  "velocity": 110
		},
		{
		  "duration": 0.0581395348837209,
		  "pitch": 45,
		  "start": 186.279069767442,
		  "velocity": 110
		},
		{
		  "duration": 0.0581395348837209,
		  "pitch": 45,
		  "start": 186.511627906977,
		  "velocity": 110
		},
		{
		  "duration": 0.0581395348837209,
		  "pitch": 45,
		  "start": 186.627906976744,
		  "velocity": 110
		},
		{
		  "duration": 0.0581395348837209,
		  "pitch": 45,
		  "start": 186.860465116279,
		  "velocity": 110
		},
		{
		  "duration": 0.0581395348837209,
		  "pitch": 48,
		  "start": 186.976744186047,
		  "velocity": 110
		},
		{
		  "duration": 0.0581395348837209,
		  "pitch": 48,
		  "start": 187.209302325581,
		  "velocity": 110
		},
		{
		  "duration": 0.0581395348837209,
		  "pitch": 48,
		  "start": 187.325581395349,
		  "velocity": 110
		},
		{
		  "duration": 0.0581395348837209,
		  "pitch": 48,
		  "start": 187.558139534884,
		  "velocity": 110
		},
		{
		  "duration": 0.0581395348837209,
		  "pitch": 48,
		  "start": 187.674418604651,
		  "velocity": 110
		},
		{
		  "duration": 0.0581395348837209,
		  "pitch": 48,
		  "start": 187.906976744186,
		  "velocity": 110
		},
		{
		  "duration": 0.0581395348837209,
		  "pitch": 48,
		  "start": 188.023255813953,
		  "velocity": 110
		},
		{
		  "duration": 0.0581395348837209,
		  "pitch": 48,
		  "start": 188.255813953488,
		  "velocity": 110
		},
		{
		  "duration": 0.0581395348837209,
		  "pitch": 47,
		  "start": 188.372093023256,
		  "velocity": 110
		},
		{
		  "duration": 0.0581395348837209,
		  "pitch": 47,
		  "start": 188.604651162791,
		  "velocity": 110
		},
		{
		  "duration": 0.0581395348837209,
		  "pitch": 47,
		  "start": 188.720930232558,
		  "velocity": 110
		},
		{
		  "duration": 0.0581395348837209,
		  "pitch": 47,
		  "start": 188.953488372093,
		  "velocity": 110
		},
		{
		  "duration": 0.0581395348837209,
		  "pitch": 52,
		  "start": 189.06976744186,
		  "velocity": 110
		},
		{
		  "duration": 0.0581395348837209,
		  "pitch": 52,
		  "start": 189.302325581395,
		  "velocity": 110
		},
		{
		  "duration": 0.116279069767442,
		  "pitch": 50,
		  "start": 189.418604651163,
		  "velocity": 110
		},
		{
		  "duration": 0.116279069767442,
		  "pitch": 48,
		  "start": 189.53488372093,
		  "velocity": 110
		},
		{
		  "duration": 0.116279069767442,
		  "pitch": 47,
		  "start": 189.651162790698,
		  "velocity": 110
		},
		{
		  "duration": 0.0581395348837209,
		  "pitch": 45,
		  "start": 189.767441860465,
		  "velocity": 110
		},
		{
		  "duration": 0.0581395348837209,
		  "pitch": 45,
		  "start": 189.883720930233,
		  "velocity": 110
		},
		{
		  "duration": 0.0581395348837209,
		  "pitch": 45,
		  "start": 190.0,
		  "velocity": 110
		},
		{
		  "duration": 0.348837209302326,
		  "pitch": 48,
		  "start": 190.116279069767,
		  "velocity": 110
		},
		{
		  "duration": 0.0581395348837209,
		  "pitch": 45,
		  "start": 190.46511627907,
		  "velocity": 110
		},
		{
		  "duration": 0.0581395348837209,
		  "pitch": 45,
		  "start": 190.581395348837,
		  "velocity": 110
		},
		{
		  "duration": 0.0581395348837209,
		  "pitch": 45,
		  "start": 190.697674418605,
		  "velocity": 110
		},
		{
		  "duration": 0.348837209302326,
		  "pitch": 50,
		  "start": 190.813953488372,
		  "velocity": 110
		},
		{
		  "duration": 0.0581395348837209,
		  "pitch": 45,
		  "start": 191.162790697674,
		  "velocity": 110
		},
		{
		  "duration": 0.0581395348837209,
		  "pitch": 45,
		  "start": 191.279069767442,
		  "velocity": 110
		},
		{
		  "duration": 0.0581395348837209,
		  "pitch": 45,
		  "start": 191.395348837209,
		  "velocity": 110
		},
		{
		  "duration": 0.232558139534884,
		  "pitch": 50,
		  "start": 191.511627906977,
		  "velocity": 110
		},
		{
		  "duration": 0.116279069767442,
		  "pitch": 48,
		  "start": 191.744186046512,
		  "velocity": 110
		},
		{
		  "duration": 0.232558139534884,
		  "pitch": 48,
		  "start": 191.860465116279,
		  "velocity": 110
		},
		{
		  "duration": 0.116279069767442,
		  "pitch": 47,
		  "start": 192.093023255814,
		  "velocity": 110
		},
		{
		  "duration": 0.232558139534884,
		  "pitch": 48,
		  "start": 192.209302325581,
		  "velocity": 110
		},
		{
		  "duration": 0.116279069767442,
		  "pitch": 47,
		  "start": 192.441860465116,
		  "velocity": 110
		},
		{
		  "duration": 0.0581395348837209,
		  "pitch": 45,
		  "start": 192.558139534884,
		  "velocity": 110
		},
		{
		  "duration": 0.0581395348837209,
		  "pitch": 45,
		  "start": 192.674418604651,
		  "velocity": 110
		},
		{
		  "duration": 0.0581395348837209,
		  "pitch": 45,
		  "start": 192.790697674419,
		  "velocity": 110
		},
		{
		  "duration": 0.348837209302326,
		  "pitch": 48,
		  "start": 192.906976744186,
		  "velocity": 110
		},
		{
		  "duration": 0.0581395348837209,
		  "pitch": 45,
		  "start": 193.255813953488,
		  "velocity": 110
		},
		{
		  "duration": 0.0581395348837209,
		  "pitch": 45,
		  "start": 193.372093023256,
		  "velocity": 110
		},
		{
		  "duration": 0.0581395348837209,
		  "pitch": 45,
		  "start": 193.488372093023,
		  "velocity": 110
		},
		{
		  "duration": 0.348837209302326,
		  "pitch": 50,
		  "start": 193.604651162791,
		  "velocity": 110
		},
		{
		  "duration": 0.0581395348837209,
		  "pitch": 45,
		  "start": 193.953488372093,
		  "velocity": 110
		},
		{
		  "duration": 0.0581395348837209,
		  "pitch": 45,
		  "start": 194.06976744186,
		  "velocity": 110
		},
		{
		  "duration": 0.0581395348837209,
		  "pitch": 45,
		  "start": 194.186046511628,
		  "velocity": 110
		},
		{
		  "duration": 0.232558139534884,
		  "pitch": 50,
		  "start": 194.302325581395,
		  "velocity": 110
		},
		{
		  "duration": 0.116279069767442,
		  "pitch": 48,
		  "start": 194.53488372093,
		  "velocity": 110
		},
		{
		  "duration": 0.232558139534884,
		  "pitch": 48,
		  "start": 194.651162790698,
		  "velocity": 110
		},
		{
		  "duration": 0.116279069767442,
		  "pitch": 47,
		  "start": 194.883720930233,
		  "velocity": 110
		},
		{
		  "duration": 0.232558139534884,
		  "pitch": 48,
		  "start": 195.0,
		  "velocity": 110
		},
		{
		  "duration": 0.116279069767442,
		  "pitch": 47,
		  "start": 195.232558139535,
		  "velocity": 110
		},
		{
		  "duration": 0.0581395348837209,
		  "pitch": 48,
		  "start": 195.348837209302,
		  "velocity": 110
		},
		{
		  "duration": 0.0581395348837209,
		  "pitch": 48,
		  "start": 195.46511627907,
		  "velocity": 110
		},
		{
		  "duration": 0.0581395348837209,
		  "pitch": 48,
		  "start": 195.581395348837,
		  "velocity": 110
		},
		{
		  "duration": 0.348837209302326,
		  "pitch": 51,
		  "start": 195.697674418605,
		  "velocity": 110
		},
		{
		  "duration": 0.0581395348837209,
		  "pitch": 48,
		  "start": 196.046511627907,
		  "velocity": 110
		},
		{
		  "duration": 0.0581395348837209,
		  "pitch": 48,
		  "start": 196.162790697674,
		  "velocity": 110
		},
		{
		  "duration": 0.0581395348837209,
		  "pitch": 48,
		  "start": 196.279069767442,
		  "velocity": 110
		},
		{
		  "duration": 0.348837209302326,
		  "pitch": 53,
		  "start": 196.395348837209,
		  "velocity": 110
		},
		{
		  "duration": 0.0581395348837209,
		  "pitch": 48,
		  "start": 196.744186046512,
		  "velocity": 110
		},
		{
		  "duration": 0.0581395348837209,
		  "pitch": 48,
		  "start": 196.860465116279,
		  "velocity": 110
		},
		{
		  "duration": 0.0581395348837209,
		  "pitch": 48,
		  "start": 196.976744186047,
		  "velocity": 110
		},
		{
		  "duration": 0.232558139534884,
		  "pitch": 53,
		  "start": 197.093023255814,
		  "velocity": 110
		},
		{
		  "duration": 0.116279069767442,
		  "pitch": 51,
		  "start": 197.325581395349,
		  "velocity": 110
		},
		{
		  "duration": 0.232558139534884,
		  "pitch": 51,
		  "start": 197.441860465116,
		  "velocity": 110
		},
		{
		  "duration": 0.116279069767442,
		  "pitch": 50,
		  "start": 197.674418604651,
		  "velocity": 110
		},
		{
		  "duration": 0.232558139534884,
		  "pitch": 51,
		  "start": 197.790697674419,
		  "velocity": 110
		},
		{
		  "duration": 0.116279069767442,
		  "pitch": 50,
		  "start": 198.023255813953,
		  "velocity": 110
		},
		{
		  "duration": 0.0581395348837209,
		  "pitch": 48,
		  "start": 198.139534883721,
		  "velocity": 110
		},
		{
		  "duration": 0.0581395348837209,
		  "pitch": 48,
		  "start": 198.255813953488,
		  "velocity": 110
		},
		{
		  "duration": 0.0581395348837209,
		  "pitch": 48,
		  "start": 198.372093023256,
		  "velocity": 110
		},
		{
		  "duration": 0.348837209302326,
		  "pitch": 51,
		  "start": 198.488372093023,
		  "velocity": 110
		},
		{
		  "duration": 0.0581395348837209,
		  "pitch": 48,
		  "start": 198.837209302326,
		  "velocity": 110
		},
		{
		  "duration": 0.0581395348837209,
		  "pitch": 48,
		  "start": 198.953488372093,
		  "velocity": 110
		},
		{
		  "duration": 0.0581395348837209,
		  "pitch": 48,
		  "start": 199.06976744186,
		  "velocity": 110
		},
		{
		  "duration": 0.348837209302326,
		  "pitch": 53,
		  "start": 199.186046511628,
		  "velocity": 110
		},
		{
		  "duration": 0.0581395348837209,
		  "pitch": 48,
		  "start": 199.53488372093,
		  "velocity": 110
		},
		{
		  "duration": 0.0581395348837209,
		  "pitch": 48,
		  "start": 199.651162790698,
		  "velocity": 110
		},
		{
		  "duration": 0.0581395348837209,
		  "pitch": 48,
		  "start": 199.767441860465,
		  "velocity": 110
		},
		{
		  "duration": 0.232558139534884,
		  "pitch": 53,
		  "start": 199.883720930233,
		  "velocity": 110
		},
		{
		  "duration": 0.116279069767442,
		  "pitch": 51,
		  "start": 200.116279069767,
		  "velocity": 110
		},
		{
		  "duration": 0.232558139534884,
		  "pitch": 51,
		  "start": 200.232558139535,
		  "velocity": 110
		},
		{
		  "duration": 0.116279069767442,
		  "pitch": 50,
		  "start": 200.46511627907,
		  "velocity": 110
		},
		{
		  "duration": 0.232558139534884,
		  "pitch": 51,
		  "start": 200.581395348837,
		  "velocity": 110
		},
		{
		  "duration": 0.116279069767442,
		  "pitch": 50,
		  "start": 200.813953488372,
		  "velocity": 110
		},
		{
		  "duration": 0.0581395348837209,
		  "pitch": 45,
		  "start": 200.93023255814,
		  "velocity": 110
		},
		{
		  "duration": 0.0581395348837209,
		  "pitch": 45,
		  "start": 201.046511627907,
		  "velocity": 110
		},
		{
		  "duration": 0.0581395348837209,
		  "pitch": 45,
		  "start": 201.162790697674,
		  "velocity": 110
		},
		{
		  "duration": 0.348837209302326,
		  "pitch": 48,
		  "start": 201.279069767442,
		  "velocity": 110
		},
		{
		  "duration": 0.0581395348837209,
		  "pitch": 45,
		  "start": 201.627906976744,
		  "velocity": 110
		},
		{
		  "duration": 0.0581395348837209,
		  "pitch": 45,
		  "start": 201.744186046512,
		  "velocity": 110
		},
		{
		  "duration": 0.0581395348837209,
		  "pitch": 45,
		  "start": 201.860465116279,
		  "velocity": 110
		},
		{
		  "duration": 0.348837209302326,
		  "pitch": 50,
		  "start": 201.976744186047,
		  "velocity": 110
		},
		{
		  "duration": 0.0581395348837209,
		  "pitch": 45,
		  "start": 202.325581395349,
		  "velocity": 110
		},
		{
		  "duration": 0.0581395348837209,
		  "pitch": 45,
		  "start": 202.441860465116,
		  "velocity": 110
		},
		{
		  "duration": 0.0581395348837209,
		  "pitch": 45,
		  "start": 202.558139534884,
		  "velocity": 110
		},
		{
		  "duration": 0.232558139534884,
		  "pitch": 50,
		  "start": 202.674418604651,
		  "velocity": 110
		},
		{
		  "duration": 0.116279069767442,
		  "pitch": 48,
		  "start": 202.906976744186,
		  "velocity": 110
		},
		{
		  "duration": 0.232558139534884,
		  "pitch": 48,
		  "start": 203.023255813953,
		  "velocity": 110
		},
		{
		  "duration": 0.116279069767442,
		  "pitch": 47,
		  "start": 203.255813953488,
		  "velocity": 110
		},
		{
		  "duration": 0.232558139534884,
		  "pitch": 48,
		  "start": 203.372093023256,
		  "velocity": 110
		},
		{
		  "duration": 0.116279069767442,
		  "pitch": 47,
		  "start": 203.604651162791,
		  "velocity": 110
		},
		{
		  "duration": 0.0581395348837209,
		  "pitch": 45,
		  "start": 203.720930232558,
		  "velocity": 110
		},
		{
		  "duration": 0.0581395348837209,
		  "pitch": 45,
		  "start": 203.837209302326,
		  "velocity": 110
		},
		{
		  "duration": 0.0581395348837209,
		  "pitch": 45,
		  "start": 203.953488372093,
		  "velocity": 110
		},
		{
		  "duration": 0.348837209302326,
		  "pitch": 48,
		  "start": 204.06976744186,
		  "velocity": 110
		},
		{
		  "duration": 0.0581395348837209,
		  "pitch": 45,
		  "start": 204.418604651163,
		  "velocity": 110
		},
		{
		  "duration": 0.0581395348837209,
		  "pitch": 45,
		  "start": 204.53488372093,
		  "velocity": 110
		},
		{
		  "duration": 0.0581395348837209,
		  "pitch": 45,
		  "start": 204.651162790698,
		  "velocity": 110
		},
		{
		  "duration": 0.348837209302326,
		  "pitch": 50,
		  "start": 204.767441860465,
		  "velocity": 110
		},
		{
		  "duration": 0.0581395348837209,
		  "pitch": 45,
		  "start": 205.116279069767,
		  "velocity": 110
		},
		{
		  "duration": 0.0581395348837209,
		  "pitch": 45,
		  "start": 205.232558139535,
		  "velocity": 110
		},
		{
		  "duration": 0.0581395348837209,
		  "pitch": 45,
		  "start": 205.348837209302,
		  "velocity": 110
		},
		{
		  "duration": 0.232558139534884,
		  "pitch": 50,
		  "start": 205.46511627907,
		  "velocity": 110
		},
		{
		  "duration": 0.116279069767442,
		  "pitch": 48,
		  "start": 205.697674418605,
		  "velocity": 110
		},
		{
		  "duration": 0.232558139534884,
		  "pitch": 48,
		  "start": 205.813953488372,
		  "velocity": 110
		},
		{
		  "duration": 0.116279069767442,
		  "pitch": 47,
		  "start": 206.046511627907,
		  "velocity": 110
		},
		{
		  "duration": 0.232558139534884,
		  "pitch": 48,
		  "start": 206.162790697674,
		  "velocity": 110
		},
		{
		  "duration": 0.116279069767442,
		  "pitch": 47,
		  "start": 206.395348837209,
		  "velocity": 110
		},
		{
		  "duration": 0.0581395348837209,
		  "pitch": 48,
		  "start": 206.511627906977,
		  "velocity": 110
		},
		{
		  "duration": 0.0581395348837209,
		  "pitch": 48,
		  "start": 206.627906976744,
		  "velocity": 110
		},
		{
		  "duration": 0.0581395348837209,
		  "pitch": 48,
		  "start": 206.744186046512,
		  "velocity": 110
		},
		{
		  "duration": 0.348837209302326,
		  "pitch": 51,
		  "start": 206.860465116279,
		  "velocity": 110
		},
		{
		  "duration": 0.0581395348837209,
		  "pitch": 48,
		  "start": 207.209302325581,
		  "velocity": 110
		},
		{
		  "duration": 0.0581395348837209,
		  "pitch": 48,
		  "start": 207.325581395349,
		  "velocity": 110
		},
		{
		  "duration": 0.0581395348837209,
		  "pitch": 48,
		  "start": 207.441860465116,
		  "velocity": 110
		},
		{
		  "duration": 0.348837209302326,
		  "pitch": 53,
		  "start": 207.558139534884,
		  "velocity": 110
		},
		{
		  "duration": 0.0581395348837209,
		  "pitch": 48,
		  "start": 207.906976744186,
		  "velocity": 110
		},
		{
		  "duration": 0.0581395348837209,
		  "pitch": 48,
		  "start": 208.023255813953,
		  "velocity": 110
		},
		{
		  "duration": 0.0581395348837209,
		  "pitch": 48,
		  "start": 208.139534883721,
		  "velocity": 110
		},
		{
		  "duration": 0.232558139534884,
		  "pitch": 53,
		  "start": 208.255813953488,
		  "velocity": 110
		},
		{
		  "duration": 0.116279069767442,
		  "pitch": 51,
		  "start": 208.488372093023,
		  "velocity": 110
		},
		{
		  "duration": 0.232558139534884,
		  "pitch": 51,
		  "start": 208.604651162791,
		  "velocity": 110
		},
		{
		  "duration": 0.116279069767442,
		  "pitch": 50,
		  "start": 208.837209302326,
		  "velocity": 110
		},
		{
		  "duration": 0.232558139534884,
		  "pitch": 51,
		  "start": 208.953488372093,
		  "velocity": 110
		},
		{
		  "duration": 0.116279069767442,
		  "pitch": 50,
		  "start": 209.186046511628,
		  "velocity": 110
		},
		{
		  "duration": 0.0581395348837209,
		  "pitch": 48,
		  "start": 209.302325581395,
		  "velocity": 110
		},
		{
		  "duration": 0.0581395348837209,
		  "pitch": 48,
		  "start": 209.418604651163,
		  "velocity": 110
		},
		{
		  "duration": 0.0581395348837209,
		  "pitch": 48,
		  "start": 209.53488372093,
		  "velocity": 110
		},
		{
		  "duration": 0.348837209302326,
		  "pitch": 51,
		  "start": 209.651162790698,
		  "velocity": 110
		},
		{
		  "duration": 0.0581395348837209,
		  "pitch": 48,
		  "start": 210.0,
		  "velocity": 110
		},
		{
		  "duration": 0.0581395348837209,
		  "pitch": 48,
		  "start": 210.116279069767,
		  "velocity": 110
		},
		{
		  "duration": 0.0581395348837209,
		  "pitch": 48,
		  "start": 210.232558139535,
		  "velocity": 110
		},
		{
		  "duration": 0.348837209302326,
		  "pitch": 53,
		  "start": 210.348837209302,
		  "velocity": 110
		},
		{
		  "duration": 0.0581395348837209,
		  "pitch": 48,
		  "start": 210.697674418605,
		  "velocity": 110
		},
		{
		  "duration": 0.0581395348837209,
		  "pitch": 48,
		  "start": 210.813953488372,
		  "velocity": 110
		},
		{
		  "duration": 0.0581395348837209,
		  "pitch": 48,
		  "start": 210.93023255814,
		  "velocity": 110
		},
		{
		  "duration": 0.232558139534884,
		  "pitch": 53,
		  "start": 211.046511627907,
		  "velocity": 110
		},
		{
		  "duration": 0.116279069767442,
		  "pitch": 51,
		  "start": 211.279069767442,
		  "velocity": 110
		},
		{
		  "duration": 0.232558139534884,
		  "pitch": 51,
		  "start": 211.395348837209,
		  "velocity": 110
		},
		{
		  "duration": 0.116279069767442,
		  "pitch": 50,
		  "start": 211.627906976744,
		  "velocity": 110
		},
		{
		  "duration": 0.232558139534884,
		  "pitch": 51,
		  "start": 211.744186046512,
		  "velocity": 110
		},
		{
		  "duration": 0.116279069767442,
		  "pitch": 50,
		  "start": 211.976744186047,
		  "velocity": 110
		},
		{
		  "duration": 0.697674418604651,
		  "pitch": 45,
		  "start": 212.093023255814,
		  "velocity": 110
		},
		{
		  "duration": 0.697674418604651,
		  "pitch": 47,
		  "start": 212.790697674419,
		  "velocity": 110
		},
		{
		  "duration": 0.697674418604651,
		  "pitch": 48,
		  "start": 213.488372093023,
		  "velocity": 110
		},
		{
		  "duration": 0.697674418604651,
		  "pitch": 50,
		  "start": 214.186046511628,
		  "velocity": 110
		},
		{
		  "duration": 1.04651162790698,
		  "pitch": 41,
		  "start": 214.883720930233,
		  "velocity": 110
		},
		{
		  "duration": 0.348837209302326,
		  "pitch": 43,
		  "start": 215.93023255814,
		  "velocity": 110
		},
		{
		  "duration": 0.697674418604651,
		  "pitch": 45,
		  "start": 216.279069767442,
		  "velocity": 110
		},
		{
		  "duration": 0.697674418604651,
		  "pitch": 40,
		  "start": 216.976744186047,
		  "velocity": 110
		},
		{
		  "duration": 2.44186046511628,
		  "pitch": 45,
		  "start": 217.674418604651,
		  "velocity": 110
		},
		{
		  "duration": 0.697674418604651,
		  "pitch": 45,
		  "start": 220.46511627907,
		  "velocity": 110
		},
		{
		  "duration": 0.697674418604651,
		  "pitch": 47,
		  "start": 221.162790697674,
		  "velocity": 110
		},
		{
		  "duration": 0.697674418604651,
		  "pitch": 48,
		  "start": 221.860465116279,
		  "velocity": 110
		},
		{
		  "duration": 0.697674418604651,
		  "pitch": 50,
		  "start": 222.558139534884,
		  "velocity": 110
		},
		{
		  "duration": 1.04651162790698,
		  "pitch": 41,
		  "start": 223.255813953488,
		  "velocity": 110
		},
		{
		  "duration": 0.348837209302326,
		  "pitch": 43,
		  "start": 224.302325581395,
		  "velocity": 110
		},
		{
		  "duration": 0.697674418604651,
		  "pitch": 45,
		  "start": 224.651162790698,
		  "velocity": 110
		},
		{
		  "duration": 0.697674418604651,
		  "pitch": 40,
		  "start": 225.348837209302,
		  "velocity": 110
		},
		{
		  "duration": 2.44186046511628,
		  "pitch": 45,
		  "start": 226.046511627907,
		  "velocity": 110
		},
		{
		  "duration": 0.0581395348837209,
		  "pitch": 45,
		  "start": 228.837209302326,
		  "velocity": 110
		},
		{
		  "duration": 0.0581395348837209,
		  "pitch": 45,
		  "start": 228.953488372093,
		  "velocity": 110
		},
		{
		  "duration": 0.0581395348837209,
		  "pitch": 45,
		  "start": 229.06976744186,
		  "velocity": 110
		},
		{
		  "duration": 0.0581395348837209,
		  "pitch": 45,
		  "start": 229.186046511628,
		  "velocity": 110
		},
		{
		  "duration": 0.0581395348837209,
		  "pitch": 45,
		  "start": 229.302325581395,
		  "velocity": 110
		},
		{
		  "duration": 0.0581395348837209,
		  "pitch": 45,
		  "start": 229.418604651163,
		  "velocity": 110
		},
		{
		  "duration": 0.232558139534884,
		  "pitch": 45,
		  "start": 229.53488372093,
		  "velocity": 110
		},
		{
		  "duration": 0.116279069767442,
		  "pitch": 45,
		  "start": 229.767441860465,
		  "velocity": 110
		},
		{
		  "duration": 0.116279069767442,
		  "pitch": 45,
		  "start": 229.883720930233,
		  "velocity": 110
		},
		{
		  "duration": 0.0581395348837209,
		  "pitch": 45,
		  "start": 230.0,
		  "velocity": 64
		},
		{
		  "duration": 0.0581395348837209,
		  "pitch": 45,
		  "start": 230.116279069767,
		  "velocity": 64
		},
		{
		  "duration": 0.0581395348837209,
		  "pitch": 45,
		  "start": 230.232558139535,
		  "velocity": 110
		},
		{
		  "duration": 0.0581395348837209,
		  "pitch": 45,
		  "start": 230.348837209302,
		  "velocity": 110
		},
		{
		  "duration": 0.0581395348837209,
		  "pitch": 45,
		  "start": 230.46511627907,
		  "velocity": 110
		},
		{
		  "duration": 0.0581395348837209,
		  "pitch": 45,
		  "start": 230.581395348837,
		  "velocity": 110
		},
		{
		  "duration": 0.0581395348837209,
		  "pitch": 45,
		  "start": 230.697674418605,
		  "velocity": 110
		},
		{
		  "duration": 0.0581395348837209,
		  "pitch": 45,
		  "start": 230.813953488372,
		  "velocity": 110
		},
		{
		  "duration": 0.232558139534884,
		  "pitch": 45,
		  "start": 230.93023255814,
		  "velocity": 110
		},
		{
		  "duration": 0.116279069767442,
		  "pitch": 45,
		  "start": 231.162790697674,
		  "velocity": 110
		},
		{
		  "duration": 0.116279069767442,
		  "pitch": 45,
		  "start": 231.279069767442,
		  "velocity": 110
		},
		{
		  "duration": 0.0581395348837209,
		  "pitch": 45,
		  "start": 231.395348837209,
		  "velocity": 64
		},
		{
		  "duration": 0.0581395348837209,
		  "pitch": 45,
		  "start": 231.511627906977,
		  "velocity": 64
		},
		{
		  "duration": 0.0581395348837209,
		  "pitch": 45,
		  "start": 231.627906976744,
		  "velocity": 110
		},
		{
		  "duration": 0.0581395348837209,
		  "pitch": 45,
		  "start": 231.744186046512,
		  "velocity": 110
		},
		{
		  "duration": 0.0581395348837209,
		  "pitch": 45,
		  "start": 231.860465116279,
		  "velocity": 110
		},
		{
		  "duration": 0.0581395348837209,
		  "pitch": 45,
		  "start": 231.976744186047,
		  "velocity": 110
		},
		{
		  "duration": 0.0581395348837209,
		  "pitch": 45,
		  "start": 232.093023255814,
		  "velocity": 110
		},
		{
		  "duration": 0.0581395348837209,
		  "pitch": 45,
		  "start": 232.209302325581,
		  "velocity": 110
		},
		{
		  "duration": 0.232558139534884,
		  "pitch": 45,
		  "start": 232.325581395349,
		  "velocity": 110
		},
		{
		  "duration": 0.116279069767442,
		  "pitch": 45,
		  "start": 232.558139534884,
		  "velocity": 110
		},
		{
		  "duration": 0.116279069767442,
		  "pitch": 45,
		  "start": 232.674418604651,
		  "velocity": 110
		},
		{
		  "duration": 0.0581395348837209,
		  "pitch": 45,
		  "start": 232.790697674419,
		  "velocity": 64
		},
		{
		  "duration": 0.0581395348837209,
		  "pitch": 45,
		  "start": 232.906976744186,
		  "velocity": 64
		},
		{
		  "duration": 0.0581395348837209,
		  "pitch": 45,
		  "start": 233.023255813953,
		  "velocity": 110
		},
		{
		  "duration": 0.0581395348837209,
		  "pitch": 45,
		  "start": 233.139534883721,
		  "velocity": 110
		},
		{
		  "duration": 0.0581395348837209,
		  "pitch": 45,
		  "start": 233.255813953488,
		  "velocity": 110
		},
		{
		  "duration": 0.0581395348837209,
		  "pitch": 45,
		  "start": 233.372093023256,
		  "velocity": 110
		},
		{
		  "duration": 0.0581395348837209,
		  "pitch": 45,
		  "start": 233.488372093023,
		  "velocity": 110
		},
		{
		  "duration": 0.0581395348837209,
		  "pitch": 45,
		  "start": 233.604651162791,
		  "velocity": 110
		},
		{
		  "duration": 0.232558139534884,
		  "pitch": 45,
		  "start": 233.720930232558,
		  "velocity": 110
		},
		{
		  "duration": 0.116279069767442,
		  "pitch": 45,
		  "start": 233.953488372093,
		  "velocity": 110
		},
		{
		  "duration": 0.116279069767442,
		  "pitch": 45,
		  "start": 234.06976744186,
		  "velocity": 110
		},
		{
		  "duration": 0.0581395348837209,
		  "pitch": 45,
		  "start": 234.186046511628,
		  "velocity": 64
		},
		{
		  "duration": 0.0581395348837209,
		  "pitch": 45,
		  "start": 234.302325581395,
		  "velocity": 64
		},
		{
		  "duration": 0.0581395348837209,
		  "pitch": 45,
		  "start": 234.418604651163,
		  "velocity": 110
		},
		{
		  "duration": 0.0581395348837209,
		  "pitch": 45,
		  "start": 234.53488372093,
		  "velocity": 110
		},
		{
		  "duration": 0.0581395348837209,
		  "pitch": 45,
		  "start": 234.651162790698,
		  "velocity": 110
		},
		{
		  "duration": 0.0581395348837209,
		  "pitch": 45,
		  "start": 234.767441860465,
		  "velocity": 110
		},
		{
		  "duration": 0.0581395348837209,
		  "pitch": 45,
		  "start": 234.883720930233,
		  "velocity": 110
		},
		{
		  "duration": 0.0581395348837209,
		  "pitch": 45,
		  "start": 235.0,
		  "velocity": 110
		},
		{
		  "duration": 0.232558139534884,
		  "pitch": 45,
		  "start": 235.116279069767,
		  "velocity": 110
		},
		{
		  "duration": 0.116279069767442,
		  "pitch": 45,
		  "start": 235.348837209302,
		  "velocity": 110
		},
		{
		  "duration": 0.116279069767442,
		  "pitch": 45,
		  "start": 235.46511627907,
		  "velocity": 110
		},
		{
		  "duration": 0.0581395348837209,
		  "pitch": 45,
		  "start": 235.581395348837,
		  "velocity": 64
		},
		{
		  "duration": 0.0581395348837209,
		  "pitch": 45,
		  "start": 235.697674418605,
		  "velocity": 64
		},
		{
		  "duration": 0.0581395348837209,
		  "pitch": 45,
		  "start": 235.813953488372,
		  "velocity": 110
		},
		{
		  "duration": 0.0581395348837209,
		  "pitch": 45,
		  "start": 235.93023255814,
		  "velocity": 110
		},
		{
		  "duration": 0.0581395348837209,
		  "pitch": 45,
		  "start": 236.046511627907,
		  "velocity": 110
		},
		{
		  "duration": 0.0581395348837209,
		  "pitch": 45,
		  "start": 236.162790697674,
		  "velocity": 110
		},
		{
		  "duration": 0.0581395348837209,
		  "pitch": 45,
		  "start": 236.279069767442,
		  "velocity": 110
		},
		{
		  "duration": 0.0581395348837209,
		  "pitch": 45,
		  "start": 236.395348837209,
		  "velocity": 110
		},
		{
		  "duration": 0.232558139534884,
		  "pitch": 45,
		  "start": 236.511627906977,
		  "velocity": 110
		},
		{
		  "duration": 0.116279069767442,
		  "pitch": 45,
		  "start": 236.744186046512,
		  "velocity": 110
		},
		{
		  "duration": 0.116279069767442,
		  "pitch": 45,
		  "start": 236.860465116279,
		  "velocity": 110
		},
		{
		  "duration": 0.0581395348837209,
		  "pitch": 45,
		  "start": 236.976744186047,
		  "velocity": 64
		},
		{
		  "duration": 0.0581395348837209,
		  "pitch": 45,
		  "start": 237.093023255814,
		  "velocity": 64
		},
		{
		  "duration": 0.0581395348837209,
		  "pitch": 45,
		  "start": 237.209302325581,
		  "velocity": 110
		},
		{
		  "duration": 0.0581395348837209,
		  "pitch": 45,
		  "start": 237.325581395349,
		  "velocity": 110
		},
		{
		  "duration": 0.0581395348837209,
		  "pitch": 45,
		  "start": 237.441860465116,
		  "velocity": 110
		},
		{
		  "duration": 0.0581395348837209,
		  "pitch": 45,
		  "start": 237.558139534884,
		  "velocity": 110
		},
		{
		  "duration": 0.0581395348837209,
		  "pitch": 45,
		  "start": 237.674418604651,
		  "velocity": 110
		},
		{
		  "duration": 0.0581395348837209,
		  "pitch": 45,
		  "start": 237.790697674419,
		  "velocity": 110
		},
		{
		  "duration": 0.232558139534884,
		  "pitch": 45,
		  "start": 237.906976744186,
		  "velocity": 110
		},
		{
		  "duration": 0.116279069767442,
		  "pitch": 45,
		  "start": 238.139534883721,
		  "velocity": 110
		},
		{
		  "duration": 0.116279069767442,
		  "pitch": 45,
		  "start": 238.255813953488,
		  "velocity": 110
		},
		{
		  "duration": 0.0581395348837209,
		  "pitch": 45,
		  "start": 238.372093023256,
		  "velocity": 64
		},
		{
		  "duration": 0.0581395348837209,
		  "pitch": 45,
		  "start": 238.488372093023,
		  "velocity": 64
		},
		{
		  "duration": 0.0581395348837209,
		  "pitch": 45,
		  "start": 238.604651162791,
		  "velocity": 110
		},
		{
		  "duration": 0.0581395348837209,
		  "pitch": 45,
		  "start": 238.720930232558,
		  "velocity": 110
		},
		{
		  "duration": 0.0581395348837209,
		  "pitch": 45,
		  "start": 238.837209302326,
		  "velocity": 110
		},
		{
		  "duration": 0.0581395348837209,
		  "pitch": 45,
		  "start": 238.953488372093,
		  "velocity": 110
		},
		{
		  "duration": 0.0581395348837209,
		  "pitch": 45,
		  "start": 239.06976744186,
		  "velocity": 110
		},
		{
		  "duration": 0.0581395348837209,
		  "pitch": 45,
		  "start": 239.186046511628,
		  "velocity": 110
		},
		{
		  "duration": 0.232558139534884,
		  "pitch": 45,
		  "start": 239.302325581395,
		  "velocity": 110
		},
		{
		  "duration": 0.116279069767442,
		  "pitch": 45,
		  "start": 239.53488372093,
		  "velocity": 110
		},
		{
		  "duration": 0.116279069767442,
		  "pitch": 45,
		  "start": 239.651162790698,
		  "velocity": 110
		},
		{
		  "duration": 0.0581395348837209,
		  "pitch": 45,
		  "start": 239.767441860465,
		  "velocity": 64
		},
		{
		  "duration": 0.0581395348837209,
		  "pitch": 45,
		  "start": 239.883720930233,
		  "velocity": 64
		},
		{
		  "duration": 0.697674418604651,
		  "pitch": 47,
		  "start": 240.0,
		  "velocity": 110
		},
		{
		  "duration": 0.348837209302326,
		  "pitch": 48,
		  "start": 240.697674418605,
		  "velocity": 110
		},
		{
		  "duration": 0.348837209302326,
		  "pitch": 50,
		  "start": 241.046511627907,
		  "velocity": 110
		},
		{
		  "duration": 1.3953488372093,
		  "pitch": 52,
		  "start": 241.395348837209,
		  "velocity": 110
		},
		{
		  "duration": 0.0581395348837209,
		  "pitch": 43,
		  "start": 242.790697674419,
		  "velocity": 110
		},
		{
		  "duration": 0.0581395348837209,
		  "pitch": 43,
		  "start": 243.023255813953,
		  "velocity": 110
		},
		{
		  "duration": 0.0581395348837209,
		  "pitch": 43,
		  "start": 243.139534883721,
		  "velocity": 110
		},
		{
		  "duration": 0.0581395348837209,
		  "pitch": 43,
		  "start": 243.255813953488,
		  "velocity": 110
		},
		{
		  "duration": 0.0581395348837209,
		  "pitch": 43,
		  "start": 243.372093023256,
		  "velocity": 110
		},
		{
		  "duration": 0.0581395348837209,
		  "pitch": 43,
		  "start": 243.488372093023,
		  "velocity": 110
		},
		{
		  "duration": 0.0581395348837209,
		  "pitch": 43,
		  "start": 243.604651162791,
		  "velocity": 110
		},
		{
		  "duration": 0.0581395348837209,
		  "pitch": 43,
		  "start": 243.720930232558,
		  "velocity": 110
		},
		{
		  "duration": 0.0581395348837209,
		  "pitch": 43,
		  "start": 243.837209302326,
		  "velocity": 110
		},
		{
		  "duration": 0.0581395348837209,
		  "pitch": 43,
		  "start": 243.953488372093,
		  "velocity": 110
		},
		{
		  "duration": 0.0581395348837209,
		  "pitch": 43,
		  "start": 244.06976744186,
		  "velocity": 110
		},
		{
		  "duration": 0.0581395348837209,
		  "pitch": 43,
		  "start": 244.186046511628,
		  "velocity": 110
		},
		{
		  "duration": 0.0581395348837209,
		  "pitch": 43,
		  "start": 244.418604651163,
		  "velocity": 110
		},
		{
		  "duration": 0.0581395348837209,
		  "pitch": 43,
		  "start": 244.53488372093,
		  "velocity": 110
		},
		{
		  "duration": 0.0581395348837209,
		  "pitch": 43,
		  "start": 244.651162790698,
		  "velocity": 110
		},
		{
		  "duration": 0.0581395348837209,
		  "pitch": 43,
		  "start": 244.767441860465,
		  "velocity": 110
		},
		{
		  "duration": 0.0581395348837209,
		  "pitch": 43,
		  "start": 244.883720930233,
		  "velocity": 110
		},
		{
		  "duration": 0.0581395348837209,
		  "pitch": 43,
		  "start": 245.0,
		  "velocity": 110
		},
		{
		  "duration": 0.0581395348837209,
		  "pitch": 43,
		  "start": 245.116279069767,
		  "velocity": 110
		},
		{
		  "duration": 0.0581395348837209,
		  "pitch": 43,
		  "start": 245.232558139535,
		  "velocity": 110
		},
		{
		  "duration": 0.0581395348837209,
		  "pitch": 43,
		  "start": 245.348837209302,
		  "velocity": 110
		},
		{
		  "duration": 0.0581395348837209,
		  "pitch": 43,
		  "start": 245.46511627907,
		  "velocity": 110
		},
		{
		  "duration": 0.697674418604651,
		  "pitch": 45,
		  "start": 245.581395348837,
		  "velocity": 110
		},
		{
		  "duration": 0.348837209302326,
		  "pitch": 47,
		  "start": 246.279069767442,
		  "velocity": 110
		},
		{
		  "duration": 0.348837209302326,
		  "pitch": 49,
		  "start": 246.627906976744,
		  "velocity": 110
		},
		{
		  "duration": 1.3953488372093,
		  "pitch": 50,
		  "start": 246.976744186047,
		  "velocity": 110
		},
		{
		  "duration": 0.0581395348837209,
		  "pitch": 45,
		  "start": 248.372093023256,
		  "velocity": 110
		},
		{
		  "duration": 0.0581395348837209,
		  "pitch": 45,
		  "start": 248.604651162791,
		  "velocity": 110
		},
		{
		  "duration": 0.0581395348837209,
		  "pitch": 45,
		  "start": 248.720930232558,
		  "velocity": 110
		},
		{
		  "duration": 0.0581395348837209,
		  "pitch": 45,
		  "start": 248.837209302326,
		  "velocity": 110
		},
		{
		  "duration": 0.0581395348837209,
		  "pitch": 45,
		  "start": 248.953488372093,
		  "velocity": 110
		},
		{
		  "duration": 0.0581395348837209,
		  "pitch": 45,
		  "start": 249.06976744186,
		  "velocity": 110
		},
		{
		  "duration": 0.0581395348837209,
		  "pitch": 45,
		  "start": 249.186046511628,
		  "velocity": 110
		},
		{
		  "duration": 0.0581395348837209,
		  "pitch": 45,
		  "start": 249.302325581395,
		  "velocity": 110
		},
		{
		  "duration": 0.0581395348837209,
		  "pitch": 45,
		  "start": 249.418604651163,
		  "velocity": 110
		},
		{
		  "duration": 0.0581395348837209,
		  "pitch": 45,
		  "start": 249.53488372093,
		  "velocity": 110
		},
		{
		  "duration": 0.0581395348837209,
		  "pitch": 45,
		  "start": 249.651162790698,
		  "velocity": 110
		},
		{
		  "duration": 0.0581395348837209,
		  "pitch": 46,
		  "start": 249.767441860465,
		  "velocity": 110
		},
		{
		  "duration": 0.0581395348837209,
		  "pitch": 46,
		  "start": 250.0,
		  "velocity": 110
		},
		{
		  "duration": 0.0581395348837209,
		  "pitch": 46,
		  "start": 250.116279069767,
		  "velocity": 110
		},
		{
		  "duration": 0.0581395348837209,
		  "pitch": 46,
		  "start": 250.232558139535,
		  "velocity": 110
		},
		{
		  "duration": 0.0581395348837209,
		  "pitch": 46,
		  "start": 250.348837209302,
		  "velocity": 110
		},
		{
		  "duration": 0.0581395348837209,
		  "pitch": 46,
		  "start": 250.46511627907,
		  "velocity": 110
		},
		{
		  "duration": 0.0581395348837209,
		  "pitch": 46,
		  "start": 250.581395348837,
		  "velocity": 110
		},
		{
		  "duration": 0.0581395348837209,
		  "pitch": 46,
		  "start": 250.697674418605,
		  "velocity": 110
		},
		{
		  "duration": 0.0581395348837209,
		  "pitch": 46,
		  "start": 250.813953488372,
		  "velocity": 110
		},
		{
		  "duration": 0.0581395348837209,
		  "pitch": 46,
		  "start": 250.93023255814,
		  "velocity": 110
		},
		{
		  "duration": 0.0581395348837209,
		  "pitch": 46,
		  "start": 251.046511627907,
		  "velocity": 110
		},
		{
		  "duration": 0.0581395348837209,
		  "pitch": 50,
		  "start": 251.162790697674,
		  "velocity": 110
		},
		{
		  "duration": 0.0581395348837209,
		  "pitch": 50,
		  "start": 251.395348837209,
		  "velocity": 110
		},
		{
		  "duration": 0.0581395348837209,
		  "pitch": 50,
		  "start": 251.511627906977,
		  "velocity": 110
		},
		{
		  "duration": 0.0581395348837209,
		  "pitch": 50,
		  "start": 251.744186046512,
		  "velocity": 110
		},
		{
		  "duration": 0.0581395348837209,
		  "pitch": 50,
		  "start": 251.860465116279,
		  "velocity": 110
		},
		{
		  "duration": 0.0581395348837209,
		  "pitch": 50,
		  "start": 252.093023255814,
		  "velocity": 110
		},
		{
		  "duration": 0.0581395348837209,
		  "pitch": 48,
		  "start": 252.209302325581,
		  "velocity": 110
		},
		{
		  "duration": 0.0581395348837209,
		  "pitch": 48,
		  "start": 252.441860465116,
		  "velocity": 110
		},
		{
		  "duration": 0.0581395348837209,
		  "pitch": 50,
		  "start": 252.558139534884,
		  "velocity": 110
		},
		{
		  "duration": 0.0581395348837209,
		  "pitch": 50,
		  "start": 252.790697674419,
		  "velocity": 110
		},
		{
		  "duration": 0.0581395348837209,
		  "pitch": 50,
		  "start": 252.906976744186,
		  "velocity": 110
		},
		{
		  "duration": 0.0581395348837209,
		  "pitch": 50,
		  "start": 253.139534883721,
		  "velocity": 110
		},
		{
		  "duration": 0.0581395348837209,
		  "pitch": 50,
		  "start": 253.255813953488,
		  "velocity": 110
		},
		{
		  "duration": 0.0581395348837209,
		  "pitch": 50,
		  "start": 253.488372093023,
		  "velocity": 110
		},
		{
		  "duration": 0.0581395348837209,
		  "pitch": 48,
		  "start": 253.604651162791,
		  "velocity": 110
		},
		{
		  "duration": 0.0581395348837209,
		  "pitch": 48,
		  "start": 253.837209302326,
		  "velocity": 110
		},
		{
		  "duration": 0.0581395348837209,
		  "pitch": 50,
		  "start": 253.953488372093,
		  "velocity": 110
		},
		{
		  "duration": 0.0581395348837209,
		  "pitch": 50,
		  "start": 254.186046511628,
		  "velocity": 110
		},
		{
		  "duration": 0.0581395348837209,
		  "pitch": 50,
		  "start": 254.302325581395,
		  "velocity": 110
		},
		{
		  "duration": 0.0581395348837209,
		  "pitch": 50,
		  "start": 254.53488372093,
		  "velocity": 110
		},
		{
		  "duration": 0.0581395348837209,
		  "pitch": 50,
		  "start": 254.651162790698,
		  "velocity": 110
		},
		{
		  "duration": 0.0581395348837209,
		  "pitch": 50,
		  "start": 254.883720930233,
		  "velocity": 110
		},
		{
		  "duration": 0.0581395348837209,
		  "pitch": 48,
		  "start": 255.0,
		  "velocity": 110
		},
		{
		  "duration": 0.0581395348837209,
		  "pitch": 48,
		  "start": 255.232558139535,
		  "velocity": 110
		},
		{
		  "duration": 0.0581395348837209,
		  "pitch": 50,
		  "start": 255.348837209302,
		  "velocity": 110
		},
		{
		  "duration": 0.0581395348837209,
		  "pitch": 50,
		  "start": 255.581395348837,
		  "velocity": 110
		},
		{
		  "duration": 0.0581395348837209,
		  "pitch": 50,
		  "start": 255.697674418605,
		  "velocity": 110
		},
		{
		  "duration": 0.0581395348837209,
		  "pitch": 50,
		  "start": 255.93023255814,
		  "velocity": 110
		},
		{
		  "duration": 0.0581395348837209,
		  "pitch": 50,
		  "start": 256.046511627907,
		  "velocity": 110
		},
		{
		  "duration": 0.0581395348837209,
		  "pitch": 50,
		  "start": 256.279069767442,
		  "velocity": 110
		},
		{
		  "duration": 0.116279069767442,
		  "pitch": 48,
		  "start": 256.395348837209,
		  "velocity": 110
		},
		{
		  "duration": 0.116279069767442,
		  "pitch": 46,
		  "start": 256.511627906977,
		  "velocity": 110
		},
		{
		  "duration": 0.116279069767442,
		  "pitch": 43,
		  "start": 256.627906976744,
		  "velocity": 110
		},
		{
		  "duration": 0.0581395348837209,
		  "pitch": 45,
		  "start": 256.744186046512,
		  "velocity": 110
		},
		{
		  "duration": 0.0581395348837209,
		  "pitch": 45,
		  "start": 256.976744186047,
		  "velocity": 110
		},
		{
		  "duration": 0.0581395348837209,
		  "pitch": 45,
		  "start": 257.093023255814,
		  "velocity": 110
		},
		{
		  "duration": 0.0581395348837209,
		  "pitch": 45,
		  "start": 257.325581395349,
		  "velocity": 110
		},
		{
		  "duration": 0.0581395348837209,
		  "pitch": 45,
		  "start": 257.441860465116,
		  "velocity": 110
		},
		{
		  "duration": 0.0581395348837209,
		  "pitch": 45,
		  "start": 257.674418604651,
		  "velocity": 110
		},
		{
		  "duration": 0.0581395348837209,
		  "pitch": 45,
		  "start": 257.790697674419,
		  "velocity": 110
		},
		{
		  "duration": 0.0581395348837209,
		  "pitch": 45,
		  "start": 258.023255813953,
		  "velocity": 110
		},
		{
		  "duration": 0.0581395348837209,
		  "pitch": 45,
		  "start": 258.139534883721,
		  "velocity": 110
		},
		{
		  "duration": 0.0581395348837209,
		  "pitch": 45,
		  "start": 258.372093023256,
		  "velocity": 110
		},
		{
		  "duration": 0.0581395348837209,
		  "pitch": 45,
		  "start": 258.488372093023,
		  "velocity": 110
		},
		{
		  "duration": 0.0581395348837209,
		  "pitch": 45,
		  "start": 258.720930232558,
		  "velocity": 110
		},
		{
		  "duration": 0.0581395348837209,
		  "pitch": 45,
		  "start": 258.837209302326,
		  "velocity": 110
		},
		{
		  "duration": 0.0581395348837209,
		  "pitch": 45,
		  "start": 259.06976744186,
		  "velocity": 110
		},
		{
		  "duration": 0.0581395348837209,
		  "pitch": 45,
		  "start": 259.186046511628,
		  "velocity": 110
		},
		{
		  "duration": 0.0581395348837209,
		  "pitch": 45,
		  "start": 259.418604651163,
		  "velocity": 110
		},
		{
		  "duration": 0.0581395348837209,
		  "pitch": 45,
		  "start": 259.53488372093,
		  "velocity": 110
		},
		{
		  "duration": 0.0581395348837209,
		  "pitch": 45,
		  "start": 259.767441860465,
		  "velocity": 110
		},
		{
		  "duration": 0.0581395348837209,
		  "pitch": 45,
		  "start": 259.883720930233,
		  "velocity": 110
		},
		{
		  "duration": 0.0581395348837209,
		  "pitch": 45,
		  "start": 260.116279069767,
		  "velocity": 110
		},
		{
		  "duration": 0.0581395348837209,
		  "pitch": 45,
		  "start": 260.232558139535,
		  "velocity": 110
		},
		{
		  "duration": 0.0581395348837209,
		  "pitch": 45,
		  "start": 260.46511627907,
		  "velocity": 110
		},
		{
		  "duration": 0.0581395348837209,
		  "pitch": 45,
		  "start": 260.581395348837,
		  "velocity": 110
		},
		{
		  "duration": 0.0581395348837209,
		  "pitch": 45,
		  "start": 260.813953488372,
		  "velocity": 110
		},
		{
		  "duration": 0.348837209302326,
		  "pitch": 45,
		  "start": 260.93023255814,
		  "velocity": 110
		},
		{
		  "duration": 0.348837209302326,
		  "pitch": 47,
		  "start": 261.279069767442,
		  "velocity": 110
		},
		{
		  "duration": 0.348837209302326,
		  "pitch": 48,
		  "start": 261.627906976744,
		  "velocity": 110
		},
		{
		  "duration": 0.348837209302326,
		  "pitch": 49,
		  "start": 261.976744186047,
		  "velocity": 110
		},
		{
		  "duration": 0.0581395348837209,
		  "pitch": 50,
		  "start": 262.325581395349,
		  "velocity": 110
		},
		{
		  "duration": 0.0581395348837209,
		  "pitch": 50,
		  "start": 262.558139534884,
		  "velocity": 110
		},
		{
		  "duration": 0.0581395348837209,
		  "pitch": 50,
		  "start": 262.674418604651,
		  "velocity": 110
		},
		{
		  "duration": 0.0581395348837209,
		  "pitch": 50,
		  "start": 262.906976744186,
		  "velocity": 110
		},
		{
		  "duration": 0.0581395348837209,
		  "pitch": 50,
		  "start": 263.023255813953,
		  "velocity": 110
		},
		{
		  "duration": 0.0581395348837209,
		  "pitch": 50,
		  "start": 263.255813953488,
		  "velocity": 110
		},
		{
		  "duration": 0.0581395348837209,
		  "pitch": 48,
		  "start": 263.372093023256,
		  "velocity": 110
		},
		{
		  "duration": 0.0581395348837209,
		  "pitch": 48,
		  "start": 263.604651162791,
		  "velocity": 110
		},
		{
		  "duration": 0.0581395348837209,
		  "pitch": 50,
		  "start": 263.720930232558,
		  "velocity": 110
		},
		{
		  "duration": 0.0581395348837209,
		  "pitch": 50,
		  "start": 263.953488372093,
		  "velocity": 110
		},
		{
		  "duration": 0.0581395348837209,
		  "pitch": 50,
		  "start": 264.06976744186,
		  "velocity": 110
		},
		{
		  "duration": 0.0581395348837209,
		  "pitch": 50,
		  "start": 264.302325581395,
		  "velocity": 110
		},
		{
		  "duration": 0.0581395348837209,
		  "pitch": 50,
		  "start": 264.418604651163,
		  "velocity": 110
		},
		{
		  "duration": 0.0581395348837209,
		  "pitch": 50,
		  "start": 264.651162790698,
		  "velocity": 110
		},
		{
		  "duration": 0.0581395348837209,
		  "pitch": 48,
		  "start": 264.767441860465,
		  "velocity": 110
		},
		{
		  "duration": 0.0581395348837209,
		  "pitch": 48,
		  "start": 265.0,
		  "velocity": 110
		},
		{
		  "duration": 0.0581395348837209,
		  "pitch": 50,
		  "start": 265.116279069767,
		  "velocity": 110
		},
		{
		  "duration": 0.0581395348837209,
		  "pitch": 50,
		  "start": 265.348837209302,
		  "velocity": 110
		},
		{
		  "duration": 0.0581395348837209,
		  "pitch": 50,
		  "start": 265.46511627907,
		  "velocity": 110
		},
		{
		  "duration": 0.0581395348837209,
		  "pitch": 50,
		  "start": 265.697674418605,
		  "velocity": 110
		},
		{
		  "duration": 0.0581395348837209,
		  "pitch": 50,
		  "start": 265.813953488372,
		  "velocity": 110
		},
		{
		  "duration": 0.0581395348837209,
		  "pitch": 50,
		  "start": 266.046511627907,
		  "velocity": 110
		},
		{
		  "duration": 0.0581395348837209,
		  "pitch": 48,
		  "start": 266.162790697674,
		  "velocity": 110
		},
		{
		  "duration": 0.0581395348837209,
		  "pitch": 48,
		  "start": 266.395348837209,
		  "velocity": 110
		},
		{
		  "duration": 0.0581395348837209,
		  "pitch": 50,
		  "start": 266.511627906977,
		  "velocity": 110
		},
		{
		  "duration": 0.0581395348837209,
		  "pitch": 50,
		  "start": 266.744186046512,
		  "velocity": 110
		},
		{
		  "duration": 0.0581395348837209,
		  "pitch": 50,
		  "start": 266.860465116279,
		  "velocity": 110
		},
		{
		  "duration": 0.0581395348837209,
		  "pitch": 50,
		  "start": 267.093023255814,
		  "velocity": 110
		},
		{
		  "duration": 0.0581395348837209,
		  "pitch": 50,
		  "start": 267.209302325581,
		  "velocity": 110
		},
		{
		  "duration": 0.0581395348837209,
		  "pitch": 50,
		  "start": 267.441860465116,
		  "velocity": 110
		},
		{
		  "duration": 0.116279069767442,
		  "pitch": 48,
		  "start": 267.558139534884,
		  "velocity": 110
		},
		{
		  "duration": 0.116279069767442,
		  "pitch": 46,
		  "start": 267.674418604651,
		  "velocity": 110
		},
		{
		  "duration": 0.116279069767442,
		  "pitch": 43,
		  "start": 267.790697674419,
		  "velocity": 110
		},
		{
		  "duration": 0.0581395348837209,
		  "pitch": 45,
		  "start": 267.906976744186,
		  "velocity": 110
		},
		{
		  "duration": 0.0581395348837209,
		  "pitch": 45,
		  "start": 268.139534883721,
		  "velocity": 110
		},
		{
		  "duration": 0.0581395348837209,
		  "pitch": 45,
		  "start": 268.255813953488,
		  "velocity": 110
		},
		{
		  "duration": 0.0581395348837209,
		  "pitch": 45,
		  "start": 268.488372093023,
		  "velocity": 110
		},
		{
		  "duration": 0.0581395348837209,
		  "pitch": 45,
		  "start": 268.604651162791,
		  "velocity": 110
		},
		{
		  "duration": 0.0581395348837209,
		  "pitch": 45,
		  "start": 268.837209302326,
		  "velocity": 110
		},
		{
		  "duration": 0.0581395348837209,
		  "pitch": 45,
		  "start": 268.953488372093,
		  "velocity": 110
		},
		{
		  "duration": 0.0581395348837209,
		  "pitch": 45,
		  "start": 269.186046511628,
		  "velocity": 110
		},
		{
		  "duration": 0.0581395348837209,
		  "pitch": 45,
		  "start": 269.302325581395,
		  "velocity": 110
		},
		{
		  "duration": 0.0581395348837209,
		  "pitch": 45,
		  "start": 269.53488372093,
		  "velocity": 110
		},
		{
		  "duration": 0.0581395348837209,
		  "pitch": 45,
		  "start": 269.651162790698,
		  "velocity": 110
		},
		{
		  "duration": 0.0581395348837209,
		  "pitch": 45,
		  "start": 269.883720930233,
		  "velocity": 110
		},
		{
		  "duration": 0.0581395348837209,
		  "pitch": 45,
		  "start": 270.0,
		  "velocity": 110
		},
		{
		  "duration": 0.0581395348837209,
		  "pitch": 45,
		  "start": 270.232558139535,
		  "velocity": 110
		},
		{
		  "duration": 0.0581395348837209,
		  "pitch": 45,
		  "start": 270.348837209302,
		  "velocity": 110
		},
		{
		  "duration": 0.0581395348837209,
		  "pitch": 45,
		  "start": 270.581395348837,
		  "velocity": 110
		},
		{
		  "duration": 0.0581395348837209,
		  "pitch": 45,
		  "start": 270.697674418605,
		  "velocity": 110
		},
		{
		  "duration": 0.0581395348837209,
		  "pitch": 45,
		  "start": 270.93023255814,
		  "velocity": 110
		},
		{
		  "duration": 0.0581395348837209,
		  "pitch": 45,
		  "start": 271.046511627907,
		  "velocity": 110
		},
		{
		  "duration": 0.0581395348837209,
		  "pitch": 45,
		  "start": 271.279069767442,
		  "velocity": 110
		},
		{
		  "duration": 0.0581395348837209,
		  "pitch": 45,
		  "start": 271.395348837209,
		  "velocity": 110
		},
		{
		  "duration": 0.0581395348837209,
		  "pitch": 45,
		  "start": 271.627906976744,
		  "velocity": 110
		},
		{
		  "duration": 0.0581395348837209,
		  "pitch": 45,
		  "start": 271.744186046512,
		  "velocity": 110
		},
		{
		  "duration": 0.0581395348837209,
		  "pitch": 45,
		  "start": 271.976744186047,
		  "velocity": 110
		},
		{
		  "duration": 0.348837209302326,
		  "pitch": 45,
		  "start": 272.093023255814,
		  "velocity": 110
		},
		{
		  "duration": 0.348837209302326,
		  "pitch": 47,
		  "start": 272.441860465116,
		  "velocity": 110
		},
		{
		  "duration": 0.348837209302326,
		  "pitch": 48,
		  "start": 272.790697674419,
		  "velocity": 110
		},
		{
		  "duration": 0.348837209302326,
		  "pitch": 49,
		  "start": 273.139534883721,
		  "velocity": 110
		},
		{
		  "duration": 0.0581395348837209,
		  "pitch": 50,
		  "start": 273.488372093023,
		  "velocity": 110
		},
		{
		  "duration": 0.0581395348837209,
		  "pitch": 50,
		  "start": 273.720930232558,
		  "velocity": 110
		},
		{
		  "duration": 0.0581395348837209,
		  "pitch": 50,
		  "start": 273.837209302326,
		  "velocity": 110
		},
		{
		  "duration": 0.0581395348837209,
		  "pitch": 50,
		  "start": 274.06976744186,
		  "velocity": 110
		},
		{
		  "duration": 0.0581395348837209,
		  "pitch": 50,
		  "start": 274.186046511628,
		  "velocity": 110
		},
		{
		  "duration": 0.0581395348837209,
		  "pitch": 50,
		  "start": 274.418604651163,
		  "velocity": 110
		},
		{
		  "duration": 0.0581395348837209,
		  "pitch": 48,
		  "start": 274.53488372093,
		  "velocity": 110
		},
		{
		  "duration": 0.0581395348837209,
		  "pitch": 48,
		  "start": 274.767441860465,
		  "velocity": 110
		},
		{
		  "duration": 0.0581395348837209,
		  "pitch": 50,
		  "start": 274.883720930233,
		  "velocity": 110
		},
		{
		  "duration": 0.0581395348837209,
		  "pitch": 50,
		  "start": 275.116279069767,
		  "velocity": 110
		},
		{
		  "duration": 0.0581395348837209,
		  "pitch": 50,
		  "start": 275.232558139535,
		  "velocity": 110
		},
		{
		  "duration": 0.0581395348837209,
		  "pitch": 50,
		  "start": 275.46511627907,
		  "velocity": 110
		},
		{
		  "duration": 0.0581395348837209,
		  "pitch": 50,
		  "start": 275.581395348837,
		  "velocity": 110
		},
		{
		  "duration": 0.0581395348837209,
		  "pitch": 50,
		  "start": 275.813953488372,
		  "velocity": 110
		},
		{
		  "duration": 0.0581395348837209,
		  "pitch": 48,
		  "start": 275.93023255814,
		  "velocity": 110
		},
		{
		  "duration": 0.0581395348837209,
		  "pitch": 48,
		  "start": 276.162790697674,
		  "velocity": 110
		},
		{
		  "duration": 0.0581395348837209,
		  "pitch": 50,
		  "start": 276.279069767442,
		  "velocity": 110
		},
		{
		  "duration": 0.0581395348837209,
		  "pitch": 50,
		  "start": 276.511627906977,
		  "velocity": 110
		},
		{
		  "duration": 0.0581395348837209,
		  "pitch": 50,
		  "start": 276.627906976744,
		  "velocity": 110
		},
		{
		  "duration": 0.0581395348837209,
		  "pitch": 50,
		  "start": 276.860465116279,
		  "velocity": 110
		},
		{
		  "duration": 0.0581395348837209,
		  "pitch": 50,
		  "start": 276.976744186047,
		  "velocity": 110
		},
		{
		  "duration": 0.0581395348837209,
		  "pitch": 50,
		  "start": 277.209302325581,
		  "velocity": 110
		},
		{
		  "duration": 0.0581395348837209,
		  "pitch": 48,
		  "start": 277.325581395349,
		  "velocity": 110
		},
		{
		  "duration": 0.0581395348837209,
		  "pitch": 48,
		  "start": 277.558139534884,
		  "velocity": 110
		},
		{
		  "duration": 0.0581395348837209,
		  "pitch": 50,
		  "start": 277.674418604651,
		  "velocity": 110
		},
		{
		  "duration": 0.0581395348837209,
		  "pitch": 50,
		  "start": 277.906976744186,
		  "velocity": 110
		},
		{
		  "duration": 0.0581395348837209,
		  "pitch": 50,
		  "start": 278.023255813953,
		  "velocity": 110
		},
		{
		  "duration": 0.0581395348837209,
		  "pitch": 50,
		  "start": 278.255813953488,
		  "velocity": 110
		},
		{
		  "duration": 0.0581395348837209,
		  "pitch": 50,
		  "start": 278.372093023256,
		  "velocity": 110
		},
		{
		  "duration": 0.0581395348837209,
		  "pitch": 50,
		  "start": 278.604651162791,
		  "velocity": 110
		},
		{
		  "duration": 0.116279069767442,
		  "pitch": 48,
		  "start": 278.720930232558,
		  "velocity": 110
		},
		{
		  "duration": 0.116279069767442,
		  "pitch": 46,
		  "start": 278.837209302326,
		  "velocity": 110
		},
		{
		  "duration": 0.116279069767442,
		  "pitch": 43,
		  "start": 278.953488372093,
		  "velocity": 110
		},
		{
		  "duration": 0.0581395348837209,
		  "pitch": 45,
		  "start": 279.06976744186,
		  "velocity": 110
		},
		{
		  "duration": 0.0581395348837209,
		  "pitch": 45,
		  "start": 279.302325581395,
		  "velocity": 110
		},
		{
		  "duration": 0.0581395348837209,
		  "pitch": 45,
		  "start": 279.418604651163,
		  "velocity": 110
		},
		{
		  "duration": 0.0581395348837209,
		  "pitch": 45,
		  "start": 279.651162790698,
		  "velocity": 110
		},
		{
		  "duration": 0.0581395348837209,
		  "pitch": 45,
		  "start": 279.767441860465,
		  "velocity": 110
		},
		{
		  "duration": 0.0581395348837209,
		  "pitch": 45,
		  "start": 280.0,
		  "velocity": 110
		},
		{
		  "duration": 0.0581395348837209,
		  "pitch": 45,
		  "start": 280.116279069767,
		  "velocity": 110
		},
		{
		  "duration": 0.0581395348837209,
		  "pitch": 45,
		  "start": 280.348837209302,
		  "velocity": 110
		},
		{
		  "duration": 0.0581395348837209,
		  "pitch": 45,
		  "start": 280.46511627907,
		  "velocity": 110
		},
		{
		  "duration": 0.0581395348837209,
		  "pitch": 45,
		  "start": 280.697674418605,
		  "velocity": 110
		},
		{
		  "duration": 0.0581395348837209,
		  "pitch": 45,
		  "start": 280.813953488372,
		  "velocity": 110
		},
		{
		  "duration": 0.0581395348837209,
		  "pitch": 45,
		  "start": 281.046511627907,
		  "velocity": 110
		},
		{
		  "duration": 0.0581395348837209,
		  "pitch": 45,
		  "start": 281.162790697674,
		  "velocity": 110
		},
		{
		  "duration": 0.0581395348837209,
		  "pitch": 45,
		  "start": 281.395348837209,
		  "velocity": 110
		},
		{
		  "duration": 0.0581395348837209,
		  "pitch": 45,
		  "start": 281.511627906977,
		  "velocity": 110
		},
		{
		  "duration": 0.0581395348837209,
		  "pitch": 45,
		  "start": 281.744186046512,
		  "velocity": 110
		},
		{
		  "duration": 0.0581395348837209,
		  "pitch": 48,
		  "start": 281.860465116279,
		  "velocity": 110
		},
		{
		  "duration": 0.0581395348837209,
		  "pitch": 48,
		  "start": 282.093023255814,
		  "velocity": 110
		},
		{
		  "duration": 0.0581395348837209,
		  "pitch": 48,
		  "start": 282.209302325581,
		  "velocity": 110
		},
		{
		  "duration": 0.0581395348837209,
		  "pitch": 48,
		  "start": 282.441860465116,
		  "velocity": 110
		},
		{
		  "duration": 0.0581395348837209,
		  "pitch": 48,
		  "start": 282.558139534884,
		  "velocity": 110
		},
		{
		  "duration": 0.0581395348837209,
		  "pitch": 48,
		  "start": 282.790697674419,
		  "velocity": 110
		},
		{
		  "duration": 0.0581395348837209,
		  "pitch": 48,
		  "start": 282.906976744186,
		  "velocity": 110
		},
		{
		  "duration": 0.0581395348837209,
		  "pitch": 48,
		  "start": 283.139534883721,
		  "velocity": 110
		},
		{
		  "duration": 0.0581395348837209,
		  "pitch": 47,
		  "start": 283.255813953488,
		  "velocity": 110
		},
		{
		  "duration": 0.0581395348837209,
		  "pitch": 47,
		  "start": 283.488372093023,
		  "velocity": 110
		},
		{
		  "duration": 0.0581395348837209,
		  "pitch": 47,
		  "start": 283.604651162791,
		  "velocity": 110
		},
		{
		  "duration": 0.0581395348837209,
		  "pitch": 47,
		  "start": 283.837209302326,
		  "velocity": 110
		},
		{
		  "duration": 0.0581395348837209,
		  "pitch": 52,
		  "start": 283.953488372093,
		  "velocity": 110
		},
		{
		  "duration": 0.0581395348837209,
		  "pitch": 52,
		  "start": 284.186046511628,
		  "velocity": 110
		},
		{
		  "duration": 0.116279069767442,
		  "pitch": 50,
		  "start": 284.302325581395,
		  "velocity": 110
		},
		{
		  "duration": 0.116279069767442,
		  "pitch": 48,
		  "start": 284.418604651163,
		  "velocity": 110
		},
		{
		  "duration": 0.116279069767442,
		  "pitch": 47,
		  "start": 284.53488372093,
		  "velocity": 110
		},
		{
		  "duration": 0.0581395348837209,
		  "pitch": 45,
		  "start": 284.651162790698,
		  "velocity": 110
		},
		{
		  "duration": 0.0581395348837209,
		  "pitch": 45,
		  "start": 284.767441860465,
		  "velocity": 110
		},
		{
		  "duration": 0.0581395348837209,
		  "pitch": 45,
		  "start": 284.883720930233,
		  "velocity": 110
		},
		{
		  "duration": 0.348837209302326,
		  "pitch": 48,
		  "start": 285.0,
		  "velocity": 110
		},
		{
		  "duration": 0.0581395348837209,
		  "pitch": 45,
		  "start": 285.348837209302,
		  "velocity": 110
		},
		{
		  "duration": 0.0581395348837209,
		  "pitch": 45,
		  "start": 285.46511627907,
		  "velocity": 110
		},
		{
		  "duration": 0.0581395348837209,
		  "pitch": 45,
		  "start": 285.581395348837,
		  "velocity": 110
		},
		{
		  "duration": 0.348837209302326,
		  "pitch": 50,
		  "start": 285.697674418605,
		  "velocity": 110
		},
		{
		  "duration": 0.0581395348837209,
		  "pitch": 45,
		  "start": 286.046511627907,
		  "velocity": 110
		},
		{
		  "duration": 0.0581395348837209,
		  "pitch": 45,
		  "start": 286.162790697674,
		  "velocity": 110
		},
		{
		  "duration": 0.0581395348837209,
		  "pitch": 45,
		  "start": 286.279069767442,
		  "velocity": 110
		},
		{
		  "duration": 0.232558139534884,
		  "pitch": 50,
		  "start": 286.395348837209,
		  "velocity": 110
		},
		{
		  "duration": 0.116279069767442,
		  "pitch": 48,
		  "start": 286.627906976744,
		  "velocity": 110
		},
		{
		  "duration": 0.232558139534884,
		  "pitch": 48,
		  "start": 286.744186046512,
		  "velocity": 110
		},
		{
		  "duration": 0.116279069767442,
		  "pitch": 47,
		  "start": 286.976744186047,
		  "velocity": 110
		},
		{
		  "duration": 0.232558139534884,
		  "pitch": 48,
		  "start": 287.093023255814,
		  "velocity": 110
		},
		{
		  "duration": 0.116279069767442,
		  "pitch": 47,
		  "start": 287.325581395349,
		  "velocity": 110
		},
		{
		  "duration": 0.0581395348837209,
		  "pitch": 45,
		  "start": 287.441860465116,
		  "velocity": 110
		},
		{
		  "duration": 0.0581395348837209,
		  "pitch": 45,
		  "start": 287.558139534884,
		  "velocity": 110
		},
		{
		  "duration": 0.0581395348837209,
		  "pitch": 45,
		  "start": 287.674418604651,
		  "velocity": 110
		},
		{
		  "duration": 0.348837209302326,
		  "pitch": 48,
		  "start": 287.790697674419,
		  "velocity": 110
		},
		{
		  "duration": 0.0581395348837209,
		  "pitch": 45,
		  "start": 288.139534883721,
		  "velocity": 110
		},
		{
		  "duration": 0.0581395348837209,
		  "pitch": 45,
		  "start": 288.255813953488,
		  "velocity": 110
		},
		{
		  "duration": 0.0581395348837209,
		  "pitch": 45,
		  "start": 288.372093023256,
		  "velocity": 110
		},
		{
		  "duration": 0.348837209302326,
		  "pitch": 50,
		  "start": 288.488372093023,
		  "velocity": 110
		},
		{
		  "duration": 0.0581395348837209,
		  "pitch": 45,
		  "start": 288.837209302326,
		  "velocity": 110
		},
		{
		  "duration": 0.0581395348837209,
		  "pitch": 45,
		  "start": 288.953488372093,
		  "velocity": 110
		},
		{
		  "duration": 0.0581395348837209,
		  "pitch": 45,
		  "start": 289.06976744186,
		  "velocity": 110
		},
		{
		  "duration": 0.232558139534884,
		  "pitch": 50,
		  "start": 289.186046511628,
		  "velocity": 110
		},
		{
		  "duration": 0.116279069767442,
		  "pitch": 48,
		  "start": 289.418604651163,
		  "velocity": 110
		},
		{
		  "duration": 0.232558139534884,
		  "pitch": 48,
		  "start": 289.53488372093,
		  "velocity": 110
		},
		{
		  "duration": 0.116279069767442,
		  "pitch": 47,
		  "start": 289.767441860465,
		  "velocity": 110
		},
		{
		  "duration": 0.232558139534884,
		  "pitch": 48,
		  "start": 289.883720930233,
		  "velocity": 110
		},
		{
		  "duration": 0.116279069767442,
		  "pitch": 47,
		  "start": 290.116279069767,
		  "velocity": 110
		},
		{
		  "duration": 0.0581395348837209,
		  "pitch": 48,
		  "start": 290.232558139535,
		  "velocity": 110
		},
		{
		  "duration": 0.0581395348837209,
		  "pitch": 48,
		  "start": 290.348837209302,
		  "velocity": 110
		},
		{
		  "duration": 0.0581395348837209,
		  "pitch": 48,
		  "start": 290.46511627907,
		  "velocity": 110
		},
		{
		  "duration": 0.348837209302326,
		  "pitch": 51,
		  "start": 290.581395348837,
		  "velocity": 110
		},
		{
		  "duration": 0.0581395348837209,
		  "pitch": 48,
		  "start": 290.93023255814,
		  "velocity": 110
		},
		{
		  "duration": 0.0581395348837209,
		  "pitch": 48,
		  "start": 291.046511627907,
		  "velocity": 110
		},
		{
		  "duration": 0.0581395348837209,
		  "pitch": 48,
		  "start": 291.162790697674,
		  "velocity": 110
		},
		{
		  "duration": 0.348837209302326,
		  "pitch": 53,
		  "start": 291.279069767442,
		  "velocity": 110
		},
		{
		  "duration": 0.0581395348837209,
		  "pitch": 48,
		  "start": 291.627906976744,
		  "velocity": 110
		},
		{
		  "duration": 0.0581395348837209,
		  "pitch": 48,
		  "start": 291.744186046512,
		  "velocity": 110
		},
		{
		  "duration": 0.0581395348837209,
		  "pitch": 48,
		  "start": 291.860465116279,
		  "velocity": 110
		},
		{
		  "duration": 0.232558139534884,
		  "pitch": 53,
		  "start": 291.976744186047,
		  "velocity": 110
		},
		{
		  "duration": 0.116279069767442,
		  "pitch": 51,
		  "start": 292.209302325581,
		  "velocity": 110
		},
		{
		  "duration": 0.232558139534884,
		  "pitch": 51,
		  "start": 292.325581395349,
		  "velocity": 110
		},
		{
		  "duration": 0.116279069767442,
		  "pitch": 50,
		  "start": 292.558139534884,
		  "velocity": 110
		},
		{
		  "duration": 0.232558139534884,
		  "pitch": 51,
		  "start": 292.674418604651,
		  "velocity": 110
		},
		{
		  "duration": 0.116279069767442,
		  "pitch": 50,
		  "start": 292.906976744186,
		  "velocity": 110
		},
		{
		  "duration": 0.0581395348837209,
		  "pitch": 48,
		  "start": 293.023255813953,
		  "velocity": 110
		},
		{
		  "duration": 0.0581395348837209,
		  "pitch": 48,
		  "start": 293.139534883721,
		  "velocity": 110
		},
		{
		  "duration": 0.0581395348837209,
		  "pitch": 48,
		  "start": 293.255813953488,
		  "velocity": 110
		},
		{
		  "duration": 0.348837209302326,
		  "pitch": 51,
		  "start": 293.372093023256,
		  "velocity": 110
		},
		{
		  "duration": 0.0581395348837209,
		  "pitch": 48,
		  "start": 293.720930232558,
		  "velocity": 110
		},
		{
		  "duration": 0.0581395348837209,
		  "pitch": 48,
		  "start": 293.837209302326,
		  "velocity": 110
		},
		{
		  "duration": 0.0581395348837209,
		  "pitch": 48,
		  "start": 293.953488372093,
		  "velocity": 110
		},
		{
		  "duration": 0.348837209302326,
		  "pitch": 53,
		  "start": 294.06976744186,
		  "velocity": 110
		},
		{
		  "duration": 0.0581395348837209,
		  "pitch": 48,
		  "start": 294.418604651163,
		  "velocity": 110
		},
		{
		  "duration": 0.0581395348837209,
		  "pitch": 48,
		  "start": 294.53488372093,
		  "velocity": 110
		},
		{
		  "duration": 0.0581395348837209,
		  "pitch": 48,
		  "start": 294.651162790698,
		  "velocity": 110
		},
		{
		  "duration": 0.232558139534884,
		  "pitch": 53,
		  "start": 294.767441860465,
		  "velocity": 110
		},
		{
		  "duration": 0.116279069767442,
		  "pitch": 51,
		  "start": 295.0,
		  "velocity": 110
		},
		{
		  "duration": 0.232558139534884,
		  "pitch": 51,
		  "start": 295.116279069767,
		  "velocity": 110
		},
		{
		  "duration": 0.116279069767442,
		  "pitch": 50,
		  "start": 295.348837209302,
		  "velocity": 110
		},
		{
		  "duration": 0.232558139534884,
		  "pitch": 51,
		  "start": 295.46511627907,
		  "velocity": 110
		},
		{
		  "duration": 0.116279069767442,
		  "pitch": 50,
		  "start": 295.697674418605,
		  "velocity": 110
		},
		{
		  "duration": 0.0581395348837209,
		  "pitch": 45,
		  "start": 295.813953488372,
		  "velocity": 110
		},
		{
		  "duration": 0.0581395348837209,
		  "pitch": 45,
		  "start": 295.93023255814,
		  "velocity": 110
		},
		{
		  "duration": 0.0581395348837209,
		  "pitch": 45,
		  "start": 296.046511627907,
		  "velocity": 110
		},
		{
		  "duration": 0.348837209302326,
		  "pitch": 48,
		  "start": 296.162790697674,
		  "velocity": 110
		},
		{
		  "duration": 0.0581395348837209,
		  "pitch": 45,
		  "start": 296.511627906977,
		  "velocity": 110
		},
		{
		  "duration": 0.0581395348837209,
		  "pitch": 45,
		  "start": 296.627906976744,
		  "velocity": 110
		},
		{
		  "duration": 0.0581395348837209,
		  "pitch": 45,
		  "start": 296.744186046512,
		  "velocity": 110
		},
		{
		  "duration": 0.348837209302326,
		  "pitch": 50,
		  "start": 296.860465116279,
		  "velocity": 110
		},
		{
		  "duration": 0.0581395348837209,
		  "pitch": 45,
		  "start": 297.209302325581,
		  "velocity": 110
		},
		{
		  "duration": 0.0581395348837209,
		  "pitch": 45,
		  "start": 297.325581395349,
		  "velocity": 110
		},
		{
		  "duration": 0.0581395348837209,
		  "pitch": 45,
		  "start": 297.441860465116,
		  "velocity": 110
		},
		{
		  "duration": 0.232558139534884,
		  "pitch": 50,
		  "start": 297.558139534884,
		  "velocity": 110
		},
		{
		  "duration": 0.116279069767442,
		  "pitch": 48,
		  "start": 297.790697674419,
		  "velocity": 110
		},
		{
		  "duration": 0.232558139534884,
		  "pitch": 48,
		  "start": 297.906976744186,
		  "velocity": 110
		},
		{
		  "duration": 0.116279069767442,
		  "pitch": 47,
		  "start": 298.139534883721,
		  "velocity": 110
		},
		{
		  "duration": 0.232558139534884,
		  "pitch": 48,
		  "start": 298.255813953488,
		  "velocity": 110
		},
		{
		  "duration": 0.116279069767442,
		  "pitch": 47,
		  "start": 298.488372093023,
		  "velocity": 110
		},
		{
		  "duration": 0.0581395348837209,
		  "pitch": 45,
		  "start": 298.604651162791,
		  "velocity": 110
		},
		{
		  "duration": 0.0581395348837209,
		  "pitch": 45,
		  "start": 298.720930232558,
		  "velocity": 110
		},
		{
		  "duration": 0.0581395348837209,
		  "pitch": 45,
		  "start": 298.837209302326,
		  "velocity": 110
		},
		{
		  "duration": 0.348837209302326,
		  "pitch": 48,
		  "start": 298.953488372093,
		  "velocity": 110
		},
		{
		  "duration": 0.0581395348837209,
		  "pitch": 45,
		  "start": 299.302325581395,
		  "velocity": 110
		},
		{
		  "duration": 0.0581395348837209,
		  "pitch": 45,
		  "start": 299.418604651163,
		  "velocity": 110
		},
		{
		  "duration": 0.0581395348837209,
		  "pitch": 45,
		  "start": 299.53488372093,
		  "velocity": 110
		},
		{
		  "duration": 0.348837209302326,
		  "pitch": 50,
		  "start": 299.651162790698,
		  "velocity": 110
		},
		{
		  "duration": 0.0581395348837209,
		  "pitch": 45,
		  "start": 300.0,
		  "velocity": 110
		},
		{
		  "duration": 0.0581395348837209,
		  "pitch": 45,
		  "start": 300.116279069767,
		  "velocity": 110
		},
		{
		  "duration": 0.0581395348837209,
		  "pitch": 45,
		  "start": 300.232558139535,
		  "velocity": 110
		},
		{
		  "duration": 0.232558139534884,
		  "pitch": 50,
		  "start": 300.348837209302,
		  "velocity": 110
		},
		{
		  "duration": 0.116279069767442,
		  "pitch": 48,
		  "start": 300.581395348837,
		  "velocity": 110
		},
		{
		  "duration": 0.232558139534884,
		  "pitch": 48,
		  "start": 300.697674418605,
		  "velocity": 110
		},
		{
		  "duration": 0.116279069767442,
		  "pitch": 47,
		  "start": 300.93023255814,
		  "velocity": 110
		},
		{
		  "duration": 0.232558139534884,
		  "pitch": 48,
		  "start": 301.046511627907,
		  "velocity": 110
		},
		{
		  "duration": 0.116279069767442,
		  "pitch": 47,
		  "start": 301.279069767442,
		  "velocity": 110
		},
		{
		  "duration": 0.0581395348837209,
		  "pitch": 48,
		  "start": 301.395348837209,
		  "velocity": 110
		},
		{
		  "duration": 0.0581395348837209,
		  "pitch": 48,
		  "start": 301.511627906977,
		  "velocity": 110
		},
		{
		  "duration": 0.0581395348837209,
		  "pitch": 48,
		  "start": 301.627906976744,
		  "velocity": 110
		},
		{
		  "duration": 0.348837209302326,
		  "pitch": 51,
		  "start": 301.744186046512,
		  "velocity": 110
		},
		{
		  "duration": 0.0581395348837209,
		  "pitch": 48,
		  "start": 302.093023255814,
		  "velocity": 110
		},
		{
		  "duration": 0.0581395348837209,
		  "pitch": 48,
		  "start": 302.209302325581,
		  "velocity": 110
		},
		{
		  "duration": 0.0581395348837209,
		  "pitch": 48,
		  "start": 302.325581395349,
		  "velocity": 110
		},
		{
		  "duration": 0.348837209302326,
		  "pitch": 53,
		  "start": 302.441860465116,
		  "velocity": 110
		},
		{
		  "duration": 0.0581395348837209,
		  "pitch": 48,
		  "start": 302.790697674419,
		  "velocity": 110
		},
		{
		  "duration": 0.0581395348837209,
		  "pitch": 48,
		  "start": 302.906976744186,
		  "velocity": 110
		},
		{
		  "duration": 0.0581395348837209,
		  "pitch": 48,
		  "start": 303.023255813953,
		  "velocity": 110
		},
		{
		  "duration": 0.232558139534884,
		  "pitch": 53,
		  "start": 303.139534883721,
		  "velocity": 110
		},
		{
		  "duration": 0.116279069767442,
		  "pitch": 51,
		  "start": 303.372093023256,
		  "velocity": 110
		},
		{
		  "duration": 0.232558139534884,
		  "pitch": 51,
		  "start": 303.488372093023,
		  "velocity": 110
		},
		{
		  "duration": 0.116279069767442,
		  "pitch": 50,
		  "start": 303.720930232558,
		  "velocity": 110
		},
		{
		  "duration": 0.232558139534884,
		  "pitch": 51,
		  "start": 303.837209302326,
		  "velocity": 110
		},
		{
		  "duration": 0.116279069767442,
		  "pitch": 50,
		  "start": 304.06976744186,
		  "velocity": 110
		},
		{
		  "duration": 0.0581395348837209,
		  "pitch": 48,
		  "start": 304.186046511628,
		  "velocity": 110
		},
		{
		  "duration": 0.0581395348837209,
		  "pitch": 48,
		  "start": 304.302325581395,
		  "velocity": 110
		},
		{
		  "duration": 0.0581395348837209,
		  "pitch": 48,
		  "start": 304.418604651163,
		  "velocity": 110
		},
		{
		  "duration": 0.348837209302326,
		  "pitch": 51,
		  "start": 304.53488372093,
		  "velocity": 110
		},
		{
		  "duration": 0.0581395348837209,
		  "pitch": 48,
		  "start": 304.883720930233,
		  "velocity": 110
		},
		{
		  "duration": 0.0581395348837209,
		  "pitch": 48,
		  "start": 305.0,
		  "velocity": 110
		},
		{
		  "duration": 0.0581395348837209,
		  "pitch": 48,
		  "start": 305.116279069767,
		  "velocity": 110
		},
		{
		  "duration": 0.348837209302326,
		  "pitch": 53,
		  "start": 305.232558139535,
		  "velocity": 110
		}
	  ],
	  "pitch_bend_events": [
		{
		  "time": 1.74418604651163,
		  "value": 12287
		},
		{
		  "time": 1.86046511627907,
		  "value": 8255
		},
		{
		  "time": 2.09302325581395,
		  "value": 16383
		},
		{
		  "time": 2.2093023255814,
		  "value": 8255
		},
		{
		  "time": 4.53488372093023,
		  "value": 12287
		},
		{
		  "time": 4.65116279069767,
		  "value": 8255
		},
		{
		  "time": 4.88372093023256,
		  "value": 16383
		},
		{
		  "time": 5.0,
		  "value": 8255
		},
		{
		  "time": 7.32558139534884,
		  "value": 12287
		},
		{
		  "time": 7.44186046511628,
		  "value": 8255
		},
		{
		  "time": 7.67441860465116,
		  "value": 16383
		},
		{
		  "time": 7.7906976744186,
		  "value": 8255
		},
		{
		  "time": 10.1162790697674,
		  "value": 12287
		},
		{
		  "time": 10.2325581395349,
		  "value": 8255
		},
		{
		  "time": 10.4651162790698,
		  "value": 16383
		},
		{
		  "time": 10.5813953488372,
		  "value": 8255
		},
		{
		  "time": 12.906976744186,
		  "value": 12287
		},
		{
		  "time": 13.0232558139535,
		  "value": 8255
		},
		{
		  "time": 13.2558139534884,
		  "value": 16383
		},
		{
		  "time": 13.3720930232558,
		  "value": 8255
		},
		{
		  "time": 15.6976744186047,
		  "value": 12287
		},
		{
		  "time": 15.8139534883721,
		  "value": 8255
		},
		{
		  "time": 16.046511627907,
		  "value": 16383
		},
		{
		  "time": 16.1627906976744,
		  "value": 8255
		},
		{
		  "time": 18.4883720930233,
		  "value": 12287
		},
		{
		  "time": 18.6046511627907,
		  "value": 8255
		},
		{
		  "time": 18.8372093023256,
		  "value": 16383
		},
		{
		  "time": 18.953488372093,
		  "value": 8255
		},
		{
		  "time": 21.2790697674419,
		  "value": 12287
		},
		{
		  "time": 21.3953488372093,
		  "value": 8255
		},
		{
		  "time": 21.6279069767442,
		  "value": 16383
		},
		{
		  "time": 21.7441860465116,
		  "value": 8255
		},
		{
		  "time": 96.6279069767442,
		  "value": 12287
		},
		{
		  "time": 96.7441860465116,
		  "value": 8255
		},
		{
		  "time": 96.9767441860465,
		  "value": 16383
		},
		{
		  "time": 97.0930232558139,
		  "value": 8255
		},
		{
		  "time": 99.4186046511628,
		  "value": 12287
		},
		{
		  "time": 99.5348837209302,
		  "value": 8255
		},
		{
		  "time": 99.7674418604651,
		  "value": 16383
		},
		{
		  "time": 99.8837209302326,
		  "value": 8255
		},
		{
		  "time": 102.209302325581,
		  "value": 12287
		},
		{
		  "time": 102.325581395349,
		  "value": 8255
		},
		{
		  "time": 102.558139534884,
		  "value": 16383
		},
		{
		  "time": 102.674418604651,
		  "value": 8255
		},
		{
		  "time": 105.0,
		  "value": 12287
		},
		{
		  "time": 105.116279069767,
		  "value": 8255
		},
		{
		  "time": 105.348837209302,
		  "value": 16383
		},
		{
		  "time": 105.46511627907,
		  "value": 8255
		},
		{
		  "time": 107.790697674419,
		  "value": 12287
		},
		{
		  "time": 107.906976744186,
		  "value": 8255
		},
		{
		  "time": 108.139534883721,
		  "value": 16383
		},
		{
		  "time": 108.255813953488,
		  "value": 8255
		},
		{
		  "time": 110.581395348837,
		  "value": 12287
		},
		{
		  "time": 110.697674418605,
		  "value": 8255
		},
		{
		  "time": 110.93023255814,
		  "value": 16383
		},
		{
		  "time": 111.046511627907,
		  "value": 8255
		},
		{
		  "time": 113.372093023256,
		  "value": 12287
		},
		{
		  "time": 113.488372093023,
		  "value": 8255
		},
		{
		  "time": 113.720930232558,
		  "value": 16383
		},
		{
		  "time": 113.837209302326,
		  "value": 8255
		},
		{
		  "time": 116.162790697674,
		  "value": 12287
		},
		{
		  "time": 116.279069767442,
		  "value": 8255
		},
		{
		  "time": 116.511627906977,
		  "value": 16383
		},
		{
		  "time": 116.627906976744,
		  "value": 8255
		},
		{
		  "time": 191.511627906977,
		  "value": 12287
		},
		{
		  "time": 191.627906976744,
		  "value": 8255
		},
		{
		  "time": 191.860465116279,
		  "value": 16383
		},
		{
		  "time": 191.976744186047,
		  "value": 8255
		},
		{
		  "time": 194.302325581395,
		  "value": 12287
		},
		{
		  "time": 194.418604651163,
		  "value": 8255
		},
		{
		  "time": 194.651162790698,
		  "value": 16383
		},
		{
		  "time": 194.767441860465,
		  "value": 8255
		},
		{
		  "time": 197.093023255814,
		  "value": 12287
		},
		{
		  "time": 197.209302325581,
		  "value": 8255
		},
		{
		  "time": 197.441860465116,
		  "value": 16383
		},
		{
		  "time": 197.558139534884,
		  "value": 8255
		},
		{
		  "time": 199.883720930233,
		  "value": 12287
		},
		{
		  "time": 200.0,
		  "value": 8255
		},
		{
		  "time": 200.232558139535,
		  "value": 16383
		},
		{
		  "time": 200.348837209302,
		  "value": 8255
		},
		{
		  "time": 202.674418604651,
		  "value": 12287
		},
		{
		  "time": 202.790697674419,
		  "value": 8255
		},
		{
		  "time": 203.023255813953,
		  "value": 16383
		},
		{
		  "time": 203.139534883721,
		  "value": 8255
		},
		{
		  "time": 205.46511627907,
		  "value": 12287
		},
		{
		  "time": 205.581395348837,
		  "value": 8255
		},
		{
		  "time": 205.813953488372,
		  "value": 16383
		},
		{
		  "time": 205.93023255814,
		  "value": 8255
		},
		{
		  "time": 208.255813953488,
		  "value": 12287
		},
		{
		  "time": 208.372093023256,
		  "value": 8255
		},
		{
		  "time": 208.604651162791,
		  "value": 16383
		},
		{
		  "time": 208.720930232558,
		  "value": 8255
		},
		{
		  "time": 211.046511627907,
		  "value": 12287
		},
		{
		  "time": 211.162790697674,
		  "value": 8255
		},
		{
		  "time": 211.395348837209,
		  "value": 16383
		},
		{
		  "time": 211.511627906977,
		  "value": 8255
		},
		{
		  "time": 286.395348837209,
		  "value": 12287
		},
		{
		  "time": 286.511627906977,
		  "value": 8255
		},
		{
		  "time": 286.744186046512,
		  "value": 16383
		},
		{
		  "time": 286.860465116279,
		  "value": 8255
		},
		{
		  "time": 289.186046511628,
		  "value": 12287
		},
		{
		  "time": 289.302325581395,
		  "value": 8255
		},
		{
		  "time": 289.53488372093,
		  "value": 16383
		},
		{
		  "time": 289.651162790698,
		  "value": 8255
		},
		{
		  "time": 291.976744186047,
		  "value": 12287
		},
		{
		  "time": 292.093023255814,
		  "value": 8255
		},
		{
		  "time": 292.325581395349,
		  "value": 16383
		},
		{
		  "time": 292.441860465116,
		  "value": 8255
		},
		{
		  "time": 294.767441860465,
		  "value": 12287
		},
		{
		  "time": 294.883720930233,
		  "value": 8255
		},
		{
		  "time": 295.116279069767,
		  "value": 16383
		},
		{
		  "time": 295.232558139535,
		  "value": 8255
		},
		{
		  "time": 297.558139534884,
		  "value": 12287
		},
		{
		  "time": 297.674418604651,
		  "value": 8255
		},
		{
		  "time": 297.906976744186,
		  "value": 16383
		},
		{
		  "time": 298.023255813953,
		  "value": 8255
		},
		{
		  "time": 300.348837209302,
		  "value": 12287
		},
		{
		  "time": 300.46511627907,
		  "value": 8255
		},
		{
		  "time": 300.697674418605,
		  "value": 16383
		},
		{
		  "time": 300.813953488372,
		  "value": 8255
		},
		{
		  "time": 303.139534883721,
		  "value": 12287
		},
		{
		  "time": 303.255813953488,
		  "value": 8255
		},
		{
		  "time": 303.488372093023,
		  "value": 16383
		},
		{
		  "time": 303.604651162791,
		  "value": 8255
		}
	  ]
	},
	{
	  "cc_events": [
		{
		  "controller": 7,
		  "time": 0.0,
		  "value": 80
		},
		{
		  "controller": 10,
		  "time": 0.0,
		  "value": 0
		},
		{
		  "controller": 10,
		  "time": 94.8837209302326,
		  "value": 0
		},
		{
		  "controller": 10,
		  "time": 189.767441860465,
		  "value": 0
		},
		{
		  "controller": 10,
		  "time": 284.651162790698,
		  "value": 0
		}
	  ],
	  "channel": 5,
	  "instrument": 79,
	  "name": "PSG",
	  "notes": [
		{
		  "duration": 0.116279069767442,
		  "pitch": 64,
		  "start": 22.3255813953488,
		  "velocity": 80
		},
		{
		  "duration": 0.116279069767442,
		  "pitch": 69,
		  "start": 22.4418604651163,
		  "velocity": 80
		},
		{
		  "duration": 0.116279069767442,
		  "pitch": 72,
		  "start": 22.5581395348837,
		  "velocity": 80
		},
		{
		  "duration": 0.116279069767442,
		  "pitch": 76,
		  "start": 22.6744186046512,
		  "velocity": 80
		},
		{
		  "duration": 0.116279069767442,
		  "pitch": 81,
		  "start": 22.7906976744186,
		  "velocity": 80
		},
		{
		  "duration": 0.116279069767442,
		  "pitch": 84,
		  "start": 22.906976744186,
		  "velocity": 80
		},
		{
		  "duration": 0.116279069767442,
		  "pitch": 64,
		  "start": 23.0232558139535,
		  "velocity": 80
		},
		{
		  "duration": 0.116279069767442,
		  "pitch": 67,
		  "start": 23.1395348837209,
		  "velocity": 80
		},
		{
		  "duration": 0.116279069767442,
		  "pitch": 71,
		  "start": 23.2558139534884,
		  "velocity": 80
		},
		{
		  "duration": 0.116279069767442,
		  "pitch": 76,
		  "start": 23.3720930232558,
		  "velocity": 80
		},
		{
		  "duration": 0.116279069767442,
		  "pitch": 79,
		  "start": 23.4883720930233,
		  "velocity": 80
		},
		{
		  "duration": 0.116279069767442,
		  "pitch": 83,
		  "start": 23.6046511627907,
		  "velocity": 80
		},
		{
		  "duration": 0.116279069767442,
		  "pitch": 64,
		  "start": 23.7209302325581,
		  "velocity": 80
		},
		{
		  "duration": 0.116279069767442,
		  "pitch": 67,
		  "start": 23.8372093023256,
		  "velocity": 80
		},
		{
		  "duration": 0.116279069767442,
		  "pitch": 72,
		  "start": 23.953488372093,
		  "velocity": 80
		},
		{
		  "duration": 0.116279069767442,
		  "pitch": 76,
		  "start": 24.0697674418605,
		  "velocity": 80
		},
		{
		  "duration": 0.116279069767442,
		  "pitch": 79,
		  "start": 24.1860465116279,
		  "velocity": 80
		},
		{
		  "duration": 0.116279069767442,
		  "pitch": 84,
		  "start": 24.3023255813953,
		  "velocity": 80
		},
		{
		  "duration": 0.116279069767442,
		  "pitch": 64,
		  "start": 24.4186046511628,
		  "velocity": 80
		},
		{
		  "duration": 0.116279069767442,
		  "pitch": 67,
		  "start": 24.5348837209302,
		  "velocity": 80
		},
		{
		  "duration": 0.116279069767442,
		  "pitch": 71,
		  "start": 24.6511627906977,
		  "velocity": 80
		},
		{
		  "duration": 0.116279069767442,
		  "pitch": 76,
		  "start": 24.7674418604651,
		  "velocity": 80
		},
		{
		  "duration": 0.116279069767442,
		  "pitch": 79,
		  "start": 24.8837209302326,
		  "velocity": 80
		},
		{
		  "duration": 0.116279069767442,
		  "pitch": 83,
		  "start": 25.0,
		  "velocity": 80
		},
		{
		  "duration": 0.116279069767442,
		  "pitch": 84,
		  "start": 25.1162790697674,
		  "velocity": 80
		},
		{
		  "duration": 0.116279069767442,
		  "pitch": 81,
		  "start": 25.2325581395349,
		  "velocity": 80
		},
		{
		  "duration": 0.116279069767442,
		  "pitch": 77,
		  "start": 25.3488372093023,
		  "velocity": 80
		},
		{
		  "duration": 0.116279069767442,
		  "pitch": 81,
		  "start": 25.4651162790698,
		  "velocity": 80
		},
		{
		  "duration": 0.116279069767442,
		  "pitch": 77,
		  "start": 25.5813953488372,
		  "velocity": 80
		},
		{
		  "duration": 0.116279069767442,
		  "pitch": 72,
		  "start": 25.6976744186047,
		  "velocity": 80
		},
		{
		  "duration": 0.116279069767442,
		  "pitch": 77,
		  "start": 25.8139534883721,
		  "velocity": 80
		},
		{
		  "duration": 0.116279069767442,
		  "pitch": 72,
		  "start": 25.9302325581395,
		  "velocity": 80
		},
		{
		  "duration": 0.116279069767442,
		  "pitch": 69,
		  "start": 26.046511627907,
		  "velocity": 80
		},
		{
		  "duration": 0.116279069767442,
		  "pitch": 72,
		  "start": 26.1627906976744,
		  "velocity": 80
		},
		{
		  "duration": 0.116279069767442,
		  "pitch": 69,
		  "start": 26.2790697674419,
		  "velocity": 80
		},
		{
		  "duration": 0.116279069767442,
		  "pitch": 65,
		  "start": 26.3953488372093,
		  "velocity": 80
		},
		{
		  "duration": 0.116279069767442,
		  "pitch": 81,
		  "start": 26.5116279069767,
		  "velocity": 80
		},
		{
		  "duration": 0.116279069767442,
		  "pitch": 77,
		  "start": 26.6279069767442,
		  "velocity": 80
		},
		{
		  "duration": 0.116279069767442,
		  "pitch": 74,
		  "start": 26.7441860465116,
		  "velocity": 80
		},
		{
		  "duration": 0.116279069767442,
		  "pitch": 77,
		  "start": 26.8604651162791,
		  "velocity": 80
		},
		{
		  "duration": 0.116279069767442,
		  "pitch": 74,
		  "start": 26.9767441860465,
		  "velocity": 80
		},
		{
		  "duration": 0.116279069767442,
		  "pitch": 69,
		  "start": 27.093023255814,
		  "velocity": 80
		},
		{
		  "duration": 0.116279069767442,
		  "pitch": 74,
		  "start": 27.2093023255814,
		  "velocity": 80
		},
		{
		  "duration": 0.116279069767442,
		  "pitch": 68,
		  "start": 27.3255813953488,
		  "velocity": 80
		},
		{
		  "duration": 0.116279069767442,
		  "pitch": 65,
		  "start": 27.4418604651163,
		  "velocity": 80
		},
		{
		  "duration": 0.116279069767442,
		  "pitch": 68,
		  "start": 27.5581395348837,
		  "velocity": 80
		},
		{
		  "duration": 0.116279069767442,
		  "pitch": 65,
		  "start": 27.6744186046512,
		  "velocity": 80
		},
		{
		  "duration": 0.116279069767442,
		  "pitch": 62,
		  "start": 27.7906976744186,
		  "velocity": 80
		},
		{
		  "duration": 0.116279069767442,
		  "pitch": 48,
		  "start": 27.906976744186,
		  "velocity": 80
		},
		{
		  "duration": 0.116279069767442,
		  "pitch": 45,
		  "start": 28.0232558139535,
		  "velocity": 80
		},
		{
		  "duration": 0.116279069767442,
		  "pitch": 48,
		  "start": 28.1395348837209,
		  "velocity": 80
		},
		{
		  "duration": 0.116279069767442,
		  "pitch": 52,
		  "start": 28.2558139534884,
		  "velocity": 80
		},
		{
		  "duration": 0.116279069767442,
		  "pitch": 57,
		  "start": 28.3720930232558,
		  "velocity": 80
		},
		{
		  "duration": 0.116279069767442,
		  "pitch": 60,
		  "start": 28.4883720930233,
		  "velocity": 80
		},
		{
		  "duration": 0.116279069767442,
		  "pitch": 64,
		  "start": 28.6046511627907,
		  "velocity": 80
		},
		{
		  "duration": 0.116279069767442,
		  "pitch": 57,
		  "start": 28.7209302325581,
		  "velocity": 80
		},
		{
		  "duration": 0.116279069767442,
		  "pitch": 64,
		  "start": 28.8372093023256,
		  "velocity": 80
		},
		{
		  "duration": 0.116279069767442,
		  "pitch": 69,
		  "start": 28.953488372093,
		  "velocity": 80
		},
		{
		  "duration": 0.116279069767442,
		  "pitch": 72,
		  "start": 29.0697674418605,
		  "velocity": 80
		},
		{
		  "duration": 0.116279069767442,
		  "pitch": 76,
		  "start": 29.1860465116279,
		  "velocity": 80
		},
		{
		  "duration": 0.116279069767442,
		  "pitch": 72,
		  "start": 29.3023255813953,
		  "velocity": 80
		},
		{
		  "duration": 0.116279069767442,
		  "pitch": 69,
		  "start": 29.4186046511628,
		  "velocity": 80
		},
		{
		  "duration": 0.116279069767442,
		  "pitch": 72,
		  "start": 29.5348837209302,
		  "velocity": 80
		},
		{
		  "duration": 0.116279069767442,
		  "pitch": 76,
		  "start": 29.6511627906977,
		  "velocity": 80
		},
		{
		  "duration": 0.116279069767442,
		  "pitch": 81,
		  "start": 29.7674418604651,
		  "velocity": 80
		},
		{
		  "duration": 0.116279069767442,
		  "pitch": 84,
		  "start": 29.8837209302326,
		  "velocity": 80
		},
		{
		  "duration": 0.116279069767442,
		  "pitch": 81,
		  "start": 30.0,
		  "velocity": 80
		},
		{
		  "duration": 0.116279069767442,
		  "pitch": 76,
		  "start": 30.1162790697674,
		  "velocity": 80
		},
		{
		  "duration": 0.116279069767442,
		  "pitch": 81,
		  "start": 30.2325581395349,
		  "velocity": 80
		},
		{
		  "duration": 0.116279069767442,
		  "pitch": 84,
		  "start": 30.3488372093023,
		  "velocity": 80
		},
		{
		  "duration": 0.116279069767442,
		  "pitch": 88,
		  "start": 30.4709302325581,
		  "velocity": 80
		},
		{
		  "duration": 0.116279069767442,
		  "pitch": 93,
		  "start": 30.5813953488372,
		  "velocity": 80
		},
		{
		  "duration": 0.116279069767442,
		  "pitch": 64,
		  "start": 30.6976744186047,
		  "velocity": 80
		},
		{
		  "duration": 0.116279069767442,
		  "pitch": 69,
		  "start": 30.8139534883721,
		  "velocity": 80
		},
		{
		  "duration": 0.116279069767442,
		  "pitch": 72,
		  "start": 30.9302325581395,
		  "velocity": 80
		},
		{
		  "duration": 0.116279069767442,
		  "pitch": 76,
		  "start": 31.046511627907,
		  "velocity": 80
		},
		{
		  "duration": 0.116279069767442,
		  "pitch": 81,
		  "start": 31.1627906976744,
		  "velocity": 80
		},
		{
		  "duration": 0.116279069767442,
		  "pitch": 84,
		  "start": 31.2790697674419,
		  "velocity": 80
		},
		{
		  "duration": 0.116279069767442,
		  "pitch": 64,
		  "start": 31.3953488372093,
		  "velocity": 80
		},
		{
		  "duration": 0.116279069767442,
		  "pitch": 67,
		  "start": 31.5116279069767,
		  "velocity": 80
		},
		{
		  "duration": 0.116279069767442,
		  "pitch": 71,
		  "start": 31.6279069767442,
		  "velocity": 80
		},
		{
		  "duration": 0.116279069767442,
		  "pitch": 76,
		  "start": 31.7441860465116,
		  "velocity": 80
		},
		{
		  "duration": 0.116279069767442,
		  "pitch": 79,
		  "start": 31.8604651162791,
		  "velocity": 80
		},
		{
		  "duration": 0.116279069767442,
		  "pitch": 83,
		  "start": 31.9767441860465,
		  "velocity": 80
		},
		{
		  "duration": 0.116279069767442,
		  "pitch": 64,
		  "start": 32.093023255814,
		  "velocity": 80
		},
		{
		  "duration": 0.116279069767442,
		  "pitch": 67,
		  "start": 32.2093023255814,
		  "velocity": 80
		},
		{
		  "duration": 0.116279069767442,
		  "pitch": 72,
		  "start": 32.3255813953488,
		  "velocity": 80
		},
		{
		  "duration": 0.116279069767442,
		  "pitch": 76,
		  "start": 32.4418604651163,
		  "velocity": 80
		},
		{
		  "duration": 0.116279069767442,
		  "pitch": 79,
		  "start": 32.5581395348837,
		  "velocity": 80
		},
		{
		  "duration": 0.116279069767442,
		  "pitch": 84,
		  "start": 32.6744186046512,
		  "velocity": 80
		},
		{
		  "duration": 0.116279069767442,
		  "pitch": 64,
		  "start": 32.7906976744186,
		  "velocity": 80
		},
		{
		  "duration": 0.116279069767442,
		  "pitch": 67,
		  "start": 32.906976744186,
		  "velocity": 80
		},
		{
		  "duration": 0.116279069767442,
		  "pitch": 71,
		  "start": 33.0232558139535,
		  "velocity": 80
		},
		{
		  "duration": 0.116279069767442,
		  "pitch": 76,
		  "start": 33.1395348837209,
		  "velocity": 80
		},
		{
		  "duration": 0.116279069767442,
		  "pitch": 79,
		  "start": 33.2558139534884,
		  "velocity": 80
		},
		{
		  "duration": 0.116279069767442,
		  "pitch": 83,
		  "start": 33.3720930232558,
		  "velocity": 80
		},
		{
		  "duration": 0.116279069767442,
		  "pitch": 84,
		  "start": 33.4883720930233,
		  "velocity": 80
		},
		{
		  "duration": 0.116279069767442,
		  "pitch": 81,
		  "start": 33.6046511627907,
		  "velocity": 80
		},
		{
		  "duration": 0.116279069767442,
		  "pitch": 77,
		  "start": 33.7209302325581,
		  "velocity": 80
		},
		{
		  "duration": 0.116279069767442,
		  "pitch": 81,
		  "start": 33.8372093023256,
		  "velocity": 80
		},
		{
		  "duration": 0.116279069767442,
		  "pitch": 77,
		  "start": 33.953488372093,
		  "velocity": 80
		},
		{
		  "duration": 0.116279069767442,
		  "pitch": 72,
		  "start": 34.0697674418605,
		  "velocity": 80
		},
		{
		  "duration": 0.116279069767442,
		  "pitch": 77,
		  "start": 34.1860465116279,
		  "velocity": 80
		},
		{
		  "duration": 0.116279069767442,
		  "pitch": 72,
		  "start": 34.3023255813954,
		  "velocity": 80
		},
		{
		  "duration": 0.116279069767442,
		  "pitch": 69,
		  "start": 34.4186046511628,
		  "velocity": 80
		},
		{
		  "duration": 0.116279069767442,
		  "pitch": 72,
		  "start": 34.5348837209302,
		  "velocity": 80
		},
		{
		  "duration": 0.116279069767442,
		  "pitch": 69,
		  "start": 34.6511627906977,
		  "velocity": 80
		},
		{
		  "duration": 0.116279069767442,
		  "pitch": 65,
		  "start": 34.7674418604651,
		  "velocity": 80
		},
		{
		  "duration": 0.116279069767442,
		  "pitch": 81,
		  "start": 34.8837209302326,
		  "velocity": 80
		},
		{
		  "duration": 0.116279069767442,
		  "pitch": 77,
		  "start": 35.0,
		  "velocity": 80
		},
		{
		  "duration": 0.116279069767442,
		  "pitch": 74,
		  "start": 35.1162790697674,
		  "velocity": 80
		},
		{
		  "duration": 0.116279069767442,
		  "pitch": 77,
		  "start": 35.2325581395349,
		  "velocity": 80
		},
		{
		  "duration": 0.116279069767442,
		  "pitch": 74,
		  "start": 35.3488372093023,
		  "velocity": 80
		},
		{
		  "duration": 0.116279069767442,
		  "pitch": 69,
		  "start": 35.4651162790698,
		  "velocity": 80
		},
		{
		  "duration": 0.116279069767442,
		  "pitch": 74,
		  "start": 35.5813953488372,
		  "velocity": 80
		},
		{
		  "duration": 0.116279069767442,
		  "pitch": 68,
		  "start": 35.6976744186046,
		  "velocity": 80
		},
		{
		  "duration": 0.116279069767442,
		  "pitch": 65,
		  "start": 35.8139534883721,
		  "velocity": 80
		},
		{
		  "duration": 0.116279069767442,
		  "pitch": 68,
		  "start": 35.9302325581395,
		  "velocity": 80
		},
		{
		  "duration": 0.116279069767442,
		  "pitch": 65,
		  "start": 36.046511627907,
		  "velocity": 80
		},
		{
		  "duration": 0.116279069767442,
		  "pitch": 62,
		  "start": 36.1627906976744,
		  "velocity": 80
		},
		{
		  "duration": 0.116279069767442,
		  "pitch": 48,
		  "start": 36.2790697674419,
		  "velocity": 80
		},
		{
		  "duration": 0.116279069767442,
		  "pitch": 45,
		  "start": 36.3953488372093,
		  "velocity": 80
		},
		{
		  "duration": 0.116279069767442,
		  "pitch": 48,
		  "start": 36.5116279069767,
		  "velocity": 80
		},
		{
		  "duration": 0.116279069767442,
		  "pitch": 52,
		  "start": 36.6279069767442,
		  "velocity": 80
		},
		{
		  "duration": 0.116279069767442,
		  "pitch": 57,
		  "start": 36.7441860465116,
		  "velocity": 80
		},
		{
		  "duration": 0.116279069767442,
		  "pitch": 60,
		  "start": 36.8604651162791,
		  "velocity": 80
		},
		{
		  "duration": 0.116279069767442,
		  "pitch": 64,
		  "start": 36.9767441860465,
		  "velocity": 80
		},
		{
		  "duration": 0.116279069767442,
		  "pitch": 57,
		  "start": 37.093023255814,
		  "velocity": 80
		},
		{
		  "duration": 0.116279069767442,
		  "pitch": 64,
		  "start": 37.2093023255814,
		  "velocity": 80
		},
		{
		  "duration": 0.116279069767442,
		  "pitch": 69,
		  "start": 37.3255813953488,
		  "velocity": 80
		},
		{
		  "duration": 0.116279069767442,
		  "pitch": 72,
		  "start": 37.4418604651163,
		  "velocity": 80
		},
		{
		  "duration": 0.116279069767442,
		  "pitch": 76,
		  "start": 37.5581395348837,
		  "velocity": 80
		},
		{
		  "duration": 0.116279069767442,
		  "pitch": 72,
		  "start": 37.6744186046512,
		  "velocity": 80
		},
		{
		  "duration": 0.116279069767442,
		  "pitch": 69,
		  "start": 37.7906976744186,
		  "velocity": 80
		},
		{
		  "duration": 0.116279069767442,
		  "pitch": 72,
		  "start": 37.906976744186,
		  "velocity": 80
		},
		{
		  "duration": 0.116279069767442,
		  "pitch": 76,
		  "start": 38.0232558139535,
		  "velocity": 80
		},
		{
		  "duration": 0.116279069767442,
		  "pitch": 81,
		  "start": 38.1395348837209,
		  "velocity": 80
		},
		{
		  "duration": 0.116279069767442,
		  "pitch": 84,
		  "start": 38.2558139534884,
		  "velocity": 80
		},
		{
		  "duration": 0.116279069767442,
		  "pitch": 81,
		  "start": 38.3720930232558,
		  "velocity": 80
		},
		{
		  "duration": 0.116279069767442,
		  "pitch": 76,
		  "start": 38.4883720930233,
		  "velocity": 80
		},
		{
		  "duration": 0.116279069767442,
		  "pitch": 81,
		  "start": 38.6046511627907,
		  "velocity": 80
		},
		{
		  "duration": 0.116279069767442,
		  "pitch": 84,
		  "start": 38.7209302325581,
		  "velocity": 80
		},
		{
		  "duration": 0.116279069767442,
		  "pitch": 88,
		  "start": 38.843023255814,
		  "velocity": 80
		},
		{
		  "duration": 0.116279069767442,
		  "pitch": 93,
		  "start": 38.953488372093,
		  "velocity": 80
		},
		{
		  "duration": 0.116279069767442,
		  "pitch": 55,
		  "start": 50.2325581395349,
		  "velocity": 80
		},
		{
		  "duration": 0.116279069767442,
		  "pitch": 59,
		  "start": 50.3488372093023,
		  "velocity": 80
		},
		{
		  "duration": 0.116279069767442,
		  "pitch": 62,
		  "start": 50.4651162790698,
		  "velocity": 80
		},
		{
		  "duration": 0.116279069767442,
		  "pitch": 67,
		  "start": 50.5813953488372,
		  "velocity": 80
		},
		{
		  "duration": 0.116279069767442,
		  "pitch": 62,
		  "start": 50.6976744186046,
		  "velocity": 80
		},
		{
		  "duration": 0.116279069767442,
		  "pitch": 67,
		  "start": 50.8139534883721,
		  "velocity": 80
		},
		{
		  "duration": 0.116279069767442,
		  "pitch": 71,
		  "start": 50.9302325581395,
		  "velocity": 80
		},
		{
		  "duration": 0.116279069767442,
		  "pitch": 67,
		  "start": 51.046511627907,
		  "velocity": 80
		},
		{
		  "duration": 0.116279069767442,
		  "pitch": 71,
		  "start": 51.1627906976744,
		  "velocity": 80
		},
		{
		  "duration": 0.116279069767442,
		  "pitch": 74,
		  "start": 51.2790697674419,
		  "velocity": 80
		},
		{
		  "duration": 0.116279069767442,
		  "pitch": 71,
		  "start": 51.3953488372093,
		  "velocity": 80
		},
		{
		  "duration": 0.116279069767442,
		  "pitch": 74,
		  "start": 51.5116279069767,
		  "velocity": 80
		},
		{
		  "duration": 0.116279069767442,
		  "pitch": 79,
		  "start": 51.6279069767442,
		  "velocity": 80
		},
		{
		  "duration": 0.116279069767442,
		  "pitch": 76,
		  "start": 51.7441860465116,
		  "velocity": 80
		},
		{
		  "duration": 0.116279069767442,
		  "pitch": 72,
		  "start": 51.8604651162791,
		  "velocity": 80
		},
		{
		  "duration": 0.116279069767442,
		  "pitch": 76,
		  "start": 51.9767441860465,
		  "velocity": 80
		},
		{
		  "duration": 0.116279069767442,
		  "pitch": 72,
		  "start": 52.093023255814,
		  "velocity": 80
		},
		{
		  "duration": 0.116279069767442,
		  "pitch": 67,
		  "start": 52.2093023255814,
		  "velocity": 80
		},
		{
		  "duration": 0.116279069767442,
		  "pitch": 72,
		  "start": 52.3255813953488,
		  "velocity": 80
		},
		{
		  "duration": 0.116279069767442,
		  "pitch": 67,
		  "start": 52.4418604651163,
		  "velocity": 80
		},
		{
		  "duration": 0.116279069767442,
		  "pitch": 64,
		  "start": 52.5581395348837,
		  "velocity": 80
		},
		{
		  "duration": 0.116279069767442,
		  "pitch": 67,
		  "start": 52.6744186046512,
		  "velocity": 80
		},
		{
		  "duration": 0.116279069767442,
		  "pitch": 64,
		  "start": 52.7906976744186,
		  "velocity": 80
		},
		{
		  "duration": 0.116279069767442,
		  "pitch": 60,
		  "start": 52.906976744186,
		  "velocity": 80
		},
		{
		  "duration": 0.116279069767442,
		  "pitch": 55,
		  "start": 53.0232558139535,
		  "velocity": 80
		},
		{
		  "duration": 0.116279069767442,
		  "pitch": 59,
		  "start": 53.1395348837209,
		  "velocity": 80
		},
		{
		  "duration": 0.116279069767442,
		  "pitch": 62,
		  "start": 53.2558139534884,
		  "velocity": 80
		},
		{
		  "duration": 0.116279069767442,
		  "pitch": 67,
		  "start": 53.3720930232558,
		  "velocity": 80
		},
		{
		  "duration": 0.116279069767442,
		  "pitch": 62,
		  "start": 53.4883720930233,
		  "velocity": 80
		},
		{
		  "duration": 0.116279069767442,
		  "pitch": 67,
		  "start": 53.6046511627907,
		  "velocity": 80
		},
		{
		  "duration": 0.116279069767442,
		  "pitch": 71,
		  "start": 53.7209302325581,
		  "velocity": 80
		},
		{
		  "duration": 0.116279069767442,
		  "pitch": 67,
		  "start": 53.8372093023256,
		  "velocity": 80
		},
		{
		  "duration": 0.116279069767442,
		  "pitch": 71,
		  "start": 53.953488372093,
		  "velocity": 80
		},
		{
		  "duration": 0.116279069767442,
		  "pitch": 74,
		  "start": 54.0697674418605,
		  "velocity": 80
		},
		{
		  "duration": 0.116279069767442,
		  "pitch": 71,
		  "start": 54.1860465116279,
		  "velocity": 80
		},
		{
		  "duration": 0.116279069767442,
		  "pitch": 74,
		  "start": 54.3023255813954,
		  "velocity": 80
		},
		{
		  "duration": 0.116279069767442,
		  "pitch": 79,
		  "start": 54.4186046511628,
		  "velocity": 80
		},
		{
		  "duration": 0.116279069767442,
		  "pitch": 76,
		  "start": 54.5348837209302,
		  "velocity": 80
		},
		{
		  "duration": 0.116279069767442,
		  "pitch": 72,
		  "start": 54.6511627906977,
		  "velocity": 80
		},
		{
		  "duration": 0.116279069767442,
		  "pitch": 76,
		  "start": 54.7674418604651,
		  "velocity": 80
		},
		{
		  "duration": 0.116279069767442,
		  "pitch": 72,
		  "start": 54.8837209302326,
		  "velocity": 80
		},
		{
		  "duration": 0.116279069767442,
		  "pitch": 67,
		  "start": 55.0,
		  "velocity": 80
		},
		{
		  "duration": 0.116279069767442,
		  "pitch": 72,
		  "start": 55.1162790697674,
		  "velocity": 80
		},
		{
		  "duration": 0.116279069767442,
		  "pitch": 67,
		  "start": 55.2325581395349,
		  "velocity": 80
		},
		{
		  "duration": 0.116279069767442,
		  "pitch": 64,
		  "start": 55.3488372093023,
		  "velocity": 80
		},
		{
		  "duration": 0.116279069767442,
		  "pitch": 67,
		  "start": 55.4651162790698,
		  "velocity": 80
		},
		{
		  "duration": 0.116279069767442,
		  "pitch": 64,
		  "start": 55.5813953488372,
		  "velocity": 80
		},
		{
		  "duration": 0.116279069767442,
		  "pitch": 60,
		  "start": 55.6976744186046,
		  "velocity": 80
		},
		{
		  "duration": 0.116279069767442,
		  "pitch": 57,
		  "start": 55.8139534883721,
		  "velocity": 80
		},
		{
		  "duration": 0.116279069767442,
		  "pitch": 60,
		  "start": 55.9302325581395,
		  "velocity": 80
		},
		{
		  "duration": 0.116279069767442,
		  "pitch": 64,
		  "start": 56.046511627907,
		  "velocity": 80
		},
		{
		  "duration": 0.116279069767442,
		  "pitch": 69,
		  "start": 56.1627906976744,
		  "velocity": 80
		},
		{
		  "duration": 0.116279069767442,
		  "pitch": 64,
		  "start": 56.2790697674419,
		  "velocity": 80
		},
		{
		  "duration": 0.116279069767442,
		  "pitch": 69,
		  "start": 56.3953488372093,
		  "velocity": 80
		},
		{
		  "duration": 0.116279069767442,
		  "pitch": 71,
		  "start": 56.5116279069767,
		  "velocity": 80
		},
		{
		  "duration": 0.116279069767442,
		  "pitch": 69,
		  "start": 56.6279069767442,
		  "velocity": 80
		},
		{
		  "duration": 0.116279069767442,
		  "pitch": 71,
		  "start": 56.7441860465116,
		  "velocity": 80
		},
		{
		  "duration": 0.116279069767442,
		  "pitch": 76,
		  "start": 56.8604651162791,
		  "velocity": 80
		},
		{
		  "duration": 0.116279069767442,
		  "pitch": 71,
		  "start": 56.9767441860465,
		  "velocity": 80
		},
		{
		  "duration": 0.116279069767442,
		  "pitch": 76,
		  "start": 57.093023255814,
		  "velocity": 80
		},
		{
		  "duration": 0.116279069767442,
		  "pitch": 81,
		  "start": 57.2093023255814,
		  "velocity": 80
		},
		{
		  "duration": 0.116279069767442,
		  "pitch": 77,
		  "start": 57.3255813953488,
		  "velocity": 80
		},
		{
		  "duration": 0.116279069767442,
		  "pitch": 74,
		  "start": 57.4418604651163,
		  "velocity": 80
		},
		{
		  "duration": 0.116279069767442,
		  "pitch": 77,
		  "start": 57.5581395348837,
		  "velocity": 80
		},
		{
		  "duration": 0.116279069767442,
		  "pitch": 74,
		  "start": 57.6744186046512,
		  "velocity": 80
		},
		{
		  "duration": 0.116279069767442,
		  "pitch": 69,
		  "start": 57.7906976744186,
		  "velocity": 80
		},
		{
		  "duration": 0.116279069767442,
		  "pitch": 74,
		  "start": 57.906976744186,
		  "velocity": 80
		},
		{
		  "duration": 0.116279069767442,
		  "pitch": 69,
		  "start": 58.0232558139535,
		  "velocity": 80
		},
		{
		  "duration": 0.116279069767442,
		  "pitch": 65,
		  "start": 58.1395348837209,
		  "velocity": 80
		},
		{
		  "duration": 0.116279069767442,
		  "pitch": 69,
		  "start": 58.2558139534884,
		  "velocity": 80
		},
		{
		  "duration": 0.116279069767442,
		  "pitch": 65,
		  "start": 58.3720930232558,
		  "velocity": 80
		},
		{
		  "duration": 0.116279069767442,
		  "pitch": 62,
		  "start": 58.4883720930233,
		  "velocity": 80
		},
		{
		  "duration": 0.116279069767442,
		  "pitch": 57,
		  "start": 58.6046511627907,
		  "velocity": 80
		},
		{
		  "duration": 0.116279069767442,
		  "pitch": 60,
		  "start": 58.7209302325581,
		  "velocity": 80
		},
		{
		  "duration": 0.116279069767442,
		  "pitch": 64,
		  "start": 58.8372093023256,
		  "velocity": 80
		},
		{
		  "duration": 0.116279069767442,
		  "pitch": 69,
		  "start": 58.953488372093,
		  "velocity": 80
		},
		{
		  "duration": 0.116279069767442,
		  "pitch": 64,
		  "start": 59.0697674418605,
		  "velocity": 80
		},
		{
		  "duration": 0.116279069767442,
		  "pitch": 69,
		  "start": 59.1860465116279,
		  "velocity": 80
		},
		{
		  "duration": 0.116279069767442,
		  "pitch": 71,
		  "start": 59.3023255813954,
		  "velocity": 80
		},
		{
		  "duration": 0.116279069767442,
		  "pitch": 69,
		  "start": 59.4186046511628,
		  "velocity": 80
		},
		{
		  "duration": 0.116279069767442,
		  "pitch": 71,
		  "start": 59.5348837209302,
		  "velocity": 80
		},
		{
		  "duration": 0.116279069767442,
		  "pitch": 76,
		  "start": 59.6511627906977,
		  "velocity": 80
		},
		{
		  "duration": 0.116279069767442,
		  "pitch": 71,
		  "start": 59.7674418604651,
		  "velocity": 80
		},
		{
		  "duration": 0.116279069767442,
		  "pitch": 76,
		  "start": 59.8837209302326,
		  "velocity": 80
		},
		{
		  "duration": 0.116279069767442,
		  "pitch": 82,
		  "start": 60.0,
		  "velocity": 80
		},
		{
		  "duration": 0.116279069767442,
		  "pitch": 77,
		  "start": 60.1162790697674,
		  "velocity": 80
		},
		{
		  "duration": 0.116279069767442,
		  "pitch": 74,
		  "start": 60.2325581395349,
		  "velocity": 80
		},
		{
		  "duration": 0.116279069767442,
		  "pitch": 77,
		  "start": 60.3488372093023,
		  "velocity": 80
		},
		{
		  "duration": 0.116279069767442,
		  "pitch": 74,
		  "start": 60.4651162790698,
		  "velocity": 80
		},
		{
		  "duration": 0.116279069767442,
		  "pitch": 70,
		  "start": 60.5813953488372,
		  "velocity": 80
		},
		{
		  "duration": 0.116279069767442,
		  "pitch": 74,
		  "start": 60.6976744186046,
		  "velocity": 80
		},
		{
		  "duration": 0.116279069767442,
		  "pitch": 70,
		  "start": 60.8139534883721,
		  "velocity": 80
		},
		{
		  "duration": 0.116279069767442,
		  "pitch": 65,
		  "start": 60.9302325581395,
		  "velocity": 80
		},
		{
		  "duration": 0.116279069767442,
		  "pitch": 70,
		  "start": 61.046511627907,
		  "velocity": 80
		},
		{
		  "duration": 0.116279069767442,
		  "pitch": 65,
		  "start": 61.1627906976744,
		  "velocity": 80
		},
		{
		  "duration": 0.116279069767442,
		  "pitch": 62,
		  "start": 61.2790697674419,
		  "velocity": 80
		},
		{
		  "duration": 0.116279069767442,
		  "pitch": 64,
		  "start": 117.209302325581,
		  "velocity": 80
		},
		{
		  "duration": 0.116279069767442,
		  "pitch": 69,
		  "start": 117.325581395349,
		  "velocity": 80
		},
		{
		  "duration": 0.116279069767442,
		  "pitch": 72,
		  "start": 117.441860465116,
		  "velocity": 80
		},
		{
		  "duration": 0.116279069767442,
		  "pitch": 76,
		  "start": 117.558139534884,
		  "velocity": 80
		},
		{
		  "duration": 0.116279069767442,
		  "pitch": 81,
		  "start": 117.674418604651,
		  "velocity": 80
		},
		{
		  "duration": 0.116279069767442,
		  "pitch": 84,
		  "start": 117.790697674419,
		  "velocity": 80
		},
		{
		  "duration": 0.116279069767442,
		  "pitch": 64,
		  "start": 117.906976744186,
		  "velocity": 80
		},
		{
		  "duration": 0.116279069767442,
		  "pitch": 67,
		  "start": 118.023255813953,
		  "velocity": 80
		},
		{
		  "duration": 0.116279069767442,
		  "pitch": 71,
		  "start": 118.139534883721,
		  "velocity": 80
		},
		{
		  "duration": 0.116279069767442,
		  "pitch": 76,
		  "start": 118.255813953488,
		  "velocity": 80
		},
		{
		  "duration": 0.116279069767442,
		  "pitch": 79,
		  "start": 118.372093023256,
		  "velocity": 80
		},
		{
		  "duration": 0.116279069767442,
		  "pitch": 83,
		  "start": 118.488372093023,
		  "velocity": 80
		},
		{
		  "duration": 0.116279069767442,
		  "pitch": 64,
		  "start": 118.604651162791,
		  "velocity": 80
		},
		{
		  "duration": 0.116279069767442,
		  "pitch": 67,
		  "start": 118.720930232558,
		  "velocity": 80
		},
		{
		  "duration": 0.116279069767442,
		  "pitch": 72,
		  "start": 118.837209302326,
		  "velocity": 80
		},
		{
		  "duration": 0.116279069767442,
		  "pitch": 76,
		  "start": 118.953488372093,
		  "velocity": 80
		},
		{
		  "duration": 0.116279069767442,
		  "pitch": 79,
		  "start": 119.06976744186,
		  "velocity": 80
		},
		{
		  "duration": 0.116279069767442,
		  "pitch": 84,
		  "start": 119.186046511628,
		  "velocity": 80
		},
		{
		  "duration": 0.116279069767442,
		  "pitch": 64,
		  "start": 119.302325581395,
		  "velocity": 80
		},
		{
		  "duration": 0.116279069767442,
		  "pitch": 67,
		  "start": 119.418604651163,
		  "velocity": 80
		},
		{
		  "duration": 0.116279069767442,
		  "pitch": 71,
		  "start": 119.53488372093,
		  "velocity": 80
		},
		{
		  "duration": 0.116279069767442,
		  "pitch": 76,
		  "start": 119.651162790698,
		  "velocity": 80
		},
		{
		  "duration": 0.116279069767442,
		  "pitch": 79,
		  "start": 119.767441860465,
		  "velocity": 80
		},
		{
		  "duration": 0.116279069767442,
		  "pitch": 83,
		  "start": 119.883720930233,
		  "velocity": 80
		},
		{
		  "duration": 0.116279069767442,
		  "pitch": 84,
		  "start": 120.0,
		  "velocity": 80
		},
		{
		  "duration": 0.116279069767442,
		  "pitch": 81,
		  "start": 120.116279069767,
		  "velocity": 80
		},
		{
		  "duration": 0.116279069767442,
		  "pitch": 77,
		  "start": 120.232558139535,
		  "velocity": 80
		},
		{
		  "duration": 0.116279069767442,
		  "pitch": 81,
		  "start": 120.348837209302,
		  "velocity": 80
		},
		{
		  "duration": 0.116279069767442,
		  "pitch": 77,
		  "start": 120.46511627907,
		  "velocity": 80
		},
		{
		  "duration": 0.116279069767442,
		  "pitch": 72,
		  "start": 120.581395348837,
		  "velocity": 80
		},
		{
		  "duration": 0.116279069767442,
		  "pitch": 77,
		  "start": 120.697674418605,
		  "velocity": 80
		},
		{
		  "duration": 0.116279069767442,
		  "pitch": 72,
		  "start": 120.813953488372,
		  "velocity": 80
		},
		{
		  "duration": 0.116279069767442,
		  "pitch": 69,
		  "start": 120.93023255814,
		  "velocity": 80
		},
		{
		  "duration": 0.116279069767442,
		  "pitch": 72,
		  "start": 121.046511627907,
		  "velocity": 80
		},
		{
		  "duration": 0.116279069767442,
		  "pitch": 69,
		  "start": 121.162790697674,
		  "velocity": 80
		},
		{
		  "duration": 0.116279069767442,
		  "pitch": 65,
		  "start": 121.279069767442,
		  "velocity": 80
		},
		{
		  "duration": 0.116279069767442,
		  "pitch": 81,
		  "start": 121.395348837209,
		  "velocity": 80
		},
		{
		  "duration": 0.116279069767442,
		  "pitch": 77,
		  "start": 121.511627906977,
		  "velocity": 80
		},
		{
		  "duration": 0.116279069767442,
		  "pitch": 74,
		  "start": 121.627906976744,
		  "velocity": 80
		},
		{
		  "duration": 0.116279069767442,
		  "pitch": 77,
		  "start": 121.744186046512,
		  "velocity": 80
		},
		{
		  "duration": 0.116279069767442,
		  "pitch": 74,
		  "start": 121.860465116279,
		  "velocity": 80
		},
		{
		  "duration": 0.116279069767442,
		  "pitch": 69,
		  "start": 121.976744186047,
		  "velocity": 80
		},
		{
		  "duration": 0.116279069767442,
		  "pitch": 74,
		  "start": 122.093023255814,
		  "velocity": 80
		},
		{
		  "duration": 0.116279069767442,
		  "pitch": 68,
		  "start": 122.209302325581,
		  "velocity": 80
		},
		{
		  "duration": 0.116279069767442,
		  "pitch": 65,
		  "start": 122.325581395349,
		  "velocity": 80
		},
		{
		  "duration": 0.116279069767442,
		  "pitch": 68,
		  "start": 122.441860465116,
		  "velocity": 80
		},
		{
		  "duration": 0.116279069767442,
		  "pitch": 65,
		  "start": 122.558139534884,
		  "velocity": 80
		},
		{
		  "duration": 0.116279069767442,
		  "pitch": 62,
		  "start": 122.674418604651,
		  "velocity": 80
		},
		{
		  "duration": 0.116279069767442,
		  "pitch": 48,
		  "start": 122.790697674419,
		  "velocity": 80
		},
		{
		  "duration": 0.116279069767442,
		  "pitch": 45,
		  "start": 122.906976744186,
		  "velocity": 80
		},
		{
		  "duration": 0.116279069767442,
		  "pitch": 48,
		  "start": 123.023255813953,
		  "velocity": 80
		},
		{
		  "duration": 0.116279069767442,
		  "pitch": 52,
		  "start": 123.139534883721,
		  "velocity": 80
		},
		{
		  "duration": 0.116279069767442,
		  "pitch": 57,
		  "start": 123.255813953488,
		  "velocity": 80
		},
		{
		  "duration": 0.116279069767442,
		  "pitch": 60,
		  "start": 123.372093023256,
		  "velocity": 80
		},
		{
		  "duration": 0.116279069767442,
		  "pitch": 64,
		  "start": 123.488372093023,
		  "velocity": 80
		},
		{
		  "duration": 0.116279069767442,
		  "pitch": 57,
		  "start": 123.604651162791,
		  "velocity": 80
		},
		{
		  "duration": 0.116279069767442,
		  "pitch": 64,
		  "start": 123.720930232558,
		  "velocity": 80
		},
		{
		  "duration": 0.116279069767442,
		  "pitch": 69,
		  "start": 123.837209302326,
		  "velocity": 80
		},
		{
		  "duration": 0.116279069767442,
		  "pitch": 72,
		  "start": 123.953488372093,
		  "velocity": 80
		},
		{
		  "duration": 0.116279069767442,
		  "pitch": 76,
		  "start": 124.06976744186,
		  "velocity": 80
		},
		{
		  "duration": 0.116279069767442,
		  "pitch": 72,
		  "start": 124.186046511628,
		  "velocity": 80
		},
		{
		  "duration": 0.116279069767442,
		  "pitch": 69,
		  "start": 124.302325581395,
		  "velocity": 80
		},
		{
		  "duration": 0.116279069767442,
		  "pitch": 72,
		  "start": 124.418604651163,
		  "velocity": 80
		},
		{
		  "duration": 0.116279069767442,
		  "pitch": 76,
		  "start": 124.53488372093,
		  "velocity": 80
		},
		{
		  "duration": 0.116279069767442,
		  "pitch": 81,
		  "start": 124.651162790698,
		  "velocity": 80
		},
		{
		  "duration": 0.116279069767442,
		  "pitch": 84,
		  "start": 124.767441860465,
		  "velocity": 80
		},
		{
		  "duration": 0.116279069767442,
		  "pitch": 81,
		  "start": 124.883720930233,
		  "velocity": 80
		},
		{
		  "duration": 0.116279069767442,
		  "pitch": 76,
		  "start": 125.0,
		  "velocity": 80
		},
		{
		  "duration": 0.116279069767442,
		  "pitch": 81,
		  "start": 125.116279069767,
		  "velocity": 80
		},
		{
		  "duration": 0.116279069767442,
		  "pitch": 84,
		  "start": 125.232558139535,
		  "velocity": 80
		},
		{
		  "duration": 0.116279069767442,
		  "pitch": 88,
		  "start": 125.354651162791,
		  "velocity": 80
		},
		{
		  "duration": 0.116279069767442,
		  "pitch": 93,
		  "start": 125.46511627907,
		  "velocity": 80
		},
		{
		  "duration": 0.116279069767442,
		  "pitch": 64,
		  "start": 125.581395348837,
		  "velocity": 80
		},
		{
		  "duration": 0.116279069767442,
		  "pitch": 69,
		  "start": 125.697674418605,
		  "velocity": 80
		},
		{
		  "duration": 0.116279069767442,
		  "pitch": 72,
		  "start": 125.813953488372,
		  "velocity": 80
		},
		{
		  "duration": 0.116279069767442,
		  "pitch": 76,
		  "start": 125.93023255814,
		  "velocity": 80
		},
		{
		  "duration": 0.116279069767442,
		  "pitch": 81,
		  "start": 126.046511627907,
		  "velocity": 80
		},
		{
		  "duration": 0.116279069767442,
		  "pitch": 84,
		  "start": 126.162790697674,
		  "velocity": 80
		},
		{
		  "duration": 0.116279069767442,
		  "pitch": 64,
		  "start": 126.279069767442,
		  "velocity": 80
		},
		{
		  "duration": 0.116279069767442,
		  "pitch": 67,
		  "start": 126.395348837209,
		  "velocity": 80
		},
		{
		  "duration": 0.116279069767442,
		  "pitch": 71,
		  "start": 126.511627906977,
		  "velocity": 80
		},
		{
		  "duration": 0.116279069767442,
		  "pitch": 76,
		  "start": 126.627906976744,
		  "velocity": 80
		},
		{
		  "duration": 0.116279069767442,
		  "pitch": 79,
		  "start": 126.744186046512,
		  "velocity": 80
		},
		{
		  "duration": 0.116279069767442,
		  "pitch": 83,
		  "start": 126.860465116279,
		  "velocity": 80
		},
		{
		  "duration": 0.116279069767442,
		  "pitch": 64,
		  "start": 126.976744186047,
		  "velocity": 80
		},
		{
		  "duration": 0.116279069767442,
		  "pitch": 67,
		  "start": 127.093023255814,
		  "velocity": 80
		},
		{
		  "duration": 0.116279069767442,
		  "pitch": 72,
		  "start": 127.209302325581,
		  "velocity": 80
		},
		{
		  "duration": 0.116279069767442,
		  "pitch": 76,
		  "start": 127.325581395349,
		  "velocity": 80
		},
		{
		  "duration": 0.116279069767442,
		  "pitch": 79,
		  "start": 127.441860465116,
		  "velocity": 80
		},
		{
		  "duration": 0.116279069767442,
		  "pitch": 84,
		  "start": 127.558139534884,
		  "velocity": 80
		},
		{
		  "duration": 0.116279069767442,
		  "pitch": 64,
		  "start": 127.674418604651,
		  "velocity": 80
		},
		{
		  "duration": 0.116279069767442,
		  "pitch": 67,
		  "start": 127.790697674419,
		  "velocity": 80
		},
		{
		  "duration": 0.116279069767442,
		  "pitch": 71,
		  "start": 127.906976744186,
		  "velocity": 80
		},
		{
		  "duration": 0.116279069767442,
		  "pitch": 76,
		  "start": 128.023255813953,
		  "velocity": 80
		},
		{
		  "duration": 0.116279069767442,
		  "pitch": 79,
		  "start": 128.139534883721,
		  "velocity": 80
		},
		{
		  "duration": 0.116279069767442,
		  "pitch": 83,
		  "start": 128.255813953488,
		  "velocity": 80
		},
		{
		  "duration": 0.116279069767442,
		  "pitch": 84,
		  "start": 128.372093023256,
		  "velocity": 80
		},
		{
		  "duration": 0.116279069767442,
		  "pitch": 81,
		  "start": 128.488372093023,
		  "velocity": 80
		},
		{
		  "duration": 0.116279069767442,
		  "pitch": 77,
		  "start": 128.604651162791,
		  "velocity": 80
		},
		{
		  "duration": 0.116279069767442,
		  "pitch": 81,
		  "start": 128.720930232558,
		  "velocity": 80
		},
		{
		  "duration": 0.116279069767442,
		  "pitch": 77,
		  "start": 128.837209302326,
		  "velocity": 80
		},
		{
		  "duration": 0.116279069767442,
		  "pitch": 72,
		  "start": 128.953488372093,
		  "velocity": 80
		},
		{
		  "duration": 0.116279069767442,
		  "pitch": 77,
		  "start": 129.06976744186,
		  "velocity": 80
		},
		{
		  "duration": 0.116279069767442,
		  "pitch": 72,
		  "start": 129.186046511628,
		  "velocity": 80
		},
		{
		  "duration": 0.116279069767442,
		  "pitch": 69,
		  "start": 129.302325581395,
		  "velocity": 80
		},
		{
		  "duration": 0.116279069767442,
		  "pitch": 72,
		  "start": 129.418604651163,
		  "velocity": 80
		},
		{
		  "duration": 0.116279069767442,
		  "pitch": 69,
		  "start": 129.53488372093,
		  "velocity": 80
		},
		{
		  "duration": 0.116279069767442,
		  "pitch": 65,
		  "start": 129.651162790698,
		  "velocity": 80
		},
		{
		  "duration": 0.116279069767442,
		  "pitch": 81,
		  "start": 129.767441860465,
		  "velocity": 80
		},
		{
		  "duration": 0.116279069767442,
		  "pitch": 77,
		  "start": 129.883720930233,
		  "velocity": 80
		},
		{
		  "duration": 0.116279069767442,
		  "pitch": 74,
		  "start": 130.0,
		  "velocity": 80
		},
		{
		  "duration": 0.116279069767442,
		  "pitch": 77,
		  "start": 130.116279069767,
		  "velocity": 80
		},
		{
		  "duration": 0.116279069767442,
		  "pitch": 74,
		  "start": 130.232558139535,
		  "velocity": 80
		},
		{
		  "duration": 0.116279069767442,
		  "pitch": 69,
		  "start": 130.348837209302,
		  "velocity": 80
		},
		{
		  "duration": 0.116279069767442,
		  "pitch": 74,
		  "start": 130.46511627907,
		  "velocity": 80
		},
		{
		  "duration": 0.116279069767442,
		  "pitch": 68,
		  "start": 130.581395348837,
		  "velocity": 80
		},
		{
		  "duration": 0.116279069767442,
		  "pitch": 65,
		  "start": 130.697674418605,
		  "velocity": 80
		},
		{
		  "duration": 0.116279069767442,
		  "pitch": 68,
		  "start": 130.813953488372,
		  "velocity": 80
		},
		{
		  "duration": 0.116279069767442,
		  "pitch": 65,
		  "start": 130.93023255814,
		  "velocity": 80
		},
		{
		  "duration": 0.116279069767442,
		  "pitch": 62,
		  "start": 131.046511627907,
		  "velocity": 80
		},
		{
		  "duration": 0.116279069767442,
		  "pitch": 48,
		  "start": 131.162790697674,
		  "velocity": 80
		},
		{
		  "duration": 0.116279069767442,
		  "pitch": 45,
		  "start": 131.279069767442,
		  "velocity": 80
		},
		{
		  "duration": 0.116279069767442,
		  "pitch": 48,
		  "start": 131.395348837209,
		  "velocity": 80
		},
		{
		  "duration": 0.116279069767442,
		  "pitch": 52,
		  "start": 131.511627906977,
		  "velocity": 80
		},
		{
		  "duration": 0.116279069767442,
		  "pitch": 57,
		  "start": 131.627906976744,
		  "velocity": 80
		},
		{
		  "duration": 0.116279069767442,
		  "pitch": 60,
		  "start": 131.744186046512,
		  "velocity": 80
		},
		{
		  "duration": 0.116279069767442,
		  "pitch": 64,
		  "start": 131.860465116279,
		  "velocity": 80
		},
		{
		  "duration": 0.116279069767442,
		  "pitch": 57,
		  "start": 131.976744186047,
		  "velocity": 80
		},
		{
		  "duration": 0.116279069767442,
		  "pitch": 64,
		  "start": 132.093023255814,
		  "velocity": 80
		},
		{
		  "duration": 0.116279069767442,
		  "pitch": 69,
		  "start": 132.209302325581,
		  "velocity": 80
		},
		{
		  "duration": 0.116279069767442,
		  "pitch": 72,
		  "start": 132.325581395349,
		  "velocity": 80
		},
		{
		  "duration": 0.116279069767442,
		  "pitch": 76,
		  "start": 132.441860465116,
		  "velocity": 80
		},
		{
		  "duration": 0.116279069767442,
		  "pitch": 72,
		  "start": 132.558139534884,
		  "velocity": 80
		},
		{
		  "duration": 0.116279069767442,
		  "pitch": 69,
		  "start": 132.674418604651,
		  "velocity": 80
		},
		{
		  "duration": 0.116279069767442,
		  "pitch": 72,
		  "start": 132.790697674419,
		  "velocity": 80
		},
		{
		  "duration": 0.116279069767442,
		  "pitch": 76,
		  "start": 132.906976744186,
		  "velocity": 80
		},
		{
		  "duration": 0.116279069767442,
		  "pitch": 81,
		  "start": 133.023255813953,
		  "velocity": 80
		},
		{
		  "duration": 0.116279069767442,
		  "pitch": 84,
		  "start": 133.139534883721,
		  "velocity": 80
		},
		{
		  "duration": 0.116279069767442,
		  "pitch": 81,
		  "start": 133.255813953488,
		  "velocity": 80
		},
		{
		  "duration": 0.116279069767442,
		  "pitch": 76,
		  "start": 133.372093023256,
		  "velocity": 80
		},
		{
		  "duration": 0.116279069767442,
		  "pitch": 81,
		  "start": 133.488372093023,
		  "velocity": 80
		},
		{
		  "duration": 0.116279069767442,
		  "pitch": 84,
		  "start": 133.604651162791,
		  "velocity": 80
		},
		{
		  "duration": 0.116279069767442,
		  "pitch": 88,
		  "start": 133.726744186047,
		  "velocity": 80
		},
		{
		  "duration": 0.116279069767442,
		  "pitch": 93,
		  "start": 133.837209302326,
		  "velocity": 80
		},
		{
		  "duration": 0.116279069767442,
		  "pitch": 55,
		  "start": 145.116279069767,
		  "velocity": 80
		},
		{
		  "duration": 0.116279069767442,
		  "pitch": 59,
		  "start": 145.232558139535,
		  "velocity": 80
		},
		{
		  "duration": 0.116279069767442,
		  "pitch": 62,
		  "start": 145.348837209302,
		  "velocity": 80
		},
		{
		  "duration": 0.116279069767442,
		  "pitch": 67,
		  "start": 145.46511627907,
		  "velocity": 80
		},
		{
		  "duration": 0.116279069767442,
		  "pitch": 62,
		  "start": 145.581395348837,
		  "velocity": 80
		},
		{
		  "duration": 0.116279069767442,
		  "pitch": 67,
		  "start": 145.697674418605,
		  "velocity": 80
		},
		{
		  "duration": 0.116279069767442,
		  "pitch": 71,
		  "start": 145.813953488372,
		  "velocity": 80
		},
		{
		  "duration": 0.116279069767442,
		  "pitch": 67,
		  "start": 145.93023255814,
		  "velocity": 80
		},
		{
		  "duration": 0.116279069767442,
		  "pitch": 71,
		  "start": 146.046511627907,
		  "velocity": 80
		},
		{
		  "duration": 0.116279069767442,
		  "pitch": 74,
		  "start": 146.162790697674,
		  "velocity": 80
		},
		{
		  "duration": 0.116279069767442,
		  "pitch": 71,
		  "start": 146.279069767442,
		  "velocity": 80
		},
		{
		  "duration": 0.116279069767442,
		  "pitch": 74,
		  "start": 146.395348837209,
		  "velocity": 80
		},
		{
		  "duration": 0.116279069767442,
		  "pitch": 79,
		  "start": 146.511627906977,
		  "velocity": 80
		},
		{
		  "duration": 0.116279069767442,
		  "pitch": 76,
		  "start": 146.627906976744,
		  "velocity": 80
		},
		{
		  "duration": 0.116279069767442,
		  "pitch": 72,
		  "start": 146.744186046512,
		  "velocity": 80
		},
		{
		  "duration": 0.116279069767442,
		  "pitch": 76,
		  "start": 146.860465116279,
		  "velocity": 80
		},
		{
		  "duration": 0.116279069767442,
		  "pitch": 72,
		  "start": 146.976744186047,
		  "velocity": 80
		},
		{
		  "duration": 0.116279069767442,
		  "pitch": 67,
		  "start": 147.093023255814,
		  "velocity": 80
		},
		{
		  "duration": 0.116279069767442,
		  "pitch": 72,
		  "start": 147.209302325581,
		  "velocity": 80
		},
		{
		  "duration": 0.116279069767442,
		  "pitch": 67,
		  "start": 147.325581395349,
		  "velocity": 80
		},
		{
		  "duration": 0.116279069767442,
		  "pitch": 64,
		  "start": 147.441860465116,
		  "velocity": 80
		},
		{
		  "duration": 0.116279069767442,
		  "pitch": 67,
		  "start": 147.558139534884,
		  "velocity": 80
		},
		{
		  "duration": 0.116279069767442,
		  "pitch": 64,
		  "start": 147.674418604651,
		  "velocity": 80
		},
		{
		  "duration": 0.116279069767442,
		  "pitch": 60,
		  "start": 147.790697674419,
		  "velocity": 80
		},
		{
		  "duration": 0.116279069767442,
		  "pitch": 55,
		  "start": 147.906976744186,
		  "velocity": 80
		},
		{
		  "duration": 0.116279069767442,
		  "pitch": 59,
		  "start": 148.023255813953,
		  "velocity": 80
		},
		{
		  "duration": 0.116279069767442,
		  "pitch": 62,
		  "start": 148.139534883721,
		  "velocity": 80
		},
		{
		  "duration": 0.116279069767442,
		  "pitch": 67,
		  "start": 148.255813953488,
		  "velocity": 80
		},
		{
		  "duration": 0.116279069767442,
		  "pitch": 62,
		  "start": 148.372093023256,
		  "velocity": 80
		},
		{
		  "duration": 0.116279069767442,
		  "pitch": 67,
		  "start": 148.488372093023,
		  "velocity": 80
		},
		{
		  "duration": 0.116279069767442,
		  "pitch": 71,
		  "start": 148.604651162791,
		  "velocity": 80
		},
		{
		  "duration": 0.116279069767442,
		  "pitch": 67,
		  "start": 148.720930232558,
		  "velocity": 80
		},
		{
		  "duration": 0.116279069767442,
		  "pitch": 71,
		  "start": 148.837209302326,
		  "velocity": 80
		},
		{
		  "duration": 0.116279069767442,
		  "pitch": 74,
		  "start": 148.953488372093,
		  "velocity": 80
		},
		{
		  "duration": 0.116279069767442,
		  "pitch": 71,
		  "start": 149.06976744186,
		  "velocity": 80
		},
		{
		  "duration": 0.116279069767442,
		  "pitch": 74,
		  "start": 149.186046511628,
		  "velocity": 80
		},
		{
		  "duration": 0.116279069767442,
		  "pitch": 79,
		  "start": 149.302325581395,
		  "velocity": 80
		},
		{
		  "duration": 0.116279069767442,
		  "pitch": 76,
		  "start": 149.418604651163,
		  "velocity": 80
		},
		{
		  "duration": 0.116279069767442,
		  "pitch": 72,
		  "start": 149.53488372093,
		  "velocity": 80
		},
		{
		  "duration": 0.116279069767442,
		  "pitch": 76,
		  "start": 149.651162790698,
		  "velocity": 80
		},
		{
		  "duration": 0.116279069767442,
		  "pitch": 72,
		  "start": 149.767441860465,
		  "velocity": 80
		},
		{
		  "duration": 0.116279069767442,
		  "pitch": 67,
		  "start": 149.883720930233,
		  "velocity": 80
		},
		{
		  "duration": 0.116279069767442,
		  "pitch": 72,
		  "start": 150.0,
		  "velocity": 80
		},
		{
		  "duration": 0.116279069767442,
		  "pitch": 67,
		  "start": 150.116279069767,
		  "velocity": 80
		},
		{
		  "duration": 0.116279069767442,
		  "pitch": 64,
		  "start": 150.232558139535,
		  "velocity": 80
		},
		{
		  "duration": 0.116279069767442,
		  "pitch": 67,
		  "start": 150.348837209302,
		  "velocity": 80
		},
		{
		  "duration": 0.116279069767442,
		  "pitch": 64,
		  "start": 150.46511627907,
		  "velocity": 80
		},
		{
		  "duration": 0.116279069767442,
		  "pitch": 60,
		  "start": 150.581395348837,
		  "velocity": 80
		},
		{
		  "duration": 0.116279069767442,
		  "pitch": 57,
		  "start": 150.697674418605,
		  "velocity": 80
		},
		{
		  "duration": 0.116279069767442,
		  "pitch": 60,
		  "start": 150.813953488372,
		  "velocity": 80
		},
		{
		  "duration": 0.116279069767442,
		  "pitch": 64,
		  "start": 150.93023255814,
		  "velocity": 80
		},
		{
		  "duration": 0.116279069767442,
		  "pitch": 69,
		  "start": 151.046511627907,
		  "velocity": 80
		},
		{
		  "duration": 0.116279069767442,
		  "pitch": 64,
		  "start": 151.162790697674,
		  "velocity": 80
		},
		{
		  "duration": 0.116279069767442,
		  "pitch": 69,
		  "start": 151.279069767442,
		  "velocity": 80
		},
		{
		  "duration": 0.116279069767442,
		  "pitch": 71,
		  "start": 151.395348837209,
		  "velocity": 80
		},
		{
		  "duration": 0.116279069767442,
		  "pitch": 69,
		  "start": 151.511627906977,
		  "velocity": 80
		},
		{
		  "duration": 0.116279069767442,
		  "pitch": 71,
		  "start": 151.627906976744,
		  "velocity": 80
		},
		{
		  "duration": 0.116279069767442,
		  "pitch": 76,
		  "start": 151.744186046512,
		  "velocity": 80
		},
		{
		  "duration": 0.116279069767442,
		  "pitch": 71,
		  "start": 151.860465116279,
		  "velocity": 80
		},
		{
		  "duration": 0.116279069767442,
		  "pitch": 76,
		  "start": 151.976744186047,
		  "velocity": 80
		},
		{
		  "duration": 0.116279069767442,
		  "pitch": 81,
		  "start": 152.093023255814,
		  "velocity": 80
		},
		{
		  "duration": 0.116279069767442,
		  "pitch": 77,
		  "start": 152.209302325581,
		  "velocity": 80
		},
		{
		  "duration": 0.116279069767442,
		  "pitch": 74,
		  "start": 152.325581395349,
		  "velocity": 80
		},
		{
		  "duration": 0.116279069767442,
		  "pitch": 77,
		  "start": 152.441860465116,
		  "velocity": 80
		},
		{
		  "duration": 0.116279069767442,
		  "pitch": 74,
		  "start": 152.558139534884,
		  "velocity": 80
		},
		{
		  "duration": 0.116279069767442,
		  "pitch": 69,
		  "start": 152.674418604651,
		  "velocity": 80
		},
		{
		  "duration": 0.116279069767442,
		  "pitch": 74,
		  "start": 152.790697674419,
		  "velocity": 80
		},
		{
		  "duration": 0.116279069767442,
		  "pitch": 69,
		  "start": 152.906976744186,
		  "velocity": 80
		},
		{
		  "duration": 0.116279069767442,
		  "pitch": 65,
		  "start": 153.023255813953,
		  "velocity": 80
		},
		{
		  "duration": 0.116279069767442,
		  "pitch": 69,
		  "start": 153.139534883721,
		  "velocity": 80
		},
		{
		  "duration": 0.116279069767442,
		  "pitch": 65,
		  "start": 153.255813953488,
		  "velocity": 80
		},
		{
		  "duration": 0.116279069767442,
		  "pitch": 62,
		  "start": 153.372093023256,
		  "velocity": 80
		},
		{
		  "duration": 0.116279069767442,
		  "pitch": 57,
		  "start": 153.488372093023,
		  "velocity": 80
		},
		{
		  "duration": 0.116279069767442,
		  "pitch": 60,
		  "start": 153.604651162791,
		  "velocity": 80
		},
		{
		  "duration": 0.116279069767442,
		  "pitch": 64,
		  "start": 153.720930232558,
		  "velocity": 80
		},
		{
		  "duration": 0.116279069767442,
		  "pitch": 69,
		  "start": 153.837209302326,
		  "velocity": 80
		},
		{
		  "duration": 0.116279069767442,
		  "pitch": 64,
		  "start": 153.953488372093,
		  "velocity": 80
		},
		{
		  "duration": 0.116279069767442,
		  "pitch": 69,
		  "start": 154.06976744186,
		  "velocity": 80
		},
		{
		  "duration": 0.116279069767442,
		  "pitch": 71,
		  "start": 154.186046511628,
		  "velocity": 80
		},
		{
		  "duration": 0.116279069767442,
		  "pitch": 69,
		  "start": 154.302325581395,
		  "velocity": 80
		},
		{
		  "duration": 0.116279069767442,
		  "pitch": 71,
		  "start": 154.418604651163,
		  "velocity": 80
		},
		{
		  "duration": 0.116279069767442,
		  "pitch": 76,
		  "start": 154.53488372093,
		  "velocity": 80
		},
		{
		  "duration": 0.116279069767442,
		  "pitch": 71,
		  "start": 154.651162790698,
		  "velocity": 80
		},
		{
		  "duration": 0.116279069767442,
		  "pitch": 76,
		  "start": 154.767441860465,
		  "velocity": 80
		},
		{
		  "duration": 0.116279069767442,
		  "pitch": 82,
		  "start": 154.883720930233,
		  "velocity": 80
		},
		{
		  "duration": 0.116279069767442,
		  "pitch": 77,
		  "start": 155.0,
		  "velocity": 80
		},
		{
		  "duration": 0.116279069767442,
		  "pitch": 74,
		  "start": 155.116279069767,
		  "velocity": 80
		},
		{
		  "duration": 0.116279069767442,
		  "pitch": 77,
		  "start": 155.232558139535,
		  "velocity": 80
		},
		{
		  "duration": 0.116279069767442,
		  "pitch": 74,
		  "start": 155.348837209302,
		  "velocity": 80
		},
		{
		  "duration": 0.116279069767442,
		  "pitch": 70,
		  "start": 155.46511627907,
		  "velocity": 80
		},
		{
		  "duration": 0.116279069767442,
		  "pitch": 74,
		  "start": 155.581395348837,
		  "velocity": 80
		},
		{
		  "duration": 0.116279069767442,
		  "pitch": 70,
		  "start": 155.697674418605,
		  "velocity": 80
		},
		{
		  "duration": 0.116279069767442,
		  "pitch": 65,
		  "start": 155.813953488372,
		  "velocity": 80
		},
		{
		  "duration": 0.116279069767442,
		  "pitch": 70,
		  "start": 155.93023255814,
		  "velocity": 80
		},
		{
		  "duration": 0.116279069767442,
		  "pitch": 65,
		  "start": 156.046511627907,
		  "velocity": 80
		},
		{
		  "duration": 0.116279069767442,
		  "pitch": 62,
		  "start": 156.162790697674,
		  "velocity": 80
		},
		{
		  "duration": 0.116279069767442,
		  "pitch": 64,
		  "start": 212.093023255814,
		  "velocity": 80
		},
		{
		  "duration": 0.116279069767442,
		  "pitch": 69,
		  "start": 212.209302325581,
		  "velocity": 80
		},
		{
		  "duration": 0.116279069767442,
		  "pitch": 72,
		  "start": 212.325581395349,
		  "velocity": 80
		},
		{
		  "duration": 0.116279069767442,
		  "pitch": 76,
		  "start": 212.441860465116,
		  "velocity": 80
		},
		{
		  "duration": 0.116279069767442,
		  "pitch": 81,
		  "start": 212.558139534884,
		  "velocity": 80
		},
		{
		  "duration": 0.116279069767442,
		  "pitch": 84,
		  "start": 212.674418604651,
		  "velocity": 80
		},
		{
		  "duration": 0.116279069767442,
		  "pitch": 64,
		  "start": 212.790697674419,
		  "velocity": 80
		},
		{
		  "duration": 0.116279069767442,
		  "pitch": 67,
		  "start": 212.906976744186,
		  "velocity": 80
		},
		{
		  "duration": 0.116279069767442,
		  "pitch": 71,
		  "start": 213.023255813953,
		  "velocity": 80
		},
		{
		  "duration": 0.116279069767442,
		  "pitch": 76,
		  "start": 213.139534883721,
		  "velocity": 80
		},
		{
		  "duration": 0.116279069767442,
		  "pitch": 79,
		  "start": 213.255813953488,
		  "velocity": 80
		},
		{
		  "duration": 0.116279069767442,
		  "pitch": 83,
		  "start": 213.372093023256,
		  "velocity": 80
		},
		{
		  "duration": 0.116279069767442,
		  "pitch": 64,
		  "start": 213.488372093023,
		  "velocity": 80
		},
		{
		  "duration": 0.116279069767442,
		  "pitch": 67,
		  "start": 213.604651162791,
		  "velocity": 80
		},
		{
		  "duration": 0.116279069767442,
		  "pitch": 72,
		  "start": 213.720930232558,
		  "velocity": 80
		},
		{
		  "duration": 0.116279069767442,
		  "pitch": 76,
		  "start": 213.837209302326,
		  "velocity": 80
		},
		{
		  "duration": 0.116279069767442,
		  "pitch": 79,
		  "start": 213.953488372093,
		  "velocity": 80
		},
		{
		  "duration": 0.116279069767442,
		  "pitch": 84,
		  "start": 214.06976744186,
		  "velocity": 80
		},
		{
		  "duration": 0.116279069767442,
		  "pitch": 64,
		  "start": 214.186046511628,
		  "velocity": 80
		},
		{
		  "duration": 0.116279069767442,
		  "pitch": 67,
		  "start": 214.302325581395,
		  "velocity": 80
		},
		{
		  "duration": 0.116279069767442,
		  "pitch": 71,
		  "start": 214.418604651163,
		  "velocity": 80
		},
		{
		  "duration": 0.116279069767442,
		  "pitch": 76,
		  "start": 214.53488372093,
		  "velocity": 80
		},
		{
		  "duration": 0.116279069767442,
		  "pitch": 79,
		  "start": 214.651162790698,
		  "velocity": 80
		},
		{
		  "duration": 0.116279069767442,
		  "pitch": 83,
		  "start": 214.767441860465,
		  "velocity": 80
		},
		{
		  "duration": 0.116279069767442,
		  "pitch": 84,
		  "start": 214.883720930233,
		  "velocity": 80
		},
		{
		  "duration": 0.116279069767442,
		  "pitch": 81,
		  "start": 215.0,
		  "velocity": 80
		},
		{
		  "duration": 0.116279069767442,
		  "pitch": 77,
		  "start": 215.116279069767,
		  "velocity": 80
		},
		{
		  "duration": 0.116279069767442,
		  "pitch": 81,
		  "start": 215.232558139535,
		  "velocity": 80
		},
		{
		  "duration": 0.116279069767442,
		  "pitch": 77,
		  "start": 215.348837209302,
		  "velocity": 80
		},
		{
		  "duration": 0.116279069767442,
		  "pitch": 72,
		  "start": 215.46511627907,
		  "velocity": 80
		},
		{
		  "duration": 0.116279069767442,
		  "pitch": 77,
		  "start": 215.581395348837,
		  "velocity": 80
		},
		{
		  "duration": 0.116279069767442,
		  "pitch": 72,
		  "start": 215.697674418605,
		  "velocity": 80
		},
		{
		  "duration": 0.116279069767442,
		  "pitch": 69,
		  "start": 215.813953488372,
		  "velocity": 80
		},
		{
		  "duration": 0.116279069767442,
		  "pitch": 72,
		  "start": 215.93023255814,
		  "velocity": 80
		},
		{
		  "duration": 0.116279069767442,
		  "pitch": 69,
		  "start": 216.046511627907,
		  "velocity": 80
		},
		{
		  "duration": 0.116279069767442,
		  "pitch": 65,
		  "start": 216.162790697674,
		  "velocity": 80
		},
		{
		  "duration": 0.116279069767442,
		  "pitch": 81,
		  "start": 216.279069767442,
		  "velocity": 80
		},
		{
		  "duration": 0.116279069767442,
		  "pitch": 77,
		  "start": 216.395348837209,
		  "velocity": 80
		},
		{
		  "duration": 0.116279069767442,
		  "pitch": 74,
		  "start": 216.511627906977,
		  "velocity": 80
		},
		{
		  "duration": 0.116279069767442,
		  "pitch": 77,
		  "start": 216.627906976744,
		  "velocity": 80
		},
		{
		  "duration": 0.116279069767442,
		  "pitch": 74,
		  "start": 216.744186046512,
		  "velocity": 80
		},
		{
		  "duration": 0.116279069767442,
		  "pitch": 69,
		  "start": 216.860465116279,
		  "velocity": 80
		},
		{
		  "duration": 0.116279069767442,
		  "pitch": 74,
		  "start": 216.976744186047,
		  "velocity": 80
		},
		{
		  "duration": 0.116279069767442,
		  "pitch": 68,
		  "start": 217.093023255814,
		  "velocity": 80
		},
		{
		  "duration": 0.116279069767442,
		  "pitch": 65,
		  "start": 217.209302325581,
		  "velocity": 80
		},
		{
		  "duration": 0.116279069767442,
		  "pitch": 68,
		  "start": 217.325581395349,
		  "velocity": 80
		},
		{
		  "duration": 0.116279069767442,
		  "pitch": 65,
		  "start": 217.441860465116,
		  "velocity": 80
		},
		{
		  "duration": 0.116279069767442,
		  "pitch": 62,
		  "start": 217.558139534884,
		  "velocity": 80
		},
		{
		  "duration": 0.116279069767442,
		  "pitch": 48,
		  "start": 217.674418604651,
		  "velocity": 80
		},
		{
		  "duration": 0.116279069767442,
		  "pitch": 45,
		  "start": 217.790697674419,
		  "velocity": 80
		},
		{
		  "duration": 0.116279069767442,
		  "pitch": 48,
		  "start": 217.906976744186,
		  "velocity": 80
		},
		{
		  "duration": 0.116279069767442,
		  "pitch": 52,
		  "start": 218.023255813953,
		  "velocity": 80
		},
		{
		  "duration": 0.116279069767442,
		  "pitch": 57,
		  "start": 218.139534883721,
		  "velocity": 80
		},
		{
		  "duration": 0.116279069767442,
		  "pitch": 60,
		  "start": 218.255813953488,
		  "velocity": 80
		},
		{
		  "duration": 0.116279069767442,
		  "pitch": 64,
		  "start": 218.372093023256,
		  "velocity": 80
		},
		{
		  "duration": 0.116279069767442,
		  "pitch": 57,
		  "start": 218.488372093023,
		  "velocity": 80
		},
		{
		  "duration": 0.116279069767442,
		  "pitch": 64,
		  "start": 218.604651162791,
		  "velocity": 80
		},
		{
		  "duration": 0.116279069767442,
		  "pitch": 69,
		  "start": 218.720930232558,
		  "velocity": 80
		},
		{
		  "duration": 0.116279069767442,
		  "pitch": 72,
		  "start": 218.837209302326,
		  "velocity": 80
		},
		{
		  "duration": 0.116279069767442,
		  "pitch": 76,
		  "start": 218.953488372093,
		  "velocity": 80
		},
		{
		  "duration": 0.116279069767442,
		  "pitch": 72,
		  "start": 219.06976744186,
		  "velocity": 80
		},
		{
		  "duration": 0.116279069767442,
		  "pitch": 69,
		  "start": 219.186046511628,
		  "velocity": 80
		},
		{
		  "duration": 0.116279069767442,
		  "pitch": 72,
		  "start": 219.302325581395,
		  "velocity": 80
		},
		{
		  "duration": 0.116279069767442,
		  "pitch": 76,
		  "start": 219.418604651163,
		  "velocity": 80
		},
		{
		  "duration": 0.116279069767442,
		  "pitch": 81,
		  "start": 219.53488372093,
		  "velocity": 80
		},
		{
		  "duration": 0.116279069767442,
		  "pitch": 84,
		  "start": 219.651162790698,
		  "velocity": 80
		},
		{
		  "duration": 0.116279069767442,
		  "pitch": 81,
		  "start": 219.767441860465,
		  "velocity": 80
		},
		{
		  "duration": 0.116279069767442,
		  "pitch": 76,
		  "start": 219.883720930233,
		  "velocity": 80
		},
		{
		  "duration": 0.116279069767442,
		  "pitch": 81,
		  "start": 220.0,
		  "velocity": 80
		},
		{
		  "duration": 0.116279069767442,
		  "pitch": 84,
		  "start": 220.116279069767,
		  "velocity": 80
		},
		{
		  "duration": 0.116279069767442,
		  "pitch": 88,
		  "start": 220.238372093023,
		  "velocity": 80
		},
		{
		  "duration": 0.116279069767442,
		  "pitch": 93,
		  "start": 220.348837209302,
		  "velocity": 80
		},
		{
		  "duration": 0.116279069767442,
		  "pitch": 64,
		  "start": 220.46511627907,
		  "velocity": 80
		},
		{
		  "duration": 0.116279069767442,
		  "pitch": 69,
		  "start": 220.581395348837,
		  "velocity": 80
		},
		{
		  "duration": 0.116279069767442,
		  "pitch": 72,
		  "start": 220.697674418605,
		  "velocity": 80
		},
		{
		  "duration": 0.116279069767442,
		  "pitch": 76,
		  "start": 220.813953488372,
		  "velocity": 80
		},
		{
		  "duration": 0.116279069767442,
		  "pitch": 81,
		  "start": 220.93023255814,
		  "velocity": 80
		},
		{
		  "duration": 0.116279069767442,
		  "pitch": 84,
		  "start": 221.046511627907,
		  "velocity": 80
		},
		{
		  "duration": 0.116279069767442,
		  "pitch": 64,
		  "start": 221.162790697674,
		  "velocity": 80
		},
		{
		  "duration": 0.116279069767442,
		  "pitch": 67,
		  "start": 221.279069767442,
		  "velocity": 80
		},
		{
		  "duration": 0.116279069767442,
		  "pitch": 71,
		  "start": 221.395348837209,
		  "velocity": 80
		},
		{
		  "duration": 0.116279069767442,
		  "pitch": 76,
		  "start": 221.511627906977,
		  "velocity": 80
		},
		{
		  "duration": 0.116279069767442,
		  "pitch": 79,
		  "start": 221.627906976744,
		  "velocity": 80
		},
		{
		  "duration": 0.116279069767442,
		  "pitch": 83,
		  "start": 221.744186046512,
		  "velocity": 80
		},
		{
		  "duration": 0.116279069767442,
		  "pitch": 64,
		  "start": 221.860465116279,
		  "velocity": 80
		},
		{
		  "duration": 0.116279069767442,
		  "pitch": 67,
		  "start": 221.976744186047,
		  "velocity": 80
		},
		{
		  "duration": 0.116279069767442,
		  "pitch": 72,
		  "start": 222.093023255814,
		  "velocity": 80
		},
		{
		  "duration": 0.116279069767442,
		  "pitch": 76,
		  "start": 222.209302325581,
		  "velocity": 80
		},
		{
		  "duration": 0.116279069767442,
		  "pitch": 79,
		  "start": 222.325581395349,
		  "velocity": 80
		},
		{
		  "duration": 0.116279069767442,
		  "pitch": 84,
		  "start": 222.441860465116,
		  "velocity": 80
		},
		{
		  "duration": 0.116279069767442,
		  "pitch": 64,
		  "start": 222.558139534884,
		  "velocity": 80
		},
		{
		  "duration": 0.116279069767442,
		  "pitch": 67,
		  "start": 222.674418604651,
		  "velocity": 80
		},
		{
		  "duration": 0.116279069767442,
		  "pitch": 71,
		  "start": 222.790697674419,
		  "velocity": 80
		},
		{
		  "duration": 0.116279069767442,
		  "pitch": 76,
		  "start": 222.906976744186,
		  "velocity": 80
		},
		{
		  "duration": 0.116279069767442,
		  "pitch": 79,
		  "start": 223.023255813953,
		  "velocity": 80
		},
		{
		  "duration": 0.116279069767442,
		  "pitch": 83,
		  "start": 223.139534883721,
		  "velocity": 80
		},
		{
		  "duration": 0.116279069767442,
		  "pitch": 84,
		  "start": 223.255813953488,
		  "velocity": 80
		},
		{
		  "duration": 0.116279069767442,
		  "pitch": 81,
		  "start": 223.372093023256,
		  "velocity": 80
		},
		{
		  "duration": 0.116279069767442,
		  "pitch": 77,
		  "start": 223.488372093023,
		  "velocity": 80
		},
		{
		  "duration": 0.116279069767442,
		  "pitch": 81,
		  "start": 223.604651162791,
		  "velocity": 80
		},
		{
		  "duration": 0.116279069767442,
		  "pitch": 77,
		  "start": 223.720930232558,
		  "velocity": 80
		},
		{
		  "duration": 0.116279069767442,
		  "pitch": 72,
		  "start": 223.837209302326,
		  "velocity": 80
		},
		{
		  "duration": 0.116279069767442,
		  "pitch": 77,
		  "start": 223.953488372093,
		  "velocity": 80
		},
		{
		  "duration": 0.116279069767442,
		  "pitch": 72,
		  "start": 224.06976744186,
		  "velocity": 80
		},
		{
		  "duration": 0.116279069767442,
		  "pitch": 69,
		  "start": 224.186046511628,
		  "velocity": 80
		},
		{
		  "duration": 0.116279069767442,
		  "pitch": 72,
		  "start": 224.302325581395,
		  "velocity": 80
		},
		{
		  "duration": 0.116279069767442,
		  "pitch": 69,
		  "start": 224.418604651163,
		  "velocity": 80
		},
		{
		  "duration": 0.116279069767442,
		  "pitch": 65,
		  "start": 224.53488372093,
		  "velocity": 80
		},
		{
		  "duration": 0.116279069767442,
		  "pitch": 81,
		  "start": 224.651162790698,
		  "velocity": 80
		},
		{
		  "duration": 0.116279069767442,
		  "pitch": 77,
		  "start": 224.767441860465,
		  "velocity": 80
		},
		{
		  "duration": 0.116279069767442,
		  "pitch": 74,
		  "start": 224.883720930233,
		  "velocity": 80
		},
		{
		  "duration": 0.116279069767442,
		  "pitch": 77,
		  "start": 225.0,
		  "velocity": 80
		},
		{
		  "duration": 0.116279069767442,
		  "pitch": 74,
		  "start": 225.116279069767,
		  "velocity": 80
		},
		{
		  "duration": 0.116279069767442,
		  "pitch": 69,
		  "start": 225.232558139535,
		  "velocity": 80
		},
		{
		  "duration": 0.116279069767442,
		  "pitch": 74,
		  "start": 225.348837209302,
		  "velocity": 80
		},
		{
		  "duration": 0.116279069767442,
		  "pitch": 68,
		  "start": 225.46511627907,
		  "velocity": 80
		},
		{
		  "duration": 0.116279069767442,
		  "pitch": 65,
		  "start": 225.581395348837,
		  "velocity": 80
		},
		{
		  "duration": 0.116279069767442,
		  "pitch": 68,
		  "start": 225.697674418605,
		  "velocity": 80
		},
		{
		  "duration": 0.116279069767442,
		  "pitch": 65,
		  "start": 225.813953488372,
		  "velocity": 80
		},
		{
		  "duration": 0.116279069767442,
		  "pitch": 62,
		  "start": 225.93023255814,
		  "velocity": 80
		},
		{
		  "duration": 0.116279069767442,
		  "pitch": 48,
		  "start": 226.046511627907,
		  "velocity": 80
		},
		{
		  "duration": 0.116279069767442,
		  "pitch": 45,
		  "start": 226.162790697674,
		  "velocity": 80
		},
		{
		  "duration": 0.116279069767442,
		  "pitch": 48,
		  "start": 226.279069767442,
		  "velocity": 80
		},
		{
		  "duration": 0.116279069767442,
		  "pitch": 52,
		  "start": 226.395348837209,
		  "velocity": 80
		},
		{
		  "duration": 0.116279069767442,
		  "pitch": 57,
		  "start": 226.511627906977,
		  "velocity": 80
		},
		{
		  "duration": 0.116279069767442,
		  "pitch": 60,
		  "start": 226.627906976744,
		  "velocity": 80
		},
		{
		  "duration": 0.116279069767442,
		  "pitch": 64,
		  "start": 226.744186046512,
		  "velocity": 80
		},
		{
		  "duration": 0.116279069767442,
		  "pitch": 57,
		  "start": 226.860465116279,
		  "velocity": 80
		},
		{
		  "duration": 0.116279069767442,
		  "pitch": 64,
		  "start": 226.976744186047,
		  "velocity": 80
		},
		{
		  "duration": 0.116279069767442,
		  "pitch": 69,
		  "start": 227.093023255814,
		  "velocity": 80
		},
		{
		  "duration": 0.116279069767442,
		  "pitch": 72,
		  "start": 227.209302325581,
		  "velocity": 80
		},
		{
		  "duration": 0.116279069767442,
		  "pitch": 76,
		  "start": 227.325581395349,
		  "velocity": 80
		},
		{
		  "duration": 0.116279069767442,
		  "pitch": 72,
		  "start": 227.441860465116,
		  "velocity": 80
		},
		{
		  "duration": 0.116279069767442,
		  "pitch": 69,
		  "start": 227.558139534884,
		  "velocity": 80
		},
		{
		  "duration": 0.116279069767442,
		  "pitch": 72,
		  "start": 227.674418604651,
		  "velocity": 80
		},
		{
		  "duration": 0.116279069767442,
		  "pitch": 76,
		  "start": 227.790697674419,
		  "velocity": 80
		},
		{
		  "duration": 0.116279069767442,
		  "pitch": 81,
		  "start": 227.906976744186,
		  "velocity": 80
		},
		{
		  "duration": 0.116279069767442,
		  "pitch": 84,
		  "start": 228.023255813953,
		  "velocity": 80
		},
		{
		  "duration": 0.116279069767442,
		  "pitch": 81,
		  "start": 228.139534883721,
		  "velocity": 80
		},
		{
		  "duration": 0.116279069767442,
		  "pitch": 76,
		  "start": 228.255813953488,
		  "velocity": 80
		},
		{
		  "duration": 0.116279069767442,
		  "pitch": 81,
		  "start": 228.372093023256,
		  "velocity": 80
		},
		{
		  "duration": 0.116279069767442,
		  "pitch": 84,
		  "start": 228.488372093023,
		  "velocity": 80
		},
		{
		  "duration": 0.116279069767442,
		  "pitch": 88,
		  "start": 228.610465116279,
		  "velocity": 80
		},
		{
		  "duration": 0.116279069767442,
		  "pitch": 93,
		  "start": 228.720930232558,
		  "velocity": 80
		},
		{
		  "duration": 0.116279069767442,
		  "pitch": 55,
		  "start": 240.0,
		  "velocity": 80
		},
		{
		  "duration": 0.116279069767442,
		  "pitch": 59,
		  "start": 240.116279069767,
		  "velocity": 80
		},
		{
		  "duration": 0.116279069767442,
		  "pitch": 62,
		  "start": 240.232558139535,
		  "velocity": 80
		},
		{
		  "duration": 0.116279069767442,
		  "pitch": 67,
		  "start": 240.348837209302,
		  "velocity": 80
		},
		{
		  "duration": 0.116279069767442,
		  "pitch": 62,
		  "start": 240.46511627907,
		  "velocity": 80
		},
		{
		  "duration": 0.116279069767442,
		  "pitch": 67,
		  "start": 240.581395348837,
		  "velocity": 80
		},
		{
		  "duration": 0.116279069767442,
		  "pitch": 71,
		  "start": 240.697674418605,
		  "velocity": 80
		},
		{
		  "duration": 0.116279069767442,
		  "pitch": 67,
		  "start": 240.813953488372,
		  "velocity": 80
		},
		{
		  "duration": 0.116279069767442,
		  "pitch": 71,
		  "start": 240.93023255814,
		  "velocity": 80
		},
		{
		  "duration": 0.116279069767442,
		  "pitch": 74,
		  "start": 241.046511627907,
		  "velocity": 80
		},
		{
		  "duration": 0.116279069767442,
		  "pitch": 71,
		  "start": 241.162790697674,
		  "velocity": 80
		},
		{
		  "duration": 0.116279069767442,
		  "pitch": 74,
		  "start": 241.279069767442,
		  "velocity": 80
		},
		{
		  "duration": 0.116279069767442,
		  "pitch": 79,
		  "start": 241.395348837209,
		  "velocity": 80
		},
		{
		  "duration": 0.116279069767442,
		  "pitch": 76,
		  "start": 241.511627906977,
		  "velocity": 80
		},
		{
		  "duration": 0.116279069767442,
		  "pitch": 72,
		  "start": 241.627906976744,
		  "velocity": 80
		},
		{
		  "duration": 0.116279069767442,
		  "pitch": 76,
		  "start": 241.744186046512,
		  "velocity": 80
		},
		{
		  "duration": 0.116279069767442,
		  "pitch": 72,
		  "start": 241.860465116279,
		  "velocity": 80
		},
		{
		  "duration": 0.116279069767442,
		  "pitch": 67,
		  "start": 241.976744186047,
		  "velocity": 80
		},
		{
		  "duration": 0.116279069767442,
		  "pitch": 72,
		  "start": 242.093023255814,
		  "velocity": 80
		},
		{
		  "duration": 0.116279069767442,
		  "pitch": 67,
		  "start": 242.209302325581,
		  "velocity": 80
		},
		{
		  "duration": 0.116279069767442,
		  "pitch": 64,
		  "start": 242.325581395349,
		  "velocity": 80
		},
		{
		  "duration": 0.116279069767442,
		  "pitch": 67,
		  "start": 242.441860465116,
		  "velocity": 80
		},
		{
		  "duration": 0.116279069767442,
		  "pitch": 64,
		  "start": 242.558139534884,
		  "velocity": 80
		},
		{
		  "duration": 0.116279069767442,
		  "pitch": 60,
		  "start": 242.674418604651,
		  "velocity": 80
		},
		{
		  "duration": 0.116279069767442,
		  "pitch": 55,
		  "start": 242.790697674419,
		  "velocity": 80
		},
		{
		  "duration": 0.116279069767442,
		  "pitch": 59,
		  "start": 242.906976744186,
		  "velocity": 80
		},
		{
		  "duration": 0.116279069767442,
		  "pitch": 62,
		  "start": 243.023255813953,
		  "velocity": 80
		},
		{
		  "duration": 0.116279069767442,
		  "pitch": 67,
		  "start": 243.139534883721,
		  "velocity": 80
		},
		{
		  "duration": 0.116279069767442,
		  "pitch": 62,
		  "start": 243.255813953488,
		  "velocity": 80
		},
		{
		  "duration": 0.116279069767442,
		  "pitch": 67,
		  "start": 243.372093023256,
		  "velocity": 80
		},
		{
		  "duration": 0.116279069767442,
		  "pitch": 71,
		  "start": 243.488372093023,
		  "velocity": 80
		},
		{
		  "duration": 0.116279069767442,
		  "pitch": 67,
		  "start": 243.604651162791,
		  "velocity": 80
		},
		{
		  "duration": 0.116279069767442,
		  "pitch": 71,
		  "start": 243.720930232558,
		  "velocity": 80
		},
		{
		  "duration": 0.116279069767442,
		  "pitch": 74,
		  "start": 243.837209302326,
		  "velocity": 80
		},
		{
		  "duration": 0.116279069767442,
		  "pitch": 71,
		  "start": 243.953488372093,
		  "velocity": 80
		},
		{
		  "duration": 0.116279069767442,
		  "pitch": 74,
		  "start": 244.06976744186,
		  "velocity": 80
		},
		{
		  "duration": 0.116279069767442,
		  "pitch": 79,
		  "start": 244.186046511628,
		  "velocity": 80
		},
		{
		  "duration": 0.116279069767442,
		  "pitch": 76,
		  "start": 244.302325581395,
		  "velocity": 80
		},
		{
		  "duration": 0.116279069767442,
		  "pitch": 72,
		  "start": 244.418604651163,
		  "velocity": 80
		},
		{
		  "duration": 0.116279069767442,
		  "pitch": 76,
		  "start": 244.53488372093,
		  "velocity": 80
		},
		{
		  "duration": 0.116279069767442,
		  "pitch": 72,
		  "start": 244.651162790698,
		  "velocity": 80
		},
		{
		  "duration": 0.116279069767442,
		  "pitch": 67,
		  "start": 244.767441860465,
		  "velocity": 80
		},
		{
		  "duration": 0.116279069767442,
		  "pitch": 72,
		  "start": 244.883720930233,
		  "velocity": 80
		},
		{
		  "duration": 0.116279069767442,
		  "pitch": 67,
		  "start": 245.0,
		  "velocity": 80
		},
		{
		  "duration": 0.116279069767442,
		  "pitch": 64,
		  "start": 245.116279069767,
		  "velocity": 80
		},
		{
		  "duration": 0.116279069767442,
		  "pitch": 67,
		  "start": 245.232558139535,
		  "velocity": 80
		},
		{
		  "duration": 0.116279069767442,
		  "pitch": 64,
		  "start": 245.348837209302,
		  "velocity": 80
		},
		{
		  "duration": 0.116279069767442,
		  "pitch": 60,
		  "start": 245.46511627907,
		  "velocity": 80
		},
		{
		  "duration": 0.116279069767442,
		  "pitch": 57,
		  "start": 245.581395348837,
		  "velocity": 80
		},
		{
		  "duration": 0.116279069767442,
		  "pitch": 60,
		  "start": 245.697674418605,
		  "velocity": 80
		},
		{
		  "duration": 0.116279069767442,
		  "pitch": 64,
		  "start": 245.813953488372,
		  "velocity": 80
		},
		{
		  "duration": 0.116279069767442,
		  "pitch": 69,
		  "start": 245.93023255814,
		  "velocity": 80
		},
		{
		  "duration": 0.116279069767442,
		  "pitch": 64,
		  "start": 246.046511627907,
		  "velocity": 80
		},
		{
		  "duration": 0.116279069767442,
		  "pitch": 69,
		  "start": 246.162790697674,
		  "velocity": 80
		},
		{
		  "duration": 0.116279069767442,
		  "pitch": 71,
		  "start": 246.279069767442,
		  "velocity": 80
		},
		{
		  "duration": 0.116279069767442,
		  "pitch": 69,
		  "start": 246.395348837209,
		  "velocity": 80
		},
		{
		  "duration": 0.116279069767442,
		  "pitch": 71,
		  "start": 246.511627906977,
		  "velocity": 80
		},
		{
		  "duration": 0.116279069767442,
		  "pitch": 76,
		  "start": 246.627906976744,
		  "velocity": 80
		},
		{
		  "duration": 0.116279069767442,
		  "pitch": 71,
		  "start": 246.744186046512,
		  "velocity": 80
		},
		{
		  "duration": 0.116279069767442,
		  "pitch": 76,
		  "start": 246.860465116279,
		  "velocity": 80
		},
		{
		  "duration": 0.116279069767442,
		  "pitch": 81,
		  "start": 246.976744186047,
		  "velocity": 80
		},
		{
		  "duration": 0.116279069767442,
		  "pitch": 77,
		  "start": 247.093023255814,
		  "velocity": 80
		},
		{
		  "duration": 0.116279069767442,
		  "pitch": 74,
		  "start": 247.209302325581,
		  "velocity": 80
		},
		{
		  "duration": 0.116279069767442,
		  "pitch": 77,
		  "start": 247.325581395349,
		  "velocity": 80
		},
		{
		  "duration": 0.116279069767442,
		  "pitch": 74,
		  "start": 247.441860465116,
		  "velocity": 80
		},
		{
		  "duration": 0.116279069767442,
		  "pitch": 69,
		  "start": 247.558139534884,
		  "velocity": 80
		},
		{
		  "duration": 0.116279069767442,
		  "pitch": 74,
		  "start": 247.674418604651,
		  "velocity": 80
		},
		{
		  "duration": 0.116279069767442,
		  "pitch": 69,
		  "start": 247.790697674419,
		  "velocity": 80
		},
		{
		  "duration": 0.116279069767442,
		  "pitch": 65,
		  "start": 247.906976744186,
		  "velocity": 80
		},
		{
		  "duration": 0.116279069767442,
		  "pitch": 69,
		  "start": 248.023255813953,
		  "velocity": 80
		},
		{
		  "duration": 0.116279069767442,
		  "pitch": 65,
		  "start": 248.139534883721,
		  "velocity": 80
		},
		{
		  "duration": 0.116279069767442,
		  "pitch": 62,
		  "start": 248.255813953488,
		  "velocity": 80
		},
		{
		  "duration": 0.116279069767442,
		  "pitch": 57,
		  "start": 248.372093023256,
		  "velocity": 80
		},
		{
		  "duration": 0.116279069767442,
		  "pitch": 60,
		  "start": 248.488372093023,
		  "velocity": 80
		},
		{
		  "duration": 0.116279069767442,
		  "pitch": 64,
		  "start": 248.604651162791,
		  "velocity": 80
		},
		{
		  "duration": 0.116279069767442,
		  "pitch": 69,
		  "start": 248.720930232558,
		  "velocity": 80
		},
		{
		  "duration": 0.116279069767442,
		  "pitch": 64,
		  "start": 248.837209302326,
		  "velocity": 80
		},
		{
		  "duration": 0.116279069767442,
		  "pitch": 69,
		  "start": 248.953488372093,
		  "velocity": 80
		},
		{
		  "duration": 0.116279069767442,
		  "pitch": 71,
		  "start": 249.06976744186,
		  "velocity": 80
		},
		{
		  "duration": 0.116279069767442,
		  "pitch": 69,
		  "start": 249.186046511628,
		  "velocity": 80
		},
		{
		  "duration": 0.116279069767442,
		  "pitch": 71,
		  "start": 249.302325581395,
		  "velocity": 80
		},
		{
		  "duration": 0.116279069767442,
		  "pitch": 76,
		  "start": 249.418604651163,
		  "velocity": 80
		},
		{
		  "duration": 0.116279069767442,
		  "pitch": 71,
		  "start": 249.53488372093,
		  "velocity": 80
		},
		{
		  "duration": 0.116279069767442,
		  "pitch": 76,
		  "start": 249.651162790698,
		  "velocity": 80
		},
		{
		  "duration": 0.116279069767442,
		  "pitch": 82,
		  "start": 249.767441860465,
		  "velocity": 80
		},
		{
		  "duration": 0.116279069767442,
		  "pitch": 77,
		  "start": 249.883720930233,
		  "velocity": 80
		},
		{
		  "duration": 0.116279069767442,
		  "pitch": 74,
		  "start": 250.0,
		  "velocity": 80
		},
		{
		  "duration": 0.116279069767442,
		  "pitch": 77,
		  "start": 250.116279069767,
		  "velocity": 80
		},
		{
		  "duration": 0.116279069767442,
		  "pitch": 74,
		  "start": 250.232558139535,
		  "velocity": 80
		},
		{
		  "duration": 0.116279069767442,
		  "pitch": 70,
		  "start": 250.348837209302,
		  "velocity": 80
		},
		{
		  "duration": 0.116279069767442,
		  "pitch": 74,
		  "start": 250.46511627907,
		  "velocity": 80
		},
		{
		  "duration": 0.116279069767442,
		  "pitch": 70,
		  "start": 250.581395348837,
		  "velocity": 80
		},
		{
		  "duration": 0.116279069767442,
		  "pitch": 65,
		  "start": 250.697674418605,
		  "velocity": 80
		},
		{
		  "duration": 0.116279069767442,
		  "pitch": 70,
		  "start": 250.813953488372,
		  "velocity": 80
		},
		{
		  "duration": 0.116279069767442,
		  "pitch": 65,
		  "start": 250.93023255814,
		  "velocity": 80
		},
		{
		  "duration": 0.116279069767442,
		  "pitch": 62,
		  "start": 251.046511627907,
		  "velocity": 80
		}
	  ]
	},
	{
	  "cc_events": [
		{
		  "controller": 7,
		  "time": 0.0,
		  "value": 100
		},
		{
		  "controller": 10,
		  "time": 0.0,
		  "value": 0
		},
		{
		  "controller": 10,
		  "time": 94.8837209302326,
		  "value": 0
		},
		{
		  "controller": 10,
		  "time": 189.767441860465,
		  "value": 0
		},
		{
		  "controller": 10,
		  "time": 284.651162790698,
		  "value": 0
		}
	  ],
	  "channel": 6,
	  "instrument": 79,
	  "name": "Synth",
	  "notes": [
		{
		  "duration": 0.116279069767442,
		  "pitch": 74,
		  "start": 61.3953488372093,
		  "velocity": 80
		},
		{
		  "duration": 0.116279069767442,
		  "pitch": 74,
		  "start": 61.6279069767442,
		  "velocity": 80
		},
		{
		  "duration": 0.697674418604651,
		  "pitch": 81,
		  "start": 61.7441860465116,
		  "velocity": 80
		},
		{
		  "duration": 0.116279069767442,
		  "pitch": 79,
		  "start": 62.4418604651163,
		  "velocity": 80
		},
		{
		  "duration": 0.116279069767442,
		  "pitch": 81,
		  "start": 62.5581395348837,
		  "velocity": 80
		},
		{
		  "duration": 0.116279069767442,
		  "pitch": 82,
		  "start": 62.6744186046512,
		  "velocity": 80
		},
		{
		  "duration": 0.348837209302326,
		  "pitch": 81,
		  "start": 62.7906976744186,
		  "velocity": 80
		},
		{
		  "duration": 0.348837209302326,
		  "pitch": 77,
		  "start": 63.1395348837209,
		  "velocity": 80
		},
		{
		  "duration": 0.348837209302326,
		  "pitch": 79,
		  "start": 63.4883720930233,
		  "velocity": 80
		},
		{
		  "duration": 0.116279069767442,
		  "pitch": 77,
		  "start": 63.8372093023256,
		  "velocity": 80
		},
		{
		  "duration": 0.116279069767442,
		  "pitch": 76,
		  "start": 63.953488372093,
		  "velocity": 80
		},
		{
		  "duration": 0.116279069767442,
		  "pitch": 74,
		  "start": 64.0697674418605,
		  "velocity": 80
		},
		{
		  "duration": 0.116279069767442,
		  "pitch": 76,
		  "start": 64.1860465116279,
		  "velocity": 80
		},
		{
		  "duration": 0.116279069767442,
		  "pitch": 72,
		  "start": 64.4186046511628,
		  "velocity": 80
		},
		{
		  "duration": 0.697674418604651,
		  "pitch": 74,
		  "start": 64.5348837209302,
		  "velocity": 80
		},
		{
		  "duration": 0.116279069767442,
		  "pitch": 72,
		  "start": 65.2325581395349,
		  "velocity": 80
		},
		{
		  "duration": 0.116279069767442,
		  "pitch": 74,
		  "start": 65.3488372093023,
		  "velocity": 80
		},
		{
		  "duration": 0.116279069767442,
		  "pitch": 76,
		  "start": 65.4651162790698,
		  "velocity": 80
		},
		{
		  "duration": 1.3953488372093,
		  "pitch": 74,
		  "start": 65.5813953488372,
		  "velocity": 80
		},
		{
		  "duration": 0.116279069767442,
		  "pitch": 69,
		  "start": 66.9767441860465,
		  "velocity": 80
		},
		{
		  "duration": 0.116279069767442,
		  "pitch": 69,
		  "start": 67.2093023255814,
		  "velocity": 80
		},
		{
		  "duration": 0.697674418604651,
		  "pitch": 76,
		  "start": 67.3255813953488,
		  "velocity": 80
		},
		{
		  "duration": 0.116279069767442,
		  "pitch": 74,
		  "start": 68.0232558139535,
		  "velocity": 80
		},
		{
		  "duration": 0.116279069767442,
		  "pitch": 76,
		  "start": 68.1395348837209,
		  "velocity": 80
		},
		{
		  "duration": 0.116279069767442,
		  "pitch": 77,
		  "start": 68.2558139534884,
		  "velocity": 80
		},
		{
		  "duration": 0.348837209302326,
		  "pitch": 76,
		  "start": 68.3720930232558,
		  "velocity": 80
		},
		{
		  "duration": 0.348837209302326,
		  "pitch": 72,
		  "start": 68.7209302325581,
		  "velocity": 80
		},
		{
		  "duration": 0.348837209302326,
		  "pitch": 74,
		  "start": 69.0697674418605,
		  "velocity": 80
		},
		{
		  "duration": 0.116279069767442,
		  "pitch": 72,
		  "start": 69.4186046511628,
		  "velocity": 80
		},
		{
		  "duration": 0.116279069767442,
		  "pitch": 71,
		  "start": 69.5348837209302,
		  "velocity": 80
		},
		{
		  "duration": 0.116279069767442,
		  "pitch": 69,
		  "start": 69.6511627906977,
		  "velocity": 80
		},
		{
		  "duration": 0.116279069767442,
		  "pitch": 71,
		  "start": 69.7674418604651,
		  "velocity": 80
		},
		{
		  "duration": 0.116279069767442,
		  "pitch": 67,
		  "start": 70.0,
		  "velocity": 80
		},
		{
		  "duration": 0.697674418604651,
		  "pitch": 69,
		  "start": 70.1162790697674,
		  "velocity": 80
		},
		{
		  "duration": 0.116279069767442,
		  "pitch": 67,
		  "start": 70.8139534883721,
		  "velocity": 80
		},
		{
		  "duration": 0.116279069767442,
		  "pitch": 69,
		  "start": 70.9302325581395,
		  "velocity": 80
		},
		{
		  "duration": 0.116279069767442,
		  "pitch": 71,
		  "start": 71.046511627907,
		  "velocity": 80
		},
		{
		  "duration": 1.3953488372093,
		  "pitch": 69,
		  "start": 71.1627906976744,
		  "velocity": 80
		},
		{
		  "duration": 0.116279069767442,
		  "pitch": 74,
		  "start": 72.5581395348837,
		  "velocity": 80
		},
		{
		  "duration": 0.116279069767442,
		  "pitch": 74,
		  "start": 72.7906976744186,
		  "velocity": 80
		},
		{
		  "duration": 0.697674418604651,
		  "pitch": 81,
		  "start": 72.9069767441861,
		  "velocity": 80
		},
		{
		  "duration": 0.116279069767442,
		  "pitch": 79,
		  "start": 73.6046511627907,
		  "velocity": 80
		},
		{
		  "duration": 0.116279069767442,
		  "pitch": 81,
		  "start": 73.7209302325581,
		  "velocity": 80
		},
		{
		  "duration": 0.116279069767442,
		  "pitch": 82,
		  "start": 73.8372093023256,
		  "velocity": 80
		},
		{
		  "duration": 0.348837209302326,
		  "pitch": 81,
		  "start": 73.953488372093,
		  "velocity": 80
		},
		{
		  "duration": 0.348837209302326,
		  "pitch": 77,
		  "start": 74.3023255813954,
		  "velocity": 80
		},
		{
		  "duration": 0.348837209302326,
		  "pitch": 79,
		  "start": 74.6511627906977,
		  "velocity": 80
		},
		{
		  "duration": 0.116279069767442,
		  "pitch": 77,
		  "start": 75.0,
		  "velocity": 80
		},
		{
		  "duration": 0.116279069767442,
		  "pitch": 76,
		  "start": 75.1162790697674,
		  "velocity": 80
		},
		{
		  "duration": 0.116279069767442,
		  "pitch": 74,
		  "start": 75.2325581395349,
		  "velocity": 80
		},
		{
		  "duration": 0.116279069767442,
		  "pitch": 76,
		  "start": 75.3488372093023,
		  "velocity": 80
		},
		{
		  "duration": 0.116279069767442,
		  "pitch": 72,
		  "start": 75.5813953488372,
		  "velocity": 80
		},
		{
		  "duration": 0.697674418604651,
		  "pitch": 74,
		  "start": 75.6976744186046,
		  "velocity": 80
		},
		{
		  "duration": 0.116279069767442,
		  "pitch": 72,
		  "start": 76.3953488372093,
		  "velocity": 80
		},
		{
		  "duration": 0.116279069767442,
		  "pitch": 74,
		  "start": 76.5116279069767,
		  "velocity": 80
		},
		{
		  "duration": 0.116279069767442,
		  "pitch": 76,
		  "start": 76.6279069767442,
		  "velocity": 80
		},
		{
		  "duration": 1.3953488372093,
		  "pitch": 74,
		  "start": 76.7441860465116,
		  "velocity": 80
		},
		{
		  "duration": 0.116279069767442,
		  "pitch": 69,
		  "start": 78.1395348837209,
		  "velocity": 80
		},
		{
		  "duration": 0.116279069767442,
		  "pitch": 69,
		  "start": 78.3720930232558,
		  "velocity": 80
		},
		{
		  "duration": 0.697674418604651,
		  "pitch": 76,
		  "start": 78.4883720930233,
		  "velocity": 80
		},
		{
		  "duration": 0.116279069767442,
		  "pitch": 74,
		  "start": 79.1860465116279,
		  "velocity": 80
		},
		{
		  "duration": 0.116279069767442,
		  "pitch": 76,
		  "start": 79.3023255813954,
		  "velocity": 80
		},
		{
		  "duration": 0.116279069767442,
		  "pitch": 77,
		  "start": 79.4186046511628,
		  "velocity": 80
		},
		{
		  "duration": 0.348837209302326,
		  "pitch": 76,
		  "start": 79.5348837209302,
		  "velocity": 80
		},
		{
		  "duration": 0.348837209302326,
		  "pitch": 72,
		  "start": 79.8837209302326,
		  "velocity": 80
		},
		{
		  "duration": 0.348837209302326,
		  "pitch": 74,
		  "start": 80.2325581395349,
		  "velocity": 80
		},
		{
		  "duration": 0.116279069767442,
		  "pitch": 72,
		  "start": 80.5813953488372,
		  "velocity": 80
		},
		{
		  "duration": 0.116279069767442,
		  "pitch": 71,
		  "start": 80.6976744186046,
		  "velocity": 80
		},
		{
		  "duration": 0.116279069767442,
		  "pitch": 69,
		  "start": 80.8139534883721,
		  "velocity": 80
		},
		{
		  "duration": 0.116279069767442,
		  "pitch": 71,
		  "start": 80.9302325581395,
		  "velocity": 80
		},
		{
		  "duration": 0.116279069767442,
		  "pitch": 67,
		  "start": 81.1627906976744,
		  "velocity": 80
		},
		{
		  "duration": 0.697674418604651,
		  "pitch": 69,
		  "start": 81.2790697674419,
		  "velocity": 80
		},
		{
		  "duration": 0.116279069767442,
		  "pitch": 67,
		  "start": 81.9767441860465,
		  "velocity": 80
		},
		{
		  "duration": 0.116279069767442,
		  "pitch": 69,
		  "start": 82.0930232558139,
		  "velocity": 80
		},
		{
		  "duration": 0.116279069767442,
		  "pitch": 71,
		  "start": 82.2093023255814,
		  "velocity": 80
		},
		{
		  "duration": 1.3953488372093,
		  "pitch": 69,
		  "start": 82.3255813953488,
		  "velocity": 80
		},
		{
		  "duration": 0.116279069767442,
		  "pitch": 74,
		  "start": 83.7209302325581,
		  "velocity": 80
		},
		{
		  "duration": 0.116279069767442,
		  "pitch": 74,
		  "start": 83.953488372093,
		  "velocity": 80
		},
		{
		  "duration": 0.697674418604651,
		  "pitch": 81,
		  "start": 84.0697674418605,
		  "velocity": 80
		},
		{
		  "duration": 0.116279069767442,
		  "pitch": 79,
		  "start": 84.7674418604651,
		  "velocity": 80
		},
		{
		  "duration": 0.116279069767442,
		  "pitch": 81,
		  "start": 84.8837209302326,
		  "velocity": 80
		},
		{
		  "duration": 0.116279069767442,
		  "pitch": 82,
		  "start": 85.0,
		  "velocity": 80
		},
		{
		  "duration": 0.348837209302326,
		  "pitch": 81,
		  "start": 85.1162790697674,
		  "velocity": 80
		},
		{
		  "duration": 0.348837209302326,
		  "pitch": 77,
		  "start": 85.4651162790698,
		  "velocity": 80
		},
		{
		  "duration": 0.348837209302326,
		  "pitch": 79,
		  "start": 85.8139534883721,
		  "velocity": 80
		},
		{
		  "duration": 0.116279069767442,
		  "pitch": 77,
		  "start": 86.1627906976744,
		  "velocity": 80
		},
		{
		  "duration": 0.116279069767442,
		  "pitch": 76,
		  "start": 86.2790697674419,
		  "velocity": 80
		},
		{
		  "duration": 0.116279069767442,
		  "pitch": 74,
		  "start": 86.3953488372093,
		  "velocity": 80
		},
		{
		  "duration": 0.116279069767442,
		  "pitch": 76,
		  "start": 86.5116279069767,
		  "velocity": 80
		},
		{
		  "duration": 0.116279069767442,
		  "pitch": 72,
		  "start": 86.7441860465116,
		  "velocity": 80
		},
		{
		  "duration": 0.697674418604651,
		  "pitch": 74,
		  "start": 86.8604651162791,
		  "velocity": 80
		},
		{
		  "duration": 0.116279069767442,
		  "pitch": 72,
		  "start": 87.5581395348837,
		  "velocity": 80
		},
		{
		  "duration": 0.116279069767442,
		  "pitch": 74,
		  "start": 87.6744186046512,
		  "velocity": 80
		},
		{
		  "duration": 0.116279069767442,
		  "pitch": 76,
		  "start": 87.7906976744186,
		  "velocity": 80
		},
		{
		  "duration": 1.3953488372093,
		  "pitch": 74,
		  "start": 87.9069767441861,
		  "velocity": 80
		},
		{
		  "duration": 0.116279069767442,
		  "pitch": 69,
		  "start": 89.3023255813954,
		  "velocity": 80
		},
		{
		  "duration": 0.116279069767442,
		  "pitch": 69,
		  "start": 89.5348837209302,
		  "velocity": 80
		},
		{
		  "duration": 0.697674418604651,
		  "pitch": 76,
		  "start": 89.6511627906977,
		  "velocity": 80
		},
		{
		  "duration": 0.116279069767442,
		  "pitch": 74,
		  "start": 90.3488372093023,
		  "velocity": 80
		},
		{
		  "duration": 0.116279069767442,
		  "pitch": 76,
		  "start": 90.4651162790698,
		  "velocity": 80
		},
		{
		  "duration": 0.116279069767442,
		  "pitch": 77,
		  "start": 90.5813953488372,
		  "velocity": 80
		},
		{
		  "duration": 0.348837209302326,
		  "pitch": 76,
		  "start": 90.6976744186046,
		  "velocity": 80
		},
		{
		  "duration": 0.348837209302326,
		  "pitch": 72,
		  "start": 91.046511627907,
		  "velocity": 80
		},
		{
		  "duration": 0.348837209302326,
		  "pitch": 74,
		  "start": 91.3953488372093,
		  "velocity": 80
		},
		{
		  "duration": 0.116279069767442,
		  "pitch": 72,
		  "start": 91.7441860465116,
		  "velocity": 80
		},
		{
		  "duration": 0.116279069767442,
		  "pitch": 71,
		  "start": 91.8604651162791,
		  "velocity": 80
		},
		{
		  "duration": 0.116279069767442,
		  "pitch": 69,
		  "start": 91.9767441860465,
		  "velocity": 80
		},
		{
		  "duration": 0.116279069767442,
		  "pitch": 67,
		  "start": 92.0930232558139,
		  "velocity": 80
		},
		{
		  "duration": 0.116279069767442,
		  "pitch": 72,
		  "start": 92.2093023255814,
		  "velocity": 80
		},
		{
		  "duration": 0.116279069767442,
		  "pitch": 76,
		  "start": 92.3255813953488,
		  "velocity": 80
		},
		{
		  "duration": 0.116279069767442,
		  "pitch": 79,
		  "start": 92.4418604651163,
		  "velocity": 80
		},
		{
		  "duration": 0.116279069767442,
		  "pitch": 84,
		  "start": 92.5581395348837,
		  "velocity": 80
		},
		{
		  "duration": 0.116279069767442,
		  "pitch": 88,
		  "start": 92.6744186046512,
		  "velocity": 80
		},
		{
		  "duration": 0.116279069767442,
		  "pitch": 90,
		  "start": 92.7906976744186,
		  "velocity": 80
		},
		{
		  "duration": 0.116279069767442,
		  "pitch": 86,
		  "start": 92.9069767441861,
		  "velocity": 80
		},
		{
		  "duration": 0.116279069767442,
		  "pitch": 81,
		  "start": 93.0232558139535,
		  "velocity": 80
		},
		{
		  "duration": 0.116279069767442,
		  "pitch": 78,
		  "start": 93.1395348837209,
		  "velocity": 80
		},
		{
		  "duration": 0.116279069767442,
		  "pitch": 74,
		  "start": 93.2558139534884,
		  "velocity": 80
		},
		{
		  "duration": 0.116279069767442,
		  "pitch": 69,
		  "start": 93.3720930232558,
		  "velocity": 80
		},
		{
		  "duration": 0.116279069767442,
		  "pitch": 69,
		  "start": 93.4883720930233,
		  "velocity": 80
		},
		{
		  "duration": 0.116279069767442,
		  "pitch": 72,
		  "start": 93.6046511627907,
		  "velocity": 80
		},
		{
		  "duration": 0.116279069767442,
		  "pitch": 76,
		  "start": 93.7209302325581,
		  "velocity": 80
		},
		{
		  "duration": 0.116279069767442,
		  "pitch": 81,
		  "start": 93.8372093023256,
		  "velocity": 80
		},
		{
		  "duration": 0.116279069767442,
		  "pitch": 84,
		  "start": 93.953488372093,
		  "velocity": 80
		},
		{
		  "duration": 0.116279069767442,
		  "pitch": 88,
		  "start": 94.0697674418605,
		  "velocity": 80
		},
		{
		  "duration": 0.116279069767442,
		  "pitch": 92,
		  "start": 94.1860465116279,
		  "velocity": 80
		},
		{
		  "duration": 0.116279069767442,
		  "pitch": 88,
		  "start": 94.3023255813954,
		  "velocity": 80
		},
		{
		  "duration": 0.116279069767442,
		  "pitch": 84,
		  "start": 94.4186046511628,
		  "velocity": 80
		},
		{
		  "duration": 0.116279069767442,
		  "pitch": 80,
		  "start": 94.5348837209302,
		  "velocity": 80
		},
		{
		  "duration": 0.116279069767442,
		  "pitch": 76,
		  "start": 94.6511627906977,
		  "velocity": 80
		},
		{
		  "duration": 0.116279069767442,
		  "pitch": 72,
		  "start": 94.7674418604651,
		  "velocity": 80
		},
		{
		  "duration": 0.116279069767442,
		  "pitch": 69,
		  "start": 94.8837209302326,
		  "velocity": 80
		},
		{
		  "duration": 0.116279069767442,
		  "pitch": 72,
		  "start": 95.0,
		  "velocity": 80
		},
		{
		  "duration": 0.116279069767442,
		  "pitch": 76,
		  "start": 95.1162790697674,
		  "velocity": 80
		},
		{
		  "duration": 0.116279069767442,
		  "pitch": 81,
		  "start": 95.2325581395349,
		  "velocity": 80
		},
		{
		  "duration": 0.116279069767442,
		  "pitch": 84,
		  "start": 95.3488372093023,
		  "velocity": 80
		},
		{
		  "duration": 0.116279069767442,
		  "pitch": 88,
		  "start": 95.4651162790698,
		  "velocity": 80
		},
		{
		  "duration": 0.116279069767442,
		  "pitch": 93,
		  "start": 95.5813953488372,
		  "velocity": 80
		},
		{
		  "duration": 0.116279069767442,
		  "pitch": 88,
		  "start": 95.6976744186046,
		  "velocity": 80
		},
		{
		  "duration": 0.116279069767442,
		  "pitch": 84,
		  "start": 95.8139534883721,
		  "velocity": 80
		},
		{
		  "duration": 0.116279069767442,
		  "pitch": 81,
		  "start": 95.9302325581395,
		  "velocity": 80
		},
		{
		  "duration": 0.116279069767442,
		  "pitch": 76,
		  "start": 96.046511627907,
		  "velocity": 80
		},
		{
		  "duration": 0.116279069767442,
		  "pitch": 72,
		  "start": 96.1627906976744,
		  "velocity": 80
		},
		{
		  "duration": 0.116279069767442,
		  "pitch": 69,
		  "start": 96.2790697674419,
		  "velocity": 80
		},
		{
		  "duration": 0.116279069767442,
		  "pitch": 72,
		  "start": 96.3953488372093,
		  "velocity": 80
		},
		{
		  "duration": 0.116279069767442,
		  "pitch": 76,
		  "start": 96.5116279069767,
		  "velocity": 80
		},
		{
		  "duration": 0.116279069767442,
		  "pitch": 81,
		  "start": 96.6279069767442,
		  "velocity": 80
		},
		{
		  "duration": 0.116279069767442,
		  "pitch": 76,
		  "start": 96.7441860465116,
		  "velocity": 70
		},
		{
		  "duration": 0.116279069767442,
		  "pitch": 72,
		  "start": 96.8604651162791,
		  "velocity": 60
		},
		{
		  "duration": 0.116279069767442,
		  "pitch": 69,
		  "start": 96.9767441860465,
		  "velocity": 50
		},
		{
		  "duration": 0.116279069767442,
		  "pitch": 74,
		  "start": 156.279069767442,
		  "velocity": 80
		},
		{
		  "duration": 0.116279069767442,
		  "pitch": 74,
		  "start": 156.511627906977,
		  "velocity": 80
		},
		{
		  "duration": 0.697674418604651,
		  "pitch": 81,
		  "start": 156.627906976744,
		  "velocity": 80
		},
		{
		  "duration": 0.116279069767442,
		  "pitch": 79,
		  "start": 157.325581395349,
		  "velocity": 80
		},
		{
		  "duration": 0.116279069767442,
		  "pitch": 81,
		  "start": 157.441860465116,
		  "velocity": 80
		},
		{
		  "duration": 0.116279069767442,
		  "pitch": 82,
		  "start": 157.558139534884,
		  "velocity": 80
		},
		{
		  "duration": 0.348837209302326,
		  "pitch": 81,
		  "start": 157.674418604651,
		  "velocity": 80
		},
		{
		  "duration": 0.348837209302326,
		  "pitch": 77,
		  "start": 158.023255813953,
		  "velocity": 80
		},
		{
		  "duration": 0.348837209302326,
		  "pitch": 79,
		  "start": 158.372093023256,
		  "velocity": 80
		},
		{
		  "duration": 0.116279069767442,
		  "pitch": 77,
		  "start": 158.720930232558,
		  "velocity": 80
		},
		{
		  "duration": 0.116279069767442,
		  "pitch": 76,
		  "start": 158.837209302326,
		  "velocity": 80
		},
		{
		  "duration": 0.116279069767442,
		  "pitch": 74,
		  "start": 158.953488372093,
		  "velocity": 80
		},
		{
		  "duration": 0.116279069767442,
		  "pitch": 76,
		  "start": 159.06976744186,
		  "velocity": 80
		},
		{
		  "duration": 0.116279069767442,
		  "pitch": 72,
		  "start": 159.302325581395,
		  "velocity": 80
		},
		{
		  "duration": 0.697674418604651,
		  "pitch": 74,
		  "start": 159.418604651163,
		  "velocity": 80
		},
		{
		  "duration": 0.116279069767442,
		  "pitch": 72,
		  "start": 160.116279069767,
		  "velocity": 80
		},
		{
		  "duration": 0.116279069767442,
		  "pitch": 74,
		  "start": 160.232558139535,
		  "velocity": 80
		},
		{
		  "duration": 0.116279069767442,
		  "pitch": 76,
		  "start": 160.348837209302,
		  "velocity": 80
		},
		{
		  "duration": 1.3953488372093,
		  "pitch": 74,
		  "start": 160.46511627907,
		  "velocity": 80
		},
		{
		  "duration": 0.116279069767442,
		  "pitch": 69,
		  "start": 161.860465116279,
		  "velocity": 80
		},
		{
		  "duration": 0.116279069767442,
		  "pitch": 69,
		  "start": 162.093023255814,
		  "velocity": 80
		},
		{
		  "duration": 0.697674418604651,
		  "pitch": 76,
		  "start": 162.209302325581,
		  "velocity": 80
		},
		{
		  "duration": 0.116279069767442,
		  "pitch": 74,
		  "start": 162.906976744186,
		  "velocity": 80
		},
		{
		  "duration": 0.116279069767442,
		  "pitch": 76,
		  "start": 163.023255813953,
		  "velocity": 80
		},
		{
		  "duration": 0.116279069767442,
		  "pitch": 77,
		  "start": 163.139534883721,
		  "velocity": 80
		},
		{
		  "duration": 0.348837209302326,
		  "pitch": 76,
		  "start": 163.255813953488,
		  "velocity": 80
		},
		{
		  "duration": 0.348837209302326,
		  "pitch": 72,
		  "start": 163.604651162791,
		  "velocity": 80
		},
		{
		  "duration": 0.348837209302326,
		  "pitch": 74,
		  "start": 163.953488372093,
		  "velocity": 80
		},
		{
		  "duration": 0.116279069767442,
		  "pitch": 72,
		  "start": 164.302325581395,
		  "velocity": 80
		},
		{
		  "duration": 0.116279069767442,
		  "pitch": 71,
		  "start": 164.418604651163,
		  "velocity": 80
		},
		{
		  "duration": 0.116279069767442,
		  "pitch": 69,
		  "start": 164.53488372093,
		  "velocity": 80
		},
		{
		  "duration": 0.116279069767442,
		  "pitch": 71,
		  "start": 164.651162790698,
		  "velocity": 80
		},
		{
		  "duration": 0.116279069767442,
		  "pitch": 67,
		  "start": 164.883720930233,
		  "velocity": 80
		},
		{
		  "duration": 0.697674418604651,
		  "pitch": 69,
		  "start": 165.0,
		  "velocity": 80
		},
		{
		  "duration": 0.116279069767442,
		  "pitch": 67,
		  "start": 165.697674418605,
		  "velocity": 80
		},
		{
		  "duration": 0.116279069767442,
		  "pitch": 69,
		  "start": 165.813953488372,
		  "velocity": 80
		},
		{
		  "duration": 0.116279069767442,
		  "pitch": 71,
		  "start": 165.93023255814,
		  "velocity": 80
		},
		{
		  "duration": 1.3953488372093,
		  "pitch": 69,
		  "start": 166.046511627907,
		  "velocity": 80
		},
		{
		  "duration": 0.116279069767442,
		  "pitch": 74,
		  "start": 167.441860465116,
		  "velocity": 80
		},
		{
		  "duration": 0.116279069767442,
		  "pitch": 74,
		  "start": 167.674418604651,
		  "velocity": 80
		},
		{
		  "duration": 0.697674418604651,
		  "pitch": 81,
		  "start": 167.790697674419,
		  "velocity": 80
		},
		{
		  "duration": 0.116279069767442,
		  "pitch": 79,
		  "start": 168.488372093023,
		  "velocity": 80
		},
		{
		  "duration": 0.116279069767442,
		  "pitch": 81,
		  "start": 168.604651162791,
		  "velocity": 80
		},
		{
		  "duration": 0.116279069767442,
		  "pitch": 82,
		  "start": 168.720930232558,
		  "velocity": 80
		},
		{
		  "duration": 0.348837209302326,
		  "pitch": 81,
		  "start": 168.837209302326,
		  "velocity": 80
		},
		{
		  "duration": 0.348837209302326,
		  "pitch": 77,
		  "start": 169.186046511628,
		  "velocity": 80
		},
		{
		  "duration": 0.348837209302326,
		  "pitch": 79,
		  "start": 169.53488372093,
		  "velocity": 80
		},
		{
		  "duration": 0.116279069767442,
		  "pitch": 77,
		  "start": 169.883720930233,
		  "velocity": 80
		},
		{
		  "duration": 0.116279069767442,
		  "pitch": 76,
		  "start": 170.0,
		  "velocity": 80
		},
		{
		  "duration": 0.116279069767442,
		  "pitch": 74,
		  "start": 170.116279069767,
		  "velocity": 80
		},
		{
		  "duration": 0.116279069767442,
		  "pitch": 76,
		  "start": 170.232558139535,
		  "velocity": 80
		},
		{
		  "duration": 0.116279069767442,
		  "pitch": 72,
		  "start": 170.46511627907,
		  "velocity": 80
		},
		{
		  "duration": 0.697674418604651,
		  "pitch": 74,
		  "start": 170.581395348837,
		  "velocity": 80
		},
		{
		  "duration": 0.116279069767442,
		  "pitch": 72,
		  "start": 171.279069767442,
		  "velocity": 80
		},
		{
		  "duration": 0.116279069767442,
		  "pitch": 74,
		  "start": 171.395348837209,
		  "velocity": 80
		},
		{
		  "duration": 0.116279069767442,
		  "pitch": 76,
		  "start": 171.511627906977,
		  "velocity": 80
		},
		{
		  "duration": 1.3953488372093,
		  "pitch": 74,
		  "start": 171.627906976744,
		  "velocity": 80
		},
		{
		  "duration": 0.116279069767442,
		  "pitch": 69,
		  "start": 173.023255813953,
		  "velocity": 80
		},
		{
		  "duration": 0.116279069767442,
		  "pitch": 69,
		  "start": 173.255813953488,
		  "velocity": 80
		},
		{
		  "duration": 0.697674418604651,
		  "pitch": 76,
		  "start": 173.372093023256,
		  "velocity": 80
		},
		{
		  "duration": 0.116279069767442,
		  "pitch": 74,
		  "start": 174.06976744186,
		  "velocity": 80
		},
		{
		  "duration": 0.116279069767442,
		  "pitch": 76,
		  "start": 174.186046511628,
		  "velocity": 80
		},
		{
		  "duration": 0.116279069767442,
		  "pitch": 77,
		  "start": 174.302325581395,
		  "velocity": 80
		},
		{
		  "duration": 0.348837209302326,
		  "pitch": 76,
		  "start": 174.418604651163,
		  "velocity": 80
		},
		{
		  "duration": 0.348837209302326,
		  "pitch": 72,
		  "start": 174.767441860465,
		  "velocity": 80
		},
		{
		  "duration": 0.348837209302326,
		  "pitch": 74,
		  "start": 175.116279069767,
		  "velocity": 80
		},
		{
		  "duration": 0.116279069767442,
		  "pitch": 72,
		  "start": 175.46511627907,
		  "velocity": 80
		},
		{
		  "duration": 0.116279069767442,
		  "pitch": 71,
		  "start": 175.581395348837,
		  "velocity": 80
		},
		{
		  "duration": 0.116279069767442,
		  "pitch": 69,
		  "start": 175.697674418605,
		  "velocity": 80
		},
		{
		  "duration": 0.116279069767442,
		  "pitch": 71,
		  "start": 175.813953488372,
		  "velocity": 80
		},
		{
		  "duration": 0.116279069767442,
		  "pitch": 67,
		  "start": 176.046511627907,
		  "velocity": 80
		},
		{
		  "duration": 0.697674418604651,
		  "pitch": 69,
		  "start": 176.162790697674,
		  "velocity": 80
		},
		{
		  "duration": 0.116279069767442,
		  "pitch": 67,
		  "start": 176.860465116279,
		  "velocity": 80
		},
		{
		  "duration": 0.116279069767442,
		  "pitch": 69,
		  "start": 176.976744186047,
		  "velocity": 80
		},
		{
		  "duration": 0.116279069767442,
		  "pitch": 71,
		  "start": 177.093023255814,
		  "velocity": 80
		},
		{
		  "duration": 1.3953488372093,
		  "pitch": 69,
		  "start": 177.209302325581,
		  "velocity": 80
		},
		{
		  "duration": 0.116279069767442,
		  "pitch": 74,
		  "start": 178.604651162791,
		  "velocity": 80
		},
		{
		  "duration": 0.116279069767442,
		  "pitch": 74,
		  "start": 178.837209302326,
		  "velocity": 80
		},
		{
		  "duration": 0.697674418604651,
		  "pitch": 81,
		  "start": 178.953488372093,
		  "velocity": 80
		},
		{
		  "duration": 0.116279069767442,
		  "pitch": 79,
		  "start": 179.651162790698,
		  "velocity": 80
		},
		{
		  "duration": 0.116279069767442,
		  "pitch": 81,
		  "start": 179.767441860465,
		  "velocity": 80
		},
		{
		  "duration": 0.116279069767442,
		  "pitch": 82,
		  "start": 179.883720930233,
		  "velocity": 80
		},
		{
		  "duration": 0.348837209302326,
		  "pitch": 81,
		  "start": 180.0,
		  "velocity": 80
		},
		{
		  "duration": 0.348837209302326,
		  "pitch": 77,
		  "start": 180.348837209302,
		  "velocity": 80
		},
		{
		  "duration": 0.348837209302326,
		  "pitch": 79,
		  "start": 180.697674418605,
		  "velocity": 80
		},
		{
		  "duration": 0.116279069767442,
		  "pitch": 77,
		  "start": 181.046511627907,
		  "velocity": 80
		},
		{
		  "duration": 0.116279069767442,
		  "pitch": 76,
		  "start": 181.162790697674,
		  "velocity": 80
		},
		{
		  "duration": 0.116279069767442,
		  "pitch": 74,
		  "start": 181.279069767442,
		  "velocity": 80
		},
		{
		  "duration": 0.116279069767442,
		  "pitch": 76,
		  "start": 181.395348837209,
		  "velocity": 80
		},
		{
		  "duration": 0.116279069767442,
		  "pitch": 72,
		  "start": 181.627906976744,
		  "velocity": 80
		},
		{
		  "duration": 0.697674418604651,
		  "pitch": 74,
		  "start": 181.744186046512,
		  "velocity": 80
		},
		{
		  "duration": 0.116279069767442,
		  "pitch": 72,
		  "start": 182.441860465116,
		  "velocity": 80
		},
		{
		  "duration": 0.116279069767442,
		  "pitch": 74,
		  "start": 182.558139534884,
		  "velocity": 80
		},
		{
		  "duration": 0.116279069767442,
		  "pitch": 76,
		  "start": 182.674418604651,
		  "velocity": 80
		},
		{
		  "duration": 1.3953488372093,
		  "pitch": 74,
		  "start": 182.790697674419,
		  "velocity": 80
		},
		{
		  "duration": 0.116279069767442,
		  "pitch": 69,
		  "start": 184.186046511628,
		  "velocity": 80
		},
		{
		  "duration": 0.116279069767442,
		  "pitch": 69,
		  "start": 184.418604651163,
		  "velocity": 80
		},
		{
		  "duration": 0.697674418604651,
		  "pitch": 76,
		  "start": 184.53488372093,
		  "velocity": 80
		},
		{
		  "duration": 0.116279069767442,
		  "pitch": 74,
		  "start": 185.232558139535,
		  "velocity": 80
		},
		{
		  "duration": 0.116279069767442,
		  "pitch": 76,
		  "start": 185.348837209302,
		  "velocity": 80
		},
		{
		  "duration": 0.116279069767442,
		  "pitch": 77,
		  "start": 185.46511627907,
		  "velocity": 80
		},
		{
		  "duration": 0.348837209302326,
		  "pitch": 76,
		  "start": 185.581395348837,
		  "velocity": 80
		},
		{
		  "duration": 0.348837209302326,
		  "pitch": 72,
		  "start": 185.93023255814,
		  "velocity": 80
		},
		{
		  "duration": 0.348837209302326,
		  "pitch": 74,
		  "start": 186.279069767442,
		  "velocity": 80
		},
		{
		  "duration": 0.116279069767442,
		  "pitch": 72,
		  "start": 186.627906976744,
		  "velocity": 80
		},
		{
		  "duration": 0.116279069767442,
		  "pitch": 71,
		  "start": 186.744186046512,
		  "velocity": 80
		},
		{
		  "duration": 0.116279069767442,
		  "pitch": 69,
		  "start": 186.860465116279,
		  "velocity": 80
		},
		{
		  "duration": 0.116279069767442,
		  "pitch": 67,
		  "start": 186.976744186047,
		  "velocity": 80
		},
		{
		  "duration": 0.116279069767442,
		  "pitch": 72,
		  "start": 187.093023255814,
		  "velocity": 80
		},
		{
		  "duration": 0.116279069767442,
		  "pitch": 76,
		  "start": 187.209302325581,
		  "velocity": 80
		},
		{
		  "duration": 0.116279069767442,
		  "pitch": 79,
		  "start": 187.325581395349,
		  "velocity": 80
		},
		{
		  "duration": 0.116279069767442,
		  "pitch": 84,
		  "start": 187.441860465116,
		  "velocity": 80
		},
		{
		  "duration": 0.116279069767442,
		  "pitch": 88,
		  "start": 187.558139534884,
		  "velocity": 80
		},
		{
		  "duration": 0.116279069767442,
		  "pitch": 90,
		  "start": 187.674418604651,
		  "velocity": 80
		},
		{
		  "duration": 0.116279069767442,
		  "pitch": 86,
		  "start": 187.790697674419,
		  "velocity": 80
		},
		{
		  "duration": 0.116279069767442,
		  "pitch": 81,
		  "start": 187.906976744186,
		  "velocity": 80
		},
		{
		  "duration": 0.116279069767442,
		  "pitch": 78,
		  "start": 188.023255813953,
		  "velocity": 80
		},
		{
		  "duration": 0.116279069767442,
		  "pitch": 74,
		  "start": 188.139534883721,
		  "velocity": 80
		},
		{
		  "duration": 0.116279069767442,
		  "pitch": 69,
		  "start": 188.255813953488,
		  "velocity": 80
		},
		{
		  "duration": 0.116279069767442,
		  "pitch": 69,
		  "start": 188.372093023256,
		  "velocity": 80
		},
		{
		  "duration": 0.116279069767442,
		  "pitch": 72,
		  "start": 188.488372093023,
		  "velocity": 80
		},
		{
		  "duration": 0.116279069767442,
		  "pitch": 76,
		  "start": 188.604651162791,
		  "velocity": 80
		},
		{
		  "duration": 0.116279069767442,
		  "pitch": 81,
		  "start": 188.720930232558,
		  "velocity": 80
		},
		{
		  "duration": 0.116279069767442,
		  "pitch": 84,
		  "start": 188.837209302326,
		  "velocity": 80
		},
		{
		  "duration": 0.116279069767442,
		  "pitch": 88,
		  "start": 188.953488372093,
		  "velocity": 80
		},
		{
		  "duration": 0.116279069767442,
		  "pitch": 92,
		  "start": 189.06976744186,
		  "velocity": 80
		},
		{
		  "duration": 0.116279069767442,
		  "pitch": 88,
		  "start": 189.186046511628,
		  "velocity": 80
		},
		{
		  "duration": 0.116279069767442,
		  "pitch": 84,
		  "start": 189.302325581395,
		  "velocity": 80
		},
		{
		  "duration": 0.116279069767442,
		  "pitch": 80,
		  "start": 189.418604651163,
		  "velocity": 80
		},
		{
		  "duration": 0.116279069767442,
		  "pitch": 76,
		  "start": 189.53488372093,
		  "velocity": 80
		},
		{
		  "duration": 0.116279069767442,
		  "pitch": 72,
		  "start": 189.651162790698,
		  "velocity": 80
		},
		{
		  "duration": 0.116279069767442,
		  "pitch": 69,
		  "start": 189.767441860465,
		  "velocity": 80
		},
		{
		  "duration": 0.116279069767442,
		  "pitch": 72,
		  "start": 189.883720930233,
		  "velocity": 80
		},
		{
		  "duration": 0.116279069767442,
		  "pitch": 76,
		  "start": 190.0,
		  "velocity": 80
		},
		{
		  "duration": 0.116279069767442,
		  "pitch": 81,
		  "start": 190.116279069767,
		  "velocity": 80
		},
		{
		  "duration": 0.116279069767442,
		  "pitch": 84,
		  "start": 190.232558139535,
		  "velocity": 80
		},
		{
		  "duration": 0.116279069767442,
		  "pitch": 88,
		  "start": 190.348837209302,
		  "velocity": 80
		},
		{
		  "duration": 0.116279069767442,
		  "pitch": 93,
		  "start": 190.46511627907,
		  "velocity": 80
		},
		{
		  "duration": 0.116279069767442,
		  "pitch": 88,
		  "start": 190.581395348837,
		  "velocity": 80
		},
		{
		  "duration": 0.116279069767442,
		  "pitch": 84,
		  "start": 190.697674418605,
		  "velocity": 80
		},
		{
		  "duration": 0.116279069767442,
		  "pitch": 81,
		  "start": 190.813953488372,
		  "velocity": 80
		},
		{
		  "duration": 0.116279069767442,
		  "pitch": 76,
		  "start": 190.93023255814,
		  "velocity": 80
		},
		{
		  "duration": 0.116279069767442,
		  "pitch": 72,
		  "start": 191.046511627907,
		  "velocity": 80
		},
		{
		  "duration": 0.116279069767442,
		  "pitch": 69,
		  "start": 191.162790697674,
		  "velocity": 80
		},
		{
		  "duration": 0.116279069767442,
		  "pitch": 72,
		  "start": 191.279069767442,
		  "velocity": 80
		},
		{
		  "duration": 0.116279069767442,
		  "pitch": 76,
		  "start": 191.395348837209,
		  "velocity": 80
		},
		{
		  "duration": 0.116279069767442,
		  "pitch": 81,
		  "start": 191.511627906977,
		  "velocity": 80
		},
		{
		  "duration": 0.116279069767442,
		  "pitch": 76,
		  "start": 191.627906976744,
		  "velocity": 70
		},
		{
		  "duration": 0.116279069767442,
		  "pitch": 72,
		  "start": 191.744186046512,
		  "velocity": 60
		},
		{
		  "duration": 0.116279069767442,
		  "pitch": 69,
		  "start": 191.860465116279,
		  "velocity": 50
		},
		{
		  "duration": 0.116279069767442,
		  "pitch": 74,
		  "start": 251.162790697674,
		  "velocity": 80
		},
		{
		  "duration": 0.116279069767442,
		  "pitch": 74,
		  "start": 251.395348837209,
		  "velocity": 80
		},
		{
		  "duration": 0.697674418604651,
		  "pitch": 81,
		  "start": 251.511627906977,
		  "velocity": 80
		},
		{
		  "duration": 0.116279069767442,
		  "pitch": 79,
		  "start": 252.209302325581,
		  "velocity": 80
		},
		{
		  "duration": 0.116279069767442,
		  "pitch": 81,
		  "start": 252.325581395349,
		  "velocity": 80
		},
		{
		  "duration": 0.116279069767442,
		  "pitch": 82,
		  "start": 252.441860465116,
		  "velocity": 80
		},
		{
		  "duration": 0.348837209302326,
		  "pitch": 81,
		  "start": 252.558139534884,
		  "velocity": 80
		},
		{
		  "duration": 0.348837209302326,
		  "pitch": 77,
		  "start": 252.906976744186,
		  "velocity": 80
		},
		{
		  "duration": 0.348837209302326,
		  "pitch": 79,
		  "start": 253.255813953488,
		  "velocity": 80
		},
		{
		  "duration": 0.116279069767442,
		  "pitch": 77,
		  "start": 253.604651162791,
		  "velocity": 80
		},
		{
		  "duration": 0.116279069767442,
		  "pitch": 76,
		  "start": 253.720930232558,
		  "velocity": 80
		},
		{
		  "duration": 0.116279069767442,
		  "pitch": 74,
		  "start": 253.837209302326,
		  "velocity": 80
		},
		{
		  "duration": 0.116279069767442,
		  "pitch": 76,
		  "start": 253.953488372093,
		  "velocity": 80
		},
		{
		  "duration": 0.116279069767442,
		  "pitch": 72,
		  "start": 254.186046511628,
		  "velocity": 80
		},
		{
		  "duration": 0.697674418604651,
		  "pitch": 74,
		  "start": 254.302325581395,
		  "velocity": 80
		},
		{
		  "duration": 0.116279069767442,
		  "pitch": 72,
		  "start": 255.0,
		  "velocity": 80
		},
		{
		  "duration": 0.116279069767442,
		  "pitch": 74,
		  "start": 255.116279069767,
		  "velocity": 80
		},
		{
		  "duration": 0.116279069767442,
		  "pitch": 76,
		  "start": 255.232558139535,
		  "velocity": 80
		},
		{
		  "duration": 1.3953488372093,
		  "pitch": 74,
		  "start": 255.348837209302,
		  "velocity": 80
		},
		{
		  "duration": 0.116279069767442,
		  "pitch": 69,
		  "start": 256.744186046512,
		  "velocity": 80
		},
		{
		  "duration": 0.116279069767442,
		  "pitch": 69,
		  "start": 256.976744186047,
		  "velocity": 80
		},
		{
		  "duration": 0.697674418604651,
		  "pitch": 76,
		  "start": 257.093023255814,
		  "velocity": 80
		},
		{
		  "duration": 0.116279069767442,
		  "pitch": 74,
		  "start": 257.790697674419,
		  "velocity": 80
		},
		{
		  "duration": 0.116279069767442,
		  "pitch": 76,
		  "start": 257.906976744186,
		  "velocity": 80
		},
		{
		  "duration": 0.116279069767442,
		  "pitch": 77,
		  "start": 258.023255813953,
		  "velocity": 80
		},
		{
		  "duration": 0.348837209302326,
		  "pitch": 76,
		  "start": 258.139534883721,
		  "velocity": 80
		},
		{
		  "duration": 0.348837209302326,
		  "pitch": 72,
		  "start": 258.488372093023,
		  "velocity": 80
		},
		{
		  "duration": 0.348837209302326,
		  "pitch": 74,
		  "start": 258.837209302326,
		  "velocity": 80
		},
		{
		  "duration": 0.116279069767442,
		  "pitch": 72,
		  "start": 259.186046511628,
		  "velocity": 80
		},
		{
		  "duration": 0.116279069767442,
		  "pitch": 71,
		  "start": 259.302325581395,
		  "velocity": 80
		},
		{
		  "duration": 0.116279069767442,
		  "pitch": 69,
		  "start": 259.418604651163,
		  "velocity": 80
		},
		{
		  "duration": 0.116279069767442,
		  "pitch": 71,
		  "start": 259.53488372093,
		  "velocity": 80
		},
		{
		  "duration": 0.116279069767442,
		  "pitch": 67,
		  "start": 259.767441860465,
		  "velocity": 80
		},
		{
		  "duration": 0.697674418604651,
		  "pitch": 69,
		  "start": 259.883720930233,
		  "velocity": 80
		},
		{
		  "duration": 0.116279069767442,
		  "pitch": 67,
		  "start": 260.581395348837,
		  "velocity": 80
		},
		{
		  "duration": 0.116279069767442,
		  "pitch": 69,
		  "start": 260.697674418605,
		  "velocity": 80
		},
		{
		  "duration": 0.116279069767442,
		  "pitch": 71,
		  "start": 260.813953488372,
		  "velocity": 80
		},
		{
		  "duration": 1.3953488372093,
		  "pitch": 69,
		  "start": 260.93023255814,
		  "velocity": 80
		},
		{
		  "duration": 0.116279069767442,
		  "pitch": 74,
		  "start": 262.325581395349,
		  "velocity": 80
		},
		{
		  "duration": 0.116279069767442,
		  "pitch": 74,
		  "start": 262.558139534884,
		  "velocity": 80
		},
		{
		  "duration": 0.697674418604651,
		  "pitch": 81,
		  "start": 262.674418604651,
		  "velocity": 80
		},
		{
		  "duration": 0.116279069767442,
		  "pitch": 79,
		  "start": 263.372093023256,
		  "velocity": 80
		},
		{
		  "duration": 0.116279069767442,
		  "pitch": 81,
		  "start": 263.488372093023,
		  "velocity": 80
		},
		{
		  "duration": 0.116279069767442,
		  "pitch": 82,
		  "start": 263.604651162791,
		  "velocity": 80
		},
		{
		  "duration": 0.348837209302326,
		  "pitch": 81,
		  "start": 263.720930232558,
		  "velocity": 80
		},
		{
		  "duration": 0.348837209302326,
		  "pitch": 77,
		  "start": 264.06976744186,
		  "velocity": 80
		},
		{
		  "duration": 0.348837209302326,
		  "pitch": 79,
		  "start": 264.418604651163,
		  "velocity": 80
		},
		{
		  "duration": 0.116279069767442,
		  "pitch": 77,
		  "start": 264.767441860465,
		  "velocity": 80
		},
		{
		  "duration": 0.116279069767442,
		  "pitch": 76,
		  "start": 264.883720930233,
		  "velocity": 80
		},
		{
		  "duration": 0.116279069767442,
		  "pitch": 74,
		  "start": 265.0,
		  "velocity": 80
		},
		{
		  "duration": 0.116279069767442,
		  "pitch": 76,
		  "start": 265.116279069767,
		  "velocity": 80
		},
		{
		  "duration": 0.116279069767442,
		  "pitch": 72,
		  "start": 265.348837209302,
		  "velocity": 80
		},
		{
		  "duration": 0.697674418604651,
		  "pitch": 74,
		  "start": 265.46511627907,
		  "velocity": 80
		},
		{
		  "duration": 0.116279069767442,
		  "pitch": 72,
		  "start": 266.162790697674,
		  "velocity": 80
		},
		{
		  "duration": 0.116279069767442,
		  "pitch": 74,
		  "start": 266.279069767442,
		  "velocity": 80
		},
		{
		  "duration": 0.116279069767442,
		  "pitch": 76,
		  "start": 266.395348837209,
		  "velocity": 80
		},
		{
		  "duration": 1.3953488372093,
		  "pitch": 74,
		  "start": 266.511627906977,
		  "velocity": 80
		},
		{
		  "duration": 0.116279069767442,
		  "pitch": 69,
		  "start": 267.906976744186,
		  "velocity": 80
		},
		{
		  "duration": 0.116279069767442,
		  "pitch": 69,
		  "start": 268.139534883721,
		  "velocity": 80
		},
		{
		  "duration": 0.697674418604651,
		  "pitch": 76,
		  "start": 268.255813953488,
		  "velocity": 80
		},
		{
		  "duration": 0.116279069767442,
		  "pitch": 74,
		  "start": 268.953488372093,
		  "velocity": 80
		},
		{
		  "duration": 0.116279069767442,
		  "pitch": 76,
		  "start": 269.06976744186,
		  "velocity": 80
		},
		{
		  "duration": 0.116279069767442,
		  "pitch": 77,
		  "start": 269.186046511628,
		  "velocity": 80
		},
		{
		  "duration": 0.348837209302326,
		  "pitch": 76,
		  "start": 269.302325581395,
		  "velocity": 80
		},
		{
		  "duration": 0.348837209302326,
		  "pitch": 72,
		  "start": 269.651162790698,
		  "velocity": 80
		},
		{
		  "duration": 0.348837209302326,
		  "pitch": 74,
		  "start": 270.0,
		  "velocity": 80
		},
		{
		  "duration": 0.116279069767442,
		  "pitch": 72,
		  "start": 270.348837209302,
		  "velocity": 80
		},
		{
		  "duration": 0.116279069767442,
		  "pitch": 71,
		  "start": 270.46511627907,
		  "velocity": 80
		},
		{
		  "duration": 0.116279069767442,
		  "pitch": 69,
		  "start": 270.581395348837,
		  "velocity": 80
		},
		{
		  "duration": 0.116279069767442,
		  "pitch": 71,
		  "start": 270.697674418605,
		  "velocity": 80
		},
		{
		  "duration": 0.116279069767442,
		  "pitch": 67,
		  "start": 270.93023255814,
		  "velocity": 80
		},
		{
		  "duration": 0.697674418604651,
		  "pitch": 69,
		  "start": 271.046511627907,
		  "velocity": 80
		},
		{
		  "duration": 0.116279069767442,
		  "pitch": 67,
		  "start": 271.744186046512,
		  "velocity": 80
		},
		{
		  "duration": 0.116279069767442,
		  "pitch": 69,
		  "start": 271.860465116279,
		  "velocity": 80
		},
		{
		  "duration": 0.116279069767442,
		  "pitch": 71,
		  "start": 271.976744186047,
		  "velocity": 80
		},
		{
		  "duration": 1.3953488372093,
		  "pitch": 69,
		  "start": 272.093023255814,
		  "velocity": 80
		},
		{
		  "duration": 0.116279069767442,
		  "pitch": 74,
		  "start": 273.488372093023,
		  "velocity": 80
		},
		{
		  "duration": 0.116279069767442,
		  "pitch": 74,
		  "start": 273.720930232558,
		  "velocity": 80
		},
		{
		  "duration": 0.697674418604651,
		  "pitch": 81,
		  "start": 273.837209302326,
		  "velocity": 80
		},
		{
		  "duration": 0.116279069767442,
		  "pitch": 79,
		  "start": 274.53488372093,
		  "velocity": 80
		},
		{
		  "duration": 0.116279069767442,
		  "pitch": 81,
		  "start": 274.651162790698,
		  "velocity": 80
		},
		{
		  "duration": 0.116279069767442,
		  "pitch": 82,
		  "start": 274.767441860465,
		  "velocity": 80
		},
		{
		  "duration": 0.348837209302326,
		  "pitch": 81,
		  "start": 274.883720930233,
		  "velocity": 80
		},
		{
		  "duration": 0.348837209302326,
		  "pitch": 77,
		  "start": 275.232558139535,
		  "velocity": 80
		},
		{
		  "duration": 0.348837209302326,
		  "pitch": 79,
		  "start": 275.581395348837,
		  "velocity": 80
		},
		{
		  "duration": 0.116279069767442,
		  "pitch": 77,
		  "start": 275.93023255814,
		  "velocity": 80
		},
		{
		  "duration": 0.116279069767442,
		  "pitch": 76,
		  "start": 276.046511627907,
		  "velocity": 80
		},
		{
		  "duration": 0.116279069767442,
		  "pitch": 74,
		  "start": 276.162790697674,
		  "velocity": 80
		},
		{
		  "duration": 0.116279069767442,
		  "pitch": 76,
		  "start": 276.279069767442,
		  "velocity": 80
		},
		{
		  "duration": 0.116279069767442,
		  "pitch": 72,
		  "start": 276.511627906977,
		  "velocity": 80
		},
		{
		  "duration": 0.697674418604651,
		  "pitch": 74,
		  "start": 276.627906976744,
		  "velocity": 80
		},
		{
		  "duration": 0.116279069767442,
		  "pitch": 72,
		  "start": 277.325581395349,
		  "velocity": 80
		},
		{
		  "duration": 0.116279069767442,
		  "pitch": 74,
		  "start": 277.441860465116,
		  "velocity": 80
		},
		{
		  "duration": 0.116279069767442,
		  "pitch": 76,
		  "start": 277.558139534884,
		  "velocity": 80
		},
		{
		  "duration": 1.3953488372093,
		  "pitch": 74,
		  "start": 277.674418604651,
		  "velocity": 80
		},
		{
		  "duration": 0.116279069767442,
		  "pitch": 69,
		  "start": 279.06976744186,
		  "velocity": 80
		},
		{
		  "duration": 0.116279069767442,
		  "pitch": 69,
		  "start": 279.302325581395,
		  "velocity": 80
		},
		{
		  "duration": 0.697674418604651,
		  "pitch": 76,
		  "start": 279.418604651163,
		  "velocity": 80
		},
		{
		  "duration": 0.116279069767442,
		  "pitch": 74,
		  "start": 280.116279069767,
		  "velocity": 80
		},
		{
		  "duration": 0.116279069767442,
		  "pitch": 76,
		  "start": 280.232558139535,
		  "velocity": 80
		},
		{
		  "duration": 0.116279069767442,
		  "pitch": 77,
		  "start": 280.348837209302,
		  "velocity": 80
		},
		{
		  "duration": 0.348837209302326,
		  "pitch": 76,
		  "start": 280.46511627907,
		  "velocity": 80
		},
		{
		  "duration": 0.348837209302326,
		  "pitch": 72,
		  "start": 280.813953488372,
		  "velocity": 80
		},
		{
		  "duration": 0.348837209302326,
		  "pitch": 74,
		  "start": 281.162790697674,
		  "velocity": 80
		},
		{
		  "duration": 0.116279069767442,
		  "pitch": 72,
		  "start": 281.511627906977,
		  "velocity": 80
		},
		{
		  "duration": 0.116279069767442,
		  "pitch": 71,
		  "start": 281.627906976744,
		  "velocity": 80
		},
		{
		  "duration": 0.116279069767442,
		  "pitch": 69,
		  "start": 281.744186046512,
		  "velocity": 80
		},
		{
		  "duration": 0.116279069767442,
		  "pitch": 67,
		  "start": 281.860465116279,
		  "velocity": 80
		},
		{
		  "duration": 0.116279069767442,
		  "pitch": 72,
		  "start": 281.976744186047,
		  "velocity": 80
		},
		{
		  "duration": 0.116279069767442,
		  "pitch": 76,
		  "start": 282.093023255814,
		  "velocity": 80
		},
		{
		  "duration": 0.116279069767442,
		  "pitch": 79,
		  "start": 282.209302325581,
		  "velocity": 80
		},
		{
		  "duration": 0.116279069767442,
		  "pitch": 84,
		  "start": 282.325581395349,
		  "velocity": 80
		},
		{
		  "duration": 0.116279069767442,
		  "pitch": 88,
		  "start": 282.441860465116,
		  "velocity": 80
		},
		{
		  "duration": 0.116279069767442,
		  "pitch": 90,
		  "start": 282.558139534884,
		  "velocity": 80
		},
		{
		  "duration": 0.116279069767442,
		  "pitch": 86,
		  "start": 282.674418604651,
		  "velocity": 80
		},
		{
		  "duration": 0.116279069767442,
		  "pitch": 81,
		  "start": 282.790697674419,
		  "velocity": 80
		},
		{
		  "duration": 0.116279069767442,
		  "pitch": 78,
		  "start": 282.906976744186,
		  "velocity": 80
		},
		{
		  "duration": 0.116279069767442,
		  "pitch": 74,
		  "start": 283.023255813953,
		  "velocity": 80
		},
		{
		  "duration": 0.116279069767442,
		  "pitch": 69,
		  "start": 283.139534883721,
		  "velocity": 80
		},
		{
		  "duration": 0.116279069767442,
		  "pitch": 69,
		  "start": 283.255813953488,
		  "velocity": 80
		},
		{
		  "duration": 0.116279069767442,
		  "pitch": 72,
		  "start": 283.372093023256,
		  "velocity": 80
		},
		{
		  "duration": 0.116279069767442,
		  "pitch": 76,
		  "start": 283.488372093023,
		  "velocity": 80
		},
		{
		  "duration": 0.116279069767442,
		  "pitch": 81,
		  "start": 283.604651162791,
		  "velocity": 80
		},
		{
		  "duration": 0.116279069767442,
		  "pitch": 84,
		  "start": 283.720930232558,
		  "velocity": 80
		},
		{
		  "duration": 0.116279069767442,
		  "pitch": 88,
		  "start": 283.837209302326,
		  "velocity": 80
		},
		{
		  "duration": 0.116279069767442,
		  "pitch": 92,
		  "start": 283.953488372093,
		  "velocity": 80
		},
		{
		  "duration": 0.116279069767442,
		  "pitch": 88,
		  "start": 284.06976744186,
		  "velocity": 80
		},
		{
		  "duration": 0.116279069767442,
		  "pitch": 84,
		  "start": 284.186046511628,
		  "velocity": 80
		},
		{
		  "duration": 0.116279069767442,
		  "pitch": 80,
		  "start": 284.302325581395,
		  "velocity": 80
		},
		{
		  "duration": 0.116279069767442,
		  "pitch": 76,
		  "start": 284.418604651163,
		  "velocity": 80
		},
		{
		  "duration": 0.116279069767442,
		  "pitch": 72,
		  "start": 284.53488372093,
		  "velocity": 80
		},
		{
		  "duration": 0.116279069767442,
		  "pitch": 69,
		  "start": 284.651162790698,
		  "velocity": 80
		},
		{
		  "duration": 0.116279069767442,
		  "pitch": 72,
		  "start": 284.767441860465,
		  "velocity": 80
		},
		{
		  "duration": 0.116279069767442,
		  "pitch": 76,
		  "start": 284.883720930233,
		  "velocity": 80
		},
		{
		  "duration": 0.116279069767442,
		  "pitch": 81,
		  "start": 285.0,
		  "velocity": 80
		},
		{
		  "duration": 0.116279069767442,
		  "pitch": 84,
		  "start": 285.116279069767,
		  "velocity": 80
		},
		{
		  "duration": 0.116279069767442,
		  "pitch": 88,
		  "start": 285.232558139535,
		  "velocity": 80
		},
		{
		  "duration": 0.116279069767442,
		  "pitch": 93,
		  "start": 285.348837209302,
		  "velocity": 80
		},
		{
		  "duration": 0.116279069767442,
		  "pitch": 88,
		  "start": 285.46511627907,
		  "velocity": 80
		},
		{
		  "duration": 0.116279069767442,
		  "pitch": 84,
		  "start": 285.581395348837,
		  "velocity": 80
		},
		{
		  "duration": 0.116279069767442,
		  "pitch": 81,
		  "start": 285.697674418605,
		  "velocity": 80
		},
		{
		  "duration": 0.116279069767442,
		  "pitch": 76,
		  "start": 285.813953488372,
		  "velocity": 80
		},
		{
		  "duration": 0.116279069767442,
		  "pitch": 72,
		  "start": 285.93023255814,
		  "velocity": 80
		},
		{
		  "duration": 0.116279069767442,
		  "pitch": 69,
		  "start": 286.046511627907,
		  "velocity": 80
		},
		{
		  "duration": 0.116279069767442,
		  "pitch": 72,
		  "start": 286.162790697674,
		  "velocity": 80
		},
		{
		  "duration": 0.116279069767442,
		  "pitch": 76,
		  "start": 286.279069767442,
		  "velocity": 80
		},
		{
		  "duration": 0.116279069767442,
		  "pitch": 81,
		  "start": 286.395348837209,
		  "velocity": 80
		},
		{
		  "duration": 0.116279069767442,
		  "pitch": 76,
		  "start": 286.511627906977,
		  "velocity": 70
		},
		{
		  "duration": 0.116279069767442,
		  "pitch": 72,
		  "start": 286.627906976744,
		  "velocity": 60
		},
		{
		  "duration": 0.116279069767442,
		  "pitch": 69,
		  "start": 286.744186046512,
		  "velocity": 50
		}
	  ]
	},
	{
	  "cc_events": [
		{
		  "controller": 7,
		  "time": 0.0,
		  "value": 100
		},
		{
		  "controller": 10,
		  "time": 0.0,
		  "value": 0
		},
		{
		  "controller": 10,
		  "time": 94.8837209302326,
		  "value": 0
		},
		{
		  "controller": 10,
		  "time": 189.767441860465,
		  "value": 0
		},
		{
		  "controller": 10,
		  "time": 284.651162790698,
		  "value": 0
		}
	  ],
	  "channel": 7,
	  "instrument": 71,
	  "name": "Synth Octave",
	  "notes": [
		{
		  "duration": 0.116279069767442,
		  "pitch": 62,
		  "start": 61.3953488372093,
		  "velocity": 80
		},
		{
		  "duration": 0.116279069767442,
		  "pitch": 62,
		  "start": 61.6279069767442,
		  "velocity": 80
		},
		{
		  "duration": 0.697674418604651,
		  "pitch": 69,
		  "start": 61.7441860465116,
		  "velocity": 80
		},
		{
		  "duration": 0.116279069767442,
		  "pitch": 67,
		  "start": 62.4418604651163,
		  "velocity": 80
		},
		{
		  "duration": 0.116279069767442,
		  "pitch": 69,
		  "start": 62.5581395348837,
		  "velocity": 80
		},
		{
		  "duration": 0.116279069767442,
		  "pitch": 70,
		  "start": 62.6744186046512,
		  "velocity": 80
		},
		{
		  "duration": 0.348837209302326,
		  "pitch": 69,
		  "start": 62.7906976744186,
		  "velocity": 80
		},
		{
		  "duration": 0.348837209302326,
		  "pitch": 65,
		  "start": 63.1395348837209,
		  "velocity": 80
		},
		{
		  "duration": 0.348837209302326,
		  "pitch": 67,
		  "start": 63.4883720930233,
		  "velocity": 80
		},
		{
		  "duration": 0.116279069767442,
		  "pitch": 65,
		  "start": 63.8372093023256,
		  "velocity": 80
		},
		{
		  "duration": 0.116279069767442,
		  "pitch": 64,
		  "start": 63.953488372093,
		  "velocity": 80
		},
		{
		  "duration": 0.116279069767442,
		  "pitch": 62,
		  "start": 64.0697674418605,
		  "velocity": 80
		},
		{
		  "duration": 0.116279069767442,
		  "pitch": 64,
		  "start": 64.1860465116279,
		  "velocity": 80
		},
		{
		  "duration": 0.116279069767442,
		  "pitch": 60,
		  "start": 64.4186046511628,
		  "velocity": 80
		},
		{
		  "duration": 0.697674418604651,
		  "pitch": 62,
		  "start": 64.5348837209302,
		  "velocity": 80
		},
		{
		  "duration": 0.116279069767442,
		  "pitch": 60,
		  "start": 65.2325581395349,
		  "velocity": 80
		},
		{
		  "duration": 0.116279069767442,
		  "pitch": 62,
		  "start": 65.3488372093023,
		  "velocity": 80
		},
		{
		  "duration": 0.116279069767442,
		  "pitch": 64,
		  "start": 65.4651162790698,
		  "velocity": 80
		},
		{
		  "duration": 1.3953488372093,
		  "pitch": 62,
		  "start": 65.5813953488372,
		  "velocity": 80
		},
		{
		  "duration": 0.116279069767442,
		  "pitch": 57,
		  "start": 66.9767441860465,
		  "velocity": 80
		},
		{
		  "duration": 0.116279069767442,
		  "pitch": 57,
		  "start": 67.2093023255814,
		  "velocity": 80
		},
		{
		  "duration": 0.697674418604651,
		  "pitch": 64,
		  "start": 67.3255813953488,
		  "velocity": 80
		},
		{
		  "duration": 0.116279069767442,
		  "pitch": 62,
		  "start": 68.0232558139535,
		  "velocity": 80
		},
		{
		  "duration": 0.116279069767442,
		  "pitch": 64,
		  "start": 68.1395348837209,
		  "velocity": 80
		},
		{
		  "duration": 0.116279069767442,
		  "pitch": 65,
		  "start": 68.2558139534884,
		  "velocity": 80
		},
		{
		  "duration": 0.348837209302326,
		  "pitch": 64,
		  "start": 68.3720930232558,
		  "velocity": 80
		},
		{
		  "duration": 0.348837209302326,
		  "pitch": 60,
		  "start": 68.7209302325581,
		  "velocity": 80
		},
		{
		  "duration": 0.348837209302326,
		  "pitch": 62,
		  "start": 69.0697674418605,
		  "velocity": 80
		},
		{
		  "duration": 0.116279069767442,
		  "pitch": 60,
		  "start": 69.4186046511628,
		  "velocity": 80
		},
		{
		  "duration": 0.116279069767442,
		  "pitch": 59,
		  "start": 69.5348837209302,
		  "velocity": 80
		},
		{
		  "duration": 0.116279069767442,
		  "pitch": 57,
		  "start": 69.6511627906977,
		  "velocity": 80
		},
		{
		  "duration": 0.116279069767442,
		  "pitch": 59,
		  "start": 69.7674418604651,
		  "velocity": 80
		},
		{
		  "duration": 0.116279069767442,
		  "pitch": 55,
		  "start": 70.0,
		  "velocity": 80
		},
		{
		  "duration": 0.697674418604651,
		  "pitch": 57,
		  "start": 70.1162790697674,
		  "velocity": 80
		},
		{
		  "duration": 0.116279069767442,
		  "pitch": 55,
		  "start": 70.8139534883721,
		  "velocity": 80
		},
		{
		  "duration": 0.116279069767442,
		  "pitch": 57,
		  "start": 70.9302325581395,
		  "velocity": 80
		},
		{
		  "duration": 0.116279069767442,
		  "pitch": 59,
		  "start": 71.046511627907,
		  "velocity": 80
		},
		{
		  "duration": 1.3953488372093,
		  "pitch": 57,
		  "start": 71.1627906976744,
		  "velocity": 80
		},
		{
		  "duration": 0.116279069767442,
		  "pitch": 62,
		  "start": 72.5581395348837,
		  "velocity": 80
		},
		{
		  "duration": 0.116279069767442,
		  "pitch": 62,
		  "start": 72.7906976744186,
		  "velocity": 80
		},
		{
		  "duration": 0.697674418604651,
		  "pitch": 69,
		  "start": 72.9069767441861,
		  "velocity": 80
		},
		{
		  "duration": 0.116279069767442,
		  "pitch": 67,
		  "start": 73.6046511627907,
		  "velocity": 80
		},
		{
		  "duration": 0.116279069767442,
		  "pitch": 69,
		  "start": 73.7209302325581,
		  "velocity": 80
		},
		{
		  "duration": 0.116279069767442,
		  "pitch": 70,
		  "start": 73.8372093023256,
		  "velocity": 80
		},
		{
		  "duration": 0.348837209302326,
		  "pitch": 69,
		  "start": 73.953488372093,
		  "velocity": 80
		},
		{
		  "duration": 0.348837209302326,
		  "pitch": 65,
		  "start": 74.3023255813954,
		  "velocity": 80
		},
		{
		  "duration": 0.348837209302326,
		  "pitch": 67,
		  "start": 74.6511627906977,
		  "velocity": 80
		},
		{
		  "duration": 0.116279069767442,
		  "pitch": 65,
		  "start": 75.0,
		  "velocity": 80
		},
		{
		  "duration": 0.116279069767442,
		  "pitch": 64,
		  "start": 75.1162790697674,
		  "velocity": 80
		},
		{
		  "duration": 0.116279069767442,
		  "pitch": 62,
		  "start": 75.2325581395349,
		  "velocity": 80
		},
		{
		  "duration": 0.116279069767442,
		  "pitch": 64,
		  "start": 75.3488372093023,
		  "velocity": 80
		},
		{
		  "duration": 0.116279069767442,
		  "pitch": 60,
		  "start": 75.5813953488372,
		  "velocity": 80
		},
		{
		  "duration": 0.697674418604651,
		  "pitch": 62,
		  "start": 75.6976744186046,
		  "velocity": 80
		},
		{
		  "duration": 0.116279069767442,
		  "pitch": 60,
		  "start": 76.3953488372093,
		  "velocity": 80
		},
		{
		  "duration": 0.116279069767442,
		  "pitch": 62,
		  "start": 76.5116279069767,
		  "velocity": 80
		},
		{
		  "duration": 0.116279069767442,
		  "pitch": 64,
		  "start": 76.6279069767442,
		  "velocity": 80
		},
		{
		  "duration": 1.3953488372093,
		  "pitch": 62,
		  "start": 76.7441860465116,
		  "velocity": 80
		},
		{
		  "duration": 0.116279069767442,
		  "pitch": 57,
		  "start": 78.1395348837209,
		  "velocity": 80
		},
		{
		  "duration": 0.116279069767442,
		  "pitch": 57,
		  "start": 78.3720930232558,
		  "velocity": 80
		},
		{
		  "duration": 0.697674418604651,
		  "pitch": 64,
		  "start": 78.4883720930233,
		  "velocity": 80
		},
		{
		  "duration": 0.116279069767442,
		  "pitch": 62,
		  "start": 79.1860465116279,
		  "velocity": 80
		},
		{
		  "duration": 0.116279069767442,
		  "pitch": 64,
		  "start": 79.3023255813954,
		  "velocity": 80
		},
		{
		  "duration": 0.116279069767442,
		  "pitch": 65,
		  "start": 79.4186046511628,
		  "velocity": 80
		},
		{
		  "duration": 0.348837209302326,
		  "pitch": 64,
		  "start": 79.5348837209302,
		  "velocity": 80
		},
		{
		  "duration": 0.348837209302326,
		  "pitch": 60,
		  "start": 79.8837209302326,
		  "velocity": 80
		},
		{
		  "duration": 0.348837209302326,
		  "pitch": 62,
		  "start": 80.2325581395349,
		  "velocity": 80
		},
		{
		  "duration": 0.116279069767442,
		  "pitch": 60,
		  "start": 80.5813953488372,
		  "velocity": 80
		},
		{
		  "duration": 0.116279069767442,
		  "pitch": 59,
		  "start": 80.6976744186046,
		  "velocity": 80
		},
		{
		  "duration": 0.116279069767442,
		  "pitch": 57,
		  "start": 80.8139534883721,
		  "velocity": 80
		},
		{
		  "duration": 0.116279069767442,
		  "pitch": 59,
		  "start": 80.9302325581395,
		  "velocity": 80
		},
		{
		  "duration": 0.116279069767442,
		  "pitch": 55,
		  "start": 81.1627906976744,
		  "velocity": 80
		},
		{
		  "duration": 0.697674418604651,
		  "pitch": 57,
		  "start": 81.2790697674419,
		  "velocity": 80
		},
		{
		  "duration": 0.116279069767442,
		  "pitch": 55,
		  "start": 81.9767441860465,
		  "velocity": 80
		},
		{
		  "duration": 0.116279069767442,
		  "pitch": 57,
		  "start": 82.0930232558139,
		  "velocity": 80
		},
		{
		  "duration": 0.116279069767442,
		  "pitch": 59,
		  "start": 82.2093023255814,
		  "velocity": 80
		},
		{
		  "duration": 1.3953488372093,
		  "pitch": 57,
		  "start": 82.3255813953488,
		  "velocity": 80
		},
		{
		  "duration": 0.116279069767442,
		  "pitch": 62,
		  "start": 83.7209302325581,
		  "velocity": 80
		},
		{
		  "duration": 0.116279069767442,
		  "pitch": 62,
		  "start": 83.953488372093,
		  "velocity": 80
		},
		{
		  "duration": 0.697674418604651,
		  "pitch": 69,
		  "start": 84.0697674418605,
		  "velocity": 80
		},
		{
		  "duration": 0.116279069767442,
		  "pitch": 67,
		  "start": 84.7674418604651,
		  "velocity": 80
		},
		{
		  "duration": 0.116279069767442,
		  "pitch": 69,
		  "start": 84.8837209302326,
		  "velocity": 80
		},
		{
		  "duration": 0.116279069767442,
		  "pitch": 70,
		  "start": 85.0,
		  "velocity": 80
		},
		{
		  "duration": 0.348837209302326,
		  "pitch": 69,
		  "start": 85.1162790697674,
		  "velocity": 80
		},
		{
		  "duration": 0.348837209302326,
		  "pitch": 65,
		  "start": 85.4651162790698,
		  "velocity": 80
		},
		{
		  "duration": 0.348837209302326,
		  "pitch": 67,
		  "start": 85.8139534883721,
		  "velocity": 80
		},
		{
		  "duration": 0.116279069767442,
		  "pitch": 65,
		  "start": 86.1627906976744,
		  "velocity": 80
		},
		{
		  "duration": 0.116279069767442,
		  "pitch": 64,
		  "start": 86.2790697674419,
		  "velocity": 80
		},
		{
		  "duration": 0.116279069767442,
		  "pitch": 62,
		  "start": 86.3953488372093,
		  "velocity": 80
		},
		{
		  "duration": 0.116279069767442,
		  "pitch": 64,
		  "start": 86.5116279069767,
		  "velocity": 80
		},
		{
		  "duration": 0.116279069767442,
		  "pitch": 60,
		  "start": 86.7441860465116,
		  "velocity": 80
		},
		{
		  "duration": 0.697674418604651,
		  "pitch": 62,
		  "start": 86.8604651162791,
		  "velocity": 80
		},
		{
		  "duration": 0.116279069767442,
		  "pitch": 60,
		  "start": 87.5581395348837,
		  "velocity": 80
		},
		{
		  "duration": 0.116279069767442,
		  "pitch": 62,
		  "start": 87.6744186046512,
		  "velocity": 80
		},
		{
		  "duration": 0.116279069767442,
		  "pitch": 64,
		  "start": 87.7906976744186,
		  "velocity": 80
		},
		{
		  "duration": 1.3953488372093,
		  "pitch": 62,
		  "start": 87.9069767441861,
		  "velocity": 80
		},
		{
		  "duration": 0.116279069767442,
		  "pitch": 57,
		  "start": 89.3023255813954,
		  "velocity": 80
		},
		{
		  "duration": 0.116279069767442,
		  "pitch": 57,
		  "start": 89.5348837209302,
		  "velocity": 80
		},
		{
		  "duration": 0.697674418604651,
		  "pitch": 64,
		  "start": 89.6511627906977,
		  "velocity": 80
		},
		{
		  "duration": 0.116279069767442,
		  "pitch": 62,
		  "start": 90.3488372093023,
		  "velocity": 80
		},
		{
		  "duration": 0.116279069767442,
		  "pitch": 64,
		  "start": 90.4651162790698,
		  "velocity": 80
		},
		{
		  "duration": 0.116279069767442,
		  "pitch": 65,
		  "start": 90.5813953488372,
		  "velocity": 80
		},
		{
		  "duration": 0.348837209302326,
		  "pitch": 64,
		  "start": 90.6976744186046,
		  "velocity": 80
		},
		{
		  "duration": 0.348837209302326,
		  "pitch": 60,
		  "start": 91.046511627907,
		  "velocity": 80
		},
		{
		  "duration": 0.348837209302326,
		  "pitch": 62,
		  "start": 91.3953488372093,
		  "velocity": 80
		},
		{
		  "duration": 0.116279069767442,
		  "pitch": 60,
		  "start": 91.7441860465116,
		  "velocity": 80
		},
		{
		  "duration": 0.116279069767442,
		  "pitch": 59,
		  "start": 91.8604651162791,
		  "velocity": 80
		},
		{
		  "duration": 0.116279069767442,
		  "pitch": 57,
		  "start": 91.9767441860465,
		  "velocity": 80
		},
		{
		  "duration": 0.116279069767442,
		  "pitch": 55,
		  "start": 92.0930232558139,
		  "velocity": 80
		},
		{
		  "duration": 0.116279069767442,
		  "pitch": 60,
		  "start": 92.2093023255814,
		  "velocity": 80
		},
		{
		  "duration": 0.116279069767442,
		  "pitch": 64,
		  "start": 92.3255813953488,
		  "velocity": 80
		},
		{
		  "duration": 0.116279069767442,
		  "pitch": 67,
		  "start": 92.4418604651163,
		  "velocity": 80
		},
		{
		  "duration": 0.116279069767442,
		  "pitch": 72,
		  "start": 92.5581395348837,
		  "velocity": 80
		},
		{
		  "duration": 0.116279069767442,
		  "pitch": 76,
		  "start": 92.6744186046512,
		  "velocity": 80
		},
		{
		  "duration": 0.116279069767442,
		  "pitch": 78,
		  "start": 92.7906976744186,
		  "velocity": 80
		},
		{
		  "duration": 0.116279069767442,
		  "pitch": 74,
		  "start": 92.9069767441861,
		  "velocity": 80
		},
		{
		  "duration": 0.116279069767442,
		  "pitch": 69,
		  "start": 93.0232558139535,
		  "velocity": 80
		},
		{
		  "duration": 0.116279069767442,
		  "pitch": 66,
		  "start": 93.1395348837209,
		  "velocity": 80
		},
		{
		  "duration": 0.116279069767442,
		  "pitch": 62,
		  "start": 93.2558139534884,
		  "velocity": 80
		},
		{
		  "duration": 0.116279069767442,
		  "pitch": 57,
		  "start": 93.3720930232558,
		  "velocity": 80
		},
		{
		  "duration": 0.116279069767442,
		  "pitch": 57,
		  "start": 93.4883720930233,
		  "velocity": 80
		},
		{
		  "duration": 0.116279069767442,
		  "pitch": 60,
		  "start": 93.6046511627907,
		  "velocity": 80
		},
		{
		  "duration": 0.116279069767442,
		  "pitch": 64,
		  "start": 93.7209302325581,
		  "velocity": 80
		},
		{
		  "duration": 0.116279069767442,
		  "pitch": 69,
		  "start": 93.8372093023256,
		  "velocity": 80
		},
		{
		  "duration": 0.116279069767442,
		  "pitch": 72,
		  "start": 93.953488372093,
		  "velocity": 80
		},
		{
		  "duration": 0.116279069767442,
		  "pitch": 76,
		  "start": 94.0697674418605,
		  "velocity": 80
		},
		{
		  "duration": 0.116279069767442,
		  "pitch": 80,
		  "start": 94.1860465116279,
		  "velocity": 80
		},
		{
		  "duration": 0.116279069767442,
		  "pitch": 76,
		  "start": 94.3023255813954,
		  "velocity": 80
		},
		{
		  "duration": 0.116279069767442,
		  "pitch": 72,
		  "start": 94.4186046511628,
		  "velocity": 80
		},
		{
		  "duration": 0.116279069767442,
		  "pitch": 68,
		  "start": 94.5348837209302,
		  "velocity": 80
		},
		{
		  "duration": 0.116279069767442,
		  "pitch": 64,
		  "start": 94.6511627906977,
		  "velocity": 80
		},
		{
		  "duration": 0.116279069767442,
		  "pitch": 60,
		  "start": 94.7674418604651,
		  "velocity": 80
		},
		{
		  "duration": 0.116279069767442,
		  "pitch": 57,
		  "start": 94.8837209302326,
		  "velocity": 80
		},
		{
		  "duration": 0.116279069767442,
		  "pitch": 60,
		  "start": 95.0,
		  "velocity": 80
		},
		{
		  "duration": 0.116279069767442,
		  "pitch": 64,
		  "start": 95.1162790697674,
		  "velocity": 80
		},
		{
		  "duration": 0.116279069767442,
		  "pitch": 69,
		  "start": 95.2325581395349,
		  "velocity": 80
		},
		{
		  "duration": 0.116279069767442,
		  "pitch": 72,
		  "start": 95.3488372093023,
		  "velocity": 80
		},
		{
		  "duration": 0.116279069767442,
		  "pitch": 76,
		  "start": 95.4651162790698,
		  "velocity": 80
		},
		{
		  "duration": 0.116279069767442,
		  "pitch": 81,
		  "start": 95.5813953488372,
		  "velocity": 80
		},
		{
		  "duration": 0.116279069767442,
		  "pitch": 76,
		  "start": 95.6976744186046,
		  "velocity": 80
		},
		{
		  "duration": 0.116279069767442,
		  "pitch": 72,
		  "start": 95.8139534883721,
		  "velocity": 80
		},
		{
		  "duration": 0.116279069767442,
		  "pitch": 69,
		  "start": 95.9302325581395,
		  "velocity": 80
		},
		{
		  "duration": 0.116279069767442,
		  "pitch": 64,
		  "start": 96.046511627907,
		  "velocity": 80
		},
		{
		  "duration": 0.116279069767442,
		  "pitch": 60,
		  "start": 96.1627906976744,
		  "velocity": 80
		},
		{
		  "duration": 0.116279069767442,
		  "pitch": 57,
		  "start": 96.2790697674419,
		  "velocity": 80
		},
		{
		  "duration": 0.116279069767442,
		  "pitch": 60,
		  "start": 96.3953488372093,
		  "velocity": 80
		},
		{
		  "duration": 0.116279069767442,
		  "pitch": 64,
		  "start": 96.5116279069767,
		  "velocity": 80
		},
		{
		  "duration": 0.116279069767442,
		  "pitch": 69,
		  "start": 96.6279069767442,
		  "velocity": 80
		},
		{
		  "duration": 0.101744186046512,
		  "pitch": 64,
		  "start": 96.7441860465116,
		  "velocity": 80
		},
		{
		  "duration": 0.116279069767442,
		  "pitch": 60,
		  "start": 96.8604651162791,
		  "velocity": 60
		},
		{
		  "duration": 0.116279069767442,
		  "pitch": 57,
		  "start": 96.9767441860465,
		  "velocity": 50
		},
		{
		  "duration": 0.116279069767442,
		  "pitch": 62,
		  "start": 156.279069767442,
		  "velocity": 80
		},
		{
		  "duration": 0.116279069767442,
		  "pitch": 62,
		  "start": 156.511627906977,
		  "velocity": 80
		},
		{
		  "duration": 0.697674418604651,
		  "pitch": 69,
		  "start": 156.627906976744,
		  "velocity": 80
		},
		{
		  "duration": 0.116279069767442,
		  "pitch": 67,
		  "start": 157.325581395349,
		  "velocity": 80
		},
		{
		  "duration": 0.116279069767442,
		  "pitch": 69,
		  "start": 157.441860465116,
		  "velocity": 80
		},
		{
		  "duration": 0.116279069767442,
		  "pitch": 70,
		  "start": 157.558139534884,
		  "velocity": 80
		},
		{
		  "duration": 0.348837209302326,
		  "pitch": 69,
		  "start": 157.674418604651,
		  "velocity": 80
		},
		{
		  "duration": 0.348837209302326,
		  "pitch": 65,
		  "start": 158.023255813953,
		  "velocity": 80
		},
		{
		  "duration": 0.348837209302326,
		  "pitch": 67,
		  "start": 158.372093023256,
		  "velocity": 80
		},
		{
		  "duration": 0.116279069767442,
		  "pitch": 65,
		  "start": 158.720930232558,
		  "velocity": 80
		},
		{
		  "duration": 0.116279069767442,
		  "pitch": 64,
		  "start": 158.837209302326,
		  "velocity": 80
		},
		{
		  "duration": 0.116279069767442,
		  "pitch": 62,
		  "start": 158.953488372093,
		  "velocity": 80
		},
		{
		  "duration": 0.116279069767442,
		  "pitch": 64,
		  "start": 159.06976744186,
		  "velocity": 80
		},
		{
		  "duration": 0.116279069767442,
		  "pitch": 60,
		  "start": 159.302325581395,
		  "velocity": 80
		},
		{
		  "duration": 0.697674418604651,
		  "pitch": 62,
		  "start": 159.418604651163,
		  "velocity": 80
		},
		{
		  "duration": 0.116279069767442,
		  "pitch": 60,
		  "start": 160.116279069767,
		  "velocity": 80
		},
		{
		  "duration": 0.116279069767442,
		  "pitch": 62,
		  "start": 160.232558139535,
		  "velocity": 80
		},
		{
		  "duration": 0.116279069767442,
		  "pitch": 64,
		  "start": 160.348837209302,
		  "velocity": 80
		},
		{
		  "duration": 1.3953488372093,
		  "pitch": 62,
		  "start": 160.46511627907,
		  "velocity": 80
		},
		{
		  "duration": 0.116279069767442,
		  "pitch": 57,
		  "start": 161.860465116279,
		  "velocity": 80
		},
		{
		  "duration": 0.116279069767442,
		  "pitch": 57,
		  "start": 162.093023255814,
		  "velocity": 80
		},
		{
		  "duration": 0.697674418604651,
		  "pitch": 64,
		  "start": 162.209302325581,
		  "velocity": 80
		},
		{
		  "duration": 0.116279069767442,
		  "pitch": 62,
		  "start": 162.906976744186,
		  "velocity": 80
		},
		{
		  "duration": 0.116279069767442,
		  "pitch": 64,
		  "start": 163.023255813953,
		  "velocity": 80
		},
		{
		  "duration": 0.116279069767442,
		  "pitch": 65,
		  "start": 163.139534883721,
		  "velocity": 80
		},
		{
		  "duration": 0.348837209302326,
		  "pitch": 64,
		  "start": 163.255813953488,
		  "velocity": 80
		},
		{
		  "duration": 0.348837209302326,
		  "pitch": 60,
		  "start": 163.604651162791,
		  "velocity": 80
		},
		{
		  "duration": 0.348837209302326,
		  "pitch": 62,
		  "start": 163.953488372093,
		  "velocity": 80
		},
		{
		  "duration": 0.116279069767442,
		  "pitch": 60,
		  "start": 164.302325581395,
		  "velocity": 80
		},
		{
		  "duration": 0.116279069767442,
		  "pitch": 59,
		  "start": 164.418604651163,
		  "velocity": 80
		},
		{
		  "duration": 0.116279069767442,
		  "pitch": 57,
		  "start": 164.53488372093,
		  "velocity": 80
		},
		{
		  "duration": 0.116279069767442,
		  "pitch": 59,
		  "start": 164.651162790698,
		  "velocity": 80
		},
		{
		  "duration": 0.116279069767442,
		  "pitch": 55,
		  "start": 164.883720930233,
		  "velocity": 80
		},
		{
		  "duration": 0.697674418604651,
		  "pitch": 57,
		  "start": 165.0,
		  "velocity": 80
		},
		{
		  "duration": 0.116279069767442,
		  "pitch": 55,
		  "start": 165.697674418605,
		  "velocity": 80
		},
		{
		  "duration": 0.116279069767442,
		  "pitch": 57,
		  "start": 165.813953488372,
		  "velocity": 80
		},
		{
		  "duration": 0.116279069767442,
		  "pitch": 59,
		  "start": 165.93023255814,
		  "velocity": 80
		},
		{
		  "duration": 1.3953488372093,
		  "pitch": 57,
		  "start": 166.046511627907,
		  "velocity": 80
		},
		{
		  "duration": 0.116279069767442,
		  "pitch": 62,
		  "start": 167.441860465116,
		  "velocity": 80
		},
		{
		  "duration": 0.116279069767442,
		  "pitch": 62,
		  "start": 167.674418604651,
		  "velocity": 80
		},
		{
		  "duration": 0.697674418604651,
		  "pitch": 69,
		  "start": 167.790697674419,
		  "velocity": 80
		},
		{
		  "duration": 0.116279069767442,
		  "pitch": 67,
		  "start": 168.488372093023,
		  "velocity": 80
		},
		{
		  "duration": 0.116279069767442,
		  "pitch": 69,
		  "start": 168.604651162791,
		  "velocity": 80
		},
		{
		  "duration": 0.116279069767442,
		  "pitch": 70,
		  "start": 168.720930232558,
		  "velocity": 80
		},
		{
		  "duration": 0.348837209302326,
		  "pitch": 69,
		  "start": 168.837209302326,
		  "velocity": 80
		},
		{
		  "duration": 0.348837209302326,
		  "pitch": 65,
		  "start": 169.186046511628,
		  "velocity": 80
		},
		{
		  "duration": 0.348837209302326,
		  "pitch": 67,
		  "start": 169.53488372093,
		  "velocity": 80
		},
		{
		  "duration": 0.116279069767442,
		  "pitch": 65,
		  "start": 169.883720930233,
		  "velocity": 80
		},
		{
		  "duration": 0.116279069767442,
		  "pitch": 64,
		  "start": 170.0,
		  "velocity": 80
		},
		{
		  "duration": 0.116279069767442,
		  "pitch": 62,
		  "start": 170.116279069767,
		  "velocity": 80
		},
		{
		  "duration": 0.116279069767442,
		  "pitch": 64,
		  "start": 170.232558139535,
		  "velocity": 80
		},
		{
		  "duration": 0.116279069767442,
		  "pitch": 60,
		  "start": 170.46511627907,
		  "velocity": 80
		},
		{
		  "duration": 0.697674418604651,
		  "pitch": 62,
		  "start": 170.581395348837,
		  "velocity": 80
		},
		{
		  "duration": 0.116279069767442,
		  "pitch": 60,
		  "start": 171.279069767442,
		  "velocity": 80
		},
		{
		  "duration": 0.116279069767442,
		  "pitch": 62,
		  "start": 171.395348837209,
		  "velocity": 80
		},
		{
		  "duration": 0.116279069767442,
		  "pitch": 64,
		  "start": 171.511627906977,
		  "velocity": 80
		},
		{
		  "duration": 1.3953488372093,
		  "pitch": 62,
		  "start": 171.627906976744,
		  "velocity": 80
		},
		{
		  "duration": 0.116279069767442,
		  "pitch": 57,
		  "start": 173.023255813953,
		  "velocity": 80
		},
		{
		  "duration": 0.116279069767442,
		  "pitch": 57,
		  "start": 173.255813953488,
		  "velocity": 80
		},
		{
		  "duration": 0.697674418604651,
		  "pitch": 64,
		  "start": 173.372093023256,
		  "velocity": 80
		},
		{
		  "duration": 0.116279069767442,
		  "pitch": 62,
		  "start": 174.06976744186,
		  "velocity": 80
		},
		{
		  "duration": 0.116279069767442,
		  "pitch": 64,
		  "start": 174.186046511628,
		  "velocity": 80
		},
		{
		  "duration": 0.116279069767442,
		  "pitch": 65,
		  "start": 174.302325581395,
		  "velocity": 80
		},
		{
		  "duration": 0.348837209302326,
		  "pitch": 64,
		  "start": 174.418604651163,
		  "velocity": 80
		},
		{
		  "duration": 0.348837209302326,
		  "pitch": 60,
		  "start": 174.767441860465,
		  "velocity": 80
		},
		{
		  "duration": 0.348837209302326,
		  "pitch": 62,
		  "start": 175.116279069767,
		  "velocity": 80
		},
		{
		  "duration": 0.116279069767442,
		  "pitch": 60,
		  "start": 175.46511627907,
		  "velocity": 80
		},
		{
		  "duration": 0.116279069767442,
		  "pitch": 59,
		  "start": 175.581395348837,
		  "velocity": 80
		},
		{
		  "duration": 0.116279069767442,
		  "pitch": 57,
		  "start": 175.697674418605,
		  "velocity": 80
		},
		{
		  "duration": 0.116279069767442,
		  "pitch": 59,
		  "start": 175.813953488372,
		  "velocity": 80
		},
		{
		  "duration": 0.116279069767442,
		  "pitch": 55,
		  "start": 176.046511627907,
		  "velocity": 80
		},
		{
		  "duration": 0.697674418604651,
		  "pitch": 57,
		  "start": 176.162790697674,
		  "velocity": 80
		},
		{
		  "duration": 0.116279069767442,
		  "pitch": 55,
		  "start": 176.860465116279,
		  "velocity": 80
		},
		{
		  "duration": 0.116279069767442,
		  "pitch": 57,
		  "start": 176.976744186047,
		  "velocity": 80
		},
		{
		  "duration": 0.116279069767442,
		  "pitch": 59,
		  "start": 177.093023255814,
		  "velocity": 80
		},
		{
		  "duration": 1.3953488372093,
		  "pitch": 57,
		  "start": 177.209302325581,
		  "velocity": 80
		},
		{
		  "duration": 0.116279069767442,
		  "pitch": 62,
		  "start": 178.604651162791,
		  "velocity": 80
		},
		{
		  "duration": 0.116279069767442,
		  "pitch": 62,
		  "start": 178.837209302326,
		  "velocity": 80
		},
		{
		  "duration": 0.697674418604651,
		  "pitch": 69,
		  "start": 178.953488372093,
		  "velocity": 80
		},
		{
		  "duration": 0.116279069767442,
		  "pitch": 67,
		  "start": 179.651162790698,
		  "velocity": 80
		},
		{
		  "duration": 0.116279069767442,
		  "pitch": 69,
		  "start": 179.767441860465,
		  "velocity": 80
		},
		{
		  "duration": 0.116279069767442,
		  "pitch": 70,
		  "start": 179.883720930233,
		  "velocity": 80
		},
		{
		  "duration": 0.348837209302326,
		  "pitch": 69,
		  "start": 180.0,
		  "velocity": 80
		},
		{
		  "duration": 0.348837209302326,
		  "pitch": 65,
		  "start": 180.348837209302,
		  "velocity": 80
		},
		{
		  "duration": 0.348837209302326,
		  "pitch": 67,
		  "start": 180.697674418605,
		  "velocity": 80
		},
		{
		  "duration": 0.116279069767442,
		  "pitch": 65,
		  "start": 181.046511627907,
		  "velocity": 80
		},
		{
		  "duration": 0.116279069767442,
		  "pitch": 64,
		  "start": 181.162790697674,
		  "velocity": 80
		},
		{
		  "duration": 0.116279069767442,
		  "pitch": 62,
		  "start": 181.279069767442,
		  "velocity": 80
		},
		{
		  "duration": 0.116279069767442,
		  "pitch": 64,
		  "start": 181.395348837209,
		  "velocity": 80
		},
		{
		  "duration": 0.116279069767442,
		  "pitch": 60,
		  "start": 181.627906976744,
		  "velocity": 80
		},
		{
		  "duration": 0.697674418604651,
		  "pitch": 62,
		  "start": 181.744186046512,
		  "velocity": 80
		},
		{
		  "duration": 0.116279069767442,
		  "pitch": 60,
		  "start": 182.441860465116,
		  "velocity": 80
		},
		{
		  "duration": 0.116279069767442,
		  "pitch": 62,
		  "start": 182.558139534884,
		  "velocity": 80
		},
		{
		  "duration": 0.116279069767442,
		  "pitch": 64,
		  "start": 182.674418604651,
		  "velocity": 80
		},
		{
		  "duration": 1.3953488372093,
		  "pitch": 62,
		  "start": 182.790697674419,
		  "velocity": 80
		},
		{
		  "duration": 0.116279069767442,
		  "pitch": 57,
		  "start": 184.186046511628,
		  "velocity": 80
		},
		{
		  "duration": 0.116279069767442,
		  "pitch": 57,
		  "start": 184.418604651163,
		  "velocity": 80
		},
		{
		  "duration": 0.697674418604651,
		  "pitch": 64,
		  "start": 184.53488372093,
		  "velocity": 80
		},
		{
		  "duration": 0.116279069767442,
		  "pitch": 62,
		  "start": 185.232558139535,
		  "velocity": 80
		},
		{
		  "duration": 0.116279069767442,
		  "pitch": 64,
		  "start": 185.348837209302,
		  "velocity": 80
		},
		{
		  "duration": 0.116279069767442,
		  "pitch": 65,
		  "start": 185.46511627907,
		  "velocity": 80
		},
		{
		  "duration": 0.348837209302326,
		  "pitch": 64,
		  "start": 185.581395348837,
		  "velocity": 80
		},
		{
		  "duration": 0.348837209302326,
		  "pitch": 60,
		  "start": 185.93023255814,
		  "velocity": 80
		},
		{
		  "duration": 0.348837209302326,
		  "pitch": 62,
		  "start": 186.279069767442,
		  "velocity": 80
		},
		{
		  "duration": 0.116279069767442,
		  "pitch": 60,
		  "start": 186.627906976744,
		  "velocity": 80
		},
		{
		  "duration": 0.116279069767442,
		  "pitch": 59,
		  "start": 186.744186046512,
		  "velocity": 80
		},
		{
		  "duration": 0.116279069767442,
		  "pitch": 57,
		  "start": 186.860465116279,
		  "velocity": 80
		},
		{
		  "duration": 0.116279069767442,
		  "pitch": 55,
		  "start": 186.976744186047,
		  "velocity": 80
		},
		{
		  "duration": 0.116279069767442,
		  "pitch": 60,
		  "start": 187.093023255814,
		  "velocity": 80
		},
		{
		  "duration": 0.116279069767442,
		  "pitch": 64,
		  "start": 187.209302325581,
		  "velocity": 80
		},
		{
		  "duration": 0.116279069767442,
		  "pitch": 67,
		  "start": 187.325581395349,
		  "velocity": 80
		},
		{
		  "duration": 0.116279069767442,
		  "pitch": 72,
		  "start": 187.441860465116,
		  "velocity": 80
		},
		{
		  "duration": 0.116279069767442,
		  "pitch": 76,
		  "start": 187.558139534884,
		  "velocity": 80
		},
		{
		  "duration": 0.116279069767442,
		  "pitch": 78,
		  "start": 187.674418604651,
		  "velocity": 80
		},
		{
		  "duration": 0.116279069767442,
		  "pitch": 74,
		  "start": 187.790697674419,
		  "velocity": 80
		},
		{
		  "duration": 0.116279069767442,
		  "pitch": 69,
		  "start": 187.906976744186,
		  "velocity": 80
		},
		{
		  "duration": 0.116279069767442,
		  "pitch": 66,
		  "start": 188.023255813953,
		  "velocity": 80
		},
		{
		  "duration": 0.116279069767442,
		  "pitch": 62,
		  "start": 188.139534883721,
		  "velocity": 80
		},
		{
		  "duration": 0.116279069767442,
		  "pitch": 57,
		  "start": 188.255813953488,
		  "velocity": 80
		},
		{
		  "duration": 0.116279069767442,
		  "pitch": 57,
		  "start": 188.372093023256,
		  "velocity": 80
		},
		{
		  "duration": 0.116279069767442,
		  "pitch": 60,
		  "start": 188.488372093023,
		  "velocity": 80
		},
		{
		  "duration": 0.116279069767442,
		  "pitch": 64,
		  "start": 188.604651162791,
		  "velocity": 80
		},
		{
		  "duration": 0.116279069767442,
		  "pitch": 69,
		  "start": 188.720930232558,
		  "velocity": 80
		},
		{
		  "duration": 0.116279069767442,
		  "pitch": 72,
		  "start": 188.837209302326,
		  "velocity": 80
		},
		{
		  "duration": 0.116279069767442,
		  "pitch": 76,
		  "start": 188.953488372093,
		  "velocity": 80
		},
		{
		  "duration": 0.116279069767442,
		  "pitch": 80,
		  "start": 189.06976744186,
		  "velocity": 80
		},
		{
		  "duration": 0.116279069767442,
		  "pitch": 76,
		  "start": 189.186046511628,
		  "velocity": 80
		},
		{
		  "duration": 0.116279069767442,
		  "pitch": 72,
		  "start": 189.302325581395,
		  "velocity": 80
		},
		{
		  "duration": 0.116279069767442,
		  "pitch": 68,
		  "start": 189.418604651163,
		  "velocity": 80
		},
		{
		  "duration": 0.116279069767442,
		  "pitch": 64,
		  "start": 189.53488372093,
		  "velocity": 80
		},
		{
		  "duration": 0.116279069767442,
		  "pitch": 60,
		  "start": 189.651162790698,
		  "velocity": 80
		},
		{
		  "duration": 0.116279069767442,
		  "pitch": 57,
		  "start": 189.767441860465,
		  "velocity": 80
		},
		{
		  "duration": 0.116279069767442,
		  "pitch": 60,
		  "start": 189.883720930233,
		  "velocity": 80
		},
		{
		  "duration": 0.116279069767442,
		  "pitch": 64,
		  "start": 190.0,
		  "velocity": 80
		},
		{
		  "duration": 0.116279069767442,
		  "pitch": 69,
		  "start": 190.116279069767,
		  "velocity": 80
		},
		{
		  "duration": 0.116279069767442,
		  "pitch": 72,
		  "start": 190.232558139535,
		  "velocity": 80
		},
		{
		  "duration": 0.116279069767442,
		  "pitch": 76,
		  "start": 190.348837209302,
		  "velocity": 80
		},
		{
		  "duration": 0.116279069767442,
		  "pitch": 81,
		  "start": 190.46511627907,
		  "velocity": 80
		},
		{
		  "duration": 0.116279069767442,
		  "pitch": 76,
		  "start": 190.581395348837,
		  "velocity": 80
		},
		{
		  "duration": 0.116279069767442,
		  "pitch": 72,
		  "start": 190.697674418605,
		  "velocity": 80
		},
		{
		  "duration": 0.116279069767442,
		  "pitch": 69,
		  "start": 190.813953488372,
		  "velocity": 80
		},
		{
		  "duration": 0.116279069767442,
		  "pitch": 64,
		  "start": 190.93023255814,
		  "velocity": 80
		},
		{
		  "duration": 0.116279069767442,
		  "pitch": 60,
		  "start": 191.046511627907,
		  "velocity": 80
		},
		{
		  "duration": 0.116279069767442,
		  "pitch": 57,
		  "start": 191.162790697674,
		  "velocity": 80
		},
		{
		  "duration": 0.116279069767442,
		  "pitch": 60,
		  "start": 191.279069767442,
		  "velocity": 80
		},
		{
		  "duration": 0.116279069767442,
		  "pitch": 64,
		  "start": 191.395348837209,
		  "velocity": 80
		},
		{
		  "duration": 0.116279069767442,
		  "pitch": 69,
		  "start": 191.511627906977,
		  "velocity": 80
		},
		{
		  "duration": 0.101744186046512,
		  "pitch": 64,
		  "start": 191.627906976744,
		  "velocity": 80
		},
		{
		  "duration": 0.116279069767442,
		  "pitch": 60,
		  "start": 191.744186046512,
		  "velocity": 60
		},
		{
		  "duration": 0.116279069767442,
		  "pitch": 57,
		  "start": 191.860465116279,
		  "velocity": 50
		},
		{
		  "duration": 0.116279069767442,
		  "pitch": 62,
		  "start": 251.162790697674,
		  "velocity": 80
		},
		{
		  "duration": 0.116279069767442,
		  "pitch": 62,
		  "start": 251.395348837209,
		  "velocity": 80
		},
		{
		  "duration": 0.697674418604651,
		  "pitch": 69,
		  "start": 251.511627906977,
		  "velocity": 80
		},
		{
		  "duration": 0.116279069767442,
		  "pitch": 67,
		  "start": 252.209302325581,
		  "velocity": 80
		},
		{
		  "duration": 0.116279069767442,
		  "pitch": 69,
		  "start": 252.325581395349,
		  "velocity": 80
		},
		{
		  "duration": 0.116279069767442,
		  "pitch": 70,
		  "start": 252.441860465116,
		  "velocity": 80
		},
		{
		  "duration": 0.348837209302326,
		  "pitch": 69,
		  "start": 252.558139534884,
		  "velocity": 80
		},
		{
		  "duration": 0.348837209302326,
		  "pitch": 65,
		  "start": 252.906976744186,
		  "velocity": 80
		},
		{
		  "duration": 0.348837209302326,
		  "pitch": 67,
		  "start": 253.255813953488,
		  "velocity": 80
		},
		{
		  "duration": 0.116279069767442,
		  "pitch": 65,
		  "start": 253.604651162791,
		  "velocity": 80
		},
		{
		  "duration": 0.116279069767442,
		  "pitch": 64,
		  "start": 253.720930232558,
		  "velocity": 80
		},
		{
		  "duration": 0.116279069767442,
		  "pitch": 62,
		  "start": 253.837209302326,
		  "velocity": 80
		},
		{
		  "duration": 0.116279069767442,
		  "pitch": 64,
		  "start": 253.953488372093,
		  "velocity": 80
		},
		{
		  "duration": 0.116279069767442,
		  "pitch": 60,
		  "start": 254.186046511628,
		  "velocity": 80
		},
		{
		  "duration": 0.697674418604651,
		  "pitch": 62,
		  "start": 254.302325581395,
		  "velocity": 80
		},
		{
		  "duration": 0.116279069767442,
		  "pitch": 60,
		  "start": 255.0,
		  "velocity": 80
		},
		{
		  "duration": 0.116279069767442,
		  "pitch": 62,
		  "start": 255.116279069767,
		  "velocity": 80
		},
		{
		  "duration": 0.116279069767442,
		  "pitch": 64,
		  "start": 255.232558139535,
		  "velocity": 80
		},
		{
		  "duration": 1.3953488372093,
		  "pitch": 62,
		  "start": 255.348837209302,
		  "velocity": 80
		},
		{
		  "duration": 0.116279069767442,
		  "pitch": 57,
		  "start": 256.744186046512,
		  "velocity": 80
		},
		{
		  "duration": 0.116279069767442,
		  "pitch": 57,
		  "start": 256.976744186047,
		  "velocity": 80
		},
		{
		  "duration": 0.697674418604651,
		  "pitch": 64,
		  "start": 257.093023255814,
		  "velocity": 80
		},
		{
		  "duration": 0.116279069767442,
		  "pitch": 62,
		  "start": 257.790697674419,
		  "velocity": 80
		},
		{
		  "duration": 0.116279069767442,
		  "pitch": 64,
		  "start": 257.906976744186,
		  "velocity": 80
		},
		{
		  "duration": 0.116279069767442,
		  "pitch": 65,
		  "start": 258.023255813953,
		  "velocity": 80
		},
		{
		  "duration": 0.348837209302326,
		  "pitch": 64,
		  "start": 258.139534883721,
		  "velocity": 80
		},
		{
		  "duration": 0.348837209302326,
		  "pitch": 60,
		  "start": 258.488372093023,
		  "velocity": 80
		},
		{
		  "duration": 0.348837209302326,
		  "pitch": 62,
		  "start": 258.837209302326,
		  "velocity": 80
		},
		{
		  "duration": 0.116279069767442,
		  "pitch": 60,
		  "start": 259.186046511628,
		  "velocity": 80
		},
		{
		  "duration": 0.116279069767442,
		  "pitch": 59,
		  "start": 259.302325581395,
		  "velocity": 80
		},
		{
		  "duration": 0.116279069767442,
		  "pitch": 57,
		  "start": 259.418604651163,
		  "velocity": 80
		},
		{
		  "duration": 0.116279069767442,
		  "pitch": 59,
		  "start": 259.53488372093,
		  "velocity": 80
		},
		{
		  "duration": 0.116279069767442,
		  "pitch": 55,
		  "start": 259.767441860465,
		  "velocity": 80
		},
		{
		  "duration": 0.697674418604651,
		  "pitch": 57,
		  "start": 259.883720930233,
		  "velocity": 80
		},
		{
		  "duration": 0.116279069767442,
		  "pitch": 55,
		  "start": 260.581395348837,
		  "velocity": 80
		},
		{
		  "duration": 0.116279069767442,
		  "pitch": 57,
		  "start": 260.697674418605,
		  "velocity": 80
		},
		{
		  "duration": 0.116279069767442,
		  "pitch": 59,
		  "start": 260.813953488372,
		  "velocity": 80
		},
		{
		  "duration": 1.3953488372093,
		  "pitch": 57,
		  "start": 260.93023255814,
		  "velocity": 80
		},
		{
		  "duration": 0.116279069767442,
		  "pitch": 62,
		  "start": 262.325581395349,
		  "velocity": 80
		},
		{
		  "duration": 0.116279069767442,
		  "pitch": 62,
		  "start": 262.558139534884,
		  "velocity": 80
		},
		{
		  "duration": 0.697674418604651,
		  "pitch": 69,
		  "start": 262.674418604651,
		  "velocity": 80
		},
		{
		  "duration": 0.116279069767442,
		  "pitch": 67,
		  "start": 263.372093023256,
		  "velocity": 80
		},
		{
		  "duration": 0.116279069767442,
		  "pitch": 69,
		  "start": 263.488372093023,
		  "velocity": 80
		},
		{
		  "duration": 0.116279069767442,
		  "pitch": 70,
		  "start": 263.604651162791,
		  "velocity": 80
		},
		{
		  "duration": 0.348837209302326,
		  "pitch": 69,
		  "start": 263.720930232558,
		  "velocity": 80
		},
		{
		  "duration": 0.348837209302326,
		  "pitch": 65,
		  "start": 264.06976744186,
		  "velocity": 80
		},
		{
		  "duration": 0.348837209302326,
		  "pitch": 67,
		  "start": 264.418604651163,
		  "velocity": 80
		},
		{
		  "duration": 0.116279069767442,
		  "pitch": 65,
		  "start": 264.767441860465,
		  "velocity": 80
		},
		{
		  "duration": 0.116279069767442,
		  "pitch": 64,
		  "start": 264.883720930233,
		  "velocity": 80
		},
		{
		  "duration": 0.116279069767442,
		  "pitch": 62,
		  "start": 265.0,
		  "velocity": 80
		},
		{
		  "duration": 0.116279069767442,
		  "pitch": 64,
		  "start": 265.116279069767,
		  "velocity": 80
		},
		{
		  "duration": 0.116279069767442,
		  "pitch": 60,
		  "start": 265.348837209302,
		  "velocity": 80
		},
		{
		  "duration": 0.697674418604651,
		  "pitch": 62,
		  "start": 265.46511627907,
		  "velocity": 80
		},
		{
		  "duration": 0.116279069767442,
		  "pitch": 60,
		  "start": 266.162790697674,
		  "velocity": 80
		},
		{
		  "duration": 0.116279069767442,
		  "pitch": 62,
		  "start": 266.279069767442,
		  "velocity": 80
		},
		{
		  "duration": 0.116279069767442,
		  "pitch": 64,
		  "start": 266.395348837209,
		  "velocity": 80
		},
		{
		  "duration": 1.3953488372093,
		  "pitch": 62,
		  "start": 266.511627906977,
		  "velocity": 80
		},
		{
		  "duration": 0.116279069767442,
		  "pitch": 57,
		  "start": 267.906976744186,
		  "velocity": 80
		},
		{
		  "duration": 0.116279069767442,
		  "pitch": 57,
		  "start": 268.139534883721,
		  "velocity": 80
		},
		{
		  "duration": 0.697674418604651,
		  "pitch": 64,
		  "start": 268.255813953488,
		  "velocity": 80
		},
		{
		  "duration": 0.116279069767442,
		  "pitch": 62,
		  "start": 268.953488372093,
		  "velocity": 80
		},
		{
		  "duration": 0.116279069767442,
		  "pitch": 64,
		  "start": 269.06976744186,
		  "velocity": 80
		},
		{
		  "duration": 0.116279069767442,
		  "pitch": 65,
		  "start": 269.186046511628,
		  "velocity": 80
		},
		{
		  "duration": 0.348837209302326,
		  "pitch": 64,
		  "start": 269.302325581395,
		  "velocity": 80
		},
		{
		  "duration": 0.348837209302326,
		  "pitch": 60,
		  "start": 269.651162790698,
		  "velocity": 80
		},
		{
		  "duration": 0.348837209302326,
		  "pitch": 62,
		  "start": 270.0,
		  "velocity": 80
		},
		{
		  "duration": 0.116279069767442,
		  "pitch": 60,
		  "start": 270.348837209302,
		  "velocity": 80
		},
		{
		  "duration": 0.116279069767442,
		  "pitch": 59,
		  "start": 270.46511627907,
		  "velocity": 80
		},
		{
		  "duration": 0.116279069767442,
		  "pitch": 57,
		  "start": 270.581395348837,
		  "velocity": 80
		},
		{
		  "duration": 0.116279069767442,
		  "pitch": 59,
		  "start": 270.697674418605,
		  "velocity": 80
		},
		{
		  "duration": 0.116279069767442,
		  "pitch": 55,
		  "start": 270.93023255814,
		  "velocity": 80
		},
		{
		  "duration": 0.697674418604651,
		  "pitch": 57,
		  "start": 271.046511627907,
		  "velocity": 80
		},
		{
		  "duration": 0.116279069767442,
		  "pitch": 55,
		  "start": 271.744186046512,
		  "velocity": 80
		},
		{
		  "duration": 0.116279069767442,
		  "pitch": 57,
		  "start": 271.860465116279,
		  "velocity": 80
		},
		{
		  "duration": 0.116279069767442,
		  "pitch": 59,
		  "start": 271.976744186047,
		  "velocity": 80
		},
		{
		  "duration": 1.3953488372093,
		  "pitch": 57,
		  "start": 272.093023255814,
		  "velocity": 80
		},
		{
		  "duration": 0.116279069767442,
		  "pitch": 62,
		  "start": 273.488372093023,
		  "velocity": 80
		},
		{
		  "duration": 0.116279069767442,
		  "pitch": 62,
		  "start": 273.720930232558,
		  "velocity": 80
		},
		{
		  "duration": 0.697674418604651,
		  "pitch": 69,
		  "start": 273.837209302326,
		  "velocity": 80
		},
		{
		  "duration": 0.116279069767442,
		  "pitch": 67,
		  "start": 274.53488372093,
		  "velocity": 80
		},
		{
		  "duration": 0.116279069767442,
		  "pitch": 69,
		  "start": 274.651162790698,
		  "velocity": 80
		},
		{
		  "duration": 0.116279069767442,
		  "pitch": 70,
		  "start": 274.767441860465,
		  "velocity": 80
		},
		{
		  "duration": 0.348837209302326,
		  "pitch": 69,
		  "start": 274.883720930233,
		  "velocity": 80
		},
		{
		  "duration": 0.348837209302326,
		  "pitch": 65,
		  "start": 275.232558139535,
		  "velocity": 80
		},
		{
		  "duration": 0.348837209302326,
		  "pitch": 67,
		  "start": 275.581395348837,
		  "velocity": 80
		},
		{
		  "duration": 0.116279069767442,
		  "pitch": 65,
		  "start": 275.93023255814,
		  "velocity": 80
		},
		{
		  "duration": 0.116279069767442,
		  "pitch": 64,
		  "start": 276.046511627907,
		  "velocity": 80
		},
		{
		  "duration": 0.116279069767442,
		  "pitch": 62,
		  "start": 276.162790697674,
		  "velocity": 80
		},
		{
		  "duration": 0.116279069767442,
		  "pitch": 64,
		  "start": 276.279069767442,
		  "velocity": 80
		},
		{
		  "duration": 0.116279069767442,
		  "pitch": 60,
		  "start": 276.511627906977,
		  "velocity": 80
		},
		{
		  "duration": 0.697674418604651,
		  "pitch": 62,
		  "start": 276.627906976744,
		  "velocity": 80
		},
		{
		  "duration": 0.116279069767442,
		  "pitch": 60,
		  "start": 277.325581395349,
		  "velocity": 80
		},
		{
		  "duration": 0.116279069767442,
		  "pitch": 62,
		  "start": 277.441860465116,
		  "velocity": 80
		},
		{
		  "duration": 0.116279069767442,
		  "pitch": 64,
		  "start": 277.558139534884,
		  "velocity": 80
		},
		{
		  "duration": 1.3953488372093,
		  "pitch": 62,
		  "start": 277.674418604651,
		  "velocity": 80
		},
		{
		  "duration": 0.116279069767442,
		  "pitch": 57,
		  "start": 279.06976744186,
		  "velocity": 80
		},
		{
		  "duration": 0.116279069767442,
		  "pitch": 57,
		  "start": 279.302325581395,
		  "velocity": 80
		},
		{
		  "duration": 0.697674418604651,
		  "pitch": 64,
		  "start": 279.418604651163,
		  "velocity": 80
		},
		{
		  "duration": 0.116279069767442,
		  "pitch": 62,
		  "start": 280.116279069767,
		  "velocity": 80
		},
		{
		  "duration": 0.116279069767442,
		  "pitch": 64,
		  "start": 280.232558139535,
		  "velocity": 80
		},
		{
		  "duration": 0.116279069767442,
		  "pitch": 65,
		  "start": 280.348837209302,
		  "velocity": 80
		},
		{
		  "duration": 0.348837209302326,
		  "pitch": 64,
		  "start": 280.46511627907,
		  "velocity": 80
		},
		{
		  "duration": 0.348837209302326,
		  "pitch": 60,
		  "start": 280.813953488372,
		  "velocity": 80
		},
		{
		  "duration": 0.348837209302326,
		  "pitch": 62,
		  "start": 281.162790697674,
		  "velocity": 80
		},
		{
		  "duration": 0.116279069767442,
		  "pitch": 60,
		  "start": 281.511627906977,
		  "velocity": 80
		},
		{
		  "duration": 0.116279069767442,
		  "pitch": 59,
		  "start": 281.627906976744,
		  "velocity": 80
		},
		{
		  "duration": 0.116279069767442,
		  "pitch": 57,
		  "start": 281.744186046512,
		  "velocity": 80
		},
		{
		  "duration": 0.116279069767442,
		  "pitch": 55,
		  "start": 281.860465116279,
		  "velocity": 80
		},
		{
		  "duration": 0.116279069767442,
		  "pitch": 60,
		  "start": 281.976744186047,
		  "velocity": 80
		},
		{
		  "duration": 0.116279069767442,
		  "pitch": 64,
		  "start": 282.093023255814,
		  "velocity": 80
		},
		{
		  "duration": 0.116279069767442,
		  "pitch": 67,
		  "start": 282.209302325581,
		  "velocity": 80
		},
		{
		  "duration": 0.116279069767442,
		  "pitch": 72,
		  "start": 282.325581395349,
		  "velocity": 80
		},
		{
		  "duration": 0.116279069767442,
		  "pitch": 76,
		  "start": 282.441860465116,
		  "velocity": 80
		},
		{
		  "duration": 0.116279069767442,
		  "pitch": 78,
		  "start": 282.558139534884,
		  "velocity": 80
		},
		{
		  "duration": 0.116279069767442,
		  "pitch": 74,
		  "start": 282.674418604651,
		  "velocity": 80
		},
		{
		  "duration": 0.116279069767442,
		  "pitch": 69,
		  "start": 282.790697674419,
		  "velocity": 80
		},
		{
		  "duration": 0.116279069767442,
		  "pitch": 66,
		  "start": 282.906976744186,
		  "velocity": 80
		},
		{
		  "duration": 0.116279069767442,
		  "pitch": 62,
		  "start": 283.023255813953,
		  "velocity": 80
		},
		{
		  "duration": 0.116279069767442,
		  "pitch": 57,
		  "start": 283.139534883721,
		  "velocity": 80
		},
		{
		  "duration": 0.116279069767442,
		  "pitch": 57,
		  "start": 283.255813953488,
		  "velocity": 80
		},
		{
		  "duration": 0.116279069767442,
		  "pitch": 60,
		  "start": 283.372093023256,
		  "velocity": 80
		},
		{
		  "duration": 0.116279069767442,
		  "pitch": 64,
		  "start": 283.488372093023,
		  "velocity": 80
		},
		{
		  "duration": 0.116279069767442,
		  "pitch": 69,
		  "start": 283.604651162791,
		  "velocity": 80
		},
		{
		  "duration": 0.116279069767442,
		  "pitch": 72,
		  "start": 283.720930232558,
		  "velocity": 80
		},
		{
		  "duration": 0.116279069767442,
		  "pitch": 76,
		  "start": 283.837209302326,
		  "velocity": 80
		},
		{
		  "duration": 0.116279069767442,
		  "pitch": 80,
		  "start": 283.953488372093,
		  "velocity": 80
		},
		{
		  "duration": 0.116279069767442,
		  "pitch": 76,
		  "start": 284.06976744186,
		  "velocity": 80
		},
		{
		  "duration": 0.116279069767442,
		  "pitch": 72,
		  "start": 284.186046511628,
		  "velocity": 80
		},
		{
		  "duration": 0.116279069767442,
		  "pitch": 68,
		  "start": 284.302325581395,
		  "velocity": 80
		},
		{
		  "duration": 0.116279069767442,
		  "pitch": 64,
		  "start": 284.418604651163,
		  "velocity": 80
		},
		{
		  "duration": 0.116279069767442,
		  "pitch": 60,
		  "start": 284.53488372093,
		  "velocity": 80
		},
		{
		  "duration": 0.116279069767442,
		  "pitch": 57,
		  "start": 284.651162790698,
		  "velocity": 80
		},
		{
		  "duration": 0.116279069767442,
		  "pitch": 60,
		  "start": 284.767441860465,
		  "velocity": 80
		},
		{
		  "duration": 0.116279069767442,
		  "pitch": 64,
		  "start": 284.883720930233,
		  "velocity": 80
		},
		{
		  "duration": 0.116279069767442,
		  "pitch": 69,
		  "start": 285.0,
		  "velocity": 80
		},
		{
		  "duration": 0.116279069767442,
		  "pitch": 72,
		  "start": 285.116279069767,
		  "velocity": 80
		},
		{
		  "duration": 0.116279069767442,
		  "pitch": 76,
		  "start": 285.232558139535,
		  "velocity": 80
		},
		{
		  "duration": 0.116279069767442,
		  "pitch": 81,
		  "start": 285.348837209302,
		  "velocity": 80
		},
		{
		  "duration": 0.116279069767442,
		  "pitch": 76,
		  "start": 285.46511627907,
		  "velocity": 80
		},
		{
		  "duration": 0.116279069767442,
		  "pitch": 72,
		  "start": 285.581395348837,
		  "velocity": 80
		},
		{
		  "duration": 0.116279069767442,
		  "pitch": 69,
		  "start": 285.697674418605,
		  "velocity": 80
		},
		{
		  "duration": 0.116279069767442,
		  "pitch": 64,
		  "start": 285.813953488372,
		  "velocity": 80
		},
		{
		  "duration": 0.116279069767442,
		  "pitch": 60,
		  "start": 285.93023255814,
		  "velocity": 80
		},
		{
		  "duration": 0.116279069767442,
		  "pitch": 57,
		  "start": 286.046511627907,
		  "velocity": 80
		},
		{
		  "duration": 0.116279069767442,
		  "pitch": 60,
		  "start": 286.162790697674,
		  "velocity": 80
		},
		{
		  "duration": 0.116279069767442,
		  "pitch": 64,
		  "start": 286.279069767442,
		  "velocity": 80
		},
		{
		  "duration": 0.116279069767442,
		  "pitch": 69,
		  "start": 286.395348837209,
		  "velocity": 80
		},
		{
		  "duration": 0.101744186046512,
		  "pitch": 64,
		  "start": 286.511627906977,
		  "velocity": 80
		},
		{
		  "duration": 0.116279069767442,
		  "pitch": 60,
		  "start": 286.627906976744,
		  "velocity": 60
		},
		{
		  "duration": 0.116279069767442,
		  "pitch": 57,
		  "start": 286.744186046512,
		  "velocity": 50
		}
	  ]
	},
	{
	  "cc_events": [
		{
		  "controller": 7,
		  "time": 0.0,
		  "value": 70
		},
		{
		  "controller": 10,
		  "time": 0.0,
		  "value": 127
		},
		{
		  "controller": 10,
		  "time": 94.8837209302326,
		  "value": 0
		},
		{
		  "controller": 10,
		  "time": 189.767441860465,
		  "value": 0
		},
		{
		  "controller": 10,
		  "time": 284.651162790698,
		  "value": 0
		}
	  ],
	  "channel": 8,
	  "instrument": 79,
	  "name": "Delay",
	  "notes": [
		{
		  "duration": 0.116279069767442,
		  "pitch": 74,
		  "start": 61.5697674418605,
		  "velocity": 80
		},
		{
		  "duration": 0.116279069767442,
		  "pitch": 74,
		  "start": 61.8313953488372,
		  "velocity": 80
		},
		{
		  "duration": 0.697674418604651,
		  "pitch": 81,
		  "start": 61.9186046511628,
		  "velocity": 80
		},
		{
		  "duration": 0.116279069767442,
		  "pitch": 79,
		  "start": 62.6162790697674,
		  "velocity": 80
		},
		{
		  "duration": 0.116279069767442,
		  "pitch": 81,
		  "start": 62.703488372093,
		  "velocity": 80
		},
		{
		  "duration": 0.116279069767442,
		  "pitch": 82,
		  "start": 62.8779069767442,
		  "velocity": 80
		},
		{
		  "duration": 0.348837209302326,
		  "pitch": 81,
		  "start": 62.9651162790698,
		  "velocity": 80
		},
		{
		  "duration": 0.348837209302326,
		  "pitch": 77,
		  "start": 63.3139534883721,
		  "velocity": 80
		},
		{
		  "duration": 0.348837209302326,
		  "pitch": 79,
		  "start": 63.6627906976744,
		  "velocity": 80
		},
		{
		  "duration": 0.116279069767442,
		  "pitch": 77,
		  "start": 64.0116279069767,
		  "velocity": 80
		},
		{
		  "duration": 0.116279069767442,
		  "pitch": 76,
		  "start": 64.0988372093023,
		  "velocity": 80
		},
		{
		  "duration": 0.116279069767442,
		  "pitch": 74,
		  "start": 64.2732558139535,
		  "velocity": 80
		},
		{
		  "duration": 0.116279069767442,
		  "pitch": 76,
		  "start": 64.3604651162791,
		  "velocity": 80
		},
		{
		  "duration": 0.116279069767442,
		  "pitch": 72,
		  "start": 64.6220930232558,
		  "velocity": 80
		},
		{
		  "duration": 0.697674418604651,
		  "pitch": 74,
		  "start": 64.7093023255814,
		  "velocity": 80
		},
		{
		  "duration": 0.116279069767442,
		  "pitch": 72,
		  "start": 65.4069767441861,
		  "velocity": 80
		},
		{
		  "duration": 0.116279069767442,
		  "pitch": 74,
		  "start": 65.4941860465116,
		  "velocity": 80
		},
		{
		  "duration": 0.116279069767442,
		  "pitch": 76,
		  "start": 65.6686046511628,
		  "velocity": 80
		},
		{
		  "duration": 1.3953488372093,
		  "pitch": 74,
		  "start": 65.7558139534884,
		  "velocity": 80
		},
		{
		  "duration": 0.116279069767442,
		  "pitch": 69,
		  "start": 67.1511627906977,
		  "velocity": 80
		},
		{
		  "duration": 0.116279069767442,
		  "pitch": 69,
		  "start": 67.4127906976744,
		  "velocity": 80
		},
		{
		  "duration": 0.697674418604651,
		  "pitch": 76,
		  "start": 67.5,
		  "velocity": 80
		},
		{
		  "duration": 0.116279069767442,
		  "pitch": 74,
		  "start": 68.1976744186046,
		  "velocity": 80
		},
		{
		  "duration": 0.116279069767442,
		  "pitch": 76,
		  "start": 68.2848837209302,
		  "velocity": 80
		},
		{
		  "duration": 0.116279069767442,
		  "pitch": 77,
		  "start": 68.4593023255814,
		  "velocity": 80
		},
		{
		  "duration": 0.348837209302326,
		  "pitch": 76,
		  "start": 68.546511627907,
		  "velocity": 80
		},
		{
		  "duration": 0.348837209302326,
		  "pitch": 72,
		  "start": 68.8953488372093,
		  "velocity": 80
		},
		{
		  "duration": 0.348837209302326,
		  "pitch": 74,
		  "start": 69.2441860465116,
		  "velocity": 80
		},
		{
		  "duration": 0.116279069767442,
		  "pitch": 72,
		  "start": 69.5930232558139,
		  "velocity": 80
		},
		{
		  "duration": 0.116279069767442,
		  "pitch": 71,
		  "start": 69.6802325581395,
		  "velocity": 80
		},
		{
		  "duration": 0.116279069767442,
		  "pitch": 69,
		  "start": 69.8546511627907,
		  "velocity": 80
		},
		{
		  "duration": 0.116279069767442,
		  "pitch": 71,
		  "start": 69.9418604651163,
		  "velocity": 80
		},
		{
		  "duration": 0.116279069767442,
		  "pitch": 67,
		  "start": 70.203488372093,
		  "velocity": 80
		},
		{
		  "duration": 0.697674418604651,
		  "pitch": 69,
		  "start": 70.2906976744186,
		  "velocity": 80
		},
		{
		  "duration": 0.116279069767442,
		  "pitch": 67,
		  "start": 70.9883720930233,
		  "velocity": 80
		},
		{
		  "duration": 0.116279069767442,
		  "pitch": 69,
		  "start": 71.0755813953488,
		  "velocity": 80
		},
		{
		  "duration": 0.116279069767442,
		  "pitch": 71,
		  "start": 71.25,
		  "velocity": 80
		},
		{
		  "duration": 1.3953488372093,
		  "pitch": 69,
		  "start": 71.3372093023256,
		  "velocity": 80
		},
		{
		  "duration": 0.116279069767442,
		  "pitch": 74,
		  "start": 72.7325581395349,
		  "velocity": 80
		},
		{
		  "duration": 0.116279069767442,
		  "pitch": 74,
		  "start": 72.9941860465116,
		  "velocity": 80
		},
		{
		  "duration": 0.697674418604651,
		  "pitch": 81,
		  "start": 73.0813953488372,
		  "velocity": 80
		},
		{
		  "duration": 0.116279069767442,
		  "pitch": 79,
		  "start": 73.7790697674419,
		  "velocity": 80
		},
		{
		  "duration": 0.116279069767442,
		  "pitch": 81,
		  "start": 73.8662790697674,
		  "velocity": 80
		},
		{
		  "duration": 0.116279069767442,
		  "pitch": 82,
		  "start": 74.0406976744186,
		  "velocity": 80
		},
		{
		  "duration": 0.348837209302326,
		  "pitch": 81,
		  "start": 74.1279069767442,
		  "velocity": 80
		},
		{
		  "duration": 0.348837209302326,
		  "pitch": 77,
		  "start": 74.4767441860465,
		  "velocity": 80
		},
		{
		  "duration": 0.348837209302326,
		  "pitch": 79,
		  "start": 74.8255813953488,
		  "velocity": 80
		},
		{
		  "duration": 0.116279069767442,
		  "pitch": 77,
		  "start": 75.1744186046512,
		  "velocity": 80
		},
		{
		  "duration": 0.116279069767442,
		  "pitch": 76,
		  "start": 75.2616279069767,
		  "velocity": 80
		},
		{
		  "duration": 0.116279069767442,
		  "pitch": 74,
		  "start": 75.4360465116279,
		  "velocity": 80
		},
		{
		  "duration": 0.116279069767442,
		  "pitch": 76,
		  "start": 75.5232558139535,
		  "velocity": 80
		},
		{
		  "duration": 0.116279069767442,
		  "pitch": 72,
		  "start": 75.7848837209302,
		  "velocity": 80
		},
		{
		  "duration": 0.697674418604651,
		  "pitch": 74,
		  "start": 75.8720930232558,
		  "velocity": 80
		},
		{
		  "duration": 0.116279069767442,
		  "pitch": 72,
		  "start": 76.5697674418605,
		  "velocity": 80
		},
		{
		  "duration": 0.116279069767442,
		  "pitch": 74,
		  "start": 76.6569767441861,
		  "velocity": 80
		},
		{
		  "duration": 0.116279069767442,
		  "pitch": 76,
		  "start": 76.8313953488372,
		  "velocity": 80
		},
		{
		  "duration": 1.3953488372093,
		  "pitch": 74,
		  "start": 76.9186046511628,
		  "velocity": 80
		},
		{
		  "duration": 0.116279069767442,
		  "pitch": 69,
		  "start": 78.3139534883721,
		  "velocity": 80
		},
		{
		  "duration": 0.116279069767442,
		  "pitch": 69,
		  "start": 78.5755813953488,
		  "velocity": 80
		},
		{
		  "duration": 0.697674418604651,
		  "pitch": 76,
		  "start": 78.6627906976744,
		  "velocity": 80
		},
		{
		  "duration": 0.116279069767442,
		  "pitch": 74,
		  "start": 79.3604651162791,
		  "velocity": 80
		},
		{
		  "duration": 0.116279069767442,
		  "pitch": 76,
		  "start": 79.4476744186046,
		  "velocity": 80
		},
		{
		  "duration": 0.116279069767442,
		  "pitch": 77,
		  "start": 79.6220930232558,
		  "velocity": 80
		},
		{
		  "duration": 0.348837209302326,
		  "pitch": 76,
		  "start": 79.7093023255814,
		  "velocity": 80
		},
		{
		  "duration": 0.348837209302326,
		  "pitch": 72,
		  "start": 80.0581395348837,
		  "velocity": 80
		},
		{
		  "duration": 0.348837209302326,
		  "pitch": 74,
		  "start": 80.4069767441861,
		  "velocity": 80
		},
		{
		  "duration": 0.116279069767442,
		  "pitch": 72,
		  "start": 80.7558139534884,
		  "velocity": 80
		},
		{
		  "duration": 0.116279069767442,
		  "pitch": 71,
		  "start": 80.8430232558139,
		  "velocity": 80
		},
		{
		  "duration": 0.116279069767442,
		  "pitch": 69,
		  "start": 81.0174418604651,
		  "velocity": 80
		},
		{
		  "duration": 0.116279069767442,
		  "pitch": 71,
		  "start": 81.1046511627907,
		  "velocity": 80
		},
		{
		  "duration": 0.116279069767442,
		  "pitch": 67,
		  "start": 81.3662790697674,
		  "velocity": 80
		},
		{
		  "duration": 0.697674418604651,
		  "pitch": 69,
		  "start": 81.453488372093,
		  "velocity": 80
		},
		{
		  "duration": 0.116279069767442,
		  "pitch": 67,
		  "start": 82.1511627906977,
		  "velocity": 80
		},
		{
		  "duration": 0.116279069767442,
		  "pitch": 69,
		  "start": 82.2383720930233,
		  "velocity": 80
		},
		{
		  "duration": 0.116279069767442,
		  "pitch": 71,
		  "start": 82.4127906976744,
		  "velocity": 80
		},
		{
		  "duration": 1.3953488372093,
		  "pitch": 69,
		  "start": 82.5,
		  "velocity": 80
		},
		{
		  "duration": 0.116279069767442,
		  "pitch": 74,
		  "start": 83.8953488372093,
		  "velocity": 80
		},
		{
		  "duration": 0.116279069767442,
		  "pitch": 74,
		  "start": 84.1569767441861,
		  "velocity": 80
		},
		{
		  "duration": 0.697674418604651,
		  "pitch": 81,
		  "start": 84.2441860465116,
		  "velocity": 80
		},
		{
		  "duration": 0.116279069767442,
		  "pitch": 79,
		  "start": 84.9418604651163,
		  "velocity": 80
		},
		{
		  "duration": 0.116279069767442,
		  "pitch": 81,
		  "start": 85.0290697674419,
		  "velocity": 80
		},
		{
		  "duration": 0.116279069767442,
		  "pitch": 82,
		  "start": 85.203488372093,
		  "velocity": 80
		},
		{
		  "duration": 0.348837209302326,
		  "pitch": 81,
		  "start": 85.2906976744186,
		  "velocity": 80
		},
		{
		  "duration": 0.348837209302326,
		  "pitch": 77,
		  "start": 85.6395348837209,
		  "velocity": 80
		},
		{
		  "duration": 0.348837209302326,
		  "pitch": 79,
		  "start": 85.9883720930233,
		  "velocity": 80
		},
		{
		  "duration": 0.116279069767442,
		  "pitch": 77,
		  "start": 86.3372093023256,
		  "velocity": 80
		},
		{
		  "duration": 0.116279069767442,
		  "pitch": 76,
		  "start": 86.4244186046512,
		  "velocity": 80
		},
		{
		  "duration": 0.116279069767442,
		  "pitch": 74,
		  "start": 86.5988372093023,
		  "velocity": 80
		},
		{
		  "duration": 0.116279069767442,
		  "pitch": 76,
		  "start": 86.6860465116279,
		  "velocity": 80
		},
		{
		  "duration": 0.116279069767442,
		  "pitch": 72,
		  "start": 86.9476744186046,
		  "velocity": 80
		},
		{
		  "duration": 0.697674418604651,
		  "pitch": 74,
		  "start": 87.0348837209302,
		  "velocity": 80
		},
		{
		  "duration": 0.116279069767442,
		  "pitch": 72,
		  "start": 87.7325581395349,
		  "velocity": 80
		},
		{
		  "duration": 0.116279069767442,
		  "pitch": 74,
		  "start": 87.8197674418605,
		  "velocity": 80
		},
		{
		  "duration": 0.116279069767442,
		  "pitch": 76,
		  "start": 87.9941860465116,
		  "velocity": 80
		},
		{
		  "duration": 1.3953488372093,
		  "pitch": 74,
		  "start": 88.0813953488372,
		  "velocity": 80
		},
		{
		  "duration": 0.116279069767442,
		  "pitch": 69,
		  "start": 89.4767441860465,
		  "velocity": 80
		},
		{
		  "duration": 0.116279069767442,
		  "pitch": 69,
		  "start": 89.7383720930233,
		  "velocity": 80
		},
		{
		  "duration": 0.697674418604651,
		  "pitch": 76,
		  "start": 89.8255813953488,
		  "velocity": 80
		},
		{
		  "duration": 0.116279069767442,
		  "pitch": 74,
		  "start": 90.5232558139535,
		  "velocity": 80
		},
		{
		  "duration": 0.116279069767442,
		  "pitch": 76,
		  "start": 90.6104651162791,
		  "velocity": 80
		},
		{
		  "duration": 0.116279069767442,
		  "pitch": 77,
		  "start": 90.7848837209302,
		  "velocity": 80
		},
		{
		  "duration": 0.348837209302326,
		  "pitch": 76,
		  "start": 90.8720930232558,
		  "velocity": 80
		},
		{
		  "duration": 0.348837209302326,
		  "pitch": 72,
		  "start": 91.2209302325581,
		  "velocity": 80
		},
		{
		  "duration": 0.348837209302326,
		  "pitch": 74,
		  "start": 91.5697674418605,
		  "velocity": 80
		},
		{
		  "duration": 0.116279069767442,
		  "pitch": 72,
		  "start": 91.9186046511628,
		  "velocity": 80
		},
		{
		  "duration": 0.116279069767442,
		  "pitch": 71,
		  "start": 92.0058139534884,
		  "velocity": 80
		},
		{
		  "duration": 0.116279069767442,
		  "pitch": 69,
		  "start": 92.1802325581395,
		  "velocity": 80
		},
		{
		  "duration": 0.116279069767442,
		  "pitch": 67,
		  "start": 92.2674418604651,
		  "velocity": 80
		},
		{
		  "duration": 0.116279069767442,
		  "pitch": 72,
		  "start": 92.3546511627907,
		  "velocity": 80
		},
		{
		  "duration": 0.116279069767442,
		  "pitch": 76,
		  "start": 92.5290697674419,
		  "velocity": 80
		},
		{
		  "duration": 0.116279069767442,
		  "pitch": 79,
		  "start": 92.6162790697674,
		  "velocity": 80
		},
		{
		  "duration": 0.116279069767442,
		  "pitch": 84,
		  "start": 92.703488372093,
		  "velocity": 80
		},
		{
		  "duration": 0.116279069767442,
		  "pitch": 88,
		  "start": 92.8779069767442,
		  "velocity": 80
		},
		{
		  "duration": 0.116279069767442,
		  "pitch": 90,
		  "start": 92.9651162790698,
		  "velocity": 80
		},
		{
		  "duration": 0.116279069767442,
		  "pitch": 86,
		  "start": 93.0523255813954,
		  "velocity": 80
		},
		{
		  "duration": 0.116279069767442,
		  "pitch": 81,
		  "start": 93.2267441860465,
		  "velocity": 80
		},
		{
		  "duration": 0.116279069767442,
		  "pitch": 78,
		  "start": 93.3139534883721,
		  "velocity": 80
		},
		{
		  "duration": 0.116279069767442,
		  "pitch": 74,
		  "start": 93.4011627906977,
		  "velocity": 80
		},
		{
		  "duration": 0.0872093023255814,
		  "pitch": 69,
		  "start": 93.5755813953488,
		  "velocity": 80
		},
		{
		  "duration": 0.0290697674418605,
		  "pitch": 69,
		  "start": 93.6627906976744,
		  "velocity": 80
		},
		{
		  "duration": 0.116279069767442,
		  "pitch": 72,
		  "start": 93.75,
		  "velocity": 80
		},
		{
		  "duration": 0.116279069767442,
		  "pitch": 76,
		  "start": 93.9244186046512,
		  "velocity": 80
		},
		{
		  "duration": 0.116279069767442,
		  "pitch": 81,
		  "start": 94.0116279069767,
		  "velocity": 80
		},
		{
		  "duration": 0.116279069767442,
		  "pitch": 84,
		  "start": 94.0988372093023,
		  "velocity": 80
		},
		{
		  "duration": 0.116279069767442,
		  "pitch": 88,
		  "start": 94.2732558139535,
		  "velocity": 80
		},
		{
		  "duration": 0.116279069767442,
		  "pitch": 92,
		  "start": 94.3604651162791,
		  "velocity": 80
		},
		{
		  "duration": 0.116279069767442,
		  "pitch": 88,
		  "start": 94.4476744186046,
		  "velocity": 80
		},
		{
		  "duration": 0.116279069767442,
		  "pitch": 84,
		  "start": 94.6220930232558,
		  "velocity": 80
		},
		{
		  "duration": 0.116279069767442,
		  "pitch": 80,
		  "start": 94.7093023255814,
		  "velocity": 80
		},
		{
		  "duration": 0.116279069767442,
		  "pitch": 76,
		  "start": 94.796511627907,
		  "velocity": 80
		},
		{
		  "duration": 0.116279069767442,
		  "pitch": 72,
		  "start": 94.9709302325581,
		  "velocity": 80
		},
		{
		  "duration": 0.116279069767442,
		  "pitch": 69,
		  "start": 95.0581395348837,
		  "velocity": 80
		},
		{
		  "duration": 0.116279069767442,
		  "pitch": 72,
		  "start": 95.1453488372093,
		  "velocity": 80
		},
		{
		  "duration": 0.116279069767442,
		  "pitch": 76,
		  "start": 95.3197674418605,
		  "velocity": 80
		},
		{
		  "duration": 0.116279069767442,
		  "pitch": 81,
		  "start": 95.4069767441861,
		  "velocity": 80
		},
		{
		  "duration": 0.116279069767442,
		  "pitch": 84,
		  "start": 95.4941860465116,
		  "velocity": 80
		},
		{
		  "duration": 0.116279069767442,
		  "pitch": 88,
		  "start": 95.6686046511628,
		  "velocity": 80
		},
		{
		  "duration": 0.116279069767442,
		  "pitch": 93,
		  "start": 95.7558139534884,
		  "velocity": 80
		},
		{
		  "duration": 0.116279069767442,
		  "pitch": 88,
		  "start": 95.8430232558139,
		  "velocity": 80
		},
		{
		  "duration": 0.116279069767442,
		  "pitch": 84,
		  "start": 96.0174418604651,
		  "velocity": 80
		},
		{
		  "duration": 0.116279069767442,
		  "pitch": 81,
		  "start": 96.1046511627907,
		  "velocity": 80
		},
		{
		  "duration": 0.116279069767442,
		  "pitch": 76,
		  "start": 96.1918604651163,
		  "velocity": 80
		},
		{
		  "duration": 0.116279069767442,
		  "pitch": 72,
		  "start": 96.3662790697674,
		  "velocity": 80
		},
		{
		  "duration": 0.116279069767442,
		  "pitch": 69,
		  "start": 96.453488372093,
		  "velocity": 80
		},
		{
		  "duration": 0.116279069767442,
		  "pitch": 72,
		  "start": 96.5406976744186,
		  "velocity": 80
		},
		{
		  "duration": 0.116279069767442,
		  "pitch": 76,
		  "start": 96.7151162790698,
		  "velocity": 80
		},
		{
		  "duration": 0.116279069767442,
		  "pitch": 81,
		  "start": 96.8023255813954,
		  "velocity": 80
		},
		{
		  "duration": 0.116279069767442,
		  "pitch": 76,
		  "start": 96.8895348837209,
		  "velocity": 70
		},
		{
		  "duration": 0.116279069767442,
		  "pitch": 72,
		  "start": 97.0639534883721,
		  "velocity": 60
		},
		{
		  "duration": 0.116279069767442,
		  "pitch": 69,
		  "start": 97.1511627906977,
		  "velocity": 50
		},
		{
		  "duration": 0.116279069767442,
		  "pitch": 74,
		  "start": 156.453488372093,
		  "velocity": 80
		},
		{
		  "duration": 0.116279069767442,
		  "pitch": 74,
		  "start": 156.71511627907,
		  "velocity": 80
		},
		{
		  "duration": 0.697674418604651,
		  "pitch": 81,
		  "start": 156.802325581395,
		  "velocity": 80
		},
		{
		  "duration": 0.116279069767442,
		  "pitch": 79,
		  "start": 157.5,
		  "velocity": 80
		},
		{
		  "duration": 0.116279069767442,
		  "pitch": 81,
		  "start": 157.587209302326,
		  "velocity": 80
		},
		{
		  "duration": 0.116279069767442,
		  "pitch": 82,
		  "start": 157.761627906977,
		  "velocity": 80
		},
		{
		  "duration": 0.348837209302326,
		  "pitch": 81,
		  "start": 157.848837209302,
		  "velocity": 80
		},
		{
		  "duration": 0.348837209302326,
		  "pitch": 77,
		  "start": 158.197674418605,
		  "velocity": 80
		},
		{
		  "duration": 0.348837209302326,
		  "pitch": 79,
		  "start": 158.546511627907,
		  "velocity": 80
		},
		{
		  "duration": 0.116279069767442,
		  "pitch": 77,
		  "start": 158.895348837209,
		  "velocity": 80
		},
		{
		  "duration": 0.116279069767442,
		  "pitch": 76,
		  "start": 158.982558139535,
		  "velocity": 80
		},
		{
		  "duration": 0.116279069767442,
		  "pitch": 74,
		  "start": 159.156976744186,
		  "velocity": 80
		},
		{
		  "duration": 0.116279069767442,
		  "pitch": 76,
		  "start": 159.244186046512,
		  "velocity": 80
		},
		{
		  "duration": 0.116279069767442,
		  "pitch": 72,
		  "start": 159.505813953488,
		  "velocity": 80
		},
		{
		  "duration": 0.697674418604651,
		  "pitch": 74,
		  "start": 159.593023255814,
		  "velocity": 80
		},
		{
		  "duration": 0.116279069767442,
		  "pitch": 72,
		  "start": 160.290697674419,
		  "velocity": 80
		},
		{
		  "duration": 0.116279069767442,
		  "pitch": 74,
		  "start": 160.377906976744,
		  "velocity": 80
		},
		{
		  "duration": 0.116279069767442,
		  "pitch": 76,
		  "start": 160.552325581395,
		  "velocity": 80
		},
		{
		  "duration": 1.3953488372093,
		  "pitch": 74,
		  "start": 160.639534883721,
		  "velocity": 80
		},
		{
		  "duration": 0.116279069767442,
		  "pitch": 69,
		  "start": 162.03488372093,
		  "velocity": 80
		},
		{
		  "duration": 0.116279069767442,
		  "pitch": 69,
		  "start": 162.296511627907,
		  "velocity": 80
		},
		{
		  "duration": 0.697674418604651,
		  "pitch": 76,
		  "start": 162.383720930233,
		  "velocity": 80
		},
		{
		  "duration": 0.116279069767442,
		  "pitch": 74,
		  "start": 163.081395348837,
		  "velocity": 80
		},
		{
		  "duration": 0.116279069767442,
		  "pitch": 76,
		  "start": 163.168604651163,
		  "velocity": 80
		},
		{
		  "duration": 0.116279069767442,
		  "pitch": 77,
		  "start": 163.343023255814,
		  "velocity": 80
		},
		{
		  "duration": 0.348837209302326,
		  "pitch": 76,
		  "start": 163.43023255814,
		  "velocity": 80
		},
		{
		  "duration": 0.348837209302326,
		  "pitch": 72,
		  "start": 163.779069767442,
		  "velocity": 80
		},
		{
		  "duration": 0.348837209302326,
		  "pitch": 74,
		  "start": 164.127906976744,
		  "velocity": 80
		},
		{
		  "duration": 0.116279069767442,
		  "pitch": 72,
		  "start": 164.476744186047,
		  "velocity": 80
		},
		{
		  "duration": 0.116279069767442,
		  "pitch": 71,
		  "start": 164.563953488372,
		  "velocity": 80
		},
		{
		  "duration": 0.116279069767442,
		  "pitch": 69,
		  "start": 164.738372093023,
		  "velocity": 80
		},
		{
		  "duration": 0.116279069767442,
		  "pitch": 71,
		  "start": 164.825581395349,
		  "velocity": 80
		},
		{
		  "duration": 0.116279069767442,
		  "pitch": 67,
		  "start": 165.087209302326,
		  "velocity": 80
		},
		{
		  "duration": 0.697674418604651,
		  "pitch": 69,
		  "start": 165.174418604651,
		  "velocity": 80
		},
		{
		  "duration": 0.116279069767442,
		  "pitch": 67,
		  "start": 165.872093023256,
		  "velocity": 80
		},
		{
		  "duration": 0.116279069767442,
		  "pitch": 69,
		  "start": 165.959302325581,
		  "velocity": 80
		},
		{
		  "duration": 0.116279069767442,
		  "pitch": 71,
		  "start": 166.133720930233,
		  "velocity": 80
		},
		{
		  "duration": 1.3953488372093,
		  "pitch": 69,
		  "start": 166.220930232558,
		  "velocity": 80
		},
		{
		  "duration": 0.116279069767442,
		  "pitch": 74,
		  "start": 167.616279069767,
		  "velocity": 80
		},
		{
		  "duration": 0.116279069767442,
		  "pitch": 74,
		  "start": 167.877906976744,
		  "velocity": 80
		},
		{
		  "duration": 0.697674418604651,
		  "pitch": 81,
		  "start": 167.96511627907,
		  "velocity": 80
		},
		{
		  "duration": 0.116279069767442,
		  "pitch": 79,
		  "start": 168.662790697674,
		  "velocity": 80
		},
		{
		  "duration": 0.116279069767442,
		  "pitch": 81,
		  "start": 168.75,
		  "velocity": 80
		},
		{
		  "duration": 0.116279069767442,
		  "pitch": 82,
		  "start": 168.924418604651,
		  "velocity": 80
		},
		{
		  "duration": 0.348837209302326,
		  "pitch": 81,
		  "start": 169.011627906977,
		  "velocity": 80
		},
		{
		  "duration": 0.348837209302326,
		  "pitch": 77,
		  "start": 169.360465116279,
		  "velocity": 80
		},
		{
		  "duration": 0.348837209302326,
		  "pitch": 79,
		  "start": 169.709302325581,
		  "velocity": 80
		},
		{
		  "duration": 0.116279069767442,
		  "pitch": 77,
		  "start": 170.058139534884,
		  "velocity": 80
		},
		{
		  "duration": 0.116279069767442,
		  "pitch": 76,
		  "start": 170.145348837209,
		  "velocity": 80
		},
		{
		  "duration": 0.116279069767442,
		  "pitch": 74,
		  "start": 170.31976744186,
		  "velocity": 80
		},
		{
		  "duration": 0.116279069767442,
		  "pitch": 76,
		  "start": 170.406976744186,
		  "velocity": 80
		},
		{
		  "duration": 0.116279069767442,
		  "pitch": 72,
		  "start": 170.668604651163,
		  "velocity": 80
		},
		{
		  "duration": 0.697674418604651,
		  "pitch": 74,
		  "start": 170.755813953488,
		  "velocity": 80
		},
		{
		  "duration": 0.116279069767442,
		  "pitch": 72,
		  "start": 171.453488372093,
		  "velocity": 80
		},
		{
		  "duration": 0.116279069767442,
		  "pitch": 74,
		  "start": 171.540697674419,
		  "velocity": 80
		},
		{
		  "duration": 0.116279069767442,
		  "pitch": 76,
		  "start": 171.71511627907,
		  "velocity": 80
		},
		{
		  "duration": 1.3953488372093,
		  "pitch": 74,
		  "start": 171.802325581395,
		  "velocity": 80
		},
		{
		  "duration": 0.116279069767442,
		  "pitch": 69,
		  "start": 173.197674418605,
		  "velocity": 80
		},
		{
		  "duration": 0.116279069767442,
		  "pitch": 69,
		  "start": 173.459302325581,
		  "velocity": 80
		},
		{
		  "duration": 0.697674418604651,
		  "pitch": 76,
		  "start": 173.546511627907,
		  "velocity": 80
		},
		{
		  "duration": 0.116279069767442,
		  "pitch": 74,
		  "start": 174.244186046512,
		  "velocity": 80
		},
		{
		  "duration": 0.116279069767442,
		  "pitch": 76,
		  "start": 174.331395348837,
		  "velocity": 80
		},
		{
		  "duration": 0.116279069767442,
		  "pitch": 77,
		  "start": 174.505813953488,
		  "velocity": 80
		},
		{
		  "duration": 0.348837209302326,
		  "pitch": 76,
		  "start": 174.593023255814,
		  "velocity": 80
		},
		{
		  "duration": 0.348837209302326,
		  "pitch": 72,
		  "start": 174.941860465116,
		  "velocity": 80
		},
		{
		  "duration": 0.348837209302326,
		  "pitch": 74,
		  "start": 175.290697674419,
		  "velocity": 80
		},
		{
		  "duration": 0.116279069767442,
		  "pitch": 72,
		  "start": 175.639534883721,
		  "velocity": 80
		},
		{
		  "duration": 0.116279069767442,
		  "pitch": 71,
		  "start": 175.726744186047,
		  "velocity": 80
		},
		{
		  "duration": 0.116279069767442,
		  "pitch": 69,
		  "start": 175.901162790698,
		  "velocity": 80
		},
		{
		  "duration": 0.116279069767442,
		  "pitch": 71,
		  "start": 175.988372093023,
		  "velocity": 80
		},
		{
		  "duration": 0.116279069767442,
		  "pitch": 67,
		  "start": 176.25,
		  "velocity": 80
		},
		{
		  "duration": 0.697674418604651,
		  "pitch": 69,
		  "start": 176.337209302326,
		  "velocity": 80
		},
		{
		  "duration": 0.116279069767442,
		  "pitch": 67,
		  "start": 177.03488372093,
		  "velocity": 80
		},
		{
		  "duration": 0.116279069767442,
		  "pitch": 69,
		  "start": 177.122093023256,
		  "velocity": 80
		},
		{
		  "duration": 0.116279069767442,
		  "pitch": 71,
		  "start": 177.296511627907,
		  "velocity": 80
		},
		{
		  "duration": 1.3953488372093,
		  "pitch": 69,
		  "start": 177.383720930233,
		  "velocity": 80
		},
		{
		  "duration": 0.116279069767442,
		  "pitch": 74,
		  "start": 178.779069767442,
		  "velocity": 80
		},
		{
		  "duration": 0.116279069767442,
		  "pitch": 74,
		  "start": 179.040697674419,
		  "velocity": 80
		},
		{
		  "duration": 0.697674418604651,
		  "pitch": 81,
		  "start": 179.127906976744,
		  "velocity": 80
		},
		{
		  "duration": 0.116279069767442,
		  "pitch": 79,
		  "start": 179.825581395349,
		  "velocity": 80
		},
		{
		  "duration": 0.116279069767442,
		  "pitch": 81,
		  "start": 179.912790697674,
		  "velocity": 80
		},
		{
		  "duration": 0.116279069767442,
		  "pitch": 82,
		  "start": 180.087209302326,
		  "velocity": 80
		},
		{
		  "duration": 0.348837209302326,
		  "pitch": 81,
		  "start": 180.174418604651,
		  "velocity": 80
		},
		{
		  "duration": 0.348837209302326,
		  "pitch": 77,
		  "start": 180.523255813953,
		  "velocity": 80
		},
		{
		  "duration": 0.348837209302326,
		  "pitch": 79,
		  "start": 180.872093023256,
		  "velocity": 80
		},
		{
		  "duration": 0.116279069767442,
		  "pitch": 77,
		  "start": 181.220930232558,
		  "velocity": 80
		},
		{
		  "duration": 0.116279069767442,
		  "pitch": 76,
		  "start": 181.308139534884,
		  "velocity": 80
		},
		{
		  "duration": 0.116279069767442,
		  "pitch": 74,
		  "start": 181.482558139535,
		  "velocity": 80
		},
		{
		  "duration": 0.116279069767442,
		  "pitch": 76,
		  "start": 181.56976744186,
		  "velocity": 80
		},
		{
		  "duration": 0.116279069767442,
		  "pitch": 72,
		  "start": 181.831395348837,
		  "velocity": 80
		},
		{
		  "duration": 0.697674418604651,
		  "pitch": 74,
		  "start": 181.918604651163,
		  "velocity": 80
		},
		{
		  "duration": 0.116279069767442,
		  "pitch": 72,
		  "start": 182.616279069767,
		  "velocity": 80
		},
		{
		  "duration": 0.116279069767442,
		  "pitch": 74,
		  "start": 182.703488372093,
		  "velocity": 80
		},
		{
		  "duration": 0.116279069767442,
		  "pitch": 76,
		  "start": 182.877906976744,
		  "velocity": 80
		},
		{
		  "duration": 1.3953488372093,
		  "pitch": 74,
		  "start": 182.96511627907,
		  "velocity": 80
		},
		{
		  "duration": 0.116279069767442,
		  "pitch": 69,
		  "start": 184.360465116279,
		  "velocity": 80
		},
		{
		  "duration": 0.116279069767442,
		  "pitch": 69,
		  "start": 184.622093023256,
		  "velocity": 80
		},
		{
		  "duration": 0.697674418604651,
		  "pitch": 76,
		  "start": 184.709302325581,
		  "velocity": 80
		},
		{
		  "duration": 0.116279069767442,
		  "pitch": 74,
		  "start": 185.406976744186,
		  "velocity": 80
		},
		{
		  "duration": 0.116279069767442,
		  "pitch": 76,
		  "start": 185.494186046512,
		  "velocity": 80
		},
		{
		  "duration": 0.116279069767442,
		  "pitch": 77,
		  "start": 185.668604651163,
		  "velocity": 80
		},
		{
		  "duration": 0.348837209302326,
		  "pitch": 76,
		  "start": 185.755813953488,
		  "velocity": 80
		},
		{
		  "duration": 0.348837209302326,
		  "pitch": 72,
		  "start": 186.104651162791,
		  "velocity": 80
		},
		{
		  "duration": 0.348837209302326,
		  "pitch": 74,
		  "start": 186.453488372093,
		  "velocity": 80
		},
		{
		  "duration": 0.116279069767442,
		  "pitch": 72,
		  "start": 186.802325581395,
		  "velocity": 80
		},
		{
		  "duration": 0.116279069767442,
		  "pitch": 71,
		  "start": 186.889534883721,
		  "velocity": 80
		},
		{
		  "duration": 0.116279069767442,
		  "pitch": 69,
		  "start": 187.063953488372,
		  "velocity": 80
		},
		{
		  "duration": 0.116279069767442,
		  "pitch": 67,
		  "start": 187.151162790698,
		  "velocity": 80
		},
		{
		  "duration": 0.116279069767442,
		  "pitch": 72,
		  "start": 187.238372093023,
		  "velocity": 80
		},
		{
		  "duration": 0.116279069767442,
		  "pitch": 76,
		  "start": 187.412790697674,
		  "velocity": 80
		},
		{
		  "duration": 0.116279069767442,
		  "pitch": 79,
		  "start": 187.5,
		  "velocity": 80
		},
		{
		  "duration": 0.116279069767442,
		  "pitch": 84,
		  "start": 187.587209302326,
		  "velocity": 80
		},
		{
		  "duration": 0.116279069767442,
		  "pitch": 88,
		  "start": 187.761627906977,
		  "velocity": 80
		},
		{
		  "duration": 0.116279069767442,
		  "pitch": 90,
		  "start": 187.848837209302,
		  "velocity": 80
		},
		{
		  "duration": 0.116279069767442,
		  "pitch": 86,
		  "start": 187.936046511628,
		  "velocity": 80
		},
		{
		  "duration": 0.116279069767442,
		  "pitch": 81,
		  "start": 188.110465116279,
		  "velocity": 80
		},
		{
		  "duration": 0.116279069767442,
		  "pitch": 78,
		  "start": 188.197674418605,
		  "velocity": 80
		},
		{
		  "duration": 0.116279069767442,
		  "pitch": 74,
		  "start": 188.28488372093,
		  "velocity": 80
		},
		{
		  "duration": 0.0872093023255814,
		  "pitch": 69,
		  "start": 188.459302325581,
		  "velocity": 80
		},
		{
		  "duration": 0.0290697674418605,
		  "pitch": 69,
		  "start": 188.546511627907,
		  "velocity": 80
		},
		{
		  "duration": 0.116279069767442,
		  "pitch": 72,
		  "start": 188.633720930233,
		  "velocity": 80
		},
		{
		  "duration": 0.116279069767442,
		  "pitch": 76,
		  "start": 188.808139534884,
		  "velocity": 80
		},
		{
		  "duration": 0.116279069767442,
		  "pitch": 81,
		  "start": 188.895348837209,
		  "velocity": 80
		},
		{
		  "duration": 0.116279069767442,
		  "pitch": 84,
		  "start": 188.982558139535,
		  "velocity": 80
		},
		{
		  "duration": 0.116279069767442,
		  "pitch": 88,
		  "start": 189.156976744186,
		  "velocity": 80
		},
		{
		  "duration": 0.116279069767442,
		  "pitch": 92,
		  "start": 189.244186046512,
		  "velocity": 80
		},
		{
		  "duration": 0.116279069767442,
		  "pitch": 88,
		  "start": 189.331395348837,
		  "velocity": 80
		},
		{
		  "duration": 0.116279069767442,
		  "pitch": 84,
		  "start": 189.505813953488,
		  "velocity": 80
		},
		{
		  "duration": 0.116279069767442,
		  "pitch": 80,
		  "start": 189.593023255814,
		  "velocity": 80
		},
		{
		  "duration": 0.116279069767442,
		  "pitch": 76,
		  "start": 189.68023255814,
		  "velocity": 80
		},
		{
		  "duration": 0.116279069767442,
		  "pitch": 72,
		  "start": 189.854651162791,
		  "velocity": 80
		},
		{
		  "duration": 0.116279069767442,
		  "pitch": 69,
		  "start": 189.941860465116,
		  "velocity": 80
		},
		{
		  "duration": 0.116279069767442,
		  "pitch": 72,
		  "start": 190.029069767442,
		  "velocity": 80
		},
		{
		  "duration": 0.116279069767442,
		  "pitch": 76,
		  "start": 190.203488372093,
		  "velocity": 80
		},
		{
		  "duration": 0.116279069767442,
		  "pitch": 81,
		  "start": 190.290697674419,
		  "velocity": 80
		},
		{
		  "duration": 0.116279069767442,
		  "pitch": 84,
		  "start": 190.377906976744,
		  "velocity": 80
		},
		{
		  "duration": 0.116279069767442,
		  "pitch": 88,
		  "start": 190.552325581395,
		  "velocity": 80
		},
		{
		  "duration": 0.116279069767442,
		  "pitch": 93,
		  "start": 190.639534883721,
		  "velocity": 80
		},
		{
		  "duration": 0.116279069767442,
		  "pitch": 88,
		  "start": 190.726744186047,
		  "velocity": 80
		},
		{
		  "duration": 0.116279069767442,
		  "pitch": 84,
		  "start": 190.901162790698,
		  "velocity": 80
		},
		{
		  "duration": 0.116279069767442,
		  "pitch": 81,
		  "start": 190.988372093023,
		  "velocity": 80
		},
		{
		  "duration": 0.116279069767442,
		  "pitch": 76,
		  "start": 191.075581395349,
		  "velocity": 80
		},
		{
		  "duration": 0.116279069767442,
		  "pitch": 72,
		  "start": 191.25,
		  "velocity": 80
		},
		{
		  "duration": 0.116279069767442,
		  "pitch": 69,
		  "start": 191.337209302326,
		  "velocity": 80
		},
		{
		  "duration": 0.116279069767442,
		  "pitch": 72,
		  "start": 191.424418604651,
		  "velocity": 80
		},
		{
		  "duration": 0.116279069767442,
		  "pitch": 76,
		  "start": 191.598837209302,
		  "velocity": 80
		},
		{
		  "duration": 0.116279069767442,
		  "pitch": 81,
		  "start": 191.686046511628,
		  "velocity": 80
		},
		{
		  "duration": 0.116279069767442,
		  "pitch": 76,
		  "start": 191.773255813953,
		  "velocity": 70
		},
		{
		  "duration": 0.116279069767442,
		  "pitch": 72,
		  "start": 191.947674418605,
		  "velocity": 60
		},
		{
		  "duration": 0.116279069767442,
		  "pitch": 69,
		  "start": 192.03488372093,
		  "velocity": 50
		},
		{
		  "duration": 0.116279069767442,
		  "pitch": 74,
		  "start": 251.337209302326,
		  "velocity": 80
		},
		{
		  "duration": 0.116279069767442,
		  "pitch": 74,
		  "start": 251.598837209302,
		  "velocity": 80
		},
		{
		  "duration": 0.697674418604651,
		  "pitch": 81,
		  "start": 251.686046511628,
		  "velocity": 80
		},
		{
		  "duration": 0.116279069767442,
		  "pitch": 79,
		  "start": 252.383720930233,
		  "velocity": 80
		},
		{
		  "duration": 0.116279069767442,
		  "pitch": 81,
		  "start": 252.470930232558,
		  "velocity": 80
		},
		{
		  "duration": 0.116279069767442,
		  "pitch": 82,
		  "start": 252.645348837209,
		  "velocity": 80
		},
		{
		  "duration": 0.348837209302326,
		  "pitch": 81,
		  "start": 252.732558139535,
		  "velocity": 80
		},
		{
		  "duration": 0.348837209302326,
		  "pitch": 77,
		  "start": 253.081395348837,
		  "velocity": 80
		},
		{
		  "duration": 0.348837209302326,
		  "pitch": 79,
		  "start": 253.43023255814,
		  "velocity": 80
		},
		{
		  "duration": 0.116279069767442,
		  "pitch": 77,
		  "start": 253.779069767442,
		  "velocity": 80
		},
		{
		  "duration": 0.116279069767442,
		  "pitch": 76,
		  "start": 253.866279069767,
		  "velocity": 80
		},
		{
		  "duration": 0.116279069767442,
		  "pitch": 74,
		  "start": 254.040697674419,
		  "velocity": 80
		},
		{
		  "duration": 0.116279069767442,
		  "pitch": 76,
		  "start": 254.127906976744,
		  "velocity": 80
		},
		{
		  "duration": 0.116279069767442,
		  "pitch": 72,
		  "start": 254.389534883721,
		  "velocity": 80
		},
		{
		  "duration": 0.697674418604651,
		  "pitch": 74,
		  "start": 254.476744186047,
		  "velocity": 80
		},
		{
		  "duration": 0.116279069767442,
		  "pitch": 72,
		  "start": 255.174418604651,
		  "velocity": 80
		},
		{
		  "duration": 0.116279069767442,
		  "pitch": 74,
		  "start": 255.261627906977,
		  "velocity": 80
		},
		{
		  "duration": 0.116279069767442,
		  "pitch": 76,
		  "start": 255.436046511628,
		  "velocity": 80
		},
		{
		  "duration": 1.3953488372093,
		  "pitch": 74,
		  "start": 255.523255813953,
		  "velocity": 80
		},
		{
		  "duration": 0.116279069767442,
		  "pitch": 69,
		  "start": 256.918604651163,
		  "velocity": 80
		},
		{
		  "duration": 0.116279069767442,
		  "pitch": 69,
		  "start": 257.18023255814,
		  "velocity": 80
		},
		{
		  "duration": 0.697674418604651,
		  "pitch": 76,
		  "start": 257.267441860465,
		  "velocity": 80
		},
		{
		  "duration": 0.116279069767442,
		  "pitch": 74,
		  "start": 257.96511627907,
		  "velocity": 80
		},
		{
		  "duration": 0.116279069767442,
		  "pitch": 76,
		  "start": 258.052325581395,
		  "velocity": 80
		},
		{
		  "duration": 0.116279069767442,
		  "pitch": 77,
		  "start": 258.226744186047,
		  "velocity": 80
		},
		{
		  "duration": 0.348837209302326,
		  "pitch": 76,
		  "start": 258.313953488372,
		  "velocity": 80
		},
		{
		  "duration": 0.348837209302326,
		  "pitch": 72,
		  "start": 258.662790697674,
		  "velocity": 80
		},
		{
		  "duration": 0.348837209302326,
		  "pitch": 74,
		  "start": 259.011627906977,
		  "velocity": 80
		},
		{
		  "duration": 0.116279069767442,
		  "pitch": 72,
		  "start": 259.360465116279,
		  "velocity": 80
		},
		{
		  "duration": 0.116279069767442,
		  "pitch": 71,
		  "start": 259.447674418605,
		  "velocity": 80
		},
		{
		  "duration": 0.116279069767442,
		  "pitch": 69,
		  "start": 259.622093023256,
		  "velocity": 80
		},
		{
		  "duration": 0.116279069767442,
		  "pitch": 71,
		  "start": 259.709302325581,
		  "velocity": 80
		},
		{
		  "duration": 0.116279069767442,
		  "pitch": 67,
		  "start": 259.970930232558,
		  "velocity": 80
		},
		{
		  "duration": 0.697674418604651,
		  "pitch": 69,
		  "start": 260.058139534884,
		  "velocity": 80
		},
		{
		  "duration": 0.116279069767442,
		  "pitch": 67,
		  "start": 260.755813953488,
		  "velocity": 80
		},
		{
		  "duration": 0.116279069767442,
		  "pitch": 69,
		  "start": 260.843023255814,
		  "velocity": 80
		},
		{
		  "duration": 0.116279069767442,
		  "pitch": 71,
		  "start": 261.017441860465,
		  "velocity": 80
		},
		{
		  "duration": 1.3953488372093,
		  "pitch": 69,
		  "start": 261.104651162791,
		  "velocity": 80
		},
		{
		  "duration": 0.116279069767442,
		  "pitch": 74,
		  "start": 262.5,
		  "velocity": 80
		},
		{
		  "duration": 0.116279069767442,
		  "pitch": 74,
		  "start": 262.761627906977,
		  "velocity": 80
		},
		{
		  "duration": 0.697674418604651,
		  "pitch": 81,
		  "start": 262.848837209302,
		  "velocity": 80
		},
		{
		  "duration": 0.116279069767442,
		  "pitch": 79,
		  "start": 263.546511627907,
		  "velocity": 80
		},
		{
		  "duration": 0.116279069767442,
		  "pitch": 81,
		  "start": 263.633720930233,
		  "velocity": 80
		},
		{
		  "duration": 0.116279069767442,
		  "pitch": 82,
		  "start": 263.808139534884,
		  "velocity": 80
		},
		{
		  "duration": 0.348837209302326,
		  "pitch": 81,
		  "start": 263.895348837209,
		  "velocity": 80
		},
		{
		  "duration": 0.348837209302326,
		  "pitch": 77,
		  "start": 264.244186046512,
		  "velocity": 80
		},
		{
		  "duration": 0.348837209302326,
		  "pitch": 79,
		  "start": 264.593023255814,
		  "velocity": 80
		},
		{
		  "duration": 0.116279069767442,
		  "pitch": 77,
		  "start": 264.941860465116,
		  "velocity": 80
		},
		{
		  "duration": 0.116279069767442,
		  "pitch": 76,
		  "start": 265.029069767442,
		  "velocity": 80
		},
		{
		  "duration": 0.116279069767442,
		  "pitch": 74,
		  "start": 265.203488372093,
		  "velocity": 80
		},
		{
		  "duration": 0.116279069767442,
		  "pitch": 76,
		  "start": 265.290697674419,
		  "velocity": 80
		},
		{
		  "duration": 0.116279069767442,
		  "pitch": 72,
		  "start": 265.552325581395,
		  "velocity": 80
		},
		{
		  "duration": 0.697674418604651,
		  "pitch": 74,
		  "start": 265.639534883721,
		  "velocity": 80
		},
		{
		  "duration": 0.116279069767442,
		  "pitch": 72,
		  "start": 266.337209302326,
		  "velocity": 80
		},
		{
		  "duration": 0.116279069767442,
		  "pitch": 74,
		  "start": 266.424418604651,
		  "velocity": 80
		},
		{
		  "duration": 0.116279069767442,
		  "pitch": 76,
		  "start": 266.598837209302,
		  "velocity": 80
		},
		{
		  "duration": 1.3953488372093,
		  "pitch": 74,
		  "start": 266.686046511628,
		  "velocity": 80
		},
		{
		  "duration": 0.116279069767442,
		  "pitch": 69,
		  "start": 268.081395348837,
		  "velocity": 80
		},
		{
		  "duration": 0.116279069767442,
		  "pitch": 69,
		  "start": 268.343023255814,
		  "velocity": 80
		},
		{
		  "duration": 0.697674418604651,
		  "pitch": 76,
		  "start": 268.43023255814,
		  "velocity": 80
		},
		{
		  "duration": 0.116279069767442,
		  "pitch": 74,
		  "start": 269.127906976744,
		  "velocity": 80
		},
		{
		  "duration": 0.116279069767442,
		  "pitch": 76,
		  "start": 269.21511627907,
		  "velocity": 80
		},
		{
		  "duration": 0.116279069767442,
		  "pitch": 77,
		  "start": 269.389534883721,
		  "velocity": 80
		},
		{
		  "duration": 0.348837209302326,
		  "pitch": 76,
		  "start": 269.476744186047,
		  "velocity": 80
		},
		{
		  "duration": 0.348837209302326,
		  "pitch": 72,
		  "start": 269.825581395349,
		  "velocity": 80
		},
		{
		  "duration": 0.348837209302326,
		  "pitch": 74,
		  "start": 270.174418604651,
		  "velocity": 80
		},
		{
		  "duration": 0.116279069767442,
		  "pitch": 72,
		  "start": 270.523255813953,
		  "velocity": 80
		},
		{
		  "duration": 0.116279069767442,
		  "pitch": 71,
		  "start": 270.610465116279,
		  "velocity": 80
		},
		{
		  "duration": 0.116279069767442,
		  "pitch": 69,
		  "start": 270.78488372093,
		  "velocity": 80
		},
		{
		  "duration": 0.116279069767442,
		  "pitch": 71,
		  "start": 270.872093023256,
		  "velocity": 80
		},
		{
		  "duration": 0.116279069767442,
		  "pitch": 67,
		  "start": 271.133720930233,
		  "velocity": 80
		},
		{
		  "duration": 0.697674418604651,
		  "pitch": 69,
		  "start": 271.220930232558,
		  "velocity": 80
		},
		{
		  "duration": 0.116279069767442,
		  "pitch": 67,
		  "start": 271.918604651163,
		  "velocity": 80
		},
		{
		  "duration": 0.116279069767442,
		  "pitch": 69,
		  "start": 272.005813953488,
		  "velocity": 80
		},
		{
		  "duration": 0.116279069767442,
		  "pitch": 71,
		  "start": 272.18023255814,
		  "velocity": 80
		},
		{
		  "duration": 1.3953488372093,
		  "pitch": 69,
		  "start": 272.267441860465,
		  "velocity": 80
		},
		{
		  "duration": 0.116279069767442,
		  "pitch": 74,
		  "start": 273.662790697674,
		  "velocity": 80
		},
		{
		  "duration": 0.116279069767442,
		  "pitch": 74,
		  "start": 273.924418604651,
		  "velocity": 80
		},
		{
		  "duration": 0.697674418604651,
		  "pitch": 81,
		  "start": 274.011627906977,
		  "velocity": 80
		},
		{
		  "duration": 0.116279069767442,
		  "pitch": 79,
		  "start": 274.709302325581,
		  "velocity": 80
		},
		{
		  "duration": 0.116279069767442,
		  "pitch": 81,
		  "start": 274.796511627907,
		  "velocity": 80
		},
		{
		  "duration": 0.116279069767442,
		  "pitch": 82,
		  "start": 274.970930232558,
		  "velocity": 80
		},
		{
		  "duration": 0.348837209302326,
		  "pitch": 81,
		  "start": 275.058139534884,
		  "velocity": 80
		},
		{
		  "duration": 0.348837209302326,
		  "pitch": 77,
		  "start": 275.406976744186,
		  "velocity": 80
		},
		{
		  "duration": 0.348837209302326,
		  "pitch": 79,
		  "start": 275.755813953488,
		  "velocity": 80
		},
		{
		  "duration": 0.116279069767442,
		  "pitch": 77,
		  "start": 276.104651162791,
		  "velocity": 80
		},
		{
		  "duration": 0.116279069767442,
		  "pitch": 76,
		  "start": 276.191860465116,
		  "velocity": 80
		},
		{
		  "duration": 0.116279069767442,
		  "pitch": 74,
		  "start": 276.366279069767,
		  "velocity": 80
		},
		{
		  "duration": 0.116279069767442,
		  "pitch": 76,
		  "start": 276.453488372093,
		  "velocity": 80
		},
		{
		  "duration": 0.116279069767442,
		  "pitch": 72,
		  "start": 276.71511627907,
		  "velocity": 80
		},
		{
		  "duration": 0.697674418604651,
		  "pitch": 74,
		  "start": 276.802325581395,
		  "velocity": 80
		},
		{
		  "duration": 0.116279069767442,
		  "pitch": 72,
		  "start": 277.5,
		  "velocity": 80
		},
		{
		  "duration": 0.116279069767442,
		  "pitch": 74,
		  "start": 277.587209302326,
		  "velocity": 80
		},
		{
		  "duration": 0.116279069767442,
		  "pitch": 76,
		  "start": 277.761627906977,
		  "velocity": 80
		},
		{
		  "duration": 1.3953488372093,
		  "pitch": 74,
		  "start": 277.848837209302,
		  "velocity": 80
		},
		{
		  "duration": 0.116279069767442,
		  "pitch": 69,
		  "start": 279.244186046512,
		  "velocity": 80
		},
		{
		  "duration": 0.116279069767442,
		  "pitch": 69,
		  "start": 279.505813953488,
		  "velocity": 80
		},
		{
		  "duration": 0.697674418604651,
		  "pitch": 76,
		  "start": 279.593023255814,
		  "velocity": 80
		},
		{
		  "duration": 0.116279069767442,
		  "pitch": 74,
		  "start": 280.290697674419,
		  "velocity": 80
		},
		{
		  "duration": 0.116279069767442,
		  "pitch": 76,
		  "start": 280.377906976744,
		  "velocity": 80
		},
		{
		  "duration": 0.116279069767442,
		  "pitch": 77,
		  "start": 280.552325581395,
		  "velocity": 80
		},
		{
		  "duration": 0.348837209302326,
		  "pitch": 76,
		  "start": 280.639534883721,
		  "velocity": 80
		},
		{
		  "duration": 0.348837209302326,
		  "pitch": 72,
		  "start": 280.988372093023,
		  "velocity": 80
		},
		{
		  "duration": 0.348837209302326,
		  "pitch": 74,
		  "start": 281.337209302326,
		  "velocity": 80
		},
		{
		  "duration": 0.116279069767442,
		  "pitch": 72,
		  "start": 281.686046511628,
		  "velocity": 80
		},
		{
		  "duration": 0.116279069767442,
		  "pitch": 71,
		  "start": 281.773255813953,
		  "velocity": 80
		},
		{
		  "duration": 0.116279069767442,
		  "pitch": 69,
		  "start": 281.947674418605,
		  "velocity": 80
		},
		{
		  "duration": 0.116279069767442,
		  "pitch": 67,
		  "start": 282.03488372093,
		  "velocity": 80
		},
		{
		  "duration": 0.116279069767442,
		  "pitch": 72,
		  "start": 282.122093023256,
		  "velocity": 80
		},
		{
		  "duration": 0.116279069767442,
		  "pitch": 76,
		  "start": 282.296511627907,
		  "velocity": 80
		},
		{
		  "duration": 0.116279069767442,
		  "pitch": 79,
		  "start": 282.383720930233,
		  "velocity": 80
		},
		{
		  "duration": 0.116279069767442,
		  "pitch": 84,
		  "start": 282.470930232558,
		  "velocity": 80
		},
		{
		  "duration": 0.116279069767442,
		  "pitch": 88,
		  "start": 282.645348837209,
		  "velocity": 80
		},
		{
		  "duration": 0.116279069767442,
		  "pitch": 90,
		  "start": 282.732558139535,
		  "velocity": 80
		},
		{
		  "duration": 0.116279069767442,
		  "pitch": 86,
		  "start": 282.81976744186,
		  "velocity": 80
		},
		{
		  "duration": 0.116279069767442,
		  "pitch": 81,
		  "start": 282.994186046512,
		  "velocity": 80
		},
		{
		  "duration": 0.116279069767442,
		  "pitch": 78,
		  "start": 283.081395348837,
		  "velocity": 80
		},
		{
		  "duration": 0.116279069767442,
		  "pitch": 74,
		  "start": 283.168604651163,
		  "velocity": 80
		},
		{
		  "duration": 0.0872093023255814,
		  "pitch": 69,
		  "start": 283.343023255814,
		  "velocity": 80
		},
		{
		  "duration": 0.0290697674418605,
		  "pitch": 69,
		  "start": 283.43023255814,
		  "velocity": 80
		},
		{
		  "duration": 0.116279069767442,
		  "pitch": 72,
		  "start": 283.517441860465,
		  "velocity": 80
		},
		{
		  "duration": 0.116279069767442,
		  "pitch": 76,
		  "start": 283.691860465116,
		  "velocity": 80
		},
		{
		  "duration": 0.116279069767442,
		  "pitch": 81,
		  "start": 283.779069767442,
		  "velocity": 80
		},
		{
		  "duration": 0.116279069767442,
		  "pitch": 84,
		  "start": 283.866279069767,
		  "velocity": 80
		},
		{
		  "duration": 0.116279069767442,
		  "pitch": 88,
		  "start": 284.040697674419,
		  "velocity": 80
		},
		{
		  "duration": 0.116279069767442,
		  "pitch": 92,
		  "start": 284.127906976744,
		  "velocity": 80
		},
		{
		  "duration": 0.116279069767442,
		  "pitch": 88,
		  "start": 284.21511627907,
		  "velocity": 80
		},
		{
		  "duration": 0.116279069767442,
		  "pitch": 84,
		  "start": 284.389534883721,
		  "velocity": 80
		},
		{
		  "duration": 0.116279069767442,
		  "pitch": 80,
		  "start": 284.476744186047,
		  "velocity": 80
		},
		{
		  "duration": 0.116279069767442,
		  "pitch": 76,
		  "start": 284.563953488372,
		  "velocity": 80
		},
		{
		  "duration": 0.116279069767442,
		  "pitch": 72,
		  "start": 284.738372093023,
		  "velocity": 80
		},
		{
		  "duration": 0.116279069767442,
		  "pitch": 69,
		  "start": 284.825581395349,
		  "velocity": 80
		},
		{
		  "duration": 0.116279069767442,
		  "pitch": 72,
		  "start": 284.912790697674,
		  "velocity": 80
		},
		{
		  "duration": 0.116279069767442,
		  "pitch": 76,
		  "start": 285.087209302326,
		  "velocity": 80
		},
		{
		  "duration": 0.116279069767442,
		  "pitch": 81,
		  "start": 285.174418604651,
		  "velocity": 80
		},
		{
		  "duration": 0.116279069767442,
		  "pitch": 84,
		  "start": 285.261627906977,
		  "velocity": 80
		},
		{
		  "duration": 0.116279069767442,
		  "pitch": 88,
		  "start": 285.436046511628,
		  "velocity": 80
		},
		{
		  "duration": 0.116279069767442,
		  "pitch": 93,
		  "start": 285.523255813953,
		  "velocity": 80
		},
		{
		  "duration": 0.116279069767442,
		  "pitch": 88,
		  "start": 285.610465116279,
		  "velocity": 80
		},
		{
		  "duration": 0.116279069767442,
		  "pitch": 84,
		  "start": 285.78488372093,
		  "velocity": 80
		},
		{
		  "duration": 0.116279069767442,
		  "pitch": 81,
		  "start": 285.872093023256,
		  "velocity": 80
		},
		{
		  "duration": 0.116279069767442,
		  "pitch": 76,
		  "start": 285.959302325581,
		  "velocity": 80
		},
		{
		  "duration": 0.116279069767442,
		  "pitch": 72,
		  "start": 286.133720930233,
		  "velocity": 80
		},
		{
		  "duration": 0.116279069767442,
		  "pitch": 69,
		  "start": 286.220930232558,
		  "velocity": 80
		},
		{
		  "duration": 0.116279069767442,
		  "pitch": 72,
		  "start": 286.308139534884,
		  "velocity": 80
		},
		{
		  "duration": 0.116279069767442,
		  "pitch": 76,
		  "start": 286.482558139535,
		  "velocity": 80
		},
		{
		  "duration": 0.116279069767442,
		  "pitch": 81,
		  "start": 286.56976744186,
		  "velocity": 80
		},
		{
		  "duration": 0.116279069767442,
		  "pitch": 76,
		  "start": 286.656976744186,
		  "velocity": 70
		},
		{
		  "duration": 0.116279069767442,
		  "pitch": 72,
		  "start": 286.831395348837,
		  "velocity": 60
		},
		{
		  "duration": 0.116279069767442,
		  "pitch": 69,
		  "start": 286.918604651163,
		  "velocity": 50
		}
	  ]
	},
	{
	  "cc_events": [
		{
		  "controller": 7,
		  "time": 0.0,
		  "value": 110
		},
		{
		  "controller": 10,
		  "time": 0.0,
		  "value": 63
		},
		{
		  "controller": 10,
		  "time": 94.8837209302326,
		  "value": 63
		},
		{
		  "controller": 10,
		  "time": 189.767441860465,
		  "value": 63
		},
		{
		  "controller": 10,
		  "time": 284.651162790698,
		  "value": 63
		}
	  ],
	  "channel": 9,
	  "instrument": 8,
	  "name": "Drums",
	  "notes": [
		{
		  "duration": 0.0436046511627907,
		  "pitch": 38,
		  "start": 0.0,
		  "velocity": 80
		},
		{
		  "duration": 0.0436046511627907,
		  "pitch": 49,
		  "start": 0.0,
		  "velocity": 80
		},
		{
		  "duration": 0.0436046511627907,
		  "pitch": 36,
		  "start": 0.0,
		  "velocity": 80
		},
		{
		  "duration": 0.0436046511627907,
		  "pitch": 46,
		  "start": 0.0,
		  "velocity": 80
		},
		{
		  "duration": 0.0436046511627907,
		  "pitch": 46,
		  "start": 0.348837209302326,
		  "velocity": 80
		},
		{
		  "duration": 0.0436046511627907,
		  "pitch": 46,
		  "start": 0.697674418604651,
		  "velocity": 80
		},
		{
		  "duration": 0.0436046511627907,
		  "pitch": 46,
		  "start": 1.04651162790698,
		  "velocity": 80
		},
		{
		  "duration": 0.0436046511627907,
		  "pitch": 46,
		  "start": 1.3953488372093,
		  "velocity": 80
		},
		{
		  "duration": 0.0436046511627907,
		  "pitch": 46,
		  "start": 1.74418604651163,
		  "velocity": 80
		},
		{
		  "duration": 0.0436046511627907,
		  "pitch": 46,
		  "start": 2.09302325581395,
		  "velocity": 80
		},
		{
		  "duration": 0.0436046511627907,
		  "pitch": 46,
		  "start": 2.44186046511628,
		  "velocity": 80
		},
		{
		  "duration": 0.0436046511627907,
		  "pitch": 38,
		  "start": 2.7906976744186,
		  "velocity": 80
		},
		{
		  "duration": 0.0436046511627907,
		  "pitch": 49,
		  "start": 2.7906976744186,
		  "velocity": 80
		},
		{
		  "duration": 0.0436046511627907,
		  "pitch": 36,
		  "start": 2.7906976744186,
		  "velocity": 80
		},
		{
		  "duration": 0.0436046511627907,
		  "pitch": 46,
		  "start": 2.7906976744186,
		  "velocity": 80
		},
		{
		  "duration": 0.0436046511627907,
		  "pitch": 46,
		  "start": 3.13953488372093,
		  "velocity": 80
		},
		{
		  "duration": 0.0436046511627907,
		  "pitch": 46,
		  "start": 3.48837209302326,
		  "velocity": 80
		},
		{
		  "duration": 0.0436046511627907,
		  "pitch": 46,
		  "start": 3.83720930232558,
		  "velocity": 80
		},
		{
		  "duration": 0.0436046511627907,
		  "pitch": 46,
		  "start": 4.18604651162791,
		  "velocity": 80
		},
		{
		  "duration": 0.0436046511627907,
		  "pitch": 46,
		  "start": 4.53488372093023,
		  "velocity": 80
		},
		{
		  "duration": 0.0436046511627907,
		  "pitch": 46,
		  "start": 4.88372093023256,
		  "velocity": 80
		},
		{
		  "duration": 0.0436046511627907,
		  "pitch": 48,
		  "start": 4.88372093023256,
		  "velocity": 80
		},
		{
		  "duration": 0.0436046511627907,
		  "pitch": 46,
		  "start": 5.23255813953488,
		  "velocity": 80
		},
		{
		  "duration": 0.0436046511627907,
		  "pitch": 45,
		  "start": 5.23255813953488,
		  "velocity": 80
		},
		{
		  "duration": 0.0436046511627907,
		  "pitch": 41,
		  "start": 5.47674418604651,
		  "velocity": 80
		},
		{
		  "duration": 0.0436046511627907,
		  "pitch": 38,
		  "start": 5.58139534883721,
		  "velocity": 80
		},
		{
		  "duration": 0.0436046511627907,
		  "pitch": 49,
		  "start": 5.58139534883721,
		  "velocity": 80
		},
		{
		  "duration": 0.0436046511627907,
		  "pitch": 36,
		  "start": 5.58139534883721,
		  "velocity": 80
		},
		{
		  "duration": 0.0436046511627907,
		  "pitch": 46,
		  "start": 5.58139534883721,
		  "velocity": 80
		},
		{
		  "duration": 0.0436046511627907,
		  "pitch": 46,
		  "start": 5.93023255813953,
		  "velocity": 80
		},
		{
		  "duration": 0.0436046511627907,
		  "pitch": 46,
		  "start": 6.27906976744186,
		  "velocity": 80
		},
		{
		  "duration": 0.0436046511627907,
		  "pitch": 46,
		  "start": 6.62790697674419,
		  "velocity": 80
		},
		{
		  "duration": 0.0436046511627907,
		  "pitch": 46,
		  "start": 6.97674418604651,
		  "velocity": 80
		},
		{
		  "duration": 0.0436046511627907,
		  "pitch": 46,
		  "start": 7.32558139534884,
		  "velocity": 80
		},
		{
		  "duration": 0.0436046511627907,
		  "pitch": 45,
		  "start": 7.32558139534884,
		  "velocity": 80
		},
		{
		  "duration": 0.0436046511627907,
		  "pitch": 46,
		  "start": 7.67441860465116,
		  "velocity": 80
		},
		{
		  "duration": 0.0436046511627907,
		  "pitch": 48,
		  "start": 7.67441860465116,
		  "velocity": 80
		},
		{
		  "duration": 0.0436046511627907,
		  "pitch": 48,
		  "start": 7.7906976744186,
		  "velocity": 80
		},
		{
		  "duration": 0.0436046511627907,
		  "pitch": 45,
		  "start": 7.90697674418605,
		  "velocity": 80
		},
		{
		  "duration": 0.0436046511627907,
		  "pitch": 46,
		  "start": 8.02325581395349,
		  "velocity": 80
		},
		{
		  "duration": 0.0436046511627907,
		  "pitch": 45,
		  "start": 8.02325581395349,
		  "velocity": 80
		},
		{
		  "duration": 0.0436046511627907,
		  "pitch": 38,
		  "start": 8.37209302325581,
		  "velocity": 80
		},
		{
		  "duration": 0.0436046511627907,
		  "pitch": 49,
		  "start": 8.37209302325581,
		  "velocity": 80
		},
		{
		  "duration": 0.0436046511627907,
		  "pitch": 36,
		  "start": 8.37209302325581,
		  "velocity": 80
		},
		{
		  "duration": 0.0436046511627907,
		  "pitch": 46,
		  "start": 8.37209302325581,
		  "velocity": 80
		},
		{
		  "duration": 0.0436046511627907,
		  "pitch": 46,
		  "start": 8.72093023255814,
		  "velocity": 80
		},
		{
		  "duration": 0.0436046511627907,
		  "pitch": 46,
		  "start": 9.06976744186047,
		  "velocity": 80
		},
		{
		  "duration": 0.0436046511627907,
		  "pitch": 46,
		  "start": 9.41860465116279,
		  "velocity": 80
		},
		{
		  "duration": 0.0436046511627907,
		  "pitch": 46,
		  "start": 9.76744186046512,
		  "velocity": 80
		},
		{
		  "duration": 0.0436046511627907,
		  "pitch": 46,
		  "start": 10.1162790697674,
		  "velocity": 80
		},
		{
		  "duration": 0.0436046511627907,
		  "pitch": 46,
		  "start": 10.4651162790698,
		  "velocity": 80
		},
		{
		  "duration": 0.0436046511627907,
		  "pitch": 45,
		  "start": 10.4651162790698,
		  "velocity": 80
		},
		{
		  "duration": 0.0436046511627907,
		  "pitch": 45,
		  "start": 10.5813953488372,
		  "velocity": 80
		},
		{
		  "duration": 0.0436046511627907,
		  "pitch": 41,
		  "start": 10.6976744186047,
		  "velocity": 80
		},
		{
		  "duration": 0.0436046511627907,
		  "pitch": 46,
		  "start": 10.8139534883721,
		  "velocity": 80
		},
		{
		  "duration": 0.0436046511627907,
		  "pitch": 36,
		  "start": 10.8139534883721,
		  "velocity": 80
		},
		{
		  "duration": 0.0436046511627907,
		  "pitch": 38,
		  "start": 10.9302325581395,
		  "velocity": 80
		},
		{
		  "duration": 0.0436046511627907,
		  "pitch": 53,
		  "start": 11.1627906976744,
		  "velocity": 80
		},
		{
		  "duration": 0.0436046511627907,
		  "pitch": 36,
		  "start": 11.1627906976744,
		  "velocity": 80
		},
		{
		  "duration": 0.0436046511627907,
		  "pitch": 53,
		  "start": 11.3953488372093,
		  "velocity": 80
		},
		{
		  "duration": 0.0436046511627907,
		  "pitch": 36,
		  "start": 11.3953488372093,
		  "velocity": 80
		},
		{
		  "duration": 0.0436046511627907,
		  "pitch": 38,
		  "start": 11.5116279069767,
		  "velocity": 80
		},
		{
		  "duration": 0.0436046511627907,
		  "pitch": 53,
		  "start": 11.6279069767442,
		  "velocity": 80
		},
		{
		  "duration": 0.0436046511627907,
		  "pitch": 53,
		  "start": 11.8604651162791,
		  "velocity": 80
		},
		{
		  "duration": 0.0436046511627907,
		  "pitch": 36,
		  "start": 11.8604651162791,
		  "velocity": 80
		},
		{
		  "duration": 0.0436046511627907,
		  "pitch": 38,
		  "start": 11.9767441860465,
		  "velocity": 80
		},
		{
		  "duration": 0.0436046511627907,
		  "pitch": 53,
		  "start": 12.093023255814,
		  "velocity": 80
		},
		{
		  "duration": 0.0436046511627907,
		  "pitch": 36,
		  "start": 12.2093023255814,
		  "velocity": 80
		},
		{
		  "duration": 0.0436046511627907,
		  "pitch": 53,
		  "start": 12.3255813953488,
		  "velocity": 80
		},
		{
		  "duration": 0.0436046511627907,
		  "pitch": 36,
		  "start": 12.4418604651163,
		  "velocity": 80
		},
		{
		  "duration": 0.0436046511627907,
		  "pitch": 36,
		  "start": 12.5581395348837,
		  "velocity": 80
		},
		{
		  "duration": 0.0436046511627907,
		  "pitch": 53,
		  "start": 12.5581395348837,
		  "velocity": 80
		},
		{
		  "duration": 0.0436046511627907,
		  "pitch": 53,
		  "start": 12.7906976744186,
		  "velocity": 80
		},
		{
		  "duration": 0.0436046511627907,
		  "pitch": 36,
		  "start": 12.7906976744186,
		  "velocity": 80
		},
		{
		  "duration": 0.0436046511627907,
		  "pitch": 38,
		  "start": 12.906976744186,
		  "velocity": 80
		},
		{
		  "duration": 0.0436046511627907,
		  "pitch": 53,
		  "start": 13.0232558139535,
		  "velocity": 80
		},
		{
		  "duration": 0.0436046511627907,
		  "pitch": 53,
		  "start": 13.2558139534884,
		  "velocity": 80
		},
		{
		  "duration": 0.0436046511627907,
		  "pitch": 36,
		  "start": 13.2558139534884,
		  "velocity": 80
		},
		{
		  "duration": 0.0436046511627907,
		  "pitch": 53,
		  "start": 13.4883720930233,
		  "velocity": 80
		},
		{
		  "duration": 0.0436046511627907,
		  "pitch": 38,
		  "start": 13.7209302325581,
		  "velocity": 80
		},
		{
		  "duration": 0.0436046511627907,
		  "pitch": 49,
		  "start": 13.7209302325581,
		  "velocity": 80
		},
		{
		  "duration": 0.0436046511627907,
		  "pitch": 53,
		  "start": 13.953488372093,
		  "velocity": 80
		},
		{
		  "duration": 0.0436046511627907,
		  "pitch": 36,
		  "start": 13.953488372093,
		  "velocity": 80
		},
		{
		  "duration": 0.0436046511627907,
		  "pitch": 53,
		  "start": 14.1860465116279,
		  "velocity": 80
		},
		{
		  "duration": 0.0436046511627907,
		  "pitch": 36,
		  "start": 14.1860465116279,
		  "velocity": 80
		},
		{
		  "duration": 0.0436046511627907,
		  "pitch": 38,
		  "start": 14.3023255813953,
		  "velocity": 80
		},
		{
		  "duration": 0.0436046511627907,
		  "pitch": 53,
		  "start": 14.4186046511628,
		  "velocity": 80
		},
		{
		  "duration": 0.0436046511627907,
		  "pitch": 53,
		  "start": 14.6511627906977,
		  "velocity": 80
		},
		{
		  "duration": 0.0436046511627907,
		  "pitch": 36,
		  "start": 14.6511627906977,
		  "velocity": 80
		},
		{
		  "duration": 0.0436046511627907,
		  "pitch": 38,
		  "start": 14.7674418604651,
		  "velocity": 80
		},
		{
		  "duration": 0.0436046511627907,
		  "pitch": 53,
		  "start": 14.8837209302326,
		  "velocity": 80
		},
		{
		  "duration": 0.0436046511627907,
		  "pitch": 36,
		  "start": 15.0,
		  "velocity": 80
		},
		{
		  "duration": 0.0436046511627907,
		  "pitch": 53,
		  "start": 15.1162790697674,
		  "velocity": 80
		},
		{
		  "duration": 0.0436046511627907,
		  "pitch": 36,
		  "start": 15.2325581395349,
		  "velocity": 80
		},
		{
		  "duration": 0.0436046511627907,
		  "pitch": 36,
		  "start": 15.3488372093023,
		  "velocity": 80
		},
		{
		  "duration": 0.0436046511627907,
		  "pitch": 53,
		  "start": 15.3488372093023,
		  "velocity": 80
		},
		{
		  "duration": 0.0436046511627907,
		  "pitch": 53,
		  "start": 15.5813953488372,
		  "velocity": 80
		},
		{
		  "duration": 0.0436046511627907,
		  "pitch": 36,
		  "start": 15.5813953488372,
		  "velocity": 80
		},
		{
		  "duration": 0.0436046511627907,
		  "pitch": 38,
		  "start": 15.6976744186047,
		  "velocity": 80
		},
		{
		  "duration": 0.0436046511627907,
		  "pitch": 53,
		  "start": 15.8139534883721,
		  "velocity": 80
		},
		{
		  "duration": 0.0436046511627907,
		  "pitch": 53,
		  "start": 16.046511627907,
		  "velocity": 80
		},
		{
		  "duration": 0.0436046511627907,
		  "pitch": 36,
		  "start": 16.1627906976744,
		  "velocity": 80
		},
		{
		  "duration": 0.0436046511627907,
		  "pitch": 53,
		  "start": 16.2790697674419,
		  "velocity": 80
		},
		{
		  "duration": 0.0436046511627907,
		  "pitch": 38,
		  "start": 16.3953488372093,
		  "velocity": 80
		},
		{
		  "duration": 0.0436046511627907,
		  "pitch": 49,
		  "start": 16.3953488372093,
		  "velocity": 80
		},
		{
		  "duration": 0.0436046511627907,
		  "pitch": 53,
		  "start": 16.7441860465116,
		  "velocity": 80
		},
		{
		  "duration": 0.0436046511627907,
		  "pitch": 36,
		  "start": 16.7441860465116,
		  "velocity": 80
		},
		{
		  "duration": 0.0436046511627907,
		  "pitch": 53,
		  "start": 16.9767441860465,
		  "velocity": 80
		},
		{
		  "duration": 0.0436046511627907,
		  "pitch": 36,
		  "start": 16.9767441860465,
		  "velocity": 80
		},
		{
		  "duration": 0.0436046511627907,
		  "pitch": 38,
		  "start": 17.093023255814,
		  "velocity": 80
		},
		{
		  "duration": 0.0436046511627907,
		  "pitch": 53,
		  "start": 17.2093023255814,
		  "velocity": 80
		},
		{
		  "duration": 0.0436046511627907,
		  "pitch": 53,
		  "start": 17.4418604651163,
		  "velocity": 80
		},
		{
		  "duration": 0.0436046511627907,
		  "pitch": 36,
		  "start": 17.4418604651163,
		  "velocity": 80
		},
		{
		  "duration": 0.0436046511627907,
		  "pitch": 38,
		  "start": 17.5581395348837,
		  "velocity": 80
		},
		{
		  "duration": 0.0436046511627907,
		  "pitch": 53,
		  "start": 17.6744186046512,
		  "velocity": 80
		},
		{
		  "duration": 0.0436046511627907,
		  "pitch": 36,
		  "start": 17.7906976744186,
		  "velocity": 80
		},
		{
		  "duration": 0.0436046511627907,
		  "pitch": 53,
		  "start": 17.906976744186,
		  "velocity": 80
		},
		{
		  "duration": 0.0436046511627907,
		  "pitch": 36,
		  "start": 18.0232558139535,
		  "velocity": 80
		},
		{
		  "duration": 0.0436046511627907,
		  "pitch": 36,
		  "start": 18.1395348837209,
		  "velocity": 80
		},
		{
		  "duration": 0.0436046511627907,
		  "pitch": 53,
		  "start": 18.1395348837209,
		  "velocity": 80
		},
		{
		  "duration": 0.0436046511627907,
		  "pitch": 53,
		  "start": 18.3720930232558,
		  "velocity": 80
		},
		{
		  "duration": 0.0436046511627907,
		  "pitch": 36,
		  "start": 18.3720930232558,
		  "velocity": 80
		},
		{
		  "duration": 0.0436046511627907,
		  "pitch": 38,
		  "start": 18.4883720930233,
		  "velocity": 80
		},
		{
		  "duration": 0.0436046511627907,
		  "pitch": 53,
		  "start": 18.6046511627907,
		  "velocity": 80
		},
		{
		  "duration": 0.0436046511627907,
		  "pitch": 53,
		  "start": 18.8372093023256,
		  "velocity": 80
		},
		{
		  "duration": 0.0436046511627907,
		  "pitch": 36,
		  "start": 18.8372093023256,
		  "velocity": 80
		},
		{
		  "duration": 0.0436046511627907,
		  "pitch": 53,
		  "start": 19.0697674418605,
		  "velocity": 80
		},
		{
		  "duration": 0.0436046511627907,
		  "pitch": 38,
		  "start": 19.3023255813953,
		  "velocity": 80
		},
		{
		  "duration": 0.0436046511627907,
		  "pitch": 49,
		  "start": 19.3023255813953,
		  "velocity": 80
		},
		{
		  "duration": 0.0436046511627907,
		  "pitch": 53,
		  "start": 19.5348837209302,
		  "velocity": 80
		},
		{
		  "duration": 0.0436046511627907,
		  "pitch": 36,
		  "start": 19.5348837209302,
		  "velocity": 80
		},
		{
		  "duration": 0.0436046511627907,
		  "pitch": 53,
		  "start": 19.7674418604651,
		  "velocity": 80
		},
		{
		  "duration": 0.0436046511627907,
		  "pitch": 36,
		  "start": 19.7674418604651,
		  "velocity": 80
		},
		{
		  "duration": 0.0436046511627907,
		  "pitch": 38,
		  "start": 19.8837209302326,
		  "velocity": 80
		},
		{
		  "duration": 0.0436046511627907,
		  "pitch": 53,
		  "start": 20.0,
		  "velocity": 80
		},
		{
		  "duration": 0.0436046511627907,
		  "pitch": 53,
		  "start": 20.2325581395349,
		  "velocity": 80
		},
		{
		  "duration": 0.0436046511627907,
		  "pitch": 36,
		  "start": 20.2325581395349,
		  "velocity": 80
		},
		{
		  "duration": 0.0436046511627907,
		  "pitch": 38,
		  "start": 20.3488372093023,
		  "velocity": 80
		},
		{
		  "duration": 0.0436046511627907,
		  "pitch": 53,
		  "start": 20.4651162790698,
		  "velocity": 80
		},
		{
		  "duration": 0.0436046511627907,
		  "pitch": 36,
		  "start": 20.5813953488372,
		  "velocity": 80
		},
		{
		  "duration": 0.0436046511627907,
		  "pitch": 53,
		  "start": 20.6976744186047,
		  "velocity": 80
		},
		{
		  "duration": 0.0436046511627907,
		  "pitch": 36,
		  "start": 20.8139534883721,
		  "velocity": 80
		},
		{
		  "duration": 0.0436046511627907,
		  "pitch": 36,
		  "start": 20.9302325581395,
		  "velocity": 80
		},
		{
		  "duration": 0.0436046511627907,
		  "pitch": 53,
		  "start": 20.9302325581395,
		  "velocity": 80
		},
		{
		  "duration": 0.0436046511627907,
		  "pitch": 53,
		  "start": 21.1627906976744,
		  "velocity": 80
		},
		{
		  "duration": 0.0436046511627907,
		  "pitch": 36,
		  "start": 21.1627906976744,
		  "velocity": 80
		},
		{
		  "duration": 0.0436046511627907,
		  "pitch": 38,
		  "start": 21.2790697674419,
		  "velocity": 80
		},
		{
		  "duration": 0.0436046511627907,
		  "pitch": 53,
		  "start": 21.3953488372093,
		  "velocity": 80
		},
		{
		  "duration": 0.0436046511627907,
		  "pitch": 53,
		  "start": 21.6279069767442,
		  "velocity": 80
		},
		{
		  "duration": 0.0436046511627907,
		  "pitch": 36,
		  "start": 21.7441860465116,
		  "velocity": 80
		},
		{
		  "duration": 0.0436046511627907,
		  "pitch": 53,
		  "start": 21.8604651162791,
		  "velocity": 80
		},
		{
		  "duration": 0.0436046511627907,
		  "pitch": 38,
		  "start": 21.9767441860465,
		  "velocity": 80
		},
		{
		  "duration": 0.0436046511627907,
		  "pitch": 49,
		  "start": 21.9767441860465,
		  "velocity": 80
		},
		{
		  "duration": 0.0436046511627907,
		  "pitch": 36,
		  "start": 22.3255813953488,
		  "velocity": 80
		},
		{
		  "duration": 0.0436046511627907,
		  "pitch": 53,
		  "start": 22.3255813953488,
		  "velocity": 80
		},
		{
		  "duration": 0.0436046511627907,
		  "pitch": 53,
		  "start": 22.5581395348837,
		  "velocity": 80
		},
		{
		  "duration": 0.0436046511627907,
		  "pitch": 49,
		  "start": 22.6744186046512,
		  "velocity": 80
		},
		{
		  "duration": 0.0436046511627907,
		  "pitch": 38,
		  "start": 22.6744186046512,
		  "velocity": 80
		},
		{
		  "duration": 0.0436046511627907,
		  "pitch": 36,
		  "start": 23.0232558139535,
		  "velocity": 80
		},
		{
		  "duration": 0.0436046511627907,
		  "pitch": 38,
		  "start": 23.1395348837209,
		  "velocity": 80
		},
		{
		  "duration": 0.0436046511627907,
		  "pitch": 38,
		  "start": 23.2558139534884,
		  "velocity": 80
		},
		{
		  "duration": 0.0436046511627907,
		  "pitch": 38,
		  "start": 23.3720930232558,
		  "velocity": 80
		},
		{
		  "duration": 0.0436046511627907,
		  "pitch": 48,
		  "start": 23.3720930232558,
		  "velocity": 80
		},
		{
		  "duration": 0.0436046511627907,
		  "pitch": 45,
		  "start": 23.4883720930233,
		  "velocity": 80
		},
		{
		  "duration": 0.0436046511627907,
		  "pitch": 41,
		  "start": 23.6046511627907,
		  "velocity": 80
		},
		{
		  "duration": 0.0436046511627907,
		  "pitch": 48,
		  "start": 23.7209302325581,
		  "velocity": 80
		},
		{
		  "duration": 0.0436046511627907,
		  "pitch": 36,
		  "start": 23.7209302325581,
		  "velocity": 80
		},
		{
		  "duration": 0.0436046511627907,
		  "pitch": 45,
		  "start": 23.953488372093,
		  "velocity": 80
		},
		{
		  "duration": 0.0436046511627907,
		  "pitch": 48,
		  "start": 24.0697674418605,
		  "velocity": 80
		},
		{
		  "duration": 0.0436046511627907,
		  "pitch": 45,
		  "start": 24.1860465116279,
		  "velocity": 80
		},
		{
		  "duration": 0.0436046511627907,
		  "pitch": 41,
		  "start": 24.3023255813953,
		  "velocity": 80
		},
		{
		  "duration": 0.0436046511627907,
		  "pitch": 45,
		  "start": 24.4186046511628,
		  "velocity": 80
		},
		{
		  "duration": 0.0436046511627907,
		  "pitch": 36,
		  "start": 24.4186046511628,
		  "velocity": 80
		},
		{
		  "duration": 0.0436046511627907,
		  "pitch": 45,
		  "start": 24.5348837209302,
		  "velocity": 80
		},
		{
		  "duration": 0.0436046511627907,
		  "pitch": 41,
		  "start": 24.6511627906977,
		  "velocity": 80
		},
		{
		  "duration": 0.0436046511627907,
		  "pitch": 49,
		  "start": 24.7674418604651,
		  "velocity": 80
		},
		{
		  "duration": 0.0436046511627907,
		  "pitch": 38,
		  "start": 24.7674418604651,
		  "velocity": 80
		},
		{
		  "duration": 0.0436046511627907,
		  "pitch": 36,
		  "start": 24.7674418604651,
		  "velocity": 80
		},
		{
		  "duration": 0.0436046511627907,
		  "pitch": 45,
		  "start": 25.1162790697674,
		  "velocity": 80
		},
		{
		  "duration": 0.0436046511627907,
		  "pitch": 36,
		  "start": 25.1162790697674,
		  "velocity": 80
		},
		{
		  "duration": 0.0436046511627907,
		  "pitch": 45,
		  "start": 25.3488372093023,
		  "velocity": 80
		},
		{
		  "duration": 0.0436046511627907,
		  "pitch": 36,
		  "start": 25.3488372093023,
		  "velocity": 80
		},
		{
		  "duration": 0.0436046511627907,
		  "pitch": 45,
		  "start": 25.4651162790698,
		  "velocity": 80
		},
		{
		  "duration": 0.0436046511627907,
		  "pitch": 36,
		  "start": 25.4651162790698,
		  "velocity": 80
		},
		{
		  "duration": 0.0436046511627907,
		  "pitch": 41,
		  "start": 25.5813953488372,
		  "velocity": 80
		},
		{
		  "duration": 0.0436046511627907,
		  "pitch": 36,
		  "start": 25.5813953488372,
		  "velocity": 80
		},
		{
		  "duration": 0.0436046511627907,
		  "pitch": 41,
		  "start": 25.8139534883721,
		  "velocity": 80
		},
		{
		  "duration": 0.0436046511627907,
		  "pitch": 36,
		  "start": 25.8139534883721,
		  "velocity": 80
		},
		{
		  "duration": 0.0436046511627907,
		  "pitch": 48,
		  "start": 25.9302325581395,
		  "velocity": 80
		},
		{
		  "duration": 0.0436046511627907,
		  "pitch": 36,
		  "start": 26.046511627907,
		  "velocity": 80
		},
		{
		  "duration": 0.0436046511627907,
		  "pitch": 45,
		  "start": 26.046511627907,
		  "velocity": 80
		},
		{
		  "duration": 0.0436046511627907,
		  "pitch": 48,
		  "start": 26.1627906976744,
		  "velocity": 80
		},
		{
		  "duration": 0.0436046511627907,
		  "pitch": 36,
		  "start": 26.1627906976744,
		  "velocity": 80
		},
		{
		  "duration": 0.0436046511627907,
		  "pitch": 45,
		  "start": 26.2790697674419,
		  "velocity": 80
		},
		{
		  "duration": 0.0436046511627907,
		  "pitch": 36,
		  "start": 26.2790697674419,
		  "velocity": 80
		},
		{
		  "duration": 0.0436046511627907,
		  "pitch": 41,
		  "start": 26.3953488372093,
		  "velocity": 80
		},
		{
		  "duration": 0.0436046511627907,
		  "pitch": 36,
		  "start": 26.3953488372093,
		  "velocity": 80
		},
		{
		  "duration": 0.0436046511627907,
		  "pitch": 45,
		  "start": 26.5116279069767,
		  "velocity": 80
		},
		{
		  "duration": 0.0436046511627907,
		  "pitch": 36,
		  "start": 26.5116279069767,
		  "velocity": 80
		},
		{
		  "duration": 0.0436046511627907,
		  "pitch": 45,
		  "start": 26.7441860465116,
		  "velocity": 80
		},
		{
		  "duration": 0.0436046511627907,
		  "pitch": 36,
		  "start": 26.7441860465116,
		  "velocity": 80
		},
		{
		  "duration": 0.0436046511627907,
		  "pitch": 45,
		  "start": 26.8604651162791,
		  "velocity": 80
		},
		{
		  "duration": 0.0436046511627907,
		  "pitch": 36,
		  "start": 26.8604651162791,
		  "velocity": 80
		},
		{
		  "duration": 0.0436046511627907,
		  "pitch": 41,
		  "start": 26.9767441860465,
		  "velocity": 80
		},
		{
		  "duration": 0.0436046511627907,
		  "pitch": 36,
		  "start": 26.9767441860465,
		  "velocity": 80
		},
		{
		  "duration": 0.0436046511627907,
		  "pitch": 36,
		  "start": 27.093023255814,
		  "velocity": 80
		},
		{
		  "duration": 0.0436046511627907,
		  "pitch": 41,
		  "start": 27.093023255814,
		  "velocity": 80
		},
		{
		  "duration": 0.0436046511627907,
		  "pitch": 41,
		  "start": 27.2093023255814,
		  "velocity": 80
		},
		{
		  "duration": 0.0436046511627907,
		  "pitch": 36,
		  "start": 27.2093023255814,
		  "velocity": 80
		},
		{
		  "duration": 0.0436046511627907,
		  "pitch": 48,
		  "start": 27.3255813953488,
		  "velocity": 80
		},
		{
		  "duration": 0.0436046511627907,
		  "pitch": 36,
		  "start": 27.4418604651163,
		  "velocity": 80
		},
		{
		  "duration": 0.0436046511627907,
		  "pitch": 45,
		  "start": 27.4418604651163,
		  "velocity": 80
		},
		{
		  "duration": 0.0436046511627907,
		  "pitch": 36,
		  "start": 27.5581395348837,
		  "velocity": 80
		},
		{
		  "duration": 0.0436046511627907,
		  "pitch": 41,
		  "start": 27.5581395348837,
		  "velocity": 80
		},
		{
		  "duration": 0.0436046511627907,
		  "pitch": 36,
		  "start": 27.6744186046512,
		  "velocity": 80
		},
		{
		  "duration": 0.0436046511627907,
		  "pitch": 41,
		  "start": 27.6744186046512,
		  "velocity": 80
		},
		{
		  "duration": 0.0436046511627907,
		  "pitch": 38,
		  "start": 27.7906976744186,
		  "velocity": 80
		},
		{
		  "duration": 0.0436046511627907,
		  "pitch": 36,
		  "start": 27.7906976744186,
		  "velocity": 80
		},
		{
		  "duration": 0.0436046511627907,
		  "pitch": 53,
		  "start": 27.906976744186,
		  "velocity": 80
		},
		{
		  "duration": 0.0436046511627907,
		  "pitch": 36,
		  "start": 27.906976744186,
		  "velocity": 80
		},
		{
		  "duration": 0.0436046511627907,
		  "pitch": 53,
		  "start": 28.1395348837209,
		  "velocity": 80
		},
		{
		  "duration": 0.0436046511627907,
		  "pitch": 38,
		  "start": 28.2558139534884,
		  "velocity": 80
		},
		{
		  "duration": 0.0436046511627907,
		  "pitch": 53,
		  "start": 28.3720930232558,
		  "velocity": 80
		},
		{
		  "duration": 0.0436046511627907,
		  "pitch": 53,
		  "start": 28.6046511627907,
		  "velocity": 80
		},
		{
		  "duration": 0.0436046511627907,
		  "pitch": 36,
		  "start": 28.6046511627907,
		  "velocity": 80
		},
		{
		  "duration": 0.0436046511627907,
		  "pitch": 53,
		  "start": 28.8372093023256,
		  "velocity": 80
		},
		{
		  "duration": 0.0436046511627907,
		  "pitch": 38,
		  "start": 28.953488372093,
		  "velocity": 80
		},
		{
		  "duration": 0.0436046511627907,
		  "pitch": 53,
		  "start": 29.0697674418605,
		  "velocity": 80
		},
		{
		  "duration": 0.0436046511627907,
		  "pitch": 53,
		  "start": 29.3023255813953,
		  "velocity": 80
		},
		{
		  "duration": 0.0436046511627907,
		  "pitch": 36,
		  "start": 29.3023255813953,
		  "velocity": 80
		},
		{
		  "duration": 0.0436046511627907,
		  "pitch": 53,
		  "start": 29.5348837209302,
		  "velocity": 80
		},
		{
		  "duration": 0.0436046511627907,
		  "pitch": 38,
		  "start": 29.6511627906977,
		  "velocity": 80
		},
		{
		  "duration": 0.0436046511627907,
		  "pitch": 53,
		  "start": 29.7674418604651,
		  "velocity": 80
		},
		{
		  "duration": 0.0436046511627907,
		  "pitch": 53,
		  "start": 30.0,
		  "velocity": 80
		},
		{
		  "duration": 0.0436046511627907,
		  "pitch": 36,
		  "start": 30.0,
		  "velocity": 80
		},
		{
		  "duration": 0.0436046511627907,
		  "pitch": 53,
		  "start": 30.2325581395349,
		  "velocity": 80
		},
		{
		  "duration": 0.0436046511627907,
		  "pitch": 38,
		  "start": 30.4651162790698,
		  "velocity": 80
		},
		{
		  "duration": 0.0436046511627907,
		  "pitch": 49,
		  "start": 30.4651162790698,
		  "velocity": 80
		},
		{
		  "duration": 0.0436046511627907,
		  "pitch": 36,
		  "start": 30.4651162790698,
		  "velocity": 80
		},
		{
		  "duration": 0.0436046511627907,
		  "pitch": 36,
		  "start": 30.6976744186047,
		  "velocity": 80
		},
		{
		  "duration": 0.0436046511627907,
		  "pitch": 53,
		  "start": 30.6976744186047,
		  "velocity": 80
		},
		{
		  "duration": 0.0436046511627907,
		  "pitch": 53,
		  "start": 30.9302325581395,
		  "velocity": 80
		},
		{
		  "duration": 0.0436046511627907,
		  "pitch": 49,
		  "start": 31.046511627907,
		  "velocity": 80
		},
		{
		  "duration": 0.0436046511627907,
		  "pitch": 38,
		  "start": 31.046511627907,
		  "velocity": 80
		},
		{
		  "duration": 0.0436046511627907,
		  "pitch": 36,
		  "start": 31.3953488372093,
		  "velocity": 80
		},
		{
		  "duration": 0.0436046511627907,
		  "pitch": 38,
		  "start": 31.5116279069767,
		  "velocity": 80
		},
		{
		  "duration": 0.0436046511627907,
		  "pitch": 38,
		  "start": 31.6279069767442,
		  "velocity": 80
		},
		{
		  "duration": 0.0436046511627907,
		  "pitch": 38,
		  "start": 31.7441860465116,
		  "velocity": 80
		},
		{
		  "duration": 0.0436046511627907,
		  "pitch": 48,
		  "start": 31.7441860465116,
		  "velocity": 80
		},
		{
		  "duration": 0.0436046511627907,
		  "pitch": 45,
		  "start": 31.8604651162791,
		  "velocity": 80
		},
		{
		  "duration": 0.0436046511627907,
		  "pitch": 41,
		  "start": 31.9767441860465,
		  "velocity": 80
		},
		{
		  "duration": 0.0436046511627907,
		  "pitch": 48,
		  "start": 32.093023255814,
		  "velocity": 80
		},
		{
		  "duration": 0.0436046511627907,
		  "pitch": 36,
		  "start": 32.093023255814,
		  "velocity": 80
		},
		{
		  "duration": 0.0436046511627907,
		  "pitch": 45,
		  "start": 32.3255813953488,
		  "velocity": 80
		},
		{
		  "duration": 0.0436046511627907,
		  "pitch": 48,
		  "start": 32.4418604651163,
		  "velocity": 80
		},
		{
		  "duration": 0.0436046511627907,
		  "pitch": 45,
		  "start": 32.5581395348837,
		  "velocity": 80
		},
		{
		  "duration": 0.0436046511627907,
		  "pitch": 41,
		  "start": 32.6744186046512,
		  "velocity": 80
		},
		{
		  "duration": 0.0436046511627907,
		  "pitch": 45,
		  "start": 32.7906976744186,
		  "velocity": 80
		},
		{
		  "duration": 0.0436046511627907,
		  "pitch": 36,
		  "start": 32.7906976744186,
		  "velocity": 80
		},
		{
		  "duration": 0.0436046511627907,
		  "pitch": 45,
		  "start": 32.906976744186,
		  "velocity": 80
		},
		{
		  "duration": 0.0436046511627907,
		  "pitch": 41,
		  "start": 33.0232558139535,
		  "velocity": 80
		},
		{
		  "duration": 0.0436046511627907,
		  "pitch": 49,
		  "start": 33.1395348837209,
		  "velocity": 80
		},
		{
		  "duration": 0.0436046511627907,
		  "pitch": 38,
		  "start": 33.1395348837209,
		  "velocity": 80
		},
		{
		  "duration": 0.0436046511627907,
		  "pitch": 36,
		  "start": 33.1395348837209,
		  "velocity": 80
		},
		{
		  "duration": 0.0436046511627907,
		  "pitch": 45,
		  "start": 33.4883720930233,
		  "velocity": 80
		},
		{
		  "duration": 0.0436046511627907,
		  "pitch": 36,
		  "start": 33.4883720930233,
		  "velocity": 80
		},
		{
		  "duration": 0.0436046511627907,
		  "pitch": 45,
		  "start": 33.7209302325581,
		  "velocity": 80
		},
		{
		  "duration": 0.0436046511627907,
		  "pitch": 36,
		  "start": 33.7209302325581,
		  "velocity": 80
		},
		{
		  "duration": 0.0436046511627907,
		  "pitch": 45,
		  "start": 33.8372093023256,
		  "velocity": 80
		},
		{
		  "duration": 0.0436046511627907,
		  "pitch": 36,
		  "start": 33.8372093023256,
		  "velocity": 80
		},
		{
		  "duration": 0.0436046511627907,
		  "pitch": 41,
		  "start": 33.953488372093,
		  "velocity": 80
		},
		{
		  "duration": 0.0436046511627907,
		  "pitch": 36,
		  "start": 33.953488372093,
		  "velocity": 80
		},
		{
		  "duration": 0.0436046511627907,
		  "pitch": 41,
		  "start": 34.1860465116279,
		  "velocity": 80
		},
		{
		  "duration": 0.0436046511627907,
		  "pitch": 36,
		  "start": 34.1860465116279,
		  "velocity": 80
		},
		{
		  "duration": 0.0436046511627907,
		  "pitch": 48,
		  "start": 34.3023255813954,
		  "velocity": 80
		},
		{
		  "duration": 0.0436046511627907,
		  "pitch": 36,
		  "start": 34.4186046511628,
		  "velocity": 80
		},
		{
		  "duration": 0.0436046511627907,
		  "pitch": 45,
		  "start": 34.4186046511628,
		  "velocity": 80
		},
		{
		  "duration": 0.0436046511627907,
		  "pitch": 48,
		  "start": 34.5348837209302,
		  "velocity": 80
		},
		{
		  "duration": 0.0436046511627907,
		  "pitch": 36,
		  "start": 34.5348837209302,
		  "velocity": 80
		},
		{
		  "duration": 0.0436046511627907,
		  "pitch": 45,
		  "start": 34.6511627906977,
		  "velocity": 80
		},
		{
		  "duration": 0.0436046511627907,
		  "pitch": 36,
		  "start": 34.6511627906977,
		  "velocity": 80
		},
		{
		  "duration": 0.0436046511627907,
		  "pitch": 41,
		  "start": 34.7674418604651,
		  "velocity": 80
		},
		{
		  "duration": 0.0436046511627907,
		  "pitch": 36,
		  "start": 34.7674418604651,
		  "velocity": 80
		},
		{
		  "duration": 0.0436046511627907,
		  "pitch": 45,
		  "start": 34.8837209302326,
		  "velocity": 80
		},
		{
		  "duration": 0.0436046511627907,
		  "pitch": 36,
		  "start": 34.8837209302326,
		  "velocity": 80
		},
		{
		  "duration": 0.0436046511627907,
		  "pitch": 45,
		  "start": 35.1162790697674,
		  "velocity": 80
		},
		{
		  "duration": 0.0436046511627907,
		  "pitch": 36,
		  "start": 35.1162790697674,
		  "velocity": 80
		},
		{
		  "duration": 0.0436046511627907,
		  "pitch": 45,
		  "start": 35.2325581395349,
		  "velocity": 80
		},
		{
		  "duration": 0.0436046511627907,
		  "pitch": 36,
		  "start": 35.2325581395349,
		  "velocity": 80
		},
		{
		  "duration": 0.0436046511627907,
		  "pitch": 41,
		  "start": 35.3488372093023,
		  "velocity": 80
		},
		{
		  "duration": 0.0436046511627907,
		  "pitch": 36,
		  "start": 35.3488372093023,
		  "velocity": 80
		},
		{
		  "duration": 0.0436046511627907,
		  "pitch": 36,
		  "start": 35.4651162790698,
		  "velocity": 80
		},
		{
		  "duration": 0.0436046511627907,
		  "pitch": 41,
		  "start": 35.4651162790698,
		  "velocity": 80
		},
		{
		  "duration": 0.0436046511627907,
		  "pitch": 41,
		  "start": 35.5813953488372,
		  "velocity": 80
		},
		{
		  "duration": 0.0436046511627907,
		  "pitch": 36,
		  "start": 35.5813953488372,
		  "velocity": 80
		},
		{
		  "duration": 0.0436046511627907,
		  "pitch": 48,
		  "start": 35.6976744186046,
		  "velocity": 80
		},
		{
		  "duration": 0.0436046511627907,
		  "pitch": 36,
		  "start": 35.8139534883721,
		  "velocity": 80
		},
		{
		  "duration": 0.0436046511627907,
		  "pitch": 45,
		  "start": 35.8139534883721,
		  "velocity": 80
		},
		{
		  "duration": 0.0436046511627907,
		  "pitch": 36,
		  "start": 35.9302325581395,
		  "velocity": 80
		},
		{
		  "duration": 0.0436046511627907,
		  "pitch": 41,
		  "start": 35.9302325581395,
		  "velocity": 80
		},
		{
		  "duration": 0.0436046511627907,
		  "pitch": 36,
		  "start": 36.046511627907,
		  "velocity": 80
		},
		{
		  "duration": 0.0436046511627907,
		  "pitch": 41,
		  "start": 36.046511627907,
		  "velocity": 80
		},
		{
		  "duration": 0.0436046511627907,
		  "pitch": 38,
		  "start": 36.1627906976744,
		  "velocity": 80
		},
		{
		  "duration": 0.0436046511627907,
		  "pitch": 36,
		  "start": 36.1627906976744,
		  "velocity": 80
		},
		{
		  "duration": 0.0436046511627907,
		  "pitch": 53,
		  "start": 36.2790697674419,
		  "velocity": 80
		},
		{
		  "duration": 0.0436046511627907,
		  "pitch": 36,
		  "start": 36.2790697674419,
		  "velocity": 80
		},
		{
		  "duration": 0.0436046511627907,
		  "pitch": 53,
		  "start": 36.5116279069767,
		  "velocity": 80
		},
		{
		  "duration": 0.0436046511627907,
		  "pitch": 38,
		  "start": 36.6279069767442,
		  "velocity": 80
		},
		{
		  "duration": 0.0436046511627907,
		  "pitch": 53,
		  "start": 36.7441860465116,
		  "velocity": 80
		},
		{
		  "duration": 0.0436046511627907,
		  "pitch": 53,
		  "start": 36.9767441860465,
		  "velocity": 80
		},
		{
		  "duration": 0.0436046511627907,
		  "pitch": 36,
		  "start": 36.9767441860465,
		  "velocity": 80
		},
		{
		  "duration": 0.0436046511627907,
		  "pitch": 53,
		  "start": 37.2093023255814,
		  "velocity": 80
		},
		{
		  "duration": 0.0436046511627907,
		  "pitch": 38,
		  "start": 37.3255813953488,
		  "velocity": 80
		},
		{
		  "duration": 0.0436046511627907,
		  "pitch": 53,
		  "start": 37.4418604651163,
		  "velocity": 80
		},
		{
		  "duration": 0.0436046511627907,
		  "pitch": 53,
		  "start": 37.6744186046512,
		  "velocity": 80
		},
		{
		  "duration": 0.0436046511627907,
		  "pitch": 36,
		  "start": 37.6744186046512,
		  "velocity": 80
		},
		{
		  "duration": 0.0436046511627907,
		  "pitch": 53,
		  "start": 37.906976744186,
		  "velocity": 80
		},
		{
		  "duration": 0.0436046511627907,
		  "pitch": 38,
		  "start": 38.0232558139535,
		  "velocity": 80
		},
		{
		  "duration": 0.0436046511627907,
		  "pitch": 53,
		  "start": 38.1395348837209,
		  "velocity": 80
		},
		{
		  "duration": 0.0436046511627907,
		  "pitch": 38,
		  "start": 38.3720930232558,
		  "velocity": 60
		},
		{
		  "duration": 0.0436046511627907,
		  "pitch": 38,
		  "start": 38.4883720930233,
		  "velocity": 68
		},
		{
		  "duration": 0.0436046511627907,
		  "pitch": 38,
		  "start": 38.6046511627907,
		  "velocity": 76
		},
		{
		  "duration": 0.0436046511627907,
		  "pitch": 38,
		  "start": 38.7209302325581,
		  "velocity": 80
		},
		{
		  "duration": 0.0436046511627907,
		  "pitch": 38,
		  "start": 38.8372093023256,
		  "velocity": 80
		},
		{
		  "duration": 0.0436046511627907,
		  "pitch": 38,
		  "start": 38.953488372093,
		  "velocity": 80
		},
		{
		  "duration": 0.0436046511627907,
		  "pitch": 42,
		  "start": 39.0697674418605,
		  "velocity": 60
		},
		{
		  "duration": 0.0436046511627907,
		  "pitch": 36,
		  "start": 39.0697674418605,
		  "velocity": 80
		},
		{
		  "duration": 0.0436046511627907,
		  "pitch": 49,
		  "start": 39.0697674418605,
		  "velocity": 80
		},
		{
		  "duration": 0.0436046511627907,
		  "pitch": 42,
		  "start": 39.1860465116279,
		  "velocity": 60
		},
		{
		  "duration": 0.0436046511627907,
		  "pitch": 42,
		  "start": 39.3023255813954,
		  "velocity": 60
		},
		{
		  "duration": 0.0436046511627907,
		  "pitch": 38,
		  "start": 39.4186046511628,
		  "velocity": 80
		},
		{
		  "duration": 0.0436046511627907,
		  "pitch": 42,
		  "start": 39.4186046511628,
		  "velocity": 60
		},
		{
		  "duration": 0.0436046511627907,
		  "pitch": 46,
		  "start": 39.5348837209302,
		  "velocity": 80
		},
		{
		  "duration": 0.0436046511627907,
		  "pitch": 42,
		  "start": 39.6511627906977,
		  "velocity": 60
		},
		{
		  "duration": 0.0436046511627907,
		  "pitch": 42,
		  "start": 39.7674418604651,
		  "velocity": 60
		},
		{
		  "duration": 0.0436046511627907,
		  "pitch": 42,
		  "start": 39.8837209302326,
		  "velocity": 60
		},
		{
		  "duration": 0.0436046511627907,
		  "pitch": 42,
		  "start": 39.9941860465116,
		  "velocity": 60
		},
		{
		  "duration": 0.0436046511627907,
		  "pitch": 36,
		  "start": 40.0,
		  "velocity": 80
		},
		{
		  "duration": 0.0436046511627907,
		  "pitch": 38,
		  "start": 40.1162790697674,
		  "velocity": 80
		},
		{
		  "duration": 0.0436046511627907,
		  "pitch": 42,
		  "start": 40.1162790697674,
		  "velocity": 60
		},
		{
		  "duration": 0.0436046511627907,
		  "pitch": 42,
		  "start": 40.2325581395349,
		  "velocity": 60
		},
		{
		  "duration": 0.0436046511627907,
		  "pitch": 42,
		  "start": 40.3488372093023,
		  "velocity": 60
		},
		{
		  "duration": 0.0436046511627907,
		  "pitch": 42,
		  "start": 40.4651162790698,
		  "velocity": 60
		},
		{
		  "duration": 0.0436046511627907,
		  "pitch": 36,
		  "start": 40.4651162790698,
		  "velocity": 80
		},
		{
		  "duration": 0.0436046511627907,
		  "pitch": 42,
		  "start": 40.5813953488372,
		  "velocity": 60
		},
		{
		  "duration": 0.0436046511627907,
		  "pitch": 42,
		  "start": 40.6976744186046,
		  "velocity": 60
		},
		{
		  "duration": 0.0436046511627907,
		  "pitch": 38,
		  "start": 40.8139534883721,
		  "velocity": 80
		},
		{
		  "duration": 0.0436046511627907,
		  "pitch": 42,
		  "start": 40.8139534883721,
		  "velocity": 60
		},
		{
		  "duration": 0.0436046511627907,
		  "pitch": 46,
		  "start": 40.9302325581395,
		  "velocity": 80
		},
		{
		  "duration": 0.0436046511627907,
		  "pitch": 42,
		  "start": 41.046511627907,
		  "velocity": 60
		},
		{
		  "duration": 0.0436046511627907,
		  "pitch": 42,
		  "start": 41.1627906976744,
		  "velocity": 60
		},
		{
		  "duration": 0.0436046511627907,
		  "pitch": 42,
		  "start": 41.2790697674419,
		  "velocity": 60
		},
		{
		  "duration": 0.0436046511627907,
		  "pitch": 42,
		  "start": 41.3895348837209,
		  "velocity": 60
		},
		{
		  "duration": 0.0436046511627907,
		  "pitch": 36,
		  "start": 41.3953488372093,
		  "velocity": 80
		},
		{
		  "duration": 0.0436046511627907,
		  "pitch": 38,
		  "start": 41.5116279069767,
		  "velocity": 80
		},
		{
		  "duration": 0.0436046511627907,
		  "pitch": 42,
		  "start": 41.5116279069767,
		  "velocity": 60
		},
		{
		  "duration": 0.0436046511627907,
		  "pitch": 42,
		  "start": 41.6279069767442,
		  "velocity": 60
		},
		{
		  "duration": 0.0436046511627907,
		  "pitch": 42,
		  "start": 41.7441860465116,
		  "velocity": 60
		},
		{
		  "duration": 0.0436046511627907,
		  "pitch": 42,
		  "start": 41.8604651162791,
		  "velocity": 60
		},
		{
		  "duration": 0.0436046511627907,
		  "pitch": 36,
		  "start": 41.8604651162791,
		  "velocity": 80
		},
		{
		  "duration": 0.0436046511627907,
		  "pitch": 42,
		  "start": 41.9767441860465,
		  "velocity": 60
		},
		{
		  "duration": 0.0436046511627907,
		  "pitch": 42,
		  "start": 42.093023255814,
		  "velocity": 60
		},
		{
		  "duration": 0.0436046511627907,
		  "pitch": 38,
		  "start": 42.2093023255814,
		  "velocity": 80
		},
		{
		  "duration": 0.0436046511627907,
		  "pitch": 42,
		  "start": 42.2093023255814,
		  "velocity": 60
		},
		{
		  "duration": 0.0436046511627907,
		  "pitch": 46,
		  "start": 42.3255813953488,
		  "velocity": 80
		},
		{
		  "duration": 0.0436046511627907,
		  "pitch": 42,
		  "start": 42.4418604651163,
		  "velocity": 60
		},
		{
		  "duration": 0.0436046511627907,
		  "pitch": 42,
		  "start": 42.5581395348837,
		  "velocity": 60
		},
		{
		  "duration": 0.0436046511627907,
		  "pitch": 42,
		  "start": 42.6744186046512,
		  "velocity": 60
		},
		{
		  "duration": 0.0436046511627907,
		  "pitch": 42,
		  "start": 42.7848837209302,
		  "velocity": 60
		},
		{
		  "duration": 0.0436046511627907,
		  "pitch": 36,
		  "start": 42.7906976744186,
		  "velocity": 80
		},
		{
		  "duration": 0.0436046511627907,
		  "pitch": 38,
		  "start": 42.906976744186,
		  "velocity": 80
		},
		{
		  "duration": 0.0436046511627907,
		  "pitch": 42,
		  "start": 42.906976744186,
		  "velocity": 60
		},
		{
		  "duration": 0.0436046511627907,
		  "pitch": 42,
		  "start": 43.0232558139535,
		  "velocity": 60
		},
		{
		  "duration": 0.0436046511627907,
		  "pitch": 42,
		  "start": 43.1395348837209,
		  "velocity": 60
		},
		{
		  "duration": 0.0436046511627907,
		  "pitch": 42,
		  "start": 43.2558139534884,
		  "velocity": 60
		},
		{
		  "duration": 0.0436046511627907,
		  "pitch": 36,
		  "start": 43.2558139534884,
		  "velocity": 80
		},
		{
		  "duration": 0.0436046511627907,
		  "pitch": 42,
		  "start": 43.3720930232558,
		  "velocity": 60
		},
		{
		  "duration": 0.0436046511627907,
		  "pitch": 42,
		  "start": 43.4883720930233,
		  "velocity": 60
		},
		{
		  "duration": 0.0436046511627907,
		  "pitch": 38,
		  "start": 43.6046511627907,
		  "velocity": 80
		},
		{
		  "duration": 0.0436046511627907,
		  "pitch": 42,
		  "start": 43.6046511627907,
		  "velocity": 60
		},
		{
		  "duration": 0.0436046511627907,
		  "pitch": 46,
		  "start": 43.7209302325581,
		  "velocity": 80
		},
		{
		  "duration": 0.0436046511627907,
		  "pitch": 42,
		  "start": 43.8372093023256,
		  "velocity": 60
		},
		{
		  "duration": 0.0436046511627907,
		  "pitch": 42,
		  "start": 43.953488372093,
		  "velocity": 60
		},
		{
		  "duration": 0.0436046511627907,
		  "pitch": 42,
		  "start": 44.0697674418605,
		  "velocity": 60
		},
		{
		  "duration": 0.0436046511627907,
		  "pitch": 42,
		  "start": 44.1802325581395,
		  "velocity": 60
		},
		{
		  "duration": 0.0436046511627907,
		  "pitch": 36,
		  "start": 44.1860465116279,
		  "velocity": 80
		},
		{
		  "duration": 0.0436046511627907,
		  "pitch": 38,
		  "start": 44.3023255813954,
		  "velocity": 80
		},
		{
		  "duration": 0.0436046511627907,
		  "pitch": 42,
		  "start": 44.3023255813954,
		  "velocity": 60
		},
		{
		  "duration": 0.0436046511627907,
		  "pitch": 42,
		  "start": 44.4186046511628,
		  "velocity": 60
		},
		{
		  "duration": 0.0436046511627907,
		  "pitch": 42,
		  "start": 44.5348837209302,
		  "velocity": 60
		},
		{
		  "duration": 0.0436046511627907,
		  "pitch": 42,
		  "start": 44.6511627906977,
		  "velocity": 60
		},
		{
		  "duration": 0.0436046511627907,
		  "pitch": 36,
		  "start": 44.6511627906977,
		  "velocity": 80
		},
		{
		  "duration": 0.0436046511627907,
		  "pitch": 42,
		  "start": 44.7674418604651,
		  "velocity": 60
		},
		{
		  "duration": 0.0436046511627907,
		  "pitch": 42,
		  "start": 44.8837209302326,
		  "velocity": 60
		},
		{
		  "duration": 0.0436046511627907,
		  "pitch": 38,
		  "start": 45.0,
		  "velocity": 80
		},
		{
		  "duration": 0.0436046511627907,
		  "pitch": 42,
		  "start": 45.0,
		  "velocity": 60
		},
		{
		  "duration": 0.0436046511627907,
		  "pitch": 46,
		  "start": 45.1162790697674,
		  "velocity": 80
		},
		{
		  "duration": 0.0436046511627907,
		  "pitch": 42,
		  "start": 45.2325581395349,
		  "velocity": 60
		},
		{
		  "duration": 0.0436046511627907,
		  "pitch": 42,
		  "start": 45.3488372093023,
		  "velocity": 60
		},
		{
		  "duration": 0.0436046511627907,
		  "pitch": 42,
		  "start": 45.4651162790698,
		  "velocity": 60
		},
		{
		  "duration": 0.0436046511627907,
		  "pitch": 42,
		  "start": 45.5755813953488,
		  "velocity": 60
		},
		{
		  "duration": 0.0436046511627907,
		  "pitch": 36,
		  "start": 45.5813953488372,
		  "velocity": 80
		},
		{
		  "duration": 0.0436046511627907,
		  "pitch": 38,
		  "start": 45.6976744186046,
		  "velocity": 80
		},
		{
		  "duration": 0.0436046511627907,
		  "pitch": 42,
		  "start": 45.6976744186046,
		  "velocity": 60
		},
		{
		  "duration": 0.0436046511627907,
		  "pitch": 42,
		  "start": 45.8139534883721,
		  "velocity": 60
		},
		{
		  "duration": 0.0436046511627907,
		  "pitch": 42,
		  "start": 45.9302325581395,
		  "velocity": 60
		},
		{
		  "duration": 0.0436046511627907,
		  "pitch": 42,
		  "start": 46.046511627907,
		  "velocity": 60
		},
		{
		  "duration": 0.0436046511627907,
		  "pitch": 36,
		  "start": 46.046511627907,
		  "velocity": 80
		},
		{
		  "duration": 0.0436046511627907,
		  "pitch": 42,
		  "start": 46.1627906976744,
		  "velocity": 60
		},
		{
		  "duration": 0.0436046511627907,
		  "pitch": 42,
		  "start": 46.2790697674419,
		  "velocity": 60
		},
		{
		  "duration": 0.0436046511627907,
		  "pitch": 38,
		  "start": 46.3953488372093,
		  "velocity": 80
		},
		{
		  "duration": 0.0436046511627907,
		  "pitch": 42,
		  "start": 46.3953488372093,
		  "velocity": 60
		},
		{
		  "duration": 0.0436046511627907,
		  "pitch": 46,
		  "start": 46.5116279069767,
		  "velocity": 80
		},
		{
		  "duration": 0.0436046511627907,
		  "pitch": 42,
		  "start": 46.6279069767442,
		  "velocity": 60
		},
		{
		  "duration": 0.0436046511627907,
		  "pitch": 42,
		  "start": 46.7441860465116,
		  "velocity": 60
		},
		{
		  "duration": 0.0436046511627907,
		  "pitch": 42,
		  "start": 46.8604651162791,
		  "velocity": 60
		},
		{
		  "duration": 0.0436046511627907,
		  "pitch": 42,
		  "start": 46.9709302325581,
		  "velocity": 60
		},
		{
		  "duration": 0.0436046511627907,
		  "pitch": 36,
		  "start": 46.9767441860465,
		  "velocity": 80
		},
		{
		  "duration": 0.0436046511627907,
		  "pitch": 38,
		  "start": 47.093023255814,
		  "velocity": 80
		},
		{
		  "duration": 0.0436046511627907,
		  "pitch": 42,
		  "start": 47.093023255814,
		  "velocity": 60
		},
		{
		  "duration": 0.0436046511627907,
		  "pitch": 42,
		  "start": 47.2093023255814,
		  "velocity": 60
		},
		{
		  "duration": 0.0436046511627907,
		  "pitch": 42,
		  "start": 47.3255813953488,
		  "velocity": 60
		},
		{
		  "duration": 0.0436046511627907,
		  "pitch": 42,
		  "start": 47.4418604651163,
		  "velocity": 60
		},
		{
		  "duration": 0.0436046511627907,
		  "pitch": 36,
		  "start": 47.4418604651163,
		  "velocity": 80
		},
		{
		  "duration": 0.0436046511627907,
		  "pitch": 42,
		  "start": 47.5581395348837,
		  "velocity": 60
		},
		{
		  "duration": 0.0436046511627907,
		  "pitch": 42,
		  "start": 47.6744186046512,
		  "velocity": 60
		},
		{
		  "duration": 0.0436046511627907,
		  "pitch": 38,
		  "start": 47.7906976744186,
		  "velocity": 80
		},
		{
		  "duration": 0.0436046511627907,
		  "pitch": 42,
		  "start": 47.7906976744186,
		  "velocity": 60
		},
		{
		  "duration": 0.0436046511627907,
		  "pitch": 46,
		  "start": 47.906976744186,
		  "velocity": 80
		},
		{
		  "duration": 0.0436046511627907,
		  "pitch": 42,
		  "start": 48.0232558139535,
		  "velocity": 60
		},
		{
		  "duration": 0.0436046511627907,
		  "pitch": 42,
		  "start": 48.1395348837209,
		  "velocity": 60
		},
		{
		  "duration": 0.0436046511627907,
		  "pitch": 42,
		  "start": 48.2558139534884,
		  "velocity": 60
		},
		{
		  "duration": 0.0436046511627907,
		  "pitch": 42,
		  "start": 48.3662790697674,
		  "velocity": 60
		},
		{
		  "duration": 0.0436046511627907,
		  "pitch": 36,
		  "start": 48.3720930232558,
		  "velocity": 80
		},
		{
		  "duration": 0.0436046511627907,
		  "pitch": 38,
		  "start": 48.4883720930233,
		  "velocity": 80
		},
		{
		  "duration": 0.0436046511627907,
		  "pitch": 42,
		  "start": 48.4883720930233,
		  "velocity": 60
		},
		{
		  "duration": 0.0436046511627907,
		  "pitch": 42,
		  "start": 48.6046511627907,
		  "velocity": 60
		},
		{
		  "duration": 0.0436046511627907,
		  "pitch": 42,
		  "start": 48.7209302325581,
		  "velocity": 60
		},
		{
		  "duration": 0.0436046511627907,
		  "pitch": 42,
		  "start": 48.8372093023256,
		  "velocity": 60
		},
		{
		  "duration": 0.0436046511627907,
		  "pitch": 36,
		  "start": 48.8372093023256,
		  "velocity": 80
		},
		{
		  "duration": 0.0436046511627907,
		  "pitch": 42,
		  "start": 48.953488372093,
		  "velocity": 60
		},
		{
		  "duration": 0.0436046511627907,
		  "pitch": 42,
		  "start": 49.0697674418605,
		  "velocity": 60
		},
		{
		  "duration": 0.0436046511627907,
		  "pitch": 38,
		  "start": 49.1860465116279,
		  "velocity": 80
		},
		{
		  "duration": 0.0436046511627907,
		  "pitch": 42,
		  "start": 49.1860465116279,
		  "velocity": 60
		},
		{
		  "duration": 0.0436046511627907,
		  "pitch": 46,
		  "start": 49.3023255813954,
		  "velocity": 80
		},
		{
		  "duration": 0.0436046511627907,
		  "pitch": 42,
		  "start": 49.4186046511628,
		  "velocity": 60
		},
		{
		  "duration": 0.0436046511627907,
		  "pitch": 42,
		  "start": 49.5348837209302,
		  "velocity": 60
		},
		{
		  "duration": 0.0436046511627907,
		  "pitch": 42,
		  "start": 49.6511627906977,
		  "velocity": 60
		},
		{
		  "duration": 0.0436046511627907,
		  "pitch": 42,
		  "start": 49.7616279069767,
		  "velocity": 60
		},
		{
		  "duration": 0.0436046511627907,
		  "pitch": 36,
		  "start": 49.7674418604651,
		  "velocity": 80
		},
		{
		  "duration": 0.0436046511627907,
		  "pitch": 38,
		  "start": 49.8837209302326,
		  "velocity": 80
		},
		{
		  "duration": 0.0436046511627907,
		  "pitch": 42,
		  "start": 49.8837209302326,
		  "velocity": 60
		},
		{
		  "duration": 0.0436046511627907,
		  "pitch": 49,
		  "start": 49.8837209302326,
		  "velocity": 80
		},
		{
		  "duration": 0.0436046511627907,
		  "pitch": 42,
		  "start": 50.0,
		  "velocity": 60
		},
		{
		  "duration": 0.0436046511627907,
		  "pitch": 42,
		  "start": 50.1162790697674,
		  "velocity": 60
		},
		{
		  "duration": 0.0436046511627907,
		  "pitch": 36,
		  "start": 50.2325581395349,
		  "velocity": 80
		},
		{
		  "duration": 0.0436046511627907,
		  "pitch": 53,
		  "start": 50.4651162790698,
		  "velocity": 80
		},
		{
		  "duration": 0.0436046511627907,
		  "pitch": 38,
		  "start": 50.5813953488372,
		  "velocity": 80
		},
		{
		  "duration": 0.0436046511627907,
		  "pitch": 53,
		  "start": 50.6976744186046,
		  "velocity": 80
		},
		{
		  "duration": 0.0436046511627907,
		  "pitch": 53,
		  "start": 50.9302325581395,
		  "velocity": 80
		},
		{
		  "duration": 0.0436046511627907,
		  "pitch": 36,
		  "start": 50.9302325581395,
		  "velocity": 80
		},
		{
		  "duration": 0.0436046511627907,
		  "pitch": 53,
		  "start": 51.1627906976744,
		  "velocity": 80
		},
		{
		  "duration": 0.0436046511627907,
		  "pitch": 36,
		  "start": 51.1627906976744,
		  "velocity": 80
		},
		{
		  "duration": 0.0436046511627907,
		  "pitch": 46,
		  "start": 51.2790697674419,
		  "velocity": 80
		},
		{
		  "duration": 0.0436046511627907,
		  "pitch": 53,
		  "start": 51.3953488372093,
		  "velocity": 80
		},
		{
		  "duration": 0.0436046511627907,
		  "pitch": 38,
		  "start": 51.3953488372093,
		  "velocity": 80
		},
		{
		  "duration": 0.0436046511627907,
		  "pitch": 53,
		  "start": 51.6279069767442,
		  "velocity": 80
		},
		{
		  "duration": 0.0436046511627907,
		  "pitch": 36,
		  "start": 51.6279069767442,
		  "velocity": 80
		},
		{
		  "duration": 0.0436046511627907,
		  "pitch": 53,
		  "start": 51.8604651162791,
		  "velocity": 80
		},
		{
		  "duration": 0.0436046511627907,
		  "pitch": 38,
		  "start": 51.9767441860465,
		  "velocity": 80
		},
		{
		  "duration": 0.0436046511627907,
		  "pitch": 53,
		  "start": 52.093023255814,
		  "velocity": 80
		},
		{
		  "duration": 0.0436046511627907,
		  "pitch": 53,
		  "start": 52.3255813953488,
		  "velocity": 80
		},
		{
		  "duration": 0.0436046511627907,
		  "pitch": 41,
		  "start": 52.3255813953488,
		  "velocity": 80
		},
		{
		  "duration": 0.0436046511627907,
		  "pitch": 36,
		  "start": 52.3255813953488,
		  "velocity": 80
		},
		{
		  "duration": 0.0436046511627907,
		  "pitch": 48,
		  "start": 52.4418604651163,
		  "velocity": 80
		},
		{
		  "duration": 0.0436046511627907,
		  "pitch": 53,
		  "start": 52.5581395348837,
		  "velocity": 80
		},
		{
		  "duration": 0.0436046511627907,
		  "pitch": 45,
		  "start": 52.5581395348837,
		  "velocity": 80
		},
		{
		  "duration": 0.0436046511627907,
		  "pitch": 36,
		  "start": 52.5581395348837,
		  "velocity": 80
		},
		{
		  "duration": 0.0436046511627907,
		  "pitch": 42,
		  "start": 52.6744186046512,
		  "velocity": 60
		},
		{
		  "duration": 0.0436046511627907,
		  "pitch": 38,
		  "start": 52.6744186046512,
		  "velocity": 80
		},
		{
		  "duration": 0.0436046511627907,
		  "pitch": 46,
		  "start": 52.7906976744186,
		  "velocity": 80
		},
		{
		  "duration": 0.0436046511627907,
		  "pitch": 42,
		  "start": 52.906976744186,
		  "velocity": 60
		},
		{
		  "duration": 0.0436046511627907,
		  "pitch": 36,
		  "start": 53.0232558139535,
		  "velocity": 80
		},
		{
		  "duration": 0.0436046511627907,
		  "pitch": 53,
		  "start": 53.0232558139535,
		  "velocity": 80
		},
		{
		  "duration": 0.0436046511627907,
		  "pitch": 53,
		  "start": 53.2558139534884,
		  "velocity": 80
		},
		{
		  "duration": 0.0436046511627907,
		  "pitch": 38,
		  "start": 53.3720930232558,
		  "velocity": 80
		},
		{
		  "duration": 0.0436046511627907,
		  "pitch": 53,
		  "start": 53.4883720930233,
		  "velocity": 80
		},
		{
		  "duration": 0.0436046511627907,
		  "pitch": 53,
		  "start": 53.7209302325581,
		  "velocity": 80
		},
		{
		  "duration": 0.0436046511627907,
		  "pitch": 36,
		  "start": 53.7209302325581,
		  "velocity": 80
		},
		{
		  "duration": 0.0436046511627907,
		  "pitch": 53,
		  "start": 53.953488372093,
		  "velocity": 80
		},
		{
		  "duration": 0.0436046511627907,
		  "pitch": 36,
		  "start": 53.953488372093,
		  "velocity": 80
		},
		{
		  "duration": 0.0436046511627907,
		  "pitch": 46,
		  "start": 54.0697674418605,
		  "velocity": 80
		},
		{
		  "duration": 0.0436046511627907,
		  "pitch": 53,
		  "start": 54.1860465116279,
		  "velocity": 80
		},
		{
		  "duration": 0.0436046511627907,
		  "pitch": 38,
		  "start": 54.1860465116279,
		  "velocity": 80
		},
		{
		  "duration": 0.0436046511627907,
		  "pitch": 53,
		  "start": 54.4186046511628,
		  "velocity": 80
		},
		{
		  "duration": 0.0436046511627907,
		  "pitch": 36,
		  "start": 54.4186046511628,
		  "velocity": 80
		},
		{
		  "duration": 0.0436046511627907,
		  "pitch": 53,
		  "start": 54.6511627906977,
		  "velocity": 80
		},
		{
		  "duration": 0.0436046511627907,
		  "pitch": 38,
		  "start": 54.7674418604651,
		  "velocity": 80
		},
		{
		  "duration": 0.0436046511627907,
		  "pitch": 53,
		  "start": 54.8837209302326,
		  "velocity": 80
		},
		{
		  "duration": 0.0436046511627907,
		  "pitch": 53,
		  "start": 55.1162790697674,
		  "velocity": 80
		},
		{
		  "duration": 0.0436046511627907,
		  "pitch": 41,
		  "start": 55.1162790697674,
		  "velocity": 80
		},
		{
		  "duration": 0.0436046511627907,
		  "pitch": 36,
		  "start": 55.1162790697674,
		  "velocity": 80
		},
		{
		  "duration": 0.0436046511627907,
		  "pitch": 48,
		  "start": 55.2325581395349,
		  "velocity": 80
		},
		{
		  "duration": 0.0436046511627907,
		  "pitch": 53,
		  "start": 55.3488372093023,
		  "velocity": 80
		},
		{
		  "duration": 0.0436046511627907,
		  "pitch": 45,
		  "start": 55.3488372093023,
		  "velocity": 80
		},
		{
		  "duration": 0.0436046511627907,
		  "pitch": 36,
		  "start": 55.3488372093023,
		  "velocity": 80
		},
		{
		  "duration": 0.0436046511627907,
		  "pitch": 42,
		  "start": 55.4651162790698,
		  "velocity": 60
		},
		{
		  "duration": 0.0436046511627907,
		  "pitch": 38,
		  "start": 55.4651162790698,
		  "velocity": 80
		},
		{
		  "duration": 0.0436046511627907,
		  "pitch": 46,
		  "start": 55.5813953488372,
		  "velocity": 80
		},
		{
		  "duration": 0.0436046511627907,
		  "pitch": 42,
		  "start": 55.6976744186046,
		  "velocity": 60
		},
		{
		  "duration": 0.0436046511627907,
		  "pitch": 36,
		  "start": 55.8139534883721,
		  "velocity": 80
		},
		{
		  "duration": 0.0436046511627907,
		  "pitch": 49,
		  "start": 55.8139534883721,
		  "velocity": 80
		},
		{
		  "duration": 0.0436046511627907,
		  "pitch": 53,
		  "start": 56.046511627907,
		  "velocity": 80
		},
		{
		  "duration": 0.0436046511627907,
		  "pitch": 38,
		  "start": 56.1627906976744,
		  "velocity": 80
		},
		{
		  "duration": 0.0436046511627907,
		  "pitch": 53,
		  "start": 56.2790697674419,
		  "velocity": 80
		},
		{
		  "duration": 0.0436046511627907,
		  "pitch": 53,
		  "start": 56.5116279069767,
		  "velocity": 80
		},
		{
		  "duration": 0.0436046511627907,
		  "pitch": 36,
		  "start": 56.5116279069767,
		  "velocity": 80
		},
		{
		  "duration": 0.0436046511627907,
		  "pitch": 53,
		  "start": 56.7441860465116,
		  "velocity": 80
		},
		{
		  "duration": 0.0436046511627907,
		  "pitch": 36,
		  "start": 56.7441860465116,
		  "velocity": 80
		},
		{
		  "duration": 0.0436046511627907,
		  "pitch": 46,
		  "start": 56.8604651162791,
		  "velocity": 80
		},
		{
		  "duration": 0.0436046511627907,
		  "pitch": 53,
		  "start": 56.9767441860465,
		  "velocity": 80
		},
		{
		  "duration": 0.0436046511627907,
		  "pitch": 38,
		  "start": 56.9767441860465,
		  "velocity": 80
		},
		{
		  "duration": 0.0436046511627907,
		  "pitch": 53,
		  "start": 57.2093023255814,
		  "velocity": 80
		},
		{
		  "duration": 0.0436046511627907,
		  "pitch": 36,
		  "start": 57.2093023255814,
		  "velocity": 80
		},
		{
		  "duration": 0.0436046511627907,
		  "pitch": 53,
		  "start": 57.4418604651163,
		  "velocity": 80
		},
		{
		  "duration": 0.0436046511627907,
		  "pitch": 38,
		  "start": 57.5581395348837,
		  "velocity": 80
		},
		{
		  "duration": 0.0436046511627907,
		  "pitch": 53,
		  "start": 57.6744186046512,
		  "velocity": 80
		},
		{
		  "duration": 0.0436046511627907,
		  "pitch": 53,
		  "start": 57.906976744186,
		  "velocity": 80
		},
		{
		  "duration": 0.0436046511627907,
		  "pitch": 41,
		  "start": 57.906976744186,
		  "velocity": 80
		},
		{
		  "duration": 0.0436046511627907,
		  "pitch": 36,
		  "start": 57.906976744186,
		  "velocity": 80
		},
		{
		  "duration": 0.0436046511627907,
		  "pitch": 48,
		  "start": 58.0232558139535,
		  "velocity": 80
		},
		{
		  "duration": 0.0436046511627907,
		  "pitch": 53,
		  "start": 58.1395348837209,
		  "velocity": 80
		},
		{
		  "duration": 0.0436046511627907,
		  "pitch": 45,
		  "start": 58.1395348837209,
		  "velocity": 80
		},
		{
		  "duration": 0.0436046511627907,
		  "pitch": 36,
		  "start": 58.1395348837209,
		  "velocity": 80
		},
		{
		  "duration": 0.0436046511627907,
		  "pitch": 42,
		  "start": 58.2558139534884,
		  "velocity": 60
		},
		{
		  "duration": 0.0436046511627907,
		  "pitch": 38,
		  "start": 58.2558139534884,
		  "velocity": 80
		},
		{
		  "duration": 0.0436046511627907,
		  "pitch": 46,
		  "start": 58.3720930232558,
		  "velocity": 80
		},
		{
		  "duration": 0.0436046511627907,
		  "pitch": 42,
		  "start": 58.4883720930233,
		  "velocity": 60
		},
		{
		  "duration": 0.0436046511627907,
		  "pitch": 36,
		  "start": 58.6046511627907,
		  "velocity": 80
		},
		{
		  "duration": 0.0436046511627907,
		  "pitch": 53,
		  "start": 58.6046511627907,
		  "velocity": 80
		},
		{
		  "duration": 0.0436046511627907,
		  "pitch": 53,
		  "start": 58.8372093023256,
		  "velocity": 80
		},
		{
		  "duration": 0.0436046511627907,
		  "pitch": 38,
		  "start": 58.953488372093,
		  "velocity": 80
		},
		{
		  "duration": 0.0436046511627907,
		  "pitch": 53,
		  "start": 59.0697674418605,
		  "velocity": 80
		},
		{
		  "duration": 0.0436046511627907,
		  "pitch": 53,
		  "start": 59.3023255813954,
		  "velocity": 80
		},
		{
		  "duration": 0.0436046511627907,
		  "pitch": 36,
		  "start": 59.3023255813954,
		  "velocity": 80
		},
		{
		  "duration": 0.0436046511627907,
		  "pitch": 53,
		  "start": 59.5348837209302,
		  "velocity": 80
		},
		{
		  "duration": 0.0436046511627907,
		  "pitch": 36,
		  "start": 59.5348837209302,
		  "velocity": 80
		},
		{
		  "duration": 0.0436046511627907,
		  "pitch": 46,
		  "start": 59.6511627906977,
		  "velocity": 80
		},
		{
		  "duration": 0.0436046511627907,
		  "pitch": 53,
		  "start": 59.7674418604651,
		  "velocity": 80
		},
		{
		  "duration": 0.0436046511627907,
		  "pitch": 38,
		  "start": 59.7674418604651,
		  "velocity": 80
		},
		{
		  "duration": 0.0436046511627907,
		  "pitch": 53,
		  "start": 60.0,
		  "velocity": 80
		},
		{
		  "duration": 0.0436046511627907,
		  "pitch": 36,
		  "start": 60.0,
		  "velocity": 80
		},
		{
		  "duration": 0.0436046511627907,
		  "pitch": 53,
		  "start": 60.2325581395349,
		  "velocity": 80
		},
		{
		  "duration": 0.0436046511627907,
		  "pitch": 38,
		  "start": 60.3488372093023,
		  "velocity": 80
		},
		{
		  "duration": 0.0436046511627907,
		  "pitch": 53,
		  "start": 60.4651162790698,
		  "velocity": 80
		},
		{
		  "duration": 0.0436046511627907,
		  "pitch": 53,
		  "start": 60.6976744186046,
		  "velocity": 80
		},
		{
		  "duration": 0.0436046511627907,
		  "pitch": 36,
		  "start": 60.6976744186046,
		  "velocity": 80
		},
		{
		  "duration": 0.0436046511627907,
		  "pitch": 53,
		  "start": 60.9302325581395,
		  "velocity": 80
		},
		{
		  "duration": 0.0436046511627907,
		  "pitch": 36,
		  "start": 60.9302325581395,
		  "velocity": 80
		},
		{
		  "duration": 0.0436046511627907,
		  "pitch": 42,
		  "start": 61.046511627907,
		  "velocity": 60
		},
		{
		  "duration": 0.0436046511627907,
		  "pitch": 38,
		  "start": 61.046511627907,
		  "velocity": 80
		},
		{
		  "duration": 0.0436046511627907,
		  "pitch": 46,
		  "start": 61.1627906976744,
		  "velocity": 80
		},
		{
		  "duration": 0.0436046511627907,
		  "pitch": 38,
		  "start": 61.1627906976744,
		  "velocity": 80
		},
		{
		  "duration": 0.0436046511627907,
		  "pitch": 42,
		  "start": 61.2790697674419,
		  "velocity": 60
		},
		{
		  "duration": 0.0436046511627907,
		  "pitch": 38,
		  "start": 61.2790697674419,
		  "velocity": 80
		},
		{
		  "duration": 0.0436046511627907,
		  "pitch": 42,
		  "start": 61.3953488372093,
		  "velocity": 60
		},
		{
		  "duration": 0.0436046511627907,
		  "pitch": 36,
		  "start": 61.3953488372093,
		  "velocity": 80
		},
		{
		  "duration": 0.0436046511627907,
		  "pitch": 42,
		  "start": 61.6279069767442,
		  "velocity": 60
		},
		{
		  "duration": 0.0436046511627907,
		  "pitch": 36,
		  "start": 61.6279069767442,
		  "velocity": 80
		},
		{
		  "duration": 0.0436046511627907,
		  "pitch": 42,
		  "start": 61.7441860465116,
		  "velocity": 60
		},
		{
		  "duration": 0.0436046511627907,
		  "pitch": 38,
		  "start": 61.7441860465116,
		  "velocity": 80
		},
		{
		  "duration": 0.0436046511627907,
		  "pitch": 42,
		  "start": 61.9767441860465,
		  "velocity": 60
		},
		{
		  "duration": 0.0436046511627907,
		  "pitch": 42,
		  "start": 62.093023255814,
		  "velocity": 60
		},
		{
		  "duration": 0.0436046511627907,
		  "pitch": 36,
		  "start": 62.093023255814,
		  "velocity": 80
		},
		{
		  "duration": 0.0436046511627907,
		  "pitch": 42,
		  "start": 62.3255813953488,
		  "velocity": 60
		},
		{
		  "duration": 0.0436046511627907,
		  "pitch": 36,
		  "start": 62.3255813953488,
		  "velocity": 80
		},
		{
		  "duration": 0.0436046511627907,
		  "pitch": 42,
		  "start": 62.4418604651163,
		  "velocity": 60
		},
		{
		  "duration": 0.0436046511627907,
		  "pitch": 38,
		  "start": 62.4418604651163,
		  "velocity": 80
		},
		{
		  "duration": 0.0436046511627907,
		  "pitch": 46,
		  "start": 62.5581395348837,
		  "velocity": 80
		},
		{
		  "duration": 0.0436046511627907,
		  "pitch": 42,
		  "start": 62.6744186046512,
		  "velocity": 60
		},
		{
		  "duration": 0.0436046511627907,
		  "pitch": 42,
		  "start": 62.7906976744186,
		  "velocity": 60
		},
		{
		  "duration": 0.0436046511627907,
		  "pitch": 36,
		  "start": 62.7906976744186,
		  "velocity": 80
		},
		{
		  "duration": 0.0436046511627907,
		  "pitch": 42,
		  "start": 63.0232558139535,
		  "velocity": 60
		},
		{
		  "duration": 0.0436046511627907,
		  "pitch": 36,
		  "start": 63.0232558139535,
		  "velocity": 80
		},
		{
		  "duration": 0.0436046511627907,
		  "pitch": 42,
		  "start": 63.1395348837209,
		  "velocity": 60
		},
		{
		  "duration": 0.0436046511627907,
		  "pitch": 38,
		  "start": 63.1395348837209,
		  "velocity": 80
		},
		{
		  "duration": 0.0436046511627907,
		  "pitch": 42,
		  "start": 63.3720930232558,
		  "velocity": 60
		},
		{
		  "duration": 0.0436046511627907,
		  "pitch": 42,
		  "start": 63.4883720930233,
		  "velocity": 60
		},
		{
		  "duration": 0.0436046511627907,
		  "pitch": 36,
		  "start": 63.4883720930233,
		  "velocity": 80
		},
		{
		  "duration": 0.0436046511627907,
		  "pitch": 42,
		  "start": 63.7209302325581,
		  "velocity": 60
		},
		{
		  "duration": 0.0436046511627907,
		  "pitch": 36,
		  "start": 63.7209302325581,
		  "velocity": 80
		},
		{
		  "duration": 0.0436046511627907,
		  "pitch": 42,
		  "start": 63.8372093023256,
		  "velocity": 60
		},
		{
		  "duration": 0.0436046511627907,
		  "pitch": 38,
		  "start": 63.8372093023256,
		  "velocity": 80
		},
		{
		  "duration": 0.0436046511627907,
		  "pitch": 46,
		  "start": 63.953488372093,
		  "velocity": 80
		},
		{
		  "duration": 0.0436046511627907,
		  "pitch": 42,
		  "start": 64.0697674418605,
		  "velocity": 60
		},
		{
		  "duration": 0.0436046511627907,
		  "pitch": 42,
		  "start": 64.1860465116279,
		  "velocity": 60
		},
		{
		  "duration": 0.0436046511627907,
		  "pitch": 36,
		  "start": 64.1860465116279,
		  "velocity": 80
		},
		{
		  "duration": 0.0436046511627907,
		  "pitch": 42,
		  "start": 64.4186046511628,
		  "velocity": 60
		},
		{
		  "duration": 0.0436046511627907,
		  "pitch": 36,
		  "start": 64.4186046511628,
		  "velocity": 80
		},
		{
		  "duration": 0.0436046511627907,
		  "pitch": 42,
		  "start": 64.5348837209302,
		  "velocity": 60
		},
		{
		  "duration": 0.0436046511627907,
		  "pitch": 38,
		  "start": 64.5348837209302,
		  "velocity": 80
		},
		{
		  "duration": 0.0436046511627907,
		  "pitch": 42,
		  "start": 64.7674418604651,
		  "velocity": 60
		},
		{
		  "duration": 0.0436046511627907,
		  "pitch": 42,
		  "start": 64.8837209302326,
		  "velocity": 60
		},
		{
		  "duration": 0.0436046511627907,
		  "pitch": 36,
		  "start": 64.8837209302326,
		  "velocity": 80
		},
		{
		  "duration": 0.0436046511627907,
		  "pitch": 42,
		  "start": 65.1162790697674,
		  "velocity": 60
		},
		{
		  "duration": 0.0436046511627907,
		  "pitch": 36,
		  "start": 65.1162790697674,
		  "velocity": 80
		},
		{
		  "duration": 0.0436046511627907,
		  "pitch": 42,
		  "start": 65.2325581395349,
		  "velocity": 60
		},
		{
		  "duration": 0.0436046511627907,
		  "pitch": 38,
		  "start": 65.2325581395349,
		  "velocity": 80
		},
		{
		  "duration": 0.0436046511627907,
		  "pitch": 46,
		  "start": 65.3488372093023,
		  "velocity": 80
		},
		{
		  "duration": 0.0436046511627907,
		  "pitch": 42,
		  "start": 65.4651162790698,
		  "velocity": 60
		},
		{
		  "duration": 0.0436046511627907,
		  "pitch": 42,
		  "start": 65.5813953488372,
		  "velocity": 60
		},
		{
		  "duration": 0.0436046511627907,
		  "pitch": 36,
		  "start": 65.5813953488372,
		  "velocity": 80
		},
		{
		  "duration": 0.0436046511627907,
		  "pitch": 42,
		  "start": 65.8139534883721,
		  "velocity": 60
		},
		{
		  "duration": 0.0436046511627907,
		  "pitch": 36,
		  "start": 65.8139534883721,
		  "velocity": 80
		},
		{
		  "duration": 0.0436046511627907,
		  "pitch": 42,
		  "start": 65.9302325581395,
		  "velocity": 60
		},
		{
		  "duration": 0.0436046511627907,
		  "pitch": 38,
		  "start": 65.9302325581395,
		  "velocity": 80
		},
		{
		  "duration": 0.0436046511627907,
		  "pitch": 42,
		  "start": 66.1627906976744,
		  "velocity": 60
		},
		{
		  "duration": 0.0436046511627907,
		  "pitch": 42,
		  "start": 66.2790697674419,
		  "velocity": 60
		},
		{
		  "duration": 0.0436046511627907,
		  "pitch": 36,
		  "start": 66.2790697674419,
		  "velocity": 80
		},
		{
		  "duration": 0.0436046511627907,
		  "pitch": 42,
		  "start": 66.5116279069767,
		  "velocity": 60
		},
		{
		  "duration": 0.0436046511627907,
		  "pitch": 36,
		  "start": 66.5116279069767,
		  "velocity": 80
		},
		{
		  "duration": 0.0436046511627907,
		  "pitch": 42,
		  "start": 66.6279069767442,
		  "velocity": 60
		},
		{
		  "duration": 0.0436046511627907,
		  "pitch": 38,
		  "start": 66.6279069767442,
		  "velocity": 80
		},
		{
		  "duration": 0.0436046511627907,
		  "pitch": 46,
		  "start": 66.7441860465116,
		  "velocity": 80
		},
		{
		  "duration": 0.0436046511627907,
		  "pitch": 42,
		  "start": 66.8604651162791,
		  "velocity": 60
		},
		{
		  "duration": 0.0436046511627907,
		  "pitch": 42,
		  "start": 66.9767441860465,
		  "velocity": 60
		},
		{
		  "duration": 0.0436046511627907,
		  "pitch": 36,
		  "start": 66.9767441860465,
		  "velocity": 80
		},
		{
		  "duration": 0.0436046511627907,
		  "pitch": 42,
		  "start": 67.2093023255814,
		  "velocity": 60
		},
		{
		  "duration": 0.0436046511627907,
		  "pitch": 36,
		  "start": 67.2093023255814,
		  "velocity": 80
		},
		{
		  "duration": 0.0436046511627907,
		  "pitch": 42,
		  "start": 67.3255813953488,
		  "velocity": 60
		},
		{
		  "duration": 0.0436046511627907,
		  "pitch": 38,
		  "start": 67.3255813953488,
		  "velocity": 80
		},
		{
		  "duration": 0.0436046511627907,
		  "pitch": 42,
		  "start": 67.5581395348837,
		  "velocity": 60
		},
		{
		  "duration": 0.0436046511627907,
		  "pitch": 42,
		  "start": 67.6744186046512,
		  "velocity": 60
		},
		{
		  "duration": 0.0436046511627907,
		  "pitch": 36,
		  "start": 67.6744186046512,
		  "velocity": 80
		},
		{
		  "duration": 0.0436046511627907,
		  "pitch": 42,
		  "start": 67.9069767441861,
		  "velocity": 60
		},
		{
		  "duration": 0.0436046511627907,
		  "pitch": 36,
		  "start": 67.9069767441861,
		  "velocity": 80
		},
		{
		  "duration": 0.0436046511627907,
		  "pitch": 42,
		  "start": 68.0232558139535,
		  "velocity": 60
		},
		{
		  "duration": 0.0436046511627907,
		  "pitch": 38,
		  "start": 68.0232558139535,
		  "velocity": 80
		},
		{
		  "duration": 0.0436046511627907,
		  "pitch": 46,
		  "start": 68.1395348837209,
		  "velocity": 80
		},
		{
		  "duration": 0.0436046511627907,
		  "pitch": 42,
		  "start": 68.2558139534884,
		  "velocity": 60
		},
		{
		  "duration": 0.0436046511627907,
		  "pitch": 42,
		  "start": 68.3720930232558,
		  "velocity": 60
		},
		{
		  "duration": 0.0436046511627907,
		  "pitch": 36,
		  "start": 68.3720930232558,
		  "velocity": 80
		},
		{
		  "duration": 0.0436046511627907,
		  "pitch": 42,
		  "start": 68.6046511627907,
		  "velocity": 60
		},
		{
		  "duration": 0.0436046511627907,
		  "pitch": 36,
		  "start": 68.6046511627907,
		  "velocity": 80
		},
		{
		  "duration": 0.0436046511627907,
		  "pitch": 42,
		  "start": 68.7209302325581,
		  "velocity": 60
		},
		{
		  "duration": 0.0436046511627907,
		  "pitch": 38,
		  "start": 68.7209302325581,
		  "velocity": 80
		},
		{
		  "duration": 0.0436046511627907,
		  "pitch": 42,
		  "start": 68.953488372093,
		  "velocity": 60
		},
		{
		  "duration": 0.0436046511627907,
		  "pitch": 42,
		  "start": 69.0697674418605,
		  "velocity": 60
		},
		{
		  "duration": 0.0436046511627907,
		  "pitch": 36,
		  "start": 69.0697674418605,
		  "velocity": 80
		},
		{
		  "duration": 0.0436046511627907,
		  "pitch": 42,
		  "start": 69.3023255813954,
		  "velocity": 60
		},
		{
		  "duration": 0.0436046511627907,
		  "pitch": 36,
		  "start": 69.3023255813954,
		  "velocity": 80
		},
		{
		  "duration": 0.0436046511627907,
		  "pitch": 42,
		  "start": 69.4186046511628,
		  "velocity": 60
		},
		{
		  "duration": 0.0436046511627907,
		  "pitch": 38,
		  "start": 69.4186046511628,
		  "velocity": 80
		},
		{
		  "duration": 0.0436046511627907,
		  "pitch": 46,
		  "start": 69.5348837209302,
		  "velocity": 80
		},
		{
		  "duration": 0.0436046511627907,
		  "pitch": 42,
		  "start": 69.6511627906977,
		  "velocity": 60
		},
		{
		  "duration": 0.0436046511627907,
		  "pitch": 42,
		  "start": 69.7674418604651,
		  "velocity": 60
		},
		{
		  "duration": 0.0436046511627907,
		  "pitch": 36,
		  "start": 69.7674418604651,
		  "velocity": 80
		},
		{
		  "duration": 0.0436046511627907,
		  "pitch": 42,
		  "start": 70.0,
		  "velocity": 60
		},
		{
		  "duration": 0.0436046511627907,
		  "pitch": 36,
		  "start": 70.0,
		  "velocity": 80
		},
		{
		  "duration": 0.0436046511627907,
		  "pitch": 42,
		  "start": 70.1162790697674,
		  "velocity": 60
		},
		{
		  "duration": 0.0436046511627907,
		  "pitch": 38,
		  "start": 70.1162790697674,
		  "velocity": 80
		},
		{
		  "duration": 0.0436046511627907,
		  "pitch": 42,
		  "start": 70.3488372093023,
		  "velocity": 60
		},
		{
		  "duration": 0.0436046511627907,
		  "pitch": 42,
		  "start": 70.4651162790698,
		  "velocity": 60
		},
		{
		  "duration": 0.0436046511627907,
		  "pitch": 36,
		  "start": 70.4651162790698,
		  "velocity": 80
		},
		{
		  "duration": 0.0436046511627907,
		  "pitch": 42,
		  "start": 70.6976744186046,
		  "velocity": 60
		},
		{
		  "duration": 0.0436046511627907,
		  "pitch": 36,
		  "start": 70.6976744186046,
		  "velocity": 80
		},
		{
		  "duration": 0.0436046511627907,
		  "pitch": 42,
		  "start": 70.8139534883721,
		  "velocity": 60
		},
		{
		  "duration": 0.0436046511627907,
		  "pitch": 38,
		  "start": 70.8139534883721,
		  "velocity": 80
		},
		{
		  "duration": 0.0436046511627907,
		  "pitch": 46,
		  "start": 70.9302325581395,
		  "velocity": 80
		},
		{
		  "duration": 0.0436046511627907,
		  "pitch": 42,
		  "start": 71.046511627907,
		  "velocity": 60
		},
		{
		  "duration": 0.0436046511627907,
		  "pitch": 42,
		  "start": 71.1627906976744,
		  "velocity": 60
		},
		{
		  "duration": 0.0436046511627907,
		  "pitch": 36,
		  "start": 71.1627906976744,
		  "velocity": 80
		},
		{
		  "duration": 0.0436046511627907,
		  "pitch": 42,
		  "start": 71.3953488372093,
		  "velocity": 60
		},
		{
		  "duration": 0.0436046511627907,
		  "pitch": 36,
		  "start": 71.3953488372093,
		  "velocity": 80
		},
		{
		  "duration": 0.0436046511627907,
		  "pitch": 42,
		  "start": 71.5116279069767,
		  "velocity": 60
		},
		{
		  "duration": 0.0436046511627907,
		  "pitch": 38,
		  "start": 71.5116279069767,
		  "velocity": 80
		},
		{
		  "duration": 0.0436046511627907,
		  "pitch": 42,
		  "start": 71.7441860465116,
		  "velocity": 60
		},
		{
		  "duration": 0.0436046511627907,
		  "pitch": 42,
		  "start": 71.8604651162791,
		  "velocity": 60
		},
		{
		  "duration": 0.0436046511627907,
		  "pitch": 36,
		  "start": 71.8604651162791,
		  "velocity": 80
		},
		{
		  "duration": 0.0436046511627907,
		  "pitch": 42,
		  "start": 72.0930232558139,
		  "velocity": 60
		},
		{
		  "duration": 0.0436046511627907,
		  "pitch": 36,
		  "start": 72.0930232558139,
		  "velocity": 80
		},
		{
		  "duration": 0.0436046511627907,
		  "pitch": 42,
		  "start": 72.2093023255814,
		  "velocity": 60
		},
		{
		  "duration": 0.0436046511627907,
		  "pitch": 38,
		  "start": 72.2093023255814,
		  "velocity": 80
		},
		{
		  "duration": 0.0436046511627907,
		  "pitch": 46,
		  "start": 72.3255813953488,
		  "velocity": 80
		},
		{
		  "duration": 0.0436046511627907,
		  "pitch": 42,
		  "start": 72.4418604651163,
		  "velocity": 60
		},
		{
		  "duration": 0.0436046511627907,
		  "pitch": 42,
		  "start": 72.5581395348837,
		  "velocity": 60
		},
		{
		  "duration": 0.0436046511627907,
		  "pitch": 36,
		  "start": 72.5581395348837,
		  "velocity": 80
		},
		{
		  "duration": 0.0436046511627907,
		  "pitch": 49,
		  "start": 72.5581395348837,
		  "velocity": 80
		},
		{
		  "duration": 0.0436046511627907,
		  "pitch": 42,
		  "start": 72.7906976744186,
		  "velocity": 60
		},
		{
		  "duration": 0.0436046511627907,
		  "pitch": 36,
		  "start": 72.7906976744186,
		  "velocity": 80
		},
		{
		  "duration": 0.0436046511627907,
		  "pitch": 42,
		  "start": 72.9069767441861,
		  "velocity": 60
		},
		{
		  "duration": 0.0436046511627907,
		  "pitch": 38,
		  "start": 72.9069767441861,
		  "velocity": 80
		},
		{
		  "duration": 0.0436046511627907,
		  "pitch": 46,
		  "start": 73.0232558139535,
		  "velocity": 80
		},
		{
		  "duration": 0.0436046511627907,
		  "pitch": 42,
		  "start": 73.1395348837209,
		  "velocity": 60
		},
		{
		  "duration": 0.0436046511627907,
		  "pitch": 42,
		  "start": 73.2558139534884,
		  "velocity": 60
		},
		{
		  "duration": 0.0436046511627907,
		  "pitch": 36,
		  "start": 73.2558139534884,
		  "velocity": 80
		},
		{
		  "duration": 0.0436046511627907,
		  "pitch": 42,
		  "start": 73.4883720930233,
		  "velocity": 60
		},
		{
		  "duration": 0.0436046511627907,
		  "pitch": 36,
		  "start": 73.4883720930233,
		  "velocity": 80
		},
		{
		  "duration": 0.0436046511627907,
		  "pitch": 42,
		  "start": 73.6046511627907,
		  "velocity": 60
		},
		{
		  "duration": 0.0436046511627907,
		  "pitch": 41,
		  "start": 73.6046511627907,
		  "velocity": 80
		},
		{
		  "duration": 0.0436046511627907,
		  "pitch": 42,
		  "start": 73.953488372093,
		  "velocity": 60
		},
		{
		  "duration": 0.0436046511627907,
		  "pitch": 36,
		  "start": 73.953488372093,
		  "velocity": 80
		},
		{
		  "duration": 0.0436046511627907,
		  "pitch": 42,
		  "start": 74.1860465116279,
		  "velocity": 60
		},
		{
		  "duration": 0.0436046511627907,
		  "pitch": 36,
		  "start": 74.1860465116279,
		  "velocity": 80
		},
		{
		  "duration": 0.0436046511627907,
		  "pitch": 42,
		  "start": 74.3023255813954,
		  "velocity": 60
		},
		{
		  "duration": 0.0436046511627907,
		  "pitch": 38,
		  "start": 74.3023255813954,
		  "velocity": 80
		},
		{
		  "duration": 0.0436046511627907,
		  "pitch": 46,
		  "start": 74.4186046511628,
		  "velocity": 80
		},
		{
		  "duration": 0.0436046511627907,
		  "pitch": 42,
		  "start": 74.5348837209302,
		  "velocity": 60
		},
		{
		  "duration": 0.0436046511627907,
		  "pitch": 42,
		  "start": 74.6511627906977,
		  "velocity": 60
		},
		{
		  "duration": 0.0436046511627907,
		  "pitch": 36,
		  "start": 74.6511627906977,
		  "velocity": 80
		},
		{
		  "duration": 0.0436046511627907,
		  "pitch": 42,
		  "start": 74.8837209302326,
		  "velocity": 60
		},
		{
		  "duration": 0.0436046511627907,
		  "pitch": 36,
		  "start": 74.8837209302326,
		  "velocity": 80
		},
		{
		  "duration": 0.0436046511627907,
		  "pitch": 42,
		  "start": 75.0,
		  "velocity": 60
		},
		{
		  "duration": 0.0436046511627907,
		  "pitch": 41,
		  "start": 75.0,
		  "velocity": 80
		},
		{
		  "duration": 0.0436046511627907,
		  "pitch": 42,
		  "start": 75.3488372093023,
		  "velocity": 60
		},
		{
		  "duration": 0.0436046511627907,
		  "pitch": 36,
		  "start": 75.3488372093023,
		  "velocity": 80
		},
		{
		  "duration": 0.0436046511627907,
		  "pitch": 42,
		  "start": 75.5813953488372,
		  "velocity": 60
		},
		{
		  "duration": 0.0436046511627907,
		  "pitch": 36,
		  "start": 75.5813953488372,
		  "velocity": 80
		},
		{
		  "duration": 0.0436046511627907,
		  "pitch": 42,
		  "start": 75.6976744186046,
		  "velocity": 60
		},
		{
		  "duration": 0.0436046511627907,
		  "pitch": 38,
		  "start": 75.6976744186046,
		  "velocity": 80
		},
		{
		  "duration": 0.0436046511627907,
		  "pitch": 46,
		  "start": 75.8139534883721,
		  "velocity": 80
		},
		{
		  "duration": 0.0436046511627907,
		  "pitch": 42,
		  "start": 75.9302325581395,
		  "velocity": 60
		},
		{
		  "duration": 0.0436046511627907,
		  "pitch": 42,
		  "start": 76.046511627907,
		  "velocity": 60
		},
		{
		  "duration": 0.0436046511627907,
		  "pitch": 36,
		  "start": 76.046511627907,
		  "velocity": 80
		},
		{
		  "duration": 0.0436046511627907,
		  "pitch": 42,
		  "start": 76.2790697674419,
		  "velocity": 60
		},
		{
		  "duration": 0.0436046511627907,
		  "pitch": 36,
		  "start": 76.2790697674419,
		  "velocity": 80
		},
		{
		  "duration": 0.0436046511627907,
		  "pitch": 42,
		  "start": 76.3953488372093,
		  "velocity": 60
		},
		{
		  "duration": 0.0436046511627907,
		  "pitch": 41,
		  "start": 76.3953488372093,
		  "velocity": 80
		},
		{
		  "duration": 0.0436046511627907,
		  "pitch": 42,
		  "start": 76.7441860465116,
		  "velocity": 60
		},
		{
		  "duration": 0.0436046511627907,
		  "pitch": 36,
		  "start": 76.7441860465116,
		  "velocity": 80
		},
		{
		  "duration": 0.0436046511627907,
		  "pitch": 42,
		  "start": 76.9767441860465,
		  "velocity": 60
		},
		{
		  "duration": 0.0436046511627907,
		  "pitch": 36,
		  "start": 76.9767441860465,
		  "velocity": 80
		},
		{
		  "duration": 0.0436046511627907,
		  "pitch": 42,
		  "start": 77.0930232558139,
		  "velocity": 60
		},
		{
		  "duration": 0.0436046511627907,
		  "pitch": 38,
		  "start": 77.0930232558139,
		  "velocity": 80
		},
		{
		  "duration": 0.0436046511627907,
		  "pitch": 46,
		  "start": 77.2093023255814,
		  "velocity": 80
		},
		{
		  "duration": 0.0436046511627907,
		  "pitch": 42,
		  "start": 77.3255813953488,
		  "velocity": 60
		},
		{
		  "duration": 0.0436046511627907,
		  "pitch": 42,
		  "start": 77.4418604651163,
		  "velocity": 60
		},
		{
		  "duration": 0.0436046511627907,
		  "pitch": 36,
		  "start": 77.4418604651163,
		  "velocity": 80
		},
		{
		  "duration": 0.0436046511627907,
		  "pitch": 42,
		  "start": 77.6744186046512,
		  "velocity": 60
		},
		{
		  "duration": 0.0436046511627907,
		  "pitch": 36,
		  "start": 77.6744186046512,
		  "velocity": 80
		},
		{
		  "duration": 0.0436046511627907,
		  "pitch": 42,
		  "start": 77.7906976744186,
		  "velocity": 60
		},
		{
		  "duration": 0.0436046511627907,
		  "pitch": 41,
		  "start": 77.7906976744186,
		  "velocity": 80
		},
		{
		  "duration": 0.0436046511627907,
		  "pitch": 42,
		  "start": 78.1395348837209,
		  "velocity": 60
		},
		{
		  "duration": 0.0436046511627907,
		  "pitch": 36,
		  "start": 78.1395348837209,
		  "velocity": 80
		},
		{
		  "duration": 0.0436046511627907,
		  "pitch": 42,
		  "start": 78.3720930232558,
		  "velocity": 60
		},
		{
		  "duration": 0.0436046511627907,
		  "pitch": 36,
		  "start": 78.3720930232558,
		  "velocity": 80
		},
		{
		  "duration": 0.0436046511627907,
		  "pitch": 42,
		  "start": 78.4883720930233,
		  "velocity": 60
		},
		{
		  "duration": 0.0436046511627907,
		  "pitch": 38,
		  "start": 78.4883720930233,
		  "velocity": 80
		},
		{
		  "duration": 0.0436046511627907,
		  "pitch": 46,
		  "start": 78.6046511627907,
		  "velocity": 80
		},
		{
		  "duration": 0.0436046511627907,
		  "pitch": 42,
		  "start": 78.7209302325581,
		  "velocity": 60
		},
		{
		  "duration": 0.0436046511627907,
		  "pitch": 42,
		  "start": 78.8372093023256,
		  "velocity": 60
		},
		{
		  "duration": 0.0436046511627907,
		  "pitch": 36,
		  "start": 78.8372093023256,
		  "velocity": 80
		},
		{
		  "duration": 0.0436046511627907,
		  "pitch": 42,
		  "start": 79.0697674418605,
		  "velocity": 60
		},
		{
		  "duration": 0.0436046511627907,
		  "pitch": 36,
		  "start": 79.0697674418605,
		  "velocity": 80
		},
		{
		  "duration": 0.0436046511627907,
		  "pitch": 42,
		  "start": 79.1860465116279,
		  "velocity": 60
		},
		{
		  "duration": 0.0436046511627907,
		  "pitch": 41,
		  "start": 79.1860465116279,
		  "velocity": 80
		},
		{
		  "duration": 0.0436046511627907,
		  "pitch": 42,
		  "start": 79.5348837209302,
		  "velocity": 60
		},
		{
		  "duration": 0.0436046511627907,
		  "pitch": 36,
		  "start": 79.5348837209302,
		  "velocity": 80
		},
		{
		  "duration": 0.0436046511627907,
		  "pitch": 42,
		  "start": 79.7674418604651,
		  "velocity": 60
		},
		{
		  "duration": 0.0436046511627907,
		  "pitch": 36,
		  "start": 79.7674418604651,
		  "velocity": 80
		},
		{
		  "duration": 0.0436046511627907,
		  "pitch": 42,
		  "start": 79.8837209302326,
		  "velocity": 60
		},
		{
		  "duration": 0.0436046511627907,
		  "pitch": 38,
		  "start": 79.8837209302326,
		  "velocity": 80
		},
		{
		  "duration": 0.0436046511627907,
		  "pitch": 46,
		  "start": 80.0,
		  "velocity": 80
		},
		{
		  "duration": 0.0436046511627907,
		  "pitch": 42,
		  "start": 80.1162790697674,
		  "velocity": 60
		},
		{
		  "duration": 0.0436046511627907,
		  "pitch": 42,
		  "start": 80.2325581395349,
		  "velocity": 60
		},
		{
		  "duration": 0.0436046511627907,
		  "pitch": 36,
		  "start": 80.2325581395349,
		  "velocity": 80
		},
		{
		  "duration": 0.0436046511627907,
		  "pitch": 42,
		  "start": 80.4651162790698,
		  "velocity": 60
		},
		{
		  "duration": 0.0436046511627907,
		  "pitch": 36,
		  "start": 80.4651162790698,
		  "velocity": 80
		},
		{
		  "duration": 0.0436046511627907,
		  "pitch": 42,
		  "start": 80.5813953488372,
		  "velocity": 60
		},
		{
		  "duration": 0.0436046511627907,
		  "pitch": 41,
		  "start": 80.5813953488372,
		  "velocity": 80
		},
		{
		  "duration": 0.0436046511627907,
		  "pitch": 42,
		  "start": 80.9302325581395,
		  "velocity": 60
		},
		{
		  "duration": 0.0436046511627907,
		  "pitch": 36,
		  "start": 80.9302325581395,
		  "velocity": 80
		},
		{
		  "duration": 0.0436046511627907,
		  "pitch": 42,
		  "start": 81.1627906976744,
		  "velocity": 60
		},
		{
		  "duration": 0.0436046511627907,
		  "pitch": 36,
		  "start": 81.1627906976744,
		  "velocity": 80
		},
		{
		  "duration": 0.0436046511627907,
		  "pitch": 42,
		  "start": 81.2790697674419,
		  "velocity": 60
		},
		{
		  "duration": 0.0436046511627907,
		  "pitch": 38,
		  "start": 81.2790697674419,
		  "velocity": 80
		},
		{
		  "duration": 0.0436046511627907,
		  "pitch": 46,
		  "start": 81.3953488372093,
		  "velocity": 80
		},
		{
		  "duration": 0.0436046511627907,
		  "pitch": 42,
		  "start": 81.5116279069767,
		  "velocity": 60
		},
		{
		  "duration": 0.0436046511627907,
		  "pitch": 42,
		  "start": 81.6279069767442,
		  "velocity": 60
		},
		{
		  "duration": 0.0436046511627907,
		  "pitch": 36,
		  "start": 81.6279069767442,
		  "velocity": 80
		},
		{
		  "duration": 0.0436046511627907,
		  "pitch": 42,
		  "start": 81.8604651162791,
		  "velocity": 60
		},
		{
		  "duration": 0.0436046511627907,
		  "pitch": 36,
		  "start": 81.8604651162791,
		  "velocity": 80
		},
		{
		  "duration": 0.0436046511627907,
		  "pitch": 42,
		  "start": 81.9767441860465,
		  "velocity": 60
		},
		{
		  "duration": 0.0436046511627907,
		  "pitch": 41,
		  "start": 81.9767441860465,
		  "velocity": 80
		},
		{
		  "duration": 0.0436046511627907,
		  "pitch": 42,
		  "start": 82.3255813953488,
		  "velocity": 60
		},
		{
		  "duration": 0.0436046511627907,
		  "pitch": 36,
		  "start": 82.3255813953488,
		  "velocity": 80
		},
		{
		  "duration": 0.0436046511627907,
		  "pitch": 42,
		  "start": 82.5581395348837,
		  "velocity": 60
		},
		{
		  "duration": 0.0436046511627907,
		  "pitch": 36,
		  "start": 82.5581395348837,
		  "velocity": 80
		},
		{
		  "duration": 0.0436046511627907,
		  "pitch": 42,
		  "start": 82.6744186046512,
		  "velocity": 60
		},
		{
		  "duration": 0.0436046511627907,
		  "pitch": 38,
		  "start": 82.6744186046512,
		  "velocity": 80
		},
		{
		  "duration": 0.0436046511627907,
		  "pitch": 46,
		  "start": 82.7906976744186,
		  "velocity": 80
		},
		{
		  "duration": 0.0436046511627907,
		  "pitch": 42,
		  "start": 82.9069767441861,
		  "velocity": 60
		},
		{
		  "duration": 0.0436046511627907,
		  "pitch": 42,
		  "start": 83.0232558139535,
		  "velocity": 60
		},
		{
		  "duration": 0.0436046511627907,
		  "pitch": 36,
		  "start": 83.0232558139535,
		  "velocity": 80
		},
		{
		  "duration": 0.0436046511627907,
		  "pitch": 48,
		  "start": 83.1395348837209,
		  "velocity": 80
		},
		{
		  "duration": 0.0436046511627907,
		  "pitch": 36,
		  "start": 83.2558139534884,
		  "velocity": 80
		},
		{
		  "duration": 0.0436046511627907,
		  "pitch": 48,
		  "start": 83.2558139534884,
		  "velocity": 80
		},
		{
		  "duration": 0.0436046511627907,
		  "pitch": 45,
		  "start": 83.3720930232558,
		  "velocity": 80
		},
		{
		  "duration": 0.0436046511627907,
		  "pitch": 45,
		  "start": 83.4883720930233,
		  "velocity": 80
		},
		{
		  "duration": 0.0436046511627907,
		  "pitch": 41,
		  "start": 83.6046511627907,
		  "velocity": 80
		},
		{
		  "duration": 0.0436046511627907,
		  "pitch": 42,
		  "start": 83.7209302325581,
		  "velocity": 60
		},
		{
		  "duration": 0.0436046511627907,
		  "pitch": 36,
		  "start": 83.7209302325581,
		  "velocity": 80
		},
		{
		  "duration": 0.0436046511627907,
		  "pitch": 42,
		  "start": 83.953488372093,
		  "velocity": 60
		},
		{
		  "duration": 0.0436046511627907,
		  "pitch": 36,
		  "start": 83.953488372093,
		  "velocity": 80
		},
		{
		  "duration": 0.0436046511627907,
		  "pitch": 42,
		  "start": 84.0697674418605,
		  "velocity": 60
		},
		{
		  "duration": 0.0436046511627907,
		  "pitch": 38,
		  "start": 84.0697674418605,
		  "velocity": 80
		},
		{
		  "duration": 0.0436046511627907,
		  "pitch": 49,
		  "start": 84.0697674418605,
		  "velocity": 80
		},
		{
		  "duration": 0.0436046511627907,
		  "pitch": 46,
		  "start": 84.1860465116279,
		  "velocity": 80
		},
		{
		  "duration": 0.0436046511627907,
		  "pitch": 42,
		  "start": 84.3023255813954,
		  "velocity": 60
		},
		{
		  "duration": 0.0436046511627907,
		  "pitch": 42,
		  "start": 84.4186046511628,
		  "velocity": 60
		},
		{
		  "duration": 0.0436046511627907,
		  "pitch": 36,
		  "start": 84.4186046511628,
		  "velocity": 80
		},
		{
		  "duration": 0.0436046511627907,
		  "pitch": 42,
		  "start": 84.6511627906977,
		  "velocity": 60
		},
		{
		  "duration": 0.0436046511627907,
		  "pitch": 36,
		  "start": 84.6511627906977,
		  "velocity": 80
		},
		{
		  "duration": 0.0436046511627907,
		  "pitch": 42,
		  "start": 84.7674418604651,
		  "velocity": 60
		},
		{
		  "duration": 0.0436046511627907,
		  "pitch": 41,
		  "start": 84.7674418604651,
		  "velocity": 80
		},
		{
		  "duration": 0.0436046511627907,
		  "pitch": 42,
		  "start": 85.1162790697674,
		  "velocity": 60
		},
		{
		  "duration": 0.0436046511627907,
		  "pitch": 36,
		  "start": 85.1162790697674,
		  "velocity": 80
		},
		{
		  "duration": 0.0436046511627907,
		  "pitch": 42,
		  "start": 85.3488372093023,
		  "velocity": 60
		},
		{
		  "duration": 0.0436046511627907,
		  "pitch": 36,
		  "start": 85.3488372093023,
		  "velocity": 80
		},
		{
		  "duration": 0.0436046511627907,
		  "pitch": 42,
		  "start": 85.4651162790698,
		  "velocity": 60
		},
		{
		  "duration": 0.0436046511627907,
		  "pitch": 38,
		  "start": 85.4651162790698,
		  "velocity": 80
		},
		{
		  "duration": 0.0436046511627907,
		  "pitch": 49,
		  "start": 85.4651162790698,
		  "velocity": 80
		},
		{
		  "duration": 0.0436046511627907,
		  "pitch": 46,
		  "start": 85.5813953488372,
		  "velocity": 80
		},
		{
		  "duration": 0.0436046511627907,
		  "pitch": 42,
		  "start": 85.6976744186046,
		  "velocity": 60
		},
		{
		  "duration": 0.0436046511627907,
		  "pitch": 42,
		  "start": 85.8139534883721,
		  "velocity": 60
		},
		{
		  "duration": 0.0436046511627907,
		  "pitch": 36,
		  "start": 85.8139534883721,
		  "velocity": 80
		},
		{
		  "duration": 0.0436046511627907,
		  "pitch": 42,
		  "start": 86.046511627907,
		  "velocity": 60
		},
		{
		  "duration": 0.0436046511627907,
		  "pitch": 36,
		  "start": 86.046511627907,
		  "velocity": 80
		},
		{
		  "duration": 0.0436046511627907,
		  "pitch": 42,
		  "start": 86.1627906976744,
		  "velocity": 60
		},
		{
		  "duration": 0.0436046511627907,
		  "pitch": 41,
		  "start": 86.1627906976744,
		  "velocity": 80
		},
		{
		  "duration": 0.0436046511627907,
		  "pitch": 42,
		  "start": 86.5116279069767,
		  "velocity": 60
		},
		{
		  "duration": 0.0436046511627907,
		  "pitch": 36,
		  "start": 86.5116279069767,
		  "velocity": 80
		},
		{
		  "duration": 0.0436046511627907,
		  "pitch": 42,
		  "start": 86.7441860465116,
		  "velocity": 60
		},
		{
		  "duration": 0.0436046511627907,
		  "pitch": 36,
		  "start": 86.7441860465116,
		  "velocity": 80
		},
		{
		  "duration": 0.0436046511627907,
		  "pitch": 42,
		  "start": 86.8604651162791,
		  "velocity": 60
		},
		{
		  "duration": 0.0436046511627907,
		  "pitch": 38,
		  "start": 86.8604651162791,
		  "velocity": 80
		},
		{
		  "duration": 0.0436046511627907,
		  "pitch": 49,
		  "start": 86.8604651162791,
		  "velocity": 80
		},
		{
		  "duration": 0.0436046511627907,
		  "pitch": 46,
		  "start": 86.9767441860465,
		  "velocity": 80
		},
		{
		  "duration": 0.0436046511627907,
		  "pitch": 42,
		  "start": 87.0930232558139,
		  "velocity": 60
		},
		{
		  "duration": 0.0436046511627907,
		  "pitch": 42,
		  "start": 87.2093023255814,
		  "velocity": 60
		},
		{
		  "duration": 0.0436046511627907,
		  "pitch": 36,
		  "start": 87.2093023255814,
		  "velocity": 80
		},
		{
		  "duration": 0.0436046511627907,
		  "pitch": 42,
		  "start": 87.4418604651163,
		  "velocity": 60
		},
		{
		  "duration": 0.0436046511627907,
		  "pitch": 36,
		  "start": 87.4418604651163,
		  "velocity": 80
		},
		{
		  "duration": 0.0436046511627907,
		  "pitch": 42,
		  "start": 87.5581395348837,
		  "velocity": 60
		},
		{
		  "duration": 0.0436046511627907,
		  "pitch": 41,
		  "start": 87.5581395348837,
		  "velocity": 80
		},
		{
		  "duration": 0.0436046511627907,
		  "pitch": 42,
		  "start": 87.9069767441861,
		  "velocity": 60
		},
		{
		  "duration": 0.0436046511627907,
		  "pitch": 36,
		  "start": 87.9069767441861,
		  "velocity": 80
		},
		{
		  "duration": 0.0436046511627907,
		  "pitch": 42,
		  "start": 88.1395348837209,
		  "velocity": 60
		},
		{
		  "duration": 0.0436046511627907,
		  "pitch": 36,
		  "start": 88.1395348837209,
		  "velocity": 80
		},
		{
		  "duration": 0.0436046511627907,
		  "pitch": 42,
		  "start": 88.2558139534884,
		  "velocity": 60
		},
		{
		  "duration": 0.0436046511627907,
		  "pitch": 38,
		  "start": 88.2558139534884,
		  "velocity": 80
		},
		{
		  "duration": 0.0436046511627907,
		  "pitch": 49,
		  "start": 88.2558139534884,
		  "velocity": 80
		},
		{
		  "duration": 0.0436046511627907,
		  "pitch": 46,
		  "start": 88.3720930232558,
		  "velocity": 80
		},
		{
		  "duration": 0.0436046511627907,
		  "pitch": 42,
		  "start": 88.4883720930233,
		  "velocity": 60
		},
		{
		  "duration": 0.0436046511627907,
		  "pitch": 42,
		  "start": 88.6046511627907,
		  "velocity": 60
		},
		{
		  "duration": 0.0436046511627907,
		  "pitch": 36,
		  "start": 88.6046511627907,
		  "velocity": 80
		},
		{
		  "duration": 0.0436046511627907,
		  "pitch": 42,
		  "start": 88.8372093023256,
		  "velocity": 60
		},
		{
		  "duration": 0.0436046511627907,
		  "pitch": 36,
		  "start": 88.8372093023256,
		  "velocity": 80
		},
		{
		  "duration": 0.0436046511627907,
		  "pitch": 42,
		  "start": 88.953488372093,
		  "velocity": 60
		},
		{
		  "duration": 0.0436046511627907,
		  "pitch": 41,
		  "start": 88.953488372093,
		  "velocity": 80
		},
		{
		  "duration": 0.0436046511627907,
		  "pitch": 42,
		  "start": 89.3023255813954,
		  "velocity": 60
		},
		{
		  "duration": 0.0436046511627907,
		  "pitch": 36,
		  "start": 89.3023255813954,
		  "velocity": 80
		},
		{
		  "duration": 0.0436046511627907,
		  "pitch": 42,
		  "start": 89.5348837209302,
		  "velocity": 60
		},
		{
		  "duration": 0.0436046511627907,
		  "pitch": 36,
		  "start": 89.5348837209302,
		  "velocity": 80
		},
		{
		  "duration": 0.0436046511627907,
		  "pitch": 42,
		  "start": 89.6511627906977,
		  "velocity": 60
		},
		{
		  "duration": 0.0436046511627907,
		  "pitch": 38,
		  "start": 89.6511627906977,
		  "velocity": 80
		},
		{
		  "duration": 0.0436046511627907,
		  "pitch": 49,
		  "start": 89.6511627906977,
		  "velocity": 80
		},
		{
		  "duration": 0.0436046511627907,
		  "pitch": 46,
		  "start": 89.7674418604651,
		  "velocity": 80
		},
		{
		  "duration": 0.0436046511627907,
		  "pitch": 42,
		  "start": 89.8837209302326,
		  "velocity": 60
		},
		{
		  "duration": 0.0436046511627907,
		  "pitch": 42,
		  "start": 90.0,
		  "velocity": 60
		},
		{
		  "duration": 0.0436046511627907,
		  "pitch": 36,
		  "start": 90.0,
		  "velocity": 80
		},
		{
		  "duration": 0.0436046511627907,
		  "pitch": 42,
		  "start": 90.2325581395349,
		  "velocity": 60
		},
		{
		  "duration": 0.0436046511627907,
		  "pitch": 36,
		  "start": 90.2325581395349,
		  "velocity": 80
		},
		{
		  "duration": 0.0436046511627907,
		  "pitch": 42,
		  "start": 90.3488372093023,
		  "velocity": 60
		},
		{
		  "duration": 0.0436046511627907,
		  "pitch": 41,
		  "start": 90.3488372093023,
		  "velocity": 80
		},
		{
		  "duration": 0.0436046511627907,
		  "pitch": 42,
		  "start": 90.6976744186046,
		  "velocity": 60
		},
		{
		  "duration": 0.0436046511627907,
		  "pitch": 36,
		  "start": 90.6976744186046,
		  "velocity": 80
		},
		{
		  "duration": 0.0436046511627907,
		  "pitch": 42,
		  "start": 90.9302325581395,
		  "velocity": 60
		},
		{
		  "duration": 0.0436046511627907,
		  "pitch": 36,
		  "start": 90.9302325581395,
		  "velocity": 80
		},
		{
		  "duration": 0.0436046511627907,
		  "pitch": 42,
		  "start": 91.046511627907,
		  "velocity": 60
		},
		{
		  "duration": 0.0436046511627907,
		  "pitch": 38,
		  "start": 91.046511627907,
		  "velocity": 80
		},
		{
		  "duration": 0.0436046511627907,
		  "pitch": 49,
		  "start": 91.046511627907,
		  "velocity": 80
		},
		{
		  "duration": 0.0436046511627907,
		  "pitch": 46,
		  "start": 91.1627906976744,
		  "velocity": 80
		},
		{
		  "duration": 0.0436046511627907,
		  "pitch": 42,
		  "start": 91.2790697674419,
		  "velocity": 60
		},
		{
		  "duration": 0.0436046511627907,
		  "pitch": 42,
		  "start": 91.3953488372093,
		  "velocity": 60
		},
		{
		  "duration": 0.0436046511627907,
		  "pitch": 36,
		  "start": 91.3953488372093,
		  "velocity": 80
		},
		{
		  "duration": 0.0436046511627907,
		  "pitch": 42,
		  "start": 91.6279069767442,
		  "velocity": 60
		},
		{
		  "duration": 0.0436046511627907,
		  "pitch": 36,
		  "start": 91.6279069767442,
		  "velocity": 80
		},
		{
		  "duration": 0.0436046511627907,
		  "pitch": 42,
		  "start": 91.7441860465116,
		  "velocity": 60
		},
		{
		  "duration": 0.0436046511627907,
		  "pitch": 41,
		  "start": 91.7441860465116,
		  "velocity": 80
		},
		{
		  "duration": 0.0436046511627907,
		  "pitch": 41,
		  "start": 91.9767441860465,
		  "velocity": 80
		},
		{
		  "duration": 0.0436046511627907,
		  "pitch": 48,
		  "start": 92.0930232558139,
		  "velocity": 64
		},
		{
		  "duration": 0.0436046511627907,
		  "pitch": 36,
		  "start": 92.0930232558139,
		  "velocity": 80
		},
		{
		  "duration": 0.0436046511627907,
		  "pitch": 42,
		  "start": 92.0930232558139,
		  "velocity": 60
		},
		{
		  "duration": 0.0436046511627907,
		  "pitch": 48,
		  "start": 92.1511627906977,
		  "velocity": 80
		},
		{
		  "duration": 0.0436046511627907,
		  "pitch": 48,
		  "start": 92.2093023255814,
		  "velocity": 80
		},
		{
		  "duration": 0.0436046511627907,
		  "pitch": 48,
		  "start": 92.3255813953488,
		  "velocity": 80
		},
		{
		  "duration": 0.0436046511627907,
		  "pitch": 48,
		  "start": 92.4418604651163,
		  "velocity": 80
		},
		{
		  "duration": 0.0436046511627907,
		  "pitch": 42,
		  "start": 92.4418604651163,
		  "velocity": 60
		},
		{
		  "duration": 0.0436046511627907,
		  "pitch": 36,
		  "start": 92.7906976744186,
		  "velocity": 80
		},
		{
		  "duration": 0.0436046511627907,
		  "pitch": 42,
		  "start": 92.7906976744186,
		  "velocity": 60
		},
		{
		  "duration": 0.0436046511627907,
		  "pitch": 38,
		  "start": 92.9069767441861,
		  "velocity": 80
		},
		{
		  "duration": 0.0436046511627907,
		  "pitch": 46,
		  "start": 92.9651162790698,
		  "velocity": 80
		},
		{
		  "duration": 0.0436046511627907,
		  "pitch": 38,
		  "start": 93.1395348837209,
		  "velocity": 80
		},
		{
		  "duration": 0.0436046511627907,
		  "pitch": 42,
		  "start": 93.1395348837209,
		  "velocity": 60
		},
		{
		  "duration": 0.0436046511627907,
		  "pitch": 49,
		  "start": 93.1395348837209,
		  "velocity": 80
		},
		{
		  "duration": 0.0436046511627907,
		  "pitch": 38,
		  "start": 93.2558139534884,
		  "velocity": 80
		},
		{
		  "duration": 0.0436046511627907,
		  "pitch": 38,
		  "start": 93.3720930232558,
		  "velocity": 80
		},
		{
		  "duration": 0.0436046511627907,
		  "pitch": 45,
		  "start": 93.4883720930233,
		  "velocity": 80
		},
		{
		  "duration": 0.0436046511627907,
		  "pitch": 36,
		  "start": 93.4883720930233,
		  "velocity": 80
		},
		{
		  "duration": 0.0436046511627907,
		  "pitch": 45,
		  "start": 93.6046511627907,
		  "velocity": 80
		},
		{
		  "duration": 0.0436046511627907,
		  "pitch": 45,
		  "start": 93.7209302325581,
		  "velocity": 80
		},
		{
		  "duration": 0.0436046511627907,
		  "pitch": 41,
		  "start": 93.8372093023256,
		  "velocity": 80
		},
		{
		  "duration": 0.0436046511627907,
		  "pitch": 41,
		  "start": 93.953488372093,
		  "velocity": 80
		},
		{
		  "duration": 0.0436046511627907,
		  "pitch": 41,
		  "start": 94.0697674418605,
		  "velocity": 80
		},
		{
		  "duration": 0.0436046511627907,
		  "pitch": 42,
		  "start": 94.1860465116279,
		  "velocity": 60
		},
		{
		  "duration": 0.0436046511627907,
		  "pitch": 38,
		  "start": 94.1860465116279,
		  "velocity": 80
		},
		{
		  "duration": 0.0436046511627907,
		  "pitch": 36,
		  "start": 94.1860465116279,
		  "velocity": 80
		},
		{
		  "duration": 0.0436046511627907,
		  "pitch": 42,
		  "start": 94.4186046511628,
		  "velocity": 60
		},
		{
		  "duration": 0.0436046511627907,
		  "pitch": 36,
		  "start": 94.4186046511628,
		  "velocity": 80
		},
		{
		  "duration": 0.0436046511627907,
		  "pitch": 38,
		  "start": 94.5348837209302,
		  "velocity": 80
		},
		{
		  "duration": 0.0436046511627907,
		  "pitch": 36,
		  "start": 94.5348837209302,
		  "velocity": 80
		},
		{
		  "duration": 0.0436046511627907,
		  "pitch": 42,
		  "start": 94.6511627906977,
		  "velocity": 60
		},
		{
		  "duration": 0.0436046511627907,
		  "pitch": 42,
		  "start": 94.7674418604651,
		  "velocity": 60
		},
		{
		  "duration": 0.0436046511627907,
		  "pitch": 38,
		  "start": 94.8837209302326,
		  "velocity": 80
		},
		{
		  "duration": 0.0436046511627907,
		  "pitch": 49,
		  "start": 94.8837209302326,
		  "velocity": 80
		},
		{
		  "duration": 0.0436046511627907,
		  "pitch": 36,
		  "start": 94.8837209302326,
		  "velocity": 80
		},
		{
		  "duration": 0.0436046511627907,
		  "pitch": 46,
		  "start": 94.8837209302326,
		  "velocity": 80
		},
		{
		  "duration": 0.0436046511627907,
		  "pitch": 46,
		  "start": 95.2325581395349,
		  "velocity": 80
		},
		{
		  "duration": 0.0436046511627907,
		  "pitch": 46,
		  "start": 95.5813953488372,
		  "velocity": 80
		},
		{
		  "duration": 0.0436046511627907,
		  "pitch": 46,
		  "start": 95.9302325581395,
		  "velocity": 80
		},
		{
		  "duration": 0.0436046511627907,
		  "pitch": 46,
		  "start": 96.2790697674419,
		  "velocity": 80
		},
		{
		  "duration": 0.0436046511627907,
		  "pitch": 46,
		  "start": 96.6279069767442,
		  "velocity": 80
		},
		{
		  "duration": 0.0436046511627907,
		  "pitch": 46,
		  "start": 96.9767441860465,
		  "velocity": 80
		},
		{
		  "duration": 0.0436046511627907,
		  "pitch": 46,
		  "start": 97.3255813953488,
		  "velocity": 80
		},
		{
		  "duration": 0.0436046511627907,
		  "pitch": 38,
		  "start": 97.6744186046512,
		  "velocity": 80
		},
		{
		  "duration": 0.0436046511627907,
		  "pitch": 49,
		  "start": 97.6744186046512,
		  "velocity": 80
		},
		{
		  "duration": 0.0436046511627907,
		  "pitch": 36,
		  "start": 97.6744186046512,
		  "velocity": 80
		},
		{
		  "duration": 0.0436046511627907,
		  "pitch": 46,
		  "start": 97.6744186046512,
		  "velocity": 80
		},
		{
		  "duration": 0.0436046511627907,
		  "pitch": 46,
		  "start": 98.0232558139535,
		  "velocity": 80
		},
		{
		  "duration": 0.0436046511627907,
		  "pitch": 46,
		  "start": 98.3720930232558,
		  "velocity": 80
		},
		{
		  "duration": 0.0436046511627907,
		  "pitch": 46,
		  "start": 98.7209302325581,
		  "velocity": 80
		},
		{
		  "duration": 0.0436046511627907,
		  "pitch": 46,
		  "start": 99.0697674418605,
		  "velocity": 80
		},
		{
		  "duration": 0.0436046511627907,
		  "pitch": 46,
		  "start": 99.4186046511628,
		  "velocity": 80
		},
		{
		  "duration": 0.0436046511627907,
		  "pitch": 46,
		  "start": 99.7674418604651,
		  "velocity": 80
		},
		{
		  "duration": 0.0436046511627907,
		  "pitch": 48,
		  "start": 99.7674418604651,
		  "velocity": 80
		},
		{
		  "duration": 0.0436046511627907,
		  "pitch": 46,
		  "start": 100.116279069767,
		  "velocity": 80
		},
		{
		  "duration": 0.0436046511627907,
		  "pitch": 45,
		  "start": 100.116279069767,
		  "velocity": 80
		},
		{
		  "duration": 0.0436046511627907,
		  "pitch": 41,
		  "start": 100.360465116279,
		  "velocity": 80
		},
		{
		  "duration": 0.0436046511627907,
		  "pitch": 38,
		  "start": 100.46511627907,
		  "velocity": 80
		},
		{
		  "duration": 0.0436046511627907,
		  "pitch": 49,
		  "start": 100.46511627907,
		  "velocity": 80
		},
		{
		  "duration": 0.0436046511627907,
		  "pitch": 36,
		  "start": 100.46511627907,
		  "velocity": 80
		},
		{
		  "duration": 0.0436046511627907,
		  "pitch": 46,
		  "start": 100.46511627907,
		  "velocity": 80
		},
		{
		  "duration": 0.0436046511627907,
		  "pitch": 46,
		  "start": 100.813953488372,
		  "velocity": 80
		},
		{
		  "duration": 0.0436046511627907,
		  "pitch": 46,
		  "start": 101.162790697674,
		  "velocity": 80
		},
		{
		  "duration": 0.0436046511627907,
		  "pitch": 46,
		  "start": 101.511627906977,
		  "velocity": 80
		},
		{
		  "duration": 0.0436046511627907,
		  "pitch": 46,
		  "start": 101.860465116279,
		  "velocity": 80
		},
		{
		  "duration": 0.0436046511627907,
		  "pitch": 46,
		  "start": 102.209302325581,
		  "velocity": 80
		},
		{
		  "duration": 0.0436046511627907,
		  "pitch": 45,
		  "start": 102.209302325581,
		  "velocity": 80
		},
		{
		  "duration": 0.0436046511627907,
		  "pitch": 46,
		  "start": 102.558139534884,
		  "velocity": 80
		},
		{
		  "duration": 0.0436046511627907,
		  "pitch": 48,
		  "start": 102.558139534884,
		  "velocity": 80
		},
		{
		  "duration": 0.0436046511627907,
		  "pitch": 48,
		  "start": 102.674418604651,
		  "velocity": 80
		},
		{
		  "duration": 0.0436046511627907,
		  "pitch": 45,
		  "start": 102.790697674419,
		  "velocity": 80
		},
		{
		  "duration": 0.0436046511627907,
		  "pitch": 46,
		  "start": 102.906976744186,
		  "velocity": 80
		},
		{
		  "duration": 0.0436046511627907,
		  "pitch": 45,
		  "start": 102.906976744186,
		  "velocity": 80
		},
		{
		  "duration": 0.0436046511627907,
		  "pitch": 38,
		  "start": 103.255813953488,
		  "velocity": 80
		},
		{
		  "duration": 0.0436046511627907,
		  "pitch": 49,
		  "start": 103.255813953488,
		  "velocity": 80
		},
		{
		  "duration": 0.0436046511627907,
		  "pitch": 36,
		  "start": 103.255813953488,
		  "velocity": 80
		},
		{
		  "duration": 0.0436046511627907,
		  "pitch": 46,
		  "start": 103.255813953488,
		  "velocity": 80
		},
		{
		  "duration": 0.0436046511627907,
		  "pitch": 46,
		  "start": 103.604651162791,
		  "velocity": 80
		},
		{
		  "duration": 0.0436046511627907,
		  "pitch": 46,
		  "start": 103.953488372093,
		  "velocity": 80
		},
		{
		  "duration": 0.0436046511627907,
		  "pitch": 46,
		  "start": 104.302325581395,
		  "velocity": 80
		},
		{
		  "duration": 0.0436046511627907,
		  "pitch": 46,
		  "start": 104.651162790698,
		  "velocity": 80
		},
		{
		  "duration": 0.0436046511627907,
		  "pitch": 46,
		  "start": 105.0,
		  "velocity": 80
		},
		{
		  "duration": 0.0436046511627907,
		  "pitch": 46,
		  "start": 105.348837209302,
		  "velocity": 80
		},
		{
		  "duration": 0.0436046511627907,
		  "pitch": 45,
		  "start": 105.348837209302,
		  "velocity": 80
		},
		{
		  "duration": 0.0436046511627907,
		  "pitch": 45,
		  "start": 105.46511627907,
		  "velocity": 80
		},
		{
		  "duration": 0.0436046511627907,
		  "pitch": 41,
		  "start": 105.581395348837,
		  "velocity": 80
		},
		{
		  "duration": 0.0436046511627907,
		  "pitch": 46,
		  "start": 105.697674418605,
		  "velocity": 80
		},
		{
		  "duration": 0.0436046511627907,
		  "pitch": 36,
		  "start": 105.697674418605,
		  "velocity": 80
		},
		{
		  "duration": 0.0436046511627907,
		  "pitch": 38,
		  "start": 105.813953488372,
		  "velocity": 80
		},
		{
		  "duration": 0.0436046511627907,
		  "pitch": 53,
		  "start": 106.046511627907,
		  "velocity": 80
		},
		{
		  "duration": 0.0436046511627907,
		  "pitch": 36,
		  "start": 106.046511627907,
		  "velocity": 80
		},
		{
		  "duration": 0.0436046511627907,
		  "pitch": 53,
		  "start": 106.279069767442,
		  "velocity": 80
		},
		{
		  "duration": 0.0436046511627907,
		  "pitch": 36,
		  "start": 106.279069767442,
		  "velocity": 80
		},
		{
		  "duration": 0.0436046511627907,
		  "pitch": 38,
		  "start": 106.395348837209,
		  "velocity": 80
		},
		{
		  "duration": 0.0436046511627907,
		  "pitch": 53,
		  "start": 106.511627906977,
		  "velocity": 80
		},
		{
		  "duration": 0.0436046511627907,
		  "pitch": 53,
		  "start": 106.744186046512,
		  "velocity": 80
		},
		{
		  "duration": 0.0436046511627907,
		  "pitch": 36,
		  "start": 106.744186046512,
		  "velocity": 80
		},
		{
		  "duration": 0.0436046511627907,
		  "pitch": 38,
		  "start": 106.860465116279,
		  "velocity": 80
		},
		{
		  "duration": 0.0436046511627907,
		  "pitch": 53,
		  "start": 106.976744186047,
		  "velocity": 80
		},
		{
		  "duration": 0.0436046511627907,
		  "pitch": 36,
		  "start": 107.093023255814,
		  "velocity": 80
		},
		{
		  "duration": 0.0436046511627907,
		  "pitch": 53,
		  "start": 107.209302325581,
		  "velocity": 80
		},
		{
		  "duration": 0.0436046511627907,
		  "pitch": 36,
		  "start": 107.325581395349,
		  "velocity": 80
		},
		{
		  "duration": 0.0436046511627907,
		  "pitch": 36,
		  "start": 107.441860465116,
		  "velocity": 80
		},
		{
		  "duration": 0.0436046511627907,
		  "pitch": 53,
		  "start": 107.441860465116,
		  "velocity": 80
		},
		{
		  "duration": 0.0436046511627907,
		  "pitch": 53,
		  "start": 107.674418604651,
		  "velocity": 80
		},
		{
		  "duration": 0.0436046511627907,
		  "pitch": 36,
		  "start": 107.674418604651,
		  "velocity": 80
		},
		{
		  "duration": 0.0436046511627907,
		  "pitch": 38,
		  "start": 107.790697674419,
		  "velocity": 80
		},
		{
		  "duration": 0.0436046511627907,
		  "pitch": 53,
		  "start": 107.906976744186,
		  "velocity": 80
		},
		{
		  "duration": 0.0436046511627907,
		  "pitch": 53,
		  "start": 108.139534883721,
		  "velocity": 80
		},
		{
		  "duration": 0.0436046511627907,
		  "pitch": 36,
		  "start": 108.139534883721,
		  "velocity": 80
		},
		{
		  "duration": 0.0436046511627907,
		  "pitch": 53,
		  "start": 108.372093023256,
		  "velocity": 80
		},
		{
		  "duration": 0.0436046511627907,
		  "pitch": 38,
		  "start": 108.604651162791,
		  "velocity": 80
		},
		{
		  "duration": 0.0436046511627907,
		  "pitch": 49,
		  "start": 108.604651162791,
		  "velocity": 80
		},
		{
		  "duration": 0.0436046511627907,
		  "pitch": 53,
		  "start": 108.837209302326,
		  "velocity": 80
		},
		{
		  "duration": 0.0436046511627907,
		  "pitch": 36,
		  "start": 108.837209302326,
		  "velocity": 80
		},
		{
		  "duration": 0.0436046511627907,
		  "pitch": 53,
		  "start": 109.06976744186,
		  "velocity": 80
		},
		{
		  "duration": 0.0436046511627907,
		  "pitch": 36,
		  "start": 109.06976744186,
		  "velocity": 80
		},
		{
		  "duration": 0.0436046511627907,
		  "pitch": 38,
		  "start": 109.186046511628,
		  "velocity": 80
		},
		{
		  "duration": 0.0436046511627907,
		  "pitch": 53,
		  "start": 109.302325581395,
		  "velocity": 80
		},
		{
		  "duration": 0.0436046511627907,
		  "pitch": 53,
		  "start": 109.53488372093,
		  "velocity": 80
		},
		{
		  "duration": 0.0436046511627907,
		  "pitch": 36,
		  "start": 109.53488372093,
		  "velocity": 80
		},
		{
		  "duration": 0.0436046511627907,
		  "pitch": 38,
		  "start": 109.651162790698,
		  "velocity": 80
		},
		{
		  "duration": 0.0436046511627907,
		  "pitch": 53,
		  "start": 109.767441860465,
		  "velocity": 80
		},
		{
		  "duration": 0.0436046511627907,
		  "pitch": 36,
		  "start": 109.883720930233,
		  "velocity": 80
		},
		{
		  "duration": 0.0436046511627907,
		  "pitch": 53,
		  "start": 110.0,
		  "velocity": 80
		},
		{
		  "duration": 0.0436046511627907,
		  "pitch": 36,
		  "start": 110.116279069767,
		  "velocity": 80
		},
		{
		  "duration": 0.0436046511627907,
		  "pitch": 36,
		  "start": 110.232558139535,
		  "velocity": 80
		},
		{
		  "duration": 0.0436046511627907,
		  "pitch": 53,
		  "start": 110.232558139535,
		  "velocity": 80
		},
		{
		  "duration": 0.0436046511627907,
		  "pitch": 53,
		  "start": 110.46511627907,
		  "velocity": 80
		},
		{
		  "duration": 0.0436046511627907,
		  "pitch": 36,
		  "start": 110.46511627907,
		  "velocity": 80
		},
		{
		  "duration": 0.0436046511627907,
		  "pitch": 38,
		  "start": 110.581395348837,
		  "velocity": 80
		},
		{
		  "duration": 0.0436046511627907,
		  "pitch": 53,
		  "start": 110.697674418605,
		  "velocity": 80
		},
		{
		  "duration": 0.0436046511627907,
		  "pitch": 53,
		  "start": 110.93023255814,
		  "velocity": 80
		},
		{
		  "duration": 0.0436046511627907,
		  "pitch": 36,
		  "start": 111.046511627907,
		  "velocity": 80
		},
		{
		  "duration": 0.0436046511627907,
		  "pitch": 53,
		  "start": 111.162790697674,
		  "velocity": 80
		},
		{
		  "duration": 0.0436046511627907,
		  "pitch": 38,
		  "start": 111.279069767442,
		  "velocity": 80
		},
		{
		  "duration": 0.0436046511627907,
		  "pitch": 49,
		  "start": 111.279069767442,
		  "velocity": 80
		},
		{
		  "duration": 0.0436046511627907,
		  "pitch": 53,
		  "start": 111.627906976744,
		  "velocity": 80
		},
		{
		  "duration": 0.0436046511627907,
		  "pitch": 36,
		  "start": 111.627906976744,
		  "velocity": 80
		},
		{
		  "duration": 0.0436046511627907,
		  "pitch": 53,
		  "start": 111.860465116279,
		  "velocity": 80
		},
		{
		  "duration": 0.0436046511627907,
		  "pitch": 36,
		  "start": 111.860465116279,
		  "velocity": 80
		},
		{
		  "duration": 0.0436046511627907,
		  "pitch": 38,
		  "start": 111.976744186047,
		  "velocity": 80
		},
		{
		  "duration": 0.0436046511627907,
		  "pitch": 53,
		  "start": 112.093023255814,
		  "velocity": 80
		},
		{
		  "duration": 0.0436046511627907,
		  "pitch": 53,
		  "start": 112.325581395349,
		  "velocity": 80
		},
		{
		  "duration": 0.0436046511627907,
		  "pitch": 36,
		  "start": 112.325581395349,
		  "velocity": 80
		},
		{
		  "duration": 0.0436046511627907,
		  "pitch": 38,
		  "start": 112.441860465116,
		  "velocity": 80
		},
		{
		  "duration": 0.0436046511627907,
		  "pitch": 53,
		  "start": 112.558139534884,
		  "velocity": 80
		},
		{
		  "duration": 0.0436046511627907,
		  "pitch": 36,
		  "start": 112.674418604651,
		  "velocity": 80
		},
		{
		  "duration": 0.0436046511627907,
		  "pitch": 53,
		  "start": 112.790697674419,
		  "velocity": 80
		},
		{
		  "duration": 0.0436046511627907,
		  "pitch": 36,
		  "start": 112.906976744186,
		  "velocity": 80
		},
		{
		  "duration": 0.0436046511627907,
		  "pitch": 36,
		  "start": 113.023255813953,
		  "velocity": 80
		},
		{
		  "duration": 0.0436046511627907,
		  "pitch": 53,
		  "start": 113.023255813953,
		  "velocity": 80
		},
		{
		  "duration": 0.0436046511627907,
		  "pitch": 53,
		  "start": 113.255813953488,
		  "velocity": 80
		},
		{
		  "duration": 0.0436046511627907,
		  "pitch": 36,
		  "start": 113.255813953488,
		  "velocity": 80
		},
		{
		  "duration": 0.0436046511627907,
		  "pitch": 38,
		  "start": 113.372093023256,
		  "velocity": 80
		},
		{
		  "duration": 0.0436046511627907,
		  "pitch": 53,
		  "start": 113.488372093023,
		  "velocity": 80
		},
		{
		  "duration": 0.0436046511627907,
		  "pitch": 53,
		  "start": 113.720930232558,
		  "velocity": 80
		},
		{
		  "duration": 0.0436046511627907,
		  "pitch": 36,
		  "start": 113.720930232558,
		  "velocity": 80
		},
		{
		  "duration": 0.0436046511627907,
		  "pitch": 53,
		  "start": 113.953488372093,
		  "velocity": 80
		},
		{
		  "duration": 0.0436046511627907,
		  "pitch": 38,
		  "start": 114.186046511628,
		  "velocity": 80
		},
		{
		  "duration": 0.0436046511627907,
		  "pitch": 49,
		  "start": 114.186046511628,
		  "velocity": 80
		},
		{
		  "duration": 0.0436046511627907,
		  "pitch": 53,
		  "start": 114.418604651163,
		  "velocity": 80
		},
		{
		  "duration": 0.0436046511627907,
		  "pitch": 36,
		  "start": 114.418604651163,
		  "velocity": 80
		},
		{
		  "duration": 0.0436046511627907,
		  "pitch": 53,
		  "start": 114.651162790698,
		  "velocity": 80
		},
		{
		  "duration": 0.0436046511627907,
		  "pitch": 36,
		  "start": 114.651162790698,
		  "velocity": 80
		},
		{
		  "duration": 0.0436046511627907,
		  "pitch": 38,
		  "start": 114.767441860465,
		  "velocity": 80
		},
		{
		  "duration": 0.0436046511627907,
		  "pitch": 53,
		  "start": 114.883720930233,
		  "velocity": 80
		},
		{
		  "duration": 0.0436046511627907,
		  "pitch": 53,
		  "start": 115.116279069767,
		  "velocity": 80
		},
		{
		  "duration": 0.0436046511627907,
		  "pitch": 36,
		  "start": 115.116279069767,
		  "velocity": 80
		},
		{
		  "duration": 0.0436046511627907,
		  "pitch": 38,
		  "start": 115.232558139535,
		  "velocity": 80
		},
		{
		  "duration": 0.0436046511627907,
		  "pitch": 53,
		  "start": 115.348837209302,
		  "velocity": 80
		},
		{
		  "duration": 0.0436046511627907,
		  "pitch": 36,
		  "start": 115.46511627907,
		  "velocity": 80
		},
		{
		  "duration": 0.0436046511627907,
		  "pitch": 53,
		  "start": 115.581395348837,
		  "velocity": 80
		},
		{
		  "duration": 0.0436046511627907,
		  "pitch": 36,
		  "start": 115.697674418605,
		  "velocity": 80
		},
		{
		  "duration": 0.0436046511627907,
		  "pitch": 36,
		  "start": 115.813953488372,
		  "velocity": 80
		},
		{
		  "duration": 0.0436046511627907,
		  "pitch": 53,
		  "start": 115.813953488372,
		  "velocity": 80
		},
		{
		  "duration": 0.0436046511627907,
		  "pitch": 53,
		  "start": 116.046511627907,
		  "velocity": 80
		},
		{
		  "duration": 0.0436046511627907,
		  "pitch": 36,
		  "start": 116.046511627907,
		  "velocity": 80
		},
		{
		  "duration": 0.0436046511627907,
		  "pitch": 38,
		  "start": 116.162790697674,
		  "velocity": 80
		},
		{
		  "duration": 0.0436046511627907,
		  "pitch": 53,
		  "start": 116.279069767442,
		  "velocity": 80
		},
		{
		  "duration": 0.0436046511627907,
		  "pitch": 53,
		  "start": 116.511627906977,
		  "velocity": 80
		},
		{
		  "duration": 0.0436046511627907,
		  "pitch": 36,
		  "start": 116.627906976744,
		  "velocity": 80
		},
		{
		  "duration": 0.0436046511627907,
		  "pitch": 53,
		  "start": 116.744186046512,
		  "velocity": 80
		},
		{
		  "duration": 0.0436046511627907,
		  "pitch": 38,
		  "start": 116.860465116279,
		  "velocity": 80
		},
		{
		  "duration": 0.0436046511627907,
		  "pitch": 49,
		  "start": 116.860465116279,
		  "velocity": 80
		},
		{
		  "duration": 0.0436046511627907,
		  "pitch": 36,
		  "start": 117.209302325581,
		  "velocity": 80
		},
		{
		  "duration": 0.0436046511627907,
		  "pitch": 53,
		  "start": 117.209302325581,
		  "velocity": 80
		},
		{
		  "duration": 0.0436046511627907,
		  "pitch": 53,
		  "start": 117.441860465116,
		  "velocity": 80
		},
		{
		  "duration": 0.0436046511627907,
		  "pitch": 49,
		  "start": 117.558139534884,
		  "velocity": 80
		},
		{
		  "duration": 0.0436046511627907,
		  "pitch": 38,
		  "start": 117.558139534884,
		  "velocity": 80
		},
		{
		  "duration": 0.0436046511627907,
		  "pitch": 36,
		  "start": 117.906976744186,
		  "velocity": 80
		},
		{
		  "duration": 0.0436046511627907,
		  "pitch": 38,
		  "start": 118.023255813953,
		  "velocity": 80
		},
		{
		  "duration": 0.0436046511627907,
		  "pitch": 38,
		  "start": 118.139534883721,
		  "velocity": 80
		},
		{
		  "duration": 0.0436046511627907,
		  "pitch": 38,
		  "start": 118.255813953488,
		  "velocity": 80
		},
		{
		  "duration": 0.0436046511627907,
		  "pitch": 48,
		  "start": 118.255813953488,
		  "velocity": 80
		},
		{
		  "duration": 0.0436046511627907,
		  "pitch": 45,
		  "start": 118.372093023256,
		  "velocity": 80
		},
		{
		  "duration": 0.0436046511627907,
		  "pitch": 41,
		  "start": 118.488372093023,
		  "velocity": 80
		},
		{
		  "duration": 0.0436046511627907,
		  "pitch": 48,
		  "start": 118.604651162791,
		  "velocity": 80
		},
		{
		  "duration": 0.0436046511627907,
		  "pitch": 36,
		  "start": 118.604651162791,
		  "velocity": 80
		},
		{
		  "duration": 0.0436046511627907,
		  "pitch": 45,
		  "start": 118.837209302326,
		  "velocity": 80
		},
		{
		  "duration": 0.0436046511627907,
		  "pitch": 48,
		  "start": 118.953488372093,
		  "velocity": 80
		},
		{
		  "duration": 0.0436046511627907,
		  "pitch": 45,
		  "start": 119.06976744186,
		  "velocity": 80
		},
		{
		  "duration": 0.0436046511627907,
		  "pitch": 41,
		  "start": 119.186046511628,
		  "velocity": 80
		},
		{
		  "duration": 0.0436046511627907,
		  "pitch": 45,
		  "start": 119.302325581395,
		  "velocity": 80
		},
		{
		  "duration": 0.0436046511627907,
		  "pitch": 36,
		  "start": 119.302325581395,
		  "velocity": 80
		},
		{
		  "duration": 0.0436046511627907,
		  "pitch": 45,
		  "start": 119.418604651163,
		  "velocity": 80
		},
		{
		  "duration": 0.0436046511627907,
		  "pitch": 41,
		  "start": 119.53488372093,
		  "velocity": 80
		},
		{
		  "duration": 0.0436046511627907,
		  "pitch": 49,
		  "start": 119.651162790698,
		  "velocity": 80
		},
		{
		  "duration": 0.0436046511627907,
		  "pitch": 38,
		  "start": 119.651162790698,
		  "velocity": 80
		},
		{
		  "duration": 0.0436046511627907,
		  "pitch": 36,
		  "start": 119.651162790698,
		  "velocity": 80
		},
		{
		  "duration": 0.0436046511627907,
		  "pitch": 45,
		  "start": 120.0,
		  "velocity": 80
		},
		{
		  "duration": 0.0436046511627907,
		  "pitch": 36,
		  "start": 120.0,
		  "velocity": 80
		},
		{
		  "duration": 0.0436046511627907,
		  "pitch": 45,
		  "start": 120.232558139535,
		  "velocity": 80
		},
		{
		  "duration": 0.0436046511627907,
		  "pitch": 36,
		  "start": 120.232558139535,
		  "velocity": 80
		},
		{
		  "duration": 0.0436046511627907,
		  "pitch": 45,
		  "start": 120.348837209302,
		  "velocity": 80
		},
		{
		  "duration": 0.0436046511627907,
		  "pitch": 36,
		  "start": 120.348837209302,
		  "velocity": 80
		},
		{
		  "duration": 0.0436046511627907,
		  "pitch": 41,
		  "start": 120.46511627907,
		  "velocity": 80
		},
		{
		  "duration": 0.0436046511627907,
		  "pitch": 36,
		  "start": 120.46511627907,
		  "velocity": 80
		},
		{
		  "duration": 0.0436046511627907,
		  "pitch": 41,
		  "start": 120.697674418605,
		  "velocity": 80
		},
		{
		  "duration": 0.0436046511627907,
		  "pitch": 36,
		  "start": 120.697674418605,
		  "velocity": 80
		},
		{
		  "duration": 0.0436046511627907,
		  "pitch": 48,
		  "start": 120.813953488372,
		  "velocity": 80
		},
		{
		  "duration": 0.0436046511627907,
		  "pitch": 36,
		  "start": 120.93023255814,
		  "velocity": 80
		},
		{
		  "duration": 0.0436046511627907,
		  "pitch": 45,
		  "start": 120.93023255814,
		  "velocity": 80
		},
		{
		  "duration": 0.0436046511627907,
		  "pitch": 48,
		  "start": 121.046511627907,
		  "velocity": 80
		},
		{
		  "duration": 0.0436046511627907,
		  "pitch": 36,
		  "start": 121.046511627907,
		  "velocity": 80
		},
		{
		  "duration": 0.0436046511627907,
		  "pitch": 45,
		  "start": 121.162790697674,
		  "velocity": 80
		},
		{
		  "duration": 0.0436046511627907,
		  "pitch": 36,
		  "start": 121.162790697674,
		  "velocity": 80
		},
		{
		  "duration": 0.0436046511627907,
		  "pitch": 41,
		  "start": 121.279069767442,
		  "velocity": 80
		},
		{
		  "duration": 0.0436046511627907,
		  "pitch": 36,
		  "start": 121.279069767442,
		  "velocity": 80
		},
		{
		  "duration": 0.0436046511627907,
		  "pitch": 45,
		  "start": 121.395348837209,
		  "velocity": 80
		},
		{
		  "duration": 0.0436046511627907,
		  "pitch": 36,
		  "start": 121.395348837209,
		  "velocity": 80
		},
		{
		  "duration": 0.0436046511627907,
		  "pitch": 45,
		  "start": 121.627906976744,
		  "velocity": 80
		},
		{
		  "duration": 0.0436046511627907,
		  "pitch": 36,
		  "start": 121.627906976744,
		  "velocity": 80
		},
		{
		  "duration": 0.0436046511627907,
		  "pitch": 45,
		  "start": 121.744186046512,
		  "velocity": 80
		},
		{
		  "duration": 0.0436046511627907,
		  "pitch": 36,
		  "start": 121.744186046512,
		  "velocity": 80
		},
		{
		  "duration": 0.0436046511627907,
		  "pitch": 41,
		  "start": 121.860465116279,
		  "velocity": 80
		},
		{
		  "duration": 0.0436046511627907,
		  "pitch": 36,
		  "start": 121.860465116279,
		  "velocity": 80
		},
		{
		  "duration": 0.0436046511627907,
		  "pitch": 36,
		  "start": 121.976744186047,
		  "velocity": 80
		},
		{
		  "duration": 0.0436046511627907,
		  "pitch": 41,
		  "start": 121.976744186047,
		  "velocity": 80
		},
		{
		  "duration": 0.0436046511627907,
		  "pitch": 41,
		  "start": 122.093023255814,
		  "velocity": 80
		},
		{
		  "duration": 0.0436046511627907,
		  "pitch": 36,
		  "start": 122.093023255814,
		  "velocity": 80
		},
		{
		  "duration": 0.0436046511627907,
		  "pitch": 48,
		  "start": 122.209302325581,
		  "velocity": 80
		},
		{
		  "duration": 0.0436046511627907,
		  "pitch": 36,
		  "start": 122.325581395349,
		  "velocity": 80
		},
		{
		  "duration": 0.0436046511627907,
		  "pitch": 45,
		  "start": 122.325581395349,
		  "velocity": 80
		},
		{
		  "duration": 0.0436046511627907,
		  "pitch": 36,
		  "start": 122.441860465116,
		  "velocity": 80
		},
		{
		  "duration": 0.0436046511627907,
		  "pitch": 41,
		  "start": 122.441860465116,
		  "velocity": 80
		},
		{
		  "duration": 0.0436046511627907,
		  "pitch": 36,
		  "start": 122.558139534884,
		  "velocity": 80
		},
		{
		  "duration": 0.0436046511627907,
		  "pitch": 41,
		  "start": 122.558139534884,
		  "velocity": 80
		},
		{
		  "duration": 0.0436046511627907,
		  "pitch": 38,
		  "start": 122.674418604651,
		  "velocity": 80
		},
		{
		  "duration": 0.0436046511627907,
		  "pitch": 36,
		  "start": 122.674418604651,
		  "velocity": 80
		},
		{
		  "duration": 0.0436046511627907,
		  "pitch": 53,
		  "start": 122.790697674419,
		  "velocity": 80
		},
		{
		  "duration": 0.0436046511627907,
		  "pitch": 36,
		  "start": 122.790697674419,
		  "velocity": 80
		},
		{
		  "duration": 0.0436046511627907,
		  "pitch": 53,
		  "start": 123.023255813953,
		  "velocity": 80
		},
		{
		  "duration": 0.0436046511627907,
		  "pitch": 38,
		  "start": 123.139534883721,
		  "velocity": 80
		},
		{
		  "duration": 0.0436046511627907,
		  "pitch": 53,
		  "start": 123.255813953488,
		  "velocity": 80
		},
		{
		  "duration": 0.0436046511627907,
		  "pitch": 53,
		  "start": 123.488372093023,
		  "velocity": 80
		},
		{
		  "duration": 0.0436046511627907,
		  "pitch": 36,
		  "start": 123.488372093023,
		  "velocity": 80
		},
		{
		  "duration": 0.0436046511627907,
		  "pitch": 53,
		  "start": 123.720930232558,
		  "velocity": 80
		},
		{
		  "duration": 0.0436046511627907,
		  "pitch": 38,
		  "start": 123.837209302326,
		  "velocity": 80
		},
		{
		  "duration": 0.0436046511627907,
		  "pitch": 53,
		  "start": 123.953488372093,
		  "velocity": 80
		},
		{
		  "duration": 0.0436046511627907,
		  "pitch": 53,
		  "start": 124.186046511628,
		  "velocity": 80
		},
		{
		  "duration": 0.0436046511627907,
		  "pitch": 36,
		  "start": 124.186046511628,
		  "velocity": 80
		},
		{
		  "duration": 0.0436046511627907,
		  "pitch": 53,
		  "start": 124.418604651163,
		  "velocity": 80
		},
		{
		  "duration": 0.0436046511627907,
		  "pitch": 38,
		  "start": 124.53488372093,
		  "velocity": 80
		},
		{
		  "duration": 0.0436046511627907,
		  "pitch": 53,
		  "start": 124.651162790698,
		  "velocity": 80
		},
		{
		  "duration": 0.0436046511627907,
		  "pitch": 53,
		  "start": 124.883720930233,
		  "velocity": 80
		},
		{
		  "duration": 0.0436046511627907,
		  "pitch": 36,
		  "start": 124.883720930233,
		  "velocity": 80
		},
		{
		  "duration": 0.0436046511627907,
		  "pitch": 53,
		  "start": 125.116279069767,
		  "velocity": 80
		},
		{
		  "duration": 0.0436046511627907,
		  "pitch": 38,
		  "start": 125.348837209302,
		  "velocity": 80
		},
		{
		  "duration": 0.0436046511627907,
		  "pitch": 49,
		  "start": 125.348837209302,
		  "velocity": 80
		},
		{
		  "duration": 0.0436046511627907,
		  "pitch": 36,
		  "start": 125.348837209302,
		  "velocity": 80
		},
		{
		  "duration": 0.0436046511627907,
		  "pitch": 36,
		  "start": 125.581395348837,
		  "velocity": 80
		},
		{
		  "duration": 0.0436046511627907,
		  "pitch": 53,
		  "start": 125.581395348837,
		  "velocity": 80
		},
		{
		  "duration": 0.0436046511627907,
		  "pitch": 53,
		  "start": 125.813953488372,
		  "velocity": 80
		},
		{
		  "duration": 0.0436046511627907,
		  "pitch": 49,
		  "start": 125.93023255814,
		  "velocity": 80
		},
		{
		  "duration": 0.0436046511627907,
		  "pitch": 38,
		  "start": 125.93023255814,
		  "velocity": 80
		},
		{
		  "duration": 0.0436046511627907,
		  "pitch": 36,
		  "start": 126.279069767442,
		  "velocity": 80
		},
		{
		  "duration": 0.0436046511627907,
		  "pitch": 38,
		  "start": 126.395348837209,
		  "velocity": 80
		},
		{
		  "duration": 0.0436046511627907,
		  "pitch": 38,
		  "start": 126.511627906977,
		  "velocity": 80
		},
		{
		  "duration": 0.0436046511627907,
		  "pitch": 38,
		  "start": 126.627906976744,
		  "velocity": 80
		},
		{
		  "duration": 0.0436046511627907,
		  "pitch": 48,
		  "start": 126.627906976744,
		  "velocity": 80
		},
		{
		  "duration": 0.0436046511627907,
		  "pitch": 45,
		  "start": 126.744186046512,
		  "velocity": 80
		},
		{
		  "duration": 0.0436046511627907,
		  "pitch": 41,
		  "start": 126.860465116279,
		  "velocity": 80
		},
		{
		  "duration": 0.0436046511627907,
		  "pitch": 48,
		  "start": 126.976744186047,
		  "velocity": 80
		},
		{
		  "duration": 0.0436046511627907,
		  "pitch": 36,
		  "start": 126.976744186047,
		  "velocity": 80
		},
		{
		  "duration": 0.0436046511627907,
		  "pitch": 45,
		  "start": 127.209302325581,
		  "velocity": 80
		},
		{
		  "duration": 0.0436046511627907,
		  "pitch": 48,
		  "start": 127.325581395349,
		  "velocity": 80
		},
		{
		  "duration": 0.0436046511627907,
		  "pitch": 45,
		  "start": 127.441860465116,
		  "velocity": 80
		},
		{
		  "duration": 0.0436046511627907,
		  "pitch": 41,
		  "start": 127.558139534884,
		  "velocity": 80
		},
		{
		  "duration": 0.0436046511627907,
		  "pitch": 45,
		  "start": 127.674418604651,
		  "velocity": 80
		},
		{
		  "duration": 0.0436046511627907,
		  "pitch": 36,
		  "start": 127.674418604651,
		  "velocity": 80
		},
		{
		  "duration": 0.0436046511627907,
		  "pitch": 45,
		  "start": 127.790697674419,
		  "velocity": 80
		},
		{
		  "duration": 0.0436046511627907,
		  "pitch": 41,
		  "start": 127.906976744186,
		  "velocity": 80
		},
		{
		  "duration": 0.0436046511627907,
		  "pitch": 49,
		  "start": 128.023255813953,
		  "velocity": 80
		},
		{
		  "duration": 0.0436046511627907,
		  "pitch": 38,
		  "start": 128.023255813953,
		  "velocity": 80
		},
		{
		  "duration": 0.0436046511627907,
		  "pitch": 36,
		  "start": 128.023255813953,
		  "velocity": 80
		},
		{
		  "duration": 0.0436046511627907,
		  "pitch": 45,
		  "start": 128.372093023256,
		  "velocity": 80
		},
		{
		  "duration": 0.0436046511627907,
		  "pitch": 36,
		  "start": 128.372093023256,
		  "velocity": 80
		},
		{
		  "duration": 0.0436046511627907,
		  "pitch": 45,
		  "start": 128.604651162791,
		  "velocity": 80
		},
		{
		  "duration": 0.0436046511627907,
		  "pitch": 36,
		  "start": 128.604651162791,
		  "velocity": 80
		},
		{
		  "duration": 0.0436046511627907,
		  "pitch": 45,
		  "start": 128.720930232558,
		  "velocity": 80
		},
		{
		  "duration": 0.0436046511627907,
		  "pitch": 36,
		  "start": 128.720930232558,
		  "velocity": 80
		},
		{
		  "duration": 0.0436046511627907,
		  "pitch": 41,
		  "start": 128.837209302326,
		  "velocity": 80
		},
		{
		  "duration": 0.0436046511627907,
		  "pitch": 36,
		  "start": 128.837209302326,
		  "velocity": 80
		},
		{
		  "duration": 0.0436046511627907,
		  "pitch": 41,
		  "start": 129.06976744186,
		  "velocity": 80
		},
		{
		  "duration": 0.0436046511627907,
		  "pitch": 36,
		  "start": 129.06976744186,
		  "velocity": 80
		},
		{
		  "duration": 0.0436046511627907,
		  "pitch": 48,
		  "start": 129.186046511628,
		  "velocity": 80
		},
		{
		  "duration": 0.0436046511627907,
		  "pitch": 36,
		  "start": 129.302325581395,
		  "velocity": 80
		},
		{
		  "duration": 0.0436046511627907,
		  "pitch": 45,
		  "start": 129.302325581395,
		  "velocity": 80
		},
		{
		  "duration": 0.0436046511627907,
		  "pitch": 48,
		  "start": 129.418604651163,
		  "velocity": 80
		},
		{
		  "duration": 0.0436046511627907,
		  "pitch": 36,
		  "start": 129.418604651163,
		  "velocity": 80
		},
		{
		  "duration": 0.0436046511627907,
		  "pitch": 45,
		  "start": 129.53488372093,
		  "velocity": 80
		},
		{
		  "duration": 0.0436046511627907,
		  "pitch": 36,
		  "start": 129.53488372093,
		  "velocity": 80
		},
		{
		  "duration": 0.0436046511627907,
		  "pitch": 41,
		  "start": 129.651162790698,
		  "velocity": 80
		},
		{
		  "duration": 0.0436046511627907,
		  "pitch": 36,
		  "start": 129.651162790698,
		  "velocity": 80
		},
		{
		  "duration": 0.0436046511627907,
		  "pitch": 45,
		  "start": 129.767441860465,
		  "velocity": 80
		},
		{
		  "duration": 0.0436046511627907,
		  "pitch": 36,
		  "start": 129.767441860465,
		  "velocity": 80
		},
		{
		  "duration": 0.0436046511627907,
		  "pitch": 45,
		  "start": 130.0,
		  "velocity": 80
		},
		{
		  "duration": 0.0436046511627907,
		  "pitch": 36,
		  "start": 130.0,
		  "velocity": 80
		},
		{
		  "duration": 0.0436046511627907,
		  "pitch": 45,
		  "start": 130.116279069767,
		  "velocity": 80
		},
		{
		  "duration": 0.0436046511627907,
		  "pitch": 36,
		  "start": 130.116279069767,
		  "velocity": 80
		},
		{
		  "duration": 0.0436046511627907,
		  "pitch": 41,
		  "start": 130.232558139535,
		  "velocity": 80
		},
		{
		  "duration": 0.0436046511627907,
		  "pitch": 36,
		  "start": 130.232558139535,
		  "velocity": 80
		},
		{
		  "duration": 0.0436046511627907,
		  "pitch": 36,
		  "start": 130.348837209302,
		  "velocity": 80
		},
		{
		  "duration": 0.0436046511627907,
		  "pitch": 41,
		  "start": 130.348837209302,
		  "velocity": 80
		},
		{
		  "duration": 0.0436046511627907,
		  "pitch": 41,
		  "start": 130.46511627907,
		  "velocity": 80
		},
		{
		  "duration": 0.0436046511627907,
		  "pitch": 36,
		  "start": 130.46511627907,
		  "velocity": 80
		},
		{
		  "duration": 0.0436046511627907,
		  "pitch": 48,
		  "start": 130.581395348837,
		  "velocity": 80
		},
		{
		  "duration": 0.0436046511627907,
		  "pitch": 36,
		  "start": 130.697674418605,
		  "velocity": 80
		},
		{
		  "duration": 0.0436046511627907,
		  "pitch": 45,
		  "start": 130.697674418605,
		  "velocity": 80
		},
		{
		  "duration": 0.0436046511627907,
		  "pitch": 36,
		  "start": 130.813953488372,
		  "velocity": 80
		},
		{
		  "duration": 0.0436046511627907,
		  "pitch": 41,
		  "start": 130.813953488372,
		  "velocity": 80
		},
		{
		  "duration": 0.0436046511627907,
		  "pitch": 36,
		  "start": 130.93023255814,
		  "velocity": 80
		},
		{
		  "duration": 0.0436046511627907,
		  "pitch": 41,
		  "start": 130.93023255814,
		  "velocity": 80
		},
		{
		  "duration": 0.0436046511627907,
		  "pitch": 38,
		  "start": 131.046511627907,
		  "velocity": 80
		},
		{
		  "duration": 0.0436046511627907,
		  "pitch": 36,
		  "start": 131.046511627907,
		  "velocity": 80
		},
		{
		  "duration": 0.0436046511627907,
		  "pitch": 53,
		  "start": 131.162790697674,
		  "velocity": 80
		},
		{
		  "duration": 0.0436046511627907,
		  "pitch": 36,
		  "start": 131.162790697674,
		  "velocity": 80
		},
		{
		  "duration": 0.0436046511627907,
		  "pitch": 53,
		  "start": 131.395348837209,
		  "velocity": 80
		},
		{
		  "duration": 0.0436046511627907,
		  "pitch": 38,
		  "start": 131.511627906977,
		  "velocity": 80
		},
		{
		  "duration": 0.0436046511627907,
		  "pitch": 53,
		  "start": 131.627906976744,
		  "velocity": 80
		},
		{
		  "duration": 0.0436046511627907,
		  "pitch": 53,
		  "start": 131.860465116279,
		  "velocity": 80
		},
		{
		  "duration": 0.0436046511627907,
		  "pitch": 36,
		  "start": 131.860465116279,
		  "velocity": 80
		},
		{
		  "duration": 0.0436046511627907,
		  "pitch": 53,
		  "start": 132.093023255814,
		  "velocity": 80
		},
		{
		  "duration": 0.0436046511627907,
		  "pitch": 38,
		  "start": 132.209302325581,
		  "velocity": 80
		},
		{
		  "duration": 0.0436046511627907,
		  "pitch": 53,
		  "start": 132.325581395349,
		  "velocity": 80
		},
		{
		  "duration": 0.0436046511627907,
		  "pitch": 53,
		  "start": 132.558139534884,
		  "velocity": 80
		},
		{
		  "duration": 0.0436046511627907,
		  "pitch": 36,
		  "start": 132.558139534884,
		  "velocity": 80
		},
		{
		  "duration": 0.0436046511627907,
		  "pitch": 53,
		  "start": 132.790697674419,
		  "velocity": 80
		},
		{
		  "duration": 0.0436046511627907,
		  "pitch": 38,
		  "start": 132.906976744186,
		  "velocity": 80
		},
		{
		  "duration": 0.0436046511627907,
		  "pitch": 53,
		  "start": 133.023255813953,
		  "velocity": 80
		},
		{
		  "duration": 0.0436046511627907,
		  "pitch": 38,
		  "start": 133.255813953488,
		  "velocity": 60
		},
		{
		  "duration": 0.0436046511627907,
		  "pitch": 38,
		  "start": 133.372093023256,
		  "velocity": 68
		},
		{
		  "duration": 0.0436046511627907,
		  "pitch": 38,
		  "start": 133.488372093023,
		  "velocity": 76
		},
		{
		  "duration": 0.0436046511627907,
		  "pitch": 38,
		  "start": 133.604651162791,
		  "velocity": 80
		},
		{
		  "duration": 0.0436046511627907,
		  "pitch": 38,
		  "start": 133.720930232558,
		  "velocity": 80
		},
		{
		  "duration": 0.0436046511627907,
		  "pitch": 38,
		  "start": 133.837209302326,
		  "velocity": 80
		},
		{
		  "duration": 0.0436046511627907,
		  "pitch": 42,
		  "start": 133.953488372093,
		  "velocity": 60
		},
		{
		  "duration": 0.0436046511627907,
		  "pitch": 36,
		  "start": 133.953488372093,
		  "velocity": 80
		},
		{
		  "duration": 0.0436046511627907,
		  "pitch": 49,
		  "start": 133.953488372093,
		  "velocity": 80
		},
		{
		  "duration": 0.0436046511627907,
		  "pitch": 42,
		  "start": 134.06976744186,
		  "velocity": 60
		},
		{
		  "duration": 0.0436046511627907,
		  "pitch": 42,
		  "start": 134.186046511628,
		  "velocity": 60
		},
		{
		  "duration": 0.0436046511627907,
		  "pitch": 38,
		  "start": 134.302325581395,
		  "velocity": 80
		},
		{
		  "duration": 0.0436046511627907,
		  "pitch": 42,
		  "start": 134.302325581395,
		  "velocity": 60
		},
		{
		  "duration": 0.0436046511627907,
		  "pitch": 46,
		  "start": 134.418604651163,
		  "velocity": 80
		},
		{
		  "duration": 0.0436046511627907,
		  "pitch": 42,
		  "start": 134.53488372093,
		  "velocity": 60
		},
		{
		  "duration": 0.0436046511627907,
		  "pitch": 42,
		  "start": 134.651162790698,
		  "velocity": 60
		},
		{
		  "duration": 0.0436046511627907,
		  "pitch": 42,
		  "start": 134.767441860465,
		  "velocity": 60
		},
		{
		  "duration": 0.0436046511627907,
		  "pitch": 42,
		  "start": 134.877906976744,
		  "velocity": 60
		},
		{
		  "duration": 0.0436046511627907,
		  "pitch": 36,
		  "start": 134.883720930233,
		  "velocity": 80
		},
		{
		  "duration": 0.0436046511627907,
		  "pitch": 38,
		  "start": 135.0,
		  "velocity": 80
		},
		{
		  "duration": 0.0436046511627907,
		  "pitch": 42,
		  "start": 135.0,
		  "velocity": 60
		},
		{
		  "duration": 0.0436046511627907,
		  "pitch": 42,
		  "start": 135.116279069767,
		  "velocity": 60
		},
		{
		  "duration": 0.0436046511627907,
		  "pitch": 42,
		  "start": 135.232558139535,
		  "velocity": 60
		},
		{
		  "duration": 0.0436046511627907,
		  "pitch": 42,
		  "start": 135.348837209302,
		  "velocity": 60
		},
		{
		  "duration": 0.0436046511627907,
		  "pitch": 36,
		  "start": 135.348837209302,
		  "velocity": 80
		},
		{
		  "duration": 0.0436046511627907,
		  "pitch": 42,
		  "start": 135.46511627907,
		  "velocity": 60
		},
		{
		  "duration": 0.0436046511627907,
		  "pitch": 42,
		  "start": 135.581395348837,
		  "velocity": 60
		},
		{
		  "duration": 0.0436046511627907,
		  "pitch": 38,
		  "start": 135.697674418605,
		  "velocity": 80
		},
		{
		  "duration": 0.0436046511627907,
		  "pitch": 42,
		  "start": 135.697674418605,
		  "velocity": 60
		},
		{
		  "duration": 0.0436046511627907,
		  "pitch": 46,
		  "start": 135.813953488372,
		  "velocity": 80
		},
		{
		  "duration": 0.0436046511627907,
		  "pitch": 42,
		  "start": 135.93023255814,
		  "velocity": 60
		},
		{
		  "duration": 0.0436046511627907,
		  "pitch": 42,
		  "start": 136.046511627907,
		  "velocity": 60
		},
		{
		  "duration": 0.0436046511627907,
		  "pitch": 42,
		  "start": 136.162790697674,
		  "velocity": 60
		},
		{
		  "duration": 0.0436046511627907,
		  "pitch": 42,
		  "start": 136.273255813953,
		  "velocity": 60
		},
		{
		  "duration": 0.0436046511627907,
		  "pitch": 36,
		  "start": 136.279069767442,
		  "velocity": 80
		},
		{
		  "duration": 0.0436046511627907,
		  "pitch": 38,
		  "start": 136.395348837209,
		  "velocity": 80
		},
		{
		  "duration": 0.0436046511627907,
		  "pitch": 42,
		  "start": 136.395348837209,
		  "velocity": 60
		},
		{
		  "duration": 0.0436046511627907,
		  "pitch": 42,
		  "start": 136.511627906977,
		  "velocity": 60
		},
		{
		  "duration": 0.0436046511627907,
		  "pitch": 42,
		  "start": 136.627906976744,
		  "velocity": 60
		},
		{
		  "duration": 0.0436046511627907,
		  "pitch": 42,
		  "start": 136.744186046512,
		  "velocity": 60
		},
		{
		  "duration": 0.0436046511627907,
		  "pitch": 36,
		  "start": 136.744186046512,
		  "velocity": 80
		},
		{
		  "duration": 0.0436046511627907,
		  "pitch": 42,
		  "start": 136.860465116279,
		  "velocity": 60
		},
		{
		  "duration": 0.0436046511627907,
		  "pitch": 42,
		  "start": 136.976744186047,
		  "velocity": 60
		},
		{
		  "duration": 0.0436046511627907,
		  "pitch": 38,
		  "start": 137.093023255814,
		  "velocity": 80
		},
		{
		  "duration": 0.0436046511627907,
		  "pitch": 42,
		  "start": 137.093023255814,
		  "velocity": 60
		},
		{
		  "duration": 0.0436046511627907,
		  "pitch": 46,
		  "start": 137.209302325581,
		  "velocity": 80
		},
		{
		  "duration": 0.0436046511627907,
		  "pitch": 42,
		  "start": 137.325581395349,
		  "velocity": 60
		},
		{
		  "duration": 0.0436046511627907,
		  "pitch": 42,
		  "start": 137.441860465116,
		  "velocity": 60
		},
		{
		  "duration": 0.0436046511627907,
		  "pitch": 42,
		  "start": 137.558139534884,
		  "velocity": 60
		},
		{
		  "duration": 0.0436046511627907,
		  "pitch": 42,
		  "start": 137.668604651163,
		  "velocity": 60
		},
		{
		  "duration": 0.0436046511627907,
		  "pitch": 36,
		  "start": 137.674418604651,
		  "velocity": 80
		},
		{
		  "duration": 0.0436046511627907,
		  "pitch": 38,
		  "start": 137.790697674419,
		  "velocity": 80
		},
		{
		  "duration": 0.0436046511627907,
		  "pitch": 42,
		  "start": 137.790697674419,
		  "velocity": 60
		},
		{
		  "duration": 0.0436046511627907,
		  "pitch": 42,
		  "start": 137.906976744186,
		  "velocity": 60
		},
		{
		  "duration": 0.0436046511627907,
		  "pitch": 42,
		  "start": 138.023255813953,
		  "velocity": 60
		},
		{
		  "duration": 0.0436046511627907,
		  "pitch": 42,
		  "start": 138.139534883721,
		  "velocity": 60
		},
		{
		  "duration": 0.0436046511627907,
		  "pitch": 36,
		  "start": 138.139534883721,
		  "velocity": 80
		},
		{
		  "duration": 0.0436046511627907,
		  "pitch": 42,
		  "start": 138.255813953488,
		  "velocity": 60
		},
		{
		  "duration": 0.0436046511627907,
		  "pitch": 42,
		  "start": 138.372093023256,
		  "velocity": 60
		},
		{
		  "duration": 0.0436046511627907,
		  "pitch": 38,
		  "start": 138.488372093023,
		  "velocity": 80
		},
		{
		  "duration": 0.0436046511627907,
		  "pitch": 42,
		  "start": 138.488372093023,
		  "velocity": 60
		},
		{
		  "duration": 0.0436046511627907,
		  "pitch": 46,
		  "start": 138.604651162791,
		  "velocity": 80
		},
		{
		  "duration": 0.0436046511627907,
		  "pitch": 42,
		  "start": 138.720930232558,
		  "velocity": 60
		},
		{
		  "duration": 0.0436046511627907,
		  "pitch": 42,
		  "start": 138.837209302326,
		  "velocity": 60
		},
		{
		  "duration": 0.0436046511627907,
		  "pitch": 42,
		  "start": 138.953488372093,
		  "velocity": 60
		},
		{
		  "duration": 0.0436046511627907,
		  "pitch": 42,
		  "start": 139.063953488372,
		  "velocity": 60
		},
		{
		  "duration": 0.0436046511627907,
		  "pitch": 36,
		  "start": 139.06976744186,
		  "velocity": 80
		},
		{
		  "duration": 0.0436046511627907,
		  "pitch": 38,
		  "start": 139.186046511628,
		  "velocity": 80
		},
		{
		  "duration": 0.0436046511627907,
		  "pitch": 42,
		  "start": 139.186046511628,
		  "velocity": 60
		},
		{
		  "duration": 0.0436046511627907,
		  "pitch": 42,
		  "start": 139.302325581395,
		  "velocity": 60
		},
		{
		  "duration": 0.0436046511627907,
		  "pitch": 42,
		  "start": 139.418604651163,
		  "velocity": 60
		},
		{
		  "duration": 0.0436046511627907,
		  "pitch": 42,
		  "start": 139.53488372093,
		  "velocity": 60
		},
		{
		  "duration": 0.0436046511627907,
		  "pitch": 36,
		  "start": 139.53488372093,
		  "velocity": 80
		},
		{
		  "duration": 0.0436046511627907,
		  "pitch": 42,
		  "start": 139.651162790698,
		  "velocity": 60
		},
		{
		  "duration": 0.0436046511627907,
		  "pitch": 42,
		  "start": 139.767441860465,
		  "velocity": 60
		},
		{
		  "duration": 0.0436046511627907,
		  "pitch": 38,
		  "start": 139.883720930233,
		  "velocity": 80
		},
		{
		  "duration": 0.0436046511627907,
		  "pitch": 42,
		  "start": 139.883720930233,
		  "velocity": 60
		},
		{
		  "duration": 0.0436046511627907,
		  "pitch": 46,
		  "start": 140.0,
		  "velocity": 80
		},
		{
		  "duration": 0.0436046511627907,
		  "pitch": 42,
		  "start": 140.116279069767,
		  "velocity": 60
		},
		{
		  "duration": 0.0436046511627907,
		  "pitch": 42,
		  "start": 140.232558139535,
		  "velocity": 60
		},
		{
		  "duration": 0.0436046511627907,
		  "pitch": 42,
		  "start": 140.348837209302,
		  "velocity": 60
		},
		{
		  "duration": 0.0436046511627907,
		  "pitch": 42,
		  "start": 140.459302325581,
		  "velocity": 60
		},
		{
		  "duration": 0.0436046511627907,
		  "pitch": 36,
		  "start": 140.46511627907,
		  "velocity": 80
		},
		{
		  "duration": 0.0436046511627907,
		  "pitch": 38,
		  "start": 140.581395348837,
		  "velocity": 80
		},
		{
		  "duration": 0.0436046511627907,
		  "pitch": 42,
		  "start": 140.581395348837,
		  "velocity": 60
		},
		{
		  "duration": 0.0436046511627907,
		  "pitch": 42,
		  "start": 140.697674418605,
		  "velocity": 60
		},
		{
		  "duration": 0.0436046511627907,
		  "pitch": 42,
		  "start": 140.813953488372,
		  "velocity": 60
		},
		{
		  "duration": 0.0436046511627907,
		  "pitch": 42,
		  "start": 140.93023255814,
		  "velocity": 60
		},
		{
		  "duration": 0.0436046511627907,
		  "pitch": 36,
		  "start": 140.93023255814,
		  "velocity": 80
		},
		{
		  "duration": 0.0436046511627907,
		  "pitch": 42,
		  "start": 141.046511627907,
		  "velocity": 60
		},
		{
		  "duration": 0.0436046511627907,
		  "pitch": 42,
		  "start": 141.162790697674,
		  "velocity": 60
		},
		{
		  "duration": 0.0436046511627907,
		  "pitch": 38,
		  "start": 141.279069767442,
		  "velocity": 80
		},
		{
		  "duration": 0.0436046511627907,
		  "pitch": 42,
		  "start": 141.279069767442,
		  "velocity": 60
		},
		{
		  "duration": 0.0436046511627907,
		  "pitch": 46,
		  "start": 141.395348837209,
		  "velocity": 80
		},
		{
		  "duration": 0.0436046511627907,
		  "pitch": 42,
		  "start": 141.511627906977,
		  "velocity": 60
		},
		{
		  "duration": 0.0436046511627907,
		  "pitch": 42,
		  "start": 141.627906976744,
		  "velocity": 60
		},
		{
		  "duration": 0.0436046511627907,
		  "pitch": 42,
		  "start": 141.744186046512,
		  "velocity": 60
		},
		{
		  "duration": 0.0436046511627907,
		  "pitch": 42,
		  "start": 141.854651162791,
		  "velocity": 60
		},
		{
		  "duration": 0.0436046511627907,
		  "pitch": 36,
		  "start": 141.860465116279,
		  "velocity": 80
		},
		{
		  "duration": 0.0436046511627907,
		  "pitch": 38,
		  "start": 141.976744186047,
		  "velocity": 80
		},
		{
		  "duration": 0.0436046511627907,
		  "pitch": 42,
		  "start": 141.976744186047,
		  "velocity": 60
		},
		{
		  "duration": 0.0436046511627907,
		  "pitch": 42,
		  "start": 142.093023255814,
		  "velocity": 60
		},
		{
		  "duration": 0.0436046511627907,
		  "pitch": 42,
		  "start": 142.209302325581,
		  "velocity": 60
		},
		{
		  "duration": 0.0436046511627907,
		  "pitch": 42,
		  "start": 142.325581395349,
		  "velocity": 60
		},
		{
		  "duration": 0.0436046511627907,
		  "pitch": 36,
		  "start": 142.325581395349,
		  "velocity": 80
		},
		{
		  "duration": 0.0436046511627907,
		  "pitch": 42,
		  "start": 142.441860465116,
		  "velocity": 60
		},
		{
		  "duration": 0.0436046511627907,
		  "pitch": 42,
		  "start": 142.558139534884,
		  "velocity": 60
		},
		{
		  "duration": 0.0436046511627907,
		  "pitch": 38,
		  "start": 142.674418604651,
		  "velocity": 80
		},
		{
		  "duration": 0.0436046511627907,
		  "pitch": 42,
		  "start": 142.674418604651,
		  "velocity": 60
		},
		{
		  "duration": 0.0436046511627907,
		  "pitch": 46,
		  "start": 142.790697674419,
		  "velocity": 80
		},
		{
		  "duration": 0.0436046511627907,
		  "pitch": 42,
		  "start": 142.906976744186,
		  "velocity": 60
		},
		{
		  "duration": 0.0436046511627907,
		  "pitch": 42,
		  "start": 143.023255813953,
		  "velocity": 60
		},
		{
		  "duration": 0.0436046511627907,
		  "pitch": 42,
		  "start": 143.139534883721,
		  "velocity": 60
		},
		{
		  "duration": 0.0436046511627907,
		  "pitch": 42,
		  "start": 143.25,
		  "velocity": 60
		},
		{
		  "duration": 0.0436046511627907,
		  "pitch": 36,
		  "start": 143.255813953488,
		  "velocity": 80
		},
		{
		  "duration": 0.0436046511627907,
		  "pitch": 38,
		  "start": 143.372093023256,
		  "velocity": 80
		},
		{
		  "duration": 0.0436046511627907,
		  "pitch": 42,
		  "start": 143.372093023256,
		  "velocity": 60
		},
		{
		  "duration": 0.0436046511627907,
		  "pitch": 42,
		  "start": 143.488372093023,
		  "velocity": 60
		},
		{
		  "duration": 0.0436046511627907,
		  "pitch": 42,
		  "start": 143.604651162791,
		  "velocity": 60
		},
		{
		  "duration": 0.0436046511627907,
		  "pitch": 42,
		  "start": 143.720930232558,
		  "velocity": 60
		},
		{
		  "duration": 0.0436046511627907,
		  "pitch": 36,
		  "start": 143.720930232558,
		  "velocity": 80
		},
		{
		  "duration": 0.0436046511627907,
		  "pitch": 42,
		  "start": 143.837209302326,
		  "velocity": 60
		},
		{
		  "duration": 0.0436046511627907,
		  "pitch": 42,
		  "start": 143.953488372093,
		  "velocity": 60
		},
		{
		  "duration": 0.0436046511627907,
		  "pitch": 38,
		  "start": 144.06976744186,
		  "velocity": 80
		},
		{
		  "duration": 0.0436046511627907,
		  "pitch": 42,
		  "start": 144.06976744186,
		  "velocity": 60
		},
		{
		  "duration": 0.0436046511627907,
		  "pitch": 46,
		  "start": 144.186046511628,
		  "velocity": 80
		},
		{
		  "duration": 0.0436046511627907,
		  "pitch": 42,
		  "start": 144.302325581395,
		  "velocity": 60
		},
		{
		  "duration": 0.0436046511627907,
		  "pitch": 42,
		  "start": 144.418604651163,
		  "velocity": 60
		},
		{
		  "duration": 0.0436046511627907,
		  "pitch": 42,
		  "start": 144.53488372093,
		  "velocity": 60
		},
		{
		  "duration": 0.0436046511627907,
		  "pitch": 42,
		  "start": 144.645348837209,
		  "velocity": 60
		},
		{
		  "duration": 0.0436046511627907,
		  "pitch": 36,
		  "start": 144.651162790698,
		  "velocity": 80
		},
		{
		  "duration": 0.0436046511627907,
		  "pitch": 38,
		  "start": 144.767441860465,
		  "velocity": 80
		},
		{
		  "duration": 0.0436046511627907,
		  "pitch": 42,
		  "start": 144.767441860465,
		  "velocity": 60
		},
		{
		  "duration": 0.0436046511627907,
		  "pitch": 49,
		  "start": 144.767441860465,
		  "velocity": 80
		},
		{
		  "duration": 0.0436046511627907,
		  "pitch": 42,
		  "start": 144.883720930233,
		  "velocity": 60
		},
		{
		  "duration": 0.0436046511627907,
		  "pitch": 42,
		  "start": 145.0,
		  "velocity": 60
		},
		{
		  "duration": 0.0436046511627907,
		  "pitch": 36,
		  "start": 145.116279069767,
		  "velocity": 80
		},
		{
		  "duration": 0.0436046511627907,
		  "pitch": 53,
		  "start": 145.348837209302,
		  "velocity": 80
		},
		{
		  "duration": 0.0436046511627907,
		  "pitch": 38,
		  "start": 145.46511627907,
		  "velocity": 80
		},
		{
		  "duration": 0.0436046511627907,
		  "pitch": 53,
		  "start": 145.581395348837,
		  "velocity": 80
		},
		{
		  "duration": 0.0436046511627907,
		  "pitch": 53,
		  "start": 145.813953488372,
		  "velocity": 80
		},
		{
		  "duration": 0.0436046511627907,
		  "pitch": 36,
		  "start": 145.813953488372,
		  "velocity": 80
		},
		{
		  "duration": 0.0436046511627907,
		  "pitch": 53,
		  "start": 146.046511627907,
		  "velocity": 80
		},
		{
		  "duration": 0.0436046511627907,
		  "pitch": 36,
		  "start": 146.046511627907,
		  "velocity": 80
		},
		{
		  "duration": 0.0436046511627907,
		  "pitch": 46,
		  "start": 146.162790697674,
		  "velocity": 80
		},
		{
		  "duration": 0.0436046511627907,
		  "pitch": 53,
		  "start": 146.279069767442,
		  "velocity": 80
		},
		{
		  "duration": 0.0436046511627907,
		  "pitch": 38,
		  "start": 146.279069767442,
		  "velocity": 80
		},
		{
		  "duration": 0.0436046511627907,
		  "pitch": 53,
		  "start": 146.511627906977,
		  "velocity": 80
		},
		{
		  "duration": 0.0436046511627907,
		  "pitch": 36,
		  "start": 146.511627906977,
		  "velocity": 80
		},
		{
		  "duration": 0.0436046511627907,
		  "pitch": 53,
		  "start": 146.744186046512,
		  "velocity": 80
		},
		{
		  "duration": 0.0436046511627907,
		  "pitch": 38,
		  "start": 146.860465116279,
		  "velocity": 80
		},
		{
		  "duration": 0.0436046511627907,
		  "pitch": 53,
		  "start": 146.976744186047,
		  "velocity": 80
		},
		{
		  "duration": 0.0436046511627907,
		  "pitch": 53,
		  "start": 147.209302325581,
		  "velocity": 80
		},
		{
		  "duration": 0.0436046511627907,
		  "pitch": 41,
		  "start": 147.209302325581,
		  "velocity": 80
		},
		{
		  "duration": 0.0436046511627907,
		  "pitch": 36,
		  "start": 147.209302325581,
		  "velocity": 80
		},
		{
		  "duration": 0.0436046511627907,
		  "pitch": 48,
		  "start": 147.325581395349,
		  "velocity": 80
		},
		{
		  "duration": 0.0436046511627907,
		  "pitch": 53,
		  "start": 147.441860465116,
		  "velocity": 80
		},
		{
		  "duration": 0.0436046511627907,
		  "pitch": 45,
		  "start": 147.441860465116,
		  "velocity": 80
		},
		{
		  "duration": 0.0436046511627907,
		  "pitch": 36,
		  "start": 147.441860465116,
		  "velocity": 80
		},
		{
		  "duration": 0.0436046511627907,
		  "pitch": 42,
		  "start": 147.558139534884,
		  "velocity": 60
		},
		{
		  "duration": 0.0436046511627907,
		  "pitch": 38,
		  "start": 147.558139534884,
		  "velocity": 80
		},
		{
		  "duration": 0.0436046511627907,
		  "pitch": 46,
		  "start": 147.674418604651,
		  "velocity": 80
		},
		{
		  "duration": 0.0436046511627907,
		  "pitch": 42,
		  "start": 147.790697674419,
		  "velocity": 60
		},
		{
		  "duration": 0.0436046511627907,
		  "pitch": 36,
		  "start": 147.906976744186,
		  "velocity": 80
		},
		{
		  "duration": 0.0436046511627907,
		  "pitch": 53,
		  "start": 147.906976744186,
		  "velocity": 80
		},
		{
		  "duration": 0.0436046511627907,
		  "pitch": 53,
		  "start": 148.139534883721,
		  "velocity": 80
		},
		{
		  "duration": 0.0436046511627907,
		  "pitch": 38,
		  "start": 148.255813953488,
		  "velocity": 80
		},
		{
		  "duration": 0.0436046511627907,
		  "pitch": 53,
		  "start": 148.372093023256,
		  "velocity": 80
		},
		{
		  "duration": 0.0436046511627907,
		  "pitch": 53,
		  "start": 148.604651162791,
		  "velocity": 80
		},
		{
		  "duration": 0.0436046511627907,
		  "pitch": 36,
		  "start": 148.604651162791,
		  "velocity": 80
		},
		{
		  "duration": 0.0436046511627907,
		  "pitch": 53,
		  "start": 148.837209302326,
		  "velocity": 80
		},
		{
		  "duration": 0.0436046511627907,
		  "pitch": 36,
		  "start": 148.837209302326,
		  "velocity": 80
		},
		{
		  "duration": 0.0436046511627907,
		  "pitch": 46,
		  "start": 148.953488372093,
		  "velocity": 80
		},
		{
		  "duration": 0.0436046511627907,
		  "pitch": 53,
		  "start": 149.06976744186,
		  "velocity": 80
		},
		{
		  "duration": 0.0436046511627907,
		  "pitch": 38,
		  "start": 149.06976744186,
		  "velocity": 80
		},
		{
		  "duration": 0.0436046511627907,
		  "pitch": 53,
		  "start": 149.302325581395,
		  "velocity": 80
		},
		{
		  "duration": 0.0436046511627907,
		  "pitch": 36,
		  "start": 149.302325581395,
		  "velocity": 80
		},
		{
		  "duration": 0.0436046511627907,
		  "pitch": 53,
		  "start": 149.53488372093,
		  "velocity": 80
		},
		{
		  "duration": 0.0436046511627907,
		  "pitch": 38,
		  "start": 149.651162790698,
		  "velocity": 80
		},
		{
		  "duration": 0.0436046511627907,
		  "pitch": 53,
		  "start": 149.767441860465,
		  "velocity": 80
		},
		{
		  "duration": 0.0436046511627907,
		  "pitch": 53,
		  "start": 150.0,
		  "velocity": 80
		},
		{
		  "duration": 0.0436046511627907,
		  "pitch": 41,
		  "start": 150.0,
		  "velocity": 80
		},
		{
		  "duration": 0.0436046511627907,
		  "pitch": 36,
		  "start": 150.0,
		  "velocity": 80
		},
		{
		  "duration": 0.0436046511627907,
		  "pitch": 48,
		  "start": 150.116279069767,
		  "velocity": 80
		},
		{
		  "duration": 0.0436046511627907,
		  "pitch": 53,
		  "start": 150.232558139535,
		  "velocity": 80
		},
		{
		  "duration": 0.0436046511627907,
		  "pitch": 45,
		  "start": 150.232558139535,
		  "velocity": 80
		},
		{
		  "duration": 0.0436046511627907,
		  "pitch": 36,
		  "start": 150.232558139535,
		  "velocity": 80
		},
		{
		  "duration": 0.0436046511627907,
		  "pitch": 42,
		  "start": 150.348837209302,
		  "velocity": 60
		},
		{
		  "duration": 0.0436046511627907,
		  "pitch": 38,
		  "start": 150.348837209302,
		  "velocity": 80
		},
		{
		  "duration": 0.0436046511627907,
		  "pitch": 46,
		  "start": 150.46511627907,
		  "velocity": 80
		},
		{
		  "duration": 0.0436046511627907,
		  "pitch": 42,
		  "start": 150.581395348837,
		  "velocity": 60
		},
		{
		  "duration": 0.0436046511627907,
		  "pitch": 36,
		  "start": 150.697674418605,
		  "velocity": 80
		},
		{
		  "duration": 0.0436046511627907,
		  "pitch": 49,
		  "start": 150.697674418605,
		  "velocity": 80
		},
		{
		  "duration": 0.0436046511627907,
		  "pitch": 53,
		  "start": 150.93023255814,
		  "velocity": 80
		},
		{
		  "duration": 0.0436046511627907,
		  "pitch": 38,
		  "start": 151.046511627907,
		  "velocity": 80
		},
		{
		  "duration": 0.0436046511627907,
		  "pitch": 53,
		  "start": 151.162790697674,
		  "velocity": 80
		},
		{
		  "duration": 0.0436046511627907,
		  "pitch": 53,
		  "start": 151.395348837209,
		  "velocity": 80
		},
		{
		  "duration": 0.0436046511627907,
		  "pitch": 36,
		  "start": 151.395348837209,
		  "velocity": 80
		},
		{
		  "duration": 0.0436046511627907,
		  "pitch": 53,
		  "start": 151.627906976744,
		  "velocity": 80
		},
		{
		  "duration": 0.0436046511627907,
		  "pitch": 36,
		  "start": 151.627906976744,
		  "velocity": 80
		},
		{
		  "duration": 0.0436046511627907,
		  "pitch": 46,
		  "start": 151.744186046512,
		  "velocity": 80
		},
		{
		  "duration": 0.0436046511627907,
		  "pitch": 53,
		  "start": 151.860465116279,
		  "velocity": 80
		},
		{
		  "duration": 0.0436046511627907,
		  "pitch": 38,
		  "start": 151.860465116279,
		  "velocity": 80
		},
		{
		  "duration": 0.0436046511627907,
		  "pitch": 53,
		  "start": 152.093023255814,
		  "velocity": 80
		},
		{
		  "duration": 0.0436046511627907,
		  "pitch": 36,
		  "start": 152.093023255814,
		  "velocity": 80
		},
		{
		  "duration": 0.0436046511627907,
		  "pitch": 53,
		  "start": 152.325581395349,
		  "velocity": 80
		},
		{
		  "duration": 0.0436046511627907,
		  "pitch": 38,
		  "start": 152.441860465116,
		  "velocity": 80
		},
		{
		  "duration": 0.0436046511627907,
		  "pitch": 53,
		  "start": 152.558139534884,
		  "velocity": 80
		},
		{
		  "duration": 0.0436046511627907,
		  "pitch": 53,
		  "start": 152.790697674419,
		  "velocity": 80
		},
		{
		  "duration": 0.0436046511627907,
		  "pitch": 41,
		  "start": 152.790697674419,
		  "velocity": 80
		},
		{
		  "duration": 0.0436046511627907,
		  "pitch": 36,
		  "start": 152.790697674419,
		  "velocity": 80
		},
		{
		  "duration": 0.0436046511627907,
		  "pitch": 48,
		  "start": 152.906976744186,
		  "velocity": 80
		},
		{
		  "duration": 0.0436046511627907,
		  "pitch": 53,
		  "start": 153.023255813953,
		  "velocity": 80
		},
		{
		  "duration": 0.0436046511627907,
		  "pitch": 45,
		  "start": 153.023255813953,
		  "velocity": 80
		},
		{
		  "duration": 0.0436046511627907,
		  "pitch": 36,
		  "start": 153.023255813953,
		  "velocity": 80
		},
		{
		  "duration": 0.0436046511627907,
		  "pitch": 42,
		  "start": 153.139534883721,
		  "velocity": 60
		},
		{
		  "duration": 0.0436046511627907,
		  "pitch": 38,
		  "start": 153.139534883721,
		  "velocity": 80
		},
		{
		  "duration": 0.0436046511627907,
		  "pitch": 46,
		  "start": 153.255813953488,
		  "velocity": 80
		},
		{
		  "duration": 0.0436046511627907,
		  "pitch": 42,
		  "start": 153.372093023256,
		  "velocity": 60
		},
		{
		  "duration": 0.0436046511627907,
		  "pitch": 36,
		  "start": 153.488372093023,
		  "velocity": 80
		},
		{
		  "duration": 0.0436046511627907,
		  "pitch": 53,
		  "start": 153.488372093023,
		  "velocity": 80
		},
		{
		  "duration": 0.0436046511627907,
		  "pitch": 53,
		  "start": 153.720930232558,
		  "velocity": 80
		},
		{
		  "duration": 0.0436046511627907,
		  "pitch": 38,
		  "start": 153.837209302326,
		  "velocity": 80
		},
		{
		  "duration": 0.0436046511627907,
		  "pitch": 53,
		  "start": 153.953488372093,
		  "velocity": 80
		},
		{
		  "duration": 0.0436046511627907,
		  "pitch": 53,
		  "start": 154.186046511628,
		  "velocity": 80
		},
		{
		  "duration": 0.0436046511627907,
		  "pitch": 36,
		  "start": 154.186046511628,
		  "velocity": 80
		},
		{
		  "duration": 0.0436046511627907,
		  "pitch": 53,
		  "start": 154.418604651163,
		  "velocity": 80
		},
		{
		  "duration": 0.0436046511627907,
		  "pitch": 36,
		  "start": 154.418604651163,
		  "velocity": 80
		},
		{
		  "duration": 0.0436046511627907,
		  "pitch": 46,
		  "start": 154.53488372093,
		  "velocity": 80
		},
		{
		  "duration": 0.0436046511627907,
		  "pitch": 53,
		  "start": 154.651162790698,
		  "velocity": 80
		},
		{
		  "duration": 0.0436046511627907,
		  "pitch": 38,
		  "start": 154.651162790698,
		  "velocity": 80
		},
		{
		  "duration": 0.0436046511627907,
		  "pitch": 53,
		  "start": 154.883720930233,
		  "velocity": 80
		},
		{
		  "duration": 0.0436046511627907,
		  "pitch": 36,
		  "start": 154.883720930233,
		  "velocity": 80
		},
		{
		  "duration": 0.0436046511627907,
		  "pitch": 53,
		  "start": 155.116279069767,
		  "velocity": 80
		},
		{
		  "duration": 0.0436046511627907,
		  "pitch": 38,
		  "start": 155.232558139535,
		  "velocity": 80
		},
		{
		  "duration": 0.0436046511627907,
		  "pitch": 53,
		  "start": 155.348837209302,
		  "velocity": 80
		},
		{
		  "duration": 0.0436046511627907,
		  "pitch": 53,
		  "start": 155.581395348837,
		  "velocity": 80
		},
		{
		  "duration": 0.0436046511627907,
		  "pitch": 36,
		  "start": 155.581395348837,
		  "velocity": 80
		},
		{
		  "duration": 0.0436046511627907,
		  "pitch": 53,
		  "start": 155.813953488372,
		  "velocity": 80
		},
		{
		  "duration": 0.0436046511627907,
		  "pitch": 36,
		  "start": 155.813953488372,
		  "velocity": 80
		},
		{
		  "duration": 0.0436046511627907,
		  "pitch": 42,
		  "start": 155.93023255814,
		  "velocity": 60
		},
		{
		  "duration": 0.0436046511627907,
		  "pitch": 38,
		  "start": 155.93023255814,
		  "velocity": 80
		},
		{
		  "duration": 0.0436046511627907,
		  "pitch": 46,
		  "start": 156.046511627907,
		  "velocity": 80
		},
		{
		  "duration": 0.0436046511627907,
		  "pitch": 38,
		  "start": 156.046511627907,
		  "velocity": 80
		},
		{
		  "duration": 0.0436046511627907,
		  "pitch": 42,
		  "start": 156.162790697674,
		  "velocity": 60
		},
		{
		  "duration": 0.0436046511627907,
		  "pitch": 38,
		  "start": 156.162790697674,
		  "velocity": 80
		},
		{
		  "duration": 0.0436046511627907,
		  "pitch": 42,
		  "start": 156.279069767442,
		  "velocity": 60
		},
		{
		  "duration": 0.0436046511627907,
		  "pitch": 36,
		  "start": 156.279069767442,
		  "velocity": 80
		},
		{
		  "duration": 0.0436046511627907,
		  "pitch": 42,
		  "start": 156.511627906977,
		  "velocity": 60
		},
		{
		  "duration": 0.0436046511627907,
		  "pitch": 36,
		  "start": 156.511627906977,
		  "velocity": 80
		},
		{
		  "duration": 0.0436046511627907,
		  "pitch": 42,
		  "start": 156.627906976744,
		  "velocity": 60
		},
		{
		  "duration": 0.0436046511627907,
		  "pitch": 38,
		  "start": 156.627906976744,
		  "velocity": 80
		},
		{
		  "duration": 0.0436046511627907,
		  "pitch": 42,
		  "start": 156.860465116279,
		  "velocity": 60
		},
		{
		  "duration": 0.0436046511627907,
		  "pitch": 42,
		  "start": 156.976744186047,
		  "velocity": 60
		},
		{
		  "duration": 0.0436046511627907,
		  "pitch": 36,
		  "start": 156.976744186047,
		  "velocity": 80
		},
		{
		  "duration": 0.0436046511627907,
		  "pitch": 42,
		  "start": 157.209302325581,
		  "velocity": 60
		},
		{
		  "duration": 0.0436046511627907,
		  "pitch": 36,
		  "start": 157.209302325581,
		  "velocity": 80
		},
		{
		  "duration": 0.0436046511627907,
		  "pitch": 42,
		  "start": 157.325581395349,
		  "velocity": 60
		},
		{
		  "duration": 0.0436046511627907,
		  "pitch": 38,
		  "start": 157.325581395349,
		  "velocity": 80
		},
		{
		  "duration": 0.0436046511627907,
		  "pitch": 46,
		  "start": 157.441860465116,
		  "velocity": 80
		},
		{
		  "duration": 0.0436046511627907,
		  "pitch": 42,
		  "start": 157.558139534884,
		  "velocity": 60
		},
		{
		  "duration": 0.0436046511627907,
		  "pitch": 42,
		  "start": 157.674418604651,
		  "velocity": 60
		},
		{
		  "duration": 0.0436046511627907,
		  "pitch": 36,
		  "start": 157.674418604651,
		  "velocity": 80
		},
		{
		  "duration": 0.0436046511627907,
		  "pitch": 42,
		  "start": 157.906976744186,
		  "velocity": 60
		},
		{
		  "duration": 0.0436046511627907,
		  "pitch": 36,
		  "start": 157.906976744186,
		  "velocity": 80
		},
		{
		  "duration": 0.0436046511627907,
		  "pitch": 42,
		  "start": 158.023255813953,
		  "velocity": 60
		},
		{
		  "duration": 0.0436046511627907,
		  "pitch": 38,
		  "start": 158.023255813953,
		  "velocity": 80
		},
		{
		  "duration": 0.0436046511627907,
		  "pitch": 42,
		  "start": 158.255813953488,
		  "velocity": 60
		},
		{
		  "duration": 0.0436046511627907,
		  "pitch": 42,
		  "start": 158.372093023256,
		  "velocity": 60
		},
		{
		  "duration": 0.0436046511627907,
		  "pitch": 36,
		  "start": 158.372093023256,
		  "velocity": 80
		},
		{
		  "duration": 0.0436046511627907,
		  "pitch": 42,
		  "start": 158.604651162791,
		  "velocity": 60
		},
		{
		  "duration": 0.0436046511627907,
		  "pitch": 36,
		  "start": 158.604651162791,
		  "velocity": 80
		},
		{
		  "duration": 0.0436046511627907,
		  "pitch": 42,
		  "start": 158.720930232558,
		  "velocity": 60
		},
		{
		  "duration": 0.0436046511627907,
		  "pitch": 38,
		  "start": 158.720930232558,
		  "velocity": 80
		},
		{
		  "duration": 0.0436046511627907,
		  "pitch": 46,
		  "start": 158.837209302326,
		  "velocity": 80
		},
		{
		  "duration": 0.0436046511627907,
		  "pitch": 42,
		  "start": 158.953488372093,
		  "velocity": 60
		},
		{
		  "duration": 0.0436046511627907,
		  "pitch": 42,
		  "start": 159.06976744186,
		  "velocity": 60
		},
		{
		  "duration": 0.0436046511627907,
		  "pitch": 36,
		  "start": 159.06976744186,
		  "velocity": 80
		},
		{
		  "duration": 0.0436046511627907,
		  "pitch": 42,
		  "start": 159.302325581395,
		  "velocity": 60
		},
		{
		  "duration": 0.0436046511627907,
		  "pitch": 36,
		  "start": 159.302325581395,
		  "velocity": 80
		},
		{
		  "duration": 0.0436046511627907,
		  "pitch": 42,
		  "start": 159.418604651163,
		  "velocity": 60
		},
		{
		  "duration": 0.0436046511627907,
		  "pitch": 38,
		  "start": 159.418604651163,
		  "velocity": 80
		},
		{
		  "duration": 0.0436046511627907,
		  "pitch": 42,
		  "start": 159.651162790698,
		  "velocity": 60
		},
		{
		  "duration": 0.0436046511627907,
		  "pitch": 42,
		  "start": 159.767441860465,
		  "velocity": 60
		},
		{
		  "duration": 0.0436046511627907,
		  "pitch": 36,
		  "start": 159.767441860465,
		  "velocity": 80
		},
		{
		  "duration": 0.0436046511627907,
		  "pitch": 42,
		  "start": 160.0,
		  "velocity": 60
		},
		{
		  "duration": 0.0436046511627907,
		  "pitch": 36,
		  "start": 160.0,
		  "velocity": 80
		},
		{
		  "duration": 0.0436046511627907,
		  "pitch": 42,
		  "start": 160.116279069767,
		  "velocity": 60
		},
		{
		  "duration": 0.0436046511627907,
		  "pitch": 38,
		  "start": 160.116279069767,
		  "velocity": 80
		},
		{
		  "duration": 0.0436046511627907,
		  "pitch": 46,
		  "start": 160.232558139535,
		  "velocity": 80
		},
		{
		  "duration": 0.0436046511627907,
		  "pitch": 42,
		  "start": 160.348837209302,
		  "velocity": 60
		},
		{
		  "duration": 0.0436046511627907,
		  "pitch": 42,
		  "start": 160.46511627907,
		  "velocity": 60
		},
		{
		  "duration": 0.0436046511627907,
		  "pitch": 36,
		  "start": 160.46511627907,
		  "velocity": 80
		},
		{
		  "duration": 0.0436046511627907,
		  "pitch": 42,
		  "start": 160.697674418605,
		  "velocity": 60
		},
		{
		  "duration": 0.0436046511627907,
		  "pitch": 36,
		  "start": 160.697674418605,
		  "velocity": 80
		},
		{
		  "duration": 0.0436046511627907,
		  "pitch": 42,
		  "start": 160.813953488372,
		  "velocity": 60
		},
		{
		  "duration": 0.0436046511627907,
		  "pitch": 38,
		  "start": 160.813953488372,
		  "velocity": 80
		},
		{
		  "duration": 0.0436046511627907,
		  "pitch": 42,
		  "start": 161.046511627907,
		  "velocity": 60
		},
		{
		  "duration": 0.0436046511627907,
		  "pitch": 42,
		  "start": 161.162790697674,
		  "velocity": 60
		},
		{
		  "duration": 0.0436046511627907,
		  "pitch": 36,
		  "start": 161.162790697674,
		  "velocity": 80
		},
		{
		  "duration": 0.0436046511627907,
		  "pitch": 42,
		  "start": 161.395348837209,
		  "velocity": 60
		},
		{
		  "duration": 0.0436046511627907,
		  "pitch": 36,
		  "start": 161.395348837209,
		  "velocity": 80
		},
		{
		  "duration": 0.0436046511627907,
		  "pitch": 42,
		  "start": 161.511627906977,
		  "velocity": 60
		},
		{
		  "duration": 0.0436046511627907,
		  "pitch": 38,
		  "start": 161.511627906977,
		  "velocity": 80
		},
		{
		  "duration": 0.0436046511627907,
		  "pitch": 46,
		  "start": 161.627906976744,
		  "velocity": 80
		},
		{
		  "duration": 0.0436046511627907,
		  "pitch": 42,
		  "start": 161.744186046512,
		  "velocity": 60
		},
		{
		  "duration": 0.0436046511627907,
		  "pitch": 42,
		  "start": 161.860465116279,
		  "velocity": 60
		},
		{
		  "duration": 0.0436046511627907,
		  "pitch": 36,
		  "start": 161.860465116279,
		  "velocity": 80
		},
		{
		  "duration": 0.0436046511627907,
		  "pitch": 42,
		  "start": 162.093023255814,
		  "velocity": 60
		},
		{
		  "duration": 0.0436046511627907,
		  "pitch": 36,
		  "start": 162.093023255814,
		  "velocity": 80
		},
		{
		  "duration": 0.0436046511627907,
		  "pitch": 42,
		  "start": 162.209302325581,
		  "velocity": 60
		},
		{
		  "duration": 0.0436046511627907,
		  "pitch": 38,
		  "start": 162.209302325581,
		  "velocity": 80
		},
		{
		  "duration": 0.0436046511627907,
		  "pitch": 42,
		  "start": 162.441860465116,
		  "velocity": 60
		},
		{
		  "duration": 0.0436046511627907,
		  "pitch": 42,
		  "start": 162.558139534884,
		  "velocity": 60
		},
		{
		  "duration": 0.0436046511627907,
		  "pitch": 36,
		  "start": 162.558139534884,
		  "velocity": 80
		},
		{
		  "duration": 0.0436046511627907,
		  "pitch": 42,
		  "start": 162.790697674419,
		  "velocity": 60
		},
		{
		  "duration": 0.0436046511627907,
		  "pitch": 36,
		  "start": 162.790697674419,
		  "velocity": 80
		},
		{
		  "duration": 0.0436046511627907,
		  "pitch": 42,
		  "start": 162.906976744186,
		  "velocity": 60
		},
		{
		  "duration": 0.0436046511627907,
		  "pitch": 38,
		  "start": 162.906976744186,
		  "velocity": 80
		},
		{
		  "duration": 0.0436046511627907,
		  "pitch": 46,
		  "start": 163.023255813953,
		  "velocity": 80
		},
		{
		  "duration": 0.0436046511627907,
		  "pitch": 42,
		  "start": 163.139534883721,
		  "velocity": 60
		},
		{
		  "duration": 0.0436046511627907,
		  "pitch": 42,
		  "start": 163.255813953488,
		  "velocity": 60
		},
		{
		  "duration": 0.0436046511627907,
		  "pitch": 36,
		  "start": 163.255813953488,
		  "velocity": 80
		},
		{
		  "duration": 0.0436046511627907,
		  "pitch": 42,
		  "start": 163.488372093023,
		  "velocity": 60
		},
		{
		  "duration": 0.0436046511627907,
		  "pitch": 36,
		  "start": 163.488372093023,
		  "velocity": 80
		},
		{
		  "duration": 0.0436046511627907,
		  "pitch": 42,
		  "start": 163.604651162791,
		  "velocity": 60
		},
		{
		  "duration": 0.0436046511627907,
		  "pitch": 38,
		  "start": 163.604651162791,
		  "velocity": 80
		},
		{
		  "duration": 0.0436046511627907,
		  "pitch": 42,
		  "start": 163.837209302326,
		  "velocity": 60
		},
		{
		  "duration": 0.0436046511627907,
		  "pitch": 42,
		  "start": 163.953488372093,
		  "velocity": 60
		},
		{
		  "duration": 0.0436046511627907,
		  "pitch": 36,
		  "start": 163.953488372093,
		  "velocity": 80
		},
		{
		  "duration": 0.0436046511627907,
		  "pitch": 42,
		  "start": 164.186046511628,
		  "velocity": 60
		},
		{
		  "duration": 0.0436046511627907,
		  "pitch": 36,
		  "start": 164.186046511628,
		  "velocity": 80
		},
		{
		  "duration": 0.0436046511627907,
		  "pitch": 42,
		  "start": 164.302325581395,
		  "velocity": 60
		},
		{
		  "duration": 0.0436046511627907,
		  "pitch": 38,
		  "start": 164.302325581395,
		  "velocity": 80
		},
		{
		  "duration": 0.0436046511627907,
		  "pitch": 46,
		  "start": 164.418604651163,
		  "velocity": 80
		},
		{
		  "duration": 0.0436046511627907,
		  "pitch": 42,
		  "start": 164.53488372093,
		  "velocity": 60
		},
		{
		  "duration": 0.0436046511627907,
		  "pitch": 42,
		  "start": 164.651162790698,
		  "velocity": 60
		},
		{
		  "duration": 0.0436046511627907,
		  "pitch": 36,
		  "start": 164.651162790698,
		  "velocity": 80
		},
		{
		  "duration": 0.0436046511627907,
		  "pitch": 42,
		  "start": 164.883720930233,
		  "velocity": 60
		},
		{
		  "duration": 0.0436046511627907,
		  "pitch": 36,
		  "start": 164.883720930233,
		  "velocity": 80
		},
		{
		  "duration": 0.0436046511627907,
		  "pitch": 42,
		  "start": 165.0,
		  "velocity": 60
		},
		{
		  "duration": 0.0436046511627907,
		  "pitch": 38,
		  "start": 165.0,
		  "velocity": 80
		},
		{
		  "duration": 0.0436046511627907,
		  "pitch": 42,
		  "start": 165.232558139535,
		  "velocity": 60
		},
		{
		  "duration": 0.0436046511627907,
		  "pitch": 42,
		  "start": 165.348837209302,
		  "velocity": 60
		},
		{
		  "duration": 0.0436046511627907,
		  "pitch": 36,
		  "start": 165.348837209302,
		  "velocity": 80
		},
		{
		  "duration": 0.0436046511627907,
		  "pitch": 42,
		  "start": 165.581395348837,
		  "velocity": 60
		},
		{
		  "duration": 0.0436046511627907,
		  "pitch": 36,
		  "start": 165.581395348837,
		  "velocity": 80
		},
		{
		  "duration": 0.0436046511627907,
		  "pitch": 42,
		  "start": 165.697674418605,
		  "velocity": 60
		},
		{
		  "duration": 0.0436046511627907,
		  "pitch": 38,
		  "start": 165.697674418605,
		  "velocity": 80
		},
		{
		  "duration": 0.0436046511627907,
		  "pitch": 46,
		  "start": 165.813953488372,
		  "velocity": 80
		},
		{
		  "duration": 0.0436046511627907,
		  "pitch": 42,
		  "start": 165.93023255814,
		  "velocity": 60
		},
		{
		  "duration": 0.0436046511627907,
		  "pitch": 42,
		  "start": 166.046511627907,
		  "velocity": 60
		},
		{
		  "duration": 0.0436046511627907,
		  "pitch": 36,
		  "start": 166.046511627907,
		  "velocity": 80
		},
		{
		  "duration": 0.0436046511627907,
		  "pitch": 42,
		  "start": 166.279069767442,
		  "velocity": 60
		},
		{
		  "duration": 0.0436046511627907,
		  "pitch": 36,
		  "start": 166.279069767442,
		  "velocity": 80
		},
		{
		  "duration": 0.0436046511627907,
		  "pitch": 42,
		  "start": 166.395348837209,
		  "velocity": 60
		},
		{
		  "duration": 0.0436046511627907,
		  "pitch": 38,
		  "start": 166.395348837209,
		  "velocity": 80
		},
		{
		  "duration": 0.0436046511627907,
		  "pitch": 42,
		  "start": 166.627906976744,
		  "velocity": 60
		},
		{
		  "duration": 0.0436046511627907,
		  "pitch": 42,
		  "start": 166.744186046512,
		  "velocity": 60
		},
		{
		  "duration": 0.0436046511627907,
		  "pitch": 36,
		  "start": 166.744186046512,
		  "velocity": 80
		},
		{
		  "duration": 0.0436046511627907,
		  "pitch": 42,
		  "start": 166.976744186047,
		  "velocity": 60
		},
		{
		  "duration": 0.0436046511627907,
		  "pitch": 36,
		  "start": 166.976744186047,
		  "velocity": 80
		},
		{
		  "duration": 0.0436046511627907,
		  "pitch": 42,
		  "start": 167.093023255814,
		  "velocity": 60
		},
		{
		  "duration": 0.0436046511627907,
		  "pitch": 38,
		  "start": 167.093023255814,
		  "velocity": 80
		},
		{
		  "duration": 0.0436046511627907,
		  "pitch": 46,
		  "start": 167.209302325581,
		  "velocity": 80
		},
		{
		  "duration": 0.0436046511627907,
		  "pitch": 42,
		  "start": 167.325581395349,
		  "velocity": 60
		},
		{
		  "duration": 0.0436046511627907,
		  "pitch": 42,
		  "start": 167.441860465116,
		  "velocity": 60
		},
		{
		  "duration": 0.0436046511627907,
		  "pitch": 36,
		  "start": 167.441860465116,
		  "velocity": 80
		},
		{
		  "duration": 0.0436046511627907,
		  "pitch": 49,
		  "start": 167.441860465116,
		  "velocity": 80
		},
		{
		  "duration": 0.0436046511627907,
		  "pitch": 42,
		  "start": 167.674418604651,
		  "velocity": 60
		},
		{
		  "duration": 0.0436046511627907,
		  "pitch": 36,
		  "start": 167.674418604651,
		  "velocity": 80
		},
		{
		  "duration": 0.0436046511627907,
		  "pitch": 42,
		  "start": 167.790697674419,
		  "velocity": 60
		},
		{
		  "duration": 0.0436046511627907,
		  "pitch": 38,
		  "start": 167.790697674419,
		  "velocity": 80
		},
		{
		  "duration": 0.0436046511627907,
		  "pitch": 46,
		  "start": 167.906976744186,
		  "velocity": 80
		},
		{
		  "duration": 0.0436046511627907,
		  "pitch": 42,
		  "start": 168.023255813953,
		  "velocity": 60
		},
		{
		  "duration": 0.0436046511627907,
		  "pitch": 42,
		  "start": 168.139534883721,
		  "velocity": 60
		},
		{
		  "duration": 0.0436046511627907,
		  "pitch": 36,
		  "start": 168.139534883721,
		  "velocity": 80
		},
		{
		  "duration": 0.0436046511627907,
		  "pitch": 42,
		  "start": 168.372093023256,
		  "velocity": 60
		},
		{
		  "duration": 0.0436046511627907,
		  "pitch": 36,
		  "start": 168.372093023256,
		  "velocity": 80
		},
		{
		  "duration": 0.0436046511627907,
		  "pitch": 42,
		  "start": 168.488372093023,
		  "velocity": 60
		},
		{
		  "duration": 0.0436046511627907,
		  "pitch": 41,
		  "start": 168.488372093023,
		  "velocity": 80
		},
		{
		  "duration": 0.0436046511627907,
		  "pitch": 42,
		  "start": 168.837209302326,
		  "velocity": 60
		},
		{
		  "duration": 0.0436046511627907,
		  "pitch": 36,
		  "start": 168.837209302326,
		  "velocity": 80
		},
		{
		  "duration": 0.0436046511627907,
		  "pitch": 42,
		  "start": 169.06976744186,
		  "velocity": 60
		},
		{
		  "duration": 0.0436046511627907,
		  "pitch": 36,
		  "start": 169.06976744186,
		  "velocity": 80
		},
		{
		  "duration": 0.0436046511627907,
		  "pitch": 42,
		  "start": 169.186046511628,
		  "velocity": 60
		},
		{
		  "duration": 0.0436046511627907,
		  "pitch": 38,
		  "start": 169.186046511628,
		  "velocity": 80
		},
		{
		  "duration": 0.0436046511627907,
		  "pitch": 46,
		  "start": 169.302325581395,
		  "velocity": 80
		},
		{
		  "duration": 0.0436046511627907,
		  "pitch": 42,
		  "start": 169.418604651163,
		  "velocity": 60
		},
		{
		  "duration": 0.0436046511627907,
		  "pitch": 42,
		  "start": 169.53488372093,
		  "velocity": 60
		},
		{
		  "duration": 0.0436046511627907,
		  "pitch": 36,
		  "start": 169.53488372093,
		  "velocity": 80
		},
		{
		  "duration": 0.0436046511627907,
		  "pitch": 42,
		  "start": 169.767441860465,
		  "velocity": 60
		},
		{
		  "duration": 0.0436046511627907,
		  "pitch": 36,
		  "start": 169.767441860465,
		  "velocity": 80
		},
		{
		  "duration": 0.0436046511627907,
		  "pitch": 42,
		  "start": 169.883720930233,
		  "velocity": 60
		},
		{
		  "duration": 0.0436046511627907,
		  "pitch": 41,
		  "start": 169.883720930233,
		  "velocity": 80
		},
		{
		  "duration": 0.0436046511627907,
		  "pitch": 42,
		  "start": 170.232558139535,
		  "velocity": 60
		},
		{
		  "duration": 0.0436046511627907,
		  "pitch": 36,
		  "start": 170.232558139535,
		  "velocity": 80
		},
		{
		  "duration": 0.0436046511627907,
		  "pitch": 42,
		  "start": 170.46511627907,
		  "velocity": 60
		},
		{
		  "duration": 0.0436046511627907,
		  "pitch": 36,
		  "start": 170.46511627907,
		  "velocity": 80
		},
		{
		  "duration": 0.0436046511627907,
		  "pitch": 42,
		  "start": 170.581395348837,
		  "velocity": 60
		},
		{
		  "duration": 0.0436046511627907,
		  "pitch": 38,
		  "start": 170.581395348837,
		  "velocity": 80
		},
		{
		  "duration": 0.0436046511627907,
		  "pitch": 46,
		  "start": 170.697674418605,
		  "velocity": 80
		},
		{
		  "duration": 0.0436046511627907,
		  "pitch": 42,
		  "start": 170.813953488372,
		  "velocity": 60
		},
		{
		  "duration": 0.0436046511627907,
		  "pitch": 42,
		  "start": 170.93023255814,
		  "velocity": 60
		},
		{
		  "duration": 0.0436046511627907,
		  "pitch": 36,
		  "start": 170.93023255814,
		  "velocity": 80
		},
		{
		  "duration": 0.0436046511627907,
		  "pitch": 42,
		  "start": 171.162790697674,
		  "velocity": 60
		},
		{
		  "duration": 0.0436046511627907,
		  "pitch": 36,
		  "start": 171.162790697674,
		  "velocity": 80
		},
		{
		  "duration": 0.0436046511627907,
		  "pitch": 42,
		  "start": 171.279069767442,
		  "velocity": 60
		},
		{
		  "duration": 0.0436046511627907,
		  "pitch": 41,
		  "start": 171.279069767442,
		  "velocity": 80
		},
		{
		  "duration": 0.0436046511627907,
		  "pitch": 42,
		  "start": 171.627906976744,
		  "velocity": 60
		},
		{
		  "duration": 0.0436046511627907,
		  "pitch": 36,
		  "start": 171.627906976744,
		  "velocity": 80
		},
		{
		  "duration": 0.0436046511627907,
		  "pitch": 42,
		  "start": 171.860465116279,
		  "velocity": 60
		},
		{
		  "duration": 0.0436046511627907,
		  "pitch": 36,
		  "start": 171.860465116279,
		  "velocity": 80
		},
		{
		  "duration": 0.0436046511627907,
		  "pitch": 42,
		  "start": 171.976744186047,
		  "velocity": 60
		},
		{
		  "duration": 0.0436046511627907,
		  "pitch": 38,
		  "start": 171.976744186047,
		  "velocity": 80
		},
		{
		  "duration": 0.0436046511627907,
		  "pitch": 46,
		  "start": 172.093023255814,
		  "velocity": 80
		},
		{
		  "duration": 0.0436046511627907,
		  "pitch": 42,
		  "start": 172.209302325581,
		  "velocity": 60
		},
		{
		  "duration": 0.0436046511627907,
		  "pitch": 42,
		  "start": 172.325581395349,
		  "velocity": 60
		},
		{
		  "duration": 0.0436046511627907,
		  "pitch": 36,
		  "start": 172.325581395349,
		  "velocity": 80
		},
		{
		  "duration": 0.0436046511627907,
		  "pitch": 42,
		  "start": 172.558139534884,
		  "velocity": 60
		},
		{
		  "duration": 0.0436046511627907,
		  "pitch": 36,
		  "start": 172.558139534884,
		  "velocity": 80
		},
		{
		  "duration": 0.0436046511627907,
		  "pitch": 42,
		  "start": 172.674418604651,
		  "velocity": 60
		},
		{
		  "duration": 0.0436046511627907,
		  "pitch": 41,
		  "start": 172.674418604651,
		  "velocity": 80
		},
		{
		  "duration": 0.0436046511627907,
		  "pitch": 42,
		  "start": 173.023255813953,
		  "velocity": 60
		},
		{
		  "duration": 0.0436046511627907,
		  "pitch": 36,
		  "start": 173.023255813953,
		  "velocity": 80
		},
		{
		  "duration": 0.0436046511627907,
		  "pitch": 42,
		  "start": 173.255813953488,
		  "velocity": 60
		},
		{
		  "duration": 0.0436046511627907,
		  "pitch": 36,
		  "start": 173.255813953488,
		  "velocity": 80
		},
		{
		  "duration": 0.0436046511627907,
		  "pitch": 42,
		  "start": 173.372093023256,
		  "velocity": 60
		},
		{
		  "duration": 0.0436046511627907,
		  "pitch": 38,
		  "start": 173.372093023256,
		  "velocity": 80
		},
		{
		  "duration": 0.0436046511627907,
		  "pitch": 46,
		  "start": 173.488372093023,
		  "velocity": 80
		},
		{
		  "duration": 0.0436046511627907,
		  "pitch": 42,
		  "start": 173.604651162791,
		  "velocity": 60
		},
		{
		  "duration": 0.0436046511627907,
		  "pitch": 42,
		  "start": 173.720930232558,
		  "velocity": 60
		},
		{
		  "duration": 0.0436046511627907,
		  "pitch": 36,
		  "start": 173.720930232558,
		  "velocity": 80
		},
		{
		  "duration": 0.0436046511627907,
		  "pitch": 42,
		  "start": 173.953488372093,
		  "velocity": 60
		},
		{
		  "duration": 0.0436046511627907,
		  "pitch": 36,
		  "start": 173.953488372093,
		  "velocity": 80
		},
		{
		  "duration": 0.0436046511627907,
		  "pitch": 42,
		  "start": 174.06976744186,
		  "velocity": 60
		},
		{
		  "duration": 0.0436046511627907,
		  "pitch": 41,
		  "start": 174.06976744186,
		  "velocity": 80
		},
		{
		  "duration": 0.0436046511627907,
		  "pitch": 42,
		  "start": 174.418604651163,
		  "velocity": 60
		},
		{
		  "duration": 0.0436046511627907,
		  "pitch": 36,
		  "start": 174.418604651163,
		  "velocity": 80
		},
		{
		  "duration": 0.0436046511627907,
		  "pitch": 42,
		  "start": 174.651162790698,
		  "velocity": 60
		},
		{
		  "duration": 0.0436046511627907,
		  "pitch": 36,
		  "start": 174.651162790698,
		  "velocity": 80
		},
		{
		  "duration": 0.0436046511627907,
		  "pitch": 42,
		  "start": 174.767441860465,
		  "velocity": 60
		},
		{
		  "duration": 0.0436046511627907,
		  "pitch": 38,
		  "start": 174.767441860465,
		  "velocity": 80
		},
		{
		  "duration": 0.0436046511627907,
		  "pitch": 46,
		  "start": 174.883720930233,
		  "velocity": 80
		},
		{
		  "duration": 0.0436046511627907,
		  "pitch": 42,
		  "start": 175.0,
		  "velocity": 60
		},
		{
		  "duration": 0.0436046511627907,
		  "pitch": 42,
		  "start": 175.116279069767,
		  "velocity": 60
		},
		{
		  "duration": 0.0436046511627907,
		  "pitch": 36,
		  "start": 175.116279069767,
		  "velocity": 80
		},
		{
		  "duration": 0.0436046511627907,
		  "pitch": 42,
		  "start": 175.348837209302,
		  "velocity": 60
		},
		{
		  "duration": 0.0436046511627907,
		  "pitch": 36,
		  "start": 175.348837209302,
		  "velocity": 80
		},
		{
		  "duration": 0.0436046511627907,
		  "pitch": 42,
		  "start": 175.46511627907,
		  "velocity": 60
		},
		{
		  "duration": 0.0436046511627907,
		  "pitch": 41,
		  "start": 175.46511627907,
		  "velocity": 80
		},
		{
		  "duration": 0.0436046511627907,
		  "pitch": 42,
		  "start": 175.813953488372,
		  "velocity": 60
		},
		{
		  "duration": 0.0436046511627907,
		  "pitch": 36,
		  "start": 175.813953488372,
		  "velocity": 80
		},
		{
		  "duration": 0.0436046511627907,
		  "pitch": 42,
		  "start": 176.046511627907,
		  "velocity": 60
		},
		{
		  "duration": 0.0436046511627907,
		  "pitch": 36,
		  "start": 176.046511627907,
		  "velocity": 80
		},
		{
		  "duration": 0.0436046511627907,
		  "pitch": 42,
		  "start": 176.162790697674,
		  "velocity": 60
		},
		{
		  "duration": 0.0436046511627907,
		  "pitch": 38,
		  "start": 176.162790697674,
		  "velocity": 80
		},
		{
		  "duration": 0.0436046511627907,
		  "pitch": 46,
		  "start": 176.279069767442,
		  "velocity": 80
		},
		{
		  "duration": 0.0436046511627907,
		  "pitch": 42,
		  "start": 176.395348837209,
		  "velocity": 60
		},
		{
		  "duration": 0.0436046511627907,
		  "pitch": 42,
		  "start": 176.511627906977,
		  "velocity": 60
		},
		{
		  "duration": 0.0436046511627907,
		  "pitch": 36,
		  "start": 176.511627906977,
		  "velocity": 80
		},
		{
		  "duration": 0.0436046511627907,
		  "pitch": 42,
		  "start": 176.744186046512,
		  "velocity": 60
		},
		{
		  "duration": 0.0436046511627907,
		  "pitch": 36,
		  "start": 176.744186046512,
		  "velocity": 80
		},
		{
		  "duration": 0.0436046511627907,
		  "pitch": 42,
		  "start": 176.860465116279,
		  "velocity": 60
		},
		{
		  "duration": 0.0436046511627907,
		  "pitch": 41,
		  "start": 176.860465116279,
		  "velocity": 80
		},
		{
		  "duration": 0.0436046511627907,
		  "pitch": 42,
		  "start": 177.209302325581,
		  "velocity": 60
		},
		{
		  "duration": 0.0436046511627907,
		  "pitch": 36,
		  "start": 177.209302325581,
		  "velocity": 80
		},
		{
		  "duration": 0.0436046511627907,
		  "pitch": 42,
		  "start": 177.441860465116,
		  "velocity": 60
		},
		{
		  "duration": 0.0436046511627907,
		  "pitch": 36,
		  "start": 177.441860465116,
		  "velocity": 80
		},
		{
		  "duration": 0.0436046511627907,
		  "pitch": 42,
		  "start": 177.558139534884,
		  "velocity": 60
		},
		{
		  "duration": 0.0436046511627907,
		  "pitch": 38,
		  "start": 177.558139534884,
		  "velocity": 80
		},
		{
		  "duration": 0.0436046511627907,
		  "pitch": 46,
		  "start": 177.674418604651,
		  "velocity": 80
		},
		{
		  "duration": 0.0436046511627907,
		  "pitch": 42,
		  "start": 177.790697674419,
		  "velocity": 60
		},
		{
		  "duration": 0.0436046511627907,
		  "pitch": 42,
		  "start": 177.906976744186,
		  "velocity": 60
		},
		{
		  "duration": 0.0436046511627907,
		  "pitch": 36,
		  "start": 177.906976744186,
		  "velocity": 80
		},
		{
		  "duration": 0.0436046511627907,
		  "pitch": 48,
		  "start": 178.023255813953,
		  "velocity": 80
		},
		{
		  "duration": 0.0436046511627907,
		  "pitch": 36,
		  "start": 178.139534883721,
		  "velocity": 80
		},
		{
		  "duration": 0.0436046511627907,
		  "pitch": 48,
		  "start": 178.139534883721,
		  "velocity": 80
		},
		{
		  "duration": 0.0436046511627907,
		  "pitch": 45,
		  "start": 178.255813953488,
		  "velocity": 80
		},
		{
		  "duration": 0.0436046511627907,
		  "pitch": 45,
		  "start": 178.372093023256,
		  "velocity": 80
		},
		{
		  "duration": 0.0436046511627907,
		  "pitch": 41,
		  "start": 178.488372093023,
		  "velocity": 80
		},
		{
		  "duration": 0.0436046511627907,
		  "pitch": 42,
		  "start": 178.604651162791,
		  "velocity": 60
		},
		{
		  "duration": 0.0436046511627907,
		  "pitch": 36,
		  "start": 178.604651162791,
		  "velocity": 80
		},
		{
		  "duration": 0.0436046511627907,
		  "pitch": 42,
		  "start": 178.837209302326,
		  "velocity": 60
		},
		{
		  "duration": 0.0436046511627907,
		  "pitch": 36,
		  "start": 178.837209302326,
		  "velocity": 80
		},
		{
		  "duration": 0.0436046511627907,
		  "pitch": 42,
		  "start": 178.953488372093,
		  "velocity": 60
		},
		{
		  "duration": 0.0436046511627907,
		  "pitch": 38,
		  "start": 178.953488372093,
		  "velocity": 80
		},
		{
		  "duration": 0.0436046511627907,
		  "pitch": 49,
		  "start": 178.953488372093,
		  "velocity": 80
		},
		{
		  "duration": 0.0436046511627907,
		  "pitch": 46,
		  "start": 179.06976744186,
		  "velocity": 80
		},
		{
		  "duration": 0.0436046511627907,
		  "pitch": 42,
		  "start": 179.186046511628,
		  "velocity": 60
		},
		{
		  "duration": 0.0436046511627907,
		  "pitch": 42,
		  "start": 179.302325581395,
		  "velocity": 60
		},
		{
		  "duration": 0.0436046511627907,
		  "pitch": 36,
		  "start": 179.302325581395,
		  "velocity": 80
		},
		{
		  "duration": 0.0436046511627907,
		  "pitch": 42,
		  "start": 179.53488372093,
		  "velocity": 60
		},
		{
		  "duration": 0.0436046511627907,
		  "pitch": 36,
		  "start": 179.53488372093,
		  "velocity": 80
		},
		{
		  "duration": 0.0436046511627907,
		  "pitch": 42,
		  "start": 179.651162790698,
		  "velocity": 60
		},
		{
		  "duration": 0.0436046511627907,
		  "pitch": 41,
		  "start": 179.651162790698,
		  "velocity": 80
		},
		{
		  "duration": 0.0436046511627907,
		  "pitch": 42,
		  "start": 180.0,
		  "velocity": 60
		},
		{
		  "duration": 0.0436046511627907,
		  "pitch": 36,
		  "start": 180.0,
		  "velocity": 80
		},
		{
		  "duration": 0.0436046511627907,
		  "pitch": 42,
		  "start": 180.232558139535,
		  "velocity": 60
		},
		{
		  "duration": 0.0436046511627907,
		  "pitch": 36,
		  "start": 180.232558139535,
		  "velocity": 80
		},
		{
		  "duration": 0.0436046511627907,
		  "pitch": 42,
		  "start": 180.348837209302,
		  "velocity": 60
		},
		{
		  "duration": 0.0436046511627907,
		  "pitch": 38,
		  "start": 180.348837209302,
		  "velocity": 80
		},
		{
		  "duration": 0.0436046511627907,
		  "pitch": 49,
		  "start": 180.348837209302,
		  "velocity": 80
		},
		{
		  "duration": 0.0436046511627907,
		  "pitch": 46,
		  "start": 180.46511627907,
		  "velocity": 80
		},
		{
		  "duration": 0.0436046511627907,
		  "pitch": 42,
		  "start": 180.581395348837,
		  "velocity": 60
		},
		{
		  "duration": 0.0436046511627907,
		  "pitch": 42,
		  "start": 180.697674418605,
		  "velocity": 60
		},
		{
		  "duration": 0.0436046511627907,
		  "pitch": 36,
		  "start": 180.697674418605,
		  "velocity": 80
		},
		{
		  "duration": 0.0436046511627907,
		  "pitch": 42,
		  "start": 180.93023255814,
		  "velocity": 60
		},
		{
		  "duration": 0.0436046511627907,
		  "pitch": 36,
		  "start": 180.93023255814,
		  "velocity": 80
		},
		{
		  "duration": 0.0436046511627907,
		  "pitch": 42,
		  "start": 181.046511627907,
		  "velocity": 60
		},
		{
		  "duration": 0.0436046511627907,
		  "pitch": 41,
		  "start": 181.046511627907,
		  "velocity": 80
		},
		{
		  "duration": 0.0436046511627907,
		  "pitch": 42,
		  "start": 181.395348837209,
		  "velocity": 60
		},
		{
		  "duration": 0.0436046511627907,
		  "pitch": 36,
		  "start": 181.395348837209,
		  "velocity": 80
		},
		{
		  "duration": 0.0436046511627907,
		  "pitch": 42,
		  "start": 181.627906976744,
		  "velocity": 60
		},
		{
		  "duration": 0.0436046511627907,
		  "pitch": 36,
		  "start": 181.627906976744,
		  "velocity": 80
		},
		{
		  "duration": 0.0436046511627907,
		  "pitch": 42,
		  "start": 181.744186046512,
		  "velocity": 60
		},
		{
		  "duration": 0.0436046511627907,
		  "pitch": 38,
		  "start": 181.744186046512,
		  "velocity": 80
		},
		{
		  "duration": 0.0436046511627907,
		  "pitch": 49,
		  "start": 181.744186046512,
		  "velocity": 80
		},
		{
		  "duration": 0.0436046511627907,
		  "pitch": 46,
		  "start": 181.860465116279,
		  "velocity": 80
		},
		{
		  "duration": 0.0436046511627907,
		  "pitch": 42,
		  "start": 181.976744186047,
		  "velocity": 60
		},
		{
		  "duration": 0.0436046511627907,
		  "pitch": 42,
		  "start": 182.093023255814,
		  "velocity": 60
		},
		{
		  "duration": 0.0436046511627907,
		  "pitch": 36,
		  "start": 182.093023255814,
		  "velocity": 80
		},
		{
		  "duration": 0.0436046511627907,
		  "pitch": 42,
		  "start": 182.325581395349,
		  "velocity": 60
		},
		{
		  "duration": 0.0436046511627907,
		  "pitch": 36,
		  "start": 182.325581395349,
		  "velocity": 80
		},
		{
		  "duration": 0.0436046511627907,
		  "pitch": 42,
		  "start": 182.441860465116,
		  "velocity": 60
		},
		{
		  "duration": 0.0436046511627907,
		  "pitch": 41,
		  "start": 182.441860465116,
		  "velocity": 80
		},
		{
		  "duration": 0.0436046511627907,
		  "pitch": 42,
		  "start": 182.790697674419,
		  "velocity": 60
		},
		{
		  "duration": 0.0436046511627907,
		  "pitch": 36,
		  "start": 182.790697674419,
		  "velocity": 80
		},
		{
		  "duration": 0.0436046511627907,
		  "pitch": 42,
		  "start": 183.023255813953,
		  "velocity": 60
		},
		{
		  "duration": 0.0436046511627907,
		  "pitch": 36,
		  "start": 183.023255813953,
		  "velocity": 80
		},
		{
		  "duration": 0.0436046511627907,
		  "pitch": 42,
		  "start": 183.139534883721,
		  "velocity": 60
		},
		{
		  "duration": 0.0436046511627907,
		  "pitch": 38,
		  "start": 183.139534883721,
		  "velocity": 80
		},
		{
		  "duration": 0.0436046511627907,
		  "pitch": 49,
		  "start": 183.139534883721,
		  "velocity": 80
		},
		{
		  "duration": 0.0436046511627907,
		  "pitch": 46,
		  "start": 183.255813953488,
		  "velocity": 80
		},
		{
		  "duration": 0.0436046511627907,
		  "pitch": 42,
		  "start": 183.372093023256,
		  "velocity": 60
		},
		{
		  "duration": 0.0436046511627907,
		  "pitch": 42,
		  "start": 183.488372093023,
		  "velocity": 60
		},
		{
		  "duration": 0.0436046511627907,
		  "pitch": 36,
		  "start": 183.488372093023,
		  "velocity": 80
		},
		{
		  "duration": 0.0436046511627907,
		  "pitch": 42,
		  "start": 183.720930232558,
		  "velocity": 60
		},
		{
		  "duration": 0.0436046511627907,
		  "pitch": 36,
		  "start": 183.720930232558,
		  "velocity": 80
		},
		{
		  "duration": 0.0436046511627907,
		  "pitch": 42,
		  "start": 183.837209302326,
		  "velocity": 60
		},
		{
		  "duration": 0.0436046511627907,
		  "pitch": 41,
		  "start": 183.837209302326,
		  "velocity": 80
		},
		{
		  "duration": 0.0436046511627907,
		  "pitch": 42,
		  "start": 184.186046511628,
		  "velocity": 60
		},
		{
		  "duration": 0.0436046511627907,
		  "pitch": 36,
		  "start": 184.186046511628,
		  "velocity": 80
		},
		{
		  "duration": 0.0436046511627907,
		  "pitch": 42,
		  "start": 184.418604651163,
		  "velocity": 60
		},
		{
		  "duration": 0.0436046511627907,
		  "pitch": 36,
		  "start": 184.418604651163,
		  "velocity": 80
		},
		{
		  "duration": 0.0436046511627907,
		  "pitch": 42,
		  "start": 184.53488372093,
		  "velocity": 60
		},
		{
		  "duration": 0.0436046511627907,
		  "pitch": 38,
		  "start": 184.53488372093,
		  "velocity": 80
		},
		{
		  "duration": 0.0436046511627907,
		  "pitch": 49,
		  "start": 184.53488372093,
		  "velocity": 80
		},
		{
		  "duration": 0.0436046511627907,
		  "pitch": 46,
		  "start": 184.651162790698,
		  "velocity": 80
		},
		{
		  "duration": 0.0436046511627907,
		  "pitch": 42,
		  "start": 184.767441860465,
		  "velocity": 60
		},
		{
		  "duration": 0.0436046511627907,
		  "pitch": 42,
		  "start": 184.883720930233,
		  "velocity": 60
		},
		{
		  "duration": 0.0436046511627907,
		  "pitch": 36,
		  "start": 184.883720930233,
		  "velocity": 80
		},
		{
		  "duration": 0.0436046511627907,
		  "pitch": 42,
		  "start": 185.116279069767,
		  "velocity": 60
		},
		{
		  "duration": 0.0436046511627907,
		  "pitch": 36,
		  "start": 185.116279069767,
		  "velocity": 80
		},
		{
		  "duration": 0.0436046511627907,
		  "pitch": 42,
		  "start": 185.232558139535,
		  "velocity": 60
		},
		{
		  "duration": 0.0436046511627907,
		  "pitch": 41,
		  "start": 185.232558139535,
		  "velocity": 80
		},
		{
		  "duration": 0.0436046511627907,
		  "pitch": 42,
		  "start": 185.581395348837,
		  "velocity": 60
		},
		{
		  "duration": 0.0436046511627907,
		  "pitch": 36,
		  "start": 185.581395348837,
		  "velocity": 80
		},
		{
		  "duration": 0.0436046511627907,
		  "pitch": 42,
		  "start": 185.813953488372,
		  "velocity": 60
		},
		{
		  "duration": 0.0436046511627907,
		  "pitch": 36,
		  "start": 185.813953488372,
		  "velocity": 80
		},
		{
		  "duration": 0.0436046511627907,
		  "pitch": 42,
		  "start": 185.93023255814,
		  "velocity": 60
		},
		{
		  "duration": 0.0436046511627907,
		  "pitch": 38,
		  "start": 185.93023255814,
		  "velocity": 80
		},
		{
		  "duration": 0.0436046511627907,
		  "pitch": 49,
		  "start": 185.93023255814,
		  "velocity": 80
		},
		{
		  "duration": 0.0436046511627907,
		  "pitch": 46,
		  "start": 186.046511627907,
		  "velocity": 80
		},
		{
		  "duration": 0.0436046511627907,
		  "pitch": 42,
		  "start": 186.162790697674,
		  "velocity": 60
		},
		{
		  "duration": 0.0436046511627907,
		  "pitch": 42,
		  "start": 186.279069767442,
		  "velocity": 60
		},
		{
		  "duration": 0.0436046511627907,
		  "pitch": 36,
		  "start": 186.279069767442,
		  "velocity": 80
		},
		{
		  "duration": 0.0436046511627907,
		  "pitch": 42,
		  "start": 186.511627906977,
		  "velocity": 60
		},
		{
		  "duration": 0.0436046511627907,
		  "pitch": 36,
		  "start": 186.511627906977,
		  "velocity": 80
		},
		{
		  "duration": 0.0436046511627907,
		  "pitch": 42,
		  "start": 186.627906976744,
		  "velocity": 60
		},
		{
		  "duration": 0.0436046511627907,
		  "pitch": 41,
		  "start": 186.627906976744,
		  "velocity": 80
		},
		{
		  "duration": 0.0436046511627907,
		  "pitch": 41,
		  "start": 186.860465116279,
		  "velocity": 80
		},
		{
		  "duration": 0.0436046511627907,
		  "pitch": 48,
		  "start": 186.976744186047,
		  "velocity": 64
		},
		{
		  "duration": 0.0436046511627907,
		  "pitch": 36,
		  "start": 186.976744186047,
		  "velocity": 80
		},
		{
		  "duration": 0.0436046511627907,
		  "pitch": 42,
		  "start": 186.976744186047,
		  "velocity": 60
		},
		{
		  "duration": 0.0436046511627907,
		  "pitch": 48,
		  "start": 187.03488372093,
		  "velocity": 80
		},
		{
		  "duration": 0.0436046511627907,
		  "pitch": 48,
		  "start": 187.093023255814,
		  "velocity": 80
		},
		{
		  "duration": 0.0436046511627907,
		  "pitch": 48,
		  "start": 187.209302325581,
		  "velocity": 80
		},
		{
		  "duration": 0.0436046511627907,
		  "pitch": 48,
		  "start": 187.325581395349,
		  "velocity": 80
		},
		{
		  "duration": 0.0436046511627907,
		  "pitch": 42,
		  "start": 187.325581395349,
		  "velocity": 60
		},
		{
		  "duration": 0.0436046511627907,
		  "pitch": 36,
		  "start": 187.674418604651,
		  "velocity": 80
		},
		{
		  "duration": 0.0436046511627907,
		  "pitch": 42,
		  "start": 187.674418604651,
		  "velocity": 60
		},
		{
		  "duration": 0.0436046511627907,
		  "pitch": 38,
		  "start": 187.790697674419,
		  "velocity": 80
		},
		{
		  "duration": 0.0436046511627907,
		  "pitch": 46,
		  "start": 187.848837209302,
		  "velocity": 80
		},
		{
		  "duration": 0.0436046511627907,
		  "pitch": 38,
		  "start": 188.023255813953,
		  "velocity": 80
		},
		{
		  "duration": 0.0436046511627907,
		  "pitch": 42,
		  "start": 188.023255813953,
		  "velocity": 60
		},
		{
		  "duration": 0.0436046511627907,
		  "pitch": 49,
		  "start": 188.023255813953,
		  "velocity": 80
		},
		{
		  "duration": 0.0436046511627907,
		  "pitch": 38,
		  "start": 188.139534883721,
		  "velocity": 80
		},
		{
		  "duration": 0.0436046511627907,
		  "pitch": 38,
		  "start": 188.255813953488,
		  "velocity": 80
		},
		{
		  "duration": 0.0436046511627907,
		  "pitch": 45,
		  "start": 188.372093023256,
		  "velocity": 80
		},
		{
		  "duration": 0.0436046511627907,
		  "pitch": 36,
		  "start": 188.372093023256,
		  "velocity": 80
		},
		{
		  "duration": 0.0436046511627907,
		  "pitch": 45,
		  "start": 188.488372093023,
		  "velocity": 80
		},
		{
		  "duration": 0.0436046511627907,
		  "pitch": 45,
		  "start": 188.604651162791,
		  "velocity": 80
		},
		{
		  "duration": 0.0436046511627907,
		  "pitch": 41,
		  "start": 188.720930232558,
		  "velocity": 80
		},
		{
		  "duration": 0.0436046511627907,
		  "pitch": 41,
		  "start": 188.837209302326,
		  "velocity": 80
		},
		{
		  "duration": 0.0436046511627907,
		  "pitch": 41,
		  "start": 188.953488372093,
		  "velocity": 80
		},
		{
		  "duration": 0.0436046511627907,
		  "pitch": 42,
		  "start": 189.06976744186,
		  "velocity": 60
		},
		{
		  "duration": 0.0436046511627907,
		  "pitch": 38,
		  "start": 189.06976744186,
		  "velocity": 80
		},
		{
		  "duration": 0.0436046511627907,
		  "pitch": 36,
		  "start": 189.06976744186,
		  "velocity": 80
		},
		{
		  "duration": 0.0436046511627907,
		  "pitch": 42,
		  "start": 189.302325581395,
		  "velocity": 60
		},
		{
		  "duration": 0.0436046511627907,
		  "pitch": 36,
		  "start": 189.302325581395,
		  "velocity": 80
		},
		{
		  "duration": 0.0436046511627907,
		  "pitch": 38,
		  "start": 189.418604651163,
		  "velocity": 80
		},
		{
		  "duration": 0.0436046511627907,
		  "pitch": 36,
		  "start": 189.418604651163,
		  "velocity": 80
		},
		{
		  "duration": 0.0436046511627907,
		  "pitch": 42,
		  "start": 189.53488372093,
		  "velocity": 60
		},
		{
		  "duration": 0.0436046511627907,
		  "pitch": 42,
		  "start": 189.651162790698,
		  "velocity": 60
		},
		{
		  "duration": 0.0436046511627907,
		  "pitch": 38,
		  "start": 189.767441860465,
		  "velocity": 80
		},
		{
		  "duration": 0.0436046511627907,
		  "pitch": 49,
		  "start": 189.767441860465,
		  "velocity": 80
		},
		{
		  "duration": 0.0436046511627907,
		  "pitch": 36,
		  "start": 189.767441860465,
		  "velocity": 80
		},
		{
		  "duration": 0.0436046511627907,
		  "pitch": 46,
		  "start": 189.767441860465,
		  "velocity": 80
		},
		{
		  "duration": 0.0436046511627907,
		  "pitch": 46,
		  "start": 190.116279069767,
		  "velocity": 80
		},
		{
		  "duration": 0.0436046511627907,
		  "pitch": 46,
		  "start": 190.46511627907,
		  "velocity": 80
		},
		{
		  "duration": 0.0436046511627907,
		  "pitch": 46,
		  "start": 190.813953488372,
		  "velocity": 80
		},
		{
		  "duration": 0.0436046511627907,
		  "pitch": 46,
		  "start": 191.162790697674,
		  "velocity": 80
		},
		{
		  "duration": 0.0436046511627907,
		  "pitch": 46,
		  "start": 191.511627906977,
		  "velocity": 80
		},
		{
		  "duration": 0.0436046511627907,
		  "pitch": 46,
		  "start": 191.860465116279,
		  "velocity": 80
		},
		{
		  "duration": 0.0436046511627907,
		  "pitch": 46,
		  "start": 192.209302325581,
		  "velocity": 80
		},
		{
		  "duration": 0.0436046511627907,
		  "pitch": 38,
		  "start": 192.558139534884,
		  "velocity": 80
		},
		{
		  "duration": 0.0436046511627907,
		  "pitch": 49,
		  "start": 192.558139534884,
		  "velocity": 80
		},
		{
		  "duration": 0.0436046511627907,
		  "pitch": 36,
		  "start": 192.558139534884,
		  "velocity": 80
		},
		{
		  "duration": 0.0436046511627907,
		  "pitch": 46,
		  "start": 192.558139534884,
		  "velocity": 80
		},
		{
		  "duration": 0.0436046511627907,
		  "pitch": 46,
		  "start": 192.906976744186,
		  "velocity": 80
		},
		{
		  "duration": 0.0436046511627907,
		  "pitch": 46,
		  "start": 193.255813953488,
		  "velocity": 80
		},
		{
		  "duration": 0.0436046511627907,
		  "pitch": 46,
		  "start": 193.604651162791,
		  "velocity": 80
		},
		{
		  "duration": 0.0436046511627907,
		  "pitch": 46,
		  "start": 193.953488372093,
		  "velocity": 80
		},
		{
		  "duration": 0.0436046511627907,
		  "pitch": 46,
		  "start": 194.302325581395,
		  "velocity": 80
		},
		{
		  "duration": 0.0436046511627907,
		  "pitch": 46,
		  "start": 194.651162790698,
		  "velocity": 80
		},
		{
		  "duration": 0.0436046511627907,
		  "pitch": 48,
		  "start": 194.651162790698,
		  "velocity": 80
		},
		{
		  "duration": 0.0436046511627907,
		  "pitch": 46,
		  "start": 195.0,
		  "velocity": 80
		},
		{
		  "duration": 0.0436046511627907,
		  "pitch": 45,
		  "start": 195.0,
		  "velocity": 80
		},
		{
		  "duration": 0.0436046511627907,
		  "pitch": 41,
		  "start": 195.244186046512,
		  "velocity": 80
		},
		{
		  "duration": 0.0436046511627907,
		  "pitch": 38,
		  "start": 195.348837209302,
		  "velocity": 80
		},
		{
		  "duration": 0.0436046511627907,
		  "pitch": 49,
		  "start": 195.348837209302,
		  "velocity": 80
		},
		{
		  "duration": 0.0436046511627907,
		  "pitch": 36,
		  "start": 195.348837209302,
		  "velocity": 80
		},
		{
		  "duration": 0.0436046511627907,
		  "pitch": 46,
		  "start": 195.348837209302,
		  "velocity": 80
		},
		{
		  "duration": 0.0436046511627907,
		  "pitch": 46,
		  "start": 195.697674418605,
		  "velocity": 80
		},
		{
		  "duration": 0.0436046511627907,
		  "pitch": 46,
		  "start": 196.046511627907,
		  "velocity": 80
		},
		{
		  "duration": 0.0436046511627907,
		  "pitch": 46,
		  "start": 196.395348837209,
		  "velocity": 80
		},
		{
		  "duration": 0.0436046511627907,
		  "pitch": 46,
		  "start": 196.744186046512,
		  "velocity": 80
		},
		{
		  "duration": 0.0436046511627907,
		  "pitch": 46,
		  "start": 197.093023255814,
		  "velocity": 80
		},
		{
		  "duration": 0.0436046511627907,
		  "pitch": 45,
		  "start": 197.093023255814,
		  "velocity": 80
		},
		{
		  "duration": 0.0436046511627907,
		  "pitch": 46,
		  "start": 197.441860465116,
		  "velocity": 80
		},
		{
		  "duration": 0.0436046511627907,
		  "pitch": 48,
		  "start": 197.441860465116,
		  "velocity": 80
		},
		{
		  "duration": 0.0436046511627907,
		  "pitch": 48,
		  "start": 197.558139534884,
		  "velocity": 80
		},
		{
		  "duration": 0.0436046511627907,
		  "pitch": 45,
		  "start": 197.674418604651,
		  "velocity": 80
		},
		{
		  "duration": 0.0436046511627907,
		  "pitch": 46,
		  "start": 197.790697674419,
		  "velocity": 80
		},
		{
		  "duration": 0.0436046511627907,
		  "pitch": 45,
		  "start": 197.790697674419,
		  "velocity": 80
		},
		{
		  "duration": 0.0436046511627907,
		  "pitch": 38,
		  "start": 198.139534883721,
		  "velocity": 80
		},
		{
		  "duration": 0.0436046511627907,
		  "pitch": 49,
		  "start": 198.139534883721,
		  "velocity": 80
		},
		{
		  "duration": 0.0436046511627907,
		  "pitch": 36,
		  "start": 198.139534883721,
		  "velocity": 80
		},
		{
		  "duration": 0.0436046511627907,
		  "pitch": 46,
		  "start": 198.139534883721,
		  "velocity": 80
		},
		{
		  "duration": 0.0436046511627907,
		  "pitch": 46,
		  "start": 198.488372093023,
		  "velocity": 80
		},
		{
		  "duration": 0.0436046511627907,
		  "pitch": 46,
		  "start": 198.837209302326,
		  "velocity": 80
		},
		{
		  "duration": 0.0436046511627907,
		  "pitch": 46,
		  "start": 199.186046511628,
		  "velocity": 80
		},
		{
		  "duration": 0.0436046511627907,
		  "pitch": 46,
		  "start": 199.53488372093,
		  "velocity": 80
		},
		{
		  "duration": 0.0436046511627907,
		  "pitch": 46,
		  "start": 199.883720930233,
		  "velocity": 80
		},
		{
		  "duration": 0.0436046511627907,
		  "pitch": 46,
		  "start": 200.232558139535,
		  "velocity": 80
		},
		{
		  "duration": 0.0436046511627907,
		  "pitch": 45,
		  "start": 200.232558139535,
		  "velocity": 80
		},
		{
		  "duration": 0.0436046511627907,
		  "pitch": 45,
		  "start": 200.348837209302,
		  "velocity": 80
		},
		{
		  "duration": 0.0436046511627907,
		  "pitch": 41,
		  "start": 200.46511627907,
		  "velocity": 80
		},
		{
		  "duration": 0.0436046511627907,
		  "pitch": 46,
		  "start": 200.581395348837,
		  "velocity": 80
		},
		{
		  "duration": 0.0436046511627907,
		  "pitch": 36,
		  "start": 200.581395348837,
		  "velocity": 80
		},
		{
		  "duration": 0.0436046511627907,
		  "pitch": 38,
		  "start": 200.697674418605,
		  "velocity": 80
		},
		{
		  "duration": 0.0436046511627907,
		  "pitch": 53,
		  "start": 200.93023255814,
		  "velocity": 80
		},
		{
		  "duration": 0.0436046511627907,
		  "pitch": 36,
		  "start": 200.93023255814,
		  "velocity": 80
		},
		{
		  "duration": 0.0436046511627907,
		  "pitch": 53,
		  "start": 201.162790697674,
		  "velocity": 80
		},
		{
		  "duration": 0.0436046511627907,
		  "pitch": 36,
		  "start": 201.162790697674,
		  "velocity": 80
		},
		{
		  "duration": 0.0436046511627907,
		  "pitch": 38,
		  "start": 201.279069767442,
		  "velocity": 80
		},
		{
		  "duration": 0.0436046511627907,
		  "pitch": 53,
		  "start": 201.395348837209,
		  "velocity": 80
		},
		{
		  "duration": 0.0436046511627907,
		  "pitch": 53,
		  "start": 201.627906976744,
		  "velocity": 80
		},
		{
		  "duration": 0.0436046511627907,
		  "pitch": 36,
		  "start": 201.627906976744,
		  "velocity": 80
		},
		{
		  "duration": 0.0436046511627907,
		  "pitch": 38,
		  "start": 201.744186046512,
		  "velocity": 80
		},
		{
		  "duration": 0.0436046511627907,
		  "pitch": 53,
		  "start": 201.860465116279,
		  "velocity": 80
		},
		{
		  "duration": 0.0436046511627907,
		  "pitch": 36,
		  "start": 201.976744186047,
		  "velocity": 80
		},
		{
		  "duration": 0.0436046511627907,
		  "pitch": 53,
		  "start": 202.093023255814,
		  "velocity": 80
		},
		{
		  "duration": 0.0436046511627907,
		  "pitch": 36,
		  "start": 202.209302325581,
		  "velocity": 80
		},
		{
		  "duration": 0.0436046511627907,
		  "pitch": 36,
		  "start": 202.325581395349,
		  "velocity": 80
		},
		{
		  "duration": 0.0436046511627907,
		  "pitch": 53,
		  "start": 202.325581395349,
		  "velocity": 80
		},
		{
		  "duration": 0.0436046511627907,
		  "pitch": 53,
		  "start": 202.558139534884,
		  "velocity": 80
		},
		{
		  "duration": 0.0436046511627907,
		  "pitch": 36,
		  "start": 202.558139534884,
		  "velocity": 80
		},
		{
		  "duration": 0.0436046511627907,
		  "pitch": 38,
		  "start": 202.674418604651,
		  "velocity": 80
		},
		{
		  "duration": 0.0436046511627907,
		  "pitch": 53,
		  "start": 202.790697674419,
		  "velocity": 80
		},
		{
		  "duration": 0.0436046511627907,
		  "pitch": 53,
		  "start": 203.023255813953,
		  "velocity": 80
		},
		{
		  "duration": 0.0436046511627907,
		  "pitch": 36,
		  "start": 203.023255813953,
		  "velocity": 80
		},
		{
		  "duration": 0.0436046511627907,
		  "pitch": 53,
		  "start": 203.255813953488,
		  "velocity": 80
		},
		{
		  "duration": 0.0436046511627907,
		  "pitch": 38,
		  "start": 203.488372093023,
		  "velocity": 80
		},
		{
		  "duration": 0.0436046511627907,
		  "pitch": 49,
		  "start": 203.488372093023,
		  "velocity": 80
		},
		{
		  "duration": 0.0436046511627907,
		  "pitch": 53,
		  "start": 203.720930232558,
		  "velocity": 80
		},
		{
		  "duration": 0.0436046511627907,
		  "pitch": 36,
		  "start": 203.720930232558,
		  "velocity": 80
		},
		{
		  "duration": 0.0436046511627907,
		  "pitch": 53,
		  "start": 203.953488372093,
		  "velocity": 80
		},
		{
		  "duration": 0.0436046511627907,
		  "pitch": 36,
		  "start": 203.953488372093,
		  "velocity": 80
		},
		{
		  "duration": 0.0436046511627907,
		  "pitch": 38,
		  "start": 204.06976744186,
		  "velocity": 80
		},
		{
		  "duration": 0.0436046511627907,
		  "pitch": 53,
		  "start": 204.186046511628,
		  "velocity": 80
		},
		{
		  "duration": 0.0436046511627907,
		  "pitch": 53,
		  "start": 204.418604651163,
		  "velocity": 80
		},
		{
		  "duration": 0.0436046511627907,
		  "pitch": 36,
		  "start": 204.418604651163,
		  "velocity": 80
		},
		{
		  "duration": 0.0436046511627907,
		  "pitch": 38,
		  "start": 204.53488372093,
		  "velocity": 80
		},
		{
		  "duration": 0.0436046511627907,
		  "pitch": 53,
		  "start": 204.651162790698,
		  "velocity": 80
		},
		{
		  "duration": 0.0436046511627907,
		  "pitch": 36,
		  "start": 204.767441860465,
		  "velocity": 80
		},
		{
		  "duration": 0.0436046511627907,
		  "pitch": 53,
		  "start": 204.883720930233,
		  "velocity": 80
		},
		{
		  "duration": 0.0436046511627907,
		  "pitch": 36,
		  "start": 205.0,
		  "velocity": 80
		},
		{
		  "duration": 0.0436046511627907,
		  "pitch": 36,
		  "start": 205.116279069767,
		  "velocity": 80
		},
		{
		  "duration": 0.0436046511627907,
		  "pitch": 53,
		  "start": 205.116279069767,
		  "velocity": 80
		},
		{
		  "duration": 0.0436046511627907,
		  "pitch": 53,
		  "start": 205.348837209302,
		  "velocity": 80
		},
		{
		  "duration": 0.0436046511627907,
		  "pitch": 36,
		  "start": 205.348837209302,
		  "velocity": 80
		},
		{
		  "duration": 0.0436046511627907,
		  "pitch": 38,
		  "start": 205.46511627907,
		  "velocity": 80
		},
		{
		  "duration": 0.0436046511627907,
		  "pitch": 53,
		  "start": 205.581395348837,
		  "velocity": 80
		},
		{
		  "duration": 0.0436046511627907,
		  "pitch": 53,
		  "start": 205.813953488372,
		  "velocity": 80
		},
		{
		  "duration": 0.0436046511627907,
		  "pitch": 36,
		  "start": 205.93023255814,
		  "velocity": 80
		},
		{
		  "duration": 0.0436046511627907,
		  "pitch": 53,
		  "start": 206.046511627907,
		  "velocity": 80
		},
		{
		  "duration": 0.0436046511627907,
		  "pitch": 38,
		  "start": 206.162790697674,
		  "velocity": 80
		},
		{
		  "duration": 0.0436046511627907,
		  "pitch": 49,
		  "start": 206.162790697674,
		  "velocity": 80
		},
		{
		  "duration": 0.0436046511627907,
		  "pitch": 53,
		  "start": 206.511627906977,
		  "velocity": 80
		},
		{
		  "duration": 0.0436046511627907,
		  "pitch": 36,
		  "start": 206.511627906977,
		  "velocity": 80
		},
		{
		  "duration": 0.0436046511627907,
		  "pitch": 53,
		  "start": 206.744186046512,
		  "velocity": 80
		},
		{
		  "duration": 0.0436046511627907,
		  "pitch": 36,
		  "start": 206.744186046512,
		  "velocity": 80
		},
		{
		  "duration": 0.0436046511627907,
		  "pitch": 38,
		  "start": 206.860465116279,
		  "velocity": 80
		},
		{
		  "duration": 0.0436046511627907,
		  "pitch": 53,
		  "start": 206.976744186047,
		  "velocity": 80
		},
		{
		  "duration": 0.0436046511627907,
		  "pitch": 53,
		  "start": 207.209302325581,
		  "velocity": 80
		},
		{
		  "duration": 0.0436046511627907,
		  "pitch": 36,
		  "start": 207.209302325581,
		  "velocity": 80
		},
		{
		  "duration": 0.0436046511627907,
		  "pitch": 38,
		  "start": 207.325581395349,
		  "velocity": 80
		},
		{
		  "duration": 0.0436046511627907,
		  "pitch": 53,
		  "start": 207.441860465116,
		  "velocity": 80
		},
		{
		  "duration": 0.0436046511627907,
		  "pitch": 36,
		  "start": 207.558139534884,
		  "velocity": 80
		},
		{
		  "duration": 0.0436046511627907,
		  "pitch": 53,
		  "start": 207.674418604651,
		  "velocity": 80
		},
		{
		  "duration": 0.0436046511627907,
		  "pitch": 36,
		  "start": 207.790697674419,
		  "velocity": 80
		},
		{
		  "duration": 0.0436046511627907,
		  "pitch": 36,
		  "start": 207.906976744186,
		  "velocity": 80
		},
		{
		  "duration": 0.0436046511627907,
		  "pitch": 53,
		  "start": 207.906976744186,
		  "velocity": 80
		},
		{
		  "duration": 0.0436046511627907,
		  "pitch": 53,
		  "start": 208.139534883721,
		  "velocity": 80
		},
		{
		  "duration": 0.0436046511627907,
		  "pitch": 36,
		  "start": 208.139534883721,
		  "velocity": 80
		},
		{
		  "duration": 0.0436046511627907,
		  "pitch": 38,
		  "start": 208.255813953488,
		  "velocity": 80
		},
		{
		  "duration": 0.0436046511627907,
		  "pitch": 53,
		  "start": 208.372093023256,
		  "velocity": 80
		},
		{
		  "duration": 0.0436046511627907,
		  "pitch": 53,
		  "start": 208.604651162791,
		  "velocity": 80
		},
		{
		  "duration": 0.0436046511627907,
		  "pitch": 36,
		  "start": 208.604651162791,
		  "velocity": 80
		},
		{
		  "duration": 0.0436046511627907,
		  "pitch": 53,
		  "start": 208.837209302326,
		  "velocity": 80
		},
		{
		  "duration": 0.0436046511627907,
		  "pitch": 38,
		  "start": 209.06976744186,
		  "velocity": 80
		},
		{
		  "duration": 0.0436046511627907,
		  "pitch": 49,
		  "start": 209.06976744186,
		  "velocity": 80
		},
		{
		  "duration": 0.0436046511627907,
		  "pitch": 53,
		  "start": 209.302325581395,
		  "velocity": 80
		},
		{
		  "duration": 0.0436046511627907,
		  "pitch": 36,
		  "start": 209.302325581395,
		  "velocity": 80
		},
		{
		  "duration": 0.0436046511627907,
		  "pitch": 53,
		  "start": 209.53488372093,
		  "velocity": 80
		},
		{
		  "duration": 0.0436046511627907,
		  "pitch": 36,
		  "start": 209.53488372093,
		  "velocity": 80
		},
		{
		  "duration": 0.0436046511627907,
		  "pitch": 38,
		  "start": 209.651162790698,
		  "velocity": 80
		},
		{
		  "duration": 0.0436046511627907,
		  "pitch": 53,
		  "start": 209.767441860465,
		  "velocity": 80
		},
		{
		  "duration": 0.0436046511627907,
		  "pitch": 53,
		  "start": 210.0,
		  "velocity": 80
		},
		{
		  "duration": 0.0436046511627907,
		  "pitch": 36,
		  "start": 210.0,
		  "velocity": 80
		},
		{
		  "duration": 0.0436046511627907,
		  "pitch": 38,
		  "start": 210.116279069767,
		  "velocity": 80
		},
		{
		  "duration": 0.0436046511627907,
		  "pitch": 53,
		  "start": 210.232558139535,
		  "velocity": 80
		},
		{
		  "duration": 0.0436046511627907,
		  "pitch": 36,
		  "start": 210.348837209302,
		  "velocity": 80
		},
		{
		  "duration": 0.0436046511627907,
		  "pitch": 53,
		  "start": 210.46511627907,
		  "velocity": 80
		},
		{
		  "duration": 0.0436046511627907,
		  "pitch": 36,
		  "start": 210.581395348837,
		  "velocity": 80
		},
		{
		  "duration": 0.0436046511627907,
		  "pitch": 36,
		  "start": 210.697674418605,
		  "velocity": 80
		},
		{
		  "duration": 0.0436046511627907,
		  "pitch": 53,
		  "start": 210.697674418605,
		  "velocity": 80
		},
		{
		  "duration": 0.0436046511627907,
		  "pitch": 53,
		  "start": 210.93023255814,
		  "velocity": 80
		},
		{
		  "duration": 0.0436046511627907,
		  "pitch": 36,
		  "start": 210.93023255814,
		  "velocity": 80
		},
		{
		  "duration": 0.0436046511627907,
		  "pitch": 38,
		  "start": 211.046511627907,
		  "velocity": 80
		},
		{
		  "duration": 0.0436046511627907,
		  "pitch": 53,
		  "start": 211.162790697674,
		  "velocity": 80
		},
		{
		  "duration": 0.0436046511627907,
		  "pitch": 53,
		  "start": 211.395348837209,
		  "velocity": 80
		},
		{
		  "duration": 0.0436046511627907,
		  "pitch": 36,
		  "start": 211.511627906977,
		  "velocity": 80
		},
		{
		  "duration": 0.0436046511627907,
		  "pitch": 53,
		  "start": 211.627906976744,
		  "velocity": 80
		},
		{
		  "duration": 0.0436046511627907,
		  "pitch": 38,
		  "start": 211.744186046512,
		  "velocity": 80
		},
		{
		  "duration": 0.0436046511627907,
		  "pitch": 49,
		  "start": 211.744186046512,
		  "velocity": 80
		},
		{
		  "duration": 0.0436046511627907,
		  "pitch": 36,
		  "start": 212.093023255814,
		  "velocity": 80
		},
		{
		  "duration": 0.0436046511627907,
		  "pitch": 53,
		  "start": 212.093023255814,
		  "velocity": 80
		},
		{
		  "duration": 0.0436046511627907,
		  "pitch": 53,
		  "start": 212.325581395349,
		  "velocity": 80
		},
		{
		  "duration": 0.0436046511627907,
		  "pitch": 49,
		  "start": 212.441860465116,
		  "velocity": 80
		},
		{
		  "duration": 0.0436046511627907,
		  "pitch": 38,
		  "start": 212.441860465116,
		  "velocity": 80
		},
		{
		  "duration": 0.0436046511627907,
		  "pitch": 36,
		  "start": 212.790697674419,
		  "velocity": 80
		},
		{
		  "duration": 0.0436046511627907,
		  "pitch": 38,
		  "start": 212.906976744186,
		  "velocity": 80
		},
		{
		  "duration": 0.0436046511627907,
		  "pitch": 38,
		  "start": 213.023255813953,
		  "velocity": 80
		},
		{
		  "duration": 0.0436046511627907,
		  "pitch": 38,
		  "start": 213.139534883721,
		  "velocity": 80
		},
		{
		  "duration": 0.0436046511627907,
		  "pitch": 48,
		  "start": 213.139534883721,
		  "velocity": 80
		},
		{
		  "duration": 0.0436046511627907,
		  "pitch": 45,
		  "start": 213.255813953488,
		  "velocity": 80
		},
		{
		  "duration": 0.0436046511627907,
		  "pitch": 41,
		  "start": 213.372093023256,
		  "velocity": 80
		},
		{
		  "duration": 0.0436046511627907,
		  "pitch": 48,
		  "start": 213.488372093023,
		  "velocity": 80
		},
		{
		  "duration": 0.0436046511627907,
		  "pitch": 36,
		  "start": 213.488372093023,
		  "velocity": 80
		},
		{
		  "duration": 0.0436046511627907,
		  "pitch": 45,
		  "start": 213.720930232558,
		  "velocity": 80
		},
		{
		  "duration": 0.0436046511627907,
		  "pitch": 48,
		  "start": 213.837209302326,
		  "velocity": 80
		},
		{
		  "duration": 0.0436046511627907,
		  "pitch": 45,
		  "start": 213.953488372093,
		  "velocity": 80
		},
		{
		  "duration": 0.0436046511627907,
		  "pitch": 41,
		  "start": 214.06976744186,
		  "velocity": 80
		},
		{
		  "duration": 0.0436046511627907,
		  "pitch": 45,
		  "start": 214.186046511628,
		  "velocity": 80
		},
		{
		  "duration": 0.0436046511627907,
		  "pitch": 36,
		  "start": 214.186046511628,
		  "velocity": 80
		},
		{
		  "duration": 0.0436046511627907,
		  "pitch": 45,
		  "start": 214.302325581395,
		  "velocity": 80
		},
		{
		  "duration": 0.0436046511627907,
		  "pitch": 41,
		  "start": 214.418604651163,
		  "velocity": 80
		},
		{
		  "duration": 0.0436046511627907,
		  "pitch": 49,
		  "start": 214.53488372093,
		  "velocity": 80
		},
		{
		  "duration": 0.0436046511627907,
		  "pitch": 38,
		  "start": 214.53488372093,
		  "velocity": 80
		},
		{
		  "duration": 0.0436046511627907,
		  "pitch": 36,
		  "start": 214.53488372093,
		  "velocity": 80
		},
		{
		  "duration": 0.0436046511627907,
		  "pitch": 45,
		  "start": 214.883720930233,
		  "velocity": 80
		},
		{
		  "duration": 0.0436046511627907,
		  "pitch": 36,
		  "start": 214.883720930233,
		  "velocity": 80
		},
		{
		  "duration": 0.0436046511627907,
		  "pitch": 45,
		  "start": 215.116279069767,
		  "velocity": 80
		},
		{
		  "duration": 0.0436046511627907,
		  "pitch": 36,
		  "start": 215.116279069767,
		  "velocity": 80
		},
		{
		  "duration": 0.0436046511627907,
		  "pitch": 45,
		  "start": 215.232558139535,
		  "velocity": 80
		},
		{
		  "duration": 0.0436046511627907,
		  "pitch": 36,
		  "start": 215.232558139535,
		  "velocity": 80
		},
		{
		  "duration": 0.0436046511627907,
		  "pitch": 41,
		  "start": 215.348837209302,
		  "velocity": 80
		},
		{
		  "duration": 0.0436046511627907,
		  "pitch": 36,
		  "start": 215.348837209302,
		  "velocity": 80
		},
		{
		  "duration": 0.0436046511627907,
		  "pitch": 41,
		  "start": 215.581395348837,
		  "velocity": 80
		},
		{
		  "duration": 0.0436046511627907,
		  "pitch": 36,
		  "start": 215.581395348837,
		  "velocity": 80
		},
		{
		  "duration": 0.0436046511627907,
		  "pitch": 48,
		  "start": 215.697674418605,
		  "velocity": 80
		},
		{
		  "duration": 0.0436046511627907,
		  "pitch": 36,
		  "start": 215.813953488372,
		  "velocity": 80
		},
		{
		  "duration": 0.0436046511627907,
		  "pitch": 45,
		  "start": 215.813953488372,
		  "velocity": 80
		},
		{
		  "duration": 0.0436046511627907,
		  "pitch": 48,
		  "start": 215.93023255814,
		  "velocity": 80
		},
		{
		  "duration": 0.0436046511627907,
		  "pitch": 36,
		  "start": 215.93023255814,
		  "velocity": 80
		},
		{
		  "duration": 0.0436046511627907,
		  "pitch": 45,
		  "start": 216.046511627907,
		  "velocity": 80
		},
		{
		  "duration": 0.0436046511627907,
		  "pitch": 36,
		  "start": 216.046511627907,
		  "velocity": 80
		},
		{
		  "duration": 0.0436046511627907,
		  "pitch": 41,
		  "start": 216.162790697674,
		  "velocity": 80
		},
		{
		  "duration": 0.0436046511627907,
		  "pitch": 36,
		  "start": 216.162790697674,
		  "velocity": 80
		},
		{
		  "duration": 0.0436046511627907,
		  "pitch": 45,
		  "start": 216.279069767442,
		  "velocity": 80
		},
		{
		  "duration": 0.0436046511627907,
		  "pitch": 36,
		  "start": 216.279069767442,
		  "velocity": 80
		},
		{
		  "duration": 0.0436046511627907,
		  "pitch": 45,
		  "start": 216.511627906977,
		  "velocity": 80
		},
		{
		  "duration": 0.0436046511627907,
		  "pitch": 36,
		  "start": 216.511627906977,
		  "velocity": 80
		},
		{
		  "duration": 0.0436046511627907,
		  "pitch": 45,
		  "start": 216.627906976744,
		  "velocity": 80
		},
		{
		  "duration": 0.0436046511627907,
		  "pitch": 36,
		  "start": 216.627906976744,
		  "velocity": 80
		},
		{
		  "duration": 0.0436046511627907,
		  "pitch": 41,
		  "start": 216.744186046512,
		  "velocity": 80
		},
		{
		  "duration": 0.0436046511627907,
		  "pitch": 36,
		  "start": 216.744186046512,
		  "velocity": 80
		},
		{
		  "duration": 0.0436046511627907,
		  "pitch": 36,
		  "start": 216.860465116279,
		  "velocity": 80
		},
		{
		  "duration": 0.0436046511627907,
		  "pitch": 41,
		  "start": 216.860465116279,
		  "velocity": 80
		},
		{
		  "duration": 0.0436046511627907,
		  "pitch": 41,
		  "start": 216.976744186047,
		  "velocity": 80
		},
		{
		  "duration": 0.0436046511627907,
		  "pitch": 36,
		  "start": 216.976744186047,
		  "velocity": 80
		},
		{
		  "duration": 0.0436046511627907,
		  "pitch": 48,
		  "start": 217.093023255814,
		  "velocity": 80
		},
		{
		  "duration": 0.0436046511627907,
		  "pitch": 36,
		  "start": 217.209302325581,
		  "velocity": 80
		},
		{
		  "duration": 0.0436046511627907,
		  "pitch": 45,
		  "start": 217.209302325581,
		  "velocity": 80
		},
		{
		  "duration": 0.0436046511627907,
		  "pitch": 36,
		  "start": 217.325581395349,
		  "velocity": 80
		},
		{
		  "duration": 0.0436046511627907,
		  "pitch": 41,
		  "start": 217.325581395349,
		  "velocity": 80
		},
		{
		  "duration": 0.0436046511627907,
		  "pitch": 36,
		  "start": 217.441860465116,
		  "velocity": 80
		},
		{
		  "duration": 0.0436046511627907,
		  "pitch": 41,
		  "start": 217.441860465116,
		  "velocity": 80
		},
		{
		  "duration": 0.0436046511627907,
		  "pitch": 38,
		  "start": 217.558139534884,
		  "velocity": 80
		},
		{
		  "duration": 0.0436046511627907,
		  "pitch": 36,
		  "start": 217.558139534884,
		  "velocity": 80
		},
		{
		  "duration": 0.0436046511627907,
		  "pitch": 53,
		  "start": 217.674418604651,
		  "velocity": 80
		},
		{
		  "duration": 0.0436046511627907,
		  "pitch": 36,
		  "start": 217.674418604651,
		  "velocity": 80
		},
		{
		  "duration": 0.0436046511627907,
		  "pitch": 53,
		  "start": 217.906976744186,
		  "velocity": 80
		},
		{
		  "duration": 0.0436046511627907,
		  "pitch": 38,
		  "start": 218.023255813953,
		  "velocity": 80
		},
		{
		  "duration": 0.0436046511627907,
		  "pitch": 53,
		  "start": 218.139534883721,
		  "velocity": 80
		},
		{
		  "duration": 0.0436046511627907,
		  "pitch": 53,
		  "start": 218.372093023256,
		  "velocity": 80
		},
		{
		  "duration": 0.0436046511627907,
		  "pitch": 36,
		  "start": 218.372093023256,
		  "velocity": 80
		},
		{
		  "duration": 0.0436046511627907,
		  "pitch": 53,
		  "start": 218.604651162791,
		  "velocity": 80
		},
		{
		  "duration": 0.0436046511627907,
		  "pitch": 38,
		  "start": 218.720930232558,
		  "velocity": 80
		},
		{
		  "duration": 0.0436046511627907,
		  "pitch": 53,
		  "start": 218.837209302326,
		  "velocity": 80
		},
		{
		  "duration": 0.0436046511627907,
		  "pitch": 53,
		  "start": 219.06976744186,
		  "velocity": 80
		},
		{
		  "duration": 0.0436046511627907,
		  "pitch": 36,
		  "start": 219.06976744186,
		  "velocity": 80
		},
		{
		  "duration": 0.0436046511627907,
		  "pitch": 53,
		  "start": 219.302325581395,
		  "velocity": 80
		},
		{
		  "duration": 0.0436046511627907,
		  "pitch": 38,
		  "start": 219.418604651163,
		  "velocity": 80
		},
		{
		  "duration": 0.0436046511627907,
		  "pitch": 53,
		  "start": 219.53488372093,
		  "velocity": 80
		},
		{
		  "duration": 0.0436046511627907,
		  "pitch": 53,
		  "start": 219.767441860465,
		  "velocity": 80
		},
		{
		  "duration": 0.0436046511627907,
		  "pitch": 36,
		  "start": 219.767441860465,
		  "velocity": 80
		},
		{
		  "duration": 0.0436046511627907,
		  "pitch": 53,
		  "start": 220.0,
		  "velocity": 80
		},
		{
		  "duration": 0.0436046511627907,
		  "pitch": 38,
		  "start": 220.232558139535,
		  "velocity": 80
		},
		{
		  "duration": 0.0436046511627907,
		  "pitch": 49,
		  "start": 220.232558139535,
		  "velocity": 80
		},
		{
		  "duration": 0.0436046511627907,
		  "pitch": 36,
		  "start": 220.232558139535,
		  "velocity": 80
		},
		{
		  "duration": 0.0436046511627907,
		  "pitch": 36,
		  "start": 220.46511627907,
		  "velocity": 80
		},
		{
		  "duration": 0.0436046511627907,
		  "pitch": 53,
		  "start": 220.46511627907,
		  "velocity": 80
		},
		{
		  "duration": 0.0436046511627907,
		  "pitch": 53,
		  "start": 220.697674418605,
		  "velocity": 80
		},
		{
		  "duration": 0.0436046511627907,
		  "pitch": 49,
		  "start": 220.813953488372,
		  "velocity": 80
		},
		{
		  "duration": 0.0436046511627907,
		  "pitch": 38,
		  "start": 220.813953488372,
		  "velocity": 80
		},
		{
		  "duration": 0.0436046511627907,
		  "pitch": 36,
		  "start": 221.162790697674,
		  "velocity": 80
		},
		{
		  "duration": 0.0436046511627907,
		  "pitch": 38,
		  "start": 221.279069767442,
		  "velocity": 80
		},
		{
		  "duration": 0.0436046511627907,
		  "pitch": 38,
		  "start": 221.395348837209,
		  "velocity": 80
		},
		{
		  "duration": 0.0436046511627907,
		  "pitch": 38,
		  "start": 221.511627906977,
		  "velocity": 80
		},
		{
		  "duration": 0.0436046511627907,
		  "pitch": 48,
		  "start": 221.511627906977,
		  "velocity": 80
		},
		{
		  "duration": 0.0436046511627907,
		  "pitch": 45,
		  "start": 221.627906976744,
		  "velocity": 80
		},
		{
		  "duration": 0.0436046511627907,
		  "pitch": 41,
		  "start": 221.744186046512,
		  "velocity": 80
		},
		{
		  "duration": 0.0436046511627907,
		  "pitch": 48,
		  "start": 221.860465116279,
		  "velocity": 80
		},
		{
		  "duration": 0.0436046511627907,
		  "pitch": 36,
		  "start": 221.860465116279,
		  "velocity": 80
		},
		{
		  "duration": 0.0436046511627907,
		  "pitch": 45,
		  "start": 222.093023255814,
		  "velocity": 80
		},
		{
		  "duration": 0.0436046511627907,
		  "pitch": 48,
		  "start": 222.209302325581,
		  "velocity": 80
		},
		{
		  "duration": 0.0436046511627907,
		  "pitch": 45,
		  "start": 222.325581395349,
		  "velocity": 80
		},
		{
		  "duration": 0.0436046511627907,
		  "pitch": 41,
		  "start": 222.441860465116,
		  "velocity": 80
		},
		{
		  "duration": 0.0436046511627907,
		  "pitch": 45,
		  "start": 222.558139534884,
		  "velocity": 80
		},
		{
		  "duration": 0.0436046511627907,
		  "pitch": 36,
		  "start": 222.558139534884,
		  "velocity": 80
		},
		{
		  "duration": 0.0436046511627907,
		  "pitch": 45,
		  "start": 222.674418604651,
		  "velocity": 80
		},
		{
		  "duration": 0.0436046511627907,
		  "pitch": 41,
		  "start": 222.790697674419,
		  "velocity": 80
		},
		{
		  "duration": 0.0436046511627907,
		  "pitch": 49,
		  "start": 222.906976744186,
		  "velocity": 80
		},
		{
		  "duration": 0.0436046511627907,
		  "pitch": 38,
		  "start": 222.906976744186,
		  "velocity": 80
		},
		{
		  "duration": 0.0436046511627907,
		  "pitch": 36,
		  "start": 222.906976744186,
		  "velocity": 80
		},
		{
		  "duration": 0.0436046511627907,
		  "pitch": 45,
		  "start": 223.255813953488,
		  "velocity": 80
		},
		{
		  "duration": 0.0436046511627907,
		  "pitch": 36,
		  "start": 223.255813953488,
		  "velocity": 80
		},
		{
		  "duration": 0.0436046511627907,
		  "pitch": 45,
		  "start": 223.488372093023,
		  "velocity": 80
		},
		{
		  "duration": 0.0436046511627907,
		  "pitch": 36,
		  "start": 223.488372093023,
		  "velocity": 80
		},
		{
		  "duration": 0.0436046511627907,
		  "pitch": 45,
		  "start": 223.604651162791,
		  "velocity": 80
		},
		{
		  "duration": 0.0436046511627907,
		  "pitch": 36,
		  "start": 223.604651162791,
		  "velocity": 80
		},
		{
		  "duration": 0.0436046511627907,
		  "pitch": 41,
		  "start": 223.720930232558,
		  "velocity": 80
		},
		{
		  "duration": 0.0436046511627907,
		  "pitch": 36,
		  "start": 223.720930232558,
		  "velocity": 80
		},
		{
		  "duration": 0.0436046511627907,
		  "pitch": 41,
		  "start": 223.953488372093,
		  "velocity": 80
		},
		{
		  "duration": 0.0436046511627907,
		  "pitch": 36,
		  "start": 223.953488372093,
		  "velocity": 80
		},
		{
		  "duration": 0.0436046511627907,
		  "pitch": 48,
		  "start": 224.06976744186,
		  "velocity": 80
		},
		{
		  "duration": 0.0436046511627907,
		  "pitch": 36,
		  "start": 224.186046511628,
		  "velocity": 80
		},
		{
		  "duration": 0.0436046511627907,
		  "pitch": 45,
		  "start": 224.186046511628,
		  "velocity": 80
		},
		{
		  "duration": 0.0436046511627907,
		  "pitch": 48,
		  "start": 224.302325581395,
		  "velocity": 80
		},
		{
		  "duration": 0.0436046511627907,
		  "pitch": 36,
		  "start": 224.302325581395,
		  "velocity": 80
		},
		{
		  "duration": 0.0436046511627907,
		  "pitch": 45,
		  "start": 224.418604651163,
		  "velocity": 80
		},
		{
		  "duration": 0.0436046511627907,
		  "pitch": 36,
		  "start": 224.418604651163,
		  "velocity": 80
		},
		{
		  "duration": 0.0436046511627907,
		  "pitch": 41,
		  "start": 224.53488372093,
		  "velocity": 80
		},
		{
		  "duration": 0.0436046511627907,
		  "pitch": 36,
		  "start": 224.53488372093,
		  "velocity": 80
		},
		{
		  "duration": 0.0436046511627907,
		  "pitch": 45,
		  "start": 224.651162790698,
		  "velocity": 80
		},
		{
		  "duration": 0.0436046511627907,
		  "pitch": 36,
		  "start": 224.651162790698,
		  "velocity": 80
		},
		{
		  "duration": 0.0436046511627907,
		  "pitch": 45,
		  "start": 224.883720930233,
		  "velocity": 80
		},
		{
		  "duration": 0.0436046511627907,
		  "pitch": 36,
		  "start": 224.883720930233,
		  "velocity": 80
		},
		{
		  "duration": 0.0436046511627907,
		  "pitch": 45,
		  "start": 225.0,
		  "velocity": 80
		},
		{
		  "duration": 0.0436046511627907,
		  "pitch": 36,
		  "start": 225.0,
		  "velocity": 80
		},
		{
		  "duration": 0.0436046511627907,
		  "pitch": 41,
		  "start": 225.116279069767,
		  "velocity": 80
		},
		{
		  "duration": 0.0436046511627907,
		  "pitch": 36,
		  "start": 225.116279069767,
		  "velocity": 80
		},
		{
		  "duration": 0.0436046511627907,
		  "pitch": 36,
		  "start": 225.232558139535,
		  "velocity": 80
		},
		{
		  "duration": 0.0436046511627907,
		  "pitch": 41,
		  "start": 225.232558139535,
		  "velocity": 80
		},
		{
		  "duration": 0.0436046511627907,
		  "pitch": 41,
		  "start": 225.348837209302,
		  "velocity": 80
		},
		{
		  "duration": 0.0436046511627907,
		  "pitch": 36,
		  "start": 225.348837209302,
		  "velocity": 80
		},
		{
		  "duration": 0.0436046511627907,
		  "pitch": 48,
		  "start": 225.46511627907,
		  "velocity": 80
		},
		{
		  "duration": 0.0436046511627907,
		  "pitch": 36,
		  "start": 225.581395348837,
		  "velocity": 80
		},
		{
		  "duration": 0.0436046511627907,
		  "pitch": 45,
		  "start": 225.581395348837,
		  "velocity": 80
		},
		{
		  "duration": 0.0436046511627907,
		  "pitch": 36,
		  "start": 225.697674418605,
		  "velocity": 80
		},
		{
		  "duration": 0.0436046511627907,
		  "pitch": 41,
		  "start": 225.697674418605,
		  "velocity": 80
		},
		{
		  "duration": 0.0436046511627907,
		  "pitch": 36,
		  "start": 225.813953488372,
		  "velocity": 80
		},
		{
		  "duration": 0.0436046511627907,
		  "pitch": 41,
		  "start": 225.813953488372,
		  "velocity": 80
		},
		{
		  "duration": 0.0436046511627907,
		  "pitch": 38,
		  "start": 225.93023255814,
		  "velocity": 80
		},
		{
		  "duration": 0.0436046511627907,
		  "pitch": 36,
		  "start": 225.93023255814,
		  "velocity": 80
		},
		{
		  "duration": 0.0436046511627907,
		  "pitch": 53,
		  "start": 226.046511627907,
		  "velocity": 80
		},
		{
		  "duration": 0.0436046511627907,
		  "pitch": 36,
		  "start": 226.046511627907,
		  "velocity": 80
		},
		{
		  "duration": 0.0436046511627907,
		  "pitch": 53,
		  "start": 226.279069767442,
		  "velocity": 80
		},
		{
		  "duration": 0.0436046511627907,
		  "pitch": 38,
		  "start": 226.395348837209,
		  "velocity": 80
		},
		{
		  "duration": 0.0436046511627907,
		  "pitch": 53,
		  "start": 226.511627906977,
		  "velocity": 80
		},
		{
		  "duration": 0.0436046511627907,
		  "pitch": 53,
		  "start": 226.744186046512,
		  "velocity": 80
		},
		{
		  "duration": 0.0436046511627907,
		  "pitch": 36,
		  "start": 226.744186046512,
		  "velocity": 80
		},
		{
		  "duration": 0.0436046511627907,
		  "pitch": 53,
		  "start": 226.976744186047,
		  "velocity": 80
		},
		{
		  "duration": 0.0436046511627907,
		  "pitch": 38,
		  "start": 227.093023255814,
		  "velocity": 80
		},
		{
		  "duration": 0.0436046511627907,
		  "pitch": 53,
		  "start": 227.209302325581,
		  "velocity": 80
		},
		{
		  "duration": 0.0436046511627907,
		  "pitch": 53,
		  "start": 227.441860465116,
		  "velocity": 80
		},
		{
		  "duration": 0.0436046511627907,
		  "pitch": 36,
		  "start": 227.441860465116,
		  "velocity": 80
		},
		{
		  "duration": 0.0436046511627907,
		  "pitch": 53,
		  "start": 227.674418604651,
		  "velocity": 80
		},
		{
		  "duration": 0.0436046511627907,
		  "pitch": 38,
		  "start": 227.790697674419,
		  "velocity": 80
		},
		{
		  "duration": 0.0436046511627907,
		  "pitch": 53,
		  "start": 227.906976744186,
		  "velocity": 80
		},
		{
		  "duration": 0.0436046511627907,
		  "pitch": 38,
		  "start": 228.139534883721,
		  "velocity": 60
		},
		{
		  "duration": 0.0436046511627907,
		  "pitch": 38,
		  "start": 228.255813953488,
		  "velocity": 68
		},
		{
		  "duration": 0.0436046511627907,
		  "pitch": 38,
		  "start": 228.372093023256,
		  "velocity": 76
		},
		{
		  "duration": 0.0436046511627907,
		  "pitch": 38,
		  "start": 228.488372093023,
		  "velocity": 80
		},
		{
		  "duration": 0.0436046511627907,
		  "pitch": 38,
		  "start": 228.604651162791,
		  "velocity": 80
		},
		{
		  "duration": 0.0436046511627907,
		  "pitch": 38,
		  "start": 228.720930232558,
		  "velocity": 80
		},
		{
		  "duration": 0.0436046511627907,
		  "pitch": 42,
		  "start": 228.837209302326,
		  "velocity": 60
		},
		{
		  "duration": 0.0436046511627907,
		  "pitch": 36,
		  "start": 228.837209302326,
		  "velocity": 80
		},
		{
		  "duration": 0.0436046511627907,
		  "pitch": 49,
		  "start": 228.837209302326,
		  "velocity": 80
		},
		{
		  "duration": 0.0436046511627907,
		  "pitch": 42,
		  "start": 228.953488372093,
		  "velocity": 60
		},
		{
		  "duration": 0.0436046511627907,
		  "pitch": 42,
		  "start": 229.06976744186,
		  "velocity": 60
		},
		{
		  "duration": 0.0436046511627907,
		  "pitch": 38,
		  "start": 229.186046511628,
		  "velocity": 80
		},
		{
		  "duration": 0.0436046511627907,
		  "pitch": 42,
		  "start": 229.186046511628,
		  "velocity": 60
		},
		{
		  "duration": 0.0436046511627907,
		  "pitch": 46,
		  "start": 229.302325581395,
		  "velocity": 80
		},
		{
		  "duration": 0.0436046511627907,
		  "pitch": 42,
		  "start": 229.418604651163,
		  "velocity": 60
		},
		{
		  "duration": 0.0436046511627907,
		  "pitch": 42,
		  "start": 229.53488372093,
		  "velocity": 60
		},
		{
		  "duration": 0.0436046511627907,
		  "pitch": 42,
		  "start": 229.651162790698,
		  "velocity": 60
		},
		{
		  "duration": 0.0436046511627907,
		  "pitch": 42,
		  "start": 229.761627906977,
		  "velocity": 60
		},
		{
		  "duration": 0.0436046511627907,
		  "pitch": 36,
		  "start": 229.767441860465,
		  "velocity": 80
		},
		{
		  "duration": 0.0436046511627907,
		  "pitch": 38,
		  "start": 229.883720930233,
		  "velocity": 80
		},
		{
		  "duration": 0.0436046511627907,
		  "pitch": 42,
		  "start": 229.883720930233,
		  "velocity": 60
		},
		{
		  "duration": 0.0436046511627907,
		  "pitch": 42,
		  "start": 230.0,
		  "velocity": 60
		},
		{
		  "duration": 0.0436046511627907,
		  "pitch": 42,
		  "start": 230.116279069767,
		  "velocity": 60
		},
		{
		  "duration": 0.0436046511627907,
		  "pitch": 42,
		  "start": 230.232558139535,
		  "velocity": 60
		},
		{
		  "duration": 0.0436046511627907,
		  "pitch": 36,
		  "start": 230.232558139535,
		  "velocity": 80
		},
		{
		  "duration": 0.0436046511627907,
		  "pitch": 42,
		  "start": 230.348837209302,
		  "velocity": 60
		},
		{
		  "duration": 0.0436046511627907,
		  "pitch": 42,
		  "start": 230.46511627907,
		  "velocity": 60
		},
		{
		  "duration": 0.0436046511627907,
		  "pitch": 38,
		  "start": 230.581395348837,
		  "velocity": 80
		},
		{
		  "duration": 0.0436046511627907,
		  "pitch": 42,
		  "start": 230.581395348837,
		  "velocity": 60
		},
		{
		  "duration": 0.0436046511627907,
		  "pitch": 46,
		  "start": 230.697674418605,
		  "velocity": 80
		},
		{
		  "duration": 0.0436046511627907,
		  "pitch": 42,
		  "start": 230.813953488372,
		  "velocity": 60
		},
		{
		  "duration": 0.0436046511627907,
		  "pitch": 42,
		  "start": 230.93023255814,
		  "velocity": 60
		},
		{
		  "duration": 0.0436046511627907,
		  "pitch": 42,
		  "start": 231.046511627907,
		  "velocity": 60
		},
		{
		  "duration": 0.0436046511627907,
		  "pitch": 42,
		  "start": 231.156976744186,
		  "velocity": 60
		},
		{
		  "duration": 0.0436046511627907,
		  "pitch": 36,
		  "start": 231.162790697674,
		  "velocity": 80
		},
		{
		  "duration": 0.0436046511627907,
		  "pitch": 38,
		  "start": 231.279069767442,
		  "velocity": 80
		},
		{
		  "duration": 0.0436046511627907,
		  "pitch": 42,
		  "start": 231.279069767442,
		  "velocity": 60
		},
		{
		  "duration": 0.0436046511627907,
		  "pitch": 42,
		  "start": 231.395348837209,
		  "velocity": 60
		},
		{
		  "duration": 0.0436046511627907,
		  "pitch": 42,
		  "start": 231.511627906977,
		  "velocity": 60
		},
		{
		  "duration": 0.0436046511627907,
		  "pitch": 42,
		  "start": 231.627906976744,
		  "velocity": 60
		},
		{
		  "duration": 0.0436046511627907,
		  "pitch": 36,
		  "start": 231.627906976744,
		  "velocity": 80
		},
		{
		  "duration": 0.0436046511627907,
		  "pitch": 42,
		  "start": 231.744186046512,
		  "velocity": 60
		},
		{
		  "duration": 0.0436046511627907,
		  "pitch": 42,
		  "start": 231.860465116279,
		  "velocity": 60
		},
		{
		  "duration": 0.0436046511627907,
		  "pitch": 38,
		  "start": 231.976744186047,
		  "velocity": 80
		},
		{
		  "duration": 0.0436046511627907,
		  "pitch": 42,
		  "start": 231.976744186047,
		  "velocity": 60
		},
		{
		  "duration": 0.0436046511627907,
		  "pitch": 46,
		  "start": 232.093023255814,
		  "velocity": 80
		},
		{
		  "duration": 0.0436046511627907,
		  "pitch": 42,
		  "start": 232.209302325581,
		  "velocity": 60
		},
		{
		  "duration": 0.0436046511627907,
		  "pitch": 42,
		  "start": 232.325581395349,
		  "velocity": 60
		},
		{
		  "duration": 0.0436046511627907,
		  "pitch": 42,
		  "start": 232.441860465116,
		  "velocity": 60
		},
		{
		  "duration": 0.0436046511627907,
		  "pitch": 42,
		  "start": 232.552325581395,
		  "velocity": 60
		},
		{
		  "duration": 0.0436046511627907,
		  "pitch": 36,
		  "start": 232.558139534884,
		  "velocity": 80
		},
		{
		  "duration": 0.0436046511627907,
		  "pitch": 38,
		  "start": 232.674418604651,
		  "velocity": 80
		},
		{
		  "duration": 0.0436046511627907,
		  "pitch": 42,
		  "start": 232.674418604651,
		  "velocity": 60
		},
		{
		  "duration": 0.0436046511627907,
		  "pitch": 42,
		  "start": 232.790697674419,
		  "velocity": 60
		},
		{
		  "duration": 0.0436046511627907,
		  "pitch": 42,
		  "start": 232.906976744186,
		  "velocity": 60
		},
		{
		  "duration": 0.0436046511627907,
		  "pitch": 42,
		  "start": 233.023255813953,
		  "velocity": 60
		},
		{
		  "duration": 0.0436046511627907,
		  "pitch": 36,
		  "start": 233.023255813953,
		  "velocity": 80
		},
		{
		  "duration": 0.0436046511627907,
		  "pitch": 42,
		  "start": 233.139534883721,
		  "velocity": 60
		},
		{
		  "duration": 0.0436046511627907,
		  "pitch": 42,
		  "start": 233.255813953488,
		  "velocity": 60
		},
		{
		  "duration": 0.0436046511627907,
		  "pitch": 38,
		  "start": 233.372093023256,
		  "velocity": 80
		},
		{
		  "duration": 0.0436046511627907,
		  "pitch": 42,
		  "start": 233.372093023256,
		  "velocity": 60
		},
		{
		  "duration": 0.0436046511627907,
		  "pitch": 46,
		  "start": 233.488372093023,
		  "velocity": 80
		},
		{
		  "duration": 0.0436046511627907,
		  "pitch": 42,
		  "start": 233.604651162791,
		  "velocity": 60
		},
		{
		  "duration": 0.0436046511627907,
		  "pitch": 42,
		  "start": 233.720930232558,
		  "velocity": 60
		},
		{
		  "duration": 0.0436046511627907,
		  "pitch": 42,
		  "start": 233.837209302326,
		  "velocity": 60
		},
		{
		  "duration": 0.0436046511627907,
		  "pitch": 42,
		  "start": 233.947674418605,
		  "velocity": 60
		},
		{
		  "duration": 0.0436046511627907,
		  "pitch": 36,
		  "start": 233.953488372093,
		  "velocity": 80
		},
		{
		  "duration": 0.0436046511627907,
		  "pitch": 38,
		  "start": 234.06976744186,
		  "velocity": 80
		},
		{
		  "duration": 0.0436046511627907,
		  "pitch": 42,
		  "start": 234.06976744186,
		  "velocity": 60
		},
		{
		  "duration": 0.0436046511627907,
		  "pitch": 42,
		  "start": 234.186046511628,
		  "velocity": 60
		},
		{
		  "duration": 0.0436046511627907,
		  "pitch": 42,
		  "start": 234.302325581395,
		  "velocity": 60
		},
		{
		  "duration": 0.0436046511627907,
		  "pitch": 42,
		  "start": 234.418604651163,
		  "velocity": 60
		},
		{
		  "duration": 0.0436046511627907,
		  "pitch": 36,
		  "start": 234.418604651163,
		  "velocity": 80
		},
		{
		  "duration": 0.0436046511627907,
		  "pitch": 42,
		  "start": 234.53488372093,
		  "velocity": 60
		},
		{
		  "duration": 0.0436046511627907,
		  "pitch": 42,
		  "start": 234.651162790698,
		  "velocity": 60
		},
		{
		  "duration": 0.0436046511627907,
		  "pitch": 38,
		  "start": 234.767441860465,
		  "velocity": 80
		},
		{
		  "duration": 0.0436046511627907,
		  "pitch": 42,
		  "start": 234.767441860465,
		  "velocity": 60
		},
		{
		  "duration": 0.0436046511627907,
		  "pitch": 46,
		  "start": 234.883720930233,
		  "velocity": 80
		},
		{
		  "duration": 0.0436046511627907,
		  "pitch": 42,
		  "start": 235.0,
		  "velocity": 60
		},
		{
		  "duration": 0.0436046511627907,
		  "pitch": 42,
		  "start": 235.116279069767,
		  "velocity": 60
		},
		{
		  "duration": 0.0436046511627907,
		  "pitch": 42,
		  "start": 235.232558139535,
		  "velocity": 60
		},
		{
		  "duration": 0.0436046511627907,
		  "pitch": 42,
		  "start": 235.343023255814,
		  "velocity": 60
		},
		{
		  "duration": 0.0436046511627907,
		  "pitch": 36,
		  "start": 235.348837209302,
		  "velocity": 80
		},
		{
		  "duration": 0.0436046511627907,
		  "pitch": 38,
		  "start": 235.46511627907,
		  "velocity": 80
		},
		{
		  "duration": 0.0436046511627907,
		  "pitch": 42,
		  "start": 235.46511627907,
		  "velocity": 60
		},
		{
		  "duration": 0.0436046511627907,
		  "pitch": 42,
		  "start": 235.581395348837,
		  "velocity": 60
		},
		{
		  "duration": 0.0436046511627907,
		  "pitch": 42,
		  "start": 235.697674418605,
		  "velocity": 60
		},
		{
		  "duration": 0.0436046511627907,
		  "pitch": 42,
		  "start": 235.813953488372,
		  "velocity": 60
		},
		{
		  "duration": 0.0436046511627907,
		  "pitch": 36,
		  "start": 235.813953488372,
		  "velocity": 80
		},
		{
		  "duration": 0.0436046511627907,
		  "pitch": 42,
		  "start": 235.93023255814,
		  "velocity": 60
		},
		{
		  "duration": 0.0436046511627907,
		  "pitch": 42,
		  "start": 236.046511627907,
		  "velocity": 60
		},
		{
		  "duration": 0.0436046511627907,
		  "pitch": 38,
		  "start": 236.162790697674,
		  "velocity": 80
		},
		{
		  "duration": 0.0436046511627907,
		  "pitch": 42,
		  "start": 236.162790697674,
		  "velocity": 60
		},
		{
		  "duration": 0.0436046511627907,
		  "pitch": 46,
		  "start": 236.279069767442,
		  "velocity": 80
		},
		{
		  "duration": 0.0436046511627907,
		  "pitch": 42,
		  "start": 236.395348837209,
		  "velocity": 60
		},
		{
		  "duration": 0.0436046511627907,
		  "pitch": 42,
		  "start": 236.511627906977,
		  "velocity": 60
		},
		{
		  "duration": 0.0436046511627907,
		  "pitch": 42,
		  "start": 236.627906976744,
		  "velocity": 60
		},
		{
		  "duration": 0.0436046511627907,
		  "pitch": 42,
		  "start": 236.738372093023,
		  "velocity": 60
		},
		{
		  "duration": 0.0436046511627907,
		  "pitch": 36,
		  "start": 236.744186046512,
		  "velocity": 80
		},
		{
		  "duration": 0.0436046511627907,
		  "pitch": 38,
		  "start": 236.860465116279,
		  "velocity": 80
		},
		{
		  "duration": 0.0436046511627907,
		  "pitch": 42,
		  "start": 236.860465116279,
		  "velocity": 60
		},
		{
		  "duration": 0.0436046511627907,
		  "pitch": 42,
		  "start": 236.976744186047,
		  "velocity": 60
		},
		{
		  "duration": 0.0436046511627907,
		  "pitch": 42,
		  "start": 237.093023255814,
		  "velocity": 60
		},
		{
		  "duration": 0.0436046511627907,
		  "pitch": 42,
		  "start": 237.209302325581,
		  "velocity": 60
		},
		{
		  "duration": 0.0436046511627907,
		  "pitch": 36,
		  "start": 237.209302325581,
		  "velocity": 80
		},
		{
		  "duration": 0.0436046511627907,
		  "pitch": 42,
		  "start": 237.325581395349,
		  "velocity": 60
		},
		{
		  "duration": 0.0436046511627907,
		  "pitch": 42,
		  "start": 237.441860465116,
		  "velocity": 60
		},
		{
		  "duration": 0.0436046511627907,
		  "pitch": 38,
		  "start": 237.558139534884,
		  "velocity": 80
		},
		{
		  "duration": 0.0436046511627907,
		  "pitch": 42,
		  "start": 237.558139534884,
		  "velocity": 60
		},
		{
		  "duration": 0.0436046511627907,
		  "pitch": 46,
		  "start": 237.674418604651,
		  "velocity": 80
		},
		{
		  "duration": 0.0436046511627907,
		  "pitch": 42,
		  "start": 237.790697674419,
		  "velocity": 60
		},
		{
		  "duration": 0.0436046511627907,
		  "pitch": 42,
		  "start": 237.906976744186,
		  "velocity": 60
		},
		{
		  "duration": 0.0436046511627907,
		  "pitch": 42,
		  "start": 238.023255813953,
		  "velocity": 60
		},
		{
		  "duration": 0.0436046511627907,
		  "pitch": 42,
		  "start": 238.133720930233,
		  "velocity": 60
		},
		{
		  "duration": 0.0436046511627907,
		  "pitch": 36,
		  "start": 238.139534883721,
		  "velocity": 80
		},
		{
		  "duration": 0.0436046511627907,
		  "pitch": 38,
		  "start": 238.255813953488,
		  "velocity": 80
		},
		{
		  "duration": 0.0436046511627907,
		  "pitch": 42,
		  "start": 238.255813953488,
		  "velocity": 60
		},
		{
		  "duration": 0.0436046511627907,
		  "pitch": 42,
		  "start": 238.372093023256,
		  "velocity": 60
		},
		{
		  "duration": 0.0436046511627907,
		  "pitch": 42,
		  "start": 238.488372093023,
		  "velocity": 60
		},
		{
		  "duration": 0.0436046511627907,
		  "pitch": 42,
		  "start": 238.604651162791,
		  "velocity": 60
		},
		{
		  "duration": 0.0436046511627907,
		  "pitch": 36,
		  "start": 238.604651162791,
		  "velocity": 80
		},
		{
		  "duration": 0.0436046511627907,
		  "pitch": 42,
		  "start": 238.720930232558,
		  "velocity": 60
		},
		{
		  "duration": 0.0436046511627907,
		  "pitch": 42,
		  "start": 238.837209302326,
		  "velocity": 60
		},
		{
		  "duration": 0.0436046511627907,
		  "pitch": 38,
		  "start": 238.953488372093,
		  "velocity": 80
		},
		{
		  "duration": 0.0436046511627907,
		  "pitch": 42,
		  "start": 238.953488372093,
		  "velocity": 60
		},
		{
		  "duration": 0.0436046511627907,
		  "pitch": 46,
		  "start": 239.06976744186,
		  "velocity": 80
		},
		{
		  "duration": 0.0436046511627907,
		  "pitch": 42,
		  "start": 239.186046511628,
		  "velocity": 60
		},
		{
		  "duration": 0.0436046511627907,
		  "pitch": 42,
		  "start": 239.302325581395,
		  "velocity": 60
		},
		{
		  "duration": 0.0436046511627907,
		  "pitch": 42,
		  "start": 239.418604651163,
		  "velocity": 60
		},
		{
		  "duration": 0.0436046511627907,
		  "pitch": 42,
		  "start": 239.529069767442,
		  "velocity": 60
		},
		{
		  "duration": 0.0436046511627907,
		  "pitch": 36,
		  "start": 239.53488372093,
		  "velocity": 80
		},
		{
		  "duration": 0.0436046511627907,
		  "pitch": 38,
		  "start": 239.651162790698,
		  "velocity": 80
		},
		{
		  "duration": 0.0436046511627907,
		  "pitch": 42,
		  "start": 239.651162790698,
		  "velocity": 60
		},
		{
		  "duration": 0.0436046511627907,
		  "pitch": 49,
		  "start": 239.651162790698,
		  "velocity": 80
		},
		{
		  "duration": 0.0436046511627907,
		  "pitch": 42,
		  "start": 239.767441860465,
		  "velocity": 60
		},
		{
		  "duration": 0.0436046511627907,
		  "pitch": 42,
		  "start": 239.883720930233,
		  "velocity": 60
		},
		{
		  "duration": 0.0436046511627907,
		  "pitch": 36,
		  "start": 240.0,
		  "velocity": 80
		},
		{
		  "duration": 0.0436046511627907,
		  "pitch": 53,
		  "start": 240.232558139535,
		  "velocity": 80
		},
		{
		  "duration": 0.0436046511627907,
		  "pitch": 38,
		  "start": 240.348837209302,
		  "velocity": 80
		},
		{
		  "duration": 0.0436046511627907,
		  "pitch": 53,
		  "start": 240.46511627907,
		  "velocity": 80
		},
		{
		  "duration": 0.0436046511627907,
		  "pitch": 53,
		  "start": 240.697674418605,
		  "velocity": 80
		},
		{
		  "duration": 0.0436046511627907,
		  "pitch": 36,
		  "start": 240.697674418605,
		  "velocity": 80
		},
		{
		  "duration": 0.0436046511627907,
		  "pitch": 53,
		  "start": 240.93023255814,
		  "velocity": 80
		},
		{
		  "duration": 0.0436046511627907,
		  "pitch": 36,
		  "start": 240.93023255814,
		  "velocity": 80
		},
		{
		  "duration": 0.0436046511627907,
		  "pitch": 46,
		  "start": 241.046511627907,
		  "velocity": 80
		},
		{
		  "duration": 0.0436046511627907,
		  "pitch": 53,
		  "start": 241.162790697674,
		  "velocity": 80
		},
		{
		  "duration": 0.0436046511627907,
		  "pitch": 38,
		  "start": 241.162790697674,
		  "velocity": 80
		},
		{
		  "duration": 0.0436046511627907,
		  "pitch": 53,
		  "start": 241.395348837209,
		  "velocity": 80
		},
		{
		  "duration": 0.0436046511627907,
		  "pitch": 36,
		  "start": 241.395348837209,
		  "velocity": 80
		},
		{
		  "duration": 0.0436046511627907,
		  "pitch": 53,
		  "start": 241.627906976744,
		  "velocity": 80
		},
		{
		  "duration": 0.0436046511627907,
		  "pitch": 38,
		  "start": 241.744186046512,
		  "velocity": 80
		},
		{
		  "duration": 0.0436046511627907,
		  "pitch": 53,
		  "start": 241.860465116279,
		  "velocity": 80
		},
		{
		  "duration": 0.0436046511627907,
		  "pitch": 53,
		  "start": 242.093023255814,
		  "velocity": 80
		},
		{
		  "duration": 0.0436046511627907,
		  "pitch": 41,
		  "start": 242.093023255814,
		  "velocity": 80
		},
		{
		  "duration": 0.0436046511627907,
		  "pitch": 36,
		  "start": 242.093023255814,
		  "velocity": 80
		},
		{
		  "duration": 0.0436046511627907,
		  "pitch": 48,
		  "start": 242.209302325581,
		  "velocity": 80
		},
		{
		  "duration": 0.0436046511627907,
		  "pitch": 53,
		  "start": 242.325581395349,
		  "velocity": 80
		},
		{
		  "duration": 0.0436046511627907,
		  "pitch": 45,
		  "start": 242.325581395349,
		  "velocity": 80
		},
		{
		  "duration": 0.0436046511627907,
		  "pitch": 36,
		  "start": 242.325581395349,
		  "velocity": 80
		},
		{
		  "duration": 0.0436046511627907,
		  "pitch": 42,
		  "start": 242.441860465116,
		  "velocity": 60
		},
		{
		  "duration": 0.0436046511627907,
		  "pitch": 38,
		  "start": 242.441860465116,
		  "velocity": 80
		},
		{
		  "duration": 0.0436046511627907,
		  "pitch": 46,
		  "start": 242.558139534884,
		  "velocity": 80
		},
		{
		  "duration": 0.0436046511627907,
		  "pitch": 42,
		  "start": 242.674418604651,
		  "velocity": 60
		},
		{
		  "duration": 0.0436046511627907,
		  "pitch": 36,
		  "start": 242.790697674419,
		  "velocity": 80
		},
		{
		  "duration": 0.0436046511627907,
		  "pitch": 53,
		  "start": 242.790697674419,
		  "velocity": 80
		},
		{
		  "duration": 0.0436046511627907,
		  "pitch": 53,
		  "start": 243.023255813953,
		  "velocity": 80
		},
		{
		  "duration": 0.0436046511627907,
		  "pitch": 38,
		  "start": 243.139534883721,
		  "velocity": 80
		},
		{
		  "duration": 0.0436046511627907,
		  "pitch": 53,
		  "start": 243.255813953488,
		  "velocity": 80
		},
		{
		  "duration": 0.0436046511627907,
		  "pitch": 53,
		  "start": 243.488372093023,
		  "velocity": 80
		},
		{
		  "duration": 0.0436046511627907,
		  "pitch": 36,
		  "start": 243.488372093023,
		  "velocity": 80
		},
		{
		  "duration": 0.0436046511627907,
		  "pitch": 53,
		  "start": 243.720930232558,
		  "velocity": 80
		},
		{
		  "duration": 0.0436046511627907,
		  "pitch": 36,
		  "start": 243.720930232558,
		  "velocity": 80
		},
		{
		  "duration": 0.0436046511627907,
		  "pitch": 46,
		  "start": 243.837209302326,
		  "velocity": 80
		},
		{
		  "duration": 0.0436046511627907,
		  "pitch": 53,
		  "start": 243.953488372093,
		  "velocity": 80
		},
		{
		  "duration": 0.0436046511627907,
		  "pitch": 38,
		  "start": 243.953488372093,
		  "velocity": 80
		},
		{
		  "duration": 0.0436046511627907,
		  "pitch": 53,
		  "start": 244.186046511628,
		  "velocity": 80
		},
		{
		  "duration": 0.0436046511627907,
		  "pitch": 36,
		  "start": 244.186046511628,
		  "velocity": 80
		},
		{
		  "duration": 0.0436046511627907,
		  "pitch": 53,
		  "start": 244.418604651163,
		  "velocity": 80
		},
		{
		  "duration": 0.0436046511627907,
		  "pitch": 38,
		  "start": 244.53488372093,
		  "velocity": 80
		},
		{
		  "duration": 0.0436046511627907,
		  "pitch": 53,
		  "start": 244.651162790698,
		  "velocity": 80
		},
		{
		  "duration": 0.0436046511627907,
		  "pitch": 53,
		  "start": 244.883720930233,
		  "velocity": 80
		},
		{
		  "duration": 0.0436046511627907,
		  "pitch": 41,
		  "start": 244.883720930233,
		  "velocity": 80
		},
		{
		  "duration": 0.0436046511627907,
		  "pitch": 36,
		  "start": 244.883720930233,
		  "velocity": 80
		},
		{
		  "duration": 0.0436046511627907,
		  "pitch": 48,
		  "start": 245.0,
		  "velocity": 80
		},
		{
		  "duration": 0.0436046511627907,
		  "pitch": 53,
		  "start": 245.116279069767,
		  "velocity": 80
		},
		{
		  "duration": 0.0436046511627907,
		  "pitch": 45,
		  "start": 245.116279069767,
		  "velocity": 80
		},
		{
		  "duration": 0.0436046511627907,
		  "pitch": 36,
		  "start": 245.116279069767,
		  "velocity": 80
		},
		{
		  "duration": 0.0436046511627907,
		  "pitch": 42,
		  "start": 245.232558139535,
		  "velocity": 60
		},
		{
		  "duration": 0.0436046511627907,
		  "pitch": 38,
		  "start": 245.232558139535,
		  "velocity": 80
		},
		{
		  "duration": 0.0436046511627907,
		  "pitch": 46,
		  "start": 245.348837209302,
		  "velocity": 80
		},
		{
		  "duration": 0.0436046511627907,
		  "pitch": 42,
		  "start": 245.46511627907,
		  "velocity": 60
		},
		{
		  "duration": 0.0436046511627907,
		  "pitch": 36,
		  "start": 245.581395348837,
		  "velocity": 80
		},
		{
		  "duration": 0.0436046511627907,
		  "pitch": 49,
		  "start": 245.581395348837,
		  "velocity": 80
		},
		{
		  "duration": 0.0436046511627907,
		  "pitch": 53,
		  "start": 245.813953488372,
		  "velocity": 80
		},
		{
		  "duration": 0.0436046511627907,
		  "pitch": 38,
		  "start": 245.93023255814,
		  "velocity": 80
		},
		{
		  "duration": 0.0436046511627907,
		  "pitch": 53,
		  "start": 246.046511627907,
		  "velocity": 80
		},
		{
		  "duration": 0.0436046511627907,
		  "pitch": 53,
		  "start": 246.279069767442,
		  "velocity": 80
		},
		{
		  "duration": 0.0436046511627907,
		  "pitch": 36,
		  "start": 246.279069767442,
		  "velocity": 80
		},
		{
		  "duration": 0.0436046511627907,
		  "pitch": 53,
		  "start": 246.511627906977,
		  "velocity": 80
		},
		{
		  "duration": 0.0436046511627907,
		  "pitch": 36,
		  "start": 246.511627906977,
		  "velocity": 80
		},
		{
		  "duration": 0.0436046511627907,
		  "pitch": 46,
		  "start": 246.627906976744,
		  "velocity": 80
		},
		{
		  "duration": 0.0436046511627907,
		  "pitch": 53,
		  "start": 246.744186046512,
		  "velocity": 80
		},
		{
		  "duration": 0.0436046511627907,
		  "pitch": 38,
		  "start": 246.744186046512,
		  "velocity": 80
		},
		{
		  "duration": 0.0436046511627907,
		  "pitch": 53,
		  "start": 246.976744186047,
		  "velocity": 80
		},
		{
		  "duration": 0.0436046511627907,
		  "pitch": 36,
		  "start": 246.976744186047,
		  "velocity": 80
		},
		{
		  "duration": 0.0436046511627907,
		  "pitch": 53,
		  "start": 247.209302325581,
		  "velocity": 80
		},
		{
		  "duration": 0.0436046511627907,
		  "pitch": 38,
		  "start": 247.325581395349,
		  "velocity": 80
		},
		{
		  "duration": 0.0436046511627907,
		  "pitch": 53,
		  "start": 247.441860465116,
		  "velocity": 80
		},
		{
		  "duration": 0.0436046511627907,
		  "pitch": 53,
		  "start": 247.674418604651,
		  "velocity": 80
		},
		{
		  "duration": 0.0436046511627907,
		  "pitch": 41,
		  "start": 247.674418604651,
		  "velocity": 80
		},
		{
		  "duration": 0.0436046511627907,
		  "pitch": 36,
		  "start": 247.674418604651,
		  "velocity": 80
		},
		{
		  "duration": 0.0436046511627907,
		  "pitch": 48,
		  "start": 247.790697674419,
		  "velocity": 80
		},
		{
		  "duration": 0.0436046511627907,
		  "pitch": 53,
		  "start": 247.906976744186,
		  "velocity": 80
		},
		{
		  "duration": 0.0436046511627907,
		  "pitch": 45,
		  "start": 247.906976744186,
		  "velocity": 80
		},
		{
		  "duration": 0.0436046511627907,
		  "pitch": 36,
		  "start": 247.906976744186,
		  "velocity": 80
		},
		{
		  "duration": 0.0436046511627907,
		  "pitch": 42,
		  "start": 248.023255813953,
		  "velocity": 60
		},
		{
		  "duration": 0.0436046511627907,
		  "pitch": 38,
		  "start": 248.023255813953,
		  "velocity": 80
		},
		{
		  "duration": 0.0436046511627907,
		  "pitch": 46,
		  "start": 248.139534883721,
		  "velocity": 80
		},
		{
		  "duration": 0.0436046511627907,
		  "pitch": 42,
		  "start": 248.255813953488,
		  "velocity": 60
		},
		{
		  "duration": 0.0436046511627907,
		  "pitch": 36,
		  "start": 248.372093023256,
		  "velocity": 80
		},
		{
		  "duration": 0.0436046511627907,
		  "pitch": 53,
		  "start": 248.372093023256,
		  "velocity": 80
		},
		{
		  "duration": 0.0436046511627907,
		  "pitch": 53,
		  "start": 248.604651162791,
		  "velocity": 80
		},
		{
		  "duration": 0.0436046511627907,
		  "pitch": 38,
		  "start": 248.720930232558,
		  "velocity": 80
		},
		{
		  "duration": 0.0436046511627907,
		  "pitch": 53,
		  "start": 248.837209302326,
		  "velocity": 80
		},
		{
		  "duration": 0.0436046511627907,
		  "pitch": 53,
		  "start": 249.06976744186,
		  "velocity": 80
		},
		{
		  "duration": 0.0436046511627907,
		  "pitch": 36,
		  "start": 249.06976744186,
		  "velocity": 80
		},
		{
		  "duration": 0.0436046511627907,
		  "pitch": 53,
		  "start": 249.302325581395,
		  "velocity": 80
		},
		{
		  "duration": 0.0436046511627907,
		  "pitch": 36,
		  "start": 249.302325581395,
		  "velocity": 80
		},
		{
		  "duration": 0.0436046511627907,
		  "pitch": 46,
		  "start": 249.418604651163,
		  "velocity": 80
		},
		{
		  "duration": 0.0436046511627907,
		  "pitch": 53,
		  "start": 249.53488372093,
		  "velocity": 80
		},
		{
		  "duration": 0.0436046511627907,
		  "pitch": 38,
		  "start": 249.53488372093,
		  "velocity": 80
		},
		{
		  "duration": 0.0436046511627907,
		  "pitch": 53,
		  "start": 249.767441860465,
		  "velocity": 80
		},
		{
		  "duration": 0.0436046511627907,
		  "pitch": 36,
		  "start": 249.767441860465,
		  "velocity": 80
		},
		{
		  "duration": 0.0436046511627907,
		  "pitch": 53,
		  "start": 250.0,
		  "velocity": 80
		},
		{
		  "duration": 0.0436046511627907,
		  "pitch": 38,
		  "start": 250.116279069767,
		  "velocity": 80
		},
		{
		  "duration": 0.0436046511627907,
		  "pitch": 53,
		  "start": 250.232558139535,
		  "velocity": 80
		},
		{
		  "duration": 0.0436046511627907,
		  "pitch": 53,
		  "start": 250.46511627907,
		  "velocity": 80
		},
		{
		  "duration": 0.0436046511627907,
		  "pitch": 36,
		  "start": 250.46511627907,
		  "velocity": 80
		},
		{
		  "duration": 0.0436046511627907,
		  "pitch": 53,
		  "start": 250.697674418605,
		  "velocity": 80
		},
		{
		  "duration": 0.0436046511627907,
		  "pitch": 36,
		  "start": 250.697674418605,
		  "velocity": 80
		},
		{
		  "duration": 0.0436046511627907,
		  "pitch": 42,
		  "start": 250.813953488372,
		  "velocity": 60
		},
		{
		  "duration": 0.0436046511627907,
		  "pitch": 38,
		  "start": 250.813953488372,
		  "velocity": 80
		},
		{
		  "duration": 0.0436046511627907,
		  "pitch": 46,
		  "start": 250.93023255814,
		  "velocity": 80
		},
		{
		  "duration": 0.0436046511627907,
		  "pitch": 38,
		  "start": 250.93023255814,
		  "velocity": 80
		},
		{
		  "duration": 0.0436046511627907,
		  "pitch": 42,
		  "start": 251.046511627907,
		  "velocity": 60
		},
		{
		  "duration": 0.0436046511627907,
		  "pitch": 38,
		  "start": 251.046511627907,
		  "velocity": 80
		},
		{
		  "duration": 0.0436046511627907,
		  "pitch": 42,
		  "start": 251.162790697674,
		  "velocity": 60
		},
		{
		  "duration": 0.0436046511627907,
		  "pitch": 36,
		  "start": 251.162790697674,
		  "velocity": 80
		},
		{
		  "duration": 0.0436046511627907,
		  "pitch": 42,
		  "start": 251.395348837209,
		  "velocity": 60
		},
		{
		  "duration": 0.0436046511627907,
		  "pitch": 36,
		  "start": 251.395348837209,
		  "velocity": 80
		},
		{
		  "duration": 0.0436046511627907,
		  "pitch": 42,
		  "start": 251.511627906977,
		  "velocity": 60
		},
		{
		  "duration": 0.0436046511627907,
		  "pitch": 38,
		  "start": 251.511627906977,
		  "velocity": 80
		},
		{
		  "duration": 0.0436046511627907,
		  "pitch": 42,
		  "start": 251.744186046512,
		  "velocity": 60
		},
		{
		  "duration": 0.0436046511627907,
		  "pitch": 42,
		  "start": 251.860465116279,
		  "velocity": 60
		},
		{
		  "duration": 0.0436046511627907,
		  "pitch": 36,
		  "start": 251.860465116279,
		  "velocity": 80
		},
		{
		  "duration": 0.0436046511627907,
		  "pitch": 42,
		  "start": 252.093023255814,
		  "velocity": 60
		},
		{
		  "duration": 0.0436046511627907,
		  "pitch": 36,
		  "start": 252.093023255814,
		  "velocity": 80
		},
		{
		  "duration": 0.0436046511627907,
		  "pitch": 42,
		  "start": 252.209302325581,
		  "velocity": 60
		},
		{
		  "duration": 0.0436046511627907,
		  "pitch": 38,
		  "start": 252.209302325581,
		  "velocity": 80
		},
		{
		  "duration": 0.0436046511627907,
		  "pitch": 46,
		  "start": 252.325581395349,
		  "velocity": 80
		},
		{
		  "duration": 0.0436046511627907,
		  "pitch": 42,
		  "start": 252.441860465116,
		  "velocity": 60
		},
		{
		  "duration": 0.0436046511627907,
		  "pitch": 42,
		  "start": 252.558139534884,
		  "velocity": 60
		},
		{
		  "duration": 0.0436046511627907,
		  "pitch": 36,
		  "start": 252.558139534884,
		  "velocity": 80
		},
		{
		  "duration": 0.0436046511627907,
		  "pitch": 42,
		  "start": 252.790697674419,
		  "velocity": 60
		},
		{
		  "duration": 0.0436046511627907,
		  "pitch": 36,
		  "start": 252.790697674419,
		  "velocity": 80
		},
		{
		  "duration": 0.0436046511627907,
		  "pitch": 42,
		  "start": 252.906976744186,
		  "velocity": 60
		},
		{
		  "duration": 0.0436046511627907,
		  "pitch": 38,
		  "start": 252.906976744186,
		  "velocity": 80
		},
		{
		  "duration": 0.0436046511627907,
		  "pitch": 42,
		  "start": 253.139534883721,
		  "velocity": 60
		},
		{
		  "duration": 0.0436046511627907,
		  "pitch": 42,
		  "start": 253.255813953488,
		  "velocity": 60
		},
		{
		  "duration": 0.0436046511627907,
		  "pitch": 36,
		  "start": 253.255813953488,
		  "velocity": 80
		},
		{
		  "duration": 0.0436046511627907,
		  "pitch": 42,
		  "start": 253.488372093023,
		  "velocity": 60
		},
		{
		  "duration": 0.0436046511627907,
		  "pitch": 36,
		  "start": 253.488372093023,
		  "velocity": 80
		},
		{
		  "duration": 0.0436046511627907,
		  "pitch": 42,
		  "start": 253.604651162791,
		  "velocity": 60
		},
		{
		  "duration": 0.0436046511627907,
		  "pitch": 38,
		  "start": 253.604651162791,
		  "velocity": 80
		},
		{
		  "duration": 0.0436046511627907,
		  "pitch": 46,
		  "start": 253.720930232558,
		  "velocity": 80
		},
		{
		  "duration": 0.0436046511627907,
		  "pitch": 42,
		  "start": 253.837209302326,
		  "velocity": 60
		},
		{
		  "duration": 0.0436046511627907,
		  "pitch": 42,
		  "start": 253.953488372093,
		  "velocity": 60
		},
		{
		  "duration": 0.0436046511627907,
		  "pitch": 36,
		  "start": 253.953488372093,
		  "velocity": 80
		},
		{
		  "duration": 0.0436046511627907,
		  "pitch": 42,
		  "start": 254.186046511628,
		  "velocity": 60
		},
		{
		  "duration": 0.0436046511627907,
		  "pitch": 36,
		  "start": 254.186046511628,
		  "velocity": 80
		},
		{
		  "duration": 0.0436046511627907,
		  "pitch": 42,
		  "start": 254.302325581395,
		  "velocity": 60
		},
		{
		  "duration": 0.0436046511627907,
		  "pitch": 38,
		  "start": 254.302325581395,
		  "velocity": 80
		},
		{
		  "duration": 0.0436046511627907,
		  "pitch": 42,
		  "start": 254.53488372093,
		  "velocity": 60
		},
		{
		  "duration": 0.0436046511627907,
		  "pitch": 42,
		  "start": 254.651162790698,
		  "velocity": 60
		},
		{
		  "duration": 0.0436046511627907,
		  "pitch": 36,
		  "start": 254.651162790698,
		  "velocity": 80
		},
		{
		  "duration": 0.0436046511627907,
		  "pitch": 42,
		  "start": 254.883720930233,
		  "velocity": 60
		},
		{
		  "duration": 0.0436046511627907,
		  "pitch": 36,
		  "start": 254.883720930233,
		  "velocity": 80
		},
		{
		  "duration": 0.0436046511627907,
		  "pitch": 42,
		  "start": 255.0,
		  "velocity": 60
		},
		{
		  "duration": 0.0436046511627907,
		  "pitch": 38,
		  "start": 255.0,
		  "velocity": 80
		},
		{
		  "duration": 0.0436046511627907,
		  "pitch": 46,
		  "start": 255.116279069767,
		  "velocity": 80
		},
		{
		  "duration": 0.0436046511627907,
		  "pitch": 42,
		  "start": 255.232558139535,
		  "velocity": 60
		},
		{
		  "duration": 0.0436046511627907,
		  "pitch": 42,
		  "start": 255.348837209302,
		  "velocity": 60
		},
		{
		  "duration": 0.0436046511627907,
		  "pitch": 36,
		  "start": 255.348837209302,
		  "velocity": 80
		},
		{
		  "duration": 0.0436046511627907,
		  "pitch": 42,
		  "start": 255.581395348837,
		  "velocity": 60
		},
		{
		  "duration": 0.0436046511627907,
		  "pitch": 36,
		  "start": 255.581395348837,
		  "velocity": 80
		},
		{
		  "duration": 0.0436046511627907,
		  "pitch": 42,
		  "start": 255.697674418605,
		  "velocity": 60
		},
		{
		  "duration": 0.0436046511627907,
		  "pitch": 38,
		  "start": 255.697674418605,
		  "velocity": 80
		},
		{
		  "duration": 0.0436046511627907,
		  "pitch": 42,
		  "start": 255.93023255814,
		  "velocity": 60
		},
		{
		  "duration": 0.0436046511627907,
		  "pitch": 42,
		  "start": 256.046511627907,
		  "velocity": 60
		},
		{
		  "duration": 0.0436046511627907,
		  "pitch": 36,
		  "start": 256.046511627907,
		  "velocity": 80
		},
		{
		  "duration": 0.0436046511627907,
		  "pitch": 42,
		  "start": 256.279069767442,
		  "velocity": 60
		},
		{
		  "duration": 0.0436046511627907,
		  "pitch": 36,
		  "start": 256.279069767442,
		  "velocity": 80
		},
		{
		  "duration": 0.0436046511627907,
		  "pitch": 42,
		  "start": 256.395348837209,
		  "velocity": 60
		},
		{
		  "duration": 0.0436046511627907,
		  "pitch": 38,
		  "start": 256.395348837209,
		  "velocity": 80
		},
		{
		  "duration": 0.0436046511627907,
		  "pitch": 46,
		  "start": 256.511627906977,
		  "velocity": 80
		},
		{
		  "duration": 0.0436046511627907,
		  "pitch": 42,
		  "start": 256.627906976744,
		  "velocity": 60
		},
		{
		  "duration": 0.0436046511627907,
		  "pitch": 42,
		  "start": 256.744186046512,
		  "velocity": 60
		},
		{
		  "duration": 0.0436046511627907,
		  "pitch": 36,
		  "start": 256.744186046512,
		  "velocity": 80
		},
		{
		  "duration": 0.0436046511627907,
		  "pitch": 42,
		  "start": 256.976744186047,
		  "velocity": 60
		},
		{
		  "duration": 0.0436046511627907,
		  "pitch": 36,
		  "start": 256.976744186047,
		  "velocity": 80
		},
		{
		  "duration": 0.0436046511627907,
		  "pitch": 42,
		  "start": 257.093023255814,
		  "velocity": 60
		},
		{
		  "duration": 0.0436046511627907,
		  "pitch": 38,
		  "start": 257.093023255814,
		  "velocity": 80
		},
		{
		  "duration": 0.0436046511627907,
		  "pitch": 42,
		  "start": 257.325581395349,
		  "velocity": 60
		},
		{
		  "duration": 0.0436046511627907,
		  "pitch": 42,
		  "start": 257.441860465116,
		  "velocity": 60
		},
		{
		  "duration": 0.0436046511627907,
		  "pitch": 36,
		  "start": 257.441860465116,
		  "velocity": 80
		},
		{
		  "duration": 0.0436046511627907,
		  "pitch": 42,
		  "start": 257.674418604651,
		  "velocity": 60
		},
		{
		  "duration": 0.0436046511627907,
		  "pitch": 36,
		  "start": 257.674418604651,
		  "velocity": 80
		},
		{
		  "duration": 0.0436046511627907,
		  "pitch": 42,
		  "start": 257.790697674419,
		  "velocity": 60
		},
		{
		  "duration": 0.0436046511627907,
		  "pitch": 38,
		  "start": 257.790697674419,
		  "velocity": 80
		},
		{
		  "duration": 0.0436046511627907,
		  "pitch": 46,
		  "start": 257.906976744186,
		  "velocity": 80
		},
		{
		  "duration": 0.0436046511627907,
		  "pitch": 42,
		  "start": 258.023255813953,
		  "velocity": 60
		},
		{
		  "duration": 0.0436046511627907,
		  "pitch": 42,
		  "start": 258.139534883721,
		  "velocity": 60
		},
		{
		  "duration": 0.0436046511627907,
		  "pitch": 36,
		  "start": 258.139534883721,
		  "velocity": 80
		},
		{
		  "duration": 0.0436046511627907,
		  "pitch": 42,
		  "start": 258.372093023256,
		  "velocity": 60
		},
		{
		  "duration": 0.0436046511627907,
		  "pitch": 36,
		  "start": 258.372093023256,
		  "velocity": 80
		},
		{
		  "duration": 0.0436046511627907,
		  "pitch": 42,
		  "start": 258.488372093023,
		  "velocity": 60
		},
		{
		  "duration": 0.0436046511627907,
		  "pitch": 38,
		  "start": 258.488372093023,
		  "velocity": 80
		},
		{
		  "duration": 0.0436046511627907,
		  "pitch": 42,
		  "start": 258.720930232558,
		  "velocity": 60
		},
		{
		  "duration": 0.0436046511627907,
		  "pitch": 42,
		  "start": 258.837209302326,
		  "velocity": 60
		},
		{
		  "duration": 0.0436046511627907,
		  "pitch": 36,
		  "start": 258.837209302326,
		  "velocity": 80
		},
		{
		  "duration": 0.0436046511627907,
		  "pitch": 42,
		  "start": 259.06976744186,
		  "velocity": 60
		},
		{
		  "duration": 0.0436046511627907,
		  "pitch": 36,
		  "start": 259.06976744186,
		  "velocity": 80
		},
		{
		  "duration": 0.0436046511627907,
		  "pitch": 42,
		  "start": 259.186046511628,
		  "velocity": 60
		},
		{
		  "duration": 0.0436046511627907,
		  "pitch": 38,
		  "start": 259.186046511628,
		  "velocity": 80
		},
		{
		  "duration": 0.0436046511627907,
		  "pitch": 46,
		  "start": 259.302325581395,
		  "velocity": 80
		},
		{
		  "duration": 0.0436046511627907,
		  "pitch": 42,
		  "start": 259.418604651163,
		  "velocity": 60
		},
		{
		  "duration": 0.0436046511627907,
		  "pitch": 42,
		  "start": 259.53488372093,
		  "velocity": 60
		},
		{
		  "duration": 0.0436046511627907,
		  "pitch": 36,
		  "start": 259.53488372093,
		  "velocity": 80
		},
		{
		  "duration": 0.0436046511627907,
		  "pitch": 42,
		  "start": 259.767441860465,
		  "velocity": 60
		},
		{
		  "duration": 0.0436046511627907,
		  "pitch": 36,
		  "start": 259.767441860465,
		  "velocity": 80
		},
		{
		  "duration": 0.0436046511627907,
		  "pitch": 42,
		  "start": 259.883720930233,
		  "velocity": 60
		},
		{
		  "duration": 0.0436046511627907,
		  "pitch": 38,
		  "start": 259.883720930233,
		  "velocity": 80
		},
		{
		  "duration": 0.0436046511627907,
		  "pitch": 42,
		  "start": 260.116279069767,
		  "velocity": 60
		},
		{
		  "duration": 0.0436046511627907,
		  "pitch": 42,
		  "start": 260.232558139535,
		  "velocity": 60
		},
		{
		  "duration": 0.0436046511627907,
		  "pitch": 36,
		  "start": 260.232558139535,
		  "velocity": 80
		},
		{
		  "duration": 0.0436046511627907,
		  "pitch": 42,
		  "start": 260.46511627907,
		  "velocity": 60
		},
		{
		  "duration": 0.0436046511627907,
		  "pitch": 36,
		  "start": 260.46511627907,
		  "velocity": 80
		},
		{
		  "duration": 0.0436046511627907,
		  "pitch": 42,
		  "start": 260.581395348837,
		  "velocity": 60
		},
		{
		  "duration": 0.0436046511627907,
		  "pitch": 38,
		  "start": 260.581395348837,
		  "velocity": 80
		},
		{
		  "duration": 0.0436046511627907,
		  "pitch": 46,
		  "start": 260.697674418605,
		  "velocity": 80
		},
		{
		  "duration": 0.0436046511627907,
		  "pitch": 42,
		  "start": 260.813953488372,
		  "velocity": 60
		},
		{
		  "duration": 0.0436046511627907,
		  "pitch": 42,
		  "start": 260.93023255814,
		  "velocity": 60
		},
		{
		  "duration": 0.0436046511627907,
		  "pitch": 36,
		  "start": 260.93023255814,
		  "velocity": 80
		},
		{
		  "duration": 0.0436046511627907,
		  "pitch": 42,
		  "start": 261.162790697674,
		  "velocity": 60
		},
		{
		  "duration": 0.0436046511627907,
		  "pitch": 36,
		  "start": 261.162790697674,
		  "velocity": 80
		},
		{
		  "duration": 0.0436046511627907,
		  "pitch": 42,
		  "start": 261.279069767442,
		  "velocity": 60
		},
		{
		  "duration": 0.0436046511627907,
		  "pitch": 38,
		  "start": 261.279069767442,
		  "velocity": 80
		},
		{
		  "duration": 0.0436046511627907,
		  "pitch": 42,
		  "start": 261.511627906977,
		  "velocity": 60
		},
		{
		  "duration": 0.0436046511627907,
		  "pitch": 42,
		  "start": 261.627906976744,
		  "velocity": 60
		},
		{
		  "duration": 0.0436046511627907,
		  "pitch": 36,
		  "start": 261.627906976744,
		  "velocity": 80
		},
		{
		  "duration": 0.0436046511627907,
		  "pitch": 42,
		  "start": 261.860465116279,
		  "velocity": 60
		},
		{
		  "duration": 0.0436046511627907,
		  "pitch": 36,
		  "start": 261.860465116279,
		  "velocity": 80
		},
		{
		  "duration": 0.0436046511627907,
		  "pitch": 42,
		  "start": 261.976744186047,
		  "velocity": 60
		},
		{
		  "duration": 0.0436046511627907,
		  "pitch": 38,
		  "start": 261.976744186047,
		  "velocity": 80
		},
		{
		  "duration": 0.0436046511627907,
		  "pitch": 46,
		  "start": 262.093023255814,
		  "velocity": 80
		},
		{
		  "duration": 0.0436046511627907,
		  "pitch": 42,
		  "start": 262.209302325581,
		  "velocity": 60
		},
		{
		  "duration": 0.0436046511627907,
		  "pitch": 42,
		  "start": 262.325581395349,
		  "velocity": 60
		},
		{
		  "duration": 0.0436046511627907,
		  "pitch": 36,
		  "start": 262.325581395349,
		  "velocity": 80
		},
		{
		  "duration": 0.0436046511627907,
		  "pitch": 49,
		  "start": 262.325581395349,
		  "velocity": 80
		},
		{
		  "duration": 0.0436046511627907,
		  "pitch": 42,
		  "start": 262.558139534884,
		  "velocity": 60
		},
		{
		  "duration": 0.0436046511627907,
		  "pitch": 36,
		  "start": 262.558139534884,
		  "velocity": 80
		},
		{
		  "duration": 0.0436046511627907,
		  "pitch": 42,
		  "start": 262.674418604651,
		  "velocity": 60
		},
		{
		  "duration": 0.0436046511627907,
		  "pitch": 38,
		  "start": 262.674418604651,
		  "velocity": 80
		},
		{
		  "duration": 0.0436046511627907,
		  "pitch": 46,
		  "start": 262.790697674419,
		  "velocity": 80
		},
		{
		  "duration": 0.0436046511627907,
		  "pitch": 42,
		  "start": 262.906976744186,
		  "velocity": 60
		},
		{
		  "duration": 0.0436046511627907,
		  "pitch": 42,
		  "start": 263.023255813953,
		  "velocity": 60
		},
		{
		  "duration": 0.0436046511627907,
		  "pitch": 36,
		  "start": 263.023255813953,
		  "velocity": 80
		},
		{
		  "duration": 0.0436046511627907,
		  "pitch": 42,
		  "start": 263.255813953488,
		  "velocity": 60
		},
		{
		  "duration": 0.0436046511627907,
		  "pitch": 36,
		  "start": 263.255813953488,
		  "velocity": 80
		},
		{
		  "duration": 0.0436046511627907,
		  "pitch": 42,
		  "start": 263.372093023256,
		  "velocity": 60
		},
		{
		  "duration": 0.0436046511627907,
		  "pitch": 41,
		  "start": 263.372093023256,
		  "velocity": 80
		},
		{
		  "duration": 0.0436046511627907,
		  "pitch": 42,
		  "start": 263.720930232558,
		  "velocity": 60
		},
		{
		  "duration": 0.0436046511627907,
		  "pitch": 36,
		  "start": 263.720930232558,
		  "velocity": 80
		},
		{
		  "duration": 0.0436046511627907,
		  "pitch": 42,
		  "start": 263.953488372093,
		  "velocity": 60
		},
		{
		  "duration": 0.0436046511627907,
		  "pitch": 36,
		  "start": 263.953488372093,
		  "velocity": 80
		},
		{
		  "duration": 0.0436046511627907,
		  "pitch": 42,
		  "start": 264.06976744186,
		  "velocity": 60
		},
		{
		  "duration": 0.0436046511627907,
		  "pitch": 38,
		  "start": 264.06976744186,
		  "velocity": 80
		},
		{
		  "duration": 0.0436046511627907,
		  "pitch": 46,
		  "start": 264.186046511628,
		  "velocity": 80
		},
		{
		  "duration": 0.0436046511627907,
		  "pitch": 42,
		  "start": 264.302325581395,
		  "velocity": 60
		},
		{
		  "duration": 0.0436046511627907,
		  "pitch": 42,
		  "start": 264.418604651163,
		  "velocity": 60
		},
		{
		  "duration": 0.0436046511627907,
		  "pitch": 36,
		  "start": 264.418604651163,
		  "velocity": 80
		},
		{
		  "duration": 0.0436046511627907,
		  "pitch": 42,
		  "start": 264.651162790698,
		  "velocity": 60
		},
		{
		  "duration": 0.0436046511627907,
		  "pitch": 36,
		  "start": 264.651162790698,
		  "velocity": 80
		},
		{
		  "duration": 0.0436046511627907,
		  "pitch": 42,
		  "start": 264.767441860465,
		  "velocity": 60
		},
		{
		  "duration": 0.0436046511627907,
		  "pitch": 41,
		  "start": 264.767441860465,
		  "velocity": 80
		},
		{
		  "duration": 0.0436046511627907,
		  "pitch": 42,
		  "start": 265.116279069767,
		  "velocity": 60
		},
		{
		  "duration": 0.0436046511627907,
		  "pitch": 36,
		  "start": 265.116279069767,
		  "velocity": 80
		},
		{
		  "duration": 0.0436046511627907,
		  "pitch": 42,
		  "start": 265.348837209302,
		  "velocity": 60
		},
		{
		  "duration": 0.0436046511627907,
		  "pitch": 36,
		  "start": 265.348837209302,
		  "velocity": 80
		},
		{
		  "duration": 0.0436046511627907,
		  "pitch": 42,
		  "start": 265.46511627907,
		  "velocity": 60
		},
		{
		  "duration": 0.0436046511627907,
		  "pitch": 38,
		  "start": 265.46511627907,
		  "velocity": 80
		},
		{
		  "duration": 0.0436046511627907,
		  "pitch": 46,
		  "start": 265.581395348837,
		  "velocity": 80
		},
		{
		  "duration": 0.0436046511627907,
		  "pitch": 42,
		  "start": 265.697674418605,
		  "velocity": 60
		},
		{
		  "duration": 0.0436046511627907,
		  "pitch": 42,
		  "start": 265.813953488372,
		  "velocity": 60
		},
		{
		  "duration": 0.0436046511627907,
		  "pitch": 36,
		  "start": 265.813953488372,
		  "velocity": 80
		},
		{
		  "duration": 0.0436046511627907,
		  "pitch": 42,
		  "start": 266.046511627907,
		  "velocity": 60
		},
		{
		  "duration": 0.0436046511627907,
		  "pitch": 36,
		  "start": 266.046511627907,
		  "velocity": 80
		},
		{
		  "duration": 0.0436046511627907,
		  "pitch": 42,
		  "start": 266.162790697674,
		  "velocity": 60
		},
		{
		  "duration": 0.0436046511627907,
		  "pitch": 41,
		  "start": 266.162790697674,
		  "velocity": 80
		},
		{
		  "duration": 0.0436046511627907,
		  "pitch": 42,
		  "start": 266.511627906977,
		  "velocity": 60
		},
		{
		  "duration": 0.0436046511627907,
		  "pitch": 36,
		  "start": 266.511627906977,
		  "velocity": 80
		},
		{
		  "duration": 0.0436046511627907,
		  "pitch": 42,
		  "start": 266.744186046512,
		  "velocity": 60
		},
		{
		  "duration": 0.0436046511627907,
		  "pitch": 36,
		  "start": 266.744186046512,
		  "velocity": 80
		},
		{
		  "duration": 0.0436046511627907,
		  "pitch": 42,
		  "start": 266.860465116279,
		  "velocity": 60
		},
		{
		  "duration": 0.0436046511627907,
		  "pitch": 38,
		  "start": 266.860465116279,
		  "velocity": 80
		},
		{
		  "duration": 0.0436046511627907,
		  "pitch": 46,
		  "start": 266.976744186047,
		  "velocity": 80
		},
		{
		  "duration": 0.0436046511627907,
		  "pitch": 42,
		  "start": 267.093023255814,
		  "velocity": 60
		},
		{
		  "duration": 0.0436046511627907,
		  "pitch": 42,
		  "start": 267.209302325581,
		  "velocity": 60
		},
		{
		  "duration": 0.0436046511627907,
		  "pitch": 36,
		  "start": 267.209302325581,
		  "velocity": 80
		},
		{
		  "duration": 0.0436046511627907,
		  "pitch": 42,
		  "start": 267.441860465116,
		  "velocity": 60
		},
		{
		  "duration": 0.0436046511627907,
		  "pitch": 36,
		  "start": 267.441860465116,
		  "velocity": 80
		},
		{
		  "duration": 0.0436046511627907,
		  "pitch": 42,
		  "start": 267.558139534884,
		  "velocity": 60
		},
		{
		  "duration": 0.0436046511627907,
		  "pitch": 41,
		  "start": 267.558139534884,
		  "velocity": 80
		},
		{
		  "duration": 0.0436046511627907,
		  "pitch": 42,
		  "start": 267.906976744186,
		  "velocity": 60
		},
		{
		  "duration": 0.0436046511627907,
		  "pitch": 36,
		  "start": 267.906976744186,
		  "velocity": 80
		},
		{
		  "duration": 0.0436046511627907,
		  "pitch": 42,
		  "start": 268.139534883721,
		  "velocity": 60
		},
		{
		  "duration": 0.0436046511627907,
		  "pitch": 36,
		  "start": 268.139534883721,
		  "velocity": 80
		},
		{
		  "duration": 0.0436046511627907,
		  "pitch": 42,
		  "start": 268.255813953488,
		  "velocity": 60
		},
		{
		  "duration": 0.0436046511627907,
		  "pitch": 38,
		  "start": 268.255813953488,
		  "velocity": 80
		},
		{
		  "duration": 0.0436046511627907,
		  "pitch": 46,
		  "start": 268.372093023256,
		  "velocity": 80
		},
		{
		  "duration": 0.0436046511627907,
		  "pitch": 42,
		  "start": 268.488372093023,
		  "velocity": 60
		},
		{
		  "duration": 0.0436046511627907,
		  "pitch": 42,
		  "start": 268.604651162791,
		  "velocity": 60
		},
		{
		  "duration": 0.0436046511627907,
		  "pitch": 36,
		  "start": 268.604651162791,
		  "velocity": 80
		},
		{
		  "duration": 0.0436046511627907,
		  "pitch": 42,
		  "start": 268.837209302326,
		  "velocity": 60
		},
		{
		  "duration": 0.0436046511627907,
		  "pitch": 36,
		  "start": 268.837209302326,
		  "velocity": 80
		},
		{
		  "duration": 0.0436046511627907,
		  "pitch": 42,
		  "start": 268.953488372093,
		  "velocity": 60
		},
		{
		  "duration": 0.0436046511627907,
		  "pitch": 41,
		  "start": 268.953488372093,
		  "velocity": 80
		},
		{
		  "duration": 0.0436046511627907,
		  "pitch": 42,
		  "start": 269.302325581395,
		  "velocity": 60
		},
		{
		  "duration": 0.0436046511627907,
		  "pitch": 36,
		  "start": 269.302325581395,
		  "velocity": 80
		},
		{
		  "duration": 0.0436046511627907,
		  "pitch": 42,
		  "start": 269.53488372093,
		  "velocity": 60
		},
		{
		  "duration": 0.0436046511627907,
		  "pitch": 36,
		  "start": 269.53488372093,
		  "velocity": 80
		},
		{
		  "duration": 0.0436046511627907,
		  "pitch": 42,
		  "start": 269.651162790698,
		  "velocity": 60
		},
		{
		  "duration": 0.0436046511627907,
		  "pitch": 38,
		  "start": 269.651162790698,
		  "velocity": 80
		},
		{
		  "duration": 0.0436046511627907,
		  "pitch": 46,
		  "start": 269.767441860465,
		  "velocity": 80
		},
		{
		  "duration": 0.0436046511627907,
		  "pitch": 42,
		  "start": 269.883720930233,
		  "velocity": 60
		},
		{
		  "duration": 0.0436046511627907,
		  "pitch": 42,
		  "start": 270.0,
		  "velocity": 60
		},
		{
		  "duration": 0.0436046511627907,
		  "pitch": 36,
		  "start": 270.0,
		  "velocity": 80
		},
		{
		  "duration": 0.0436046511627907,
		  "pitch": 42,
		  "start": 270.232558139535,
		  "velocity": 60
		},
		{
		  "duration": 0.0436046511627907,
		  "pitch": 36,
		  "start": 270.232558139535,
		  "velocity": 80
		},
		{
		  "duration": 0.0436046511627907,
		  "pitch": 42,
		  "start": 270.348837209302,
		  "velocity": 60
		},
		{
		  "duration": 0.0436046511627907,
		  "pitch": 41,
		  "start": 270.348837209302,
		  "velocity": 80
		},
		{
		  "duration": 0.0436046511627907,
		  "pitch": 42,
		  "start": 270.697674418605,
		  "velocity": 60
		},
		{
		  "duration": 0.0436046511627907,
		  "pitch": 36,
		  "start": 270.697674418605,
		  "velocity": 80
		},
		{
		  "duration": 0.0436046511627907,
		  "pitch": 42,
		  "start": 270.93023255814,
		  "velocity": 60
		},
		{
		  "duration": 0.0436046511627907,
		  "pitch": 36,
		  "start": 270.93023255814,
		  "velocity": 80
		},
		{
		  "duration": 0.0436046511627907,
		  "pitch": 42,
		  "start": 271.046511627907,
		  "velocity": 60
		},
		{
		  "duration": 0.0436046511627907,
		  "pitch": 38,
		  "start": 271.046511627907,
		  "velocity": 80
		},
		{
		  "duration": 0.0436046511627907,
		  "pitch": 46,
		  "start": 271.162790697674,
		  "velocity": 80
		},
		{
		  "duration": 0.0436046511627907,
		  "pitch": 42,
		  "start": 271.279069767442,
		  "velocity": 60
		},
		{
		  "duration": 0.0436046511627907,
		  "pitch": 42,
		  "start": 271.395348837209,
		  "velocity": 60
		},
		{
		  "duration": 0.0436046511627907,
		  "pitch": 36,
		  "start": 271.395348837209,
		  "velocity": 80
		},
		{
		  "duration": 0.0436046511627907,
		  "pitch": 42,
		  "start": 271.627906976744,
		  "velocity": 60
		},
		{
		  "duration": 0.0436046511627907,
		  "pitch": 36,
		  "start": 271.627906976744,
		  "velocity": 80
		},
		{
		  "duration": 0.0436046511627907,
		  "pitch": 42,
		  "start": 271.744186046512,
		  "velocity": 60
		},
		{
		  "duration": 0.0436046511627907,
		  "pitch": 41,
		  "start": 271.744186046512,
		  "velocity": 80
		},
		{
		  "duration": 0.0436046511627907,
		  "pitch": 42,
		  "start": 272.093023255814,
		  "velocity": 60
		},
		{
		  "duration": 0.0436046511627907,
		  "pitch": 36,
		  "start": 272.093023255814,
		  "velocity": 80
		},
		{
		  "duration": 0.0436046511627907,
		  "pitch": 42,
		  "start": 272.325581395349,
		  "velocity": 60
		},
		{
		  "duration": 0.0436046511627907,
		  "pitch": 36,
		  "start": 272.325581395349,
		  "velocity": 80
		},
		{
		  "duration": 0.0436046511627907,
		  "pitch": 42,
		  "start": 272.441860465116,
		  "velocity": 60
		},
		{
		  "duration": 0.0436046511627907,
		  "pitch": 38,
		  "start": 272.441860465116,
		  "velocity": 80
		},
		{
		  "duration": 0.0436046511627907,
		  "pitch": 46,
		  "start": 272.558139534884,
		  "velocity": 80
		},
		{
		  "duration": 0.0436046511627907,
		  "pitch": 42,
		  "start": 272.674418604651,
		  "velocity": 60
		},
		{
		  "duration": 0.0436046511627907,
		  "pitch": 42,
		  "start": 272.790697674419,
		  "velocity": 60
		},
		{
		  "duration": 0.0436046511627907,
		  "pitch": 36,
		  "start": 272.790697674419,
		  "velocity": 80
		},
		{
		  "duration": 0.0436046511627907,
		  "pitch": 48,
		  "start": 272.906976744186,
		  "velocity": 80
		},
		{
		  "duration": 0.0436046511627907,
		  "pitch": 36,
		  "start": 273.023255813953,
		  "velocity": 80
		},
		{
		  "duration": 0.0436046511627907,
		  "pitch": 48,
		  "start": 273.023255813953,
		  "velocity": 80
		},
		{
		  "duration": 0.0436046511627907,
		  "pitch": 45,
		  "start": 273.139534883721,
		  "velocity": 80
		},
		{
		  "duration": 0.0436046511627907,
		  "pitch": 45,
		  "start": 273.255813953488,
		  "velocity": 80
		},
		{
		  "duration": 0.0436046511627907,
		  "pitch": 41,
		  "start": 273.372093023256,
		  "velocity": 80
		},
		{
		  "duration": 0.0436046511627907,
		  "pitch": 42,
		  "start": 273.488372093023,
		  "velocity": 60
		},
		{
		  "duration": 0.0436046511627907,
		  "pitch": 36,
		  "start": 273.488372093023,
		  "velocity": 80
		},
		{
		  "duration": 0.0436046511627907,
		  "pitch": 42,
		  "start": 273.720930232558,
		  "velocity": 60
		},
		{
		  "duration": 0.0436046511627907,
		  "pitch": 36,
		  "start": 273.720930232558,
		  "velocity": 80
		},
		{
		  "duration": 0.0436046511627907,
		  "pitch": 42,
		  "start": 273.837209302326,
		  "velocity": 60
		},
		{
		  "duration": 0.0436046511627907,
		  "pitch": 38,
		  "start": 273.837209302326,
		  "velocity": 80
		},
		{
		  "duration": 0.0436046511627907,
		  "pitch": 49,
		  "start": 273.837209302326,
		  "velocity": 80
		},
		{
		  "duration": 0.0436046511627907,
		  "pitch": 46,
		  "start": 273.953488372093,
		  "velocity": 80
		},
		{
		  "duration": 0.0436046511627907,
		  "pitch": 42,
		  "start": 274.06976744186,
		  "velocity": 60
		},
		{
		  "duration": 0.0436046511627907,
		  "pitch": 42,
		  "start": 274.186046511628,
		  "velocity": 60
		},
		{
		  "duration": 0.0436046511627907,
		  "pitch": 36,
		  "start": 274.186046511628,
		  "velocity": 80
		},
		{
		  "duration": 0.0436046511627907,
		  "pitch": 42,
		  "start": 274.418604651163,
		  "velocity": 60
		},
		{
		  "duration": 0.0436046511627907,
		  "pitch": 36,
		  "start": 274.418604651163,
		  "velocity": 80
		},
		{
		  "duration": 0.0436046511627907,
		  "pitch": 42,
		  "start": 274.53488372093,
		  "velocity": 60
		},
		{
		  "duration": 0.0436046511627907,
		  "pitch": 41,
		  "start": 274.53488372093,
		  "velocity": 80
		},
		{
		  "duration": 0.0436046511627907,
		  "pitch": 42,
		  "start": 274.883720930233,
		  "velocity": 60
		},
		{
		  "duration": 0.0436046511627907,
		  "pitch": 36,
		  "start": 274.883720930233,
		  "velocity": 80
		},
		{
		  "duration": 0.0436046511627907,
		  "pitch": 42,
		  "start": 275.116279069767,
		  "velocity": 60
		},
		{
		  "duration": 0.0436046511627907,
		  "pitch": 36,
		  "start": 275.116279069767,
		  "velocity": 80
		},
		{
		  "duration": 0.0436046511627907,
		  "pitch": 42,
		  "start": 275.232558139535,
		  "velocity": 60
		},
		{
		  "duration": 0.0436046511627907,
		  "pitch": 38,
		  "start": 275.232558139535,
		  "velocity": 80
		},
		{
		  "duration": 0.0436046511627907,
		  "pitch": 49,
		  "start": 275.232558139535,
		  "velocity": 80
		},
		{
		  "duration": 0.0436046511627907,
		  "pitch": 46,
		  "start": 275.348837209302,
		  "velocity": 80
		},
		{
		  "duration": 0.0436046511627907,
		  "pitch": 42,
		  "start": 275.46511627907,
		  "velocity": 60
		},
		{
		  "duration": 0.0436046511627907,
		  "pitch": 42,
		  "start": 275.581395348837,
		  "velocity": 60
		},
		{
		  "duration": 0.0436046511627907,
		  "pitch": 36,
		  "start": 275.581395348837,
		  "velocity": 80
		},
		{
		  "duration": 0.0436046511627907,
		  "pitch": 42,
		  "start": 275.813953488372,
		  "velocity": 60
		},
		{
		  "duration": 0.0436046511627907,
		  "pitch": 36,
		  "start": 275.813953488372,
		  "velocity": 80
		},
		{
		  "duration": 0.0436046511627907,
		  "pitch": 42,
		  "start": 275.93023255814,
		  "velocity": 60
		},
		{
		  "duration": 0.0436046511627907,
		  "pitch": 41,
		  "start": 275.93023255814,
		  "velocity": 80
		},
		{
		  "duration": 0.0436046511627907,
		  "pitch": 42,
		  "start": 276.279069767442,
		  "velocity": 60
		},
		{
		  "duration": 0.0436046511627907,
		  "pitch": 36,
		  "start": 276.279069767442,
		  "velocity": 80
		},
		{
		  "duration": 0.0436046511627907,
		  "pitch": 42,
		  "start": 276.511627906977,
		  "velocity": 60
		},
		{
		  "duration": 0.0436046511627907,
		  "pitch": 36,
		  "start": 276.511627906977,
		  "velocity": 80
		},
		{
		  "duration": 0.0436046511627907,
		  "pitch": 42,
		  "start": 276.627906976744,
		  "velocity": 60
		},
		{
		  "duration": 0.0436046511627907,
		  "pitch": 38,
		  "start": 276.627906976744,
		  "velocity": 80
		},
		{
		  "duration": 0.0436046511627907,
		  "pitch": 49,
		  "start": 276.627906976744,
		  "velocity": 80
		},
		{
		  "duration": 0.0436046511627907,
		  "pitch": 46,
		  "start": 276.744186046512,
		  "velocity": 80
		},
		{
		  "duration": 0.0436046511627907,
		  "pitch": 42,
		  "start": 276.860465116279,
		  "velocity": 60
		},
		{
		  "duration": 0.0436046511627907,
		  "pitch": 42,
		  "start": 276.976744186047,
		  "velocity": 60
		},
		{
		  "duration": 0.0436046511627907,
		  "pitch": 36,
		  "start": 276.976744186047,
		  "velocity": 80
		},
		{
		  "duration": 0.0436046511627907,
		  "pitch": 42,
		  "start": 277.209302325581,
		  "velocity": 60
		},
		{
		  "duration": 0.0436046511627907,
		  "pitch": 36,
		  "start": 277.209302325581,
		  "velocity": 80
		},
		{
		  "duration": 0.0436046511627907,
		  "pitch": 42,
		  "start": 277.325581395349,
		  "velocity": 60
		},
		{
		  "duration": 0.0436046511627907,
		  "pitch": 41,
		  "start": 277.325581395349,
		  "velocity": 80
		},
		{
		  "duration": 0.0436046511627907,
		  "pitch": 42,
		  "start": 277.674418604651,
		  "velocity": 60
		},
		{
		  "duration": 0.0436046511627907,
		  "pitch": 36,
		  "start": 277.674418604651,
		  "velocity": 80
		},
		{
		  "duration": 0.0436046511627907,
		  "pitch": 42,
		  "start": 277.906976744186,
		  "velocity": 60
		},
		{
		  "duration": 0.0436046511627907,
		  "pitch": 36,
		  "start": 277.906976744186,
		  "velocity": 80
		},
		{
		  "duration": 0.0436046511627907,
		  "pitch": 42,
		  "start": 278.023255813953,
		  "velocity": 60
		},
		{
		  "duration": 0.0436046511627907,
		  "pitch": 38,
		  "start": 278.023255813953,
		  "velocity": 80
		},
		{
		  "duration": 0.0436046511627907,
		  "pitch": 49,
		  "start": 278.023255813953,
		  "velocity": 80
		},
		{
		  "duration": 0.0436046511627907,
		  "pitch": 46,
		  "start": 278.139534883721,
		  "velocity": 80
		},
		{
		  "duration": 0.0436046511627907,
		  "pitch": 42,
		  "start": 278.255813953488,
		  "velocity": 60
		},
		{
		  "duration": 0.0436046511627907,
		  "pitch": 42,
		  "start": 278.372093023256,
		  "velocity": 60
		},
		{
		  "duration": 0.0436046511627907,
		  "pitch": 36,
		  "start": 278.372093023256,
		  "velocity": 80
		},
		{
		  "duration": 0.0436046511627907,
		  "pitch": 42,
		  "start": 278.604651162791,
		  "velocity": 60
		},
		{
		  "duration": 0.0436046511627907,
		  "pitch": 36,
		  "start": 278.604651162791,
		  "velocity": 80
		},
		{
		  "duration": 0.0436046511627907,
		  "pitch": 42,
		  "start": 278.720930232558,
		  "velocity": 60
		},
		{
		  "duration": 0.0436046511627907,
		  "pitch": 41,
		  "start": 278.720930232558,
		  "velocity": 80
		},
		{
		  "duration": 0.0436046511627907,
		  "pitch": 42,
		  "start": 279.06976744186,
		  "velocity": 60
		},
		{
		  "duration": 0.0436046511627907,
		  "pitch": 36,
		  "start": 279.06976744186,
		  "velocity": 80
		},
		{
		  "duration": 0.0436046511627907,
		  "pitch": 42,
		  "start": 279.302325581395,
		  "velocity": 60
		},
		{
		  "duration": 0.0436046511627907,
		  "pitch": 36,
		  "start": 279.302325581395,
		  "velocity": 80
		},
		{
		  "duration": 0.0436046511627907,
		  "pitch": 42,
		  "start": 279.418604651163,
		  "velocity": 60
		},
		{
		  "duration": 0.0436046511627907,
		  "pitch": 38,
		  "start": 279.418604651163,
		  "velocity": 80
		},
		{
		  "duration": 0.0436046511627907,
		  "pitch": 49,
		  "start": 279.418604651163,
		  "velocity": 80
		},
		{
		  "duration": 0.0436046511627907,
		  "pitch": 46,
		  "start": 279.53488372093,
		  "velocity": 80
		},
		{
		  "duration": 0.0436046511627907,
		  "pitch": 42,
		  "start": 279.651162790698,
		  "velocity": 60
		},
		{
		  "duration": 0.0436046511627907,
		  "pitch": 42,
		  "start": 279.767441860465,
		  "velocity": 60
		},
		{
		  "duration": 0.0436046511627907,
		  "pitch": 36,
		  "start": 279.767441860465,
		  "velocity": 80
		},
		{
		  "duration": 0.0436046511627907,
		  "pitch": 42,
		  "start": 280.0,
		  "velocity": 60
		},
		{
		  "duration": 0.0436046511627907,
		  "pitch": 36,
		  "start": 280.0,
		  "velocity": 80
		},
		{
		  "duration": 0.0436046511627907,
		  "pitch": 42,
		  "start": 280.116279069767,
		  "velocity": 60
		},
		{
		  "duration": 0.0436046511627907,
		  "pitch": 41,
		  "start": 280.116279069767,
		  "velocity": 80
		},
		{
		  "duration": 0.0436046511627907,
		  "pitch": 42,
		  "start": 280.46511627907,
		  "velocity": 60
		},
		{
		  "duration": 0.0436046511627907,
		  "pitch": 36,
		  "start": 280.46511627907,
		  "velocity": 80
		},
		{
		  "duration": 0.0436046511627907,
		  "pitch": 42,
		  "start": 280.697674418605,
		  "velocity": 60
		},
		{
		  "duration": 0.0436046511627907,
		  "pitch": 36,
		  "start": 280.697674418605,
		  "velocity": 80
		},
		{
		  "duration": 0.0436046511627907,
		  "pitch": 42,
		  "start": 280.813953488372,
		  "velocity": 60
		},
		{
		  "duration": 0.0436046511627907,
		  "pitch": 38,
		  "start": 280.813953488372,
		  "velocity": 80
		},
		{
		  "duration": 0.0436046511627907,
		  "pitch": 49,
		  "start": 280.813953488372,
		  "velocity": 80
		},
		{
		  "duration": 0.0436046511627907,
		  "pitch": 46,
		  "start": 280.93023255814,
		  "velocity": 80
		},
		{
		  "duration": 0.0436046511627907,
		  "pitch": 42,
		  "start": 281.046511627907,
		  "velocity": 60
		},
		{
		  "duration": 0.0436046511627907,
		  "pitch": 42,
		  "start": 281.162790697674,
		  "velocity": 60
		},
		{
		  "duration": 0.0436046511627907,
		  "pitch": 36,
		  "start": 281.162790697674,
		  "velocity": 80
		},
		{
		  "duration": 0.0436046511627907,
		  "pitch": 42,
		  "start": 281.395348837209,
		  "velocity": 60
		},
		{
		  "duration": 0.0436046511627907,
		  "pitch": 36,
		  "start": 281.395348837209,
		  "velocity": 80
		},
		{
		  "duration": 0.0436046511627907,
		  "pitch": 42,
		  "start": 281.511627906977,
		  "velocity": 60
		},
		{
		  "duration": 0.0436046511627907,
		  "pitch": 41,
		  "start": 281.511627906977,
		  "velocity": 80
		},
		{
		  "duration": 0.0436046511627907,
		  "pitch": 41,
		  "start": 281.744186046512,
		  "velocity": 80
		},
		{
		  "duration": 0.0436046511627907,
		  "pitch": 48,
		  "start": 281.860465116279,
		  "velocity": 64
		},
		{
		  "duration": 0.0436046511627907,
		  "pitch": 36,
		  "start": 281.860465116279,
		  "velocity": 80
		},
		{
		  "duration": 0.0436046511627907,
		  "pitch": 42,
		  "start": 281.860465116279,
		  "velocity": 60
		},
		{
		  "duration": 0.0436046511627907,
		  "pitch": 48,
		  "start": 281.918604651163,
		  "velocity": 80
		},
		{
		  "duration": 0.0436046511627907,
		  "pitch": 48,
		  "start": 281.976744186047,
		  "velocity": 80
		},
		{
		  "duration": 0.0436046511627907,
		  "pitch": 48,
		  "start": 282.093023255814,
		  "velocity": 80
		},
		{
		  "duration": 0.0436046511627907,
		  "pitch": 48,
		  "start": 282.209302325581,
		  "velocity": 80
		},
		{
		  "duration": 0.0436046511627907,
		  "pitch": 42,
		  "start": 282.209302325581,
		  "velocity": 60
		},
		{
		  "duration": 0.0436046511627907,
		  "pitch": 36,
		  "start": 282.558139534884,
		  "velocity": 80
		},
		{
		  "duration": 0.0436046511627907,
		  "pitch": 42,
		  "start": 282.558139534884,
		  "velocity": 60
		},
		{
		  "duration": 0.0436046511627907,
		  "pitch": 38,
		  "start": 282.674418604651,
		  "velocity": 80
		},
		{
		  "duration": 0.0436046511627907,
		  "pitch": 46,
		  "start": 282.732558139535,
		  "velocity": 80
		},
		{
		  "duration": 0.0436046511627907,
		  "pitch": 38,
		  "start": 282.906976744186,
		  "velocity": 80
		},
		{
		  "duration": 0.0436046511627907,
		  "pitch": 42,
		  "start": 282.906976744186,
		  "velocity": 60
		},
		{
		  "duration": 0.0436046511627907,
		  "pitch": 49,
		  "start": 282.906976744186,
		  "velocity": 80
		},
		{
		  "duration": 0.0436046511627907,
		  "pitch": 38,
		  "start": 283.023255813953,
		  "velocity": 80
		},
		{
		  "duration": 0.0436046511627907,
		  "pitch": 38,
		  "start": 283.139534883721,
		  "velocity": 80
		},
		{
		  "duration": 0.0436046511627907,
		  "pitch": 45,
		  "start": 283.255813953488,
		  "velocity": 80
		},
		{
		  "duration": 0.0436046511627907,
		  "pitch": 36,
		  "start": 283.255813953488,
		  "velocity": 80
		},
		{
		  "duration": 0.0436046511627907,
		  "pitch": 45,
		  "start": 283.372093023256,
		  "velocity": 80
		},
		{
		  "duration": 0.0436046511627907,
		  "pitch": 45,
		  "start": 283.488372093023,
		  "velocity": 80
		},
		{
		  "duration": 0.0436046511627907,
		  "pitch": 41,
		  "start": 283.604651162791,
		  "velocity": 80
		},
		{
		  "duration": 0.0436046511627907,
		  "pitch": 41,
		  "start": 283.720930232558,
		  "velocity": 80
		},
		{
		  "duration": 0.0436046511627907,
		  "pitch": 41,
		  "start": 283.837209302326,
		  "velocity": 80
		},
		{
		  "duration": 0.0436046511627907,
		  "pitch": 42,
		  "start": 283.953488372093,
		  "velocity": 60
		},
		{
		  "duration": 0.0436046511627907,
		  "pitch": 38,
		  "start": 283.953488372093,
		  "velocity": 80
		},
		{
		  "duration": 0.0436046511627907,
		  "pitch": 36,
		  "start": 283.953488372093,
		  "velocity": 80
		},
		{
		  "duration": 0.0436046511627907,
		  "pitch": 42,
		  "start": 284.186046511628,
		  "velocity": 60
		},
		{
		  "duration": 0.0436046511627907,
		  "pitch": 36,
		  "start": 284.186046511628,
		  "velocity": 80
		},
		{
		  "duration": 0.0436046511627907,
		  "pitch": 38,
		  "start": 284.302325581395,
		  "velocity": 80
		},
		{
		  "duration": 0.0436046511627907,
		  "pitch": 36,
		  "start": 284.302325581395,
		  "velocity": 80
		},
		{
		  "duration": 0.0436046511627907,
		  "pitch": 42,
		  "start": 284.418604651163,
		  "velocity": 60
		},
		{
		  "duration": 0.0436046511627907,
		  "pitch": 42,
		  "start": 284.53488372093,
		  "velocity": 60
		},
		{
		  "duration": 0.0436046511627907,
		  "pitch": 38,
		  "start": 284.651162790698,
		  "velocity": 80
		},
		{
		  "duration": 0.0436046511627907,
		  "pitch": 49,
		  "start": 284.651162790698,
		  "velocity": 80
		},
		{
		  "duration": 0.0436046511627907,
		  "pitch": 36,
		  "start": 284.651162790698,
		  "velocity": 80
		},
		{
		  "duration": 0.0436046511627907,
		  "pitch": 46,
		  "start": 284.651162790698,
		  "velocity": 80
		},
		{
		  "duration": 0.0436046511627907,
		  "pitch": 46,
		  "start": 285.0,
		  "velocity": 80
		},
		{
		  "duration": 0.0436046511627907,
		  "pitch": 46,
		  "start": 285.348837209302,
		  "velocity": 80
		},
		{
		  "duration": 0.0436046511627907,
		  "pitch": 46,
		  "start": 285.697674418605,
		  "velocity": 80
		},
		{
		  "duration": 0.0436046511627907,
		  "pitch": 46,
		  "start": 286.046511627907,
		  "velocity": 80
		},
		{
		  "duration": 0.0436046511627907,
		  "pitch": 46,
		  "start": 286.395348837209,
		  "velocity": 80
		},
		{
		  "duration": 0.0436046511627907,
		  "pitch": 46,
		  "start": 286.744186046512,
		  "velocity": 80
		},
		{
		  "duration": 0.0436046511627907,
		  "pitch": 46,
		  "start": 287.093023255814,
		  "velocity": 80
		},
		{
		  "duration": 0.0436046511627907,
		  "pitch": 38,
		  "start": 287.441860465116,
		  "velocity": 80
		},
		{
		  "duration": 0.0436046511627907,
		  "pitch": 49,
		  "start": 287.441860465116,
		  "velocity": 80
		},
		{
		  "duration": 0.0436046511627907,
		  "pitch": 36,
		  "start": 287.441860465116,
		  "velocity": 80
		},
		{
		  "duration": 0.0436046511627907,
		  "pitch": 46,
		  "start": 287.441860465116,
		  "velocity": 80
		},
		{
		  "duration": 0.0436046511627907,
		  "pitch": 46,
		  "start": 287.790697674419,
		  "velocity": 80
		},
		{
		  "duration": 0.0436046511627907,
		  "pitch": 46,
		  "start": 288.139534883721,
		  "velocity": 80
		},
		{
		  "duration": 0.0436046511627907,
		  "pitch": 46,
		  "start": 288.488372093023,
		  "velocity": 80
		},
		{
		  "duration": 0.0436046511627907,
		  "pitch": 46,
		  "start": 288.837209302326,
		  "velocity": 80
		},
		{
		  "duration": 0.0436046511627907,
		  "pitch": 46,
		  "start": 289.186046511628,
		  "velocity": 80
		},
		{
		  "duration": 0.0436046511627907,
		  "pitch": 46,
		  "start": 289.53488372093,
		  "velocity": 80
		},
		{
		  "duration": 0.0436046511627907,
		  "pitch": 48,
		  "start": 289.53488372093,
		  "velocity": 80
		},
		{
		  "duration": 0.0436046511627907,
		  "pitch": 46,
		  "start": 289.883720930233,
		  "velocity": 80
		},
		{
		  "duration": 0.0436046511627907,
		  "pitch": 45,
		  "start": 289.883720930233,
		  "velocity": 80
		},
		{
		  "duration": 0.0436046511627907,
		  "pitch": 41,
		  "start": 290.127906976744,
		  "velocity": 80
		},
		{
		  "duration": 0.0436046511627907,
		  "pitch": 38,
		  "start": 290.232558139535,
		  "velocity": 80
		},
		{
		  "duration": 0.0436046511627907,
		  "pitch": 49,
		  "start": 290.232558139535,
		  "velocity": 80
		},
		{
		  "duration": 0.0436046511627907,
		  "pitch": 36,
		  "start": 290.232558139535,
		  "velocity": 80
		},
		{
		  "duration": 0.0436046511627907,
		  "pitch": 46,
		  "start": 290.232558139535,
		  "velocity": 80
		},
		{
		  "duration": 0.0436046511627907,
		  "pitch": 46,
		  "start": 290.581395348837,
		  "velocity": 80
		},
		{
		  "duration": 0.0436046511627907,
		  "pitch": 46,
		  "start": 290.93023255814,
		  "velocity": 80
		},
		{
		  "duration": 0.0436046511627907,
		  "pitch": 46,
		  "start": 291.279069767442,
		  "velocity": 80
		},
		{
		  "duration": 0.0436046511627907,
		  "pitch": 46,
		  "start": 291.627906976744,
		  "velocity": 80
		},
		{
		  "duration": 0.0436046511627907,
		  "pitch": 46,
		  "start": 291.976744186047,
		  "velocity": 80
		},
		{
		  "duration": 0.0436046511627907,
		  "pitch": 45,
		  "start": 291.976744186047,
		  "velocity": 80
		},
		{
		  "duration": 0.0436046511627907,
		  "pitch": 46,
		  "start": 292.325581395349,
		  "velocity": 80
		},
		{
		  "duration": 0.0436046511627907,
		  "pitch": 48,
		  "start": 292.325581395349,
		  "velocity": 80
		},
		{
		  "duration": 0.0436046511627907,
		  "pitch": 48,
		  "start": 292.441860465116,
		  "velocity": 80
		},
		{
		  "duration": 0.0436046511627907,
		  "pitch": 45,
		  "start": 292.558139534884,
		  "velocity": 80
		},
		{
		  "duration": 0.0436046511627907,
		  "pitch": 46,
		  "start": 292.674418604651,
		  "velocity": 80
		},
		{
		  "duration": 0.0436046511627907,
		  "pitch": 45,
		  "start": 292.674418604651,
		  "velocity": 80
		},
		{
		  "duration": 0.0436046511627907,
		  "pitch": 38,
		  "start": 293.023255813953,
		  "velocity": 80
		},
		{
		  "duration": 0.0436046511627907,
		  "pitch": 49,
		  "start": 293.023255813953,
		  "velocity": 80
		},
		{
		  "duration": 0.0436046511627907,
		  "pitch": 36,
		  "start": 293.023255813953,
		  "velocity": 80
		},
		{
		  "duration": 0.0436046511627907,
		  "pitch": 46,
		  "start": 293.023255813953,
		  "velocity": 80
		},
		{
		  "duration": 0.0436046511627907,
		  "pitch": 46,
		  "start": 293.372093023256,
		  "velocity": 80
		},
		{
		  "duration": 0.0436046511627907,
		  "pitch": 46,
		  "start": 293.720930232558,
		  "velocity": 80
		},
		{
		  "duration": 0.0436046511627907,
		  "pitch": 46,
		  "start": 294.06976744186,
		  "velocity": 80
		},
		{
		  "duration": 0.0436046511627907,
		  "pitch": 46,
		  "start": 294.418604651163,
		  "velocity": 80
		},
		{
		  "duration": 0.0436046511627907,
		  "pitch": 46,
		  "start": 294.767441860465,
		  "velocity": 80
		},
		{
		  "duration": 0.0436046511627907,
		  "pitch": 46,
		  "start": 295.116279069767,
		  "velocity": 80
		},
		{
		  "duration": 0.0436046511627907,
		  "pitch": 45,
		  "start": 295.116279069767,
		  "velocity": 80
		},
		{
		  "duration": 0.0436046511627907,
		  "pitch": 45,
		  "start": 295.232558139535,
		  "velocity": 80
		},
		{
		  "duration": 0.0436046511627907,
		  "pitch": 41,
		  "start": 295.348837209302,
		  "velocity": 80
		},
		{
		  "duration": 0.0436046511627907,
		  "pitch": 46,
		  "start": 295.46511627907,
		  "velocity": 80
		},
		{
		  "duration": 0.0436046511627907,
		  "pitch": 36,
		  "start": 295.46511627907,
		  "velocity": 80
		},
		{
		  "duration": 0.0436046511627907,
		  "pitch": 38,
		  "start": 295.581395348837,
		  "velocity": 80
		},
		{
		  "duration": 0.0436046511627907,
		  "pitch": 53,
		  "start": 295.813953488372,
		  "velocity": 80
		},
		{
		  "duration": 0.0436046511627907,
		  "pitch": 36,
		  "start": 295.813953488372,
		  "velocity": 80
		},
		{
		  "duration": 0.0436046511627907,
		  "pitch": 53,
		  "start": 296.046511627907,
		  "velocity": 80
		},
		{
		  "duration": 0.0436046511627907,
		  "pitch": 36,
		  "start": 296.046511627907,
		  "velocity": 80
		},
		{
		  "duration": 0.0436046511627907,
		  "pitch": 38,
		  "start": 296.162790697674,
		  "velocity": 80
		},
		{
		  "duration": 0.0436046511627907,
		  "pitch": 53,
		  "start": 296.279069767442,
		  "velocity": 80
		},
		{
		  "duration": 0.0436046511627907,
		  "pitch": 53,
		  "start": 296.511627906977,
		  "velocity": 80
		},
		{
		  "duration": 0.0436046511627907,
		  "pitch": 36,
		  "start": 296.511627906977,
		  "velocity": 80
		},
		{
		  "duration": 0.0436046511627907,
		  "pitch": 38,
		  "start": 296.627906976744,
		  "velocity": 80
		},
		{
		  "duration": 0.0436046511627907,
		  "pitch": 53,
		  "start": 296.744186046512,
		  "velocity": 80
		},
		{
		  "duration": 0.0436046511627907,
		  "pitch": 36,
		  "start": 296.860465116279,
		  "velocity": 80
		},
		{
		  "duration": 0.0436046511627907,
		  "pitch": 53,
		  "start": 296.976744186047,
		  "velocity": 80
		},
		{
		  "duration": 0.0436046511627907,
		  "pitch": 36,
		  "start": 297.093023255814,
		  "velocity": 80
		},
		{
		  "duration": 0.0436046511627907,
		  "pitch": 36,
		  "start": 297.209302325581,
		  "velocity": 80
		},
		{
		  "duration": 0.0436046511627907,
		  "pitch": 53,
		  "start": 297.209302325581,
		  "velocity": 80
		},
		{
		  "duration": 0.0436046511627907,
		  "pitch": 53,
		  "start": 297.441860465116,
		  "velocity": 80
		},
		{
		  "duration": 0.0436046511627907,
		  "pitch": 36,
		  "start": 297.441860465116,
		  "velocity": 80
		},
		{
		  "duration": 0.0436046511627907,
		  "pitch": 38,
		  "start": 297.558139534884,
		  "velocity": 80
		},
		{
		  "duration": 0.0436046511627907,
		  "pitch": 53,
		  "start": 297.674418604651,
		  "velocity": 80
		},
		{
		  "duration": 0.0436046511627907,
		  "pitch": 53,
		  "start": 297.906976744186,
		  "velocity": 80
		},
		{
		  "duration": 0.0436046511627907,
		  "pitch": 53,
		  "start": 298.139534883721,
		  "velocity": 80
		},
		{
		  "duration": 0.0436046511627907,
		  "pitch": 38,
		  "start": 298.372093023256,
		  "velocity": 80
		},
		{
		  "duration": 0.0436046511627907,
		  "pitch": 49,
		  "start": 298.372093023256,
		  "velocity": 80
		},
		{
		  "duration": 0.0436046511627907,
		  "pitch": 53,
		  "start": 298.604651162791,
		  "velocity": 80
		},
		{
		  "duration": 0.0436046511627907,
		  "pitch": 36,
		  "start": 298.604651162791,
		  "velocity": 80
		},
		{
		  "duration": 0.0436046511627907,
		  "pitch": 53,
		  "start": 298.837209302326,
		  "velocity": 80
		},
		{
		  "duration": 0.0436046511627907,
		  "pitch": 36,
		  "start": 298.837209302326,
		  "velocity": 80
		},
		{
		  "duration": 0.0436046511627907,
		  "pitch": 38,
		  "start": 298.953488372093,
		  "velocity": 80
		},
		{
		  "duration": 0.0436046511627907,
		  "pitch": 53,
		  "start": 299.06976744186,
		  "velocity": 80
		},
		{
		  "duration": 0.0436046511627907,
		  "pitch": 53,
		  "start": 299.302325581395,
		  "velocity": 80
		},
		{
		  "duration": 0.0436046511627907,
		  "pitch": 36,
		  "start": 299.302325581395,
		  "velocity": 80
		},
		{
		  "duration": 0.0436046511627907,
		  "pitch": 38,
		  "start": 299.418604651163,
		  "velocity": 80
		},
		{
		  "duration": 0.0436046511627907,
		  "pitch": 53,
		  "start": 299.53488372093,
		  "velocity": 80
		},
		{
		  "duration": 0.0436046511627907,
		  "pitch": 36,
		  "start": 299.651162790698,
		  "velocity": 80
		},
		{
		  "duration": 0.0436046511627907,
		  "pitch": 53,
		  "start": 299.767441860465,
		  "velocity": 80
		},
		{
		  "duration": 0.0436046511627907,
		  "pitch": 36,
		  "start": 299.883720930233,
		  "velocity": 80
		},
		{
		  "duration": 0.0436046511627907,
		  "pitch": 36,
		  "start": 300.0,
		  "velocity": 80
		},
		{
		  "duration": 0.0436046511627907,
		  "pitch": 53,
		  "start": 300.0,
		  "velocity": 80
		},
		{
		  "duration": 0.0436046511627907,
		  "pitch": 53,
		  "start": 300.232558139535,
		  "velocity": 80
		},
		{
		  "duration": 0.0436046511627907,
		  "pitch": 36,
		  "start": 300.232558139535,
		  "velocity": 80
		},
		{
		  "duration": 0.0436046511627907,
		  "pitch": 38,
		  "start": 300.348837209302,
		  "velocity": 80
		},
		{
		  "duration": 0.0436046511627907,
		  "pitch": 53,
		  "start": 300.46511627907,
		  "velocity": 80
		},
		{
		  "duration": 0.0436046511627907,
		  "pitch": 53,
		  "start": 300.697674418605,
		  "velocity": 80
		},
		{
		  "duration": 0.0436046511627907,
		  "pitch": 36,
		  "start": 300.813953488372,
		  "velocity": 80
		},
		{
		  "duration": 0.0436046511627907,
		  "pitch": 53,
		  "start": 300.93023255814,
		  "velocity": 80
		},
		{
		  "duration": 0.0436046511627907,
		  "pitch": 38,
		  "start": 301.046511627907,
		  "velocity": 80
		},
		{
		  "duration": 0.0436046511627907,
		  "pitch": 49,
		  "start": 301.046511627907,
		  "velocity": 80
		},
		{
		  "duration": 0.0436046511627907,
		  "pitch": 53,
		  "start": 301.395348837209,
		  "velocity": 80
		},
		{
		  "duration": 0.0436046511627907,
		  "pitch": 36,
		  "start": 301.395348837209,
		  "velocity": 80
		},
		{
		  "duration": 0.0436046511627907,
		  "pitch": 53,
		  "start": 301.627906976744,
		  "velocity": 80
		},
		{
		  "duration": 0.0436046511627907,
		  "pitch": 36,
		  "start": 301.627906976744,
		  "velocity": 80
		},
		{
		  "duration": 0.0436046511627907,
		  "pitch": 38,
		  "start": 301.744186046512,
		  "velocity": 80
		},
		{
		  "duration": 0.0436046511627907,
		  "pitch": 53,
		  "start": 301.860465116279,
		  "velocity": 80
		},
		{
		  "duration": 0.0436046511627907,
		  "pitch": 53,
		  "start": 302.093023255814,
		  "velocity": 80
		},
		{
		  "duration": 0.0436046511627907,
		  "pitch": 36,
		  "start": 302.093023255814,
		  "velocity": 80
		},
		{
		  "duration": 0.0436046511627907,
		  "pitch": 38,
		  "start": 302.209302325581,
		  "velocity": 80
		},
		{
		  "duration": 0.0436046511627907,
		  "pitch": 53,
		  "start": 302.325581395349,
		  "velocity": 80
		},
		{
		  "duration": 0.0436046511627907,
		  "pitch": 36,
		  "start": 302.441860465116,
		  "velocity": 80
		},
		{
		  "duration": 0.0436046511627907,
		  "pitch": 53,
		  "start": 302.558139534884,
		  "velocity": 80
		},
		{
		  "duration": 0.0436046511627907,
		  "pitch": 36,
		  "start": 302.674418604651,
		  "velocity": 80
		},
		{
		  "duration": 0.0436046511627907,
		  "pitch": 36,
		  "start": 302.790697674419,
		  "velocity": 80
		},
		{
		  "duration": 0.0436046511627907,
		  "pitch": 53,
		  "start": 302.790697674419,
		  "velocity": 80
		},
		{
		  "duration": 0.0436046511627907,
		  "pitch": 53,
		  "start": 303.023255813953,
		  "velocity": 80
		},
		{
		  "duration": 0.0436046511627907,
		  "pitch": 36,
		  "start": 303.023255813953,
		  "velocity": 80
		},
		{
		  "duration": 0.0436046511627907,
		  "pitch": 38,
		  "start": 303.139534883721,
		  "velocity": 80
		},
		{
		  "duration": 0.0436046511627907,
		  "pitch": 53,
		  "start": 303.255813953488,
		  "velocity": 80
		},
		{
		  "duration": 0.0436046511627907,
		  "pitch": 53,
		  "start": 303.488372093023,
		  "velocity": 80
		},
		{
		  "duration": 0.0436046511627907,
		  "pitch": 53,
		  "start": 303.720930232558,
		  "velocity": 80
		},
		{
		  "duration": 0.0436046511627907,
		  "pitch": 38,
		  "start": 303.953488372093,
		  "velocity": 80
		},
		{
		  "duration": 0.0436046511627907,
		  "pitch": 49,
		  "start": 303.953488372093,
		  "velocity": 80
		},
		{
		  "duration": 0.0436046511627907,
		  "pitch": 53,
		  "start": 304.186046511628,
		  "velocity": 80
		},
		{
		  "duration": 0.0436046511627907,
		  "pitch": 36,
		  "start": 304.186046511628,
		  "velocity": 80
		},
		{
		  "duration": 0.0436046511627907,
		  "pitch": 53,
		  "start": 304.418604651163,
		  "velocity": 80
		},
		{
		  "duration": 0.0436046511627907,
		  "pitch": 36,
		  "start": 304.418604651163,
		  "velocity": 80
		},
		{
		  "duration": 0.0436046511627907,
		  "pitch": 38,
		  "start": 304.53488372093,
		  "velocity": 80
		},
		{
		  "duration": 0.0436046511627907,
		  "pitch": 53,
		  "start": 304.651162790698,
		  "velocity": 80
		},
		{
		  "duration": 0.0436046511627907,
		  "pitch": 53,
		  "start": 304.883720930233,
		  "velocity": 80
		},
		{
		  "duration": 0.0436046511627907,
		  "pitch": 36,
		  "start": 304.883720930233,
		  "velocity": 80
		},
		{
		  "duration": 0.0436046511627907,
		  "pitch": 38,
		  "start": 305.0,
		  "velocity": 80
		},
		{
		  "duration": 0.0436046511627907,
		  "pitch": 53,
		  "start": 305.116279069767,
		  "velocity": 80
		},
		{
		  "duration": 0.0436046511627907,
		  "pitch": 36,
		  "start": 305.232558139535,
		  "velocity": 80
		},
		{
		  "duration": 0.0436046511627907,
		  "pitch": 53,
		  "start": 305.348837209302,
		  "velocity": 80
		},
		{
		  "duration": 0.0436046511627907,
		  "pitch": 36,
		  "start": 305.46511627907,
		  "velocity": 80
		}
	  ]
	},
	{
	  "cc_events": [
		{
		  "controller": 7,
		  "time": 0.0,
		  "value": 70
		},
		{
		  "controller": 10,
		  "time": 0.0,
		  "value": 127
		},
		{
		  "controller": 10,
		  "time": 94.8837209302326,
		  "value": 0
		},
		{
		  "controller": 10,
		  "time": 189.767441860465,
		  "value": 0
		},
		{
		  "controller": 10,
		  "time": 284.651162790698,
		  "value": 0
		}
	  ],
	  "channel": 10,
	  "instrument": 71,
	  "name": "Delay",
	  "notes": [
		{
		  "duration": 0.116279069767442,
		  "pitch": 62,
		  "start": 61.5697674418605,
		  "velocity": 80
		},
		{
		  "duration": 0.116279069767442,
		  "pitch": 62,
		  "start": 61.8313953488372,
		  "velocity": 80
		},
		{
		  "duration": 0.697674418604651,
		  "pitch": 69,
		  "start": 61.9186046511628,
		  "velocity": 80
		},
		{
		  "duration": 0.116279069767442,
		  "pitch": 67,
		  "start": 62.6162790697674,
		  "velocity": 80
		},
		{
		  "duration": 0.116279069767442,
		  "pitch": 69,
		  "start": 62.703488372093,
		  "velocity": 80
		},
		{
		  "duration": 0.116279069767442,
		  "pitch": 70,
		  "start": 62.8779069767442,
		  "velocity": 80
		},
		{
		  "duration": 0.348837209302326,
		  "pitch": 69,
		  "start": 62.9651162790698,
		  "velocity": 80
		},
		{
		  "duration": 0.348837209302326,
		  "pitch": 65,
		  "start": 63.3139534883721,
		  "velocity": 80
		},
		{
		  "duration": 0.348837209302326,
		  "pitch": 67,
		  "start": 63.6627906976744,
		  "velocity": 80
		},
		{
		  "duration": 0.116279069767442,
		  "pitch": 65,
		  "start": 64.0116279069767,
		  "velocity": 80
		},
		{
		  "duration": 0.116279069767442,
		  "pitch": 64,
		  "start": 64.0988372093023,
		  "velocity": 80
		},
		{
		  "duration": 0.116279069767442,
		  "pitch": 62,
		  "start": 64.2732558139535,
		  "velocity": 80
		},
		{
		  "duration": 0.116279069767442,
		  "pitch": 64,
		  "start": 64.3604651162791,
		  "velocity": 80
		},
		{
		  "duration": 0.116279069767442,
		  "pitch": 60,
		  "start": 64.6220930232558,
		  "velocity": 80
		},
		{
		  "duration": 0.697674418604651,
		  "pitch": 62,
		  "start": 64.7093023255814,
		  "velocity": 80
		},
		{
		  "duration": 0.116279069767442,
		  "pitch": 60,
		  "start": 65.4069767441861,
		  "velocity": 80
		},
		{
		  "duration": 0.116279069767442,
		  "pitch": 62,
		  "start": 65.4941860465116,
		  "velocity": 80
		},
		{
		  "duration": 0.116279069767442,
		  "pitch": 64,
		  "start": 65.6686046511628,
		  "velocity": 80
		},
		{
		  "duration": 1.3953488372093,
		  "pitch": 62,
		  "start": 65.7558139534884,
		  "velocity": 80
		},
		{
		  "duration": 0.116279069767442,
		  "pitch": 57,
		  "start": 67.1511627906977,
		  "velocity": 80
		},
		{
		  "duration": 0.116279069767442,
		  "pitch": 57,
		  "start": 67.4127906976744,
		  "velocity": 80
		},
		{
		  "duration": 0.697674418604651,
		  "pitch": 64,
		  "start": 67.5,
		  "velocity": 80
		},
		{
		  "duration": 0.116279069767442,
		  "pitch": 62,
		  "start": 68.1976744186046,
		  "velocity": 80
		},
		{
		  "duration": 0.116279069767442,
		  "pitch": 64,
		  "start": 68.2848837209302,
		  "velocity": 80
		},
		{
		  "duration": 0.116279069767442,
		  "pitch": 65,
		  "start": 68.4593023255814,
		  "velocity": 80
		},
		{
		  "duration": 0.348837209302326,
		  "pitch": 64,
		  "start": 68.546511627907,
		  "velocity": 80
		},
		{
		  "duration": 0.348837209302326,
		  "pitch": 60,
		  "start": 68.8953488372093,
		  "velocity": 80
		},
		{
		  "duration": 0.348837209302326,
		  "pitch": 62,
		  "start": 69.2441860465116,
		  "velocity": 80
		},
		{
		  "duration": 0.116279069767442,
		  "pitch": 60,
		  "start": 69.5930232558139,
		  "velocity": 80
		},
		{
		  "duration": 0.116279069767442,
		  "pitch": 59,
		  "start": 69.6802325581395,
		  "velocity": 80
		},
		{
		  "duration": 0.116279069767442,
		  "pitch": 57,
		  "start": 69.8546511627907,
		  "velocity": 80
		},
		{
		  "duration": 0.116279069767442,
		  "pitch": 59,
		  "start": 69.9418604651163,
		  "velocity": 80
		},
		{
		  "duration": 0.116279069767442,
		  "pitch": 55,
		  "start": 70.203488372093,
		  "velocity": 80
		},
		{
		  "duration": 0.697674418604651,
		  "pitch": 57,
		  "start": 70.2906976744186,
		  "velocity": 80
		},
		{
		  "duration": 0.116279069767442,
		  "pitch": 55,
		  "start": 70.9883720930233,
		  "velocity": 80
		},
		{
		  "duration": 0.116279069767442,
		  "pitch": 57,
		  "start": 71.0755813953488,
		  "velocity": 80
		},
		{
		  "duration": 0.116279069767442,
		  "pitch": 59,
		  "start": 71.25,
		  "velocity": 80
		},
		{
		  "duration": 1.3953488372093,
		  "pitch": 57,
		  "start": 71.3372093023256,
		  "velocity": 80
		},
		{
		  "duration": 0.116279069767442,
		  "pitch": 62,
		  "start": 72.7325581395349,
		  "velocity": 80
		},
		{
		  "duration": 0.116279069767442,
		  "pitch": 62,
		  "start": 72.9941860465116,
		  "velocity": 80
		},
		{
		  "duration": 0.697674418604651,
		  "pitch": 69,
		  "start": 73.0813953488372,
		  "velocity": 80
		},
		{
		  "duration": 0.116279069767442,
		  "pitch": 67,
		  "start": 73.7790697674419,
		  "velocity": 80
		},
		{
		  "duration": 0.116279069767442,
		  "pitch": 69,
		  "start": 73.8662790697674,
		  "velocity": 80
		},
		{
		  "duration": 0.116279069767442,
		  "pitch": 70,
		  "start": 74.0406976744186,
		  "velocity": 80
		},
		{
		  "duration": 0.348837209302326,
		  "pitch": 69,
		  "start": 74.1279069767442,
		  "velocity": 80
		},
		{
		  "duration": 0.348837209302326,
		  "pitch": 65,
		  "start": 74.4767441860465,
		  "velocity": 80
		},
		{
		  "duration": 0.348837209302326,
		  "pitch": 67,
		  "start": 74.8255813953488,
		  "velocity": 80
		},
		{
		  "duration": 0.116279069767442,
		  "pitch": 65,
		  "start": 75.1744186046512,
		  "velocity": 80
		},
		{
		  "duration": 0.116279069767442,
		  "pitch": 64,
		  "start": 75.2616279069767,
		  "velocity": 80
		},
		{
		  "duration": 0.116279069767442,
		  "pitch": 62,
		  "start": 75.4360465116279,
		  "velocity": 80
		},
		{
		  "duration": 0.116279069767442,
		  "pitch": 64,
		  "start": 75.5232558139535,
		  "velocity": 80
		},
		{
		  "duration": 0.116279069767442,
		  "pitch": 60,
		  "start": 75.7848837209302,
		  "velocity": 80
		},
		{
		  "duration": 0.697674418604651,
		  "pitch": 62,
		  "start": 75.8720930232558,
		  "velocity": 80
		},
		{
		  "duration": 0.116279069767442,
		  "pitch": 60,
		  "start": 76.5697674418605,
		  "velocity": 80
		},
		{
		  "duration": 0.116279069767442,
		  "pitch": 62,
		  "start": 76.6569767441861,
		  "velocity": 80
		},
		{
		  "duration": 0.116279069767442,
		  "pitch": 64,
		  "start": 76.8313953488372,
		  "velocity": 80
		},
		{
		  "duration": 1.3953488372093,
		  "pitch": 62,
		  "start": 76.9186046511628,
		  "velocity": 80
		},
		{
		  "duration": 0.116279069767442,
		  "pitch": 57,
		  "start": 78.3139534883721,
		  "velocity": 80
		},
		{
		  "duration": 0.116279069767442,
		  "pitch": 57,
		  "start": 78.5755813953488,
		  "velocity": 80
		},
		{
		  "duration": 0.697674418604651,
		  "pitch": 64,
		  "start": 78.6627906976744,
		  "velocity": 80
		},
		{
		  "duration": 0.116279069767442,
		  "pitch": 62,
		  "start": 79.3604651162791,
		  "velocity": 80
		},
		{
		  "duration": 0.116279069767442,
		  "pitch": 64,
		  "start": 79.4476744186046,
		  "velocity": 80
		},
		{
		  "duration": 0.116279069767442,
		  "pitch": 65,
		  "start": 79.6220930232558,
		  "velocity": 80
		},
		{
		  "duration": 0.348837209302326,
		  "pitch": 64,
		  "start": 79.7093023255814,
		  "velocity": 80
		},
		{
		  "duration": 0.348837209302326,
		  "pitch": 60,
		  "start": 80.0581395348837,
		  "velocity": 80
		},
		{
		  "duration": 0.348837209302326,
		  "pitch": 62,
		  "start": 80.4069767441861,
		  "velocity": 80
		},
		{
		  "duration": 0.116279069767442,
		  "pitch": 60,
		  "start": 80.7558139534884,
		  "velocity": 80
		},
		{
		  "duration": 0.116279069767442,
		  "pitch": 59,
		  "start": 80.8430232558139,
		  "velocity": 80
		},
		{
		  "duration": 0.116279069767442,
		  "pitch": 57,
		  "start": 81.0174418604651,
		  "velocity": 80
		},
		{
		  "duration": 0.116279069767442,
		  "pitch": 59,
		  "start": 81.1046511627907,
		  "velocity": 80
		},
		{
		  "duration": 0.116279069767442,
		  "pitch": 55,
		  "start": 81.3662790697674,
		  "velocity": 80
		},
		{
		  "duration": 0.697674418604651,
		  "pitch": 57,
		  "start": 81.453488372093,
		  "velocity": 80
		},
		{
		  "duration": 0.116279069767442,
		  "pitch": 55,
		  "start": 82.1511627906977,
		  "velocity": 80
		},
		{
		  "duration": 0.116279069767442,
		  "pitch": 57,
		  "start": 82.2383720930233,
		  "velocity": 80
		},
		{
		  "duration": 0.116279069767442,
		  "pitch": 59,
		  "start": 82.4127906976744,
		  "velocity": 80
		},
		{
		  "duration": 1.3953488372093,
		  "pitch": 57,
		  "start": 82.5,
		  "velocity": 80
		},
		{
		  "duration": 0.116279069767442,
		  "pitch": 62,
		  "start": 83.8953488372093,
		  "velocity": 80
		},
		{
		  "duration": 0.116279069767442,
		  "pitch": 62,
		  "start": 84.1569767441861,
		  "velocity": 80
		},
		{
		  "duration": 0.697674418604651,
		  "pitch": 69,
		  "start": 84.2441860465116,
		  "velocity": 80
		},
		{
		  "duration": 0.116279069767442,
		  "pitch": 67,
		  "start": 84.9418604651163,
		  "velocity": 80
		},
		{
		  "duration": 0.116279069767442,
		  "pitch": 69,
		  "start": 85.0290697674419,
		  "velocity": 80
		},
		{
		  "duration": 0.116279069767442,
		  "pitch": 70,
		  "start": 85.203488372093,
		  "velocity": 80
		},
		{
		  "duration": 0.348837209302326,
		  "pitch": 69,
		  "start": 85.2906976744186,
		  "velocity": 80
		},
		{
		  "duration": 0.348837209302326,
		  "pitch": 65,
		  "start": 85.6395348837209,
		  "velocity": 80
		},
		{
		  "duration": 0.348837209302326,
		  "pitch": 67,
		  "start": 85.9883720930233,
		  "velocity": 80
		},
		{
		  "duration": 0.116279069767442,
		  "pitch": 65,
		  "start": 86.3372093023256,
		  "velocity": 80
		},
		{
		  "duration": 0.116279069767442,
		  "pitch": 64,
		  "start": 86.4244186046512,
		  "velocity": 80
		},
		{
		  "duration": 0.116279069767442,
		  "pitch": 62,
		  "start": 86.5988372093023,
		  "velocity": 80
		},
		{
		  "duration": 0.116279069767442,
		  "pitch": 64,
		  "start": 86.6860465116279,
		  "velocity": 80
		},
		{
		  "duration": 0.116279069767442,
		  "pitch": 60,
		  "start": 86.9476744186046,
		  "velocity": 80
		},
		{
		  "duration": 0.697674418604651,
		  "pitch": 62,
		  "start": 87.0348837209302,
		  "velocity": 80
		},
		{
		  "duration": 0.116279069767442,
		  "pitch": 60,
		  "start": 87.7325581395349,
		  "velocity": 80
		},
		{
		  "duration": 0.116279069767442,
		  "pitch": 62,
		  "start": 87.8197674418605,
		  "velocity": 80
		},
		{
		  "duration": 0.116279069767442,
		  "pitch": 64,
		  "start": 87.9941860465116,
		  "velocity": 80
		},
		{
		  "duration": 1.3953488372093,
		  "pitch": 62,
		  "start": 88.0813953488372,
		  "velocity": 80
		},
		{
		  "duration": 0.116279069767442,
		  "pitch": 57,
		  "start": 89.4767441860465,
		  "velocity": 80
		},
		{
		  "duration": 0.116279069767442,
		  "pitch": 57,
		  "start": 89.7383720930233,
		  "velocity": 80
		},
		{
		  "duration": 0.697674418604651,
		  "pitch": 64,
		  "start": 89.8255813953488,
		  "velocity": 80
		},
		{
		  "duration": 0.116279069767442,
		  "pitch": 62,
		  "start": 90.5232558139535,
		  "velocity": 80
		},
		{
		  "duration": 0.116279069767442,
		  "pitch": 64,
		  "start": 90.6104651162791,
		  "velocity": 80
		},
		{
		  "duration": 0.116279069767442,
		  "pitch": 65,
		  "start": 90.7848837209302,
		  "velocity": 80
		},
		{
		  "duration": 0.348837209302326,
		  "pitch": 64,
		  "start": 90.8720930232558,
		  "velocity": 80
		},
		{
		  "duration": 0.348837209302326,
		  "pitch": 60,
		  "start": 91.2209302325581,
		  "velocity": 80
		},
		{
		  "duration": 0.348837209302326,
		  "pitch": 62,
		  "start": 91.5697674418605,
		  "velocity": 80
		},
		{
		  "duration": 0.116279069767442,
		  "pitch": 60,
		  "start": 91.9186046511628,
		  "velocity": 80
		},
		{
		  "duration": 0.116279069767442,
		  "pitch": 59,
		  "start": 92.0058139534884,
		  "velocity": 80
		},
		{
		  "duration": 0.116279069767442,
		  "pitch": 57,
		  "start": 92.1802325581395,
		  "velocity": 80
		},
		{
		  "duration": 0.116279069767442,
		  "pitch": 55,
		  "start": 92.2674418604651,
		  "velocity": 80
		},
		{
		  "duration": 0.116279069767442,
		  "pitch": 60,
		  "start": 92.3546511627907,
		  "velocity": 80
		},
		{
		  "duration": 0.116279069767442,
		  "pitch": 64,
		  "start": 92.5290697674419,
		  "velocity": 80
		},
		{
		  "duration": 0.116279069767442,
		  "pitch": 67,
		  "start": 92.6162790697674,
		  "velocity": 80
		},
		{
		  "duration": 0.116279069767442,
		  "pitch": 72,
		  "start": 92.703488372093,
		  "velocity": 80
		},
		{
		  "duration": 0.116279069767442,
		  "pitch": 76,
		  "start": 92.8779069767442,
		  "velocity": 80
		},
		{
		  "duration": 0.116279069767442,
		  "pitch": 78,
		  "start": 92.9651162790698,
		  "velocity": 80
		},
		{
		  "duration": 0.116279069767442,
		  "pitch": 74,
		  "start": 93.0523255813954,
		  "velocity": 80
		},
		{
		  "duration": 0.116279069767442,
		  "pitch": 69,
		  "start": 93.2267441860465,
		  "velocity": 80
		},
		{
		  "duration": 0.116279069767442,
		  "pitch": 66,
		  "start": 93.3139534883721,
		  "velocity": 80
		},
		{
		  "duration": 0.116279069767442,
		  "pitch": 62,
		  "start": 93.4011627906977,
		  "velocity": 80
		},
		{
		  "duration": 0.0872093023255814,
		  "pitch": 57,
		  "start": 93.5755813953488,
		  "velocity": 80
		},
		{
		  "duration": 0.0290697674418605,
		  "pitch": 57,
		  "start": 93.6627906976744,
		  "velocity": 80
		},
		{
		  "duration": 0.116279069767442,
		  "pitch": 60,
		  "start": 93.75,
		  "velocity": 80
		},
		{
		  "duration": 0.116279069767442,
		  "pitch": 64,
		  "start": 93.9244186046512,
		  "velocity": 80
		},
		{
		  "duration": 0.116279069767442,
		  "pitch": 69,
		  "start": 94.0116279069767,
		  "velocity": 80
		},
		{
		  "duration": 0.116279069767442,
		  "pitch": 72,
		  "start": 94.0988372093023,
		  "velocity": 80
		},
		{
		  "duration": 0.116279069767442,
		  "pitch": 76,
		  "start": 94.2732558139535,
		  "velocity": 80
		},
		{
		  "duration": 0.116279069767442,
		  "pitch": 80,
		  "start": 94.3604651162791,
		  "velocity": 80
		},
		{
		  "duration": 0.116279069767442,
		  "pitch": 76,
		  "start": 94.4476744186046,
		  "velocity": 80
		},
		{
		  "duration": 0.116279069767442,
		  "pitch": 72,
		  "start": 94.6220930232558,
		  "velocity": 80
		},
		{
		  "duration": 0.116279069767442,
		  "pitch": 68,
		  "start": 94.7093023255814,
		  "velocity": 80
		},
		{
		  "duration": 0.116279069767442,
		  "pitch": 64,
		  "start": 94.796511627907,
		  "velocity": 80
		},
		{
		  "duration": 0.116279069767442,
		  "pitch": 60,
		  "start": 94.9709302325581,
		  "velocity": 80
		},
		{
		  "duration": 0.116279069767442,
		  "pitch": 57,
		  "start": 95.0581395348837,
		  "velocity": 80
		},
		{
		  "duration": 0.116279069767442,
		  "pitch": 60,
		  "start": 95.1453488372093,
		  "velocity": 80
		},
		{
		  "duration": 0.116279069767442,
		  "pitch": 64,
		  "start": 95.3197674418605,
		  "velocity": 80
		},
		{
		  "duration": 0.116279069767442,
		  "pitch": 69,
		  "start": 95.4069767441861,
		  "velocity": 80
		},
		{
		  "duration": 0.116279069767442,
		  "pitch": 72,
		  "start": 95.4941860465116,
		  "velocity": 80
		},
		{
		  "duration": 0.116279069767442,
		  "pitch": 76,
		  "start": 95.6686046511628,
		  "velocity": 80
		},
		{
		  "duration": 0.116279069767442,
		  "pitch": 81,
		  "start": 95.7558139534884,
		  "velocity": 80
		},
		{
		  "duration": 0.116279069767442,
		  "pitch": 76,
		  "start": 95.8430232558139,
		  "velocity": 80
		},
		{
		  "duration": 0.116279069767442,
		  "pitch": 72,
		  "start": 96.0174418604651,
		  "velocity": 80
		},
		{
		  "duration": 0.116279069767442,
		  "pitch": 69,
		  "start": 96.1046511627907,
		  "velocity": 80
		},
		{
		  "duration": 0.116279069767442,
		  "pitch": 64,
		  "start": 96.1918604651163,
		  "velocity": 80
		},
		{
		  "duration": 0.116279069767442,
		  "pitch": 60,
		  "start": 96.3662790697674,
		  "velocity": 80
		},
		{
		  "duration": 0.116279069767442,
		  "pitch": 57,
		  "start": 96.453488372093,
		  "velocity": 80
		},
		{
		  "duration": 0.116279069767442,
		  "pitch": 60,
		  "start": 96.5406976744186,
		  "velocity": 80
		},
		{
		  "duration": 0.116279069767442,
		  "pitch": 64,
		  "start": 96.7151162790698,
		  "velocity": 80
		},
		{
		  "duration": 0.116279069767442,
		  "pitch": 69,
		  "start": 96.8023255813954,
		  "velocity": 80
		},
		{
		  "duration": 0.101744186046512,
		  "pitch": 64,
		  "start": 96.8895348837209,
		  "velocity": 80
		},
		{
		  "duration": 0.116279069767442,
		  "pitch": 60,
		  "start": 97.0639534883721,
		  "velocity": 60
		},
		{
		  "duration": 0.116279069767442,
		  "pitch": 57,
		  "start": 97.1511627906977,
		  "velocity": 50
		},
		{
		  "duration": 0.116279069767442,
		  "pitch": 62,
		  "start": 156.453488372093,
		  "velocity": 80
		},
		{
		  "duration": 0.116279069767442,
		  "pitch": 62,
		  "start": 156.71511627907,
		  "velocity": 80
		},
		{
		  "duration": 0.697674418604651,
		  "pitch": 69,
		  "start": 156.802325581395,
		  "velocity": 80
		},
		{
		  "duration": 0.116279069767442,
		  "pitch": 67,
		  "start": 157.5,
		  "velocity": 80
		},
		{
		  "duration": 0.116279069767442,
		  "pitch": 69,
		  "start": 157.587209302326,
		  "velocity": 80
		},
		{
		  "duration": 0.116279069767442,
		  "pitch": 70,
		  "start": 157.761627906977,
		  "velocity": 80
		},
		{
		  "duration": 0.348837209302326,
		  "pitch": 69,
		  "start": 157.848837209302,
		  "velocity": 80
		},
		{
		  "duration": 0.348837209302326,
		  "pitch": 65,
		  "start": 158.197674418605,
		  "velocity": 80
		},
		{
		  "duration": 0.348837209302326,
		  "pitch": 67,
		  "start": 158.546511627907,
		  "velocity": 80
		},
		{
		  "duration": 0.116279069767442,
		  "pitch": 65,
		  "start": 158.895348837209,
		  "velocity": 80
		},
		{
		  "duration": 0.116279069767442,
		  "pitch": 64,
		  "start": 158.982558139535,
		  "velocity": 80
		},
		{
		  "duration": 0.116279069767442,
		  "pitch": 62,
		  "start": 159.156976744186,
		  "velocity": 80
		},
		{
		  "duration": 0.116279069767442,
		  "pitch": 64,
		  "start": 159.244186046512,
		  "velocity": 80
		},
		{
		  "duration": 0.116279069767442,
		  "pitch": 60,
		  "start": 159.505813953488,
		  "velocity": 80
		},
		{
		  "duration": 0.697674418604651,
		  "pitch": 62,
		  "start": 159.593023255814,
		  "velocity": 80
		},
		{
		  "duration": 0.116279069767442,
		  "pitch": 60,
		  "start": 160.290697674419,
		  "velocity": 80
		},
		{
		  "duration": 0.116279069767442,
		  "pitch": 62,
		  "start": 160.377906976744,
		  "velocity": 80
		},
		{
		  "duration": 0.116279069767442,
		  "pitch": 64,
		  "start": 160.552325581395,
		  "velocity": 80
		},
		{
		  "duration": 1.3953488372093,
		  "pitch": 62,
		  "start": 160.639534883721,
		  "velocity": 80
		},
		{
		  "duration": 0.116279069767442,
		  "pitch": 57,
		  "start": 162.03488372093,
		  "velocity": 80
		},
		{
		  "duration": 0.116279069767442,
		  "pitch": 57,
		  "start": 162.296511627907,
		  "velocity": 80
		},
		{
		  "duration": 0.697674418604651,
		  "pitch": 64,
		  "start": 162.383720930233,
		  "velocity": 80
		},
		{
		  "duration": 0.116279069767442,
		  "pitch": 62,
		  "start": 163.081395348837,
		  "velocity": 80
		},
		{
		  "duration": 0.116279069767442,
		  "pitch": 64,
		  "start": 163.168604651163,
		  "velocity": 80
		},
		{
		  "duration": 0.116279069767442,
		  "pitch": 65,
		  "start": 163.343023255814,
		  "velocity": 80
		},
		{
		  "duration": 0.348837209302326,
		  "pitch": 64,
		  "start": 163.43023255814,
		  "velocity": 80
		},
		{
		  "duration": 0.348837209302326,
		  "pitch": 60,
		  "start": 163.779069767442,
		  "velocity": 80
		},
		{
		  "duration": 0.348837209302326,
		  "pitch": 62,
		  "start": 164.127906976744,
		  "velocity": 80
		},
		{
		  "duration": 0.116279069767442,
		  "pitch": 60,
		  "start": 164.476744186047,
		  "velocity": 80
		},
		{
		  "duration": 0.116279069767442,
		  "pitch": 59,
		  "start": 164.563953488372,
		  "velocity": 80
		},
		{
		  "duration": 0.116279069767442,
		  "pitch": 57,
		  "start": 164.738372093023,
		  "velocity": 80
		},
		{
		  "duration": 0.116279069767442,
		  "pitch": 59,
		  "start": 164.825581395349,
		  "velocity": 80
		},
		{
		  "duration": 0.116279069767442,
		  "pitch": 55,
		  "start": 165.087209302326,
		  "velocity": 80
		},
		{
		  "duration": 0.697674418604651,
		  "pitch": 57,
		  "start": 165.174418604651,
		  "velocity": 80
		},
		{
		  "duration": 0.116279069767442,
		  "pitch": 55,
		  "start": 165.872093023256,
		  "velocity": 80
		},
		{
		  "duration": 0.116279069767442,
		  "pitch": 57,
		  "start": 165.959302325581,
		  "velocity": 80
		},
		{
		  "duration": 0.116279069767442,
		  "pitch": 59,
		  "start": 166.133720930233,
		  "velocity": 80
		},
		{
		  "duration": 1.3953488372093,
		  "pitch": 57,
		  "start": 166.220930232558,
		  "velocity": 80
		},
		{
		  "duration": 0.116279069767442,
		  "pitch": 62,
		  "start": 167.616279069767,
		  "velocity": 80
		},
		{
		  "duration": 0.116279069767442,
		  "pitch": 62,
		  "start": 167.877906976744,
		  "velocity": 80
		},
		{
		  "duration": 0.697674418604651,
		  "pitch": 69,
		  "start": 167.96511627907,
		  "velocity": 80
		},
		{
		  "duration": 0.116279069767442,
		  "pitch": 67,
		  "start": 168.662790697674,
		  "velocity": 80
		},
		{
		  "duration": 0.116279069767442,
		  "pitch": 69,
		  "start": 168.75,
		  "velocity": 80
		},
		{
		  "duration": 0.116279069767442,
		  "pitch": 70,
		  "start": 168.924418604651,
		  "velocity": 80
		},
		{
		  "duration": 0.348837209302326,
		  "pitch": 69,
		  "start": 169.011627906977,
		  "velocity": 80
		},
		{
		  "duration": 0.348837209302326,
		  "pitch": 65,
		  "start": 169.360465116279,
		  "velocity": 80
		},
		{
		  "duration": 0.348837209302326,
		  "pitch": 67,
		  "start": 169.709302325581,
		  "velocity": 80
		},
		{
		  "duration": 0.116279069767442,
		  "pitch": 65,
		  "start": 170.058139534884,
		  "velocity": 80
		},
		{
		  "duration": 0.116279069767442,
		  "pitch": 64,
		  "start": 170.145348837209,
		  "velocity": 80
		},
		{
		  "duration": 0.116279069767442,
		  "pitch": 62,
		  "start": 170.31976744186,
		  "velocity": 80
		},
		{
		  "duration": 0.116279069767442,
		  "pitch": 64,
		  "start": 170.406976744186,
		  "velocity": 80
		},
		{
		  "duration": 0.116279069767442,
		  "pitch": 60,
		  "start": 170.668604651163,
		  "velocity": 80
		},
		{
		  "duration": 0.697674418604651,
		  "pitch": 62,
		  "start": 170.755813953488,
		  "velocity": 80
		},
		{
		  "duration": 0.116279069767442,
		  "pitch": 60,
		  "start": 171.453488372093,
		  "velocity": 80
		},
		{
		  "duration": 0.116279069767442,
		  "pitch": 62,
		  "start": 171.540697674419,
		  "velocity": 80
		},
		{
		  "duration": 0.116279069767442,
		  "pitch": 64,
		  "start": 171.71511627907,
		  "velocity": 80
		},
		{
		  "duration": 1.3953488372093,
		  "pitch": 62,
		  "start": 171.802325581395,
		  "velocity": 80
		},
		{
		  "duration": 0.116279069767442,
		  "pitch": 57,
		  "start": 173.197674418605,
		  "velocity": 80
		},
		{
		  "duration": 0.116279069767442,
		  "pitch": 57,
		  "start": 173.459302325581,
		  "velocity": 80
		},
		{
		  "duration": 0.697674418604651,
		  "pitch": 64,
		  "start": 173.546511627907,
		  "velocity": 80
		},
		{
		  "duration": 0.116279069767442,
		  "pitch": 62,
		  "start": 174.244186046512,
		  "velocity": 80
		},
		{
		  "duration": 0.116279069767442,
		  "pitch": 64,
		  "start": 174.331395348837,
		  "velocity": 80
		},
		{
		  "duration": 0.116279069767442,
		  "pitch": 65,
		  "start": 174.505813953488,
		  "velocity": 80
		},
		{
		  "duration": 0.348837209302326,
		  "pitch": 64,
		  "start": 174.593023255814,
		  "velocity": 80
		},
		{
		  "duration": 0.348837209302326,
		  "pitch": 60,
		  "start": 174.941860465116,
		  "velocity": 80
		},
		{
		  "duration": 0.348837209302326,
		  "pitch": 62,
		  "start": 175.290697674419,
		  "velocity": 80
		},
		{
		  "duration": 0.116279069767442,
		  "pitch": 60,
		  "start": 175.639534883721,
		  "velocity": 80
		},
		{
		  "duration": 0.116279069767442,
		  "pitch": 59,
		  "start": 175.726744186047,
		  "velocity": 80
		},
		{
		  "duration": 0.116279069767442,
		  "pitch": 57,
		  "start": 175.901162790698,
		  "velocity": 80
		},
		{
		  "duration": 0.116279069767442,
		  "pitch": 59,
		  "start": 175.988372093023,
		  "velocity": 80
		},
		{
		  "duration": 0.116279069767442,
		  "pitch": 55,
		  "start": 176.25,
		  "velocity": 80
		},
		{
		  "duration": 0.697674418604651,
		  "pitch": 57,
		  "start": 176.337209302326,
		  "velocity": 80
		},
		{
		  "duration": 0.116279069767442,
		  "pitch": 55,
		  "start": 177.03488372093,
		  "velocity": 80
		},
		{
		  "duration": 0.116279069767442,
		  "pitch": 57,
		  "start": 177.122093023256,
		  "velocity": 80
		},
		{
		  "duration": 0.116279069767442,
		  "pitch": 59,
		  "start": 177.296511627907,
		  "velocity": 80
		},
		{
		  "duration": 1.3953488372093,
		  "pitch": 57,
		  "start": 177.383720930233,
		  "velocity": 80
		},
		{
		  "duration": 0.116279069767442,
		  "pitch": 62,
		  "start": 178.779069767442,
		  "velocity": 80
		},
		{
		  "duration": 0.116279069767442,
		  "pitch": 62,
		  "start": 179.040697674419,
		  "velocity": 80
		},
		{
		  "duration": 0.697674418604651,
		  "pitch": 69,
		  "start": 179.127906976744,
		  "velocity": 80
		},
		{
		  "duration": 0.116279069767442,
		  "pitch": 67,
		  "start": 179.825581395349,
		  "velocity": 80
		},
		{
		  "duration": 0.116279069767442,
		  "pitch": 69,
		  "start": 179.912790697674,
		  "velocity": 80
		},
		{
		  "duration": 0.116279069767442,
		  "pitch": 70,
		  "start": 180.087209302326,
		  "velocity": 80
		},
		{
		  "duration": 0.348837209302326,
		  "pitch": 69,
		  "start": 180.174418604651,
		  "velocity": 80
		},
		{
		  "duration": 0.348837209302326,
		  "pitch": 65,
		  "start": 180.523255813953,
		  "velocity": 80
		},
		{
		  "duration": 0.348837209302326,
		  "pitch": 67,
		  "start": 180.872093023256,
		  "velocity": 80
		},
		{
		  "duration": 0.116279069767442,
		  "pitch": 65,
		  "start": 181.220930232558,
		  "velocity": 80
		},
		{
		  "duration": 0.116279069767442,
		  "pitch": 64,
		  "start": 181.308139534884,
		  "velocity": 80
		},
		{
		  "duration": 0.116279069767442,
		  "pitch": 62,
		  "start": 181.482558139535,
		  "velocity": 80
		},
		{
		  "duration": 0.116279069767442,
		  "pitch": 64,
		  "start": 181.56976744186,
		  "velocity": 80
		},
		{
		  "duration": 0.116279069767442,
		  "pitch": 60,
		  "start": 181.831395348837,
		  "velocity": 80
		},
		{
		  "duration": 0.697674418604651,
		  "pitch": 62,
		  "start": 181.918604651163,
		  "velocity": 80
		},
		{
		  "duration": 0.116279069767442,
		  "pitch": 60,
		  "start": 182.616279069767,
		  "velocity": 80
		},
		{
		  "duration": 0.116279069767442,
		  "pitch": 62,
		  "start": 182.703488372093,
		  "velocity": 80
		},
		{
		  "duration": 0.116279069767442,
		  "pitch": 64,
		  "start": 182.877906976744,
		  "velocity": 80
		},
		{
		  "duration": 1.3953488372093,
		  "pitch": 62,
		  "start": 182.96511627907,
		  "velocity": 80
		},
		{
		  "duration": 0.116279069767442,
		  "pitch": 57,
		  "start": 184.360465116279,
		  "velocity": 80
		},
		{
		  "duration": 0.116279069767442,
		  "pitch": 57,
		  "start": 184.622093023256,
		  "velocity": 80
		},
		{
		  "duration": 0.697674418604651,
		  "pitch": 64,
		  "start": 184.709302325581,
		  "velocity": 80
		},
		{
		  "duration": 0.116279069767442,
		  "pitch": 62,
		  "start": 185.406976744186,
		  "velocity": 80
		},
		{
		  "duration": 0.116279069767442,
		  "pitch": 64,
		  "start": 185.494186046512,
		  "velocity": 80
		},
		{
		  "duration": 0.116279069767442,
		  "pitch": 65,
		  "start": 185.668604651163,
		  "velocity": 80
		},
		{
		  "duration": 0.348837209302326,
		  "pitch": 64,
		  "start": 185.755813953488,
		  "velocity": 80
		},
		{
		  "duration": 0.348837209302326,
		  "pitch": 60,
		  "start": 186.104651162791,
		  "velocity": 80
		},
		{
		  "duration": 0.348837209302326,
		  "pitch": 62,
		  "start": 186.453488372093,
		  "velocity": 80
		},
		{
		  "duration": 0.116279069767442,
		  "pitch": 60,
		  "start": 186.802325581395,
		  "velocity": 80
		},
		{
		  "duration": 0.116279069767442,
		  "pitch": 59,
		  "start": 186.889534883721,
		  "velocity": 80
		},
		{
		  "duration": 0.116279069767442,
		  "pitch": 57,
		  "start": 187.063953488372,
		  "velocity": 80
		},
		{
		  "duration": 0.116279069767442,
		  "pitch": 55,
		  "start": 187.151162790698,
		  "velocity": 80
		},
		{
		  "duration": 0.116279069767442,
		  "pitch": 60,
		  "start": 187.238372093023,
		  "velocity": 80
		},
		{
		  "duration": 0.116279069767442,
		  "pitch": 64,
		  "start": 187.412790697674,
		  "velocity": 80
		},
		{
		  "duration": 0.116279069767442,
		  "pitch": 67,
		  "start": 187.5,
		  "velocity": 80
		},
		{
		  "duration": 0.116279069767442,
		  "pitch": 72,
		  "start": 187.587209302326,
		  "velocity": 80
		},
		{
		  "duration": 0.116279069767442,
		  "pitch": 76,
		  "start": 187.761627906977,
		  "velocity": 80
		},
		{
		  "duration": 0.116279069767442,
		  "pitch": 78,
		  "start": 187.848837209302,
		  "velocity": 80
		},
		{
		  "duration": 0.116279069767442,
		  "pitch": 74,
		  "start": 187.936046511628,
		  "velocity": 80
		},
		{
		  "duration": 0.116279069767442,
		  "pitch": 69,
		  "start": 188.110465116279,
		  "velocity": 80
		},
		{
		  "duration": 0.116279069767442,
		  "pitch": 66,
		  "start": 188.197674418605,
		  "velocity": 80
		},
		{
		  "duration": 0.116279069767442,
		  "pitch": 62,
		  "start": 188.28488372093,
		  "velocity": 80
		},
		{
		  "duration": 0.0872093023255814,
		  "pitch": 57,
		  "start": 188.459302325581,
		  "velocity": 80
		},
		{
		  "duration": 0.0290697674418605,
		  "pitch": 57,
		  "start": 188.546511627907,
		  "velocity": 80
		},
		{
		  "duration": 0.116279069767442,
		  "pitch": 60,
		  "start": 188.633720930233,
		  "velocity": 80
		},
		{
		  "duration": 0.116279069767442,
		  "pitch": 64,
		  "start": 188.808139534884,
		  "velocity": 80
		},
		{
		  "duration": 0.116279069767442,
		  "pitch": 69,
		  "start": 188.895348837209,
		  "velocity": 80
		},
		{
		  "duration": 0.116279069767442,
		  "pitch": 72,
		  "start": 188.982558139535,
		  "velocity": 80
		},
		{
		  "duration": 0.116279069767442,
		  "pitch": 76,
		  "start": 189.156976744186,
		  "velocity": 80
		},
		{
		  "duration": 0.116279069767442,
		  "pitch": 80,
		  "start": 189.244186046512,
		  "velocity": 80
		},
		{
		  "duration": 0.116279069767442,
		  "pitch": 76,
		  "start": 189.331395348837,
		  "velocity": 80
		},
		{
		  "duration": 0.116279069767442,
		  "pitch": 72,
		  "start": 189.505813953488,
		  "velocity": 80
		},
		{
		  "duration": 0.116279069767442,
		  "pitch": 68,
		  "start": 189.593023255814,
		  "velocity": 80
		},
		{
		  "duration": 0.116279069767442,
		  "pitch": 64,
		  "start": 189.68023255814,
		  "velocity": 80
		},
		{
		  "duration": 0.116279069767442,
		  "pitch": 60,
		  "start": 189.854651162791,
		  "velocity": 80
		},
		{
		  "duration": 0.116279069767442,
		  "pitch": 57,
		  "start": 189.941860465116,
		  "velocity": 80
		},
		{
		  "duration": 0.116279069767442,
		  "pitch": 60,
		  "start": 190.029069767442,
		  "velocity": 80
		},
		{
		  "duration": 0.116279069767442,
		  "pitch": 64,
		  "start": 190.203488372093,
		  "velocity": 80
		},
		{
		  "duration": 0.116279069767442,
		  "pitch": 69,
		  "start": 190.290697674419,
		  "velocity": 80
		},
		{
		  "duration": 0.116279069767442,
		  "pitch": 72,
		  "start": 190.377906976744,
		  "velocity": 80
		},
		{
		  "duration": 0.116279069767442,
		  "pitch": 76,
		  "start": 190.552325581395,
		  "velocity": 80
		},
		{
		  "duration": 0.116279069767442,
		  "pitch": 81,
		  "start": 190.639534883721,
		  "velocity": 80
		},
		{
		  "duration": 0.116279069767442,
		  "pitch": 76,
		  "start": 190.726744186047,
		  "velocity": 80
		},
		{
		  "duration": 0.116279069767442,
		  "pitch": 72,
		  "start": 190.901162790698,
		  "velocity": 80
		},
		{
		  "duration": 0.116279069767442,
		  "pitch": 69,
		  "start": 190.988372093023,
		  "velocity": 80
		},
		{
		  "duration": 0.116279069767442,
		  "pitch": 64,
		  "start": 191.075581395349,
		  "velocity": 80
		},
		{
		  "duration": 0.116279069767442,
		  "pitch": 60,
		  "start": 191.25,
		  "velocity": 80
		},
		{
		  "duration": 0.116279069767442,
		  "pitch": 57,
		  "start": 191.337209302326,
		  "velocity": 80
		},
		{
		  "duration": 0.116279069767442,
		  "pitch": 60,
		  "start": 191.424418604651,
		  "velocity": 80
		},
		{
		  "duration": 0.116279069767442,
		  "pitch": 64,
		  "start": 191.598837209302,
		  "velocity": 80
		},
		{
		  "duration": 0.116279069767442,
		  "pitch": 69,
		  "start": 191.686046511628,
		  "velocity": 80
		},
		{
		  "duration": 0.101744186046512,
		  "pitch": 64,
		  "start": 191.773255813953,
		  "velocity": 80
		},
		{
		  "duration": 0.116279069767442,
		  "pitch": 60,
		  "start": 191.947674418605,
		  "velocity": 60
		},
		{
		  "duration": 0.116279069767442,
		  "pitch": 57,
		  "start": 192.03488372093,
		  "velocity": 50
		},
		{
		  "duration": 0.116279069767442,
		  "pitch": 62,
		  "start": 251.337209302326,
		  "velocity": 80
		},
		{
		  "duration": 0.116279069767442,
		  "pitch": 62,
		  "start": 251.598837209302,
		  "velocity": 80
		},
		{
		  "duration": 0.697674418604651,
		  "pitch": 69,
		  "start": 251.686046511628,
		  "velocity": 80
		},
		{
		  "duration": 0.116279069767442,
		  "pitch": 67,
		  "start": 252.383720930233,
		  "velocity": 80
		},
		{
		  "duration": 0.116279069767442,
		  "pitch": 69,
		  "start": 252.470930232558,
		  "velocity": 80
		},
		{
		  "duration": 0.116279069767442,
		  "pitch": 70,
		  "start": 252.645348837209,
		  "velocity": 80
		},
		{
		  "duration": 0.348837209302326,
		  "pitch": 69,
		  "start": 252.732558139535,
		  "velocity": 80
		},
		{
		  "duration": 0.348837209302326,
		  "pitch": 65,
		  "start": 253.081395348837,
		  "velocity": 80
		},
		{
		  "duration": 0.348837209302326,
		  "pitch": 67,
		  "start": 253.43023255814,
		  "velocity": 80
		},
		{
		  "duration": 0.116279069767442,
		  "pitch": 65,
		  "start": 253.779069767442,
		  "velocity": 80
		},
		{
		  "duration": 0.116279069767442,
		  "pitch": 64,
		  "start": 253.866279069767,
		  "velocity": 80
		},
		{
		  "duration": 0.116279069767442,
		  "pitch": 62,
		  "start": 254.040697674419,
		  "velocity": 80
		},
		{
		  "duration": 0.116279069767442,
		  "pitch": 64,
		  "start": 254.127906976744,
		  "velocity": 80
		},
		{
		  "duration": 0.116279069767442,
		  "pitch": 60,
		  "start": 254.389534883721,
		  "velocity": 80
		},
		{
		  "duration": 0.697674418604651,
		  "pitch": 62,
		  "start": 254.476744186047,
		  "velocity": 80
		},
		{
		  "duration": 0.116279069767442,
		  "pitch": 60,
		  "start": 255.174418604651,
		  "velocity": 80
		},
		{
		  "duration": 0.116279069767442,
		  "pitch": 62,
		  "start": 255.261627906977,
		  "velocity": 80
		},
		{
		  "duration": 0.116279069767442,
		  "pitch": 64,
		  "start": 255.436046511628,
		  "velocity": 80
		},
		{
		  "duration": 1.3953488372093,
		  "pitch": 62,
		  "start": 255.523255813953,
		  "velocity": 80
		},
		{
		  "duration": 0.116279069767442,
		  "pitch": 57,
		  "start": 256.918604651163,
		  "velocity": 80
		},
		{
		  "duration": 0.116279069767442,
		  "pitch": 57,
		  "start": 257.18023255814,
		  "velocity": 80
		},
		{
		  "duration": 0.697674418604651,
		  "pitch": 64,
		  "start": 257.267441860465,
		  "velocity": 80
		},
		{
		  "duration": 0.116279069767442,
		  "pitch": 62,
		  "start": 257.96511627907,
		  "velocity": 80
		},
		{
		  "duration": 0.116279069767442,
		  "pitch": 64,
		  "start": 258.052325581395,
		  "velocity": 80
		},
		{
		  "duration": 0.116279069767442,
		  "pitch": 65,
		  "start": 258.226744186047,
		  "velocity": 80
		},
		{
		  "duration": 0.348837209302326,
		  "pitch": 64,
		  "start": 258.313953488372,
		  "velocity": 80
		},
		{
		  "duration": 0.348837209302326,
		  "pitch": 60,
		  "start": 258.662790697674,
		  "velocity": 80
		},
		{
		  "duration": 0.348837209302326,
		  "pitch": 62,
		  "start": 259.011627906977,
		  "velocity": 80
		},
		{
		  "duration": 0.116279069767442,
		  "pitch": 60,
		  "start": 259.360465116279,
		  "velocity": 80
		},
		{
		  "duration": 0.116279069767442,
		  "pitch": 59,
		  "start": 259.447674418605,
		  "velocity": 80
		},
		{
		  "duration": 0.116279069767442,
		  "pitch": 57,
		  "start": 259.622093023256,
		  "velocity": 80
		},
		{
		  "duration": 0.116279069767442,
		  "pitch": 59,
		  "start": 259.709302325581,
		  "velocity": 80
		},
		{
		  "duration": 0.116279069767442,
		  "pitch": 55,
		  "start": 259.970930232558,
		  "velocity": 80
		},
		{
		  "duration": 0.697674418604651,
		  "pitch": 57,
		  "start": 260.058139534884,
		  "velocity": 80
		},
		{
		  "duration": 0.116279069767442,
		  "pitch": 55,
		  "start": 260.755813953488,
		  "velocity": 80
		},
		{
		  "duration": 0.116279069767442,
		  "pitch": 57,
		  "start": 260.843023255814,
		  "velocity": 80
		},
		{
		  "duration": 0.116279069767442,
		  "pitch": 59,
		  "start": 261.017441860465,
		  "velocity": 80
		},
		{
		  "duration": 1.3953488372093,
		  "pitch": 57,
		  "start": 261.104651162791,
		  "velocity": 80
		},
		{
		  "duration": 0.116279069767442,
		  "pitch": 62,
		  "start": 262.5,
		  "velocity": 80
		},
		{
		  "duration": 0.116279069767442,
		  "pitch": 62,
		  "start": 262.761627906977,
		  "velocity": 80
		},
		{
		  "duration": 0.697674418604651,
		  "pitch": 69,
		  "start": 262.848837209302,
		  "velocity": 80
		},
		{
		  "duration": 0.116279069767442,
		  "pitch": 67,
		  "start": 263.546511627907,
		  "velocity": 80
		},
		{
		  "duration": 0.116279069767442,
		  "pitch": 69,
		  "start": 263.633720930233,
		  "velocity": 80
		},
		{
		  "duration": 0.116279069767442,
		  "pitch": 70,
		  "start": 263.808139534884,
		  "velocity": 80
		},
		{
		  "duration": 0.348837209302326,
		  "pitch": 69,
		  "start": 263.895348837209,
		  "velocity": 80
		},
		{
		  "duration": 0.348837209302326,
		  "pitch": 65,
		  "start": 264.244186046512,
		  "velocity": 80
		},
		{
		  "duration": 0.348837209302326,
		  "pitch": 67,
		  "start": 264.593023255814,
		  "velocity": 80
		},
		{
		  "duration": 0.116279069767442,
		  "pitch": 65,
		  "start": 264.941860465116,
		  "velocity": 80
		},
		{
		  "duration": 0.116279069767442,
		  "pitch": 64,
		  "start": 265.029069767442,
		  "velocity": 80
		},
		{
		  "duration": 0.116279069767442,
		  "pitch": 62,
		  "start": 265.203488372093,
		  "velocity": 80
		},
		{
		  "duration": 0.116279069767442,
		  "pitch": 64,
		  "start": 265.290697674419,
		  "velocity": 80
		},
		{
		  "duration": 0.116279069767442,
		  "pitch": 60,
		  "start": 265.552325581395,
		  "velocity": 80
		},
		{
		  "duration": 0.697674418604651,
		  "pitch": 62,
		  "start": 265.639534883721,
		  "velocity": 80
		},
		{
		  "duration": 0.116279069767442,
		  "pitch": 60,
		  "start": 266.337209302326,
		  "velocity": 80
		},
		{
		  "duration": 0.116279069767442,
		  "pitch": 62,
		  "start": 266.424418604651,
		  "velocity": 80
		},
		{
		  "duration": 0.116279069767442,
		  "pitch": 64,
		  "start": 266.598837209302,
		  "velocity": 80
		},
		{
		  "duration": 1.3953488372093,
		  "pitch": 62,
		  "start": 266.686046511628,
		  "velocity": 80
		},
		{
		  "duration": 0.116279069767442,
		  "pitch": 57,
		  "start": 268.081395348837,
		  "velocity": 80
		},
		{
		  "duration": 0.116279069767442,
		  "pitch": 57,
		  "start": 268.343023255814,
		  "velocity": 80
		},
		{
		  "duration": 0.697674418604651,
		  "pitch": 64,
		  "start": 268.43023255814,
		  "velocity": 80
		},
		{
		  "duration": 0.116279069767442,
		  "pitch": 62,
		  "start": 269.127906976744,
		  "velocity": 80
		},
		{
		  "duration": 0.116279069767442,
		  "pitch": 64,
		  "start": 269.21511627907,
		  "velocity": 80
		},
		{
		  "duration": 0.116279069767442,
		  "pitch": 65,
		  "start": 269.389534883721,
		  "velocity": 80
		},
		{
		  "duration": 0.348837209302326,
		  "pitch": 64,
		  "start": 269.476744186047,
		  "velocity": 80
		},
		{
		  "duration": 0.348837209302326,
		  "pitch": 60,
		  "start": 269.825581395349,
		  "velocity": 80
		},
		{
		  "duration": 0.348837209302326,
		  "pitch": 62,
		  "start": 270.174418604651,
		  "velocity": 80
		},
		{
		  "duration": 0.116279069767442,
		  "pitch": 60,
		  "start": 270.523255813953,
		  "velocity": 80
		},
		{
		  "duration": 0.116279069767442,
		  "pitch": 59,
		  "start": 270.610465116279,
		  "velocity": 80
		},
		{
		  "duration": 0.116279069767442,
		  "pitch": 57,
		  "start": 270.78488372093,
		  "velocity": 80
		},
		{
		  "duration": 0.116279069767442,
		  "pitch": 59,
		  "start": 270.872093023256,
		  "velocity": 80
		},
		{
		  "duration": 0.116279069767442,
		  "pitch": 55,
		  "start": 271.133720930233,
		  "velocity": 80
		},
		{
		  "duration": 0.697674418604651,
		  "pitch": 57,
		  "start": 271.220930232558,
		  "velocity": 80
		},
		{
		  "duration": 0.116279069767442,
		  "pitch": 55,
		  "start": 271.918604651163,
		  "velocity": 80
		},
		{
		  "duration": 0.116279069767442,
		  "pitch": 57,
		  "start": 272.005813953488,
		  "velocity": 80
		},
		{
		  "duration": 0.116279069767442,
		  "pitch": 59,
		  "start": 272.18023255814,
		  "velocity": 80
		},
		{
		  "duration": 1.3953488372093,
		  "pitch": 57,
		  "start": 272.267441860465,
		  "velocity": 80
		},
		{
		  "duration": 0.116279069767442,
		  "pitch": 62,
		  "start": 273.662790697674,
		  "velocity": 80
		},
		{
		  "duration": 0.116279069767442,
		  "pitch": 62,
		  "start": 273.924418604651,
		  "velocity": 80
		},
		{
		  "duration": 0.697674418604651,
		  "pitch": 69,
		  "start": 274.011627906977,
		  "velocity": 80
		},
		{
		  "duration": 0.116279069767442,
		  "pitch": 67,
		  "start": 274.709302325581,
		  "velocity": 80
		},
		{
		  "duration": 0.116279069767442,
		  "pitch": 69,
		  "start": 274.796511627907,
		  "velocity": 80
		},
		{
		  "duration": 0.116279069767442,
		  "pitch": 70,
		  "start": 274.970930232558,
		  "velocity": 80
		},
		{
		  "duration": 0.348837209302326,
		  "pitch": 69,
		  "start": 275.058139534884,
		  "velocity": 80
		},
		{
		  "duration": 0.348837209302326,
		  "pitch": 65,
		  "start": 275.406976744186,
		  "velocity": 80
		},
		{
		  "duration": 0.348837209302326,
		  "pitch": 67,
		  "start": 275.755813953488,
		  "velocity": 80
		},
		{
		  "duration": 0.116279069767442,
		  "pitch": 65,
		  "start": 276.104651162791,
		  "velocity": 80
		},
		{
		  "duration": 0.116279069767442,
		  "pitch": 64,
		  "start": 276.191860465116,
		  "velocity": 80
		},
		{
		  "duration": 0.116279069767442,
		  "pitch": 62,
		  "start": 276.366279069767,
		  "velocity": 80
		},
		{
		  "duration": 0.116279069767442,
		  "pitch": 64,
		  "start": 276.453488372093,
		  "velocity": 80
		},
		{
		  "duration": 0.116279069767442,
		  "pitch": 60,
		  "start": 276.71511627907,
		  "velocity": 80
		},
		{
		  "duration": 0.697674418604651,
		  "pitch": 62,
		  "start": 276.802325581395,
		  "velocity": 80
		},
		{
		  "duration": 0.116279069767442,
		  "pitch": 60,
		  "start": 277.5,
		  "velocity": 80
		},
		{
		  "duration": 0.116279069767442,
		  "pitch": 62,
		  "start": 277.587209302326,
		  "velocity": 80
		},
		{
		  "duration": 0.116279069767442,
		  "pitch": 64,
		  "start": 277.761627906977,
		  "velocity": 80
		},
		{
		  "duration": 1.3953488372093,
		  "pitch": 62,
		  "start": 277.848837209302,
		  "velocity": 80
		},
		{
		  "duration": 0.116279069767442,
		  "pitch": 57,
		  "start": 279.244186046512,
		  "velocity": 80
		},
		{
		  "duration": 0.116279069767442,
		  "pitch": 57,
		  "start": 279.505813953488,
		  "velocity": 80
		},
		{
		  "duration": 0.697674418604651,
		  "pitch": 64,
		  "start": 279.593023255814,
		  "velocity": 80
		},
		{
		  "duration": 0.116279069767442,
		  "pitch": 62,
		  "start": 280.290697674419,
		  "velocity": 80
		},
		{
		  "duration": 0.116279069767442,
		  "pitch": 64,
		  "start": 280.377906976744,
		  "velocity": 80
		},
		{
		  "duration": 0.116279069767442,
		  "pitch": 65,
		  "start": 280.552325581395,
		  "velocity": 80
		},
		{
		  "duration": 0.348837209302326,
		  "pitch": 64,
		  "start": 280.639534883721,
		  "velocity": 80
		},
		{
		  "duration": 0.348837209302326,
		  "pitch": 60,
		  "start": 280.988372093023,
		  "velocity": 80
		},
		{
		  "duration": 0.348837209302326,
		  "pitch": 62,
		  "start": 281.337209302326,
		  "velocity": 80
		},
		{
		  "duration": 0.116279069767442,
		  "pitch": 60,
		  "start": 281.686046511628,
		  "velocity": 80
		},
		{
		  "duration": 0.116279069767442,
		  "pitch": 59,
		  "start": 281.773255813953,
		  "velocity": 80
		},
		{
		  "duration": 0.116279069767442,
		  "pitch": 57,
		  "start": 281.947674418605,
		  "velocity": 80
		},
		{
		  "duration": 0.116279069767442,
		  "pitch": 55,
		  "start": 282.03488372093,
		  "velocity": 80
		},
		{
		  "duration": 0.116279069767442,
		  "pitch": 60,
		  "start": 282.122093023256,
		  "velocity": 80
		},
		{
		  "duration": 0.116279069767442,
		  "pitch": 64,
		  "start": 282.296511627907,
		  "velocity": 80
		},
		{
		  "duration": 0.116279069767442,
		  "pitch": 67,
		  "start": 282.383720930233,
		  "velocity": 80
		},
		{
		  "duration": 0.116279069767442,
		  "pitch": 72,
		  "start": 282.470930232558,
		  "velocity": 80
		},
		{
		  "duration": 0.116279069767442,
		  "pitch": 76,
		  "start": 282.645348837209,
		  "velocity": 80
		},
		{
		  "duration": 0.116279069767442,
		  "pitch": 78,
		  "start": 282.732558139535,
		  "velocity": 80
		},
		{
		  "duration": 0.116279069767442,
		  "pitch": 74,
		  "start": 282.81976744186,
		  "velocity": 80
		},
		{
		  "duration": 0.116279069767442,
		  "pitch": 69,
		  "start": 282.994186046512,
		  "velocity": 80
		},
		{
		  "duration": 0.116279069767442,
		  "pitch": 66,
		  "start": 283.081395348837,
		  "velocity": 80
		},
		{
		  "duration": 0.116279069767442,
		  "pitch": 62,
		  "start": 283.168604651163,
		  "velocity": 80
		},
		{
		  "duration": 0.0872093023255814,
		  "pitch": 57,
		  "start": 283.343023255814,
		  "velocity": 80
		},
		{
		  "duration": 0.0290697674418605,
		  "pitch": 57,
		  "start": 283.43023255814,
		  "velocity": 80
		},
		{
		  "duration": 0.116279069767442,
		  "pitch": 60,
		  "start": 283.517441860465,
		  "velocity": 80
		},
		{
		  "duration": 0.116279069767442,
		  "pitch": 64,
		  "start": 283.691860465116,
		  "velocity": 80
		},
		{
		  "duration": 0.116279069767442,
		  "pitch": 69,
		  "start": 283.779069767442,
		  "velocity": 80
		},
		{
		  "duration": 0.116279069767442,
		  "pitch": 72,
		  "start": 283.866279069767,
		  "velocity": 80
		},
		{
		  "duration": 0.116279069767442,
		  "pitch": 76,
		  "start": 284.040697674419,
		  "velocity": 80
		},
		{
		  "duration": 0.116279069767442,
		  "pitch": 80,
		  "start": 284.127906976744,
		  "velocity": 80
		},
		{
		  "duration": 0.116279069767442,
		  "pitch": 76,
		  "start": 284.21511627907,
		  "velocity": 80
		},
		{
		  "duration": 0.116279069767442,
		  "pitch": 72,
		  "start": 284.389534883721,
		  "velocity": 80
		},
		{
		  "duration": 0.116279069767442,
		  "pitch": 68,
		  "start": 284.476744186047,
		  "velocity": 80
		},
		{
		  "duration": 0.116279069767442,
		  "pitch": 64,
		  "start": 284.563953488372,
		  "velocity": 80
		},
		{
		  "duration": 0.116279069767442,
		  "pitch": 60,
		  "start": 284.738372093023,
		  "velocity": 80
		},
		{
		  "duration": 0.116279069767442,
		  "pitch": 57,
		  "start": 284.825581395349,
		  "velocity": 80
		},
		{
		  "duration": 0.116279069767442,
		  "pitch": 60,
		  "start": 284.912790697674,
		  "velocity": 80
		},
		{
		  "duration": 0.116279069767442,
		  "pitch": 64,
		  "start": 285.087209302326,
		  "velocity": 80
		},
		{
		  "duration": 0.116279069767442,
		  "pitch": 69,
		  "start": 285.174418604651,
		  "velocity": 80
		},
		{
		  "duration": 0.116279069767442,
		  "pitch": 72,
		  "start": 285.261627906977,
		  "velocity": 80
		},
		{
		  "duration": 0.116279069767442,
		  "pitch": 76,
		  "start": 285.436046511628,
		  "velocity": 80
		},
		{
		  "duration": 0.116279069767442,
		  "pitch": 81,
		  "start": 285.523255813953,
		  "velocity": 80
		},
		{
		  "duration": 0.116279069767442,
		  "pitch": 76,
		  "start": 285.610465116279,
		  "velocity": 80
		},
		{
		  "duration": 0.116279069767442,
		  "pitch": 72,
		  "start": 285.78488372093,
		  "velocity": 80
		},
		{
		  "duration": 0.116279069767442,
		  "pitch": 69,
		  "start": 285.872093023256,
		  "velocity": 80
		},
		{
		  "duration": 0.116279069767442,
		  "pitch": 64,
		  "start": 285.959302325581,
		  "velocity": 80
		},
		{
		  "duration": 0.116279069767442,
		  "pitch": 60,
		  "start": 286.133720930233,
		  "velocity": 80
		},
		{
		  "duration": 0.116279069767442,
		  "pitch": 57,
		  "start": 286.220930232558,
		  "velocity": 80
		},
		{
		  "duration": 0.116279069767442,
		  "pitch": 60,
		  "start": 286.308139534884,
		  "velocity": 80
		},
		{
		  "duration": 0.116279069767442,
		  "pitch": 64,
		  "start": 286.482558139535,
		  "velocity": 80
		},
		{
		  "duration": 0.116279069767442,
		  "pitch": 69,
		  "start": 286.56976744186,
		  "velocity": 80
		},
		{
		  "duration": 0.101744186046512,
		  "pitch": 64,
		  "start": 286.656976744186,
		  "velocity": 80
		},
		{
		  "duration": 0.116279069767442,
		  "pitch": 60,
		  "start": 286.831395348837,
		  "velocity": 60
		},
		{
		  "duration": 0.116279069767442,
		  "pitch": 57,
		  "start": 286.918604651163,
		  "velocity": 50
		}
	  ]
	},
	{
	  "cc_events": [
		{
		  "controller": 11,
		  "time": 296.162790697674,
		  "value": 120
		},
		{
		  "controller": 11,
		  "time": 296.162790697674,
		  "value": 120
		},
		{
		  "controller": 11,
		  "time": 296.162790697674,
		  "value": 120
		},
		{
		  "controller": 11,
		  "time": 296.162790697674,
		  "value": 120
		},
		{
		  "controller": 11,
		  "time": 296.162790697674,
		  "value": 120
		},
		{
		  "controller": 11,
		  "time": 296.162790697674,
		  "value": 120
		},
		{
		  "controller": 11,
		  "time": 296.162790697674,
		  "value": 120
		},
		{
		  "controller": 11,
		  "time": 296.162790697674,
		  "value": 120
		},
		{
		  "controller": 11,
		  "time": 296.162790697674,
		  "value": 120
		},
		{
		  "controller": 11,
		  "time": 296.162790697674,
		  "value": 120
		},
		{
		  "controller": 11,
		  "time": 296.162790697674,
		  "value": 120
		},
		{
		  "controller": 11,
		  "time": 296.511627906977,
		  "value": 115
		},
		{
		  "controller": 11,
		  "time": 296.511627906977,
		  "value": 115
		},
		{
		  "controller": 11,
		  "time": 296.511627906977,
		  "value": 115
		},
		{
		  "controller": 11,
		  "time": 296.511627906977,
		  "value": 115
		},
		{
		  "controller": 11,
		  "time": 296.511627906977,
		  "value": 115
		},
		{
		  "controller": 11,
		  "time": 296.511627906977,
		  "value": 115
		},
		{
		  "controller": 11,
		  "time": 296.511627906977,
		  "value": 115
		},
		{
		  "controller": 11,
		  "time": 296.511627906977,
		  "value": 115
		},
		{
		  "controller": 11,
		  "time": 296.511627906977,
		  "value": 115
		},
		{
		  "controller": 11,
		  "time": 296.511627906977,
		  "value": 115
		},
		{
		  "controller": 11,
		  "time": 296.511627906977,
		  "value": 115
		},
		{
		  "controller": 11,
		  "time": 296.860465116279,
		  "value": 110
		},
		{
		  "controller": 11,
		  "time": 296.860465116279,
		  "value": 110
		},
		{
		  "controller": 11,
		  "time": 296.860465116279,
		  "value": 110
		},
		{
		  "controller": 11,
		  "time": 296.860465116279,
		  "value": 110
		},
		{
		  "controller": 11,
		  "time": 296.860465116279,
		  "value": 110
		},
		{
		  "controller": 11,
		  "time": 296.860465116279,
		  "value": 110
		},
		{
		  "controller": 11,
		  "time": 296.860465116279,
		  "value": 110
		},
		{
		  "controller": 11,
		  "time": 296.860465116279,
		  "value": 110
		},
		{
		  "controller": 11,
		  "time": 296.860465116279,
		  "value": 110
		},
		{
		  "controller": 11,
		  "time": 296.860465116279,
		  "value": 110
		},
		{
		  "controller": 11,
		  "time": 296.860465116279,
		  "value": 110
		},
		{
		  "controller": 11,
		  "time": 297.209302325581,
		  "value": 105
		},
		{
		  "controller": 11,
		  "time": 297.209302325581,
		  "value": 105
		},
		{
		  "controller": 11,
		  "time": 297.209302325581,
		  "value": 105
		},
		{
		  "controller": 11,
		  "time": 297.209302325581,
		  "value": 105
		},
		{
		  "controller": 11,
		  "time": 297.209302325581,
		  "value": 105
		},
		{
		  "controller": 11,
		  "time": 297.209302325581,
		  "value": 105
		},
		{
		  "controller": 11,
		  "time": 297.209302325581,
		  "value": 105
		},
		{
		  "controller": 11,
		  "time": 297.209302325581,
		  "value": 105
		},
		{
		  "controller": 11,
		  "time": 297.209302325581,
		  "value": 105
		},
		{
		  "controller": 11,
		  "time": 297.209302325581,
		  "value": 105
		},
		{
		  "controller": 11,
		  "time": 297.209302325581,
		  "value": 105
		},
		{
		  "controller": 11,
		  "time": 297.558139534884,
		  "value": 100
		},
		{
		  "controller": 11,
		  "time": 297.558139534884,
		  "value": 100
		},
		{
		  "controller": 11,
		  "time": 297.558139534884,
		  "value": 100
		},
		{
		  "controller": 11,
		  "time": 297.558139534884,
		  "value": 100
		},
		{
		  "controller": 11,
		  "time": 297.558139534884,
		  "value": 100
		},
		{
		  "controller": 11,
		  "time": 297.558139534884,
		  "value": 100
		},
		{
		  "controller": 11,
		  "time": 297.558139534884,
		  "value": 100
		},
		{
		  "controller": 11,
		  "time": 297.558139534884,
		  "value": 100
		},
		{
		  "controller": 11,
		  "time": 297.558139534884,
		  "value": 100
		},
		{
		  "controller": 11,
		  "time": 297.558139534884,
		  "value": 100
		},
		{
		  "controller": 11,
		  "time": 297.558139534884,
		  "value": 100
		},
		{
		  "controller": 11,
		  "time": 297.906976744186,
		  "value": 95
		},
		{
		  "controller": 11,
		  "time": 297.906976744186,
		  "value": 95
		},
		{
		  "controller": 11,
		  "time": 297.906976744186,
		  "value": 95
		},
		{
		  "controller": 11,
		  "time": 297.906976744186,
		  "value": 95
		},
		{
		  "controller": 11,
		  "time": 297.906976744186,
		  "value": 95
		},
		{
		  "controller": 11,
		  "time": 297.906976744186,
		  "value": 95
		},
		{
		  "controller": 11,
		  "time": 297.906976744186,
		  "value": 95
		},
		{
		  "controller": 11,
		  "time": 297.906976744186,
		  "value": 95
		},
		{
		  "controller": 11,
		  "time": 297.906976744186,
		  "value": 95
		},
		{
		  "controller": 11,
		  "time": 297.906976744186,
		  "value": 95
		},
		{
		  "controller": 11,
		  "time": 297.906976744186,
		  "value": 95
		},
		{
		  "controller": 11,
		  "time": 298.255813953488,
		  "value": 90
		},
		{
		  "controller": 11,
		  "time": 298.255813953488,
		  "value": 90
		},
		{
		  "controller": 11,
		  "time": 298.255813953488,
		  "value": 90
		},
		{
		  "controller": 11,
		  "time": 298.255813953488,
		  "value": 90
		},
		{
		  "controller": 11,
		  "time": 298.255813953488,
		  "value": 90
		},
		{
		  "controller": 11,
		  "time": 298.255813953488,
		  "value": 90
		},
		{
		  "controller": 11,
		  "time": 298.255813953488,
		  "value": 90
		},
		{
		  "controller": 11,
		  "time": 298.255813953488,
		  "value": 90
		},
		{
		  "controller": 11,
		  "time": 298.255813953488,
		  "value": 90
		},
		{
		  "controller": 11,
		  "time": 298.255813953488,
		  "value": 90
		},
		{
		  "controller": 11,
		  "time": 298.255813953488,
		  "value": 90
		},
		{
		  "controller": 11,
		  "time": 298.604651162791,
		  "value": 85
		},
		{
		  "controller": 11,
		  "time": 298.604651162791,
		  "value": 85
		},
		{
		  "controller": 11,
		  "time": 298.604651162791,
		  "value": 85
		},
		{
		  "controller": 11,
		  "time": 298.604651162791,
		  "value": 85
		},
		{
		  "controller": 11,
		  "time": 298.604651162791,
		  "value": 85
		},
		{
		  "controller": 11,
		  "time": 298.604651162791,
		  "value": 85
		},
		{
		  "controller": 11,
		  "time": 298.604651162791,
		  "value": 85
		},
		{
		  "controller": 11,
		  "time": 298.604651162791,
		  "value": 85
		},
		{
		  "controller": 11,
		  "time": 298.604651162791,
		  "value": 85
		},
		{
		  "controller": 11,
		  "time": 298.604651162791,
		  "value": 85
		},
		{
		  "controller": 11,
		  "time": 298.604651162791,
		  "value": 85
		},
		{
		  "controller": 11,
		  "time": 298.953488372093,
		  "value": 80
		},
		{
		  "controller": 11,
		  "time": 298.953488372093,
		  "value": 80
		},
		{
		  "controller": 11,
		  "time": 298.953488372093,
		  "value": 80
		},
		{
		  "controller": 11,
		  "time": 298.953488372093,
		  "value": 80
		},
		{
		  "controller": 11,
		  "time": 298.953488372093,
		  "value": 80
		},
		{
		  "controller": 11,
		  "time": 298.953488372093,
		  "value": 80
		},
		{
		  "controller": 11,
		  "time": 298.953488372093,
		  "value": 80
		},
		{
		  "controller": 11,
		  "time": 298.953488372093,
		  "value": 80
		},
		{
		  "controller": 11,
		  "time": 298.953488372093,
		  "value": 80
		},
		{
		  "controller": 11,
		  "time": 298.953488372093,
		  "value": 80
		},
		{
		  "controller": 11,
		  "time": 298.953488372093,
		  "value": 80
		},
		{
		  "controller": 11,
		  "time": 299.302325581395,
		  "value": 75
		},
		{
		  "controller": 11,
		  "time": 299.302325581395,
		  "value": 75
		},
		{
		  "controller": 11,
		  "time": 299.302325581395,
		  "value": 75
		},
		{
		  "controller": 11,
		  "time": 299.302325581395,
		  "value": 75
		},
		{
		  "controller": 11,
		  "time": 299.302325581395,
		  "value": 75
		},
		{
		  "controller": 11,
		  "time": 299.302325581395,
		  "value": 75
		},
		{
		  "controller": 11,
		  "time": 299.302325581395,
		  "value": 75
		},
		{
		  "controller": 11,
		  "time": 299.302325581395,
		  "value": 75
		},
		{
		  "controller": 11,
		  "time": 299.302325581395,
		  "value": 75
		},
		{
		  "controller": 11,
		  "time": 299.302325581395,
		  "value": 75
		},
		{
		  "controller": 11,
		  "time": 299.302325581395,
		  "value": 75
		},
		{
		  "controller": 11,
		  "time": 299.651162790698,
		  "value": 65
		},
		{
		  "controller": 11,
		  "time": 299.651162790698,
		  "value": 65
		},
		{
		  "controller": 11,
		  "time": 299.651162790698,
		  "value": 65
		},
		{
		  "controller": 11,
		  "time": 299.651162790698,
		  "value": 65
		},
		{
		  "controller": 11,
		  "time": 299.651162790698,
		  "value": 65
		},
		{
		  "controller": 11,
		  "time": 299.651162790698,
		  "value": 65
		},
		{
		  "controller": 11,
		  "time": 299.651162790698,
		  "value": 65
		},
		{
		  "controller": 11,
		  "time": 299.651162790698,
		  "value": 65
		},
		{
		  "controller": 11,
		  "time": 299.651162790698,
		  "value": 65
		},
		{
		  "controller": 11,
		  "time": 299.651162790698,
		  "value": 65
		},
		{
		  "controller": 11,
		  "time": 299.651162790698,
		  "value": 65
		},
		{
		  "controller": 11,
		  "time": 300.011627906977,
		  "value": 60
		},
		{
		  "controller": 11,
		  "time": 300.011627906977,
		  "value": 60
		},
		{
		  "controller": 11,
		  "time": 300.011627906977,
		  "value": 60
		},
		{
		  "controller": 11,
		  "time": 300.011627906977,
		  "value": 60
		},
		{
		  "controller": 11,
		  "time": 300.011627906977,
		  "value": 60
		},
		{
		  "controller": 11,
		  "time": 300.011627906977,
		  "value": 60
		},
		{
		  "controller": 11,
		  "time": 300.011627906977,
		  "value": 60
		},
		{
		  "controller": 11,
		  "time": 300.011627906977,
		  "value": 60
		},
		{
		  "controller": 11,
		  "time": 300.011627906977,
		  "value": 60
		},
		{
		  "controller": 11,
		  "time": 300.011627906977,
		  "value": 60
		},
		{
		  "controller": 11,
		  "time": 300.011627906977,
		  "value": 60
		},
		{
		  "controller": 11,
		  "time": 300.348837209302,
		  "value": 55
		},
		{
		  "controller": 11,
		  "time": 300.348837209302,
		  "value": 55
		},
		{
		  "controller": 11,
		  "time": 300.348837209302,
		  "value": 55
		},
		{
		  "controller": 11,
		  "time": 300.348837209302,
		  "value": 55
		},
		{
		  "controller": 11,
		  "time": 300.348837209302,
		  "value": 55
		},
		{
		  "controller": 11,
		  "time": 300.348837209302,
		  "value": 55
		},
		{
		  "controller": 11,
		  "time": 300.348837209302,
		  "value": 55
		},
		{
		  "controller": 11,
		  "time": 300.348837209302,
		  "value": 55
		},
		{
		  "controller": 11,
		  "time": 300.348837209302,
		  "value": 55
		},
		{
		  "controller": 11,
		  "time": 300.348837209302,
		  "value": 55
		},
		{
		  "controller": 11,
		  "time": 300.348837209302,
		  "value": 55
		},
		{
		  "controller": 11,
		  "time": 300.697674418605,
		  "value": 50
		},
		{
		  "controller": 11,
		  "time": 300.697674418605,
		  "value": 50
		},
		{
		  "controller": 11,
		  "time": 300.697674418605,
		  "value": 50
		},
		{
		  "controller": 11,
		  "time": 300.697674418605,
		  "value": 50
		},
		{
		  "controller": 11,
		  "time": 300.697674418605,
		  "value": 50
		},
		{
		  "controller": 11,
		  "time": 300.697674418605,
		  "value": 50
		},
		{
		  "controller": 11,
		  "time": 300.697674418605,
		  "value": 50
		},
		{
		  "controller": 11,
		  "time": 300.697674418605,
		  "value": 50
		},
		{
		  "controller": 11,
		  "time": 300.697674418605,
		  "value": 50
		},
		{
		  "controller": 11,
		  "time": 300.697674418605,
		  "value": 50
		},
		{
		  "controller": 11,
		  "time": 300.697674418605,
		  "value": 50
		},
		{
		  "controller": 11,
		  "time": 301.046511627907,
		  "value": 45
		},
		{
		  "controller": 11,
		  "time": 301.046511627907,
		  "value": 45
		},
		{
		  "controller": 11,
		  "time": 301.046511627907,
		  "value": 45
		},
		{
		  "controller": 11,
		  "time": 301.046511627907,
		  "value": 45
		},
		{
		  "controller": 11,
		  "time": 301.046511627907,
		  "value": 45
		},
		{
		  "controller": 11,
		  "time": 301.046511627907,
		  "value": 45
		},
		{
		  "controller": 11,
		  "time": 301.046511627907,
		  "value": 45
		},
		{
		  "controller": 11,
		  "time": 301.046511627907,
		  "value": 45
		},
		{
		  "controller": 11,
		  "time": 301.046511627907,
		  "value": 45
		},
		{
		  "controller": 11,
		  "time": 301.046511627907,
		  "value": 45
		},
		{
		  "controller": 11,
		  "time": 301.046511627907,
		  "value": 45
		},
		{
		  "controller": 11,
		  "time": 301.395348837209,
		  "value": 40
		},
		{
		  "controller": 11,
		  "time": 301.395348837209,
		  "value": 40
		},
		{
		  "controller": 11,
		  "time": 301.395348837209,
		  "value": 40
		},
		{
		  "controller": 11,
		  "time": 301.395348837209,
		  "value": 40
		},
		{
		  "controller": 11,
		  "time": 301.395348837209,
		  "value": 40
		},
		{
		  "controller": 11,
		  "time": 301.395348837209,
		  "value": 40
		},
		{
		  "controller": 11,
		  "time": 301.395348837209,
		  "value": 40
		},
		{
		  "controller": 11,
		  "time": 301.395348837209,
		  "value": 40
		},
		{
		  "controller": 11,
		  "time": 301.395348837209,
		  "value": 40
		},
		{
		  "controller": 11,
		  "time": 301.395348837209,
		  "value": 40
		},
		{
		  "controller": 11,
		  "time": 301.395348837209,
		  "value": 40
		},
		{
		  "controller": 11,
		  "time": 301.744186046512,
		  "value": 35
		},
		{
		  "controller": 11,
		  "time": 301.744186046512,
		  "value": 35
		},
		{
		  "controller": 11,
		  "time": 301.744186046512,
		  "value": 35
		},
		{
		  "controller": 11,
		  "time": 301.744186046512,
		  "value": 35
		},
		{
		  "controller": 11,
		  "time": 301.744186046512,
		  "value": 35
		},
		{
		  "controller": 11,
		  "time": 301.744186046512,
		  "value": 35
		},
		{
		  "controller": 11,
		  "time": 301.744186046512,
		  "value": 35
		},
		{
		  "controller": 11,
		  "time": 301.744186046512,
		  "value": 35
		},
		{
		  "controller": 11,
		  "time": 301.744186046512,
		  "value": 35
		},
		{
		  "controller": 11,
		  "time": 301.744186046512,
		  "value": 35
		},
		{
		  "controller": 11,
		  "time": 301.744186046512,
		  "value": 35
		},
		{
		  "controller": 11,
		  "time": 302.093023255814,
		  "value": 30
		},
		{
		  "controller": 11,
		  "time": 302.093023255814,
		  "value": 30
		},
		{
		  "controller": 11,
		  "time": 302.093023255814,
		  "value": 30
		},
		{
		  "controller": 11,
		  "time": 302.093023255814,
		  "value": 30
		},
		{
		  "controller": 11,
		  "time": 302.093023255814,
		  "value": 30
		},
		{
		  "controller": 11,
		  "time": 302.093023255814,
		  "value": 30
		},
		{
		  "controller": 11,
		  "time": 302.093023255814,
		  "value": 30
		},
		{
		  "controller": 11,
		  "time": 302.093023255814,
		  "value": 30
		},
		{
		  "controller": 11,
		  "time": 302.093023255814,
		  "value": 30
		},
		{
		  "controller": 11,
		  "time": 302.093023255814,
		  "value": 30
		},
		{
		  "controller": 11,
		  "time": 302.093023255814,
		  "value": 30
		},
		{
		  "controller": 11,
		  "time": 302.441860465116,
		  "value": 25
		},
		{
		  "controller": 11,
		  "time": 302.441860465116,
		  "value": 25
		},
		{
		  "controller": 11,
		  "time": 302.441860465116,
		  "value": 25
		},
		{
		  "controller": 11,
		  "time": 302.441860465116,
		  "value": 25
		},
		{
		  "controller": 11,
		  "time": 302.441860465116,
		  "value": 25
		},
		{
		  "controller": 11,
		  "time": 302.441860465116,
		  "value": 25
		},
		{
		  "controller": 11,
		  "time": 302.441860465116,
		  "value": 25
		},
		{
		  "controller": 11,
		  "time": 302.441860465116,
		  "value": 25
		},
		{
		  "controller": 11,
		  "time": 302.441860465116,
		  "value": 25
		},
		{
		  "controller": 11,
		  "time": 302.441860465116,
		  "value": 25
		},
		{
		  "controller": 11,
		  "time": 302.441860465116,
		  "value": 25
		},
		{
		  "controller": 11,
		  "time": 302.790697674419,
		  "value": 20
		},
		{
		  "controller": 11,
		  "time": 302.790697674419,
		  "value": 20
		},
		{
		  "controller": 11,
		  "time": 302.790697674419,
		  "value": 20
		},
		{
		  "controller": 11,
		  "time": 302.790697674419,
		  "value": 20
		},
		{
		  "controller": 11,
		  "time": 302.790697674419,
		  "value": 20
		},
		{
		  "controller": 11,
		  "time": 302.790697674419,
		  "value": 20
		},
		{
		  "controller": 11,
		  "time": 302.790697674419,
		  "value": 20
		},
		{
		  "controller": 11,
		  "time": 302.790697674419,
		  "value": 20
		},
		{
		  "controller": 11,
		  "time": 302.790697674419,
		  "value": 20
		},
		{
		  "controller": 11,
		  "time": 302.790697674419,
		  "value": 20
		},
		{
		  "controller": 11,
		  "time": 302.790697674419,
		  "value": 20
		},
		{
		  "controller": 11,
		  "time": 303.139534883721,
		  "value": 15
		},
		{
		  "controller": 11,
		  "time": 303.139534883721,
		  "value": 15
		},
		{
		  "controller": 11,
		  "time": 303.139534883721,
		  "value": 15
		},
		{
		  "controller": 11,
		  "time": 303.139534883721,
		  "value": 15
		},
		{
		  "controller": 11,
		  "time": 303.139534883721,
		  "value": 15
		},
		{
		  "controller": 11,
		  "time": 303.139534883721,
		  "value": 15
		},
		{
		  "controller": 11,
		  "time": 303.139534883721,
		  "value": 15
		},
		{
		  "controller": 11,
		  "time": 303.139534883721,
		  "value": 15
		},
		{
		  "controller": 11,
		  "time": 303.139534883721,
		  "value": 15
		},
		{
		  "controller": 11,
		  "time": 303.139534883721,
		  "value": 15
		},
		{
		  "controller": 11,
		  "time": 303.139534883721,
		  "value": 15
		},
		{
		  "controller": 11,
		  "time": 303.488372093023,
		  "value": 10
		},
		{
		  "controller": 11,
		  "time": 303.488372093023,
		  "value": 10
		},
		{
		  "controller": 11,
		  "time": 303.488372093023,
		  "value": 10
		},
		{
		  "controller": 11,
		  "time": 303.488372093023,
		  "value": 10
		},
		{
		  "controller": 11,
		  "time": 303.488372093023,
		  "value": 10
		},
		{
		  "controller": 11,
		  "time": 303.488372093023,
		  "value": 10
		},
		{
		  "controller": 11,
		  "time": 303.488372093023,
		  "value": 10
		},
		{
		  "controller": 11,
		  "time": 303.488372093023,
		  "value": 10
		},
		{
		  "controller": 11,
		  "time": 303.488372093023,
		  "value": 10
		},
		{
		  "controller": 11,
		  "time": 303.488372093023,
		  "value": 10
		},
		{
		  "controller": 11,
		  "time": 303.488372093023,
		  "value": 10
		},
		{
		  "controller": 11,
		  "time": 303.837209302326,
		  "value": 5
		},
		{
		  "controller": 11,
		  "time": 303.837209302326,
		  "value": 5
		},
		{
		  "controller": 11,
		  "time": 303.837209302326,
		  "value": 5
		},
		{
		  "controller": 11,
		  "time": 303.837209302326,
		  "value": 5
		},
		{
		  "controller": 11,
		  "time": 303.837209302326,
		  "value": 5
		},
		{
		  "controller": 11,
		  "time": 303.837209302326,
		  "value": 5
		},
		{
		  "controller": 11,
		  "time": 303.837209302326,
		  "value": 5
		},
		{
		  "controller": 11,
		  "time": 303.837209302326,
		  "value": 5
		},
		{
		  "controller": 11,
		  "time": 303.837209302326,
		  "value": 5
		},
		{
		  "controller": 11,
		  "time": 303.837209302326,
		  "value": 5
		},
		{
		  "controller": 11,
		  "time": 303.837209302326,
		  "value": 5
		},
		{
		  "controller": 11,
		  "time": 304.186046511628,
		  "value": 0
		},
		{
		  "controller": 11,
		  "time": 304.186046511628,
		  "value": 0
		},
		{
		  "controller": 11,
		  "time": 304.186046511628,
		  "value": 0
		},
		{
		  "controller": 11,
		  "time": 304.186046511628,
		  "value": 0
		},
		{
		  "controller": 11,
		  "time": 304.186046511628,
		  "value": 0
		},
		{
		  "controller": 11,
		  "time": 304.186046511628,
		  "value": 0
		},
		{
		  "controller": 11,
		  "time": 304.186046511628,
		  "value": 0
		},
		{
		  "controller": 11,
		  "time": 304.186046511628,
		  "value": 0
		},
		{
		  "controller": 11,
		  "time": 304.186046511628,
		  "value": 0
		},
		{
		  "controller": 11,
		  "time": 304.186046511628,
		  "value": 0
		},
		{
		  "controller": 11,
		  "time": 304.186046511628,
		  "value": 0
		},
		{
		  "controller": 11,
		  "time": 306.279069767442,
		  "value": 127
		},
		{
		  "controller": 11,
		  "time": 306.279069767442,
		  "value": 127
		},
		{
		  "controller": 11,
		  "time": 306.279069767442,
		  "value": 127
		},
		{
		  "controller": 11,
		  "time": 306.279069767442,
		  "value": 127
		},
		{
		  "controller": 11,
		  "time": 306.279069767442,
		  "value": 127
		},
		{
		  "controller": 11,
		  "time": 306.279069767442,
		  "value": 127
		},
		{
		  "controller": 11,
		  "time": 306.279069767442,
		  "value": 127
		},
		{
		  "controller": 11,
		  "time": 306.279069767442,
		  "value": 127
		},
		{
		  "controller": 11,
		  "time": 306.279069767442,
		  "value": 127
		},
		{
		  "controller": 11,
		  "time": 306.279069767442,
		  "value": 127
		},
		{
		  "controller": 11,
		  "time": 306.279069767442,
		  "value": 127
		}
	  ],
	  "name": "Fade out",
	  "notes": []
	},
	{
	  "name": "Track 13",
	  "notes": []
	},
	{
	  "name": "Final Fantasy 7 Boss Theme",
	  "notes": []
	},
	{
	  "name": "Original by Nobuo Uemats",
	  "notes": []
	},
	{
	  "name": "MIDI data by Gen Nishimura",
	  "notes": []
	},
	{
	  "name": "Send any comments to",
	  "notes": []
	},
	{
	  "name": "gen3@super.win.or.jp",
	  "notes": []
	}
  ]
}
