{
  "format_version": "2.0",
  "tempo": 105,
  "timebase": 480,
  "tracks": [
    {
      "name": "Square Lead",
      "channel": 0,
      "instrument": 80,
      "cc_events": [
        {"time": 0.0, "controller": 7, "value": 100}
      ],
      "notes": [
        {"pitch": 69, "start": 0.0, "duration": 0.25, "velocity": 100},
        {"pitch": 69, "start": 0.25, "duration": 0.25, "velocity": 100},
        {"pitch": 72, "start": 0.5, "duration": 0.25, "velocity": 100},
        {"pitch": 74, "start": 0.75, "duration": 0.25, "velocity": 101},
        {"pitch": 72, "start": 1.0, "duration": 0.25, "velocity": 101},
        {"pitch": 69, "start": 1.25, "duration": 0.25, "velocity": 101},
        {"pitch": 67, "start": 1.5, "duration": 0.25, "velocity": 102},
        {"pitch": 69, "start": 1.75, "duration": 0.25, "velocity": 102},
        {"pitch": 65, "start": 2.0, "duration": 0.25, "velocity": 102},
        {"pitch": 69, "start": 2.25, "duration": 0.25, "velocity": 102},
        {"pitch": 72, "start": 2.5, "duration": 0.25, "velocity": 103},
        {"pitch": 74, "start": 2.75, "duration": 0.25, "velocity": 103},
        {"pitch": 72, "start": 3.0, "duration": 0.25, "velocity": 103},
        {"pitch": 69, "start": 3.25, "duration": 0.25, "velocity": 103},
        {"pitch": 67, "start": 3.5, "duration": 0.25, "velocity": 104},
        {"pitch": 64, "start": 3.75, "duration": 0.25, "velocity": 104},
        {"pitch": 69, "start": 4.0, "duration": 0.25, "velocity": 105},
        {"pitch": 69, "start": 4.25, "duration": 0.25, "velocity": 105},
        {"pitch": 72, "start": 4.5, "duration": 0.25, "velocity": 105},
        {"pitch": 74, "start": 4.75, "duration": 0.25, "velocity": 105},
        {"pitch": 72, "start": 5.0, "duration": 0.25, "velocity": 106},
        {"pitch": 69, "start": 5.25, "duration": 0.25, "velocity": 106},
        {"pitch": 65, "start": 5.5, "duration": 0.25, "velocity": 106},
        {"pitch": 64, "start": 5.75, "duration": 0.25, "velocity": 107},
        {"pitch": 62, "start": 6.0, "duration": 0.25, "velocity": 107},
        {"pitch": 64, "start": 6.25, "duration": 0.25, "velocity": 107},
        {"pitch": 65, "start": 6.5, "duration": 0.25, "velocity": 108},
        {"pitch": 69, "start": 6.75, "duration": 0.25, "velocity": 108},
        {"pitch": 67, "start": 7.0, "duration": 0.25, "velocity": 108},
        {"pitch": 64, "start": 7.25, "duration": 0.25, "velocity": 109},
        {"pitch": 62, "start": 7.5, "duration": 0.25, "velocity": 109},
        {"pitch": 62, "start": 7.75, "duration": 0.25, "velocity": 109},
        {"pitch": 74, "start": 8.0, "duration": 0.25, "velocity": 110},
        {"pitch": 74, "start": 8.25, "duration": 0.25, "velocity": 110},
        {"pitch": 72, "start": 8.5, "duration": 0.25, "velocity": 110},
        {"pitch": 69, "start": 8.75, "duration": 0.25, "velocity": 110},
        {"pitch": 72, "start": 9.0, "duration": 0.25, "velocity": 111},
        {"pitch": 74, "start": 9.25, "duration": 0.25, "velocity": 111},
        {"pitch": 76, "start": 9.5, "duration": 0.25, "velocity": 111},
        {"pitch": 77, "start": 9.75, "duration": 0.25, "velocity": 111},
        {"pitch": 76, "start": 10.0, "duration": 0.25, "velocity": 112},
        {"pitch": 74, "start": 10.25, "duration": 0.25, "velocity": 112},
        {"pitch": 72, "start": 10.5, "duration": 0.25, "velocity": 112},
        {"pitch": 69, "start": 10.75, "duration": 0.25, "velocity": 112},
        {"pitch": 74, "start": 11.0, "duration": 0.25, "velocity": 112},
        {"pitch": 74, "start": 11.25, "duration": 0.25, "velocity": 113},
        {"pitch": 74, "start": 11.5, "duration": 0.25, "velocity": 113},
        {"pitch": 72, "start": 11.75, "duration": 0.25, "velocity": 113},
        {"pitch": 69, "start": 12.0, "duration": 0.25, "velocity": 113},
        {"pitch": 72, "start": 12.25, "duration": 0.25, "velocity": 114},
        {"pitch": 69, "start": 12.5, "duration": 0.25, "velocity": 114},
        {"pitch": 67, "start": 12.75, "duration": 0.25, "velocity": 114},
        {"pitch": 65, "start": 13.0, "duration": 0.25, "velocity": 114},
        {"pitch": 64, "start": 13.25, "duration": 0.25, "velocity": 115},
        {"pitch": 65, "start": 13.5, "duration": 0.25, "velocity": 115},
        {"pitch": 67, "start": 13.75, "duration": 0.25, "velocity": 115},
        {"pitch": 69, "start": 14.0, "duration": 0.5, "velocity": 115},
        {"pitch": 67, "start": 14.5, "duration": 0.5, "velocity": 110},
        {"pitch": 65, "start": 15.0, "duration": 0.5, "velocity": 105},
        {"pitch": 64, "start": 15.5, "duration": 0.5, "velocity": 100},
        {"pitch": 69, "start": 16.0, "duration": 0.5, "velocity": 95},
        {"pitch": 67, "start": 16.5, "duration": 0.5, "velocity": 90},
        {"pitch": 65, "start": 17.0, "duration": 0.5, "velocity": 90},
        {"pitch": 64, "start": 17.5, "duration": 0.5, "velocity": 90},
        {"pitch": 62, "start": 18.0, "duration": 1.0, "velocity": 85},
        {"pitch": 64, "start": 19.0, "duration": 1.0, "velocity": 85},
        {"pitch": 65, "start": 20.0, "duration": 0.5, "velocity": 85},
        {"pitch": 67, "start": 20.5, "duration": 0.5, "velocity": 85},
        {"pitch": 69, "start": 21.0, "duration": 0.5, "velocity": 90},
        {"pitch": 67, "start": 21.5, "duration": 0.5, "velocity": 90},
        {"pitch": 65, "start": 22.0, "duration": 0.5, "velocity": 90},
        {"pitch": 64, "start": 22.5, "duration": 0.5, "velocity": 85},
        {"pitch": 62, "start": 23.0, "duration": 1.0, "velocity": 85},
        {"pitch": 69, "start": 24.0, "duration": 1.0, "velocity": 85},
        {"pitch": 67, "start": 25.0, "duration": 0.5, "velocity": 85},
        {"pitch": 65, "start": 25.5, "duration": 0.5, "velocity": 85},
        {"pitch": 64, "start": 26.0, "duration": 0.5, "velocity": 80},
        {"pitch": 62, "start": 26.5, "duration": 0.5, "velocity": 80},
        {"pitch": 64, "start": 27.0, "duration": 0.5, "velocity": 80},
        {"pitch": 65, "start": 27.5, "duration": 0.5, "velocity": 80},
        {"pitch": 69, "start": 28.0, "duration": 1.0, "velocity": 80},
        {"pitch": 69, "start": 29.0, "duration": 1.0, "velocity": 75}
      ]
    },
    {
      "name": "Bass",
      "channel": 2,
      "instrument": 38,
      "cc_events": [
        {"time": 0.0, "controller": 7, "value": 85}
      ],
      "notes": [
        {"pitch": 38, "start": 0.0, "duration": 4.0, "velocity": 95},
        {"pitch": 36, "start": 4.0, "duration": 4.0, "velocity": 95},
        {"pitch": 34, "start": 8.0, "duration": 4.0, "velocity": 100},
        {"pitch": 36, "start": 12.0, "duration": 4.0, "velocity": 100},
        {"pitch": 38, "start": 16.0, "duration": 4.0, "velocity": 90},
        {"pitch": 36, "start": 20.0, "duration": 4.0, "velocity": 85},
        {"pitch": 34, "start": 24.0, "duration": 4.0, "velocity": 80},
        {"pitch": 36, "start": 28.0, "duration": 4.0, "velocity": 80}
      ]
    },
    {
      "name": "Drums",
      "channel": 9,
      "instrument": 0,
      "cc_events": [
        {"time": 0.0, "controller": 7, "value": 100}
      ],
      "notes": [
        {"pitch": 36, "start": 0.0, "duration": 0.25, "velocity": 115},
        {"pitch": 42, "start": 0.0, "duration": 0.125, "velocity": 95},
        {"pitch": 36, "start": 0.5, "duration": 0.25, "velocity": 110},
        {"pitch": 42, "start": 0.5, "duration": 0.125, "velocity": 90},
        {"pitch": 36, "start": 1.0, "duration": 0.25, "velocity": 115},
        {"pitch": 42, "start": 1.0, "duration": 0.125, "velocity": 95},
        {"pitch": 36, "start": 1.5, "duration": 0.25, "velocity": 110},
        {"pitch": 42, "start": 1.5, "duration": 0.125, "velocity": 90},
        {"pitch": 36, "start": 2.0, "duration": 0.25, "velocity": 115},
        {"pitch": 42, "start": 2.0, "duration": 0.125, "velocity": 95},
        {"pitch": 38, "start": 2.5, "duration": 0.25, "velocity": 100},
        {"pitch": 36, "start": 3.0, "duration": 0.25, "velocity": 115},
        {"pitch": 42, "start": 3.0, "duration": 0.125, "velocity": 95},
        {"pitch": 36, "start": 3.5, "duration": 0.25, "velocity": 110},
        {"pitch": 42, "start": 3.5, "duration": 0.125, "velocity": 90},
        {"pitch": 36, "start": 4.0, "duration": 0.25, "velocity": 115},
        {"pitch": 42, "start": 4.0, "duration": 0.125, "velocity": 95},
        {"pitch": 36, "start": 4.5, "duration": 0.25, "velocity": 110},
        {"pitch": 42, "start": 4.5, "duration": 0.125, "velocity": 90},
        {"pitch": 36, "start": 5.0, "duration": 0.25, "velocity": 115},
        {"pitch": 42, "start": 5.0, "duration": 0.125, "velocity": 95},
        {"pitch": 36, "start": 5.5, "duration": 0.25, "velocity": 110},
        {"pitch": 42, "start": 5.5, "duration": 0.125, "velocity": 90},
        {"pitch": 36, "start": 6.0, "duration": 0.25, "velocity": 115},
        {"pitch": 42, "start": 6.0, "duration": 0.125, "velocity": 95},
        {"pitch": 38, "start": 6.5, "duration": 0.25, "velocity": 100},
        {"pitch": 36, "start": 7.0, "duration": 0.25, "velocity": 115},
        {"pitch": 42, "start": 7.0, "duration": 0.125, "velocity": 95},
        {"pitch": 38, "start": 7.5, "duration": 0.25, "velocity": 100},
        {"pitch": 36, "start": 8.0, "duration": 0.25, "velocity": 120},
        {"pitch": 42, "start": 8.0, "duration": 0.125, "velocity": 100},
        {"pitch": 36, "start": 8.5, "duration": 0.25, "velocity": 115},
        {"pitch": 42, "start": 8.5, "duration": 0.125, "velocity": 95},
        {"pitch": 36, "start": 9.0, "duration": 0.25, "velocity": 120},
        {"pitch": 42, "start": 9.0, "duration": 0.125, "velocity": 100},
        {"pitch": 36, "start": 9.5, "duration": 0.25, "velocity": 115},
        {"pitch": 42, "start": 9.5, "duration": 0.125, "velocity": 95},
        {"pitch": 36, "start": 10.0, "duration": 0.25, "velocity": 120},
        {"pitch": 42, "start": 10.0, "duration": 0.125, "velocity": 100},
        {"pitch": 36, "start": 10.5, "duration": 0.25, "velocity": 115},
        {"pitch": 42, "start": 10.5, "duration": 0.125, "velocity": 95},
        {"pitch": 36, "start": 11.0, "duration": 0.25, "velocity": 120},
        {"pitch": 42, "start": 11.0, "duration": 0.125, "velocity": 100},
        {"pitch": 38, "start": 11.5, "duration": 0.25, "velocity": 105},
        {"pitch": 36, "start": 12.0, "duration": 0.25, "velocity": 120},
        {"pitch": 42, "start": 12.0, "duration": 0.125, "velocity": 100},
        {"pitch": 36, "start": 12.5, "duration": 0.25, "velocity": 115},
        {"pitch": 42, "start": 12.5, "duration": 0.125, "velocity": 95},
        {"pitch": 36, "start": 13.0, "duration": 0.25, "velocity": 120},
        {"pitch": 42, "start": 13.0, "duration": 0.125, "velocity": 100},
        {"pitch": 38, "start": 13.5, "duration": 0.25, "velocity": 105},
        {"pitch": 36, "start": 14.0, "duration": 0.25, "velocity": 120},
        {"pitch": 42, "start": 14.0, "duration": 0.125, "velocity": 100},
        {"pitch": 38, "start": 14.5, "duration": 0.25, "velocity": 105},
        {"pitch": 36, "start": 15.0, "duration": 0.25, "velocity": 120},
        {"pitch": 42, "start": 15.0, "duration": 0.125, "velocity": 100},
        {"pitch": 36, "start": 15.5, "duration": 0.25, "velocity": 110},
        {"pitch": 42, "start": 15.5, "duration": 0.125, "velocity": 90},
        {"pitch": 36, "start": 16.0, "duration": 0.25, "velocity": 100},
        {"pitch": 42, "start": 16.0, "duration": 0.125, "velocity": 85},
        {"pitch": 36, "start": 16.5, "duration": 0.25, "velocity": 95},
        {"pitch": 42, "start": 16.5, "duration": 0.125, "velocity": 80},
        {"pitch": 36, "start": 17.0, "duration": 0.25, "velocity": 100},
        {"pitch": 42, "start": 17.0, "duration": 0.125, "velocity": 85},
        {"pitch": 36, "start": 17.5, "duration": 0.25, "velocity": 95},
        {"pitch": 42, "start": 17.5, "duration": 0.125, "velocity": 80},
        {"pitch": 36, "start": 18.0, "duration": 0.5, "velocity": 90},
        {"pitch": 36, "start": 18.5, "duration": 0.5, "velocity": 85},
        {"pitch": 36, "start": 19.0, "duration": 0.5, "velocity": 90},
        {"pitch": 36, "start": 19.5, "duration": 0.5, "velocity": 85},
        {"pitch": 36, "start": 20.0, "duration": 0.5, "velocity": 90},
        {"pitch": 36, "start": 20.5, "duration": 0.5, "velocity": 85},
        {"pitch": 36, "start": 21.0, "duration": 0.5, "velocity": 90},
        {"pitch": 36, "start": 21.5, "duration": 0.5, "velocity": 85},
        {"pitch": 36, "start": 22.0, "duration": 0.5, "velocity": 90},
        {"pitch": 36, "start": 22.5, "duration": 0.5, "velocity": 85},
        {"pitch": 36, "start": 23.0, "duration": 0.5, "velocity": 90},
        {"pitch": 36, "start": 23.5, "duration": 0.5, "velocity": 85},
        {"pitch": 36, "start": 24.0, "duration": 0.5, "velocity": 90},
        {"pitch": 36, "start": 24.5, "duration": 0.5, "velocity": 85},
        {"pitch": 36, "start": 25.0, "duration": 0.5, "velocity": 85},
        {"pitch": 36, "start": 25.5, "duration": 0.5, "velocity": 80},
        {"pitch": 36, "start": 26.0, "duration": 0.5, "velocity": 85},
        {"pitch": 36, "start": 26.5, "duration": 0.5, "velocity": 80},
        {"pitch": 36, "start": 27.0, "duration": 0.5, "velocity": 85},
        {"pitch": 36, "start": 27.5, "duration": 0.5, "velocity": 80},
        {"pitch": 36, "start": 28.0, "duration": 0.5, "velocity": 85},
        {"pitch": 36, "start": 28.5, "duration": 0.5, "velocity": 80},
        {"pitch": 36, "start": 29.0, "duration": 1.0, "velocity": 75}
      ]
    }
  ]
}